M48
INCH,TZ
T1C0.0197
%
G90
G05
T1
X45340Y-22884
X45340Y-23217
X45340Y-23551
X45340Y-23884
X45340Y-38904
X45340Y-39237
X45340Y-39571
X45340Y-39904
X45340Y-54924
X45340Y-55257
X45340Y-55591
X45340Y-55924
X45340Y-70944
X45340Y-71277
X45340Y-71611
X45340Y-71944
X45340Y-86964
X45340Y-87297
X45340Y-87631
X45340Y-87964
X45340Y-15379
X45350Y-31224
X45350Y-31564
X45350Y-47244
X45350Y-47584
X45350Y-63264
X45350Y-63604
X45350Y-79284
X45350Y-79624
X45390Y-15009
X45436Y-30894
X45436Y-31894
X45436Y-46914
X45436Y-47914
X45436Y-62934
X45436Y-63934
X45436Y-78954
X45436Y-79954
X45540Y-14667
X45777Y-14379
X71152Y-88459
X71389Y-88171
X71493Y-22884
X71493Y-23884
X71493Y-38904
X71493Y-39904
X71493Y-54924
X71493Y-55924
X71493Y-70944
X71493Y-71944
X71539Y-87829
X71579Y-23214
X71579Y-23554
X71579Y-39234
X71579Y-39574
X71579Y-55254
X71579Y-55594
X71579Y-71274
X71579Y-71614
X71589Y-87459
X71590Y-14874
X71590Y-15207
X71590Y-15541
X71590Y-15874
X71590Y-30894
X71590Y-31227
X71590Y-31561
X71590Y-31894
X71590Y-46914
X71590Y-47247
X71590Y-47581
X71590Y-47914
X71590Y-62934
X71590Y-63267
X71590Y-63601
X71590Y-63934
X71590Y-78954
X71590Y-79287
X71590Y-79621
X71590Y-79954
T0
M30
