G04 #@! TF.GenerationSoftware,KiCad,Pcbnew,6.0.2+dfsg-1*
G04 #@! TF.CreationDate,2024-07-01T09:46:04-06:00*
G04 #@! TF.ProjectId,ckt-signal-2x-array,636b742d-7369-4676-9e61-6c2d32782d61,rev?*
G04 #@! TF.SameCoordinates,Original*
G04 #@! TF.FileFunction,Legend,Top*
G04 #@! TF.FilePolarity,Positive*
%FSLAX46Y46*%
G04 Gerber Fmt 4.6, Leading zero omitted, Abs format (unit mm)*
G04 Created by KiCad (PCBNEW 6.0.2+dfsg-1) date 2024-07-01 09:46:04*
%MOMM*%
%LPD*%
G01*
G04 APERTURE LIST*
%ADD10C,0.150000*%
%ADD11C,0.120000*%
G04 APERTURE END LIST*
D10*
X180531214Y-40803809D02*
X180531214Y-39836190D01*
X181015023Y-40320000D02*
X180047404Y-40320000D01*
X116468785Y-57641590D02*
X116468785Y-58609209D01*
X115984976Y-58125400D02*
X116952595Y-58125400D01*
X180531214Y-81494609D02*
X180531214Y-80526990D01*
X181015023Y-81010800D02*
X180047404Y-81010800D01*
X116468785Y-98332390D02*
X116468785Y-99300009D01*
X115984976Y-98816200D02*
X116952595Y-98816200D01*
X180531214Y-122185409D02*
X180531214Y-121217790D01*
X181015023Y-121701600D02*
X180047404Y-121701600D01*
X116468785Y-139023190D02*
X116468785Y-139990809D01*
X115984976Y-139507000D02*
X116952595Y-139507000D01*
X180531214Y-162876209D02*
X180531214Y-161908590D01*
X181015023Y-162392400D02*
X180047404Y-162392400D01*
X116468785Y-179713990D02*
X116468785Y-180681609D01*
X115984976Y-180197800D02*
X116952595Y-180197800D01*
X180531214Y-203567009D02*
X180531214Y-202599390D01*
X181015023Y-203083200D02*
X180047404Y-203083200D01*
X116468785Y-220404790D02*
X116468785Y-221372409D01*
X115984976Y-220888600D02*
X116952595Y-220888600D01*
X180531214Y-38263809D02*
X180531214Y-37296190D01*
X181015023Y-37780000D02*
X180047404Y-37780000D01*
X116468785Y-60181590D02*
X116468785Y-61149209D01*
X115984976Y-60665400D02*
X116952595Y-60665400D01*
X180531214Y-78954609D02*
X180531214Y-77986990D01*
X181015023Y-78470800D02*
X180047404Y-78470800D01*
X116468785Y-100872390D02*
X116468785Y-101840009D01*
X115984976Y-101356200D02*
X116952595Y-101356200D01*
X180531214Y-119645409D02*
X180531214Y-118677790D01*
X181015023Y-119161600D02*
X180047404Y-119161600D01*
X116468785Y-141563190D02*
X116468785Y-142530809D01*
X115984976Y-142047000D02*
X116952595Y-142047000D01*
X180531214Y-160336209D02*
X180531214Y-159368590D01*
X181015023Y-159852400D02*
X180047404Y-159852400D01*
X116468785Y-182253990D02*
X116468785Y-183221609D01*
X115984976Y-182737800D02*
X116952595Y-182737800D01*
X180531214Y-201027009D02*
X180531214Y-200059390D01*
X181015023Y-200543200D02*
X180047404Y-200543200D01*
X116468785Y-222944790D02*
X116468785Y-223912409D01*
X115984976Y-223428600D02*
X116952595Y-223428600D01*
X179745023Y-31157857D02*
X180773119Y-31157857D01*
X180894071Y-31097380D01*
X180954547Y-31036904D01*
X181015023Y-30915952D01*
X181015023Y-30674047D01*
X180954547Y-30553095D01*
X180894071Y-30492619D01*
X180773119Y-30432142D01*
X179745023Y-30432142D01*
X179805500Y-29162142D02*
X179745023Y-29283095D01*
X179745023Y-29464523D01*
X179805500Y-29645952D01*
X179926452Y-29766904D01*
X180047404Y-29827380D01*
X180289309Y-29887857D01*
X180470738Y-29887857D01*
X180712642Y-29827380D01*
X180833595Y-29766904D01*
X180954547Y-29645952D01*
X181015023Y-29464523D01*
X181015023Y-29343571D01*
X180954547Y-29162142D01*
X180894071Y-29101666D01*
X180470738Y-29101666D01*
X180470738Y-29343571D01*
X117254976Y-67287542D02*
X116226880Y-67287542D01*
X116105928Y-67348019D01*
X116045452Y-67408495D01*
X115984976Y-67529447D01*
X115984976Y-67771352D01*
X116045452Y-67892304D01*
X116105928Y-67952780D01*
X116226880Y-68013257D01*
X117254976Y-68013257D01*
X117194500Y-69283257D02*
X117254976Y-69162304D01*
X117254976Y-68980876D01*
X117194500Y-68799447D01*
X117073547Y-68678495D01*
X116952595Y-68618019D01*
X116710690Y-68557542D01*
X116529261Y-68557542D01*
X116287357Y-68618019D01*
X116166404Y-68678495D01*
X116045452Y-68799447D01*
X115984976Y-68980876D01*
X115984976Y-69101828D01*
X116045452Y-69283257D01*
X116105928Y-69343733D01*
X116529261Y-69343733D01*
X116529261Y-69101828D01*
X179745023Y-71848657D02*
X180773119Y-71848657D01*
X180894071Y-71788180D01*
X180954547Y-71727704D01*
X181015023Y-71606752D01*
X181015023Y-71364847D01*
X180954547Y-71243895D01*
X180894071Y-71183419D01*
X180773119Y-71122942D01*
X179745023Y-71122942D01*
X179805500Y-69852942D02*
X179745023Y-69973895D01*
X179745023Y-70155323D01*
X179805500Y-70336752D01*
X179926452Y-70457704D01*
X180047404Y-70518180D01*
X180289309Y-70578657D01*
X180470738Y-70578657D01*
X180712642Y-70518180D01*
X180833595Y-70457704D01*
X180954547Y-70336752D01*
X181015023Y-70155323D01*
X181015023Y-70034371D01*
X180954547Y-69852942D01*
X180894071Y-69792466D01*
X180470738Y-69792466D01*
X180470738Y-70034371D01*
X117254976Y-107978342D02*
X116226880Y-107978342D01*
X116105928Y-108038819D01*
X116045452Y-108099295D01*
X115984976Y-108220247D01*
X115984976Y-108462152D01*
X116045452Y-108583104D01*
X116105928Y-108643580D01*
X116226880Y-108704057D01*
X117254976Y-108704057D01*
X117194500Y-109974057D02*
X117254976Y-109853104D01*
X117254976Y-109671676D01*
X117194500Y-109490247D01*
X117073547Y-109369295D01*
X116952595Y-109308819D01*
X116710690Y-109248342D01*
X116529261Y-109248342D01*
X116287357Y-109308819D01*
X116166404Y-109369295D01*
X116045452Y-109490247D01*
X115984976Y-109671676D01*
X115984976Y-109792628D01*
X116045452Y-109974057D01*
X116105928Y-110034533D01*
X116529261Y-110034533D01*
X116529261Y-109792628D01*
X179745023Y-112539457D02*
X180773119Y-112539457D01*
X180894071Y-112478980D01*
X180954547Y-112418504D01*
X181015023Y-112297552D01*
X181015023Y-112055647D01*
X180954547Y-111934695D01*
X180894071Y-111874219D01*
X180773119Y-111813742D01*
X179745023Y-111813742D01*
X179805500Y-110543742D02*
X179745023Y-110664695D01*
X179745023Y-110846123D01*
X179805500Y-111027552D01*
X179926452Y-111148504D01*
X180047404Y-111208980D01*
X180289309Y-111269457D01*
X180470738Y-111269457D01*
X180712642Y-111208980D01*
X180833595Y-111148504D01*
X180954547Y-111027552D01*
X181015023Y-110846123D01*
X181015023Y-110725171D01*
X180954547Y-110543742D01*
X180894071Y-110483266D01*
X180470738Y-110483266D01*
X180470738Y-110725171D01*
X117254976Y-148669142D02*
X116226880Y-148669142D01*
X116105928Y-148729619D01*
X116045452Y-148790095D01*
X115984976Y-148911047D01*
X115984976Y-149152952D01*
X116045452Y-149273904D01*
X116105928Y-149334380D01*
X116226880Y-149394857D01*
X117254976Y-149394857D01*
X117194500Y-150664857D02*
X117254976Y-150543904D01*
X117254976Y-150362476D01*
X117194500Y-150181047D01*
X117073547Y-150060095D01*
X116952595Y-149999619D01*
X116710690Y-149939142D01*
X116529261Y-149939142D01*
X116287357Y-149999619D01*
X116166404Y-150060095D01*
X116045452Y-150181047D01*
X115984976Y-150362476D01*
X115984976Y-150483428D01*
X116045452Y-150664857D01*
X116105928Y-150725333D01*
X116529261Y-150725333D01*
X116529261Y-150483428D01*
X179745023Y-153230257D02*
X180773119Y-153230257D01*
X180894071Y-153169780D01*
X180954547Y-153109304D01*
X181015023Y-152988352D01*
X181015023Y-152746447D01*
X180954547Y-152625495D01*
X180894071Y-152565019D01*
X180773119Y-152504542D01*
X179745023Y-152504542D01*
X179805500Y-151234542D02*
X179745023Y-151355495D01*
X179745023Y-151536923D01*
X179805500Y-151718352D01*
X179926452Y-151839304D01*
X180047404Y-151899780D01*
X180289309Y-151960257D01*
X180470738Y-151960257D01*
X180712642Y-151899780D01*
X180833595Y-151839304D01*
X180954547Y-151718352D01*
X181015023Y-151536923D01*
X181015023Y-151415971D01*
X180954547Y-151234542D01*
X180894071Y-151174066D01*
X180470738Y-151174066D01*
X180470738Y-151415971D01*
X117254976Y-189359942D02*
X116226880Y-189359942D01*
X116105928Y-189420419D01*
X116045452Y-189480895D01*
X115984976Y-189601847D01*
X115984976Y-189843752D01*
X116045452Y-189964704D01*
X116105928Y-190025180D01*
X116226880Y-190085657D01*
X117254976Y-190085657D01*
X117194500Y-191355657D02*
X117254976Y-191234704D01*
X117254976Y-191053276D01*
X117194500Y-190871847D01*
X117073547Y-190750895D01*
X116952595Y-190690419D01*
X116710690Y-190629942D01*
X116529261Y-190629942D01*
X116287357Y-190690419D01*
X116166404Y-190750895D01*
X116045452Y-190871847D01*
X115984976Y-191053276D01*
X115984976Y-191174228D01*
X116045452Y-191355657D01*
X116105928Y-191416133D01*
X116529261Y-191416133D01*
X116529261Y-191174228D01*
X179745023Y-193921057D02*
X180773119Y-193921057D01*
X180894071Y-193860580D01*
X180954547Y-193800104D01*
X181015023Y-193679152D01*
X181015023Y-193437247D01*
X180954547Y-193316295D01*
X180894071Y-193255819D01*
X180773119Y-193195342D01*
X179745023Y-193195342D01*
X179805500Y-191925342D02*
X179745023Y-192046295D01*
X179745023Y-192227723D01*
X179805500Y-192409152D01*
X179926452Y-192530104D01*
X180047404Y-192590580D01*
X180289309Y-192651057D01*
X180470738Y-192651057D01*
X180712642Y-192590580D01*
X180833595Y-192530104D01*
X180954547Y-192409152D01*
X181015023Y-192227723D01*
X181015023Y-192106771D01*
X180954547Y-191925342D01*
X180894071Y-191864866D01*
X180470738Y-191864866D01*
X180470738Y-192106771D01*
X117254976Y-230050742D02*
X116226880Y-230050742D01*
X116105928Y-230111219D01*
X116045452Y-230171695D01*
X115984976Y-230292647D01*
X115984976Y-230534552D01*
X116045452Y-230655504D01*
X116105928Y-230715980D01*
X116226880Y-230776457D01*
X117254976Y-230776457D01*
X117194500Y-232046457D02*
X117254976Y-231925504D01*
X117254976Y-231744076D01*
X117194500Y-231562647D01*
X117073547Y-231441695D01*
X116952595Y-231381219D01*
X116710690Y-231320742D01*
X116529261Y-231320742D01*
X116287357Y-231381219D01*
X116166404Y-231441695D01*
X116045452Y-231562647D01*
X115984976Y-231744076D01*
X115984976Y-231865028D01*
X116045452Y-232046457D01*
X116105928Y-232106933D01*
X116529261Y-232106933D01*
X116529261Y-231865028D01*
X181015023Y-48181904D02*
X181015023Y-48786666D01*
X179745023Y-48786666D01*
X181015023Y-47032857D02*
X180410261Y-47456190D01*
X181015023Y-47758571D02*
X179745023Y-47758571D01*
X179745023Y-47274761D01*
X179805500Y-47153809D01*
X179865976Y-47093333D01*
X179986928Y-47032857D01*
X180168357Y-47032857D01*
X180289309Y-47093333D01*
X180349785Y-47153809D01*
X180410261Y-47274761D01*
X180410261Y-47758571D01*
X115984976Y-50263495D02*
X115984976Y-49658733D01*
X117254976Y-49658733D01*
X115984976Y-51412542D02*
X116589738Y-50989209D01*
X115984976Y-50686828D02*
X117254976Y-50686828D01*
X117254976Y-51170638D01*
X117194500Y-51291590D01*
X117134023Y-51352066D01*
X117013071Y-51412542D01*
X116831642Y-51412542D01*
X116710690Y-51352066D01*
X116650214Y-51291590D01*
X116589738Y-51170638D01*
X116589738Y-50686828D01*
X181015023Y-88872704D02*
X181015023Y-89477466D01*
X179745023Y-89477466D01*
X181015023Y-87723657D02*
X180410261Y-88146990D01*
X181015023Y-88449371D02*
X179745023Y-88449371D01*
X179745023Y-87965561D01*
X179805500Y-87844609D01*
X179865976Y-87784133D01*
X179986928Y-87723657D01*
X180168357Y-87723657D01*
X180289309Y-87784133D01*
X180349785Y-87844609D01*
X180410261Y-87965561D01*
X180410261Y-88449371D01*
X115984976Y-90954295D02*
X115984976Y-90349533D01*
X117254976Y-90349533D01*
X115984976Y-92103342D02*
X116589738Y-91680009D01*
X115984976Y-91377628D02*
X117254976Y-91377628D01*
X117254976Y-91861438D01*
X117194500Y-91982390D01*
X117134023Y-92042866D01*
X117013071Y-92103342D01*
X116831642Y-92103342D01*
X116710690Y-92042866D01*
X116650214Y-91982390D01*
X116589738Y-91861438D01*
X116589738Y-91377628D01*
X181015023Y-129563504D02*
X181015023Y-130168266D01*
X179745023Y-130168266D01*
X181015023Y-128414457D02*
X180410261Y-128837790D01*
X181015023Y-129140171D02*
X179745023Y-129140171D01*
X179745023Y-128656361D01*
X179805500Y-128535409D01*
X179865976Y-128474933D01*
X179986928Y-128414457D01*
X180168357Y-128414457D01*
X180289309Y-128474933D01*
X180349785Y-128535409D01*
X180410261Y-128656361D01*
X180410261Y-129140171D01*
X115984976Y-131645095D02*
X115984976Y-131040333D01*
X117254976Y-131040333D01*
X115984976Y-132794142D02*
X116589738Y-132370809D01*
X115984976Y-132068428D02*
X117254976Y-132068428D01*
X117254976Y-132552238D01*
X117194500Y-132673190D01*
X117134023Y-132733666D01*
X117013071Y-132794142D01*
X116831642Y-132794142D01*
X116710690Y-132733666D01*
X116650214Y-132673190D01*
X116589738Y-132552238D01*
X116589738Y-132068428D01*
X181015023Y-170254304D02*
X181015023Y-170859066D01*
X179745023Y-170859066D01*
X181015023Y-169105257D02*
X180410261Y-169528590D01*
X181015023Y-169830971D02*
X179745023Y-169830971D01*
X179745023Y-169347161D01*
X179805500Y-169226209D01*
X179865976Y-169165733D01*
X179986928Y-169105257D01*
X180168357Y-169105257D01*
X180289309Y-169165733D01*
X180349785Y-169226209D01*
X180410261Y-169347161D01*
X180410261Y-169830971D01*
X115984976Y-172335895D02*
X115984976Y-171731133D01*
X117254976Y-171731133D01*
X115984976Y-173484942D02*
X116589738Y-173061609D01*
X115984976Y-172759228D02*
X117254976Y-172759228D01*
X117254976Y-173243038D01*
X117194500Y-173363990D01*
X117134023Y-173424466D01*
X117013071Y-173484942D01*
X116831642Y-173484942D01*
X116710690Y-173424466D01*
X116650214Y-173363990D01*
X116589738Y-173243038D01*
X116589738Y-172759228D01*
X181015023Y-210945104D02*
X181015023Y-211549866D01*
X179745023Y-211549866D01*
X181015023Y-209796057D02*
X180410261Y-210219390D01*
X181015023Y-210521771D02*
X179745023Y-210521771D01*
X179745023Y-210037961D01*
X179805500Y-209917009D01*
X179865976Y-209856533D01*
X179986928Y-209796057D01*
X180168357Y-209796057D01*
X180289309Y-209856533D01*
X180349785Y-209917009D01*
X180410261Y-210037961D01*
X180410261Y-210521771D01*
X115984976Y-213026695D02*
X115984976Y-212421933D01*
X117254976Y-212421933D01*
X115984976Y-214175742D02*
X116589738Y-213752409D01*
X115984976Y-213450028D02*
X117254976Y-213450028D01*
X117254976Y-213933838D01*
X117194500Y-214054790D01*
X117134023Y-214115266D01*
X117013071Y-214175742D01*
X116831642Y-214175742D01*
X116710690Y-214115266D01*
X116650214Y-214054790D01*
X116589738Y-213933838D01*
X116589738Y-213450028D01*
X181015023Y-43101904D02*
X181015023Y-43706666D01*
X179745023Y-43706666D01*
X179805500Y-42013333D02*
X179745023Y-42134285D01*
X179745023Y-42315714D01*
X179805500Y-42497142D01*
X179926452Y-42618095D01*
X180047404Y-42678571D01*
X180289309Y-42739047D01*
X180470738Y-42739047D01*
X180712642Y-42678571D01*
X180833595Y-42618095D01*
X180954547Y-42497142D01*
X181015023Y-42315714D01*
X181015023Y-42194761D01*
X180954547Y-42013333D01*
X180894071Y-41952857D01*
X180470738Y-41952857D01*
X180470738Y-42194761D01*
X115984976Y-55343495D02*
X115984976Y-54738733D01*
X117254976Y-54738733D01*
X117194500Y-56432066D02*
X117254976Y-56311114D01*
X117254976Y-56129685D01*
X117194500Y-55948257D01*
X117073547Y-55827304D01*
X116952595Y-55766828D01*
X116710690Y-55706352D01*
X116529261Y-55706352D01*
X116287357Y-55766828D01*
X116166404Y-55827304D01*
X116045452Y-55948257D01*
X115984976Y-56129685D01*
X115984976Y-56250638D01*
X116045452Y-56432066D01*
X116105928Y-56492542D01*
X116529261Y-56492542D01*
X116529261Y-56250638D01*
X181015023Y-83792704D02*
X181015023Y-84397466D01*
X179745023Y-84397466D01*
X179805500Y-82704133D02*
X179745023Y-82825085D01*
X179745023Y-83006514D01*
X179805500Y-83187942D01*
X179926452Y-83308895D01*
X180047404Y-83369371D01*
X180289309Y-83429847D01*
X180470738Y-83429847D01*
X180712642Y-83369371D01*
X180833595Y-83308895D01*
X180954547Y-83187942D01*
X181015023Y-83006514D01*
X181015023Y-82885561D01*
X180954547Y-82704133D01*
X180894071Y-82643657D01*
X180470738Y-82643657D01*
X180470738Y-82885561D01*
X115984976Y-96034295D02*
X115984976Y-95429533D01*
X117254976Y-95429533D01*
X117194500Y-97122866D02*
X117254976Y-97001914D01*
X117254976Y-96820485D01*
X117194500Y-96639057D01*
X117073547Y-96518104D01*
X116952595Y-96457628D01*
X116710690Y-96397152D01*
X116529261Y-96397152D01*
X116287357Y-96457628D01*
X116166404Y-96518104D01*
X116045452Y-96639057D01*
X115984976Y-96820485D01*
X115984976Y-96941438D01*
X116045452Y-97122866D01*
X116105928Y-97183342D01*
X116529261Y-97183342D01*
X116529261Y-96941438D01*
X181015023Y-124483504D02*
X181015023Y-125088266D01*
X179745023Y-125088266D01*
X179805500Y-123394933D02*
X179745023Y-123515885D01*
X179745023Y-123697314D01*
X179805500Y-123878742D01*
X179926452Y-123999695D01*
X180047404Y-124060171D01*
X180289309Y-124120647D01*
X180470738Y-124120647D01*
X180712642Y-124060171D01*
X180833595Y-123999695D01*
X180954547Y-123878742D01*
X181015023Y-123697314D01*
X181015023Y-123576361D01*
X180954547Y-123394933D01*
X180894071Y-123334457D01*
X180470738Y-123334457D01*
X180470738Y-123576361D01*
X115984976Y-136725095D02*
X115984976Y-136120333D01*
X117254976Y-136120333D01*
X117194500Y-137813666D02*
X117254976Y-137692714D01*
X117254976Y-137511285D01*
X117194500Y-137329857D01*
X117073547Y-137208904D01*
X116952595Y-137148428D01*
X116710690Y-137087952D01*
X116529261Y-137087952D01*
X116287357Y-137148428D01*
X116166404Y-137208904D01*
X116045452Y-137329857D01*
X115984976Y-137511285D01*
X115984976Y-137632238D01*
X116045452Y-137813666D01*
X116105928Y-137874142D01*
X116529261Y-137874142D01*
X116529261Y-137632238D01*
X181015023Y-165174304D02*
X181015023Y-165779066D01*
X179745023Y-165779066D01*
X179805500Y-164085733D02*
X179745023Y-164206685D01*
X179745023Y-164388114D01*
X179805500Y-164569542D01*
X179926452Y-164690495D01*
X180047404Y-164750971D01*
X180289309Y-164811447D01*
X180470738Y-164811447D01*
X180712642Y-164750971D01*
X180833595Y-164690495D01*
X180954547Y-164569542D01*
X181015023Y-164388114D01*
X181015023Y-164267161D01*
X180954547Y-164085733D01*
X180894071Y-164025257D01*
X180470738Y-164025257D01*
X180470738Y-164267161D01*
X115984976Y-177415895D02*
X115984976Y-176811133D01*
X117254976Y-176811133D01*
X117194500Y-178504466D02*
X117254976Y-178383514D01*
X117254976Y-178202085D01*
X117194500Y-178020657D01*
X117073547Y-177899704D01*
X116952595Y-177839228D01*
X116710690Y-177778752D01*
X116529261Y-177778752D01*
X116287357Y-177839228D01*
X116166404Y-177899704D01*
X116045452Y-178020657D01*
X115984976Y-178202085D01*
X115984976Y-178323038D01*
X116045452Y-178504466D01*
X116105928Y-178564942D01*
X116529261Y-178564942D01*
X116529261Y-178323038D01*
X181015023Y-205865104D02*
X181015023Y-206469866D01*
X179745023Y-206469866D01*
X179805500Y-204776533D02*
X179745023Y-204897485D01*
X179745023Y-205078914D01*
X179805500Y-205260342D01*
X179926452Y-205381295D01*
X180047404Y-205441771D01*
X180289309Y-205502247D01*
X180470738Y-205502247D01*
X180712642Y-205441771D01*
X180833595Y-205381295D01*
X180954547Y-205260342D01*
X181015023Y-205078914D01*
X181015023Y-204957961D01*
X180954547Y-204776533D01*
X180894071Y-204716057D01*
X180470738Y-204716057D01*
X180470738Y-204957961D01*
X115984976Y-218106695D02*
X115984976Y-217501933D01*
X117254976Y-217501933D01*
X117194500Y-219195266D02*
X117254976Y-219074314D01*
X117254976Y-218892885D01*
X117194500Y-218711457D01*
X117073547Y-218590504D01*
X116952595Y-218530028D01*
X116710690Y-218469552D01*
X116529261Y-218469552D01*
X116287357Y-218530028D01*
X116166404Y-218590504D01*
X116045452Y-218711457D01*
X115984976Y-218892885D01*
X115984976Y-219013838D01*
X116045452Y-219195266D01*
X116105928Y-219255742D01*
X116529261Y-219255742D01*
X116529261Y-219013838D01*
X179745023Y-36237857D02*
X180773119Y-36237857D01*
X180894071Y-36177380D01*
X180954547Y-36116904D01*
X181015023Y-35995952D01*
X181015023Y-35754047D01*
X180954547Y-35633095D01*
X180894071Y-35572619D01*
X180773119Y-35512142D01*
X179745023Y-35512142D01*
X181015023Y-34181666D02*
X180410261Y-34605000D01*
X181015023Y-34907380D02*
X179745023Y-34907380D01*
X179745023Y-34423571D01*
X179805500Y-34302619D01*
X179865976Y-34242142D01*
X179986928Y-34181666D01*
X180168357Y-34181666D01*
X180289309Y-34242142D01*
X180349785Y-34302619D01*
X180410261Y-34423571D01*
X180410261Y-34907380D01*
X117254976Y-62207542D02*
X116226880Y-62207542D01*
X116105928Y-62268019D01*
X116045452Y-62328495D01*
X115984976Y-62449447D01*
X115984976Y-62691352D01*
X116045452Y-62812304D01*
X116105928Y-62872780D01*
X116226880Y-62933257D01*
X117254976Y-62933257D01*
X115984976Y-64263733D02*
X116589738Y-63840400D01*
X115984976Y-63538019D02*
X117254976Y-63538019D01*
X117254976Y-64021828D01*
X117194500Y-64142780D01*
X117134023Y-64203257D01*
X117013071Y-64263733D01*
X116831642Y-64263733D01*
X116710690Y-64203257D01*
X116650214Y-64142780D01*
X116589738Y-64021828D01*
X116589738Y-63538019D01*
X179745023Y-76928657D02*
X180773119Y-76928657D01*
X180894071Y-76868180D01*
X180954547Y-76807704D01*
X181015023Y-76686752D01*
X181015023Y-76444847D01*
X180954547Y-76323895D01*
X180894071Y-76263419D01*
X180773119Y-76202942D01*
X179745023Y-76202942D01*
X181015023Y-74872466D02*
X180410261Y-75295800D01*
X181015023Y-75598180D02*
X179745023Y-75598180D01*
X179745023Y-75114371D01*
X179805500Y-74993419D01*
X179865976Y-74932942D01*
X179986928Y-74872466D01*
X180168357Y-74872466D01*
X180289309Y-74932942D01*
X180349785Y-74993419D01*
X180410261Y-75114371D01*
X180410261Y-75598180D01*
X117254976Y-102898342D02*
X116226880Y-102898342D01*
X116105928Y-102958819D01*
X116045452Y-103019295D01*
X115984976Y-103140247D01*
X115984976Y-103382152D01*
X116045452Y-103503104D01*
X116105928Y-103563580D01*
X116226880Y-103624057D01*
X117254976Y-103624057D01*
X115984976Y-104954533D02*
X116589738Y-104531200D01*
X115984976Y-104228819D02*
X117254976Y-104228819D01*
X117254976Y-104712628D01*
X117194500Y-104833580D01*
X117134023Y-104894057D01*
X117013071Y-104954533D01*
X116831642Y-104954533D01*
X116710690Y-104894057D01*
X116650214Y-104833580D01*
X116589738Y-104712628D01*
X116589738Y-104228819D01*
X179745023Y-117619457D02*
X180773119Y-117619457D01*
X180894071Y-117558980D01*
X180954547Y-117498504D01*
X181015023Y-117377552D01*
X181015023Y-117135647D01*
X180954547Y-117014695D01*
X180894071Y-116954219D01*
X180773119Y-116893742D01*
X179745023Y-116893742D01*
X181015023Y-115563266D02*
X180410261Y-115986600D01*
X181015023Y-116288980D02*
X179745023Y-116288980D01*
X179745023Y-115805171D01*
X179805500Y-115684219D01*
X179865976Y-115623742D01*
X179986928Y-115563266D01*
X180168357Y-115563266D01*
X180289309Y-115623742D01*
X180349785Y-115684219D01*
X180410261Y-115805171D01*
X180410261Y-116288980D01*
X117254976Y-143589142D02*
X116226880Y-143589142D01*
X116105928Y-143649619D01*
X116045452Y-143710095D01*
X115984976Y-143831047D01*
X115984976Y-144072952D01*
X116045452Y-144193904D01*
X116105928Y-144254380D01*
X116226880Y-144314857D01*
X117254976Y-144314857D01*
X115984976Y-145645333D02*
X116589738Y-145222000D01*
X115984976Y-144919619D02*
X117254976Y-144919619D01*
X117254976Y-145403428D01*
X117194500Y-145524380D01*
X117134023Y-145584857D01*
X117013071Y-145645333D01*
X116831642Y-145645333D01*
X116710690Y-145584857D01*
X116650214Y-145524380D01*
X116589738Y-145403428D01*
X116589738Y-144919619D01*
X179745023Y-158310257D02*
X180773119Y-158310257D01*
X180894071Y-158249780D01*
X180954547Y-158189304D01*
X181015023Y-158068352D01*
X181015023Y-157826447D01*
X180954547Y-157705495D01*
X180894071Y-157645019D01*
X180773119Y-157584542D01*
X179745023Y-157584542D01*
X181015023Y-156254066D02*
X180410261Y-156677400D01*
X181015023Y-156979780D02*
X179745023Y-156979780D01*
X179745023Y-156495971D01*
X179805500Y-156375019D01*
X179865976Y-156314542D01*
X179986928Y-156254066D01*
X180168357Y-156254066D01*
X180289309Y-156314542D01*
X180349785Y-156375019D01*
X180410261Y-156495971D01*
X180410261Y-156979780D01*
X117254976Y-184279942D02*
X116226880Y-184279942D01*
X116105928Y-184340419D01*
X116045452Y-184400895D01*
X115984976Y-184521847D01*
X115984976Y-184763752D01*
X116045452Y-184884704D01*
X116105928Y-184945180D01*
X116226880Y-185005657D01*
X117254976Y-185005657D01*
X115984976Y-186336133D02*
X116589738Y-185912800D01*
X115984976Y-185610419D02*
X117254976Y-185610419D01*
X117254976Y-186094228D01*
X117194500Y-186215180D01*
X117134023Y-186275657D01*
X117013071Y-186336133D01*
X116831642Y-186336133D01*
X116710690Y-186275657D01*
X116650214Y-186215180D01*
X116589738Y-186094228D01*
X116589738Y-185610419D01*
X179745023Y-199001057D02*
X180773119Y-199001057D01*
X180894071Y-198940580D01*
X180954547Y-198880104D01*
X181015023Y-198759152D01*
X181015023Y-198517247D01*
X180954547Y-198396295D01*
X180894071Y-198335819D01*
X180773119Y-198275342D01*
X179745023Y-198275342D01*
X181015023Y-196944866D02*
X180410261Y-197368200D01*
X181015023Y-197670580D02*
X179745023Y-197670580D01*
X179745023Y-197186771D01*
X179805500Y-197065819D01*
X179865976Y-197005342D01*
X179986928Y-196944866D01*
X180168357Y-196944866D01*
X180289309Y-197005342D01*
X180349785Y-197065819D01*
X180410261Y-197186771D01*
X180410261Y-197670580D01*
X117254976Y-224970742D02*
X116226880Y-224970742D01*
X116105928Y-225031219D01*
X116045452Y-225091695D01*
X115984976Y-225212647D01*
X115984976Y-225454552D01*
X116045452Y-225575504D01*
X116105928Y-225635980D01*
X116226880Y-225696457D01*
X117254976Y-225696457D01*
X115984976Y-227026933D02*
X116589738Y-226603600D01*
X115984976Y-226301219D02*
X117254976Y-226301219D01*
X117254976Y-226785028D01*
X117194500Y-226905980D01*
X117134023Y-226966457D01*
X117013071Y-227026933D01*
X116831642Y-227026933D01*
X116710690Y-226966457D01*
X116650214Y-226905980D01*
X116589738Y-226785028D01*
X116589738Y-226301219D01*
X179745023Y-33607142D02*
X180773119Y-33607142D01*
X180894071Y-33546666D01*
X180954547Y-33486190D01*
X181015023Y-33365238D01*
X181015023Y-33123333D01*
X180954547Y-33002380D01*
X180894071Y-32941904D01*
X180773119Y-32881428D01*
X179745023Y-32881428D01*
X180410261Y-32034761D02*
X181015023Y-32034761D01*
X179745023Y-32458095D02*
X180410261Y-32034761D01*
X179745023Y-31611428D01*
X117254976Y-64838257D02*
X116226880Y-64838257D01*
X116105928Y-64898733D01*
X116045452Y-64959209D01*
X115984976Y-65080161D01*
X115984976Y-65322066D01*
X116045452Y-65443019D01*
X116105928Y-65503495D01*
X116226880Y-65563971D01*
X117254976Y-65563971D01*
X116589738Y-66410638D02*
X115984976Y-66410638D01*
X117254976Y-65987304D02*
X116589738Y-66410638D01*
X117254976Y-66833971D01*
X179745023Y-74297942D02*
X180773119Y-74297942D01*
X180894071Y-74237466D01*
X180954547Y-74176990D01*
X181015023Y-74056038D01*
X181015023Y-73814133D01*
X180954547Y-73693180D01*
X180894071Y-73632704D01*
X180773119Y-73572228D01*
X179745023Y-73572228D01*
X180410261Y-72725561D02*
X181015023Y-72725561D01*
X179745023Y-73148895D02*
X180410261Y-72725561D01*
X179745023Y-72302228D01*
X117254976Y-105529057D02*
X116226880Y-105529057D01*
X116105928Y-105589533D01*
X116045452Y-105650009D01*
X115984976Y-105770961D01*
X115984976Y-106012866D01*
X116045452Y-106133819D01*
X116105928Y-106194295D01*
X116226880Y-106254771D01*
X117254976Y-106254771D01*
X116589738Y-107101438D02*
X115984976Y-107101438D01*
X117254976Y-106678104D02*
X116589738Y-107101438D01*
X117254976Y-107524771D01*
X179745023Y-114988742D02*
X180773119Y-114988742D01*
X180894071Y-114928266D01*
X180954547Y-114867790D01*
X181015023Y-114746838D01*
X181015023Y-114504933D01*
X180954547Y-114383980D01*
X180894071Y-114323504D01*
X180773119Y-114263028D01*
X179745023Y-114263028D01*
X180410261Y-113416361D02*
X181015023Y-113416361D01*
X179745023Y-113839695D02*
X180410261Y-113416361D01*
X179745023Y-112993028D01*
X117254976Y-146219857D02*
X116226880Y-146219857D01*
X116105928Y-146280333D01*
X116045452Y-146340809D01*
X115984976Y-146461761D01*
X115984976Y-146703666D01*
X116045452Y-146824619D01*
X116105928Y-146885095D01*
X116226880Y-146945571D01*
X117254976Y-146945571D01*
X116589738Y-147792238D02*
X115984976Y-147792238D01*
X117254976Y-147368904D02*
X116589738Y-147792238D01*
X117254976Y-148215571D01*
X179745023Y-155679542D02*
X180773119Y-155679542D01*
X180894071Y-155619066D01*
X180954547Y-155558590D01*
X181015023Y-155437638D01*
X181015023Y-155195733D01*
X180954547Y-155074780D01*
X180894071Y-155014304D01*
X180773119Y-154953828D01*
X179745023Y-154953828D01*
X180410261Y-154107161D02*
X181015023Y-154107161D01*
X179745023Y-154530495D02*
X180410261Y-154107161D01*
X179745023Y-153683828D01*
X117254976Y-186910657D02*
X116226880Y-186910657D01*
X116105928Y-186971133D01*
X116045452Y-187031609D01*
X115984976Y-187152561D01*
X115984976Y-187394466D01*
X116045452Y-187515419D01*
X116105928Y-187575895D01*
X116226880Y-187636371D01*
X117254976Y-187636371D01*
X116589738Y-188483038D02*
X115984976Y-188483038D01*
X117254976Y-188059704D02*
X116589738Y-188483038D01*
X117254976Y-188906371D01*
X179745023Y-196370342D02*
X180773119Y-196370342D01*
X180894071Y-196309866D01*
X180954547Y-196249390D01*
X181015023Y-196128438D01*
X181015023Y-195886533D01*
X180954547Y-195765580D01*
X180894071Y-195705104D01*
X180773119Y-195644628D01*
X179745023Y-195644628D01*
X180410261Y-194797961D02*
X181015023Y-194797961D01*
X179745023Y-195221295D02*
X180410261Y-194797961D01*
X179745023Y-194374628D01*
X117254976Y-227601457D02*
X116226880Y-227601457D01*
X116105928Y-227661933D01*
X116045452Y-227722409D01*
X115984976Y-227843361D01*
X115984976Y-228085266D01*
X116045452Y-228206219D01*
X116105928Y-228266695D01*
X116226880Y-228327171D01*
X117254976Y-228327171D01*
X116589738Y-229173838D02*
X115984976Y-229173838D01*
X117254976Y-228750504D02*
X116589738Y-229173838D01*
X117254976Y-229597171D01*
X181015023Y-45551190D02*
X181015023Y-46155952D01*
X179745023Y-46155952D01*
X180410261Y-44885952D02*
X181015023Y-44885952D01*
X179745023Y-45309285D02*
X180410261Y-44885952D01*
X179745023Y-44462619D01*
X115984976Y-52894209D02*
X115984976Y-52289447D01*
X117254976Y-52289447D01*
X116589738Y-53559447D02*
X115984976Y-53559447D01*
X117254976Y-53136114D02*
X116589738Y-53559447D01*
X117254976Y-53982780D01*
X181015023Y-86241990D02*
X181015023Y-86846752D01*
X179745023Y-86846752D01*
X180410261Y-85576752D02*
X181015023Y-85576752D01*
X179745023Y-86000085D02*
X180410261Y-85576752D01*
X179745023Y-85153419D01*
X115984976Y-93585009D02*
X115984976Y-92980247D01*
X117254976Y-92980247D01*
X116589738Y-94250247D02*
X115984976Y-94250247D01*
X117254976Y-93826914D02*
X116589738Y-94250247D01*
X117254976Y-94673580D01*
X181015023Y-126932790D02*
X181015023Y-127537552D01*
X179745023Y-127537552D01*
X180410261Y-126267552D02*
X181015023Y-126267552D01*
X179745023Y-126690885D02*
X180410261Y-126267552D01*
X179745023Y-125844219D01*
X115984976Y-134275809D02*
X115984976Y-133671047D01*
X117254976Y-133671047D01*
X116589738Y-134941047D02*
X115984976Y-134941047D01*
X117254976Y-134517714D02*
X116589738Y-134941047D01*
X117254976Y-135364380D01*
X181015023Y-167623590D02*
X181015023Y-168228352D01*
X179745023Y-168228352D01*
X180410261Y-166958352D02*
X181015023Y-166958352D01*
X179745023Y-167381685D02*
X180410261Y-166958352D01*
X179745023Y-166535019D01*
X115984976Y-174966609D02*
X115984976Y-174361847D01*
X117254976Y-174361847D01*
X116589738Y-175631847D02*
X115984976Y-175631847D01*
X117254976Y-175208514D02*
X116589738Y-175631847D01*
X117254976Y-176055180D01*
X181015023Y-208314390D02*
X181015023Y-208919152D01*
X179745023Y-208919152D01*
X180410261Y-207649152D02*
X181015023Y-207649152D01*
X179745023Y-208072485D02*
X180410261Y-207649152D01*
X179745023Y-207225819D01*
X115984976Y-215657409D02*
X115984976Y-215052647D01*
X117254976Y-215052647D01*
X116589738Y-216322647D02*
X115984976Y-216322647D01*
X117254976Y-215899314D02*
X116589738Y-216322647D01*
X117254976Y-216745980D01*
X130235833Y-56164780D02*
X129902500Y-55688590D01*
X129664404Y-56164780D02*
X129664404Y-55164780D01*
X130045357Y-55164780D01*
X130140595Y-55212400D01*
X130188214Y-55260019D01*
X130235833Y-55355257D01*
X130235833Y-55498114D01*
X130188214Y-55593352D01*
X130140595Y-55640971D01*
X130045357Y-55688590D01*
X129664404Y-55688590D01*
X130569166Y-55164780D02*
X131188214Y-55164780D01*
X130854880Y-55545733D01*
X130997738Y-55545733D01*
X131092976Y-55593352D01*
X131140595Y-55640971D01*
X131188214Y-55736209D01*
X131188214Y-55974304D01*
X131140595Y-56069542D01*
X131092976Y-56117161D01*
X130997738Y-56164780D01*
X130712023Y-56164780D01*
X130616785Y-56117161D01*
X130569166Y-56069542D01*
X166764166Y-205043819D02*
X167097500Y-205520009D01*
X167335595Y-205043819D02*
X167335595Y-206043819D01*
X166954642Y-206043819D01*
X166859404Y-205996200D01*
X166811785Y-205948580D01*
X166764166Y-205853342D01*
X166764166Y-205710485D01*
X166811785Y-205615247D01*
X166859404Y-205567628D01*
X166954642Y-205520009D01*
X167335595Y-205520009D01*
X166430833Y-206043819D02*
X165811785Y-206043819D01*
X166145119Y-205662866D01*
X166002261Y-205662866D01*
X165907023Y-205615247D01*
X165859404Y-205567628D01*
X165811785Y-205472390D01*
X165811785Y-205234295D01*
X165859404Y-205139057D01*
X165907023Y-205091438D01*
X166002261Y-205043819D01*
X166287976Y-205043819D01*
X166383214Y-205091438D01*
X166430833Y-205139057D01*
X130235833Y-134879380D02*
X129902500Y-134403190D01*
X129664404Y-134879380D02*
X129664404Y-133879380D01*
X130045357Y-133879380D01*
X130140595Y-133927000D01*
X130188214Y-133974619D01*
X130235833Y-134069857D01*
X130235833Y-134212714D01*
X130188214Y-134307952D01*
X130140595Y-134355571D01*
X130045357Y-134403190D01*
X129664404Y-134403190D01*
X130616785Y-133974619D02*
X130664404Y-133927000D01*
X130759642Y-133879380D01*
X130997738Y-133879380D01*
X131092976Y-133927000D01*
X131140595Y-133974619D01*
X131188214Y-134069857D01*
X131188214Y-134165095D01*
X131140595Y-134307952D01*
X130569166Y-134879380D01*
X131188214Y-134879380D01*
X166764166Y-32247619D02*
X167097500Y-32723809D01*
X167335595Y-32247619D02*
X167335595Y-33247619D01*
X166954642Y-33247619D01*
X166859404Y-33200000D01*
X166811785Y-33152380D01*
X166764166Y-33057142D01*
X166764166Y-32914285D01*
X166811785Y-32819047D01*
X166859404Y-32771428D01*
X166954642Y-32723809D01*
X167335595Y-32723809D01*
X165859404Y-33247619D02*
X166335595Y-33247619D01*
X166383214Y-32771428D01*
X166335595Y-32819047D01*
X166240357Y-32866666D01*
X166002261Y-32866666D01*
X165907023Y-32819047D01*
X165859404Y-32771428D01*
X165811785Y-32676190D01*
X165811785Y-32438095D01*
X165859404Y-32342857D01*
X165907023Y-32295238D01*
X166002261Y-32247619D01*
X166240357Y-32247619D01*
X166335595Y-32295238D01*
X166383214Y-32342857D01*
X166764166Y-169433019D02*
X167097500Y-169909209D01*
X167335595Y-169433019D02*
X167335595Y-170433019D01*
X166954642Y-170433019D01*
X166859404Y-170385400D01*
X166811785Y-170337780D01*
X166764166Y-170242542D01*
X166764166Y-170099685D01*
X166811785Y-170004447D01*
X166859404Y-169956828D01*
X166954642Y-169909209D01*
X167335595Y-169909209D01*
X165811785Y-169433019D02*
X166383214Y-169433019D01*
X166097500Y-169433019D02*
X166097500Y-170433019D01*
X166192738Y-170290161D01*
X166287976Y-170194923D01*
X166383214Y-170147304D01*
X166764166Y-29707619D02*
X167097500Y-30183809D01*
X167335595Y-29707619D02*
X167335595Y-30707619D01*
X166954642Y-30707619D01*
X166859404Y-30660000D01*
X166811785Y-30612380D01*
X166764166Y-30517142D01*
X166764166Y-30374285D01*
X166811785Y-30279047D01*
X166859404Y-30231428D01*
X166954642Y-30183809D01*
X167335595Y-30183809D01*
X165907023Y-30707619D02*
X166097500Y-30707619D01*
X166192738Y-30660000D01*
X166240357Y-30612380D01*
X166335595Y-30469523D01*
X166383214Y-30279047D01*
X166383214Y-29898095D01*
X166335595Y-29802857D01*
X166287976Y-29755238D01*
X166192738Y-29707619D01*
X166002261Y-29707619D01*
X165907023Y-29755238D01*
X165859404Y-29802857D01*
X165811785Y-29898095D01*
X165811785Y-30136190D01*
X165859404Y-30231428D01*
X165907023Y-30279047D01*
X166002261Y-30326666D01*
X166192738Y-30326666D01*
X166287976Y-30279047D01*
X166335595Y-30231428D01*
X166383214Y-30136190D01*
X130235833Y-175570180D02*
X129902500Y-175093990D01*
X129664404Y-175570180D02*
X129664404Y-174570180D01*
X130045357Y-174570180D01*
X130140595Y-174617800D01*
X130188214Y-174665419D01*
X130235833Y-174760657D01*
X130235833Y-174903514D01*
X130188214Y-174998752D01*
X130140595Y-175046371D01*
X130045357Y-175093990D01*
X129664404Y-175093990D01*
X130616785Y-174665419D02*
X130664404Y-174617800D01*
X130759642Y-174570180D01*
X130997738Y-174570180D01*
X131092976Y-174617800D01*
X131140595Y-174665419D01*
X131188214Y-174760657D01*
X131188214Y-174855895D01*
X131140595Y-174998752D01*
X130569166Y-175570180D01*
X131188214Y-175570180D01*
X166764166Y-70398419D02*
X167097500Y-70874609D01*
X167335595Y-70398419D02*
X167335595Y-71398419D01*
X166954642Y-71398419D01*
X166859404Y-71350800D01*
X166811785Y-71303180D01*
X166764166Y-71207942D01*
X166764166Y-71065085D01*
X166811785Y-70969847D01*
X166859404Y-70922228D01*
X166954642Y-70874609D01*
X167335595Y-70874609D01*
X165907023Y-71398419D02*
X166097500Y-71398419D01*
X166192738Y-71350800D01*
X166240357Y-71303180D01*
X166335595Y-71160323D01*
X166383214Y-70969847D01*
X166383214Y-70588895D01*
X166335595Y-70493657D01*
X166287976Y-70446038D01*
X166192738Y-70398419D01*
X166002261Y-70398419D01*
X165907023Y-70446038D01*
X165859404Y-70493657D01*
X165811785Y-70588895D01*
X165811785Y-70826990D01*
X165859404Y-70922228D01*
X165907023Y-70969847D01*
X166002261Y-71017466D01*
X166192738Y-71017466D01*
X166287976Y-70969847D01*
X166335595Y-70922228D01*
X166383214Y-70826990D01*
X130235833Y-190810180D02*
X129902500Y-190333990D01*
X129664404Y-190810180D02*
X129664404Y-189810180D01*
X130045357Y-189810180D01*
X130140595Y-189857800D01*
X130188214Y-189905419D01*
X130235833Y-190000657D01*
X130235833Y-190143514D01*
X130188214Y-190238752D01*
X130140595Y-190286371D01*
X130045357Y-190333990D01*
X129664404Y-190333990D01*
X131092976Y-189810180D02*
X130902500Y-189810180D01*
X130807261Y-189857800D01*
X130759642Y-189905419D01*
X130664404Y-190048276D01*
X130616785Y-190238752D01*
X130616785Y-190619704D01*
X130664404Y-190714942D01*
X130712023Y-190762561D01*
X130807261Y-190810180D01*
X130997738Y-190810180D01*
X131092976Y-190762561D01*
X131140595Y-190714942D01*
X131188214Y-190619704D01*
X131188214Y-190381609D01*
X131140595Y-190286371D01*
X131092976Y-190238752D01*
X130997738Y-190191133D01*
X130807261Y-190191133D01*
X130712023Y-190238752D01*
X130664404Y-190286371D01*
X130616785Y-190381609D01*
X166764166Y-207710819D02*
X167097500Y-208187009D01*
X167335595Y-207710819D02*
X167335595Y-208710819D01*
X166954642Y-208710819D01*
X166859404Y-208663200D01*
X166811785Y-208615580D01*
X166764166Y-208520342D01*
X166764166Y-208377485D01*
X166811785Y-208282247D01*
X166859404Y-208234628D01*
X166954642Y-208187009D01*
X167335595Y-208187009D01*
X166383214Y-208615580D02*
X166335595Y-208663200D01*
X166240357Y-208710819D01*
X166002261Y-208710819D01*
X165907023Y-208663200D01*
X165859404Y-208615580D01*
X165811785Y-208520342D01*
X165811785Y-208425104D01*
X165859404Y-208282247D01*
X166430833Y-207710819D01*
X165811785Y-207710819D01*
X126093119Y-59062066D02*
X125378833Y-59062066D01*
X125235976Y-59014447D01*
X125140738Y-58919209D01*
X125093119Y-58776352D01*
X125093119Y-58681114D01*
X125093119Y-60062066D02*
X125093119Y-59490638D01*
X125093119Y-59776352D02*
X126093119Y-59776352D01*
X125950261Y-59681114D01*
X125855023Y-59585876D01*
X125807404Y-59490638D01*
X130235833Y-66197780D02*
X129902500Y-65721590D01*
X129664404Y-66197780D02*
X129664404Y-65197780D01*
X130045357Y-65197780D01*
X130140595Y-65245400D01*
X130188214Y-65293019D01*
X130235833Y-65388257D01*
X130235833Y-65531114D01*
X130188214Y-65626352D01*
X130140595Y-65673971D01*
X130045357Y-65721590D01*
X129664404Y-65721590D01*
X131140595Y-65197780D02*
X130664404Y-65197780D01*
X130616785Y-65673971D01*
X130664404Y-65626352D01*
X130759642Y-65578733D01*
X130997738Y-65578733D01*
X131092976Y-65626352D01*
X131140595Y-65673971D01*
X131188214Y-65769209D01*
X131188214Y-66007304D01*
X131140595Y-66102542D01*
X131092976Y-66150161D01*
X130997738Y-66197780D01*
X130759642Y-66197780D01*
X130664404Y-66150161D01*
X130616785Y-66102542D01*
X166764166Y-128742219D02*
X167097500Y-129218409D01*
X167335595Y-128742219D02*
X167335595Y-129742219D01*
X166954642Y-129742219D01*
X166859404Y-129694600D01*
X166811785Y-129646980D01*
X166764166Y-129551742D01*
X166764166Y-129408885D01*
X166811785Y-129313647D01*
X166859404Y-129266028D01*
X166954642Y-129218409D01*
X167335595Y-129218409D01*
X165811785Y-128742219D02*
X166383214Y-128742219D01*
X166097500Y-128742219D02*
X166097500Y-129742219D01*
X166192738Y-129599361D01*
X166287976Y-129504123D01*
X166383214Y-129456504D01*
X130235833Y-68737780D02*
X129902500Y-68261590D01*
X129664404Y-68737780D02*
X129664404Y-67737780D01*
X130045357Y-67737780D01*
X130140595Y-67785400D01*
X130188214Y-67833019D01*
X130235833Y-67928257D01*
X130235833Y-68071114D01*
X130188214Y-68166352D01*
X130140595Y-68213971D01*
X130045357Y-68261590D01*
X129664404Y-68261590D01*
X131092976Y-67737780D02*
X130902500Y-67737780D01*
X130807261Y-67785400D01*
X130759642Y-67833019D01*
X130664404Y-67975876D01*
X130616785Y-68166352D01*
X130616785Y-68547304D01*
X130664404Y-68642542D01*
X130712023Y-68690161D01*
X130807261Y-68737780D01*
X130997738Y-68737780D01*
X131092976Y-68690161D01*
X131140595Y-68642542D01*
X131188214Y-68547304D01*
X131188214Y-68309209D01*
X131140595Y-68213971D01*
X131092976Y-68166352D01*
X130997738Y-68118733D01*
X130807261Y-68118733D01*
X130712023Y-68166352D01*
X130664404Y-68213971D01*
X130616785Y-68309209D01*
X166764166Y-197550819D02*
X167097500Y-198027009D01*
X167335595Y-197550819D02*
X167335595Y-198550819D01*
X166954642Y-198550819D01*
X166859404Y-198503200D01*
X166811785Y-198455580D01*
X166764166Y-198360342D01*
X166764166Y-198217485D01*
X166811785Y-198122247D01*
X166859404Y-198074628D01*
X166954642Y-198027009D01*
X167335595Y-198027009D01*
X165907023Y-198217485D02*
X165907023Y-197550819D01*
X166145119Y-198598438D02*
X166383214Y-197884152D01*
X165764166Y-197884152D01*
X166764166Y-151780019D02*
X167097500Y-152256209D01*
X167335595Y-151780019D02*
X167335595Y-152780019D01*
X166954642Y-152780019D01*
X166859404Y-152732400D01*
X166811785Y-152684780D01*
X166764166Y-152589542D01*
X166764166Y-152446685D01*
X166811785Y-152351447D01*
X166859404Y-152303828D01*
X166954642Y-152256209D01*
X167335595Y-152256209D01*
X165907023Y-152780019D02*
X166097500Y-152780019D01*
X166192738Y-152732400D01*
X166240357Y-152684780D01*
X166335595Y-152541923D01*
X166383214Y-152351447D01*
X166383214Y-151970495D01*
X166335595Y-151875257D01*
X166287976Y-151827638D01*
X166192738Y-151780019D01*
X166002261Y-151780019D01*
X165907023Y-151827638D01*
X165859404Y-151875257D01*
X165811785Y-151970495D01*
X165811785Y-152208590D01*
X165859404Y-152303828D01*
X165907023Y-152351447D01*
X166002261Y-152399066D01*
X166192738Y-152399066D01*
X166287976Y-152351447D01*
X166335595Y-152303828D01*
X166383214Y-152208590D01*
X166764166Y-116169219D02*
X167097500Y-116645409D01*
X167335595Y-116169219D02*
X167335595Y-117169219D01*
X166954642Y-117169219D01*
X166859404Y-117121600D01*
X166811785Y-117073980D01*
X166764166Y-116978742D01*
X166764166Y-116835885D01*
X166811785Y-116740647D01*
X166859404Y-116693028D01*
X166954642Y-116645409D01*
X167335595Y-116645409D01*
X165907023Y-116835885D02*
X165907023Y-116169219D01*
X166145119Y-117216838D02*
X166383214Y-116502552D01*
X165764166Y-116502552D01*
X130235833Y-132466380D02*
X129902500Y-131990190D01*
X129664404Y-132466380D02*
X129664404Y-131466380D01*
X130045357Y-131466380D01*
X130140595Y-131514000D01*
X130188214Y-131561619D01*
X130235833Y-131656857D01*
X130235833Y-131799714D01*
X130188214Y-131894952D01*
X130140595Y-131942571D01*
X130045357Y-131990190D01*
X129664404Y-131990190D01*
X131188214Y-132466380D02*
X130616785Y-132466380D01*
X130902500Y-132466380D02*
X130902500Y-131466380D01*
X130807261Y-131609238D01*
X130712023Y-131704476D01*
X130616785Y-131752095D01*
X166764166Y-88051419D02*
X167097500Y-88527609D01*
X167335595Y-88051419D02*
X167335595Y-89051419D01*
X166954642Y-89051419D01*
X166859404Y-89003800D01*
X166811785Y-88956180D01*
X166764166Y-88860942D01*
X166764166Y-88718085D01*
X166811785Y-88622847D01*
X166859404Y-88575228D01*
X166954642Y-88527609D01*
X167335595Y-88527609D01*
X165811785Y-88051419D02*
X166383214Y-88051419D01*
X166097500Y-88051419D02*
X166097500Y-89051419D01*
X166192738Y-88908561D01*
X166287976Y-88813323D01*
X166383214Y-88765704D01*
X166764166Y-47360619D02*
X167097500Y-47836809D01*
X167335595Y-47360619D02*
X167335595Y-48360619D01*
X166954642Y-48360619D01*
X166859404Y-48313000D01*
X166811785Y-48265380D01*
X166764166Y-48170142D01*
X166764166Y-48027285D01*
X166811785Y-47932047D01*
X166859404Y-47884428D01*
X166954642Y-47836809D01*
X167335595Y-47836809D01*
X165811785Y-47360619D02*
X166383214Y-47360619D01*
X166097500Y-47360619D02*
X166097500Y-48360619D01*
X166192738Y-48217761D01*
X166287976Y-48122523D01*
X166383214Y-48074904D01*
X126093119Y-221825266D02*
X125378833Y-221825266D01*
X125235976Y-221777647D01*
X125140738Y-221682409D01*
X125093119Y-221539552D01*
X125093119Y-221444314D01*
X125093119Y-222825266D02*
X125093119Y-222253838D01*
X125093119Y-222539552D02*
X126093119Y-222539552D01*
X125950261Y-222444314D01*
X125855023Y-222349076D01*
X125807404Y-222253838D01*
X126093119Y-140443666D02*
X125378833Y-140443666D01*
X125235976Y-140396047D01*
X125140738Y-140300809D01*
X125093119Y-140157952D01*
X125093119Y-140062714D01*
X125093119Y-141443666D02*
X125093119Y-140872238D01*
X125093119Y-141157952D02*
X126093119Y-141157952D01*
X125950261Y-141062714D01*
X125855023Y-140967476D01*
X125807404Y-140872238D01*
X166764166Y-126329219D02*
X167097500Y-126805409D01*
X167335595Y-126329219D02*
X167335595Y-127329219D01*
X166954642Y-127329219D01*
X166859404Y-127281600D01*
X166811785Y-127233980D01*
X166764166Y-127138742D01*
X166764166Y-126995885D01*
X166811785Y-126900647D01*
X166859404Y-126853028D01*
X166954642Y-126805409D01*
X167335595Y-126805409D01*
X166383214Y-127233980D02*
X166335595Y-127281600D01*
X166240357Y-127329219D01*
X166002261Y-127329219D01*
X165907023Y-127281600D01*
X165859404Y-127233980D01*
X165811785Y-127138742D01*
X165811785Y-127043504D01*
X165859404Y-126900647D01*
X166430833Y-126329219D01*
X165811785Y-126329219D01*
X166764166Y-42280619D02*
X167097500Y-42756809D01*
X167335595Y-42280619D02*
X167335595Y-43280619D01*
X166954642Y-43280619D01*
X166859404Y-43233000D01*
X166811785Y-43185380D01*
X166764166Y-43090142D01*
X166764166Y-42947285D01*
X166811785Y-42852047D01*
X166859404Y-42804428D01*
X166954642Y-42756809D01*
X167335595Y-42756809D01*
X166430833Y-43280619D02*
X165811785Y-43280619D01*
X166145119Y-42899666D01*
X166002261Y-42899666D01*
X165907023Y-42852047D01*
X165859404Y-42804428D01*
X165811785Y-42709190D01*
X165811785Y-42471095D01*
X165859404Y-42375857D01*
X165907023Y-42328238D01*
X166002261Y-42280619D01*
X166287976Y-42280619D01*
X166383214Y-42328238D01*
X166430833Y-42375857D01*
X130235833Y-104348580D02*
X129902500Y-103872390D01*
X129664404Y-104348580D02*
X129664404Y-103348580D01*
X130045357Y-103348580D01*
X130140595Y-103396200D01*
X130188214Y-103443819D01*
X130235833Y-103539057D01*
X130235833Y-103681914D01*
X130188214Y-103777152D01*
X130140595Y-103824771D01*
X130045357Y-103872390D01*
X129664404Y-103872390D01*
X131092976Y-103681914D02*
X131092976Y-104348580D01*
X130854880Y-103300961D02*
X130616785Y-104015247D01*
X131235833Y-104015247D01*
X170906880Y-202146533D02*
X171621166Y-202146533D01*
X171764023Y-202194152D01*
X171859261Y-202289390D01*
X171906880Y-202432247D01*
X171906880Y-202527485D01*
X171906880Y-201146533D02*
X171906880Y-201717961D01*
X171906880Y-201432247D02*
X170906880Y-201432247D01*
X171049738Y-201527485D01*
X171144976Y-201622723D01*
X171192595Y-201717961D01*
X166764166Y-85638419D02*
X167097500Y-86114609D01*
X167335595Y-85638419D02*
X167335595Y-86638419D01*
X166954642Y-86638419D01*
X166859404Y-86590800D01*
X166811785Y-86543180D01*
X166764166Y-86447942D01*
X166764166Y-86305085D01*
X166811785Y-86209847D01*
X166859404Y-86162228D01*
X166954642Y-86114609D01*
X167335595Y-86114609D01*
X166383214Y-86543180D02*
X166335595Y-86590800D01*
X166240357Y-86638419D01*
X166002261Y-86638419D01*
X165907023Y-86590800D01*
X165859404Y-86543180D01*
X165811785Y-86447942D01*
X165811785Y-86352704D01*
X165859404Y-86209847D01*
X166430833Y-85638419D01*
X165811785Y-85638419D01*
X166764166Y-164353019D02*
X167097500Y-164829209D01*
X167335595Y-164353019D02*
X167335595Y-165353019D01*
X166954642Y-165353019D01*
X166859404Y-165305400D01*
X166811785Y-165257780D01*
X166764166Y-165162542D01*
X166764166Y-165019685D01*
X166811785Y-164924447D01*
X166859404Y-164876828D01*
X166954642Y-164829209D01*
X167335595Y-164829209D01*
X166430833Y-165353019D02*
X165811785Y-165353019D01*
X166145119Y-164972066D01*
X166002261Y-164972066D01*
X165907023Y-164924447D01*
X165859404Y-164876828D01*
X165811785Y-164781590D01*
X165811785Y-164543495D01*
X165859404Y-164448257D01*
X165907023Y-164400638D01*
X166002261Y-164353019D01*
X166287976Y-164353019D01*
X166383214Y-164400638D01*
X166430833Y-164448257D01*
X130235833Y-53497780D02*
X129902500Y-53021590D01*
X129664404Y-53497780D02*
X129664404Y-52497780D01*
X130045357Y-52497780D01*
X130140595Y-52545400D01*
X130188214Y-52593019D01*
X130235833Y-52688257D01*
X130235833Y-52831114D01*
X130188214Y-52926352D01*
X130140595Y-52973971D01*
X130045357Y-53021590D01*
X129664404Y-53021590D01*
X130616785Y-52593019D02*
X130664404Y-52545400D01*
X130759642Y-52497780D01*
X130997738Y-52497780D01*
X131092976Y-52545400D01*
X131140595Y-52593019D01*
X131188214Y-52688257D01*
X131188214Y-52783495D01*
X131140595Y-52926352D01*
X130569166Y-53497780D01*
X131188214Y-53497780D01*
X130235833Y-94188580D02*
X129902500Y-93712390D01*
X129664404Y-94188580D02*
X129664404Y-93188580D01*
X130045357Y-93188580D01*
X130140595Y-93236200D01*
X130188214Y-93283819D01*
X130235833Y-93379057D01*
X130235833Y-93521914D01*
X130188214Y-93617152D01*
X130140595Y-93664771D01*
X130045357Y-93712390D01*
X129664404Y-93712390D01*
X130616785Y-93283819D02*
X130664404Y-93236200D01*
X130759642Y-93188580D01*
X130997738Y-93188580D01*
X131092976Y-93236200D01*
X131140595Y-93283819D01*
X131188214Y-93379057D01*
X131188214Y-93474295D01*
X131140595Y-93617152D01*
X130569166Y-94188580D01*
X131188214Y-94188580D01*
X166764166Y-111089219D02*
X167097500Y-111565409D01*
X167335595Y-111089219D02*
X167335595Y-112089219D01*
X166954642Y-112089219D01*
X166859404Y-112041600D01*
X166811785Y-111993980D01*
X166764166Y-111898742D01*
X166764166Y-111755885D01*
X166811785Y-111660647D01*
X166859404Y-111613028D01*
X166954642Y-111565409D01*
X167335595Y-111565409D01*
X165907023Y-112089219D02*
X166097500Y-112089219D01*
X166192738Y-112041600D01*
X166240357Y-111993980D01*
X166335595Y-111851123D01*
X166383214Y-111660647D01*
X166383214Y-111279695D01*
X166335595Y-111184457D01*
X166287976Y-111136838D01*
X166192738Y-111089219D01*
X166002261Y-111089219D01*
X165907023Y-111136838D01*
X165859404Y-111184457D01*
X165811785Y-111279695D01*
X165811785Y-111517790D01*
X165859404Y-111613028D01*
X165907023Y-111660647D01*
X166002261Y-111708266D01*
X166192738Y-111708266D01*
X166287976Y-111660647D01*
X166335595Y-111613028D01*
X166383214Y-111517790D01*
X126093119Y-99752866D02*
X125378833Y-99752866D01*
X125235976Y-99705247D01*
X125140738Y-99610009D01*
X125093119Y-99467152D01*
X125093119Y-99371914D01*
X125093119Y-100752866D02*
X125093119Y-100181438D01*
X125093119Y-100467152D02*
X126093119Y-100467152D01*
X125950261Y-100371914D01*
X125855023Y-100276676D01*
X125807404Y-100181438D01*
X130235833Y-137546380D02*
X129902500Y-137070190D01*
X129664404Y-137546380D02*
X129664404Y-136546380D01*
X130045357Y-136546380D01*
X130140595Y-136594000D01*
X130188214Y-136641619D01*
X130235833Y-136736857D01*
X130235833Y-136879714D01*
X130188214Y-136974952D01*
X130140595Y-137022571D01*
X130045357Y-137070190D01*
X129664404Y-137070190D01*
X130569166Y-136546380D02*
X131188214Y-136546380D01*
X130854880Y-136927333D01*
X130997738Y-136927333D01*
X131092976Y-136974952D01*
X131140595Y-137022571D01*
X131188214Y-137117809D01*
X131188214Y-137355904D01*
X131140595Y-137451142D01*
X131092976Y-137498761D01*
X130997738Y-137546380D01*
X130712023Y-137546380D01*
X130616785Y-137498761D01*
X130569166Y-137451142D01*
X166764166Y-82971419D02*
X167097500Y-83447609D01*
X167335595Y-82971419D02*
X167335595Y-83971419D01*
X166954642Y-83971419D01*
X166859404Y-83923800D01*
X166811785Y-83876180D01*
X166764166Y-83780942D01*
X166764166Y-83638085D01*
X166811785Y-83542847D01*
X166859404Y-83495228D01*
X166954642Y-83447609D01*
X167335595Y-83447609D01*
X166430833Y-83971419D02*
X165811785Y-83971419D01*
X166145119Y-83590466D01*
X166002261Y-83590466D01*
X165907023Y-83542847D01*
X165859404Y-83495228D01*
X165811785Y-83399990D01*
X165811785Y-83161895D01*
X165859404Y-83066657D01*
X165907023Y-83019038D01*
X166002261Y-82971419D01*
X166287976Y-82971419D01*
X166383214Y-83019038D01*
X166430833Y-83066657D01*
X130235833Y-147579380D02*
X129902500Y-147103190D01*
X129664404Y-147579380D02*
X129664404Y-146579380D01*
X130045357Y-146579380D01*
X130140595Y-146627000D01*
X130188214Y-146674619D01*
X130235833Y-146769857D01*
X130235833Y-146912714D01*
X130188214Y-147007952D01*
X130140595Y-147055571D01*
X130045357Y-147103190D01*
X129664404Y-147103190D01*
X131140595Y-146579380D02*
X130664404Y-146579380D01*
X130616785Y-147055571D01*
X130664404Y-147007952D01*
X130759642Y-146960333D01*
X130997738Y-146960333D01*
X131092976Y-147007952D01*
X131140595Y-147055571D01*
X131188214Y-147150809D01*
X131188214Y-147388904D01*
X131140595Y-147484142D01*
X131092976Y-147531761D01*
X130997738Y-147579380D01*
X130759642Y-147579380D01*
X130664404Y-147531761D01*
X130616785Y-147484142D01*
X130235833Y-185730180D02*
X129902500Y-185253990D01*
X129664404Y-185730180D02*
X129664404Y-184730180D01*
X130045357Y-184730180D01*
X130140595Y-184777800D01*
X130188214Y-184825419D01*
X130235833Y-184920657D01*
X130235833Y-185063514D01*
X130188214Y-185158752D01*
X130140595Y-185206371D01*
X130045357Y-185253990D01*
X129664404Y-185253990D01*
X131092976Y-185063514D02*
X131092976Y-185730180D01*
X130854880Y-184682561D02*
X130616785Y-185396847D01*
X131235833Y-185396847D01*
X166764166Y-75478419D02*
X167097500Y-75954609D01*
X167335595Y-75478419D02*
X167335595Y-76478419D01*
X166954642Y-76478419D01*
X166859404Y-76430800D01*
X166811785Y-76383180D01*
X166764166Y-76287942D01*
X166764166Y-76145085D01*
X166811785Y-76049847D01*
X166859404Y-76002228D01*
X166954642Y-75954609D01*
X167335595Y-75954609D01*
X165907023Y-76145085D02*
X165907023Y-75478419D01*
X166145119Y-76526038D02*
X166383214Y-75811752D01*
X165764166Y-75811752D01*
X166764166Y-154320019D02*
X167097500Y-154796209D01*
X167335595Y-154320019D02*
X167335595Y-155320019D01*
X166954642Y-155320019D01*
X166859404Y-155272400D01*
X166811785Y-155224780D01*
X166764166Y-155129542D01*
X166764166Y-154986685D01*
X166811785Y-154891447D01*
X166859404Y-154843828D01*
X166954642Y-154796209D01*
X167335595Y-154796209D01*
X165859404Y-155320019D02*
X166335595Y-155320019D01*
X166383214Y-154843828D01*
X166335595Y-154891447D01*
X166240357Y-154939066D01*
X166002261Y-154939066D01*
X165907023Y-154891447D01*
X165859404Y-154843828D01*
X165811785Y-154748590D01*
X165811785Y-154510495D01*
X165859404Y-154415257D01*
X165907023Y-154367638D01*
X166002261Y-154320019D01*
X166240357Y-154320019D01*
X166335595Y-154367638D01*
X166383214Y-154415257D01*
X130235833Y-150119380D02*
X129902500Y-149643190D01*
X129664404Y-150119380D02*
X129664404Y-149119380D01*
X130045357Y-149119380D01*
X130140595Y-149167000D01*
X130188214Y-149214619D01*
X130235833Y-149309857D01*
X130235833Y-149452714D01*
X130188214Y-149547952D01*
X130140595Y-149595571D01*
X130045357Y-149643190D01*
X129664404Y-149643190D01*
X131092976Y-149119380D02*
X130902500Y-149119380D01*
X130807261Y-149167000D01*
X130759642Y-149214619D01*
X130664404Y-149357476D01*
X130616785Y-149547952D01*
X130616785Y-149928904D01*
X130664404Y-150024142D01*
X130712023Y-150071761D01*
X130807261Y-150119380D01*
X130997738Y-150119380D01*
X131092976Y-150071761D01*
X131140595Y-150024142D01*
X131188214Y-149928904D01*
X131188214Y-149690809D01*
X131140595Y-149595571D01*
X131092976Y-149547952D01*
X130997738Y-149500333D01*
X130807261Y-149500333D01*
X130712023Y-149547952D01*
X130664404Y-149595571D01*
X130616785Y-149690809D01*
X166764166Y-44947619D02*
X167097500Y-45423809D01*
X167335595Y-44947619D02*
X167335595Y-45947619D01*
X166954642Y-45947619D01*
X166859404Y-45900000D01*
X166811785Y-45852380D01*
X166764166Y-45757142D01*
X166764166Y-45614285D01*
X166811785Y-45519047D01*
X166859404Y-45471428D01*
X166954642Y-45423809D01*
X167335595Y-45423809D01*
X166383214Y-45852380D02*
X166335595Y-45900000D01*
X166240357Y-45947619D01*
X166002261Y-45947619D01*
X165907023Y-45900000D01*
X165859404Y-45852380D01*
X165811785Y-45757142D01*
X165811785Y-45661904D01*
X165859404Y-45519047D01*
X166430833Y-44947619D01*
X165811785Y-44947619D01*
X130235833Y-91775580D02*
X129902500Y-91299390D01*
X129664404Y-91775580D02*
X129664404Y-90775580D01*
X130045357Y-90775580D01*
X130140595Y-90823200D01*
X130188214Y-90870819D01*
X130235833Y-90966057D01*
X130235833Y-91108914D01*
X130188214Y-91204152D01*
X130140595Y-91251771D01*
X130045357Y-91299390D01*
X129664404Y-91299390D01*
X131188214Y-91775580D02*
X130616785Y-91775580D01*
X130902500Y-91775580D02*
X130902500Y-90775580D01*
X130807261Y-90918438D01*
X130712023Y-91013676D01*
X130616785Y-91061295D01*
X130235833Y-226420980D02*
X129902500Y-225944790D01*
X129664404Y-226420980D02*
X129664404Y-225420980D01*
X130045357Y-225420980D01*
X130140595Y-225468600D01*
X130188214Y-225516219D01*
X130235833Y-225611457D01*
X130235833Y-225754314D01*
X130188214Y-225849552D01*
X130140595Y-225897171D01*
X130045357Y-225944790D01*
X129664404Y-225944790D01*
X131092976Y-225754314D02*
X131092976Y-226420980D01*
X130854880Y-225373361D02*
X130616785Y-226087647D01*
X131235833Y-226087647D01*
X130235833Y-218927980D02*
X129902500Y-218451790D01*
X129664404Y-218927980D02*
X129664404Y-217927980D01*
X130045357Y-217927980D01*
X130140595Y-217975600D01*
X130188214Y-218023219D01*
X130235833Y-218118457D01*
X130235833Y-218261314D01*
X130188214Y-218356552D01*
X130140595Y-218404171D01*
X130045357Y-218451790D01*
X129664404Y-218451790D01*
X130569166Y-217927980D02*
X131188214Y-217927980D01*
X130854880Y-218308933D01*
X130997738Y-218308933D01*
X131092976Y-218356552D01*
X131140595Y-218404171D01*
X131188214Y-218499409D01*
X131188214Y-218737504D01*
X131140595Y-218832742D01*
X131092976Y-218880361D01*
X130997738Y-218927980D01*
X130712023Y-218927980D01*
X130616785Y-218880361D01*
X130569166Y-218832742D01*
X166764166Y-167020019D02*
X167097500Y-167496209D01*
X167335595Y-167020019D02*
X167335595Y-168020019D01*
X166954642Y-168020019D01*
X166859404Y-167972400D01*
X166811785Y-167924780D01*
X166764166Y-167829542D01*
X166764166Y-167686685D01*
X166811785Y-167591447D01*
X166859404Y-167543828D01*
X166954642Y-167496209D01*
X167335595Y-167496209D01*
X166383214Y-167924780D02*
X166335595Y-167972400D01*
X166240357Y-168020019D01*
X166002261Y-168020019D01*
X165907023Y-167972400D01*
X165859404Y-167924780D01*
X165811785Y-167829542D01*
X165811785Y-167734304D01*
X165859404Y-167591447D01*
X166430833Y-167020019D01*
X165811785Y-167020019D01*
X130235833Y-51084780D02*
X129902500Y-50608590D01*
X129664404Y-51084780D02*
X129664404Y-50084780D01*
X130045357Y-50084780D01*
X130140595Y-50132400D01*
X130188214Y-50180019D01*
X130235833Y-50275257D01*
X130235833Y-50418114D01*
X130188214Y-50513352D01*
X130140595Y-50560971D01*
X130045357Y-50608590D01*
X129664404Y-50608590D01*
X131188214Y-51084780D02*
X130616785Y-51084780D01*
X130902500Y-51084780D02*
X130902500Y-50084780D01*
X130807261Y-50227638D01*
X130712023Y-50322876D01*
X130616785Y-50370495D01*
X130235833Y-145039380D02*
X129902500Y-144563190D01*
X129664404Y-145039380D02*
X129664404Y-144039380D01*
X130045357Y-144039380D01*
X130140595Y-144087000D01*
X130188214Y-144134619D01*
X130235833Y-144229857D01*
X130235833Y-144372714D01*
X130188214Y-144467952D01*
X130140595Y-144515571D01*
X130045357Y-144563190D01*
X129664404Y-144563190D01*
X131092976Y-144372714D02*
X131092976Y-145039380D01*
X130854880Y-143991761D02*
X130616785Y-144706047D01*
X131235833Y-144706047D01*
X130235833Y-178237180D02*
X129902500Y-177760990D01*
X129664404Y-178237180D02*
X129664404Y-177237180D01*
X130045357Y-177237180D01*
X130140595Y-177284800D01*
X130188214Y-177332419D01*
X130235833Y-177427657D01*
X130235833Y-177570514D01*
X130188214Y-177665752D01*
X130140595Y-177713371D01*
X130045357Y-177760990D01*
X129664404Y-177760990D01*
X130569166Y-177237180D02*
X131188214Y-177237180D01*
X130854880Y-177618133D01*
X130997738Y-177618133D01*
X131092976Y-177665752D01*
X131140595Y-177713371D01*
X131188214Y-177808609D01*
X131188214Y-178046704D01*
X131140595Y-178141942D01*
X131092976Y-178189561D01*
X130997738Y-178237180D01*
X130712023Y-178237180D01*
X130616785Y-178189561D01*
X130569166Y-178141942D01*
X130235833Y-188270180D02*
X129902500Y-187793990D01*
X129664404Y-188270180D02*
X129664404Y-187270180D01*
X130045357Y-187270180D01*
X130140595Y-187317800D01*
X130188214Y-187365419D01*
X130235833Y-187460657D01*
X130235833Y-187603514D01*
X130188214Y-187698752D01*
X130140595Y-187746371D01*
X130045357Y-187793990D01*
X129664404Y-187793990D01*
X131140595Y-187270180D02*
X130664404Y-187270180D01*
X130616785Y-187746371D01*
X130664404Y-187698752D01*
X130759642Y-187651133D01*
X130997738Y-187651133D01*
X131092976Y-187698752D01*
X131140595Y-187746371D01*
X131188214Y-187841609D01*
X131188214Y-188079704D01*
X131140595Y-188174942D01*
X131092976Y-188222561D01*
X130997738Y-188270180D01*
X130759642Y-188270180D01*
X130664404Y-188222561D01*
X130616785Y-188174942D01*
X130235833Y-63657780D02*
X129902500Y-63181590D01*
X129664404Y-63657780D02*
X129664404Y-62657780D01*
X130045357Y-62657780D01*
X130140595Y-62705400D01*
X130188214Y-62753019D01*
X130235833Y-62848257D01*
X130235833Y-62991114D01*
X130188214Y-63086352D01*
X130140595Y-63133971D01*
X130045357Y-63181590D01*
X129664404Y-63181590D01*
X131092976Y-62991114D02*
X131092976Y-63657780D01*
X130854880Y-62610161D02*
X130616785Y-63324447D01*
X131235833Y-63324447D01*
X166764166Y-192470819D02*
X167097500Y-192947009D01*
X167335595Y-192470819D02*
X167335595Y-193470819D01*
X166954642Y-193470819D01*
X166859404Y-193423200D01*
X166811785Y-193375580D01*
X166764166Y-193280342D01*
X166764166Y-193137485D01*
X166811785Y-193042247D01*
X166859404Y-192994628D01*
X166954642Y-192947009D01*
X167335595Y-192947009D01*
X165907023Y-193470819D02*
X166097500Y-193470819D01*
X166192738Y-193423200D01*
X166240357Y-193375580D01*
X166335595Y-193232723D01*
X166383214Y-193042247D01*
X166383214Y-192661295D01*
X166335595Y-192566057D01*
X166287976Y-192518438D01*
X166192738Y-192470819D01*
X166002261Y-192470819D01*
X165907023Y-192518438D01*
X165859404Y-192566057D01*
X165811785Y-192661295D01*
X165811785Y-192899390D01*
X165859404Y-192994628D01*
X165907023Y-193042247D01*
X166002261Y-193089866D01*
X166192738Y-193089866D01*
X166287976Y-193042247D01*
X166335595Y-192994628D01*
X166383214Y-192899390D01*
X166764166Y-113629219D02*
X167097500Y-114105409D01*
X167335595Y-113629219D02*
X167335595Y-114629219D01*
X166954642Y-114629219D01*
X166859404Y-114581600D01*
X166811785Y-114533980D01*
X166764166Y-114438742D01*
X166764166Y-114295885D01*
X166811785Y-114200647D01*
X166859404Y-114153028D01*
X166954642Y-114105409D01*
X167335595Y-114105409D01*
X165859404Y-114629219D02*
X166335595Y-114629219D01*
X166383214Y-114153028D01*
X166335595Y-114200647D01*
X166240357Y-114248266D01*
X166002261Y-114248266D01*
X165907023Y-114200647D01*
X165859404Y-114153028D01*
X165811785Y-114057790D01*
X165811785Y-113819695D01*
X165859404Y-113724457D01*
X165907023Y-113676838D01*
X166002261Y-113629219D01*
X166240357Y-113629219D01*
X166335595Y-113676838D01*
X166383214Y-113724457D01*
X166764166Y-34787619D02*
X167097500Y-35263809D01*
X167335595Y-34787619D02*
X167335595Y-35787619D01*
X166954642Y-35787619D01*
X166859404Y-35740000D01*
X166811785Y-35692380D01*
X166764166Y-35597142D01*
X166764166Y-35454285D01*
X166811785Y-35359047D01*
X166859404Y-35311428D01*
X166954642Y-35263809D01*
X167335595Y-35263809D01*
X165907023Y-35454285D02*
X165907023Y-34787619D01*
X166145119Y-35835238D02*
X166383214Y-35120952D01*
X165764166Y-35120952D01*
X130235833Y-173157180D02*
X129902500Y-172680990D01*
X129664404Y-173157180D02*
X129664404Y-172157180D01*
X130045357Y-172157180D01*
X130140595Y-172204800D01*
X130188214Y-172252419D01*
X130235833Y-172347657D01*
X130235833Y-172490514D01*
X130188214Y-172585752D01*
X130140595Y-172633371D01*
X130045357Y-172680990D01*
X129664404Y-172680990D01*
X131188214Y-173157180D02*
X130616785Y-173157180D01*
X130902500Y-173157180D02*
X130902500Y-172157180D01*
X130807261Y-172300038D01*
X130712023Y-172395276D01*
X130616785Y-172442895D01*
X170906880Y-39383333D02*
X171621166Y-39383333D01*
X171764023Y-39430952D01*
X171859261Y-39526190D01*
X171906880Y-39669047D01*
X171906880Y-39764285D01*
X171906880Y-38383333D02*
X171906880Y-38954761D01*
X171906880Y-38669047D02*
X170906880Y-38669047D01*
X171049738Y-38764285D01*
X171144976Y-38859523D01*
X171192595Y-38954761D01*
X130235833Y-96855580D02*
X129902500Y-96379390D01*
X129664404Y-96855580D02*
X129664404Y-95855580D01*
X130045357Y-95855580D01*
X130140595Y-95903200D01*
X130188214Y-95950819D01*
X130235833Y-96046057D01*
X130235833Y-96188914D01*
X130188214Y-96284152D01*
X130140595Y-96331771D01*
X130045357Y-96379390D01*
X129664404Y-96379390D01*
X130569166Y-95855580D02*
X131188214Y-95855580D01*
X130854880Y-96236533D01*
X130997738Y-96236533D01*
X131092976Y-96284152D01*
X131140595Y-96331771D01*
X131188214Y-96427009D01*
X131188214Y-96665104D01*
X131140595Y-96760342D01*
X131092976Y-96807961D01*
X130997738Y-96855580D01*
X130712023Y-96855580D01*
X130616785Y-96807961D01*
X130569166Y-96760342D01*
X130235833Y-228960980D02*
X129902500Y-228484790D01*
X129664404Y-228960980D02*
X129664404Y-227960980D01*
X130045357Y-227960980D01*
X130140595Y-228008600D01*
X130188214Y-228056219D01*
X130235833Y-228151457D01*
X130235833Y-228294314D01*
X130188214Y-228389552D01*
X130140595Y-228437171D01*
X130045357Y-228484790D01*
X129664404Y-228484790D01*
X131140595Y-227960980D02*
X130664404Y-227960980D01*
X130616785Y-228437171D01*
X130664404Y-228389552D01*
X130759642Y-228341933D01*
X130997738Y-228341933D01*
X131092976Y-228389552D01*
X131140595Y-228437171D01*
X131188214Y-228532409D01*
X131188214Y-228770504D01*
X131140595Y-228865742D01*
X131092976Y-228913361D01*
X130997738Y-228960980D01*
X130759642Y-228960980D01*
X130664404Y-228913361D01*
X130616785Y-228865742D01*
X170906880Y-120764933D02*
X171621166Y-120764933D01*
X171764023Y-120812552D01*
X171859261Y-120907790D01*
X171906880Y-121050647D01*
X171906880Y-121145885D01*
X171906880Y-119764933D02*
X171906880Y-120336361D01*
X171906880Y-120050647D02*
X170906880Y-120050647D01*
X171049738Y-120145885D01*
X171144976Y-120241123D01*
X171192595Y-120336361D01*
X166764166Y-195010819D02*
X167097500Y-195487009D01*
X167335595Y-195010819D02*
X167335595Y-196010819D01*
X166954642Y-196010819D01*
X166859404Y-195963200D01*
X166811785Y-195915580D01*
X166764166Y-195820342D01*
X166764166Y-195677485D01*
X166811785Y-195582247D01*
X166859404Y-195534628D01*
X166954642Y-195487009D01*
X167335595Y-195487009D01*
X165859404Y-196010819D02*
X166335595Y-196010819D01*
X166383214Y-195534628D01*
X166335595Y-195582247D01*
X166240357Y-195629866D01*
X166002261Y-195629866D01*
X165907023Y-195582247D01*
X165859404Y-195534628D01*
X165811785Y-195439390D01*
X165811785Y-195201295D01*
X165859404Y-195106057D01*
X165907023Y-195058438D01*
X166002261Y-195010819D01*
X166240357Y-195010819D01*
X166335595Y-195058438D01*
X166383214Y-195106057D01*
X130235833Y-231500980D02*
X129902500Y-231024790D01*
X129664404Y-231500980D02*
X129664404Y-230500980D01*
X130045357Y-230500980D01*
X130140595Y-230548600D01*
X130188214Y-230596219D01*
X130235833Y-230691457D01*
X130235833Y-230834314D01*
X130188214Y-230929552D01*
X130140595Y-230977171D01*
X130045357Y-231024790D01*
X129664404Y-231024790D01*
X131092976Y-230500980D02*
X130902500Y-230500980D01*
X130807261Y-230548600D01*
X130759642Y-230596219D01*
X130664404Y-230739076D01*
X130616785Y-230929552D01*
X130616785Y-231310504D01*
X130664404Y-231405742D01*
X130712023Y-231453361D01*
X130807261Y-231500980D01*
X130997738Y-231500980D01*
X131092976Y-231453361D01*
X131140595Y-231405742D01*
X131188214Y-231310504D01*
X131188214Y-231072409D01*
X131140595Y-230977171D01*
X131092976Y-230929552D01*
X130997738Y-230881933D01*
X130807261Y-230881933D01*
X130712023Y-230929552D01*
X130664404Y-230977171D01*
X130616785Y-231072409D01*
X170906880Y-80074133D02*
X171621166Y-80074133D01*
X171764023Y-80121752D01*
X171859261Y-80216990D01*
X171906880Y-80359847D01*
X171906880Y-80455085D01*
X171906880Y-79074133D02*
X171906880Y-79645561D01*
X171906880Y-79359847D02*
X170906880Y-79359847D01*
X171049738Y-79455085D01*
X171144976Y-79550323D01*
X171192595Y-79645561D01*
X126093119Y-181134466D02*
X125378833Y-181134466D01*
X125235976Y-181086847D01*
X125140738Y-180991609D01*
X125093119Y-180848752D01*
X125093119Y-180753514D01*
X125093119Y-182134466D02*
X125093119Y-181563038D01*
X125093119Y-181848752D02*
X126093119Y-181848752D01*
X125950261Y-181753514D01*
X125855023Y-181658276D01*
X125807404Y-181563038D01*
X130235833Y-106888580D02*
X129902500Y-106412390D01*
X129664404Y-106888580D02*
X129664404Y-105888580D01*
X130045357Y-105888580D01*
X130140595Y-105936200D01*
X130188214Y-105983819D01*
X130235833Y-106079057D01*
X130235833Y-106221914D01*
X130188214Y-106317152D01*
X130140595Y-106364771D01*
X130045357Y-106412390D01*
X129664404Y-106412390D01*
X131140595Y-105888580D02*
X130664404Y-105888580D01*
X130616785Y-106364771D01*
X130664404Y-106317152D01*
X130759642Y-106269533D01*
X130997738Y-106269533D01*
X131092976Y-106317152D01*
X131140595Y-106364771D01*
X131188214Y-106460009D01*
X131188214Y-106698104D01*
X131140595Y-106793342D01*
X131092976Y-106840961D01*
X130997738Y-106888580D01*
X130759642Y-106888580D01*
X130664404Y-106840961D01*
X130616785Y-106793342D01*
X130235833Y-216260980D02*
X129902500Y-215784790D01*
X129664404Y-216260980D02*
X129664404Y-215260980D01*
X130045357Y-215260980D01*
X130140595Y-215308600D01*
X130188214Y-215356219D01*
X130235833Y-215451457D01*
X130235833Y-215594314D01*
X130188214Y-215689552D01*
X130140595Y-215737171D01*
X130045357Y-215784790D01*
X129664404Y-215784790D01*
X130616785Y-215356219D02*
X130664404Y-215308600D01*
X130759642Y-215260980D01*
X130997738Y-215260980D01*
X131092976Y-215308600D01*
X131140595Y-215356219D01*
X131188214Y-215451457D01*
X131188214Y-215546695D01*
X131140595Y-215689552D01*
X130569166Y-216260980D01*
X131188214Y-216260980D01*
X166764166Y-123662219D02*
X167097500Y-124138409D01*
X167335595Y-123662219D02*
X167335595Y-124662219D01*
X166954642Y-124662219D01*
X166859404Y-124614600D01*
X166811785Y-124566980D01*
X166764166Y-124471742D01*
X166764166Y-124328885D01*
X166811785Y-124233647D01*
X166859404Y-124186028D01*
X166954642Y-124138409D01*
X167335595Y-124138409D01*
X166430833Y-124662219D02*
X165811785Y-124662219D01*
X166145119Y-124281266D01*
X166002261Y-124281266D01*
X165907023Y-124233647D01*
X165859404Y-124186028D01*
X165811785Y-124090790D01*
X165811785Y-123852695D01*
X165859404Y-123757457D01*
X165907023Y-123709838D01*
X166002261Y-123662219D01*
X166287976Y-123662219D01*
X166383214Y-123709838D01*
X166430833Y-123757457D01*
X130235833Y-213847980D02*
X129902500Y-213371790D01*
X129664404Y-213847980D02*
X129664404Y-212847980D01*
X130045357Y-212847980D01*
X130140595Y-212895600D01*
X130188214Y-212943219D01*
X130235833Y-213038457D01*
X130235833Y-213181314D01*
X130188214Y-213276552D01*
X130140595Y-213324171D01*
X130045357Y-213371790D01*
X129664404Y-213371790D01*
X131188214Y-213847980D02*
X130616785Y-213847980D01*
X130902500Y-213847980D02*
X130902500Y-212847980D01*
X130807261Y-212990838D01*
X130712023Y-213086076D01*
X130616785Y-213133695D01*
X166764166Y-156860019D02*
X167097500Y-157336209D01*
X167335595Y-156860019D02*
X167335595Y-157860019D01*
X166954642Y-157860019D01*
X166859404Y-157812400D01*
X166811785Y-157764780D01*
X166764166Y-157669542D01*
X166764166Y-157526685D01*
X166811785Y-157431447D01*
X166859404Y-157383828D01*
X166954642Y-157336209D01*
X167335595Y-157336209D01*
X165907023Y-157526685D02*
X165907023Y-156860019D01*
X166145119Y-157907638D02*
X166383214Y-157193352D01*
X165764166Y-157193352D01*
X166764166Y-210123819D02*
X167097500Y-210600009D01*
X167335595Y-210123819D02*
X167335595Y-211123819D01*
X166954642Y-211123819D01*
X166859404Y-211076200D01*
X166811785Y-211028580D01*
X166764166Y-210933342D01*
X166764166Y-210790485D01*
X166811785Y-210695247D01*
X166859404Y-210647628D01*
X166954642Y-210600009D01*
X167335595Y-210600009D01*
X165811785Y-210123819D02*
X166383214Y-210123819D01*
X166097500Y-210123819D02*
X166097500Y-211123819D01*
X166192738Y-210980961D01*
X166287976Y-210885723D01*
X166383214Y-210838104D01*
X170906880Y-161455733D02*
X171621166Y-161455733D01*
X171764023Y-161503352D01*
X171859261Y-161598590D01*
X171906880Y-161741447D01*
X171906880Y-161836685D01*
X171906880Y-160455733D02*
X171906880Y-161027161D01*
X171906880Y-160741447D02*
X170906880Y-160741447D01*
X171049738Y-160836685D01*
X171144976Y-160931923D01*
X171192595Y-161027161D01*
X130235833Y-109428580D02*
X129902500Y-108952390D01*
X129664404Y-109428580D02*
X129664404Y-108428580D01*
X130045357Y-108428580D01*
X130140595Y-108476200D01*
X130188214Y-108523819D01*
X130235833Y-108619057D01*
X130235833Y-108761914D01*
X130188214Y-108857152D01*
X130140595Y-108904771D01*
X130045357Y-108952390D01*
X129664404Y-108952390D01*
X131092976Y-108428580D02*
X130902500Y-108428580D01*
X130807261Y-108476200D01*
X130759642Y-108523819D01*
X130664404Y-108666676D01*
X130616785Y-108857152D01*
X130616785Y-109238104D01*
X130664404Y-109333342D01*
X130712023Y-109380961D01*
X130807261Y-109428580D01*
X130997738Y-109428580D01*
X131092976Y-109380961D01*
X131140595Y-109333342D01*
X131188214Y-109238104D01*
X131188214Y-109000009D01*
X131140595Y-108904771D01*
X131092976Y-108857152D01*
X130997738Y-108809533D01*
X130807261Y-108809533D01*
X130712023Y-108857152D01*
X130664404Y-108904771D01*
X130616785Y-109000009D01*
X166764166Y-72938419D02*
X167097500Y-73414609D01*
X167335595Y-72938419D02*
X167335595Y-73938419D01*
X166954642Y-73938419D01*
X166859404Y-73890800D01*
X166811785Y-73843180D01*
X166764166Y-73747942D01*
X166764166Y-73605085D01*
X166811785Y-73509847D01*
X166859404Y-73462228D01*
X166954642Y-73414609D01*
X167335595Y-73414609D01*
X165859404Y-73938419D02*
X166335595Y-73938419D01*
X166383214Y-73462228D01*
X166335595Y-73509847D01*
X166240357Y-73557466D01*
X166002261Y-73557466D01*
X165907023Y-73509847D01*
X165859404Y-73462228D01*
X165811785Y-73366990D01*
X165811785Y-73128895D01*
X165859404Y-73033657D01*
X165907023Y-72986038D01*
X166002261Y-72938419D01*
X166240357Y-72938419D01*
X166335595Y-72986038D01*
X166383214Y-73033657D01*
D11*
X127962564Y-56320400D02*
X127508436Y-56320400D01*
X127962564Y-54850400D02*
X127508436Y-54850400D01*
X176828500Y-179782800D02*
X174908500Y-179782800D01*
X176828500Y-182467800D02*
X176828500Y-179782800D01*
X174908500Y-179782800D02*
X174908500Y-182467800D01*
X169037436Y-206358200D02*
X169491564Y-206358200D01*
X169037436Y-204888200D02*
X169491564Y-204888200D01*
X176828500Y-101086200D02*
X176828500Y-98401200D01*
X174908500Y-98401200D02*
X174908500Y-101086200D01*
X176828500Y-98401200D02*
X174908500Y-98401200D01*
X160049500Y-57710400D02*
X160049500Y-60395400D01*
X161969500Y-60395400D02*
X161969500Y-57710400D01*
X161969500Y-57710400D02*
X160049500Y-57710400D01*
X127962564Y-135162000D02*
X127508436Y-135162000D01*
X127962564Y-133692000D02*
X127508436Y-133692000D01*
X122091500Y-81425800D02*
X122091500Y-78740800D01*
X120171500Y-81425800D02*
X122091500Y-81425800D01*
X120171500Y-78740800D02*
X120171500Y-81425800D01*
X135030500Y-122116600D02*
X136950500Y-122116600D01*
X136950500Y-122116600D02*
X136950500Y-119431600D01*
X135030500Y-119431600D02*
X135030500Y-122116600D01*
X164509500Y-139092000D02*
X162589500Y-139092000D01*
X164509500Y-141777000D02*
X164509500Y-139092000D01*
X162589500Y-139092000D02*
X162589500Y-141777000D01*
X169037436Y-33435000D02*
X169491564Y-33435000D01*
X169037436Y-31965000D02*
X169491564Y-31965000D01*
X134410500Y-81425800D02*
X134410500Y-78740800D01*
X132490500Y-78740800D02*
X132490500Y-81425800D01*
X132490500Y-81425800D02*
X134410500Y-81425800D01*
X122091500Y-122116600D02*
X122091500Y-119431600D01*
X120171500Y-119431600D02*
X120171500Y-122116600D01*
X120171500Y-122116600D02*
X122091500Y-122116600D01*
X169037436Y-170747400D02*
X169491564Y-170747400D01*
X169037436Y-169277400D02*
X169491564Y-169277400D01*
X174288500Y-60395400D02*
X174288500Y-57710400D01*
X172368500Y-57710400D02*
X172368500Y-60395400D01*
X174288500Y-57710400D02*
X172368500Y-57710400D01*
X161969500Y-223158600D02*
X161969500Y-220473600D01*
X160049500Y-220473600D02*
X160049500Y-223158600D01*
X161969500Y-220473600D02*
X160049500Y-220473600D01*
X164509500Y-57710400D02*
X162589500Y-57710400D01*
X164509500Y-60395400D02*
X164509500Y-57710400D01*
X162589500Y-57710400D02*
X162589500Y-60395400D01*
X161969500Y-179782800D02*
X160049500Y-179782800D01*
X161969500Y-182467800D02*
X161969500Y-179782800D01*
X160049500Y-179782800D02*
X160049500Y-182467800D01*
X169037436Y-29425000D02*
X169491564Y-29425000D01*
X169037436Y-30895000D02*
X169491564Y-30895000D01*
X127962564Y-175852800D02*
X127508436Y-175852800D01*
X127962564Y-174382800D02*
X127508436Y-174382800D01*
X169037436Y-71585800D02*
X169491564Y-71585800D01*
X169037436Y-70115800D02*
X169491564Y-70115800D01*
X179368500Y-101086200D02*
X179368500Y-98401200D01*
X177448500Y-98401200D02*
X177448500Y-101086200D01*
X179368500Y-98401200D02*
X177448500Y-98401200D01*
X127962564Y-189622800D02*
X127508436Y-189622800D01*
X127962564Y-191092800D02*
X127508436Y-191092800D01*
X159429500Y-98401200D02*
X157509500Y-98401200D01*
X159429500Y-101086200D02*
X159429500Y-98401200D01*
X157509500Y-98401200D02*
X157509500Y-101086200D01*
X135030500Y-40735000D02*
X136950500Y-40735000D01*
X136950500Y-40735000D02*
X136950500Y-38050000D01*
X135030500Y-38050000D02*
X135030500Y-40735000D01*
X169037436Y-207428200D02*
X169491564Y-207428200D01*
X169037436Y-208898200D02*
X169491564Y-208898200D01*
X179368500Y-182467800D02*
X179368500Y-179782800D01*
X177448500Y-179782800D02*
X177448500Y-182467800D01*
X179368500Y-179782800D02*
X177448500Y-179782800D01*
X118725500Y-48705400D02*
X117985500Y-48705400D01*
X124545500Y-48945400D02*
X118225500Y-48945400D01*
X118785500Y-48945400D02*
X118785500Y-69846400D01*
X118225500Y-48945400D02*
X118225500Y-69846400D01*
X124545500Y-69846400D02*
X118225500Y-69846400D01*
X117985500Y-48705400D02*
X117985500Y-49205400D01*
X124545500Y-48945400D02*
X124545500Y-69846400D01*
X124085500Y-48945400D02*
X124085500Y-69846400D01*
X177448500Y-220473600D02*
X177448500Y-223158600D01*
X179368500Y-220473600D02*
X177448500Y-220473600D01*
X179368500Y-223158600D02*
X179368500Y-220473600D01*
X122711500Y-200813200D02*
X122711500Y-203498200D01*
X122711500Y-203498200D02*
X124631500Y-203498200D01*
X124631500Y-203498200D02*
X124631500Y-200813200D01*
X127962564Y-65010400D02*
X127508436Y-65010400D01*
X127962564Y-66480400D02*
X127508436Y-66480400D01*
X160049500Y-98401200D02*
X160049500Y-101086200D01*
X161969500Y-101086200D02*
X161969500Y-98401200D01*
X161969500Y-98401200D02*
X160049500Y-98401200D01*
X169037436Y-128586600D02*
X169491564Y-128586600D01*
X169037436Y-130056600D02*
X169491564Y-130056600D01*
X127962564Y-67550400D02*
X127508436Y-67550400D01*
X127962564Y-69020400D02*
X127508436Y-69020400D01*
X169037436Y-197268200D02*
X169491564Y-197268200D01*
X169037436Y-198738200D02*
X169491564Y-198738200D01*
X169037436Y-151497400D02*
X169491564Y-151497400D01*
X169037436Y-152967400D02*
X169491564Y-152967400D01*
X122711500Y-160122400D02*
X122711500Y-162807400D01*
X122711500Y-162807400D02*
X124631500Y-162807400D01*
X124631500Y-162807400D02*
X124631500Y-160122400D01*
X157509500Y-139092000D02*
X157509500Y-141777000D01*
X159429500Y-141777000D02*
X159429500Y-139092000D01*
X159429500Y-139092000D02*
X157509500Y-139092000D01*
X169037436Y-117356600D02*
X169491564Y-117356600D01*
X169037436Y-115886600D02*
X169491564Y-115886600D01*
X159429500Y-182467800D02*
X159429500Y-179782800D01*
X159429500Y-179782800D02*
X157509500Y-179782800D01*
X157509500Y-179782800D02*
X157509500Y-182467800D01*
X127962564Y-132622000D02*
X127508436Y-132622000D01*
X127962564Y-131152000D02*
X127508436Y-131152000D01*
X169037436Y-87895800D02*
X169491564Y-87895800D01*
X169037436Y-89365800D02*
X169491564Y-89365800D01*
X169037436Y-47205000D02*
X169491564Y-47205000D01*
X169037436Y-48675000D02*
X169491564Y-48675000D01*
X118225500Y-211708600D02*
X118225500Y-232609600D01*
X118785500Y-211708600D02*
X118785500Y-232609600D01*
X118725500Y-211468600D02*
X117985500Y-211468600D01*
X124545500Y-211708600D02*
X118225500Y-211708600D01*
X124545500Y-232609600D02*
X118225500Y-232609600D01*
X124545500Y-211708600D02*
X124545500Y-232609600D01*
X124085500Y-211708600D02*
X124085500Y-232609600D01*
X117985500Y-211468600D02*
X117985500Y-211968600D01*
X124545500Y-130327000D02*
X124545500Y-151228000D01*
X124085500Y-130327000D02*
X124085500Y-151228000D01*
X118225500Y-130327000D02*
X118225500Y-151228000D01*
X117985500Y-130087000D02*
X117985500Y-130587000D01*
X124545500Y-151228000D02*
X118225500Y-151228000D01*
X118725500Y-130087000D02*
X117985500Y-130087000D01*
X124545500Y-130327000D02*
X118225500Y-130327000D01*
X118785500Y-130327000D02*
X118785500Y-151228000D01*
X169037436Y-127516600D02*
X169491564Y-127516600D01*
X169037436Y-126046600D02*
X169491564Y-126046600D01*
X169037436Y-42125000D02*
X169491564Y-42125000D01*
X169037436Y-43595000D02*
X169491564Y-43595000D01*
X164509500Y-98401200D02*
X162589500Y-98401200D01*
X164509500Y-101086200D02*
X164509500Y-98401200D01*
X162589500Y-98401200D02*
X162589500Y-101086200D01*
X127962564Y-104631200D02*
X127508436Y-104631200D01*
X127962564Y-103161200D02*
X127508436Y-103161200D01*
X178774500Y-212263200D02*
X178774500Y-191362200D01*
X172454500Y-212263200D02*
X178774500Y-212263200D01*
X172454500Y-191362200D02*
X178774500Y-191362200D01*
X172914500Y-212263200D02*
X172914500Y-191362200D01*
X178214500Y-212263200D02*
X178214500Y-191362200D01*
X179014500Y-212503200D02*
X179014500Y-212003200D01*
X172454500Y-212263200D02*
X172454500Y-191362200D01*
X178274500Y-212503200D02*
X179014500Y-212503200D01*
X169037436Y-85355800D02*
X169491564Y-85355800D01*
X169037436Y-86825800D02*
X169491564Y-86825800D01*
X169037436Y-165667400D02*
X169491564Y-165667400D01*
X169037436Y-164197400D02*
X169491564Y-164197400D01*
X137570500Y-200813200D02*
X137570500Y-203498200D01*
X139490500Y-203498200D02*
X139490500Y-200813200D01*
X137570500Y-203498200D02*
X139490500Y-203498200D01*
X127962564Y-52310400D02*
X127508436Y-52310400D01*
X127962564Y-53780400D02*
X127508436Y-53780400D01*
X127962564Y-94471200D02*
X127508436Y-94471200D01*
X127962564Y-93001200D02*
X127508436Y-93001200D01*
X169037436Y-110806600D02*
X169491564Y-110806600D01*
X169037436Y-112276600D02*
X169491564Y-112276600D01*
X159429500Y-223158600D02*
X159429500Y-220473600D01*
X157509500Y-220473600D02*
X157509500Y-223158600D01*
X159429500Y-220473600D02*
X157509500Y-220473600D01*
X137570500Y-160122400D02*
X137570500Y-162807400D01*
X137570500Y-162807400D02*
X139490500Y-162807400D01*
X139490500Y-162807400D02*
X139490500Y-160122400D01*
X174288500Y-220473600D02*
X172368500Y-220473600D01*
X174288500Y-223158600D02*
X174288500Y-220473600D01*
X172368500Y-220473600D02*
X172368500Y-223158600D01*
X132490500Y-40735000D02*
X134410500Y-40735000D01*
X134410500Y-40735000D02*
X134410500Y-38050000D01*
X132490500Y-38050000D02*
X132490500Y-40735000D01*
X174288500Y-141777000D02*
X174288500Y-139092000D01*
X174288500Y-139092000D02*
X172368500Y-139092000D01*
X172368500Y-139092000D02*
X172368500Y-141777000D01*
X118225500Y-89636200D02*
X118225500Y-110537200D01*
X124545500Y-89636200D02*
X124545500Y-110537200D01*
X117985500Y-89396200D02*
X117985500Y-89896200D01*
X124545500Y-89636200D02*
X118225500Y-89636200D01*
X118725500Y-89396200D02*
X117985500Y-89396200D01*
X124085500Y-89636200D02*
X124085500Y-110537200D01*
X124545500Y-110537200D02*
X118225500Y-110537200D01*
X118785500Y-89636200D02*
X118785500Y-110537200D01*
X119551500Y-162807400D02*
X119551500Y-160122400D01*
X117631500Y-162807400D02*
X119551500Y-162807400D01*
X117631500Y-160122400D02*
X117631500Y-162807400D01*
X127962564Y-137702000D02*
X127508436Y-137702000D01*
X127962564Y-136232000D02*
X127508436Y-136232000D01*
X169037436Y-82815800D02*
X169491564Y-82815800D01*
X169037436Y-84285800D02*
X169491564Y-84285800D01*
X179368500Y-141777000D02*
X179368500Y-139092000D01*
X179368500Y-139092000D02*
X177448500Y-139092000D01*
X177448500Y-139092000D02*
X177448500Y-141777000D01*
X132490500Y-122116600D02*
X134410500Y-122116600D01*
X132490500Y-119431600D02*
X132490500Y-122116600D01*
X134410500Y-122116600D02*
X134410500Y-119431600D01*
X161969500Y-141777000D02*
X161969500Y-139092000D01*
X160049500Y-139092000D02*
X160049500Y-141777000D01*
X161969500Y-139092000D02*
X160049500Y-139092000D01*
X179368500Y-60395400D02*
X179368500Y-57710400D01*
X177448500Y-57710400D02*
X177448500Y-60395400D01*
X179368500Y-57710400D02*
X177448500Y-57710400D01*
X162589500Y-220473600D02*
X162589500Y-223158600D01*
X164509500Y-220473600D02*
X162589500Y-220473600D01*
X164509500Y-223158600D02*
X164509500Y-220473600D01*
X117631500Y-119431600D02*
X117631500Y-122116600D01*
X117631500Y-122116600D02*
X119551500Y-122116600D01*
X119551500Y-122116600D02*
X119551500Y-119431600D01*
X127962564Y-146392000D02*
X127508436Y-146392000D01*
X127962564Y-147862000D02*
X127508436Y-147862000D01*
X135030500Y-81425800D02*
X136950500Y-81425800D01*
X135030500Y-78740800D02*
X135030500Y-81425800D01*
X136950500Y-81425800D02*
X136950500Y-78740800D01*
X137570500Y-119431600D02*
X137570500Y-122116600D01*
X139490500Y-122116600D02*
X139490500Y-119431600D01*
X137570500Y-122116600D02*
X139490500Y-122116600D01*
X119551500Y-203498200D02*
X119551500Y-200813200D01*
X117631500Y-203498200D02*
X119551500Y-203498200D01*
X117631500Y-200813200D02*
X117631500Y-203498200D01*
X127962564Y-184542800D02*
X127508436Y-184542800D01*
X127962564Y-186012800D02*
X127508436Y-186012800D01*
X169037436Y-75195800D02*
X169491564Y-75195800D01*
X169037436Y-76665800D02*
X169491564Y-76665800D01*
X169037436Y-155507400D02*
X169491564Y-155507400D01*
X169037436Y-154037400D02*
X169491564Y-154037400D01*
X127962564Y-148932000D02*
X127508436Y-148932000D01*
X127962564Y-150402000D02*
X127508436Y-150402000D01*
X135030500Y-162807400D02*
X136950500Y-162807400D01*
X136950500Y-162807400D02*
X136950500Y-160122400D01*
X135030500Y-160122400D02*
X135030500Y-162807400D01*
X124631500Y-122116600D02*
X124631500Y-119431600D01*
X122711500Y-122116600D02*
X124631500Y-122116600D01*
X122711500Y-119431600D02*
X122711500Y-122116600D01*
X169037436Y-46135000D02*
X169491564Y-46135000D01*
X169037436Y-44665000D02*
X169491564Y-44665000D01*
X127962564Y-90461200D02*
X127508436Y-90461200D01*
X127962564Y-91931200D02*
X127508436Y-91931200D01*
X127962564Y-226703600D02*
X127508436Y-226703600D01*
X127962564Y-225233600D02*
X127508436Y-225233600D01*
X127962564Y-217613600D02*
X127508436Y-217613600D01*
X127962564Y-219083600D02*
X127508436Y-219083600D01*
X137570500Y-78740800D02*
X137570500Y-81425800D01*
X137570500Y-81425800D02*
X139490500Y-81425800D01*
X139490500Y-81425800D02*
X139490500Y-78740800D01*
X169037436Y-168207400D02*
X169491564Y-168207400D01*
X169037436Y-166737400D02*
X169491564Y-166737400D01*
X174908500Y-139092000D02*
X174908500Y-141777000D01*
X176828500Y-139092000D02*
X174908500Y-139092000D01*
X176828500Y-141777000D02*
X176828500Y-139092000D01*
X127962564Y-49770400D02*
X127508436Y-49770400D01*
X127962564Y-51240400D02*
X127508436Y-51240400D01*
X127962564Y-145322000D02*
X127508436Y-145322000D01*
X127962564Y-143852000D02*
X127508436Y-143852000D01*
X127962564Y-176922800D02*
X127508436Y-176922800D01*
X127962564Y-178392800D02*
X127508436Y-178392800D01*
X124631500Y-81425800D02*
X124631500Y-78740800D01*
X122711500Y-81425800D02*
X124631500Y-81425800D01*
X122711500Y-78740800D02*
X122711500Y-81425800D01*
X127962564Y-187082800D02*
X127508436Y-187082800D01*
X127962564Y-188552800D02*
X127508436Y-188552800D01*
X174908500Y-220473600D02*
X174908500Y-223158600D01*
X176828500Y-223158600D02*
X176828500Y-220473600D01*
X176828500Y-220473600D02*
X174908500Y-220473600D01*
X122091500Y-162807400D02*
X122091500Y-160122400D01*
X120171500Y-160122400D02*
X120171500Y-162807400D01*
X120171500Y-162807400D02*
X122091500Y-162807400D01*
X127962564Y-63940400D02*
X127508436Y-63940400D01*
X127962564Y-62470400D02*
X127508436Y-62470400D01*
X169037436Y-192188200D02*
X169491564Y-192188200D01*
X169037436Y-193658200D02*
X169491564Y-193658200D01*
X169037436Y-113346600D02*
X169491564Y-113346600D01*
X169037436Y-114816600D02*
X169491564Y-114816600D01*
X135030500Y-200813200D02*
X135030500Y-203498200D01*
X136950500Y-203498200D02*
X136950500Y-200813200D01*
X135030500Y-203498200D02*
X136950500Y-203498200D01*
X169037436Y-34505000D02*
X169491564Y-34505000D01*
X169037436Y-35975000D02*
X169491564Y-35975000D01*
X117631500Y-78740800D02*
X117631500Y-81425800D01*
X119551500Y-81425800D02*
X119551500Y-78740800D01*
X117631500Y-81425800D02*
X119551500Y-81425800D01*
X127962564Y-171842800D02*
X127508436Y-171842800D01*
X127962564Y-173312800D02*
X127508436Y-173312800D01*
X120171500Y-203498200D02*
X122091500Y-203498200D01*
X122091500Y-203498200D02*
X122091500Y-200813200D01*
X120171500Y-200813200D02*
X120171500Y-203498200D01*
X137570500Y-38050000D02*
X137570500Y-40735000D01*
X139490500Y-40735000D02*
X139490500Y-38050000D01*
X137570500Y-40735000D02*
X139490500Y-40735000D01*
X172454500Y-49500000D02*
X178774500Y-49500000D01*
X178274500Y-49740000D02*
X179014500Y-49740000D01*
X172454500Y-28599000D02*
X178774500Y-28599000D01*
X178774500Y-49500000D02*
X178774500Y-28599000D01*
X179014500Y-49740000D02*
X179014500Y-49240000D01*
X172454500Y-49500000D02*
X172454500Y-28599000D01*
X172914500Y-49500000D02*
X172914500Y-28599000D01*
X178214500Y-49500000D02*
X178214500Y-28599000D01*
X127962564Y-97011200D02*
X127508436Y-97011200D01*
X127962564Y-95541200D02*
X127508436Y-95541200D01*
X127962564Y-227773600D02*
X127508436Y-227773600D01*
X127962564Y-229243600D02*
X127508436Y-229243600D01*
X174288500Y-182467800D02*
X174288500Y-179782800D01*
X172368500Y-179782800D02*
X172368500Y-182467800D01*
X174288500Y-179782800D02*
X172368500Y-179782800D01*
X122091500Y-40735000D02*
X122091500Y-38050000D01*
X120171500Y-40735000D02*
X122091500Y-40735000D01*
X120171500Y-38050000D02*
X120171500Y-40735000D01*
X178274500Y-131121600D02*
X179014500Y-131121600D01*
X179014500Y-131121600D02*
X179014500Y-130621600D01*
X178214500Y-130881600D02*
X178214500Y-109980600D01*
X172454500Y-109980600D02*
X178774500Y-109980600D01*
X178774500Y-130881600D02*
X178774500Y-109980600D01*
X172454500Y-130881600D02*
X172454500Y-109980600D01*
X172914500Y-130881600D02*
X172914500Y-109980600D01*
X172454500Y-130881600D02*
X178774500Y-130881600D01*
X169037436Y-196198200D02*
X169491564Y-196198200D01*
X169037436Y-194728200D02*
X169491564Y-194728200D01*
X132490500Y-162807400D02*
X134410500Y-162807400D01*
X132490500Y-160122400D02*
X132490500Y-162807400D01*
X134410500Y-162807400D02*
X134410500Y-160122400D01*
X127962564Y-230313600D02*
X127508436Y-230313600D01*
X127962564Y-231783600D02*
X127508436Y-231783600D01*
X157509500Y-57710400D02*
X157509500Y-60395400D01*
X159429500Y-60395400D02*
X159429500Y-57710400D01*
X159429500Y-57710400D02*
X157509500Y-57710400D01*
X179014500Y-90430800D02*
X179014500Y-89930800D01*
X172914500Y-90190800D02*
X172914500Y-69289800D01*
X178774500Y-90190800D02*
X178774500Y-69289800D01*
X172454500Y-69289800D02*
X178774500Y-69289800D01*
X172454500Y-90190800D02*
X178774500Y-90190800D01*
X178214500Y-90190800D02*
X178214500Y-69289800D01*
X172454500Y-90190800D02*
X172454500Y-69289800D01*
X178274500Y-90430800D02*
X179014500Y-90430800D01*
X174288500Y-98401200D02*
X172368500Y-98401200D01*
X172368500Y-98401200D02*
X172368500Y-101086200D01*
X174288500Y-101086200D02*
X174288500Y-98401200D01*
X124545500Y-191918800D02*
X118225500Y-191918800D01*
X117985500Y-170777800D02*
X117985500Y-171277800D01*
X124545500Y-171017800D02*
X118225500Y-171017800D01*
X118225500Y-171017800D02*
X118225500Y-191918800D01*
X124545500Y-171017800D02*
X124545500Y-191918800D01*
X118725500Y-170777800D02*
X117985500Y-170777800D01*
X118785500Y-171017800D02*
X118785500Y-191918800D01*
X124085500Y-171017800D02*
X124085500Y-191918800D01*
X122711500Y-40735000D02*
X124631500Y-40735000D01*
X122711500Y-38050000D02*
X122711500Y-40735000D01*
X124631500Y-40735000D02*
X124631500Y-38050000D01*
X176828500Y-60395400D02*
X176828500Y-57710400D01*
X174908500Y-57710400D02*
X174908500Y-60395400D01*
X176828500Y-57710400D02*
X174908500Y-57710400D01*
X132490500Y-203498200D02*
X134410500Y-203498200D01*
X134410500Y-203498200D02*
X134410500Y-200813200D01*
X132490500Y-200813200D02*
X132490500Y-203498200D01*
X127962564Y-107171200D02*
X127508436Y-107171200D01*
X127962564Y-105701200D02*
X127508436Y-105701200D01*
X127962564Y-215073600D02*
X127508436Y-215073600D01*
X127962564Y-216543600D02*
X127508436Y-216543600D01*
X164509500Y-182467800D02*
X164509500Y-179782800D01*
X162589500Y-179782800D02*
X162589500Y-182467800D01*
X164509500Y-179782800D02*
X162589500Y-179782800D01*
X169037436Y-124976600D02*
X169491564Y-124976600D01*
X169037436Y-123506600D02*
X169491564Y-123506600D01*
X127962564Y-212533600D02*
X127508436Y-212533600D01*
X127962564Y-214003600D02*
X127508436Y-214003600D01*
X169037436Y-156577400D02*
X169491564Y-156577400D01*
X169037436Y-158047400D02*
X169491564Y-158047400D01*
X169037436Y-211438200D02*
X169491564Y-211438200D01*
X169037436Y-209968200D02*
X169491564Y-209968200D01*
X172454500Y-171572400D02*
X178774500Y-171572400D01*
X179014500Y-171812400D02*
X179014500Y-171312400D01*
X178214500Y-171572400D02*
X178214500Y-150671400D01*
X172454500Y-150671400D02*
X178774500Y-150671400D01*
X178274500Y-171812400D02*
X179014500Y-171812400D01*
X172914500Y-171572400D02*
X172914500Y-150671400D01*
X172454500Y-171572400D02*
X172454500Y-150671400D01*
X178774500Y-171572400D02*
X178774500Y-150671400D01*
X119551500Y-40735000D02*
X119551500Y-38050000D01*
X117631500Y-38050000D02*
X117631500Y-40735000D01*
X117631500Y-40735000D02*
X119551500Y-40735000D01*
X127962564Y-108241200D02*
X127508436Y-108241200D01*
X127962564Y-109711200D02*
X127508436Y-109711200D01*
X169037436Y-72655800D02*
X169491564Y-72655800D01*
X169037436Y-74125800D02*
X169491564Y-74125800D01*
M02*
