M48
INCH,TZ
T1C0.0120
T2C0.0433
T3C0.1260
%
G90
G05
T1
X45890Y-15724
X45890Y-31744
X45890Y-47764
X45890Y-63784
X45890Y-79804
X47690Y-16224
X47690Y-32244
X47690Y-48264
X47690Y-64284
X47690Y-80304
X48190Y-15024
X48190Y-31044
X48190Y-47064
X48190Y-63084
X48190Y-79104
X49290Y-15924
X49290Y-31944
X49290Y-47964
X49290Y-63984
X49290Y-80004
X54040Y-15024
X54040Y-31044
X54040Y-47064
X54040Y-63084
X54040Y-79104
X55540Y-23034
X55540Y-39054
X55540Y-55074
X55540Y-71094
X55540Y-87114
X55840Y-23384
X55840Y-39404
X55840Y-55424
X55840Y-71444
X55840Y-87464
X56140Y-23684
X56140Y-39704
X56140Y-55724
X56140Y-71744
X56140Y-87764
X60790Y-15074
X60790Y-31094
X60790Y-47114
X60790Y-63134
X60790Y-79154
X61090Y-15374
X61090Y-31394
X61090Y-47414
X61090Y-63434
X61090Y-79454
X61390Y-15724
X61390Y-31744
X61390Y-47764
X61390Y-63784
X61390Y-79804
X62890Y-23734
X62890Y-39754
X62890Y-55774
X62890Y-71794
X62890Y-87814
X67640Y-22834
X67640Y-38854
X67640Y-54874
X67640Y-70894
X67640Y-86914
X68740Y-23734
X68740Y-39754
X68740Y-55774
X68740Y-71794
X68740Y-87814
X69240Y-22534
X69240Y-38554
X69240Y-54574
X69240Y-70594
X69240Y-86614
X71040Y-23034
X71040Y-39054
X71040Y-55074
X71040Y-71094
X71040Y-87114
T2
X47790Y-19884
X47790Y-20884
X47790Y-21884
X47790Y-22884
X47790Y-23884
X47790Y-24884
X47790Y-25884
X47790Y-26884
X47790Y-35904
X47790Y-36904
X47790Y-37904
X47790Y-38904
X47790Y-39904
X47790Y-40904
X47790Y-41904
X47790Y-42904
X47790Y-51924
X47790Y-52924
X47790Y-53924
X47790Y-54924
X47790Y-55924
X47790Y-56924
X47790Y-57924
X47790Y-58924
X47790Y-67944
X47790Y-68944
X47790Y-69944
X47790Y-70944
X47790Y-71944
X47790Y-72944
X47790Y-73944
X47790Y-74944
X47790Y-83964
X47790Y-84964
X47790Y-85964
X47790Y-86964
X47790Y-87964
X47790Y-88964
X47790Y-89964
X47790Y-90964
X69140Y-11874
X69140Y-12874
X69140Y-13874
X69140Y-14874
X69140Y-15874
X69140Y-16874
X69140Y-17874
X69140Y-18874
X69140Y-27894
X69140Y-28894
X69140Y-29894
X69140Y-30894
X69140Y-31894
X69140Y-32894
X69140Y-33894
X69140Y-34894
X69140Y-43914
X69140Y-44914
X69140Y-45914
X69140Y-46914
X69140Y-47914
X69140Y-48914
X69140Y-49914
X69140Y-50914
X69140Y-59934
X69140Y-60934
X69140Y-61934
X69140Y-62934
X69140Y-63934
X69140Y-64934
X69140Y-65934
X69140Y-66934
X69140Y-75954
X69140Y-76954
X69140Y-77954
X69140Y-78954
X69140Y-79954
X69140Y-80954
X69140Y-81954
X69140Y-82954
T3
X53640Y-23384
X53640Y-39404
X53640Y-55424
X53640Y-71444
X53640Y-87464
X63290Y-15374
X63290Y-31394
X63290Y-47414
X63290Y-63434
X63290Y-79454
T0
M30
