G04 #@! TF.GenerationSoftware,KiCad,Pcbnew,6.0.2+dfsg-1*
G04 #@! TF.CreationDate,2024-07-01T09:46:04-06:00*
G04 #@! TF.ProjectId,ckt-signal-2x-array,636b742d-7369-4676-9e61-6c2d32782d61,rev?*
G04 #@! TF.SameCoordinates,Original*
G04 #@! TF.FileFunction,Copper,L2,Bot*
G04 #@! TF.FilePolarity,Positive*
%FSLAX46Y46*%
G04 Gerber Fmt 4.6, Leading zero omitted, Abs format (unit mm)*
G04 Created by KiCad (PCBNEW 6.0.2+dfsg-1) date 2024-07-01 09:46:04*
%MOMM*%
%LPD*%
G01*
G04 APERTURE LIST*
G04 #@! TA.AperFunction,ComponentPad*
%ADD10C,6.400000*%
G04 #@! TD*
G04 #@! TA.AperFunction,ComponentPad*
%ADD11R,2.200000X2.200000*%
G04 #@! TD*
G04 #@! TA.AperFunction,ComponentPad*
%ADD12C,2.200000*%
G04 #@! TD*
G04 #@! TA.AperFunction,SMDPad,CuDef*
%ADD13C,1.000000*%
G04 #@! TD*
G04 #@! TA.AperFunction,ViaPad*
%ADD14C,0.609600*%
G04 #@! TD*
G04 #@! TA.AperFunction,Conductor*
%ADD15C,0.508000*%
G04 #@! TD*
G04 #@! TA.AperFunction,Conductor*
%ADD16C,0.254000*%
G04 #@! TD*
G04 APERTURE END LIST*
D10*
X160755500Y-201813200D03*
X160755500Y-161122400D03*
X160755500Y-79740800D03*
D11*
X121385500Y-50505400D03*
D12*
X121385500Y-53045400D03*
X121385500Y-55585400D03*
X121385500Y-58125400D03*
X121385500Y-60665400D03*
X121385500Y-63205400D03*
X121385500Y-65745400D03*
X121385500Y-68285400D03*
D10*
X160755500Y-120431600D03*
D11*
X121385500Y-213268600D03*
D12*
X121385500Y-215808600D03*
X121385500Y-218348600D03*
X121385500Y-220888600D03*
X121385500Y-223428600D03*
X121385500Y-225968600D03*
X121385500Y-228508600D03*
X121385500Y-231048600D03*
D11*
X121385500Y-131887000D03*
D12*
X121385500Y-134427000D03*
X121385500Y-136967000D03*
X121385500Y-139507000D03*
X121385500Y-142047000D03*
X121385500Y-144587000D03*
X121385500Y-147127000D03*
X121385500Y-149667000D03*
D11*
X175614500Y-210703200D03*
D12*
X175614500Y-208163200D03*
X175614500Y-205623200D03*
X175614500Y-203083200D03*
X175614500Y-200543200D03*
X175614500Y-198003200D03*
X175614500Y-195463200D03*
X175614500Y-192923200D03*
D11*
X121385500Y-91196200D03*
D12*
X121385500Y-93736200D03*
X121385500Y-96276200D03*
X121385500Y-98816200D03*
X121385500Y-101356200D03*
X121385500Y-103896200D03*
X121385500Y-106436200D03*
X121385500Y-108976200D03*
D10*
X160755500Y-39050000D03*
X136244500Y-222158600D03*
X136244500Y-100086200D03*
D11*
X175614500Y-47940000D03*
D12*
X175614500Y-45400000D03*
X175614500Y-42860000D03*
X175614500Y-40320000D03*
X175614500Y-37780000D03*
X175614500Y-35240000D03*
X175614500Y-32700000D03*
X175614500Y-30160000D03*
D11*
X175614500Y-129321600D03*
D12*
X175614500Y-126781600D03*
X175614500Y-124241600D03*
X175614500Y-121701600D03*
X175614500Y-119161600D03*
X175614500Y-116621600D03*
X175614500Y-114081600D03*
X175614500Y-111541600D03*
D11*
X175614500Y-88630800D03*
D12*
X175614500Y-86090800D03*
X175614500Y-83550800D03*
X175614500Y-81010800D03*
X175614500Y-78470800D03*
X175614500Y-75930800D03*
X175614500Y-73390800D03*
X175614500Y-70850800D03*
D11*
X121385500Y-172577800D03*
D12*
X121385500Y-175117800D03*
X121385500Y-177657800D03*
X121385500Y-180197800D03*
X121385500Y-182737800D03*
X121385500Y-185277800D03*
X121385500Y-187817800D03*
X121385500Y-190357800D03*
D10*
X136244500Y-59395400D03*
X136244500Y-181467800D03*
X136244500Y-140777000D03*
D11*
X175614500Y-170012400D03*
D12*
X175614500Y-167472400D03*
X175614500Y-164932400D03*
X175614500Y-162392400D03*
X175614500Y-159852400D03*
X175614500Y-157312400D03*
X175614500Y-154772400D03*
X175614500Y-152232400D03*
D13*
X181837500Y-22540000D03*
X115162500Y-22540000D03*
X115162500Y-238668600D03*
D14*
X137260500Y-38161000D03*
X122401500Y-38161000D03*
X125195500Y-40447000D03*
X155929500Y-39939000D03*
X121131500Y-41209000D03*
X155167500Y-39050000D03*
X154405500Y-38288000D03*
X116559500Y-39939000D03*
X159739500Y-60284400D03*
X174598500Y-60284400D03*
X171804500Y-57998400D03*
X141070500Y-58506400D03*
X175868500Y-57236400D03*
X141832500Y-59395400D03*
X142594500Y-60157400D03*
X180440500Y-58506400D03*
X137260500Y-78851800D03*
X122401500Y-78851800D03*
X125195500Y-81137800D03*
X155929500Y-80629800D03*
X121131500Y-81899800D03*
X155167500Y-79740800D03*
X154405500Y-78978800D03*
X116559500Y-80629800D03*
X159739500Y-100975200D03*
X174598500Y-100975200D03*
X171804500Y-98689200D03*
X141070500Y-99197200D03*
X175868500Y-97927200D03*
X141832500Y-100086200D03*
X142594500Y-100848200D03*
X180440500Y-99197200D03*
X137260500Y-119542600D03*
X122401500Y-119542600D03*
X125195500Y-121828600D03*
X155929500Y-121320600D03*
X121131500Y-122590600D03*
X155167500Y-120431600D03*
X154405500Y-119669600D03*
X116559500Y-121320600D03*
X159739500Y-141666000D03*
X174598500Y-141666000D03*
X171804500Y-139380000D03*
X141070500Y-139888000D03*
X175868500Y-138618000D03*
X141832500Y-140777000D03*
X142594500Y-141539000D03*
X180440500Y-139888000D03*
X137260500Y-160233400D03*
X122401500Y-160233400D03*
X125195500Y-162519400D03*
X155929500Y-162011400D03*
X121131500Y-163281400D03*
X155167500Y-161122400D03*
X154405500Y-160360400D03*
X116559500Y-162011400D03*
X159739500Y-182356800D03*
X174598500Y-182356800D03*
X171804500Y-180070800D03*
X141070500Y-180578800D03*
X175868500Y-179308800D03*
X141832500Y-181467800D03*
X142594500Y-182229800D03*
X180440500Y-180578800D03*
X137260500Y-200924200D03*
X122401500Y-200924200D03*
X125195500Y-203210200D03*
X155929500Y-202702200D03*
X121131500Y-203972200D03*
X155167500Y-201813200D03*
X154405500Y-201051200D03*
X116559500Y-202702200D03*
X159739500Y-223047600D03*
X174598500Y-223047600D03*
X171804500Y-220761600D03*
X141070500Y-221269600D03*
X175868500Y-219999600D03*
X141832500Y-222158600D03*
X142594500Y-222920600D03*
X180440500Y-221269600D03*
D15*
X175614500Y-40320000D02*
X175614500Y-37780000D01*
X163549500Y-34478000D02*
X156437500Y-34478000D01*
X175614500Y-37780000D02*
X166851500Y-37780000D01*
X166851500Y-37780000D02*
X163549500Y-34478000D01*
X152754500Y-38161000D02*
X137260500Y-38161000D01*
X137260500Y-38161000D02*
X122401500Y-38161000D01*
X156437500Y-34478000D02*
X152754500Y-38161000D01*
D16*
X127965158Y-39939000D02*
X125703500Y-39939000D01*
X155929500Y-39939000D02*
X127965158Y-39939000D01*
X125703500Y-39939000D02*
X125195500Y-40447000D01*
X155040500Y-39050000D02*
X154659500Y-39431000D01*
X154659500Y-39431000D02*
X127862500Y-39431000D01*
X122909500Y-39431000D02*
X121131500Y-41209000D01*
X127862500Y-39431000D02*
X122909500Y-39431000D01*
X155167500Y-39050000D02*
X155040500Y-39050000D01*
X117575500Y-38923000D02*
X116559500Y-39939000D01*
X154405500Y-38288000D02*
X153770500Y-38923000D01*
X153770500Y-38923000D02*
X127862500Y-38923000D01*
X127862500Y-38923000D02*
X117575500Y-38923000D01*
D15*
X121385500Y-58125400D02*
X121385500Y-60665400D01*
X133450500Y-63967400D02*
X140562500Y-63967400D01*
X121385500Y-60665400D02*
X130148500Y-60665400D01*
X130148500Y-60665400D02*
X133450500Y-63967400D01*
X144245500Y-60284400D02*
X159739500Y-60284400D01*
X159739500Y-60284400D02*
X174598500Y-60284400D01*
X140562500Y-63967400D02*
X144245500Y-60284400D01*
D16*
X169034842Y-58506400D02*
X171296500Y-58506400D01*
X141070500Y-58506400D02*
X169034842Y-58506400D01*
X171296500Y-58506400D02*
X171804500Y-57998400D01*
X141959500Y-59395400D02*
X142340500Y-59014400D01*
X142340500Y-59014400D02*
X169137500Y-59014400D01*
X174090500Y-59014400D02*
X175868500Y-57236400D01*
X169137500Y-59014400D02*
X174090500Y-59014400D01*
X141832500Y-59395400D02*
X141959500Y-59395400D01*
X179424500Y-59522400D02*
X180440500Y-58506400D01*
X142594500Y-60157400D02*
X143229500Y-59522400D01*
X143229500Y-59522400D02*
X169137500Y-59522400D01*
X169137500Y-59522400D02*
X179424500Y-59522400D01*
D15*
X175614500Y-81010800D02*
X175614500Y-78470800D01*
X163549500Y-75168800D02*
X156437500Y-75168800D01*
X175614500Y-78470800D02*
X166851500Y-78470800D01*
X166851500Y-78470800D02*
X163549500Y-75168800D01*
X152754500Y-78851800D02*
X137260500Y-78851800D01*
X137260500Y-78851800D02*
X122401500Y-78851800D01*
X156437500Y-75168800D02*
X152754500Y-78851800D01*
D16*
X127965158Y-80629800D02*
X125703500Y-80629800D01*
X155929500Y-80629800D02*
X127965158Y-80629800D01*
X125703500Y-80629800D02*
X125195500Y-81137800D01*
X155040500Y-79740800D02*
X154659500Y-80121800D01*
X154659500Y-80121800D02*
X127862500Y-80121800D01*
X122909500Y-80121800D02*
X121131500Y-81899800D01*
X127862500Y-80121800D02*
X122909500Y-80121800D01*
X155167500Y-79740800D02*
X155040500Y-79740800D01*
X117575500Y-79613800D02*
X116559500Y-80629800D01*
X154405500Y-78978800D02*
X153770500Y-79613800D01*
X153770500Y-79613800D02*
X127862500Y-79613800D01*
X127862500Y-79613800D02*
X117575500Y-79613800D01*
D15*
X121385500Y-98816200D02*
X121385500Y-101356200D01*
X133450500Y-104658200D02*
X140562500Y-104658200D01*
X121385500Y-101356200D02*
X130148500Y-101356200D01*
X130148500Y-101356200D02*
X133450500Y-104658200D01*
X144245500Y-100975200D02*
X159739500Y-100975200D01*
X159739500Y-100975200D02*
X174598500Y-100975200D01*
X140562500Y-104658200D02*
X144245500Y-100975200D01*
D16*
X169034842Y-99197200D02*
X171296500Y-99197200D01*
X141070500Y-99197200D02*
X169034842Y-99197200D01*
X171296500Y-99197200D02*
X171804500Y-98689200D01*
X141959500Y-100086200D02*
X142340500Y-99705200D01*
X142340500Y-99705200D02*
X169137500Y-99705200D01*
X174090500Y-99705200D02*
X175868500Y-97927200D01*
X169137500Y-99705200D02*
X174090500Y-99705200D01*
X141832500Y-100086200D02*
X141959500Y-100086200D01*
X179424500Y-100213200D02*
X180440500Y-99197200D01*
X142594500Y-100848200D02*
X143229500Y-100213200D01*
X143229500Y-100213200D02*
X169137500Y-100213200D01*
X169137500Y-100213200D02*
X179424500Y-100213200D01*
D15*
X175614500Y-121701600D02*
X175614500Y-119161600D01*
X163549500Y-115859600D02*
X156437500Y-115859600D01*
X175614500Y-119161600D02*
X166851500Y-119161600D01*
X166851500Y-119161600D02*
X163549500Y-115859600D01*
X152754500Y-119542600D02*
X137260500Y-119542600D01*
X137260500Y-119542600D02*
X122401500Y-119542600D01*
X156437500Y-115859600D02*
X152754500Y-119542600D01*
D16*
X127965158Y-121320600D02*
X125703500Y-121320600D01*
X155929500Y-121320600D02*
X127965158Y-121320600D01*
X125703500Y-121320600D02*
X125195500Y-121828600D01*
X155040500Y-120431600D02*
X154659500Y-120812600D01*
X154659500Y-120812600D02*
X127862500Y-120812600D01*
X122909500Y-120812600D02*
X121131500Y-122590600D01*
X127862500Y-120812600D02*
X122909500Y-120812600D01*
X155167500Y-120431600D02*
X155040500Y-120431600D01*
X117575500Y-120304600D02*
X116559500Y-121320600D01*
X154405500Y-119669600D02*
X153770500Y-120304600D01*
X153770500Y-120304600D02*
X127862500Y-120304600D01*
X127862500Y-120304600D02*
X117575500Y-120304600D01*
D15*
X121385500Y-139507000D02*
X121385500Y-142047000D01*
X133450500Y-145349000D02*
X140562500Y-145349000D01*
X121385500Y-142047000D02*
X130148500Y-142047000D01*
X130148500Y-142047000D02*
X133450500Y-145349000D01*
X144245500Y-141666000D02*
X159739500Y-141666000D01*
X159739500Y-141666000D02*
X174598500Y-141666000D01*
X140562500Y-145349000D02*
X144245500Y-141666000D01*
D16*
X169034842Y-139888000D02*
X171296500Y-139888000D01*
X141070500Y-139888000D02*
X169034842Y-139888000D01*
X171296500Y-139888000D02*
X171804500Y-139380000D01*
X141959500Y-140777000D02*
X142340500Y-140396000D01*
X142340500Y-140396000D02*
X169137500Y-140396000D01*
X174090500Y-140396000D02*
X175868500Y-138618000D01*
X169137500Y-140396000D02*
X174090500Y-140396000D01*
X141832500Y-140777000D02*
X141959500Y-140777000D01*
X179424500Y-140904000D02*
X180440500Y-139888000D01*
X142594500Y-141539000D02*
X143229500Y-140904000D01*
X143229500Y-140904000D02*
X169137500Y-140904000D01*
X169137500Y-140904000D02*
X179424500Y-140904000D01*
D15*
X175614500Y-162392400D02*
X175614500Y-159852400D01*
X163549500Y-156550400D02*
X156437500Y-156550400D01*
X175614500Y-159852400D02*
X166851500Y-159852400D01*
X166851500Y-159852400D02*
X163549500Y-156550400D01*
X152754500Y-160233400D02*
X137260500Y-160233400D01*
X137260500Y-160233400D02*
X122401500Y-160233400D01*
X156437500Y-156550400D02*
X152754500Y-160233400D01*
D16*
X127965158Y-162011400D02*
X125703500Y-162011400D01*
X155929500Y-162011400D02*
X127965158Y-162011400D01*
X125703500Y-162011400D02*
X125195500Y-162519400D01*
X155040500Y-161122400D02*
X154659500Y-161503400D01*
X154659500Y-161503400D02*
X127862500Y-161503400D01*
X122909500Y-161503400D02*
X121131500Y-163281400D01*
X127862500Y-161503400D02*
X122909500Y-161503400D01*
X155167500Y-161122400D02*
X155040500Y-161122400D01*
X117575500Y-160995400D02*
X116559500Y-162011400D01*
X154405500Y-160360400D02*
X153770500Y-160995400D01*
X153770500Y-160995400D02*
X127862500Y-160995400D01*
X127862500Y-160995400D02*
X117575500Y-160995400D01*
D15*
X121385500Y-180197800D02*
X121385500Y-182737800D01*
X133450500Y-186039800D02*
X140562500Y-186039800D01*
X121385500Y-182737800D02*
X130148500Y-182737800D01*
X130148500Y-182737800D02*
X133450500Y-186039800D01*
X144245500Y-182356800D02*
X159739500Y-182356800D01*
X159739500Y-182356800D02*
X174598500Y-182356800D01*
X140562500Y-186039800D02*
X144245500Y-182356800D01*
D16*
X169034842Y-180578800D02*
X171296500Y-180578800D01*
X141070500Y-180578800D02*
X169034842Y-180578800D01*
X171296500Y-180578800D02*
X171804500Y-180070800D01*
X141959500Y-181467800D02*
X142340500Y-181086800D01*
X142340500Y-181086800D02*
X169137500Y-181086800D01*
X174090500Y-181086800D02*
X175868500Y-179308800D01*
X169137500Y-181086800D02*
X174090500Y-181086800D01*
X141832500Y-181467800D02*
X141959500Y-181467800D01*
X179424500Y-181594800D02*
X180440500Y-180578800D01*
X142594500Y-182229800D02*
X143229500Y-181594800D01*
X143229500Y-181594800D02*
X169137500Y-181594800D01*
X169137500Y-181594800D02*
X179424500Y-181594800D01*
D15*
X175614500Y-203083200D02*
X175614500Y-200543200D01*
X163549500Y-197241200D02*
X156437500Y-197241200D01*
X175614500Y-200543200D02*
X166851500Y-200543200D01*
X166851500Y-200543200D02*
X163549500Y-197241200D01*
X152754500Y-200924200D02*
X137260500Y-200924200D01*
X137260500Y-200924200D02*
X122401500Y-200924200D01*
X156437500Y-197241200D02*
X152754500Y-200924200D01*
D16*
X127965158Y-202702200D02*
X125703500Y-202702200D01*
X155929500Y-202702200D02*
X127965158Y-202702200D01*
X125703500Y-202702200D02*
X125195500Y-203210200D01*
X155040500Y-201813200D02*
X154659500Y-202194200D01*
X154659500Y-202194200D02*
X127862500Y-202194200D01*
X122909500Y-202194200D02*
X121131500Y-203972200D01*
X127862500Y-202194200D02*
X122909500Y-202194200D01*
X155167500Y-201813200D02*
X155040500Y-201813200D01*
X117575500Y-201686200D02*
X116559500Y-202702200D01*
X154405500Y-201051200D02*
X153770500Y-201686200D01*
X153770500Y-201686200D02*
X127862500Y-201686200D01*
X127862500Y-201686200D02*
X117575500Y-201686200D01*
D15*
X121385500Y-220888600D02*
X121385500Y-223428600D01*
X133450500Y-226730600D02*
X140562500Y-226730600D01*
X121385500Y-223428600D02*
X130148500Y-223428600D01*
X130148500Y-223428600D02*
X133450500Y-226730600D01*
X144245500Y-223047600D02*
X159739500Y-223047600D01*
X159739500Y-223047600D02*
X174598500Y-223047600D01*
X140562500Y-226730600D02*
X144245500Y-223047600D01*
D16*
X169034842Y-221269600D02*
X171296500Y-221269600D01*
X141070500Y-221269600D02*
X169034842Y-221269600D01*
X171296500Y-221269600D02*
X171804500Y-220761600D01*
X141959500Y-222158600D02*
X142340500Y-221777600D01*
X142340500Y-221777600D02*
X169137500Y-221777600D01*
X174090500Y-221777600D02*
X175868500Y-219999600D01*
X169137500Y-221777600D02*
X174090500Y-221777600D01*
X141832500Y-222158600D02*
X141959500Y-222158600D01*
X179424500Y-222285600D02*
X180440500Y-221269600D01*
X142594500Y-222920600D02*
X143229500Y-222285600D01*
X143229500Y-222285600D02*
X169137500Y-222285600D01*
X169137500Y-222285600D02*
X179424500Y-222285600D01*
M02*
