G04 #@! TF.GenerationSoftware,KiCad,Pcbnew,6.0.2+dfsg-1*
G04 #@! TF.CreationDate,2024-07-01T09:46:04-06:00*
G04 #@! TF.ProjectId,ckt-signal-2x-array,636b742d-7369-4676-9e61-6c2d32782d61,rev?*
G04 #@! TF.SameCoordinates,Original*
G04 #@! TF.FileFunction,Soldermask,Top*
G04 #@! TF.FilePolarity,Negative*
%FSLAX46Y46*%
G04 Gerber Fmt 4.6, Leading zero omitted, Abs format (unit mm)*
G04 Created by KiCad (PCBNEW 6.0.2+dfsg-1) date 2024-07-01 09:46:04*
%MOMM*%
%LPD*%
G01*
G04 APERTURE LIST*
%ADD10C,0.500000*%
%ADD11C,6.552400*%
%ADD12C,2.352400*%
%ADD13C,2.000000*%
G04 APERTURE END LIST*
D10*
X115406804Y-81010800D03*
G36*
G01*
X129236700Y-55135400D02*
X129236700Y-56035400D01*
G75*
G02*
X128910500Y-56361600I-326200J0D01*
G01*
X128385500Y-56361600D01*
G75*
G02*
X128059300Y-56035400I0J326200D01*
G01*
X128059300Y-55135400D01*
G75*
G02*
X128385500Y-54809200I326200J0D01*
G01*
X128910500Y-54809200D01*
G75*
G02*
X129236700Y-55135400I0J-326200D01*
G01*
G37*
G36*
G01*
X127411700Y-55135400D02*
X127411700Y-56035400D01*
G75*
G02*
X127085500Y-56361600I-326200J0D01*
G01*
X126560500Y-56361600D01*
G75*
G02*
X126234300Y-56035400I0J326200D01*
G01*
X126234300Y-55135400D01*
G75*
G02*
X126560500Y-54809200I326200J0D01*
G01*
X127085500Y-54809200D01*
G75*
G02*
X127411700Y-55135400I0J-326200D01*
G01*
G37*
X115162500Y-141200333D03*
G36*
G01*
X175412250Y-179966600D02*
X176324750Y-179966600D01*
G75*
G02*
X176644700Y-180286550I0J-319950D01*
G01*
X176644700Y-180774050D01*
G75*
G02*
X176324750Y-181094000I-319950J0D01*
G01*
X175412250Y-181094000D01*
G75*
G02*
X175092300Y-180774050I0J319950D01*
G01*
X175092300Y-180286550D01*
G75*
G02*
X175412250Y-179966600I319950J0D01*
G01*
G37*
G36*
G01*
X175412250Y-181841600D02*
X176324750Y-181841600D01*
G75*
G02*
X176644700Y-182161550I0J-319950D01*
G01*
X176644700Y-182649050D01*
G75*
G02*
X176324750Y-182969000I-319950J0D01*
G01*
X175412250Y-182969000D01*
G75*
G02*
X175092300Y-182649050I0J319950D01*
G01*
X175092300Y-182161550D01*
G75*
G02*
X175412250Y-181841600I319950J0D01*
G01*
G37*
G36*
G01*
X167763300Y-206073200D02*
X167763300Y-205173200D01*
G75*
G02*
X168089500Y-204847000I326200J0D01*
G01*
X168614500Y-204847000D01*
G75*
G02*
X168940700Y-205173200I0J-326200D01*
G01*
X168940700Y-206073200D01*
G75*
G02*
X168614500Y-206399400I-326200J0D01*
G01*
X168089500Y-206399400D01*
G75*
G02*
X167763300Y-206073200I0J326200D01*
G01*
G37*
G36*
G01*
X169588300Y-206073200D02*
X169588300Y-205173200D01*
G75*
G02*
X169914500Y-204847000I326200J0D01*
G01*
X170439500Y-204847000D01*
G75*
G02*
X170765700Y-205173200I0J-326200D01*
G01*
X170765700Y-206073200D01*
G75*
G02*
X170439500Y-206399400I-326200J0D01*
G01*
X169914500Y-206399400D01*
G75*
G02*
X169588300Y-206073200I0J326200D01*
G01*
G37*
G36*
G01*
X175412250Y-98585000D02*
X176324750Y-98585000D01*
G75*
G02*
X176644700Y-98904950I0J-319950D01*
G01*
X176644700Y-99392450D01*
G75*
G02*
X176324750Y-99712400I-319950J0D01*
G01*
X175412250Y-99712400D01*
G75*
G02*
X175092300Y-99392450I0J319950D01*
G01*
X175092300Y-98904950D01*
G75*
G02*
X175412250Y-98585000I319950J0D01*
G01*
G37*
G36*
G01*
X175412250Y-100460000D02*
X176324750Y-100460000D01*
G75*
G02*
X176644700Y-100779950I0J-319950D01*
G01*
X176644700Y-101267450D01*
G75*
G02*
X176324750Y-101587400I-319950J0D01*
G01*
X175412250Y-101587400D01*
G75*
G02*
X175092300Y-101267450I0J319950D01*
G01*
X175092300Y-100779950D01*
G75*
G02*
X175412250Y-100460000I319950J0D01*
G01*
G37*
X181837500Y-161545733D03*
X181837500Y-78470800D03*
X181709730Y-223085770D03*
G36*
G01*
X160553250Y-57894200D02*
X161465750Y-57894200D01*
G75*
G02*
X161785700Y-58214150I0J-319950D01*
G01*
X161785700Y-58701650D01*
G75*
G02*
X161465750Y-59021600I-319950J0D01*
G01*
X160553250Y-59021600D01*
G75*
G02*
X160233300Y-58701650I0J319950D01*
G01*
X160233300Y-58214150D01*
G75*
G02*
X160553250Y-57894200I319950J0D01*
G01*
G37*
G36*
G01*
X160553250Y-59769200D02*
X161465750Y-59769200D01*
G75*
G02*
X161785700Y-60089150I0J-319950D01*
G01*
X161785700Y-60576650D01*
G75*
G02*
X161465750Y-60896600I-319950J0D01*
G01*
X160553250Y-60896600D01*
G75*
G02*
X160233300Y-60576650I0J319950D01*
G01*
X160233300Y-60089150D01*
G75*
G02*
X160553250Y-59769200I319950J0D01*
G01*
G37*
G36*
G01*
X129236700Y-133977000D02*
X129236700Y-134877000D01*
G75*
G02*
X128910500Y-135203200I-326200J0D01*
G01*
X128385500Y-135203200D01*
G75*
G02*
X128059300Y-134877000I0J326200D01*
G01*
X128059300Y-133977000D01*
G75*
G02*
X128385500Y-133650800I326200J0D01*
G01*
X128910500Y-133650800D01*
G75*
G02*
X129236700Y-133977000I0J-326200D01*
G01*
G37*
G36*
G01*
X127411700Y-133977000D02*
X127411700Y-134877000D01*
G75*
G02*
X127085500Y-135203200I-326200J0D01*
G01*
X126560500Y-135203200D01*
G75*
G02*
X126234300Y-134877000I0J326200D01*
G01*
X126234300Y-133977000D01*
G75*
G02*
X126560500Y-133650800I326200J0D01*
G01*
X127085500Y-133650800D01*
G75*
G02*
X127411700Y-133977000I0J-326200D01*
G01*
G37*
G36*
G01*
X121587750Y-81242000D02*
X120675250Y-81242000D01*
G75*
G02*
X120355300Y-80922050I0J319950D01*
G01*
X120355300Y-80434550D01*
G75*
G02*
X120675250Y-80114600I319950J0D01*
G01*
X121587750Y-80114600D01*
G75*
G02*
X121907700Y-80434550I0J-319950D01*
G01*
X121907700Y-80922050D01*
G75*
G02*
X121587750Y-81242000I-319950J0D01*
G01*
G37*
G36*
G01*
X121587750Y-79367000D02*
X120675250Y-79367000D01*
G75*
G02*
X120355300Y-79047050I0J319950D01*
G01*
X120355300Y-78559550D01*
G75*
G02*
X120675250Y-78239600I319950J0D01*
G01*
X121587750Y-78239600D01*
G75*
G02*
X121907700Y-78559550I0J-319950D01*
G01*
X121907700Y-79047050D01*
G75*
G02*
X121587750Y-79367000I-319950J0D01*
G01*
G37*
G36*
G01*
X136446750Y-121932800D02*
X135534250Y-121932800D01*
G75*
G02*
X135214300Y-121612850I0J319950D01*
G01*
X135214300Y-121125350D01*
G75*
G02*
X135534250Y-120805400I319950J0D01*
G01*
X136446750Y-120805400D01*
G75*
G02*
X136766700Y-121125350I0J-319950D01*
G01*
X136766700Y-121612850D01*
G75*
G02*
X136446750Y-121932800I-319950J0D01*
G01*
G37*
G36*
G01*
X136446750Y-120057800D02*
X135534250Y-120057800D01*
G75*
G02*
X135214300Y-119737850I0J319950D01*
G01*
X135214300Y-119250350D01*
G75*
G02*
X135534250Y-118930400I319950J0D01*
G01*
X136446750Y-118930400D01*
G75*
G02*
X136766700Y-119250350I0J-319950D01*
G01*
X136766700Y-119737850D01*
G75*
G02*
X136446750Y-120057800I-319950J0D01*
G01*
G37*
G36*
G01*
X163093250Y-139275800D02*
X164005750Y-139275800D01*
G75*
G02*
X164325700Y-139595750I0J-319950D01*
G01*
X164325700Y-140083250D01*
G75*
G02*
X164005750Y-140403200I-319950J0D01*
G01*
X163093250Y-140403200D01*
G75*
G02*
X162773300Y-140083250I0J319950D01*
G01*
X162773300Y-139595750D01*
G75*
G02*
X163093250Y-139275800I319950J0D01*
G01*
G37*
G36*
G01*
X163093250Y-141150800D02*
X164005750Y-141150800D01*
G75*
G02*
X164325700Y-141470750I0J-319950D01*
G01*
X164325700Y-141958250D01*
G75*
G02*
X164005750Y-142278200I-319950J0D01*
G01*
X163093250Y-142278200D01*
G75*
G02*
X162773300Y-141958250I0J319950D01*
G01*
X162773300Y-141470750D01*
G75*
G02*
X163093250Y-141150800I319950J0D01*
G01*
G37*
X181809959Y-181900336D03*
G36*
G01*
X167763300Y-33150000D02*
X167763300Y-32250000D01*
G75*
G02*
X168089500Y-31923800I326200J0D01*
G01*
X168614500Y-31923800D01*
G75*
G02*
X168940700Y-32250000I0J-326200D01*
G01*
X168940700Y-33150000D01*
G75*
G02*
X168614500Y-33476200I-326200J0D01*
G01*
X168089500Y-33476200D01*
G75*
G02*
X167763300Y-33150000I0J326200D01*
G01*
G37*
G36*
G01*
X169588300Y-33150000D02*
X169588300Y-32250000D01*
G75*
G02*
X169914500Y-31923800I326200J0D01*
G01*
X170439500Y-31923800D01*
G75*
G02*
X170765700Y-32250000I0J-326200D01*
G01*
X170765700Y-33150000D01*
G75*
G02*
X170439500Y-33476200I-326200J0D01*
G01*
X169914500Y-33476200D01*
G75*
G02*
X169588300Y-33150000I0J326200D01*
G01*
G37*
G36*
G01*
X133906750Y-81242000D02*
X132994250Y-81242000D01*
G75*
G02*
X132674300Y-80922050I0J319950D01*
G01*
X132674300Y-80434550D01*
G75*
G02*
X132994250Y-80114600I319950J0D01*
G01*
X133906750Y-80114600D01*
G75*
G02*
X134226700Y-80434550I0J-319950D01*
G01*
X134226700Y-80922050D01*
G75*
G02*
X133906750Y-81242000I-319950J0D01*
G01*
G37*
G36*
G01*
X133906750Y-79367000D02*
X132994250Y-79367000D01*
G75*
G02*
X132674300Y-79047050I0J319950D01*
G01*
X132674300Y-78559550D01*
G75*
G02*
X132994250Y-78239600I319950J0D01*
G01*
X133906750Y-78239600D01*
G75*
G02*
X134226700Y-78559550I0J-319950D01*
G01*
X134226700Y-79047050D01*
G75*
G02*
X133906750Y-79367000I-319950J0D01*
G01*
G37*
X115162500Y-60665400D03*
G36*
G01*
X121587750Y-121932800D02*
X120675250Y-121932800D01*
G75*
G02*
X120355300Y-121612850I0J319950D01*
G01*
X120355300Y-121125350D01*
G75*
G02*
X120675250Y-120805400I319950J0D01*
G01*
X121587750Y-120805400D01*
G75*
G02*
X121907700Y-121125350I0J-319950D01*
G01*
X121907700Y-121612850D01*
G75*
G02*
X121587750Y-121932800I-319950J0D01*
G01*
G37*
G36*
G01*
X121587750Y-120057800D02*
X120675250Y-120057800D01*
G75*
G02*
X120355300Y-119737850I0J319950D01*
G01*
X120355300Y-119250350D01*
G75*
G02*
X120675250Y-118930400I319950J0D01*
G01*
X121587750Y-118930400D01*
G75*
G02*
X121907700Y-119250350I0J-319950D01*
G01*
X121907700Y-119737850D01*
G75*
G02*
X121587750Y-120057800I-319950J0D01*
G01*
G37*
G36*
G01*
X167763300Y-170462400D02*
X167763300Y-169562400D01*
G75*
G02*
X168089500Y-169236200I326200J0D01*
G01*
X168614500Y-169236200D01*
G75*
G02*
X168940700Y-169562400I0J-326200D01*
G01*
X168940700Y-170462400D01*
G75*
G02*
X168614500Y-170788600I-326200J0D01*
G01*
X168089500Y-170788600D01*
G75*
G02*
X167763300Y-170462400I0J326200D01*
G01*
G37*
G36*
G01*
X169588300Y-170462400D02*
X169588300Y-169562400D01*
G75*
G02*
X169914500Y-169236200I326200J0D01*
G01*
X170439500Y-169236200D01*
G75*
G02*
X170765700Y-169562400I0J-326200D01*
G01*
X170765700Y-170462400D01*
G75*
G02*
X170439500Y-170788600I-326200J0D01*
G01*
X169914500Y-170788600D01*
G75*
G02*
X169588300Y-170462400I0J326200D01*
G01*
G37*
X181593196Y-139507000D03*
G36*
G01*
X172872250Y-57894200D02*
X173784750Y-57894200D01*
G75*
G02*
X174104700Y-58214150I0J-319950D01*
G01*
X174104700Y-58701650D01*
G75*
G02*
X173784750Y-59021600I-319950J0D01*
G01*
X172872250Y-59021600D01*
G75*
G02*
X172552300Y-58701650I0J319950D01*
G01*
X172552300Y-58214150D01*
G75*
G02*
X172872250Y-57894200I319950J0D01*
G01*
G37*
G36*
G01*
X172872250Y-59769200D02*
X173784750Y-59769200D01*
G75*
G02*
X174104700Y-60089150I0J-319950D01*
G01*
X174104700Y-60576650D01*
G75*
G02*
X173784750Y-60896600I-319950J0D01*
G01*
X172872250Y-60896600D01*
G75*
G02*
X172552300Y-60576650I0J319950D01*
G01*
X172552300Y-60089150D01*
G75*
G02*
X172872250Y-59769200I319950J0D01*
G01*
G37*
X181809959Y-100518736D03*
X181593196Y-182737800D03*
G36*
G01*
X160553250Y-220657400D02*
X161465750Y-220657400D01*
G75*
G02*
X161785700Y-220977350I0J-319950D01*
G01*
X161785700Y-221464850D01*
G75*
G02*
X161465750Y-221784800I-319950J0D01*
G01*
X160553250Y-221784800D01*
G75*
G02*
X160233300Y-221464850I0J319950D01*
G01*
X160233300Y-220977350D01*
G75*
G02*
X160553250Y-220657400I319950J0D01*
G01*
G37*
G36*
G01*
X160553250Y-222532400D02*
X161465750Y-222532400D01*
G75*
G02*
X161785700Y-222852350I0J-319950D01*
G01*
X161785700Y-223339850D01*
G75*
G02*
X161465750Y-223659800I-319950J0D01*
G01*
X160553250Y-223659800D01*
G75*
G02*
X160233300Y-223339850I0J319950D01*
G01*
X160233300Y-222852350D01*
G75*
G02*
X160553250Y-222532400I319950J0D01*
G01*
G37*
G36*
G01*
X163093250Y-57894200D02*
X164005750Y-57894200D01*
G75*
G02*
X164325700Y-58214150I0J-319950D01*
G01*
X164325700Y-58701650D01*
G75*
G02*
X164005750Y-59021600I-319950J0D01*
G01*
X163093250Y-59021600D01*
G75*
G02*
X162773300Y-58701650I0J319950D01*
G01*
X162773300Y-58214150D01*
G75*
G02*
X163093250Y-57894200I319950J0D01*
G01*
G37*
G36*
G01*
X163093250Y-59769200D02*
X164005750Y-59769200D01*
G75*
G02*
X164325700Y-60089150I0J-319950D01*
G01*
X164325700Y-60576650D01*
G75*
G02*
X164005750Y-60896600I-319950J0D01*
G01*
X163093250Y-60896600D01*
G75*
G02*
X162773300Y-60576650I0J319950D01*
G01*
X162773300Y-60089150D01*
G75*
G02*
X163093250Y-59769200I319950J0D01*
G01*
G37*
X115162500Y-99662866D03*
G36*
G01*
X160553250Y-179966600D02*
X161465750Y-179966600D01*
G75*
G02*
X161785700Y-180286550I0J-319950D01*
G01*
X161785700Y-180774050D01*
G75*
G02*
X161465750Y-181094000I-319950J0D01*
G01*
X160553250Y-181094000D01*
G75*
G02*
X160233300Y-180774050I0J319950D01*
G01*
X160233300Y-180286550D01*
G75*
G02*
X160553250Y-179966600I319950J0D01*
G01*
G37*
G36*
G01*
X160553250Y-181841600D02*
X161465750Y-181841600D01*
G75*
G02*
X161785700Y-182161550I0J-319950D01*
G01*
X161785700Y-182649050D01*
G75*
G02*
X161465750Y-182969000I-319950J0D01*
G01*
X160553250Y-182969000D01*
G75*
G02*
X160233300Y-182649050I0J319950D01*
G01*
X160233300Y-182161550D01*
G75*
G02*
X160553250Y-181841600I319950J0D01*
G01*
G37*
X116274673Y-36522701D03*
D11*
X160755500Y-201813200D03*
D10*
X181593196Y-180197800D03*
X181593196Y-60665400D03*
G36*
G01*
X167763300Y-30610000D02*
X167763300Y-29710000D01*
G75*
G02*
X168089500Y-29383800I326200J0D01*
G01*
X168614500Y-29383800D01*
G75*
G02*
X168940700Y-29710000I0J-326200D01*
G01*
X168940700Y-30610000D01*
G75*
G02*
X168614500Y-30936200I-326200J0D01*
G01*
X168089500Y-30936200D01*
G75*
G02*
X167763300Y-30610000I0J326200D01*
G01*
G37*
G36*
G01*
X169588300Y-30610000D02*
X169588300Y-29710000D01*
G75*
G02*
X169914500Y-29383800I326200J0D01*
G01*
X170439500Y-29383800D01*
G75*
G02*
X170765700Y-29710000I0J-326200D01*
G01*
X170765700Y-30610000D01*
G75*
G02*
X170439500Y-30936200I-326200J0D01*
G01*
X169914500Y-30936200D01*
G75*
G02*
X169588300Y-30610000I0J326200D01*
G01*
G37*
X181837500Y-81010800D03*
X115406804Y-119161600D03*
G36*
G01*
X129236700Y-174667800D02*
X129236700Y-175567800D01*
G75*
G02*
X128910500Y-175894000I-326200J0D01*
G01*
X128385500Y-175894000D01*
G75*
G02*
X128059300Y-175567800I0J326200D01*
G01*
X128059300Y-174667800D01*
G75*
G02*
X128385500Y-174341600I326200J0D01*
G01*
X128910500Y-174341600D01*
G75*
G02*
X129236700Y-174667800I0J-326200D01*
G01*
G37*
G36*
G01*
X127411700Y-174667800D02*
X127411700Y-175567800D01*
G75*
G02*
X127085500Y-175894000I-326200J0D01*
G01*
X126560500Y-175894000D01*
G75*
G02*
X126234300Y-175567800I0J326200D01*
G01*
X126234300Y-174667800D01*
G75*
G02*
X126560500Y-174341600I326200J0D01*
G01*
X127085500Y-174341600D01*
G75*
G02*
X127411700Y-174667800I0J-326200D01*
G01*
G37*
X115163566Y-39062700D03*
G36*
G01*
X167763300Y-71300800D02*
X167763300Y-70400800D01*
G75*
G02*
X168089500Y-70074600I326200J0D01*
G01*
X168614500Y-70074600D01*
G75*
G02*
X168940700Y-70400800I0J-326200D01*
G01*
X168940700Y-71300800D01*
G75*
G02*
X168614500Y-71627000I-326200J0D01*
G01*
X168089500Y-71627000D01*
G75*
G02*
X167763300Y-71300800I0J326200D01*
G01*
G37*
G36*
G01*
X169588300Y-71300800D02*
X169588300Y-70400800D01*
G75*
G02*
X169914500Y-70074600I326200J0D01*
G01*
X170439500Y-70074600D01*
G75*
G02*
X170765700Y-70400800I0J-326200D01*
G01*
X170765700Y-71300800D01*
G75*
G02*
X170439500Y-71627000I-326200J0D01*
G01*
X169914500Y-71627000D01*
G75*
G02*
X169588300Y-71300800I0J326200D01*
G01*
G37*
G36*
G01*
X177952250Y-98585000D02*
X178864750Y-98585000D01*
G75*
G02*
X179184700Y-98904950I0J-319950D01*
G01*
X179184700Y-99392450D01*
G75*
G02*
X178864750Y-99712400I-319950J0D01*
G01*
X177952250Y-99712400D01*
G75*
G02*
X177632300Y-99392450I0J319950D01*
G01*
X177632300Y-98904950D01*
G75*
G02*
X177952250Y-98585000I319950J0D01*
G01*
G37*
G36*
G01*
X177952250Y-100460000D02*
X178864750Y-100460000D01*
G75*
G02*
X179184700Y-100779950I0J-319950D01*
G01*
X179184700Y-101267450D01*
G75*
G02*
X178864750Y-101587400I-319950J0D01*
G01*
X177952250Y-101587400D01*
G75*
G02*
X177632300Y-101267450I0J319950D01*
G01*
X177632300Y-100779950D01*
G75*
G02*
X177952250Y-100460000I319950J0D01*
G01*
G37*
X115162500Y-220888600D03*
D11*
X160755500Y-161122400D03*
D10*
X115162500Y-223428600D03*
X181837500Y-119161600D03*
G36*
G01*
X129236700Y-189907800D02*
X129236700Y-190807800D01*
G75*
G02*
X128910500Y-191134000I-326200J0D01*
G01*
X128385500Y-191134000D01*
G75*
G02*
X128059300Y-190807800I0J326200D01*
G01*
X128059300Y-189907800D01*
G75*
G02*
X128385500Y-189581600I326200J0D01*
G01*
X128910500Y-189581600D01*
G75*
G02*
X129236700Y-189907800I0J-326200D01*
G01*
G37*
G36*
G01*
X127411700Y-189907800D02*
X127411700Y-190807800D01*
G75*
G02*
X127085500Y-191134000I-326200J0D01*
G01*
X126560500Y-191134000D01*
G75*
G02*
X126234300Y-190807800I0J326200D01*
G01*
X126234300Y-189907800D01*
G75*
G02*
X126560500Y-189581600I326200J0D01*
G01*
X127085500Y-189581600D01*
G75*
G02*
X127411700Y-189907800I0J-326200D01*
G01*
G37*
G36*
G01*
X158013250Y-98585000D02*
X158925750Y-98585000D01*
G75*
G02*
X159245700Y-98904950I0J-319950D01*
G01*
X159245700Y-99392450D01*
G75*
G02*
X158925750Y-99712400I-319950J0D01*
G01*
X158013250Y-99712400D01*
G75*
G02*
X157693300Y-99392450I0J319950D01*
G01*
X157693300Y-98904950D01*
G75*
G02*
X158013250Y-98585000I319950J0D01*
G01*
G37*
G36*
G01*
X158013250Y-100460000D02*
X158925750Y-100460000D01*
G75*
G02*
X159245700Y-100779950I0J-319950D01*
G01*
X159245700Y-101267450D01*
G75*
G02*
X158925750Y-101587400I-319950J0D01*
G01*
X158013250Y-101587400D01*
G75*
G02*
X157693300Y-101267450I0J319950D01*
G01*
X157693300Y-100779950D01*
G75*
G02*
X158013250Y-100460000I319950J0D01*
G01*
G37*
G36*
G01*
X136446750Y-40551200D02*
X135534250Y-40551200D01*
G75*
G02*
X135214300Y-40231250I0J319950D01*
G01*
X135214300Y-39743750D01*
G75*
G02*
X135534250Y-39423800I319950J0D01*
G01*
X136446750Y-39423800D01*
G75*
G02*
X136766700Y-39743750I0J-319950D01*
G01*
X136766700Y-40231250D01*
G75*
G02*
X136446750Y-40551200I-319950J0D01*
G01*
G37*
G36*
G01*
X136446750Y-38676200D02*
X135534250Y-38676200D01*
G75*
G02*
X135214300Y-38356250I0J319950D01*
G01*
X135214300Y-37868750D01*
G75*
G02*
X135534250Y-37548800I319950J0D01*
G01*
X136446750Y-37548800D01*
G75*
G02*
X136766700Y-37868750I0J-319950D01*
G01*
X136766700Y-38356250D01*
G75*
G02*
X136446750Y-38676200I-319950J0D01*
G01*
G37*
G36*
G01*
X167763300Y-208613200D02*
X167763300Y-207713200D01*
G75*
G02*
X168089500Y-207387000I326200J0D01*
G01*
X168614500Y-207387000D01*
G75*
G02*
X168940700Y-207713200I0J-326200D01*
G01*
X168940700Y-208613200D01*
G75*
G02*
X168614500Y-208939400I-326200J0D01*
G01*
X168089500Y-208939400D01*
G75*
G02*
X167763300Y-208613200I0J326200D01*
G01*
G37*
G36*
G01*
X169588300Y-208613200D02*
X169588300Y-207713200D01*
G75*
G02*
X169914500Y-207387000I326200J0D01*
G01*
X170439500Y-207387000D01*
G75*
G02*
X170765700Y-207713200I0J-326200D01*
G01*
X170765700Y-208613200D01*
G75*
G02*
X170439500Y-208939400I-326200J0D01*
G01*
X169914500Y-208939400D01*
G75*
G02*
X169588300Y-208613200I0J326200D01*
G01*
G37*
G36*
G01*
X177952250Y-179966600D02*
X178864750Y-179966600D01*
G75*
G02*
X179184700Y-180286550I0J-319950D01*
G01*
X179184700Y-180774050D01*
G75*
G02*
X178864750Y-181094000I-319950J0D01*
G01*
X177952250Y-181094000D01*
G75*
G02*
X177632300Y-180774050I0J319950D01*
G01*
X177632300Y-180286550D01*
G75*
G02*
X177952250Y-179966600I319950J0D01*
G01*
G37*
G36*
G01*
X177952250Y-181841600D02*
X178864750Y-181841600D01*
G75*
G02*
X179184700Y-182161550I0J-319950D01*
G01*
X179184700Y-182649050D01*
G75*
G02*
X178864750Y-182969000I-319950J0D01*
G01*
X177952250Y-182969000D01*
G75*
G02*
X177632300Y-182649050I0J319950D01*
G01*
X177632300Y-182161550D01*
G75*
G02*
X177952250Y-181841600I319950J0D01*
G01*
G37*
D11*
X160755500Y-79740800D03*
G36*
G01*
X120285500Y-49329200D02*
X122485500Y-49329200D01*
G75*
G02*
X122561700Y-49405400I0J-76200D01*
G01*
X122561700Y-51605400D01*
G75*
G02*
X122485500Y-51681600I-76200J0D01*
G01*
X120285500Y-51681600D01*
G75*
G02*
X120209300Y-51605400I0J76200D01*
G01*
X120209300Y-49405400D01*
G75*
G02*
X120285500Y-49329200I76200J0D01*
G01*
G37*
D12*
X121385500Y-53045400D03*
X121385500Y-55585400D03*
X121385500Y-58125400D03*
X121385500Y-60665400D03*
X121385500Y-63205400D03*
X121385500Y-65745400D03*
X121385500Y-68285400D03*
D10*
X181836434Y-222145900D03*
G36*
G01*
X177952250Y-220657400D02*
X178864750Y-220657400D01*
G75*
G02*
X179184700Y-220977350I0J-319950D01*
G01*
X179184700Y-221464850D01*
G75*
G02*
X178864750Y-221784800I-319950J0D01*
G01*
X177952250Y-221784800D01*
G75*
G02*
X177632300Y-221464850I0J319950D01*
G01*
X177632300Y-220977350D01*
G75*
G02*
X177952250Y-220657400I319950J0D01*
G01*
G37*
G36*
G01*
X177952250Y-222532400D02*
X178864750Y-222532400D01*
G75*
G02*
X179184700Y-222852350I0J-319950D01*
G01*
X179184700Y-223339850D01*
G75*
G02*
X178864750Y-223659800I-319950J0D01*
G01*
X177952250Y-223659800D01*
G75*
G02*
X177632300Y-223339850I0J319950D01*
G01*
X177632300Y-222852350D01*
G75*
G02*
X177952250Y-222532400I319950J0D01*
G01*
G37*
X181837500Y-201389866D03*
G36*
G01*
X124127750Y-203314400D02*
X123215250Y-203314400D01*
G75*
G02*
X122895300Y-202994450I0J319950D01*
G01*
X122895300Y-202506950D01*
G75*
G02*
X123215250Y-202187000I319950J0D01*
G01*
X124127750Y-202187000D01*
G75*
G02*
X124447700Y-202506950I0J-319950D01*
G01*
X124447700Y-202994450D01*
G75*
G02*
X124127750Y-203314400I-319950J0D01*
G01*
G37*
G36*
G01*
X124127750Y-201439400D02*
X123215250Y-201439400D01*
G75*
G02*
X122895300Y-201119450I0J319950D01*
G01*
X122895300Y-200631950D01*
G75*
G02*
X123215250Y-200312000I319950J0D01*
G01*
X124127750Y-200312000D01*
G75*
G02*
X124447700Y-200631950I0J-319950D01*
G01*
X124447700Y-201119450D01*
G75*
G02*
X124127750Y-201439400I-319950J0D01*
G01*
G37*
X181837500Y-79317466D03*
G36*
G01*
X129236700Y-65295400D02*
X129236700Y-66195400D01*
G75*
G02*
X128910500Y-66521600I-326200J0D01*
G01*
X128385500Y-66521600D01*
G75*
G02*
X128059300Y-66195400I0J326200D01*
G01*
X128059300Y-65295400D01*
G75*
G02*
X128385500Y-64969200I326200J0D01*
G01*
X128910500Y-64969200D01*
G75*
G02*
X129236700Y-65295400I0J-326200D01*
G01*
G37*
G36*
G01*
X127411700Y-65295400D02*
X127411700Y-66195400D01*
G75*
G02*
X127085500Y-66521600I-326200J0D01*
G01*
X126560500Y-66521600D01*
G75*
G02*
X126234300Y-66195400I0J326200D01*
G01*
X126234300Y-65295400D01*
G75*
G02*
X126560500Y-64969200I326200J0D01*
G01*
X127085500Y-64969200D01*
G75*
G02*
X127411700Y-65295400I0J-326200D01*
G01*
G37*
G36*
G01*
X160553250Y-98585000D02*
X161465750Y-98585000D01*
G75*
G02*
X161785700Y-98904950I0J-319950D01*
G01*
X161785700Y-99392450D01*
G75*
G02*
X161465750Y-99712400I-319950J0D01*
G01*
X160553250Y-99712400D01*
G75*
G02*
X160233300Y-99392450I0J319950D01*
G01*
X160233300Y-98904950D01*
G75*
G02*
X160553250Y-98585000I319950J0D01*
G01*
G37*
G36*
G01*
X160553250Y-100460000D02*
X161465750Y-100460000D01*
G75*
G02*
X161785700Y-100779950I0J-319950D01*
G01*
X161785700Y-101267450D01*
G75*
G02*
X161465750Y-101587400I-319950J0D01*
G01*
X160553250Y-101587400D01*
G75*
G02*
X160233300Y-101267450I0J319950D01*
G01*
X160233300Y-100779950D01*
G75*
G02*
X160553250Y-100460000I319950J0D01*
G01*
G37*
G36*
G01*
X167763300Y-129771600D02*
X167763300Y-128871600D01*
G75*
G02*
X168089500Y-128545400I326200J0D01*
G01*
X168614500Y-128545400D01*
G75*
G02*
X168940700Y-128871600I0J-326200D01*
G01*
X168940700Y-129771600D01*
G75*
G02*
X168614500Y-130097800I-326200J0D01*
G01*
X168089500Y-130097800D01*
G75*
G02*
X167763300Y-129771600I0J326200D01*
G01*
G37*
G36*
G01*
X169588300Y-129771600D02*
X169588300Y-128871600D01*
G75*
G02*
X169914500Y-128545400I326200J0D01*
G01*
X170439500Y-128545400D01*
G75*
G02*
X170765700Y-128871600I0J-326200D01*
G01*
X170765700Y-129771600D01*
G75*
G02*
X170439500Y-130097800I-326200J0D01*
G01*
X169914500Y-130097800D01*
G75*
G02*
X169588300Y-129771600I0J326200D01*
G01*
G37*
X181593196Y-101356200D03*
G36*
G01*
X129236700Y-67835400D02*
X129236700Y-68735400D01*
G75*
G02*
X128910500Y-69061600I-326200J0D01*
G01*
X128385500Y-69061600D01*
G75*
G02*
X128059300Y-68735400I0J326200D01*
G01*
X128059300Y-67835400D01*
G75*
G02*
X128385500Y-67509200I326200J0D01*
G01*
X128910500Y-67509200D01*
G75*
G02*
X129236700Y-67835400I0J-326200D01*
G01*
G37*
G36*
G01*
X127411700Y-67835400D02*
X127411700Y-68735400D01*
G75*
G02*
X127085500Y-69061600I-326200J0D01*
G01*
X126560500Y-69061600D01*
G75*
G02*
X126234300Y-68735400I0J326200D01*
G01*
X126234300Y-67835400D01*
G75*
G02*
X126560500Y-67509200I326200J0D01*
G01*
X127085500Y-67509200D01*
G75*
G02*
X127411700Y-67835400I0J-326200D01*
G01*
G37*
X115190041Y-119999063D03*
G36*
G01*
X167763300Y-198453200D02*
X167763300Y-197553200D01*
G75*
G02*
X168089500Y-197227000I326200J0D01*
G01*
X168614500Y-197227000D01*
G75*
G02*
X168940700Y-197553200I0J-326200D01*
G01*
X168940700Y-198453200D01*
G75*
G02*
X168614500Y-198779400I-326200J0D01*
G01*
X168089500Y-198779400D01*
G75*
G02*
X167763300Y-198453200I0J326200D01*
G01*
G37*
G36*
G01*
X169588300Y-198453200D02*
X169588300Y-197553200D01*
G75*
G02*
X169914500Y-197227000I326200J0D01*
G01*
X170439500Y-197227000D01*
G75*
G02*
X170765700Y-197553200I0J-326200D01*
G01*
X170765700Y-198453200D01*
G75*
G02*
X170439500Y-198779400I-326200J0D01*
G01*
X169914500Y-198779400D01*
G75*
G02*
X169588300Y-198453200I0J326200D01*
G01*
G37*
G36*
G01*
X167763300Y-152682400D02*
X167763300Y-151782400D01*
G75*
G02*
X168089500Y-151456200I326200J0D01*
G01*
X168614500Y-151456200D01*
G75*
G02*
X168940700Y-151782400I0J-326200D01*
G01*
X168940700Y-152682400D01*
G75*
G02*
X168614500Y-153008600I-326200J0D01*
G01*
X168089500Y-153008600D01*
G75*
G02*
X167763300Y-152682400I0J326200D01*
G01*
G37*
G36*
G01*
X169588300Y-152682400D02*
X169588300Y-151782400D01*
G75*
G02*
X169914500Y-151456200I326200J0D01*
G01*
X170439500Y-151456200D01*
G75*
G02*
X170765700Y-151782400I0J-326200D01*
G01*
X170765700Y-152682400D01*
G75*
G02*
X170439500Y-153008600I-326200J0D01*
G01*
X169914500Y-153008600D01*
G75*
G02*
X169588300Y-152682400I0J326200D01*
G01*
G37*
G36*
G01*
X124127750Y-162623600D02*
X123215250Y-162623600D01*
G75*
G02*
X122895300Y-162303650I0J319950D01*
G01*
X122895300Y-161816150D01*
G75*
G02*
X123215250Y-161496200I319950J0D01*
G01*
X124127750Y-161496200D01*
G75*
G02*
X124447700Y-161816150I0J-319950D01*
G01*
X124447700Y-162303650D01*
G75*
G02*
X124127750Y-162623600I-319950J0D01*
G01*
G37*
G36*
G01*
X124127750Y-160748600D02*
X123215250Y-160748600D01*
G75*
G02*
X122895300Y-160428650I0J319950D01*
G01*
X122895300Y-159941150D01*
G75*
G02*
X123215250Y-159621200I319950J0D01*
G01*
X124127750Y-159621200D01*
G75*
G02*
X124447700Y-159941150I0J-319950D01*
G01*
X124447700Y-160428650D01*
G75*
G02*
X124127750Y-160748600I-319950J0D01*
G01*
G37*
G36*
G01*
X158013250Y-139275800D02*
X158925750Y-139275800D01*
G75*
G02*
X159245700Y-139595750I0J-319950D01*
G01*
X159245700Y-140083250D01*
G75*
G02*
X158925750Y-140403200I-319950J0D01*
G01*
X158013250Y-140403200D01*
G75*
G02*
X157693300Y-140083250I0J319950D01*
G01*
X157693300Y-139595750D01*
G75*
G02*
X158013250Y-139275800I319950J0D01*
G01*
G37*
G36*
G01*
X158013250Y-141150800D02*
X158925750Y-141150800D01*
G75*
G02*
X159245700Y-141470750I0J-319950D01*
G01*
X159245700Y-141958250D01*
G75*
G02*
X158925750Y-142278200I-319950J0D01*
G01*
X158013250Y-142278200D01*
G75*
G02*
X157693300Y-141958250I0J319950D01*
G01*
X157693300Y-141470750D01*
G75*
G02*
X158013250Y-141150800I319950J0D01*
G01*
G37*
X181837500Y-202236533D03*
D11*
X160755500Y-120431600D03*
G36*
G01*
X167763300Y-117071600D02*
X167763300Y-116171600D01*
G75*
G02*
X168089500Y-115845400I326200J0D01*
G01*
X168614500Y-115845400D01*
G75*
G02*
X168940700Y-116171600I0J-326200D01*
G01*
X168940700Y-117071600D01*
G75*
G02*
X168614500Y-117397800I-326200J0D01*
G01*
X168089500Y-117397800D01*
G75*
G02*
X167763300Y-117071600I0J326200D01*
G01*
G37*
G36*
G01*
X169588300Y-117071600D02*
X169588300Y-116171600D01*
G75*
G02*
X169914500Y-115845400I326200J0D01*
G01*
X170439500Y-115845400D01*
G75*
G02*
X170765700Y-116171600I0J-326200D01*
G01*
X170765700Y-117071600D01*
G75*
G02*
X170439500Y-117397800I-326200J0D01*
G01*
X169914500Y-117397800D01*
G75*
G02*
X169588300Y-117071600I0J326200D01*
G01*
G37*
G36*
G01*
X158013250Y-179966600D02*
X158925750Y-179966600D01*
G75*
G02*
X159245700Y-180286550I0J-319950D01*
G01*
X159245700Y-180774050D01*
G75*
G02*
X158925750Y-181094000I-319950J0D01*
G01*
X158013250Y-181094000D01*
G75*
G02*
X157693300Y-180774050I0J319950D01*
G01*
X157693300Y-180286550D01*
G75*
G02*
X158013250Y-179966600I319950J0D01*
G01*
G37*
G36*
G01*
X158013250Y-181841600D02*
X158925750Y-181841600D01*
G75*
G02*
X159245700Y-182161550I0J-319950D01*
G01*
X159245700Y-182649050D01*
G75*
G02*
X158925750Y-182969000I-319950J0D01*
G01*
X158013250Y-182969000D01*
G75*
G02*
X157693300Y-182649050I0J319950D01*
G01*
X157693300Y-182161550D01*
G75*
G02*
X158013250Y-181841600I319950J0D01*
G01*
G37*
G36*
G01*
X129236700Y-131437000D02*
X129236700Y-132337000D01*
G75*
G02*
X128910500Y-132663200I-326200J0D01*
G01*
X128385500Y-132663200D01*
G75*
G02*
X128059300Y-132337000I0J326200D01*
G01*
X128059300Y-131437000D01*
G75*
G02*
X128385500Y-131110800I326200J0D01*
G01*
X128910500Y-131110800D01*
G75*
G02*
X129236700Y-131437000I0J-326200D01*
G01*
G37*
G36*
G01*
X127411700Y-131437000D02*
X127411700Y-132337000D01*
G75*
G02*
X127085500Y-132663200I-326200J0D01*
G01*
X126560500Y-132663200D01*
G75*
G02*
X126234300Y-132337000I0J326200D01*
G01*
X126234300Y-131437000D01*
G75*
G02*
X126560500Y-131110800I326200J0D01*
G01*
X127085500Y-131110800D01*
G75*
G02*
X127411700Y-131437000I0J-326200D01*
G01*
G37*
G36*
G01*
X167763300Y-89080800D02*
X167763300Y-88180800D01*
G75*
G02*
X168089500Y-87854600I326200J0D01*
G01*
X168614500Y-87854600D01*
G75*
G02*
X168940700Y-88180800I0J-326200D01*
G01*
X168940700Y-89080800D01*
G75*
G02*
X168614500Y-89407000I-326200J0D01*
G01*
X168089500Y-89407000D01*
G75*
G02*
X167763300Y-89080800I0J326200D01*
G01*
G37*
G36*
G01*
X169588300Y-89080800D02*
X169588300Y-88180800D01*
G75*
G02*
X169914500Y-87854600I326200J0D01*
G01*
X170439500Y-87854600D01*
G75*
G02*
X170765700Y-88180800I0J-326200D01*
G01*
X170765700Y-89080800D01*
G75*
G02*
X170439500Y-89407000I-326200J0D01*
G01*
X169914500Y-89407000D01*
G75*
G02*
X169588300Y-89080800I0J326200D01*
G01*
G37*
G36*
G01*
X167763300Y-48390000D02*
X167763300Y-47490000D01*
G75*
G02*
X168089500Y-47163800I326200J0D01*
G01*
X168614500Y-47163800D01*
G75*
G02*
X168940700Y-47490000I0J-326200D01*
G01*
X168940700Y-48390000D01*
G75*
G02*
X168614500Y-48716200I-326200J0D01*
G01*
X168089500Y-48716200D01*
G75*
G02*
X167763300Y-48390000I0J326200D01*
G01*
G37*
G36*
G01*
X169588300Y-48390000D02*
X169588300Y-47490000D01*
G75*
G02*
X169914500Y-47163800I326200J0D01*
G01*
X170439500Y-47163800D01*
G75*
G02*
X170765700Y-47490000I0J-326200D01*
G01*
X170765700Y-48390000D01*
G75*
G02*
X170439500Y-48716200I-326200J0D01*
G01*
X169914500Y-48716200D01*
G75*
G02*
X169588300Y-48390000I0J326200D01*
G01*
G37*
G36*
G01*
X120285500Y-212092400D02*
X122485500Y-212092400D01*
G75*
G02*
X122561700Y-212168600I0J-76200D01*
G01*
X122561700Y-214368600D01*
G75*
G02*
X122485500Y-214444800I-76200J0D01*
G01*
X120285500Y-214444800D01*
G75*
G02*
X120209300Y-214368600I0J76200D01*
G01*
X120209300Y-212168600D01*
G75*
G02*
X120285500Y-212092400I76200J0D01*
G01*
G37*
D12*
X121385500Y-215808600D03*
X121385500Y-218348600D03*
X121385500Y-220888600D03*
X121385500Y-223428600D03*
X121385500Y-225968600D03*
X121385500Y-228508600D03*
X121385500Y-231048600D03*
D10*
X115162500Y-221735266D03*
X115190041Y-80173336D03*
G36*
G01*
X120285500Y-130710800D02*
X122485500Y-130710800D01*
G75*
G02*
X122561700Y-130787000I0J-76200D01*
G01*
X122561700Y-132987000D01*
G75*
G02*
X122485500Y-133063200I-76200J0D01*
G01*
X120285500Y-133063200D01*
G75*
G02*
X120209300Y-132987000I0J76200D01*
G01*
X120209300Y-130787000D01*
G75*
G02*
X120285500Y-130710800I76200J0D01*
G01*
G37*
D12*
X121385500Y-134427000D03*
X121385500Y-136967000D03*
X121385500Y-139507000D03*
X121385500Y-142047000D03*
X121385500Y-144587000D03*
X121385500Y-147127000D03*
X121385500Y-149667000D03*
G36*
G01*
X167763300Y-127231600D02*
X167763300Y-126331600D01*
G75*
G02*
X168089500Y-126005400I326200J0D01*
G01*
X168614500Y-126005400D01*
G75*
G02*
X168940700Y-126331600I0J-326200D01*
G01*
X168940700Y-127231600D01*
G75*
G02*
X168614500Y-127557800I-326200J0D01*
G01*
X168089500Y-127557800D01*
G75*
G02*
X167763300Y-127231600I0J326200D01*
G01*
G37*
G36*
G01*
X169588300Y-127231600D02*
X169588300Y-126331600D01*
G75*
G02*
X169914500Y-126005400I326200J0D01*
G01*
X170439500Y-126005400D01*
G75*
G02*
X170765700Y-126331600I0J-326200D01*
G01*
X170765700Y-127231600D01*
G75*
G02*
X170439500Y-127557800I-326200J0D01*
G01*
X169914500Y-127557800D01*
G75*
G02*
X169588300Y-127231600I0J326200D01*
G01*
G37*
D10*
X115162500Y-139507000D03*
X181837500Y-159852400D03*
X181837500Y-121701600D03*
X115162500Y-140353666D03*
G36*
G01*
X167763300Y-43310000D02*
X167763300Y-42410000D01*
G75*
G02*
X168089500Y-42083800I326200J0D01*
G01*
X168614500Y-42083800D01*
G75*
G02*
X168940700Y-42410000I0J-326200D01*
G01*
X168940700Y-43310000D01*
G75*
G02*
X168614500Y-43636200I-326200J0D01*
G01*
X168089500Y-43636200D01*
G75*
G02*
X167763300Y-43310000I0J326200D01*
G01*
G37*
G36*
G01*
X169588300Y-43310000D02*
X169588300Y-42410000D01*
G75*
G02*
X169914500Y-42083800I326200J0D01*
G01*
X170439500Y-42083800D01*
G75*
G02*
X170765700Y-42410000I0J-326200D01*
G01*
X170765700Y-43310000D01*
G75*
G02*
X170439500Y-43636200I-326200J0D01*
G01*
X169914500Y-43636200D01*
G75*
G02*
X169588300Y-43310000I0J326200D01*
G01*
G37*
G36*
G01*
X163093250Y-98585000D02*
X164005750Y-98585000D01*
G75*
G02*
X164325700Y-98904950I0J-319950D01*
G01*
X164325700Y-99392450D01*
G75*
G02*
X164005750Y-99712400I-319950J0D01*
G01*
X163093250Y-99712400D01*
G75*
G02*
X162773300Y-99392450I0J319950D01*
G01*
X162773300Y-98904950D01*
G75*
G02*
X163093250Y-98585000I319950J0D01*
G01*
G37*
G36*
G01*
X163093250Y-100460000D02*
X164005750Y-100460000D01*
G75*
G02*
X164325700Y-100779950I0J-319950D01*
G01*
X164325700Y-101267450D01*
G75*
G02*
X164005750Y-101587400I-319950J0D01*
G01*
X163093250Y-101587400D01*
G75*
G02*
X162773300Y-101267450I0J319950D01*
G01*
X162773300Y-100779950D01*
G75*
G02*
X163093250Y-100460000I319950J0D01*
G01*
G37*
G36*
G01*
X129236700Y-103446200D02*
X129236700Y-104346200D01*
G75*
G02*
X128910500Y-104672400I-326200J0D01*
G01*
X128385500Y-104672400D01*
G75*
G02*
X128059300Y-104346200I0J326200D01*
G01*
X128059300Y-103446200D01*
G75*
G02*
X128385500Y-103120000I326200J0D01*
G01*
X128910500Y-103120000D01*
G75*
G02*
X129236700Y-103446200I0J-326200D01*
G01*
G37*
G36*
G01*
X127411700Y-103446200D02*
X127411700Y-104346200D01*
G75*
G02*
X127085500Y-104672400I-326200J0D01*
G01*
X126560500Y-104672400D01*
G75*
G02*
X126234300Y-104346200I0J326200D01*
G01*
X126234300Y-103446200D01*
G75*
G02*
X126560500Y-103120000I326200J0D01*
G01*
X127085500Y-103120000D01*
G75*
G02*
X127411700Y-103446200I0J-326200D01*
G01*
G37*
G36*
G01*
X176714500Y-211879400D02*
X174514500Y-211879400D01*
G75*
G02*
X174438300Y-211803200I0J76200D01*
G01*
X174438300Y-209603200D01*
G75*
G02*
X174514500Y-209527000I76200J0D01*
G01*
X176714500Y-209527000D01*
G75*
G02*
X176790700Y-209603200I0J-76200D01*
G01*
X176790700Y-211803200D01*
G75*
G02*
X176714500Y-211879400I-76200J0D01*
G01*
G37*
D12*
X175614500Y-208163200D03*
X175614500Y-205623200D03*
X175614500Y-203083200D03*
X175614500Y-200543200D03*
X175614500Y-198003200D03*
X175614500Y-195463200D03*
X175614500Y-192923200D03*
G36*
G01*
X167763300Y-86540800D02*
X167763300Y-85640800D01*
G75*
G02*
X168089500Y-85314600I326200J0D01*
G01*
X168614500Y-85314600D01*
G75*
G02*
X168940700Y-85640800I0J-326200D01*
G01*
X168940700Y-86540800D01*
G75*
G02*
X168614500Y-86867000I-326200J0D01*
G01*
X168089500Y-86867000D01*
G75*
G02*
X167763300Y-86540800I0J326200D01*
G01*
G37*
G36*
G01*
X169588300Y-86540800D02*
X169588300Y-85640800D01*
G75*
G02*
X169914500Y-85314600I326200J0D01*
G01*
X170439500Y-85314600D01*
G75*
G02*
X170765700Y-85640800I0J-326200D01*
G01*
X170765700Y-86540800D01*
G75*
G02*
X170439500Y-86867000I-326200J0D01*
G01*
X169914500Y-86867000D01*
G75*
G02*
X169588300Y-86540800I0J326200D01*
G01*
G37*
D10*
X181809959Y-58962863D03*
G36*
G01*
X167763300Y-165382400D02*
X167763300Y-164482400D01*
G75*
G02*
X168089500Y-164156200I326200J0D01*
G01*
X168614500Y-164156200D01*
G75*
G02*
X168940700Y-164482400I0J-326200D01*
G01*
X168940700Y-165382400D01*
G75*
G02*
X168614500Y-165708600I-326200J0D01*
G01*
X168089500Y-165708600D01*
G75*
G02*
X167763300Y-165382400I0J326200D01*
G01*
G37*
G36*
G01*
X169588300Y-165382400D02*
X169588300Y-164482400D01*
G75*
G02*
X169914500Y-164156200I326200J0D01*
G01*
X170439500Y-164156200D01*
G75*
G02*
X170765700Y-164482400I0J-326200D01*
G01*
X170765700Y-165382400D01*
G75*
G02*
X170439500Y-165708600I-326200J0D01*
G01*
X169914500Y-165708600D01*
G75*
G02*
X169588300Y-165382400I0J326200D01*
G01*
G37*
G36*
G01*
X138986750Y-203314400D02*
X138074250Y-203314400D01*
G75*
G02*
X137754300Y-202994450I0J319950D01*
G01*
X137754300Y-202506950D01*
G75*
G02*
X138074250Y-202187000I319950J0D01*
G01*
X138986750Y-202187000D01*
G75*
G02*
X139306700Y-202506950I0J-319950D01*
G01*
X139306700Y-202994450D01*
G75*
G02*
X138986750Y-203314400I-319950J0D01*
G01*
G37*
G36*
G01*
X138986750Y-201439400D02*
X138074250Y-201439400D01*
G75*
G02*
X137754300Y-201119450I0J319950D01*
G01*
X137754300Y-200631950D01*
G75*
G02*
X138074250Y-200312000I319950J0D01*
G01*
X138986750Y-200312000D01*
G75*
G02*
X139306700Y-200631950I0J-319950D01*
G01*
X139306700Y-201119450D01*
G75*
G02*
X138986750Y-201439400I-319950J0D01*
G01*
G37*
X115406804Y-159852400D03*
G36*
G01*
X129236700Y-52595400D02*
X129236700Y-53495400D01*
G75*
G02*
X128910500Y-53821600I-326200J0D01*
G01*
X128385500Y-53821600D01*
G75*
G02*
X128059300Y-53495400I0J326200D01*
G01*
X128059300Y-52595400D01*
G75*
G02*
X128385500Y-52269200I326200J0D01*
G01*
X128910500Y-52269200D01*
G75*
G02*
X129236700Y-52595400I0J-326200D01*
G01*
G37*
G36*
G01*
X127411700Y-52595400D02*
X127411700Y-53495400D01*
G75*
G02*
X127085500Y-53821600I-326200J0D01*
G01*
X126560500Y-53821600D01*
G75*
G02*
X126234300Y-53495400I0J326200D01*
G01*
X126234300Y-52595400D01*
G75*
G02*
X126560500Y-52269200I326200J0D01*
G01*
X127085500Y-52269200D01*
G75*
G02*
X127411700Y-52595400I0J-326200D01*
G01*
G37*
G36*
G01*
X129236700Y-93286200D02*
X129236700Y-94186200D01*
G75*
G02*
X128910500Y-94512400I-326200J0D01*
G01*
X128385500Y-94512400D01*
G75*
G02*
X128059300Y-94186200I0J326200D01*
G01*
X128059300Y-93286200D01*
G75*
G02*
X128385500Y-92960000I326200J0D01*
G01*
X128910500Y-92960000D01*
G75*
G02*
X129236700Y-93286200I0J-326200D01*
G01*
G37*
G36*
G01*
X127411700Y-93286200D02*
X127411700Y-94186200D01*
G75*
G02*
X127085500Y-94512400I-326200J0D01*
G01*
X126560500Y-94512400D01*
G75*
G02*
X126234300Y-94186200I0J326200D01*
G01*
X126234300Y-93286200D01*
G75*
G02*
X126560500Y-92960000I326200J0D01*
G01*
X127085500Y-92960000D01*
G75*
G02*
X127411700Y-93286200I0J-326200D01*
G01*
G37*
G36*
G01*
X167763300Y-111991600D02*
X167763300Y-111091600D01*
G75*
G02*
X168089500Y-110765400I326200J0D01*
G01*
X168614500Y-110765400D01*
G75*
G02*
X168940700Y-111091600I0J-326200D01*
G01*
X168940700Y-111991600D01*
G75*
G02*
X168614500Y-112317800I-326200J0D01*
G01*
X168089500Y-112317800D01*
G75*
G02*
X167763300Y-111991600I0J326200D01*
G01*
G37*
G36*
G01*
X169588300Y-111991600D02*
X169588300Y-111091600D01*
G75*
G02*
X169914500Y-110765400I326200J0D01*
G01*
X170439500Y-110765400D01*
G75*
G02*
X170765700Y-111091600I0J-326200D01*
G01*
X170765700Y-111991600D01*
G75*
G02*
X170439500Y-112317800I-326200J0D01*
G01*
X169914500Y-112317800D01*
G75*
G02*
X169588300Y-111991600I0J326200D01*
G01*
G37*
X115162500Y-181891133D03*
G36*
G01*
X158013250Y-220657400D02*
X158925750Y-220657400D01*
G75*
G02*
X159245700Y-220977350I0J-319950D01*
G01*
X159245700Y-221464850D01*
G75*
G02*
X158925750Y-221784800I-319950J0D01*
G01*
X158013250Y-221784800D01*
G75*
G02*
X157693300Y-221464850I0J319950D01*
G01*
X157693300Y-220977350D01*
G75*
G02*
X158013250Y-220657400I319950J0D01*
G01*
G37*
G36*
G01*
X158013250Y-222532400D02*
X158925750Y-222532400D01*
G75*
G02*
X159245700Y-222852350I0J-319950D01*
G01*
X159245700Y-223339850D01*
G75*
G02*
X158925750Y-223659800I-319950J0D01*
G01*
X158013250Y-223659800D01*
G75*
G02*
X157693300Y-223339850I0J319950D01*
G01*
X157693300Y-222852350D01*
G75*
G02*
X158013250Y-222532400I319950J0D01*
G01*
G37*
D13*
X181837500Y-22540000D03*
G36*
G01*
X138986750Y-162623600D02*
X138074250Y-162623600D01*
G75*
G02*
X137754300Y-162303650I0J319950D01*
G01*
X137754300Y-161816150D01*
G75*
G02*
X138074250Y-161496200I319950J0D01*
G01*
X138986750Y-161496200D01*
G75*
G02*
X139306700Y-161816150I0J-319950D01*
G01*
X139306700Y-162303650D01*
G75*
G02*
X138986750Y-162623600I-319950J0D01*
G01*
G37*
G36*
G01*
X138986750Y-160748600D02*
X138074250Y-160748600D01*
G75*
G02*
X137754300Y-160428650I0J319950D01*
G01*
X137754300Y-159941150D01*
G75*
G02*
X138074250Y-159621200I319950J0D01*
G01*
X138986750Y-159621200D01*
G75*
G02*
X139306700Y-159941150I0J-319950D01*
G01*
X139306700Y-160428650D01*
G75*
G02*
X138986750Y-160748600I-319950J0D01*
G01*
G37*
G36*
G01*
X172872250Y-220657400D02*
X173784750Y-220657400D01*
G75*
G02*
X174104700Y-220977350I0J-319950D01*
G01*
X174104700Y-221464850D01*
G75*
G02*
X173784750Y-221784800I-319950J0D01*
G01*
X172872250Y-221784800D01*
G75*
G02*
X172552300Y-221464850I0J319950D01*
G01*
X172552300Y-220977350D01*
G75*
G02*
X172872250Y-220657400I319950J0D01*
G01*
G37*
G36*
G01*
X172872250Y-222532400D02*
X173784750Y-222532400D01*
G75*
G02*
X174104700Y-222852350I0J-319950D01*
G01*
X174104700Y-223339850D01*
G75*
G02*
X173784750Y-223659800I-319950J0D01*
G01*
X172872250Y-223659800D01*
G75*
G02*
X172552300Y-223339850I0J319950D01*
G01*
X172552300Y-222852350D01*
G75*
G02*
X172872250Y-222532400I319950J0D01*
G01*
G37*
D10*
X115406804Y-162392400D03*
G36*
G01*
X133906750Y-40551200D02*
X132994250Y-40551200D01*
G75*
G02*
X132674300Y-40231250I0J319950D01*
G01*
X132674300Y-39743750D01*
G75*
G02*
X132994250Y-39423800I319950J0D01*
G01*
X133906750Y-39423800D01*
G75*
G02*
X134226700Y-39743750I0J-319950D01*
G01*
X134226700Y-40231250D01*
G75*
G02*
X133906750Y-40551200I-319950J0D01*
G01*
G37*
G36*
G01*
X133906750Y-38676200D02*
X132994250Y-38676200D01*
G75*
G02*
X132674300Y-38356250I0J319950D01*
G01*
X132674300Y-37868750D01*
G75*
G02*
X132994250Y-37548800I319950J0D01*
G01*
X133906750Y-37548800D01*
G75*
G02*
X134226700Y-37868750I0J-319950D01*
G01*
X134226700Y-38356250D01*
G75*
G02*
X133906750Y-38676200I-319950J0D01*
G01*
G37*
X115162500Y-58125400D03*
G36*
G01*
X172872250Y-139275800D02*
X173784750Y-139275800D01*
G75*
G02*
X174104700Y-139595750I0J-319950D01*
G01*
X174104700Y-140083250D01*
G75*
G02*
X173784750Y-140403200I-319950J0D01*
G01*
X172872250Y-140403200D01*
G75*
G02*
X172552300Y-140083250I0J319950D01*
G01*
X172552300Y-139595750D01*
G75*
G02*
X172872250Y-139275800I319950J0D01*
G01*
G37*
G36*
G01*
X172872250Y-141150800D02*
X173784750Y-141150800D01*
G75*
G02*
X174104700Y-141470750I0J-319950D01*
G01*
X174104700Y-141958250D01*
G75*
G02*
X173784750Y-142278200I-319950J0D01*
G01*
X172872250Y-142278200D01*
G75*
G02*
X172552300Y-141958250I0J319950D01*
G01*
X172552300Y-141470750D01*
G75*
G02*
X172872250Y-141150800I319950J0D01*
G01*
G37*
G36*
G01*
X120285500Y-90020000D02*
X122485500Y-90020000D01*
G75*
G02*
X122561700Y-90096200I0J-76200D01*
G01*
X122561700Y-92296200D01*
G75*
G02*
X122485500Y-92372400I-76200J0D01*
G01*
X120285500Y-92372400D01*
G75*
G02*
X120209300Y-92296200I0J76200D01*
G01*
X120209300Y-90096200D01*
G75*
G02*
X120285500Y-90020000I76200J0D01*
G01*
G37*
D12*
X121385500Y-93736200D03*
X121385500Y-96276200D03*
X121385500Y-98816200D03*
X121385500Y-101356200D03*
X121385500Y-103896200D03*
X121385500Y-106436200D03*
X121385500Y-108976200D03*
G36*
G01*
X119047750Y-162623600D02*
X118135250Y-162623600D01*
G75*
G02*
X117815300Y-162303650I0J319950D01*
G01*
X117815300Y-161816150D01*
G75*
G02*
X118135250Y-161496200I319950J0D01*
G01*
X119047750Y-161496200D01*
G75*
G02*
X119367700Y-161816150I0J-319950D01*
G01*
X119367700Y-162303650D01*
G75*
G02*
X119047750Y-162623600I-319950J0D01*
G01*
G37*
G36*
G01*
X119047750Y-160748600D02*
X118135250Y-160748600D01*
G75*
G02*
X117815300Y-160428650I0J319950D01*
G01*
X117815300Y-159941150D01*
G75*
G02*
X118135250Y-159621200I319950J0D01*
G01*
X119047750Y-159621200D01*
G75*
G02*
X119367700Y-159941150I0J-319950D01*
G01*
X119367700Y-160428650D01*
G75*
G02*
X119047750Y-160748600I-319950J0D01*
G01*
G37*
G36*
G01*
X129236700Y-136517000D02*
X129236700Y-137417000D01*
G75*
G02*
X128910500Y-137743200I-326200J0D01*
G01*
X128385500Y-137743200D01*
G75*
G02*
X128059300Y-137417000I0J326200D01*
G01*
X128059300Y-136517000D01*
G75*
G02*
X128385500Y-136190800I326200J0D01*
G01*
X128910500Y-136190800D01*
G75*
G02*
X129236700Y-136517000I0J-326200D01*
G01*
G37*
G36*
G01*
X127411700Y-136517000D02*
X127411700Y-137417000D01*
G75*
G02*
X127085500Y-137743200I-326200J0D01*
G01*
X126560500Y-137743200D01*
G75*
G02*
X126234300Y-137417000I0J326200D01*
G01*
X126234300Y-136517000D01*
G75*
G02*
X126560500Y-136190800I326200J0D01*
G01*
X127085500Y-136190800D01*
G75*
G02*
X127411700Y-136517000I0J-326200D01*
G01*
G37*
D10*
X181837500Y-160699066D03*
G36*
G01*
X167763300Y-84000800D02*
X167763300Y-83100800D01*
G75*
G02*
X168089500Y-82774600I326200J0D01*
G01*
X168614500Y-82774600D01*
G75*
G02*
X168940700Y-83100800I0J-326200D01*
G01*
X168940700Y-84000800D01*
G75*
G02*
X168614500Y-84327000I-326200J0D01*
G01*
X168089500Y-84327000D01*
G75*
G02*
X167763300Y-84000800I0J326200D01*
G01*
G37*
G36*
G01*
X169588300Y-84000800D02*
X169588300Y-83100800D01*
G75*
G02*
X169914500Y-82774600I326200J0D01*
G01*
X170439500Y-82774600D01*
G75*
G02*
X170765700Y-83100800I0J-326200D01*
G01*
X170765700Y-84000800D01*
G75*
G02*
X170439500Y-84327000I-326200J0D01*
G01*
X169914500Y-84327000D01*
G75*
G02*
X169588300Y-84000800I0J326200D01*
G01*
G37*
G36*
G01*
X177952250Y-139275800D02*
X178864750Y-139275800D01*
G75*
G02*
X179184700Y-139595750I0J-319950D01*
G01*
X179184700Y-140083250D01*
G75*
G02*
X178864750Y-140403200I-319950J0D01*
G01*
X177952250Y-140403200D01*
G75*
G02*
X177632300Y-140083250I0J319950D01*
G01*
X177632300Y-139595750D01*
G75*
G02*
X177952250Y-139275800I319950J0D01*
G01*
G37*
G36*
G01*
X177952250Y-141150800D02*
X178864750Y-141150800D01*
G75*
G02*
X179184700Y-141470750I0J-319950D01*
G01*
X179184700Y-141958250D01*
G75*
G02*
X178864750Y-142278200I-319950J0D01*
G01*
X177952250Y-142278200D01*
G75*
G02*
X177632300Y-141958250I0J319950D01*
G01*
X177632300Y-141470750D01*
G75*
G02*
X177952250Y-141150800I319950J0D01*
G01*
G37*
X115162500Y-182737800D03*
G36*
G01*
X133906750Y-121932800D02*
X132994250Y-121932800D01*
G75*
G02*
X132674300Y-121612850I0J319950D01*
G01*
X132674300Y-121125350D01*
G75*
G02*
X132994250Y-120805400I319950J0D01*
G01*
X133906750Y-120805400D01*
G75*
G02*
X134226700Y-121125350I0J-319950D01*
G01*
X134226700Y-121612850D01*
G75*
G02*
X133906750Y-121932800I-319950J0D01*
G01*
G37*
G36*
G01*
X133906750Y-120057800D02*
X132994250Y-120057800D01*
G75*
G02*
X132674300Y-119737850I0J319950D01*
G01*
X132674300Y-119250350D01*
G75*
G02*
X132994250Y-118930400I319950J0D01*
G01*
X133906750Y-118930400D01*
G75*
G02*
X134226700Y-119250350I0J-319950D01*
G01*
X134226700Y-119737850D01*
G75*
G02*
X133906750Y-120057800I-319950J0D01*
G01*
G37*
G36*
G01*
X160553250Y-139275800D02*
X161465750Y-139275800D01*
G75*
G02*
X161785700Y-139595750I0J-319950D01*
G01*
X161785700Y-140083250D01*
G75*
G02*
X161465750Y-140403200I-319950J0D01*
G01*
X160553250Y-140403200D01*
G75*
G02*
X160233300Y-140083250I0J319950D01*
G01*
X160233300Y-139595750D01*
G75*
G02*
X160553250Y-139275800I319950J0D01*
G01*
G37*
G36*
G01*
X160553250Y-141150800D02*
X161465750Y-141150800D01*
G75*
G02*
X161785700Y-141470750I0J-319950D01*
G01*
X161785700Y-141958250D01*
G75*
G02*
X161465750Y-142278200I-319950J0D01*
G01*
X160553250Y-142278200D01*
G75*
G02*
X160233300Y-141958250I0J319950D01*
G01*
X160233300Y-141470750D01*
G75*
G02*
X160553250Y-141150800I319950J0D01*
G01*
G37*
G36*
G01*
X177952250Y-57894200D02*
X178864750Y-57894200D01*
G75*
G02*
X179184700Y-58214150I0J-319950D01*
G01*
X179184700Y-58701650D01*
G75*
G02*
X178864750Y-59021600I-319950J0D01*
G01*
X177952250Y-59021600D01*
G75*
G02*
X177632300Y-58701650I0J319950D01*
G01*
X177632300Y-58214150D01*
G75*
G02*
X177952250Y-57894200I319950J0D01*
G01*
G37*
G36*
G01*
X177952250Y-59769200D02*
X178864750Y-59769200D01*
G75*
G02*
X179184700Y-60089150I0J-319950D01*
G01*
X179184700Y-60576650D01*
G75*
G02*
X178864750Y-60896600I-319950J0D01*
G01*
X177952250Y-60896600D01*
G75*
G02*
X177632300Y-60576650I0J319950D01*
G01*
X177632300Y-60089150D01*
G75*
G02*
X177952250Y-59769200I319950J0D01*
G01*
G37*
X115190041Y-160689863D03*
G36*
G01*
X163093250Y-220657400D02*
X164005750Y-220657400D01*
G75*
G02*
X164325700Y-220977350I0J-319950D01*
G01*
X164325700Y-221464850D01*
G75*
G02*
X164005750Y-221784800I-319950J0D01*
G01*
X163093250Y-221784800D01*
G75*
G02*
X162773300Y-221464850I0J319950D01*
G01*
X162773300Y-220977350D01*
G75*
G02*
X163093250Y-220657400I319950J0D01*
G01*
G37*
G36*
G01*
X163093250Y-222532400D02*
X164005750Y-222532400D01*
G75*
G02*
X164325700Y-222852350I0J-319950D01*
G01*
X164325700Y-223339850D01*
G75*
G02*
X164005750Y-223659800I-319950J0D01*
G01*
X163093250Y-223659800D01*
G75*
G02*
X162773300Y-223339850I0J319950D01*
G01*
X162773300Y-222852350D01*
G75*
G02*
X163093250Y-222532400I319950J0D01*
G01*
G37*
D11*
X160755500Y-39050000D03*
G36*
G01*
X119047750Y-121932800D02*
X118135250Y-121932800D01*
G75*
G02*
X117815300Y-121612850I0J319950D01*
G01*
X117815300Y-121125350D01*
G75*
G02*
X118135250Y-120805400I319950J0D01*
G01*
X119047750Y-120805400D01*
G75*
G02*
X119367700Y-121125350I0J-319950D01*
G01*
X119367700Y-121612850D01*
G75*
G02*
X119047750Y-121932800I-319950J0D01*
G01*
G37*
G36*
G01*
X119047750Y-120057800D02*
X118135250Y-120057800D01*
G75*
G02*
X117815300Y-119737850I0J319950D01*
G01*
X117815300Y-119250350D01*
G75*
G02*
X118135250Y-118930400I319950J0D01*
G01*
X119047750Y-118930400D01*
G75*
G02*
X119367700Y-119250350I0J-319950D01*
G01*
X119367700Y-119737850D01*
G75*
G02*
X119047750Y-120057800I-319950J0D01*
G01*
G37*
G36*
G01*
X129236700Y-146677000D02*
X129236700Y-147577000D01*
G75*
G02*
X128910500Y-147903200I-326200J0D01*
G01*
X128385500Y-147903200D01*
G75*
G02*
X128059300Y-147577000I0J326200D01*
G01*
X128059300Y-146677000D01*
G75*
G02*
X128385500Y-146350800I326200J0D01*
G01*
X128910500Y-146350800D01*
G75*
G02*
X129236700Y-146677000I0J-326200D01*
G01*
G37*
G36*
G01*
X127411700Y-146677000D02*
X127411700Y-147577000D01*
G75*
G02*
X127085500Y-147903200I-326200J0D01*
G01*
X126560500Y-147903200D01*
G75*
G02*
X126234300Y-147577000I0J326200D01*
G01*
X126234300Y-146677000D01*
G75*
G02*
X126560500Y-146350800I326200J0D01*
G01*
X127085500Y-146350800D01*
G75*
G02*
X127411700Y-146677000I0J-326200D01*
G01*
G37*
G36*
G01*
X136446750Y-81242000D02*
X135534250Y-81242000D01*
G75*
G02*
X135214300Y-80922050I0J319950D01*
G01*
X135214300Y-80434550D01*
G75*
G02*
X135534250Y-80114600I319950J0D01*
G01*
X136446750Y-80114600D01*
G75*
G02*
X136766700Y-80434550I0J-319950D01*
G01*
X136766700Y-80922050D01*
G75*
G02*
X136446750Y-81242000I-319950J0D01*
G01*
G37*
G36*
G01*
X136446750Y-79367000D02*
X135534250Y-79367000D01*
G75*
G02*
X135214300Y-79047050I0J319950D01*
G01*
X135214300Y-78559550D01*
G75*
G02*
X135534250Y-78239600I319950J0D01*
G01*
X136446750Y-78239600D01*
G75*
G02*
X136766700Y-78559550I0J-319950D01*
G01*
X136766700Y-79047050D01*
G75*
G02*
X136446750Y-79367000I-319950J0D01*
G01*
G37*
G36*
G01*
X138986750Y-121932800D02*
X138074250Y-121932800D01*
G75*
G02*
X137754300Y-121612850I0J319950D01*
G01*
X137754300Y-121125350D01*
G75*
G02*
X138074250Y-120805400I319950J0D01*
G01*
X138986750Y-120805400D01*
G75*
G02*
X139306700Y-121125350I0J-319950D01*
G01*
X139306700Y-121612850D01*
G75*
G02*
X138986750Y-121932800I-319950J0D01*
G01*
G37*
G36*
G01*
X138986750Y-120057800D02*
X138074250Y-120057800D01*
G75*
G02*
X137754300Y-119737850I0J319950D01*
G01*
X137754300Y-119250350D01*
G75*
G02*
X138074250Y-118930400I319950J0D01*
G01*
X138986750Y-118930400D01*
G75*
G02*
X139306700Y-119250350I0J-319950D01*
G01*
X139306700Y-119737850D01*
G75*
G02*
X138986750Y-120057800I-319950J0D01*
G01*
G37*
X136244500Y-222158600D03*
D10*
X115406804Y-203083200D03*
X181837500Y-39473333D03*
G36*
G01*
X119047750Y-203314400D02*
X118135250Y-203314400D01*
G75*
G02*
X117815300Y-202994450I0J319950D01*
G01*
X117815300Y-202506950D01*
G75*
G02*
X118135250Y-202187000I319950J0D01*
G01*
X119047750Y-202187000D01*
G75*
G02*
X119367700Y-202506950I0J-319950D01*
G01*
X119367700Y-202994450D01*
G75*
G02*
X119047750Y-203314400I-319950J0D01*
G01*
G37*
G36*
G01*
X119047750Y-201439400D02*
X118135250Y-201439400D01*
G75*
G02*
X117815300Y-201119450I0J319950D01*
G01*
X117815300Y-200631950D01*
G75*
G02*
X118135250Y-200312000I319950J0D01*
G01*
X119047750Y-200312000D01*
G75*
G02*
X119367700Y-200631950I0J-319950D01*
G01*
X119367700Y-201119450D01*
G75*
G02*
X119047750Y-201439400I-319950J0D01*
G01*
G37*
G36*
G01*
X129236700Y-184827800D02*
X129236700Y-185727800D01*
G75*
G02*
X128910500Y-186054000I-326200J0D01*
G01*
X128385500Y-186054000D01*
G75*
G02*
X128059300Y-185727800I0J326200D01*
G01*
X128059300Y-184827800D01*
G75*
G02*
X128385500Y-184501600I326200J0D01*
G01*
X128910500Y-184501600D01*
G75*
G02*
X129236700Y-184827800I0J-326200D01*
G01*
G37*
G36*
G01*
X127411700Y-184827800D02*
X127411700Y-185727800D01*
G75*
G02*
X127085500Y-186054000I-326200J0D01*
G01*
X126560500Y-186054000D01*
G75*
G02*
X126234300Y-185727800I0J326200D01*
G01*
X126234300Y-184827800D01*
G75*
G02*
X126560500Y-184501600I326200J0D01*
G01*
X127085500Y-184501600D01*
G75*
G02*
X127411700Y-184827800I0J-326200D01*
G01*
G37*
D11*
X136244500Y-100086200D03*
D10*
X115162500Y-181044466D03*
G36*
G01*
X167763300Y-76380800D02*
X167763300Y-75480800D01*
G75*
G02*
X168089500Y-75154600I326200J0D01*
G01*
X168614500Y-75154600D01*
G75*
G02*
X168940700Y-75480800I0J-326200D01*
G01*
X168940700Y-76380800D01*
G75*
G02*
X168614500Y-76707000I-326200J0D01*
G01*
X168089500Y-76707000D01*
G75*
G02*
X167763300Y-76380800I0J326200D01*
G01*
G37*
G36*
G01*
X169588300Y-76380800D02*
X169588300Y-75480800D01*
G75*
G02*
X169914500Y-75154600I326200J0D01*
G01*
X170439500Y-75154600D01*
G75*
G02*
X170765700Y-75480800I0J-326200D01*
G01*
X170765700Y-76380800D01*
G75*
G02*
X170439500Y-76707000I-326200J0D01*
G01*
X169914500Y-76707000D01*
G75*
G02*
X169588300Y-76380800I0J326200D01*
G01*
G37*
X180725327Y-224685900D03*
G36*
G01*
X167763300Y-155222400D02*
X167763300Y-154322400D01*
G75*
G02*
X168089500Y-153996200I326200J0D01*
G01*
X168614500Y-153996200D01*
G75*
G02*
X168940700Y-154322400I0J-326200D01*
G01*
X168940700Y-155222400D01*
G75*
G02*
X168614500Y-155548600I-326200J0D01*
G01*
X168089500Y-155548600D01*
G75*
G02*
X167763300Y-155222400I0J326200D01*
G01*
G37*
G36*
G01*
X169588300Y-155222400D02*
X169588300Y-154322400D01*
G75*
G02*
X169914500Y-153996200I326200J0D01*
G01*
X170439500Y-153996200D01*
G75*
G02*
X170765700Y-154322400I0J-326200D01*
G01*
X170765700Y-155222400D01*
G75*
G02*
X170439500Y-155548600I-326200J0D01*
G01*
X169914500Y-155548600D01*
G75*
G02*
X169588300Y-155222400I0J326200D01*
G01*
G37*
D13*
X115162500Y-238668600D03*
G36*
G01*
X129236700Y-149217000D02*
X129236700Y-150117000D01*
G75*
G02*
X128910500Y-150443200I-326200J0D01*
G01*
X128385500Y-150443200D01*
G75*
G02*
X128059300Y-150117000I0J326200D01*
G01*
X128059300Y-149217000D01*
G75*
G02*
X128385500Y-148890800I326200J0D01*
G01*
X128910500Y-148890800D01*
G75*
G02*
X129236700Y-149217000I0J-326200D01*
G01*
G37*
G36*
G01*
X127411700Y-149217000D02*
X127411700Y-150117000D01*
G75*
G02*
X127085500Y-150443200I-326200J0D01*
G01*
X126560500Y-150443200D01*
G75*
G02*
X126234300Y-150117000I0J326200D01*
G01*
X126234300Y-149217000D01*
G75*
G02*
X126560500Y-148890800I326200J0D01*
G01*
X127085500Y-148890800D01*
G75*
G02*
X127411700Y-149217000I0J-326200D01*
G01*
G37*
G36*
G01*
X136446750Y-162623600D02*
X135534250Y-162623600D01*
G75*
G02*
X135214300Y-162303650I0J319950D01*
G01*
X135214300Y-161816150D01*
G75*
G02*
X135534250Y-161496200I319950J0D01*
G01*
X136446750Y-161496200D01*
G75*
G02*
X136766700Y-161816150I0J-319950D01*
G01*
X136766700Y-162303650D01*
G75*
G02*
X136446750Y-162623600I-319950J0D01*
G01*
G37*
G36*
G01*
X136446750Y-160748600D02*
X135534250Y-160748600D01*
G75*
G02*
X135214300Y-160428650I0J319950D01*
G01*
X135214300Y-159941150D01*
G75*
G02*
X135534250Y-159621200I319950J0D01*
G01*
X136446750Y-159621200D01*
G75*
G02*
X136766700Y-159941150I0J-319950D01*
G01*
X136766700Y-160428650D01*
G75*
G02*
X136446750Y-160748600I-319950J0D01*
G01*
G37*
D10*
X115162500Y-222581933D03*
X181809959Y-59827936D03*
X181837500Y-162392400D03*
X181837500Y-120854933D03*
X115162500Y-142047000D03*
G36*
G01*
X124127750Y-121932800D02*
X123215250Y-121932800D01*
G75*
G02*
X122895300Y-121612850I0J319950D01*
G01*
X122895300Y-121125350D01*
G75*
G02*
X123215250Y-120805400I319950J0D01*
G01*
X124127750Y-120805400D01*
G75*
G02*
X124447700Y-121125350I0J-319950D01*
G01*
X124447700Y-121612850D01*
G75*
G02*
X124127750Y-121932800I-319950J0D01*
G01*
G37*
G36*
G01*
X124127750Y-120057800D02*
X123215250Y-120057800D01*
G75*
G02*
X122895300Y-119737850I0J319950D01*
G01*
X122895300Y-119250350D01*
G75*
G02*
X123215250Y-118930400I319950J0D01*
G01*
X124127750Y-118930400D01*
G75*
G02*
X124447700Y-119250350I0J-319950D01*
G01*
X124447700Y-119737850D01*
G75*
G02*
X124127750Y-120057800I-319950J0D01*
G01*
G37*
G36*
G01*
X167763300Y-45850000D02*
X167763300Y-44950000D01*
G75*
G02*
X168089500Y-44623800I326200J0D01*
G01*
X168614500Y-44623800D01*
G75*
G02*
X168940700Y-44950000I0J-326200D01*
G01*
X168940700Y-45850000D01*
G75*
G02*
X168614500Y-46176200I-326200J0D01*
G01*
X168089500Y-46176200D01*
G75*
G02*
X167763300Y-45850000I0J326200D01*
G01*
G37*
G36*
G01*
X169588300Y-45850000D02*
X169588300Y-44950000D01*
G75*
G02*
X169914500Y-44623800I326200J0D01*
G01*
X170439500Y-44623800D01*
G75*
G02*
X170765700Y-44950000I0J-326200D01*
G01*
X170765700Y-45850000D01*
G75*
G02*
X170439500Y-46176200I-326200J0D01*
G01*
X169914500Y-46176200D01*
G75*
G02*
X169588300Y-45850000I0J326200D01*
G01*
G37*
G36*
G01*
X129236700Y-90746200D02*
X129236700Y-91646200D01*
G75*
G02*
X128910500Y-91972400I-326200J0D01*
G01*
X128385500Y-91972400D01*
G75*
G02*
X128059300Y-91646200I0J326200D01*
G01*
X128059300Y-90746200D01*
G75*
G02*
X128385500Y-90420000I326200J0D01*
G01*
X128910500Y-90420000D01*
G75*
G02*
X129236700Y-90746200I0J-326200D01*
G01*
G37*
G36*
G01*
X127411700Y-90746200D02*
X127411700Y-91646200D01*
G75*
G02*
X127085500Y-91972400I-326200J0D01*
G01*
X126560500Y-91972400D01*
G75*
G02*
X126234300Y-91646200I0J326200D01*
G01*
X126234300Y-90746200D01*
G75*
G02*
X126560500Y-90420000I326200J0D01*
G01*
X127085500Y-90420000D01*
G75*
G02*
X127411700Y-90746200I0J-326200D01*
G01*
G37*
X115162500Y-58972066D03*
G36*
G01*
X129236700Y-225518600D02*
X129236700Y-226418600D01*
G75*
G02*
X128910500Y-226744800I-326200J0D01*
G01*
X128385500Y-226744800D01*
G75*
G02*
X128059300Y-226418600I0J326200D01*
G01*
X128059300Y-225518600D01*
G75*
G02*
X128385500Y-225192400I326200J0D01*
G01*
X128910500Y-225192400D01*
G75*
G02*
X129236700Y-225518600I0J-326200D01*
G01*
G37*
G36*
G01*
X127411700Y-225518600D02*
X127411700Y-226418600D01*
G75*
G02*
X127085500Y-226744800I-326200J0D01*
G01*
X126560500Y-226744800D01*
G75*
G02*
X126234300Y-226418600I0J326200D01*
G01*
X126234300Y-225518600D01*
G75*
G02*
X126560500Y-225192400I326200J0D01*
G01*
X127085500Y-225192400D01*
G75*
G02*
X127411700Y-225518600I0J-326200D01*
G01*
G37*
G36*
G01*
X129236700Y-217898600D02*
X129236700Y-218798600D01*
G75*
G02*
X128910500Y-219124800I-326200J0D01*
G01*
X128385500Y-219124800D01*
G75*
G02*
X128059300Y-218798600I0J326200D01*
G01*
X128059300Y-217898600D01*
G75*
G02*
X128385500Y-217572400I326200J0D01*
G01*
X128910500Y-217572400D01*
G75*
G02*
X129236700Y-217898600I0J-326200D01*
G01*
G37*
G36*
G01*
X127411700Y-217898600D02*
X127411700Y-218798600D01*
G75*
G02*
X127085500Y-219124800I-326200J0D01*
G01*
X126560500Y-219124800D01*
G75*
G02*
X126234300Y-218798600I0J326200D01*
G01*
X126234300Y-217898600D01*
G75*
G02*
X126560500Y-217572400I326200J0D01*
G01*
X127085500Y-217572400D01*
G75*
G02*
X127411700Y-217898600I0J-326200D01*
G01*
G37*
G36*
G01*
X138986750Y-81242000D02*
X138074250Y-81242000D01*
G75*
G02*
X137754300Y-80922050I0J319950D01*
G01*
X137754300Y-80434550D01*
G75*
G02*
X138074250Y-80114600I319950J0D01*
G01*
X138986750Y-80114600D01*
G75*
G02*
X139306700Y-80434550I0J-319950D01*
G01*
X139306700Y-80922050D01*
G75*
G02*
X138986750Y-81242000I-319950J0D01*
G01*
G37*
G36*
G01*
X138986750Y-79367000D02*
X138074250Y-79367000D01*
G75*
G02*
X137754300Y-79047050I0J319950D01*
G01*
X137754300Y-78559550D01*
G75*
G02*
X138074250Y-78239600I319950J0D01*
G01*
X138986750Y-78239600D01*
G75*
G02*
X139306700Y-78559550I0J-319950D01*
G01*
X139306700Y-79047050D01*
G75*
G02*
X138986750Y-79367000I-319950J0D01*
G01*
G37*
G36*
G01*
X167763300Y-167922400D02*
X167763300Y-167022400D01*
G75*
G02*
X168089500Y-166696200I326200J0D01*
G01*
X168614500Y-166696200D01*
G75*
G02*
X168940700Y-167022400I0J-326200D01*
G01*
X168940700Y-167922400D01*
G75*
G02*
X168614500Y-168248600I-326200J0D01*
G01*
X168089500Y-168248600D01*
G75*
G02*
X167763300Y-167922400I0J326200D01*
G01*
G37*
G36*
G01*
X169588300Y-167922400D02*
X169588300Y-167022400D01*
G75*
G02*
X169914500Y-166696200I326200J0D01*
G01*
X170439500Y-166696200D01*
G75*
G02*
X170765700Y-167022400I0J-326200D01*
G01*
X170765700Y-167922400D01*
G75*
G02*
X170439500Y-168248600I-326200J0D01*
G01*
X169914500Y-168248600D01*
G75*
G02*
X169588300Y-167922400I0J326200D01*
G01*
G37*
G36*
G01*
X175412250Y-139275800D02*
X176324750Y-139275800D01*
G75*
G02*
X176644700Y-139595750I0J-319950D01*
G01*
X176644700Y-140083250D01*
G75*
G02*
X176324750Y-140403200I-319950J0D01*
G01*
X175412250Y-140403200D01*
G75*
G02*
X175092300Y-140083250I0J319950D01*
G01*
X175092300Y-139595750D01*
G75*
G02*
X175412250Y-139275800I319950J0D01*
G01*
G37*
G36*
G01*
X175412250Y-141150800D02*
X176324750Y-141150800D01*
G75*
G02*
X176644700Y-141470750I0J-319950D01*
G01*
X176644700Y-141958250D01*
G75*
G02*
X176324750Y-142278200I-319950J0D01*
G01*
X175412250Y-142278200D01*
G75*
G02*
X175092300Y-141958250I0J319950D01*
G01*
X175092300Y-141470750D01*
G75*
G02*
X175412250Y-141150800I319950J0D01*
G01*
G37*
G36*
G01*
X129236700Y-50055400D02*
X129236700Y-50955400D01*
G75*
G02*
X128910500Y-51281600I-326200J0D01*
G01*
X128385500Y-51281600D01*
G75*
G02*
X128059300Y-50955400I0J326200D01*
G01*
X128059300Y-50055400D01*
G75*
G02*
X128385500Y-49729200I326200J0D01*
G01*
X128910500Y-49729200D01*
G75*
G02*
X129236700Y-50055400I0J-326200D01*
G01*
G37*
G36*
G01*
X127411700Y-50055400D02*
X127411700Y-50955400D01*
G75*
G02*
X127085500Y-51281600I-326200J0D01*
G01*
X126560500Y-51281600D01*
G75*
G02*
X126234300Y-50955400I0J326200D01*
G01*
X126234300Y-50055400D01*
G75*
G02*
X126560500Y-49729200I326200J0D01*
G01*
X127085500Y-49729200D01*
G75*
G02*
X127411700Y-50055400I0J-326200D01*
G01*
G37*
G36*
G01*
X129236700Y-144137000D02*
X129236700Y-145037000D01*
G75*
G02*
X128910500Y-145363200I-326200J0D01*
G01*
X128385500Y-145363200D01*
G75*
G02*
X128059300Y-145037000I0J326200D01*
G01*
X128059300Y-144137000D01*
G75*
G02*
X128385500Y-143810800I326200J0D01*
G01*
X128910500Y-143810800D01*
G75*
G02*
X129236700Y-144137000I0J-326200D01*
G01*
G37*
G36*
G01*
X127411700Y-144137000D02*
X127411700Y-145037000D01*
G75*
G02*
X127085500Y-145363200I-326200J0D01*
G01*
X126560500Y-145363200D01*
G75*
G02*
X126234300Y-145037000I0J326200D01*
G01*
X126234300Y-144137000D01*
G75*
G02*
X126560500Y-143810800I326200J0D01*
G01*
X127085500Y-143810800D01*
G75*
G02*
X127411700Y-144137000I0J-326200D01*
G01*
G37*
X181809959Y-141209536D03*
X115671439Y-37254432D03*
G36*
G01*
X129236700Y-177207800D02*
X129236700Y-178107800D01*
G75*
G02*
X128910500Y-178434000I-326200J0D01*
G01*
X128385500Y-178434000D01*
G75*
G02*
X128059300Y-178107800I0J326200D01*
G01*
X128059300Y-177207800D01*
G75*
G02*
X128385500Y-176881600I326200J0D01*
G01*
X128910500Y-176881600D01*
G75*
G02*
X129236700Y-177207800I0J-326200D01*
G01*
G37*
G36*
G01*
X127411700Y-177207800D02*
X127411700Y-178107800D01*
G75*
G02*
X127085500Y-178434000I-326200J0D01*
G01*
X126560500Y-178434000D01*
G75*
G02*
X126234300Y-178107800I0J326200D01*
G01*
X126234300Y-177207800D01*
G75*
G02*
X126560500Y-176881600I326200J0D01*
G01*
X127085500Y-176881600D01*
G75*
G02*
X127411700Y-177207800I0J-326200D01*
G01*
G37*
X115290270Y-38122830D03*
G36*
G01*
X124127750Y-81242000D02*
X123215250Y-81242000D01*
G75*
G02*
X122895300Y-80922050I0J319950D01*
G01*
X122895300Y-80434550D01*
G75*
G02*
X123215250Y-80114600I319950J0D01*
G01*
X124127750Y-80114600D01*
G75*
G02*
X124447700Y-80434550I0J-319950D01*
G01*
X124447700Y-80922050D01*
G75*
G02*
X124127750Y-81242000I-319950J0D01*
G01*
G37*
G36*
G01*
X124127750Y-79367000D02*
X123215250Y-79367000D01*
G75*
G02*
X122895300Y-79047050I0J319950D01*
G01*
X122895300Y-78559550D01*
G75*
G02*
X123215250Y-78239600I319950J0D01*
G01*
X124127750Y-78239600D01*
G75*
G02*
X124447700Y-78559550I0J-319950D01*
G01*
X124447700Y-79047050D01*
G75*
G02*
X124127750Y-79367000I-319950J0D01*
G01*
G37*
X181837500Y-80164133D03*
G36*
G01*
X129236700Y-187367800D02*
X129236700Y-188267800D01*
G75*
G02*
X128910500Y-188594000I-326200J0D01*
G01*
X128385500Y-188594000D01*
G75*
G02*
X128059300Y-188267800I0J326200D01*
G01*
X128059300Y-187367800D01*
G75*
G02*
X128385500Y-187041600I326200J0D01*
G01*
X128910500Y-187041600D01*
G75*
G02*
X129236700Y-187367800I0J-326200D01*
G01*
G37*
G36*
G01*
X127411700Y-187367800D02*
X127411700Y-188267800D01*
G75*
G02*
X127085500Y-188594000I-326200J0D01*
G01*
X126560500Y-188594000D01*
G75*
G02*
X126234300Y-188267800I0J326200D01*
G01*
X126234300Y-187367800D01*
G75*
G02*
X126560500Y-187041600I326200J0D01*
G01*
X127085500Y-187041600D01*
G75*
G02*
X127411700Y-187367800I0J-326200D01*
G01*
G37*
G36*
G01*
X175412250Y-220657400D02*
X176324750Y-220657400D01*
G75*
G02*
X176644700Y-220977350I0J-319950D01*
G01*
X176644700Y-221464850D01*
G75*
G02*
X176324750Y-221784800I-319950J0D01*
G01*
X175412250Y-221784800D01*
G75*
G02*
X175092300Y-221464850I0J319950D01*
G01*
X175092300Y-220977350D01*
G75*
G02*
X175412250Y-220657400I319950J0D01*
G01*
G37*
G36*
G01*
X175412250Y-222532400D02*
X176324750Y-222532400D01*
G75*
G02*
X176644700Y-222852350I0J-319950D01*
G01*
X176644700Y-223339850D01*
G75*
G02*
X176324750Y-223659800I-319950J0D01*
G01*
X175412250Y-223659800D01*
G75*
G02*
X175092300Y-223339850I0J319950D01*
G01*
X175092300Y-222852350D01*
G75*
G02*
X175412250Y-222532400I319950J0D01*
G01*
G37*
G36*
G01*
X121587750Y-162623600D02*
X120675250Y-162623600D01*
G75*
G02*
X120355300Y-162303650I0J319950D01*
G01*
X120355300Y-161816150D01*
G75*
G02*
X120675250Y-161496200I319950J0D01*
G01*
X121587750Y-161496200D01*
G75*
G02*
X121907700Y-161816150I0J-319950D01*
G01*
X121907700Y-162303650D01*
G75*
G02*
X121587750Y-162623600I-319950J0D01*
G01*
G37*
G36*
G01*
X121587750Y-160748600D02*
X120675250Y-160748600D01*
G75*
G02*
X120355300Y-160428650I0J319950D01*
G01*
X120355300Y-159941150D01*
G75*
G02*
X120675250Y-159621200I319950J0D01*
G01*
X121587750Y-159621200D01*
G75*
G02*
X121907700Y-159941150I0J-319950D01*
G01*
X121907700Y-160428650D01*
G75*
G02*
X121587750Y-160748600I-319950J0D01*
G01*
G37*
G36*
G01*
X129236700Y-62755400D02*
X129236700Y-63655400D01*
G75*
G02*
X128910500Y-63981600I-326200J0D01*
G01*
X128385500Y-63981600D01*
G75*
G02*
X128059300Y-63655400I0J326200D01*
G01*
X128059300Y-62755400D01*
G75*
G02*
X128385500Y-62429200I326200J0D01*
G01*
X128910500Y-62429200D01*
G75*
G02*
X129236700Y-62755400I0J-326200D01*
G01*
G37*
G36*
G01*
X127411700Y-62755400D02*
X127411700Y-63655400D01*
G75*
G02*
X127085500Y-63981600I-326200J0D01*
G01*
X126560500Y-63981600D01*
G75*
G02*
X126234300Y-63655400I0J326200D01*
G01*
X126234300Y-62755400D01*
G75*
G02*
X126560500Y-62429200I326200J0D01*
G01*
X127085500Y-62429200D01*
G75*
G02*
X127411700Y-62755400I0J-326200D01*
G01*
G37*
D13*
X115162500Y-22540000D03*
G36*
G01*
X167763300Y-193373200D02*
X167763300Y-192473200D01*
G75*
G02*
X168089500Y-192147000I326200J0D01*
G01*
X168614500Y-192147000D01*
G75*
G02*
X168940700Y-192473200I0J-326200D01*
G01*
X168940700Y-193373200D01*
G75*
G02*
X168614500Y-193699400I-326200J0D01*
G01*
X168089500Y-193699400D01*
G75*
G02*
X167763300Y-193373200I0J326200D01*
G01*
G37*
G36*
G01*
X169588300Y-193373200D02*
X169588300Y-192473200D01*
G75*
G02*
X169914500Y-192147000I326200J0D01*
G01*
X170439500Y-192147000D01*
G75*
G02*
X170765700Y-192473200I0J-326200D01*
G01*
X170765700Y-193373200D01*
G75*
G02*
X170439500Y-193699400I-326200J0D01*
G01*
X169914500Y-193699400D01*
G75*
G02*
X169588300Y-193373200I0J326200D01*
G01*
G37*
D10*
X115190041Y-161554936D03*
X181837500Y-203083200D03*
G36*
G01*
X167763300Y-114531600D02*
X167763300Y-113631600D01*
G75*
G02*
X168089500Y-113305400I326200J0D01*
G01*
X168614500Y-113305400D01*
G75*
G02*
X168940700Y-113631600I0J-326200D01*
G01*
X168940700Y-114531600D01*
G75*
G02*
X168614500Y-114857800I-326200J0D01*
G01*
X168089500Y-114857800D01*
G75*
G02*
X167763300Y-114531600I0J326200D01*
G01*
G37*
G36*
G01*
X169588300Y-114531600D02*
X169588300Y-113631600D01*
G75*
G02*
X169914500Y-113305400I326200J0D01*
G01*
X170439500Y-113305400D01*
G75*
G02*
X170765700Y-113631600I0J-326200D01*
G01*
X170765700Y-114531600D01*
G75*
G02*
X170439500Y-114857800I-326200J0D01*
G01*
X169914500Y-114857800D01*
G75*
G02*
X169588300Y-114531600I0J326200D01*
G01*
G37*
G36*
G01*
X136446750Y-203314400D02*
X135534250Y-203314400D01*
G75*
G02*
X135214300Y-202994450I0J319950D01*
G01*
X135214300Y-202506950D01*
G75*
G02*
X135534250Y-202187000I319950J0D01*
G01*
X136446750Y-202187000D01*
G75*
G02*
X136766700Y-202506950I0J-319950D01*
G01*
X136766700Y-202994450D01*
G75*
G02*
X136446750Y-203314400I-319950J0D01*
G01*
G37*
G36*
G01*
X136446750Y-201439400D02*
X135534250Y-201439400D01*
G75*
G02*
X135214300Y-201119450I0J319950D01*
G01*
X135214300Y-200631950D01*
G75*
G02*
X135534250Y-200312000I319950J0D01*
G01*
X136446750Y-200312000D01*
G75*
G02*
X136766700Y-200631950I0J-319950D01*
G01*
X136766700Y-201119450D01*
G75*
G02*
X136446750Y-201439400I-319950J0D01*
G01*
G37*
X115190041Y-120864136D03*
X115162500Y-101356200D03*
X181837500Y-200543200D03*
G36*
G01*
X167763300Y-35690000D02*
X167763300Y-34790000D01*
G75*
G02*
X168089500Y-34463800I326200J0D01*
G01*
X168614500Y-34463800D01*
G75*
G02*
X168940700Y-34790000I0J-326200D01*
G01*
X168940700Y-35690000D01*
G75*
G02*
X168614500Y-36016200I-326200J0D01*
G01*
X168089500Y-36016200D01*
G75*
G02*
X167763300Y-35690000I0J326200D01*
G01*
G37*
G36*
G01*
X169588300Y-35690000D02*
X169588300Y-34790000D01*
G75*
G02*
X169914500Y-34463800I326200J0D01*
G01*
X170439500Y-34463800D01*
G75*
G02*
X170765700Y-34790000I0J-326200D01*
G01*
X170765700Y-35690000D01*
G75*
G02*
X170439500Y-36016200I-326200J0D01*
G01*
X169914500Y-36016200D01*
G75*
G02*
X169588300Y-35690000I0J326200D01*
G01*
G37*
G36*
G01*
X119047750Y-81242000D02*
X118135250Y-81242000D01*
G75*
G02*
X117815300Y-80922050I0J319950D01*
G01*
X117815300Y-80434550D01*
G75*
G02*
X118135250Y-80114600I319950J0D01*
G01*
X119047750Y-80114600D01*
G75*
G02*
X119367700Y-80434550I0J-319950D01*
G01*
X119367700Y-80922050D01*
G75*
G02*
X119047750Y-81242000I-319950J0D01*
G01*
G37*
G36*
G01*
X119047750Y-79367000D02*
X118135250Y-79367000D01*
G75*
G02*
X117815300Y-79047050I0J319950D01*
G01*
X117815300Y-78559550D01*
G75*
G02*
X118135250Y-78239600I319950J0D01*
G01*
X119047750Y-78239600D01*
G75*
G02*
X119367700Y-78559550I0J-319950D01*
G01*
X119367700Y-79047050D01*
G75*
G02*
X119047750Y-79367000I-319950J0D01*
G01*
G37*
X115406804Y-121701600D03*
X181593196Y-58125400D03*
G36*
G01*
X129236700Y-172127800D02*
X129236700Y-173027800D01*
G75*
G02*
X128910500Y-173354000I-326200J0D01*
G01*
X128385500Y-173354000D01*
G75*
G02*
X128059300Y-173027800I0J326200D01*
G01*
X128059300Y-172127800D01*
G75*
G02*
X128385500Y-171801600I326200J0D01*
G01*
X128910500Y-171801600D01*
G75*
G02*
X129236700Y-172127800I0J-326200D01*
G01*
G37*
G36*
G01*
X127411700Y-172127800D02*
X127411700Y-173027800D01*
G75*
G02*
X127085500Y-173354000I-326200J0D01*
G01*
X126560500Y-173354000D01*
G75*
G02*
X126234300Y-173027800I0J326200D01*
G01*
X126234300Y-172127800D01*
G75*
G02*
X126560500Y-171801600I326200J0D01*
G01*
X127085500Y-171801600D01*
G75*
G02*
X127411700Y-172127800I0J-326200D01*
G01*
G37*
X181837500Y-38626667D03*
G36*
G01*
X121587750Y-203314400D02*
X120675250Y-203314400D01*
G75*
G02*
X120355300Y-202994450I0J319950D01*
G01*
X120355300Y-202506950D01*
G75*
G02*
X120675250Y-202187000I319950J0D01*
G01*
X121587750Y-202187000D01*
G75*
G02*
X121907700Y-202506950I0J-319950D01*
G01*
X121907700Y-202994450D01*
G75*
G02*
X121587750Y-203314400I-319950J0D01*
G01*
G37*
G36*
G01*
X121587750Y-201439400D02*
X120675250Y-201439400D01*
G75*
G02*
X120355300Y-201119450I0J319950D01*
G01*
X120355300Y-200631950D01*
G75*
G02*
X120675250Y-200312000I319950J0D01*
G01*
X121587750Y-200312000D01*
G75*
G02*
X121907700Y-200631950I0J-319950D01*
G01*
X121907700Y-201119450D01*
G75*
G02*
X121587750Y-201439400I-319950J0D01*
G01*
G37*
X181809959Y-140344463D03*
G36*
G01*
X138986750Y-40551200D02*
X138074250Y-40551200D01*
G75*
G02*
X137754300Y-40231250I0J319950D01*
G01*
X137754300Y-39743750D01*
G75*
G02*
X138074250Y-39423800I319950J0D01*
G01*
X138986750Y-39423800D01*
G75*
G02*
X139306700Y-39743750I0J-319950D01*
G01*
X139306700Y-40231250D01*
G75*
G02*
X138986750Y-40551200I-319950J0D01*
G01*
G37*
G36*
G01*
X138986750Y-38676200D02*
X138074250Y-38676200D01*
G75*
G02*
X137754300Y-38356250I0J319950D01*
G01*
X137754300Y-37868750D01*
G75*
G02*
X138074250Y-37548800I319950J0D01*
G01*
X138986750Y-37548800D01*
G75*
G02*
X139306700Y-37868750I0J-319950D01*
G01*
X139306700Y-38356250D01*
G75*
G02*
X138986750Y-38676200I-319950J0D01*
G01*
G37*
G36*
G01*
X176714500Y-49116200D02*
X174514500Y-49116200D01*
G75*
G02*
X174438300Y-49040000I0J76200D01*
G01*
X174438300Y-46840000D01*
G75*
G02*
X174514500Y-46763800I76200J0D01*
G01*
X176714500Y-46763800D01*
G75*
G02*
X176790700Y-46840000I0J-76200D01*
G01*
X176790700Y-49040000D01*
G75*
G02*
X176714500Y-49116200I-76200J0D01*
G01*
G37*
D12*
X175614500Y-45400000D03*
X175614500Y-42860000D03*
X175614500Y-40320000D03*
X175614500Y-37780000D03*
X175614500Y-35240000D03*
X175614500Y-32700000D03*
X175614500Y-30160000D03*
D10*
X115406804Y-200543200D03*
G36*
G01*
X129236700Y-95826200D02*
X129236700Y-96726200D01*
G75*
G02*
X128910500Y-97052400I-326200J0D01*
G01*
X128385500Y-97052400D01*
G75*
G02*
X128059300Y-96726200I0J326200D01*
G01*
X128059300Y-95826200D01*
G75*
G02*
X128385500Y-95500000I326200J0D01*
G01*
X128910500Y-95500000D01*
G75*
G02*
X129236700Y-95826200I0J-326200D01*
G01*
G37*
G36*
G01*
X127411700Y-95826200D02*
X127411700Y-96726200D01*
G75*
G02*
X127085500Y-97052400I-326200J0D01*
G01*
X126560500Y-97052400D01*
G75*
G02*
X126234300Y-96726200I0J326200D01*
G01*
X126234300Y-95826200D01*
G75*
G02*
X126560500Y-95500000I326200J0D01*
G01*
X127085500Y-95500000D01*
G75*
G02*
X127411700Y-95826200I0J-326200D01*
G01*
G37*
G36*
G01*
X129236700Y-228058600D02*
X129236700Y-228958600D01*
G75*
G02*
X128910500Y-229284800I-326200J0D01*
G01*
X128385500Y-229284800D01*
G75*
G02*
X128059300Y-228958600I0J326200D01*
G01*
X128059300Y-228058600D01*
G75*
G02*
X128385500Y-227732400I326200J0D01*
G01*
X128910500Y-227732400D01*
G75*
G02*
X129236700Y-228058600I0J-326200D01*
G01*
G37*
G36*
G01*
X127411700Y-228058600D02*
X127411700Y-228958600D01*
G75*
G02*
X127085500Y-229284800I-326200J0D01*
G01*
X126560500Y-229284800D01*
G75*
G02*
X126234300Y-228958600I0J326200D01*
G01*
X126234300Y-228058600D01*
G75*
G02*
X126560500Y-227732400I326200J0D01*
G01*
X127085500Y-227732400D01*
G75*
G02*
X127411700Y-228058600I0J-326200D01*
G01*
G37*
G36*
G01*
X172872250Y-179966600D02*
X173784750Y-179966600D01*
G75*
G02*
X174104700Y-180286550I0J-319950D01*
G01*
X174104700Y-180774050D01*
G75*
G02*
X173784750Y-181094000I-319950J0D01*
G01*
X172872250Y-181094000D01*
G75*
G02*
X172552300Y-180774050I0J319950D01*
G01*
X172552300Y-180286550D01*
G75*
G02*
X172872250Y-179966600I319950J0D01*
G01*
G37*
G36*
G01*
X172872250Y-181841600D02*
X173784750Y-181841600D01*
G75*
G02*
X174104700Y-182161550I0J-319950D01*
G01*
X174104700Y-182649050D01*
G75*
G02*
X173784750Y-182969000I-319950J0D01*
G01*
X172872250Y-182969000D01*
G75*
G02*
X172552300Y-182649050I0J319950D01*
G01*
X172552300Y-182161550D01*
G75*
G02*
X172872250Y-181841600I319950J0D01*
G01*
G37*
X115162500Y-59818733D03*
X181593196Y-98816200D03*
X181837500Y-120008266D03*
G36*
G01*
X121587750Y-40551200D02*
X120675250Y-40551200D01*
G75*
G02*
X120355300Y-40231250I0J319950D01*
G01*
X120355300Y-39743750D01*
G75*
G02*
X120675250Y-39423800I319950J0D01*
G01*
X121587750Y-39423800D01*
G75*
G02*
X121907700Y-39743750I0J-319950D01*
G01*
X121907700Y-40231250D01*
G75*
G02*
X121587750Y-40551200I-319950J0D01*
G01*
G37*
G36*
G01*
X121587750Y-38676200D02*
X120675250Y-38676200D01*
G75*
G02*
X120355300Y-38356250I0J319950D01*
G01*
X120355300Y-37868750D01*
G75*
G02*
X120675250Y-37548800I319950J0D01*
G01*
X121587750Y-37548800D01*
G75*
G02*
X121907700Y-37868750I0J-319950D01*
G01*
X121907700Y-38356250D01*
G75*
G02*
X121587750Y-38676200I-319950J0D01*
G01*
G37*
X181837500Y-37780000D03*
G36*
G01*
X176714500Y-130497800D02*
X174514500Y-130497800D01*
G75*
G02*
X174438300Y-130421600I0J76200D01*
G01*
X174438300Y-128221600D01*
G75*
G02*
X174514500Y-128145400I76200J0D01*
G01*
X176714500Y-128145400D01*
G75*
G02*
X176790700Y-128221600I0J-76200D01*
G01*
X176790700Y-130421600D01*
G75*
G02*
X176714500Y-130497800I-76200J0D01*
G01*
G37*
D12*
X175614500Y-126781600D03*
X175614500Y-124241600D03*
X175614500Y-121701600D03*
X175614500Y-119161600D03*
X175614500Y-116621600D03*
X175614500Y-114081600D03*
X175614500Y-111541600D03*
D10*
X181809959Y-181035263D03*
X115162500Y-98816200D03*
G36*
G01*
X167763300Y-195913200D02*
X167763300Y-195013200D01*
G75*
G02*
X168089500Y-194687000I326200J0D01*
G01*
X168614500Y-194687000D01*
G75*
G02*
X168940700Y-195013200I0J-326200D01*
G01*
X168940700Y-195913200D01*
G75*
G02*
X168614500Y-196239400I-326200J0D01*
G01*
X168089500Y-196239400D01*
G75*
G02*
X167763300Y-195913200I0J326200D01*
G01*
G37*
G36*
G01*
X169588300Y-195913200D02*
X169588300Y-195013200D01*
G75*
G02*
X169914500Y-194687000I326200J0D01*
G01*
X170439500Y-194687000D01*
G75*
G02*
X170765700Y-195013200I0J-326200D01*
G01*
X170765700Y-195913200D01*
G75*
G02*
X170439500Y-196239400I-326200J0D01*
G01*
X169914500Y-196239400D01*
G75*
G02*
X169588300Y-195913200I0J326200D01*
G01*
G37*
G36*
G01*
X133906750Y-162623600D02*
X132994250Y-162623600D01*
G75*
G02*
X132674300Y-162303650I0J319950D01*
G01*
X132674300Y-161816150D01*
G75*
G02*
X132994250Y-161496200I319950J0D01*
G01*
X133906750Y-161496200D01*
G75*
G02*
X134226700Y-161816150I0J-319950D01*
G01*
X134226700Y-162303650D01*
G75*
G02*
X133906750Y-162623600I-319950J0D01*
G01*
G37*
G36*
G01*
X133906750Y-160748600D02*
X132994250Y-160748600D01*
G75*
G02*
X132674300Y-160428650I0J319950D01*
G01*
X132674300Y-159941150D01*
G75*
G02*
X132994250Y-159621200I319950J0D01*
G01*
X133906750Y-159621200D01*
G75*
G02*
X134226700Y-159941150I0J-319950D01*
G01*
X134226700Y-160428650D01*
G75*
G02*
X133906750Y-160748600I-319950J0D01*
G01*
G37*
G36*
G01*
X129236700Y-230598600D02*
X129236700Y-231498600D01*
G75*
G02*
X128910500Y-231824800I-326200J0D01*
G01*
X128385500Y-231824800D01*
G75*
G02*
X128059300Y-231498600I0J326200D01*
G01*
X128059300Y-230598600D01*
G75*
G02*
X128385500Y-230272400I326200J0D01*
G01*
X128910500Y-230272400D01*
G75*
G02*
X129236700Y-230598600I0J-326200D01*
G01*
G37*
G36*
G01*
X127411700Y-230598600D02*
X127411700Y-231498600D01*
G75*
G02*
X127085500Y-231824800I-326200J0D01*
G01*
X126560500Y-231824800D01*
G75*
G02*
X126234300Y-231498600I0J326200D01*
G01*
X126234300Y-230598600D01*
G75*
G02*
X126560500Y-230272400I326200J0D01*
G01*
X127085500Y-230272400D01*
G75*
G02*
X127411700Y-230598600I0J-326200D01*
G01*
G37*
G36*
G01*
X158013250Y-57894200D02*
X158925750Y-57894200D01*
G75*
G02*
X159245700Y-58214150I0J-319950D01*
G01*
X159245700Y-58701650D01*
G75*
G02*
X158925750Y-59021600I-319950J0D01*
G01*
X158013250Y-59021600D01*
G75*
G02*
X157693300Y-58701650I0J319950D01*
G01*
X157693300Y-58214150D01*
G75*
G02*
X158013250Y-57894200I319950J0D01*
G01*
G37*
G36*
G01*
X158013250Y-59769200D02*
X158925750Y-59769200D01*
G75*
G02*
X159245700Y-60089150I0J-319950D01*
G01*
X159245700Y-60576650D01*
G75*
G02*
X158925750Y-60896600I-319950J0D01*
G01*
X158013250Y-60896600D01*
G75*
G02*
X157693300Y-60576650I0J319950D01*
G01*
X157693300Y-60089150D01*
G75*
G02*
X158013250Y-59769200I319950J0D01*
G01*
G37*
X115190041Y-201380663D03*
X115162500Y-100509533D03*
G36*
G01*
X176714500Y-89807000D02*
X174514500Y-89807000D01*
G75*
G02*
X174438300Y-89730800I0J76200D01*
G01*
X174438300Y-87530800D01*
G75*
G02*
X174514500Y-87454600I76200J0D01*
G01*
X176714500Y-87454600D01*
G75*
G02*
X176790700Y-87530800I0J-76200D01*
G01*
X176790700Y-89730800D01*
G75*
G02*
X176714500Y-89807000I-76200J0D01*
G01*
G37*
D12*
X175614500Y-86090800D03*
X175614500Y-83550800D03*
X175614500Y-81010800D03*
X175614500Y-78470800D03*
X175614500Y-75930800D03*
X175614500Y-73390800D03*
X175614500Y-70850800D03*
D10*
X181837500Y-40320000D03*
G36*
G01*
X172872250Y-98585000D02*
X173784750Y-98585000D01*
G75*
G02*
X174104700Y-98904950I0J-319950D01*
G01*
X174104700Y-99392450D01*
G75*
G02*
X173784750Y-99712400I-319950J0D01*
G01*
X172872250Y-99712400D01*
G75*
G02*
X172552300Y-99392450I0J319950D01*
G01*
X172552300Y-98904950D01*
G75*
G02*
X172872250Y-98585000I319950J0D01*
G01*
G37*
G36*
G01*
X172872250Y-100460000D02*
X173784750Y-100460000D01*
G75*
G02*
X174104700Y-100779950I0J-319950D01*
G01*
X174104700Y-101267450D01*
G75*
G02*
X173784750Y-101587400I-319950J0D01*
G01*
X172872250Y-101587400D01*
G75*
G02*
X172552300Y-101267450I0J319950D01*
G01*
X172552300Y-100779950D01*
G75*
G02*
X172872250Y-100460000I319950J0D01*
G01*
G37*
G36*
G01*
X120285500Y-171401600D02*
X122485500Y-171401600D01*
G75*
G02*
X122561700Y-171477800I0J-76200D01*
G01*
X122561700Y-173677800D01*
G75*
G02*
X122485500Y-173754000I-76200J0D01*
G01*
X120285500Y-173754000D01*
G75*
G02*
X120209300Y-173677800I0J76200D01*
G01*
X120209300Y-171477800D01*
G75*
G02*
X120285500Y-171401600I76200J0D01*
G01*
G37*
D12*
X121385500Y-175117800D03*
X121385500Y-177657800D03*
X121385500Y-180197800D03*
X121385500Y-182737800D03*
X121385500Y-185277800D03*
X121385500Y-187817800D03*
X121385500Y-190357800D03*
G36*
G01*
X124127750Y-40551200D02*
X123215250Y-40551200D01*
G75*
G02*
X122895300Y-40231250I0J319950D01*
G01*
X122895300Y-39743750D01*
G75*
G02*
X123215250Y-39423800I319950J0D01*
G01*
X124127750Y-39423800D01*
G75*
G02*
X124447700Y-39743750I0J-319950D01*
G01*
X124447700Y-40231250D01*
G75*
G02*
X124127750Y-40551200I-319950J0D01*
G01*
G37*
G36*
G01*
X124127750Y-38676200D02*
X123215250Y-38676200D01*
G75*
G02*
X122895300Y-38356250I0J319950D01*
G01*
X122895300Y-37868750D01*
G75*
G02*
X123215250Y-37548800I319950J0D01*
G01*
X124127750Y-37548800D01*
G75*
G02*
X124447700Y-37868750I0J-319950D01*
G01*
X124447700Y-38356250D01*
G75*
G02*
X124127750Y-38676200I-319950J0D01*
G01*
G37*
D10*
X181593196Y-142047000D03*
G36*
G01*
X175412250Y-57894200D02*
X176324750Y-57894200D01*
G75*
G02*
X176644700Y-58214150I0J-319950D01*
G01*
X176644700Y-58701650D01*
G75*
G02*
X176324750Y-59021600I-319950J0D01*
G01*
X175412250Y-59021600D01*
G75*
G02*
X175092300Y-58701650I0J319950D01*
G01*
X175092300Y-58214150D01*
G75*
G02*
X175412250Y-57894200I319950J0D01*
G01*
G37*
G36*
G01*
X175412250Y-59769200D02*
X176324750Y-59769200D01*
G75*
G02*
X176644700Y-60089150I0J-319950D01*
G01*
X176644700Y-60576650D01*
G75*
G02*
X176324750Y-60896600I-319950J0D01*
G01*
X175412250Y-60896600D01*
G75*
G02*
X175092300Y-60576650I0J319950D01*
G01*
X175092300Y-60089150D01*
G75*
G02*
X175412250Y-59769200I319950J0D01*
G01*
G37*
G36*
G01*
X133906750Y-203314400D02*
X132994250Y-203314400D01*
G75*
G02*
X132674300Y-202994450I0J319950D01*
G01*
X132674300Y-202506950D01*
G75*
G02*
X132994250Y-202187000I319950J0D01*
G01*
X133906750Y-202187000D01*
G75*
G02*
X134226700Y-202506950I0J-319950D01*
G01*
X134226700Y-202994450D01*
G75*
G02*
X133906750Y-203314400I-319950J0D01*
G01*
G37*
G36*
G01*
X133906750Y-201439400D02*
X132994250Y-201439400D01*
G75*
G02*
X132674300Y-201119450I0J319950D01*
G01*
X132674300Y-200631950D01*
G75*
G02*
X132994250Y-200312000I319950J0D01*
G01*
X133906750Y-200312000D01*
G75*
G02*
X134226700Y-200631950I0J-319950D01*
G01*
X134226700Y-201119450D01*
G75*
G02*
X133906750Y-201439400I-319950J0D01*
G01*
G37*
D11*
X136244500Y-59395400D03*
D10*
X181809959Y-99653663D03*
G36*
G01*
X129236700Y-105986200D02*
X129236700Y-106886200D01*
G75*
G02*
X128910500Y-107212400I-326200J0D01*
G01*
X128385500Y-107212400D01*
G75*
G02*
X128059300Y-106886200I0J326200D01*
G01*
X128059300Y-105986200D01*
G75*
G02*
X128385500Y-105660000I326200J0D01*
G01*
X128910500Y-105660000D01*
G75*
G02*
X129236700Y-105986200I0J-326200D01*
G01*
G37*
G36*
G01*
X127411700Y-105986200D02*
X127411700Y-106886200D01*
G75*
G02*
X127085500Y-107212400I-326200J0D01*
G01*
X126560500Y-107212400D01*
G75*
G02*
X126234300Y-106886200I0J326200D01*
G01*
X126234300Y-105986200D01*
G75*
G02*
X126560500Y-105660000I326200J0D01*
G01*
X127085500Y-105660000D01*
G75*
G02*
X127411700Y-105986200I0J-326200D01*
G01*
G37*
X115190041Y-79308263D03*
G36*
G01*
X129236700Y-215358600D02*
X129236700Y-216258600D01*
G75*
G02*
X128910500Y-216584800I-326200J0D01*
G01*
X128385500Y-216584800D01*
G75*
G02*
X128059300Y-216258600I0J326200D01*
G01*
X128059300Y-215358600D01*
G75*
G02*
X128385500Y-215032400I326200J0D01*
G01*
X128910500Y-215032400D01*
G75*
G02*
X129236700Y-215358600I0J-326200D01*
G01*
G37*
G36*
G01*
X127411700Y-215358600D02*
X127411700Y-216258600D01*
G75*
G02*
X127085500Y-216584800I-326200J0D01*
G01*
X126560500Y-216584800D01*
G75*
G02*
X126234300Y-216258600I0J326200D01*
G01*
X126234300Y-215358600D01*
G75*
G02*
X126560500Y-215032400I326200J0D01*
G01*
X127085500Y-215032400D01*
G75*
G02*
X127411700Y-215358600I0J-326200D01*
G01*
G37*
D11*
X136244500Y-181467800D03*
D10*
X115162500Y-180197800D03*
D11*
X136244500Y-140777000D03*
G36*
G01*
X163093250Y-179966600D02*
X164005750Y-179966600D01*
G75*
G02*
X164325700Y-180286550I0J-319950D01*
G01*
X164325700Y-180774050D01*
G75*
G02*
X164005750Y-181094000I-319950J0D01*
G01*
X163093250Y-181094000D01*
G75*
G02*
X162773300Y-180774050I0J319950D01*
G01*
X162773300Y-180286550D01*
G75*
G02*
X163093250Y-179966600I319950J0D01*
G01*
G37*
G36*
G01*
X163093250Y-181841600D02*
X164005750Y-181841600D01*
G75*
G02*
X164325700Y-182161550I0J-319950D01*
G01*
X164325700Y-182649050D01*
G75*
G02*
X164005750Y-182969000I-319950J0D01*
G01*
X163093250Y-182969000D01*
G75*
G02*
X162773300Y-182649050I0J319950D01*
G01*
X162773300Y-182161550D01*
G75*
G02*
X163093250Y-181841600I319950J0D01*
G01*
G37*
G36*
G01*
X167763300Y-124691600D02*
X167763300Y-123791600D01*
G75*
G02*
X168089500Y-123465400I326200J0D01*
G01*
X168614500Y-123465400D01*
G75*
G02*
X168940700Y-123791600I0J-326200D01*
G01*
X168940700Y-124691600D01*
G75*
G02*
X168614500Y-125017800I-326200J0D01*
G01*
X168089500Y-125017800D01*
G75*
G02*
X167763300Y-124691600I0J326200D01*
G01*
G37*
G36*
G01*
X169588300Y-124691600D02*
X169588300Y-123791600D01*
G75*
G02*
X169914500Y-123465400I326200J0D01*
G01*
X170439500Y-123465400D01*
G75*
G02*
X170765700Y-123791600I0J-326200D01*
G01*
X170765700Y-124691600D01*
G75*
G02*
X170439500Y-125017800I-326200J0D01*
G01*
X169914500Y-125017800D01*
G75*
G02*
X169588300Y-124691600I0J326200D01*
G01*
G37*
G36*
G01*
X129236700Y-212818600D02*
X129236700Y-213718600D01*
G75*
G02*
X128910500Y-214044800I-326200J0D01*
G01*
X128385500Y-214044800D01*
G75*
G02*
X128059300Y-213718600I0J326200D01*
G01*
X128059300Y-212818600D01*
G75*
G02*
X128385500Y-212492400I326200J0D01*
G01*
X128910500Y-212492400D01*
G75*
G02*
X129236700Y-212818600I0J-326200D01*
G01*
G37*
G36*
G01*
X127411700Y-212818600D02*
X127411700Y-213718600D01*
G75*
G02*
X127085500Y-214044800I-326200J0D01*
G01*
X126560500Y-214044800D01*
G75*
G02*
X126234300Y-213718600I0J326200D01*
G01*
X126234300Y-212818600D01*
G75*
G02*
X126560500Y-212492400I326200J0D01*
G01*
X127085500Y-212492400D01*
G75*
G02*
X127411700Y-212818600I0J-326200D01*
G01*
G37*
D10*
X115190041Y-202245736D03*
G36*
G01*
X167763300Y-157762400D02*
X167763300Y-156862400D01*
G75*
G02*
X168089500Y-156536200I326200J0D01*
G01*
X168614500Y-156536200D01*
G75*
G02*
X168940700Y-156862400I0J-326200D01*
G01*
X168940700Y-157762400D01*
G75*
G02*
X168614500Y-158088600I-326200J0D01*
G01*
X168089500Y-158088600D01*
G75*
G02*
X167763300Y-157762400I0J326200D01*
G01*
G37*
G36*
G01*
X169588300Y-157762400D02*
X169588300Y-156862400D01*
G75*
G02*
X169914500Y-156536200I326200J0D01*
G01*
X170439500Y-156536200D01*
G75*
G02*
X170765700Y-156862400I0J-326200D01*
G01*
X170765700Y-157762400D01*
G75*
G02*
X170439500Y-158088600I-326200J0D01*
G01*
X169914500Y-158088600D01*
G75*
G02*
X169588300Y-157762400I0J326200D01*
G01*
G37*
X181328561Y-223954168D03*
G36*
G01*
X167763300Y-211153200D02*
X167763300Y-210253200D01*
G75*
G02*
X168089500Y-209927000I326200J0D01*
G01*
X168614500Y-209927000D01*
G75*
G02*
X168940700Y-210253200I0J-326200D01*
G01*
X168940700Y-211153200D01*
G75*
G02*
X168614500Y-211479400I-326200J0D01*
G01*
X168089500Y-211479400D01*
G75*
G02*
X167763300Y-211153200I0J326200D01*
G01*
G37*
G36*
G01*
X169588300Y-211153200D02*
X169588300Y-210253200D01*
G75*
G02*
X169914500Y-209927000I326200J0D01*
G01*
X170439500Y-209927000D01*
G75*
G02*
X170765700Y-210253200I0J-326200D01*
G01*
X170765700Y-211153200D01*
G75*
G02*
X170439500Y-211479400I-326200J0D01*
G01*
X169914500Y-211479400D01*
G75*
G02*
X169588300Y-211153200I0J326200D01*
G01*
G37*
G36*
G01*
X176714500Y-171188600D02*
X174514500Y-171188600D01*
G75*
G02*
X174438300Y-171112400I0J76200D01*
G01*
X174438300Y-168912400D01*
G75*
G02*
X174514500Y-168836200I76200J0D01*
G01*
X176714500Y-168836200D01*
G75*
G02*
X176790700Y-168912400I0J-76200D01*
G01*
X176790700Y-171112400D01*
G75*
G02*
X176714500Y-171188600I-76200J0D01*
G01*
G37*
D12*
X175614500Y-167472400D03*
X175614500Y-164932400D03*
X175614500Y-162392400D03*
X175614500Y-159852400D03*
X175614500Y-157312400D03*
X175614500Y-154772400D03*
X175614500Y-152232400D03*
G36*
G01*
X119047750Y-40551200D02*
X118135250Y-40551200D01*
G75*
G02*
X117815300Y-40231250I0J319950D01*
G01*
X117815300Y-39743750D01*
G75*
G02*
X118135250Y-39423800I319950J0D01*
G01*
X119047750Y-39423800D01*
G75*
G02*
X119367700Y-39743750I0J-319950D01*
G01*
X119367700Y-40231250D01*
G75*
G02*
X119047750Y-40551200I-319950J0D01*
G01*
G37*
G36*
G01*
X119047750Y-38676200D02*
X118135250Y-38676200D01*
G75*
G02*
X117815300Y-38356250I0J319950D01*
G01*
X117815300Y-37868750D01*
G75*
G02*
X118135250Y-37548800I319950J0D01*
G01*
X119047750Y-37548800D01*
G75*
G02*
X119367700Y-37868750I0J-319950D01*
G01*
X119367700Y-38356250D01*
G75*
G02*
X119047750Y-38676200I-319950J0D01*
G01*
G37*
G36*
G01*
X129236700Y-108526200D02*
X129236700Y-109426200D01*
G75*
G02*
X128910500Y-109752400I-326200J0D01*
G01*
X128385500Y-109752400D01*
G75*
G02*
X128059300Y-109426200I0J326200D01*
G01*
X128059300Y-108526200D01*
G75*
G02*
X128385500Y-108200000I326200J0D01*
G01*
X128910500Y-108200000D01*
G75*
G02*
X129236700Y-108526200I0J-326200D01*
G01*
G37*
G36*
G01*
X127411700Y-108526200D02*
X127411700Y-109426200D01*
G75*
G02*
X127085500Y-109752400I-326200J0D01*
G01*
X126560500Y-109752400D01*
G75*
G02*
X126234300Y-109426200I0J326200D01*
G01*
X126234300Y-108526200D01*
G75*
G02*
X126560500Y-108200000I326200J0D01*
G01*
X127085500Y-108200000D01*
G75*
G02*
X127411700Y-108526200I0J-326200D01*
G01*
G37*
G36*
G01*
X167763300Y-73840800D02*
X167763300Y-72940800D01*
G75*
G02*
X168089500Y-72614600I326200J0D01*
G01*
X168614500Y-72614600D01*
G75*
G02*
X168940700Y-72940800I0J-326200D01*
G01*
X168940700Y-73840800D01*
G75*
G02*
X168614500Y-74167000I-326200J0D01*
G01*
X168089500Y-74167000D01*
G75*
G02*
X167763300Y-73840800I0J326200D01*
G01*
G37*
G36*
G01*
X169588300Y-73840800D02*
X169588300Y-72940800D01*
G75*
G02*
X169914500Y-72614600I326200J0D01*
G01*
X170439500Y-72614600D01*
G75*
G02*
X170765700Y-72940800I0J-326200D01*
G01*
X170765700Y-73840800D01*
G75*
G02*
X170439500Y-74167000I-326200J0D01*
G01*
X169914500Y-74167000D01*
G75*
G02*
X169588300Y-73840800I0J326200D01*
G01*
G37*
D10*
X115406804Y-78470800D03*
M02*
