G04 #@! TF.GenerationSoftware,KiCad,Pcbnew,6.0.2+dfsg-1*
G04 #@! TF.CreationDate,2024-07-01T09:46:04-06:00*
G04 #@! TF.ProjectId,ckt-signal-2x-array,636b742d-7369-4676-9e61-6c2d32782d61,rev?*
G04 #@! TF.SameCoordinates,Original*
G04 #@! TF.FileFunction,Soldermask,Bot*
G04 #@! TF.FilePolarity,Negative*
%FSLAX46Y46*%
G04 Gerber Fmt 4.6, Leading zero omitted, Abs format (unit mm)*
G04 Created by KiCad (PCBNEW 6.0.2+dfsg-1) date 2024-07-01 09:46:04*
%MOMM*%
%LPD*%
G01*
G04 APERTURE LIST*
%ADD10C,0.500000*%
%ADD11C,6.552400*%
%ADD12C,2.352400*%
%ADD13C,2.000000*%
G04 APERTURE END LIST*
D10*
X115406804Y-81010800D03*
X115162500Y-141200333D03*
X181837500Y-161545733D03*
X181837500Y-78470800D03*
X181709730Y-223085770D03*
X181809959Y-181900336D03*
X115162500Y-60665400D03*
X181593196Y-139507000D03*
X181809959Y-100518736D03*
X181593196Y-182737800D03*
X115162500Y-99662866D03*
X116274673Y-36522701D03*
D11*
X160755500Y-201813200D03*
D10*
X181593196Y-180197800D03*
X181593196Y-60665400D03*
X181837500Y-81010800D03*
X115406804Y-119161600D03*
X115163566Y-39062700D03*
X115162500Y-220888600D03*
D11*
X160755500Y-161122400D03*
D10*
X115162500Y-223428600D03*
X181837500Y-119161600D03*
D11*
X160755500Y-79740800D03*
G36*
G01*
X120285500Y-49329200D02*
X122485500Y-49329200D01*
G75*
G02*
X122561700Y-49405400I0J-76200D01*
G01*
X122561700Y-51605400D01*
G75*
G02*
X122485500Y-51681600I-76200J0D01*
G01*
X120285500Y-51681600D01*
G75*
G02*
X120209300Y-51605400I0J76200D01*
G01*
X120209300Y-49405400D01*
G75*
G02*
X120285500Y-49329200I76200J0D01*
G01*
G37*
D12*
X121385500Y-53045400D03*
X121385500Y-55585400D03*
X121385500Y-58125400D03*
X121385500Y-60665400D03*
X121385500Y-63205400D03*
X121385500Y-65745400D03*
X121385500Y-68285400D03*
D10*
X181836434Y-222145900D03*
X181837500Y-201389866D03*
X181837500Y-79317466D03*
X181593196Y-101356200D03*
X115190041Y-119999063D03*
X181837500Y-202236533D03*
D11*
X160755500Y-120431600D03*
G36*
G01*
X120285500Y-212092400D02*
X122485500Y-212092400D01*
G75*
G02*
X122561700Y-212168600I0J-76200D01*
G01*
X122561700Y-214368600D01*
G75*
G02*
X122485500Y-214444800I-76200J0D01*
G01*
X120285500Y-214444800D01*
G75*
G02*
X120209300Y-214368600I0J76200D01*
G01*
X120209300Y-212168600D01*
G75*
G02*
X120285500Y-212092400I76200J0D01*
G01*
G37*
D12*
X121385500Y-215808600D03*
X121385500Y-218348600D03*
X121385500Y-220888600D03*
X121385500Y-223428600D03*
X121385500Y-225968600D03*
X121385500Y-228508600D03*
X121385500Y-231048600D03*
D10*
X115162500Y-221735266D03*
X115190041Y-80173336D03*
G36*
G01*
X120285500Y-130710800D02*
X122485500Y-130710800D01*
G75*
G02*
X122561700Y-130787000I0J-76200D01*
G01*
X122561700Y-132987000D01*
G75*
G02*
X122485500Y-133063200I-76200J0D01*
G01*
X120285500Y-133063200D01*
G75*
G02*
X120209300Y-132987000I0J76200D01*
G01*
X120209300Y-130787000D01*
G75*
G02*
X120285500Y-130710800I76200J0D01*
G01*
G37*
D12*
X121385500Y-134427000D03*
X121385500Y-136967000D03*
X121385500Y-139507000D03*
X121385500Y-142047000D03*
X121385500Y-144587000D03*
X121385500Y-147127000D03*
X121385500Y-149667000D03*
D10*
X115162500Y-139507000D03*
X181837500Y-159852400D03*
X181837500Y-121701600D03*
X115162500Y-140353666D03*
G36*
G01*
X176714500Y-211879400D02*
X174514500Y-211879400D01*
G75*
G02*
X174438300Y-211803200I0J76200D01*
G01*
X174438300Y-209603200D01*
G75*
G02*
X174514500Y-209527000I76200J0D01*
G01*
X176714500Y-209527000D01*
G75*
G02*
X176790700Y-209603200I0J-76200D01*
G01*
X176790700Y-211803200D01*
G75*
G02*
X176714500Y-211879400I-76200J0D01*
G01*
G37*
D12*
X175614500Y-208163200D03*
X175614500Y-205623200D03*
X175614500Y-203083200D03*
X175614500Y-200543200D03*
X175614500Y-198003200D03*
X175614500Y-195463200D03*
X175614500Y-192923200D03*
D10*
X181809959Y-58962863D03*
X115406804Y-159852400D03*
X115162500Y-181891133D03*
X115406804Y-162392400D03*
X115162500Y-58125400D03*
G36*
G01*
X120285500Y-90020000D02*
X122485500Y-90020000D01*
G75*
G02*
X122561700Y-90096200I0J-76200D01*
G01*
X122561700Y-92296200D01*
G75*
G02*
X122485500Y-92372400I-76200J0D01*
G01*
X120285500Y-92372400D01*
G75*
G02*
X120209300Y-92296200I0J76200D01*
G01*
X120209300Y-90096200D01*
G75*
G02*
X120285500Y-90020000I76200J0D01*
G01*
G37*
D12*
X121385500Y-93736200D03*
X121385500Y-96276200D03*
X121385500Y-98816200D03*
X121385500Y-101356200D03*
X121385500Y-103896200D03*
X121385500Y-106436200D03*
X121385500Y-108976200D03*
D10*
X181837500Y-160699066D03*
X115162500Y-182737800D03*
X115190041Y-160689863D03*
D11*
X160755500Y-39050000D03*
X136244500Y-222158600D03*
D10*
X115406804Y-203083200D03*
X181837500Y-39473333D03*
D11*
X136244500Y-100086200D03*
D10*
X115162500Y-181044466D03*
X180725327Y-224685900D03*
X115162500Y-222581933D03*
X181809959Y-59827936D03*
X181837500Y-162392400D03*
X181837500Y-120854933D03*
X115162500Y-142047000D03*
X115162500Y-58972066D03*
X181809959Y-141209536D03*
X115671439Y-37254432D03*
X115290270Y-38122830D03*
X181837500Y-80164133D03*
X115190041Y-161554936D03*
X181837500Y-203083200D03*
X115190041Y-120864136D03*
X115162500Y-101356200D03*
X181837500Y-200543200D03*
X115406804Y-121701600D03*
X181593196Y-58125400D03*
X181837500Y-38626667D03*
X181809959Y-140344463D03*
G36*
G01*
X176714500Y-49116200D02*
X174514500Y-49116200D01*
G75*
G02*
X174438300Y-49040000I0J76200D01*
G01*
X174438300Y-46840000D01*
G75*
G02*
X174514500Y-46763800I76200J0D01*
G01*
X176714500Y-46763800D01*
G75*
G02*
X176790700Y-46840000I0J-76200D01*
G01*
X176790700Y-49040000D01*
G75*
G02*
X176714500Y-49116200I-76200J0D01*
G01*
G37*
D12*
X175614500Y-45400000D03*
X175614500Y-42860000D03*
X175614500Y-40320000D03*
X175614500Y-37780000D03*
X175614500Y-35240000D03*
X175614500Y-32700000D03*
X175614500Y-30160000D03*
D10*
X115406804Y-200543200D03*
X115162500Y-59818733D03*
X181593196Y-98816200D03*
X181837500Y-120008266D03*
X181837500Y-37780000D03*
G36*
G01*
X176714500Y-130497800D02*
X174514500Y-130497800D01*
G75*
G02*
X174438300Y-130421600I0J76200D01*
G01*
X174438300Y-128221600D01*
G75*
G02*
X174514500Y-128145400I76200J0D01*
G01*
X176714500Y-128145400D01*
G75*
G02*
X176790700Y-128221600I0J-76200D01*
G01*
X176790700Y-130421600D01*
G75*
G02*
X176714500Y-130497800I-76200J0D01*
G01*
G37*
D12*
X175614500Y-126781600D03*
X175614500Y-124241600D03*
X175614500Y-121701600D03*
X175614500Y-119161600D03*
X175614500Y-116621600D03*
X175614500Y-114081600D03*
X175614500Y-111541600D03*
D10*
X181809959Y-181035263D03*
X115162500Y-98816200D03*
X115190041Y-201380663D03*
X115162500Y-100509533D03*
G36*
G01*
X176714500Y-89807000D02*
X174514500Y-89807000D01*
G75*
G02*
X174438300Y-89730800I0J76200D01*
G01*
X174438300Y-87530800D01*
G75*
G02*
X174514500Y-87454600I76200J0D01*
G01*
X176714500Y-87454600D01*
G75*
G02*
X176790700Y-87530800I0J-76200D01*
G01*
X176790700Y-89730800D01*
G75*
G02*
X176714500Y-89807000I-76200J0D01*
G01*
G37*
D12*
X175614500Y-86090800D03*
X175614500Y-83550800D03*
X175614500Y-81010800D03*
X175614500Y-78470800D03*
X175614500Y-75930800D03*
X175614500Y-73390800D03*
X175614500Y-70850800D03*
D10*
X181837500Y-40320000D03*
G36*
G01*
X120285500Y-171401600D02*
X122485500Y-171401600D01*
G75*
G02*
X122561700Y-171477800I0J-76200D01*
G01*
X122561700Y-173677800D01*
G75*
G02*
X122485500Y-173754000I-76200J0D01*
G01*
X120285500Y-173754000D01*
G75*
G02*
X120209300Y-173677800I0J76200D01*
G01*
X120209300Y-171477800D01*
G75*
G02*
X120285500Y-171401600I76200J0D01*
G01*
G37*
D12*
X121385500Y-175117800D03*
X121385500Y-177657800D03*
X121385500Y-180197800D03*
X121385500Y-182737800D03*
X121385500Y-185277800D03*
X121385500Y-187817800D03*
X121385500Y-190357800D03*
D10*
X181593196Y-142047000D03*
D11*
X136244500Y-59395400D03*
D10*
X181809959Y-99653663D03*
X115190041Y-79308263D03*
D11*
X136244500Y-181467800D03*
D10*
X115162500Y-180197800D03*
D11*
X136244500Y-140777000D03*
D10*
X115190041Y-202245736D03*
X181328561Y-223954168D03*
G36*
G01*
X176714500Y-171188600D02*
X174514500Y-171188600D01*
G75*
G02*
X174438300Y-171112400I0J76200D01*
G01*
X174438300Y-168912400D01*
G75*
G02*
X174514500Y-168836200I76200J0D01*
G01*
X176714500Y-168836200D01*
G75*
G02*
X176790700Y-168912400I0J-76200D01*
G01*
X176790700Y-171112400D01*
G75*
G02*
X176714500Y-171188600I-76200J0D01*
G01*
G37*
D12*
X175614500Y-167472400D03*
X175614500Y-164932400D03*
X175614500Y-162392400D03*
X175614500Y-159852400D03*
X175614500Y-157312400D03*
X175614500Y-154772400D03*
X175614500Y-152232400D03*
D10*
X115406804Y-78470800D03*
D13*
X181837500Y-22540000D03*
X115162500Y-22540000D03*
X115162500Y-238668600D03*
M02*
