G04 start of page 2 for group 0 idx 0 *
G04 Title: (unknown), component *
G04 Creator: pcb 20110918 *
G04 CreationDate: Mon 30 Dec 2013 04:57:32 PM GMT UTC *
G04 For: railfan *
G04 Format: Gerber/RS-274X *
G04 PCB-Dimensions: 30000 125000 *
G04 PCB-Coordinate-Origin: lower left *
%MOIN*%
%FSLAX25Y25*%
%LNTOP*%
%ADD17C,0.0380*%
%ADD16C,0.0360*%
%ADD15R,0.0512X0.0512*%
%ADD14C,0.0600*%
%ADD13C,0.0001*%
%ADD12C,0.0200*%
%ADD11C,0.0100*%
G54D11*X4000Y121000D02*Y101000D01*
X9000Y96000D01*
X9095Y109000D02*Y117595D01*
G54D12*X20905Y109000D02*Y81000D01*
X19500Y52000D02*Y81000D01*
G54D11*X9095D02*Y74095D01*
X4000Y69000D01*
X9095Y117595D02*X12500Y121000D01*
X26000D01*
G54D13*G36*
X7000Y33500D02*Y27500D01*
X13000D01*
Y33500D01*
X7000D01*
G37*
G54D14*X10000Y20500D03*
Y10500D03*
X20000Y30500D03*
Y20500D03*
Y10500D03*
G54D15*X20905Y110181D02*Y107819D01*
X9095Y110181D02*Y107819D01*
Y82181D02*Y79819D01*
Y96181D02*Y93819D01*
X20905Y82181D02*Y79819D01*
Y96181D02*Y93819D01*
G54D16*X19500Y52000D03*
X26000Y121000D03*
X4000D03*
Y69000D03*
G54D12*G54D17*M02*
