M48
INCH,TZ
T1C0.0197
%
G90
G05
T1
X46590Y-18874
X46590Y-19207
X46590Y-19541
X46590Y-19874
X46590Y-30874
X46590Y-31207
X46590Y-31541
X46590Y-31874
X46590Y-42874
X46590Y-43207
X46590Y-43541
X46590Y-43874
X46590Y-54874
X46590Y-55207
X46590Y-55541
X46590Y-55874
X46590Y-66874
X46590Y-67207
X46590Y-67541
X46590Y-67874
X46600Y-13204
X46600Y-13544
X46600Y-25204
X46600Y-25544
X46600Y-37204
X46600Y-37544
X46600Y-49204
X46600Y-49544
X46600Y-61204
X46600Y-61544
X46686Y-12874
X46686Y-13874
X46686Y-24874
X46686Y-25874
X46686Y-36874
X46686Y-37874
X46686Y-48874
X46686Y-49874
X46686Y-60874
X46686Y-61874
X70243Y-18874
X70243Y-19874
X70243Y-30874
X70243Y-31874
X70243Y-42874
X70243Y-43874
X70243Y-54874
X70243Y-55874
X70243Y-66874
X70243Y-67874
X70329Y-19204
X70329Y-19544
X70329Y-31204
X70329Y-31544
X70329Y-43204
X70329Y-43544
X70329Y-55204
X70329Y-55544
X70329Y-67204
X70329Y-67544
X70340Y-12874
X70340Y-13207
X70340Y-13541
X70340Y-13874
X70340Y-24874
X70340Y-25207
X70340Y-25541
X70340Y-25874
X70340Y-36874
X70340Y-37207
X70340Y-37541
X70340Y-37874
X70340Y-48874
X70340Y-49207
X70340Y-49541
X70340Y-49874
X70340Y-60874
X70340Y-61207
X70340Y-61541
X70340Y-61874
T0
M30
