M48
INCH,TZ
T1C0.0120
T2C0.0433
T3C0.1260
%
G90
G05
T1
X49440Y-13024
X49440Y-25024
X49440Y-37024
X49440Y-49024
X49440Y-61024
X67490Y-19724
X67490Y-31724
X67490Y-43724
X67490Y-55724
X67490Y-67724
T2
X49190Y-17872
X49190Y-18872
X49190Y-19872
X49190Y-20872
X49190Y-29872
X49190Y-30872
X49190Y-31872
X49190Y-32872
X49190Y-41872
X49190Y-42872
X49190Y-43872
X49190Y-44872
X49190Y-53872
X49190Y-54872
X49190Y-55872
X49190Y-56872
X49190Y-65872
X49190Y-66872
X49190Y-67872
X49190Y-68872
X67740Y-11876
X67740Y-12876
X67740Y-13876
X67740Y-14876
X67740Y-23876
X67740Y-24876
X67740Y-25876
X67740Y-26876
X67740Y-35876
X67740Y-36876
X67740Y-37876
X67740Y-38876
X67740Y-47876
X67740Y-48876
X67740Y-49876
X67740Y-50876
X67740Y-59876
X67740Y-60876
X67740Y-61876
X67740Y-62876
T3
X54890Y-19374
X54890Y-31374
X54890Y-43374
X54890Y-55374
X54890Y-67374
X62040Y-13374
X62040Y-25374
X62040Y-37374
X62040Y-49374
X62040Y-61374
T0
M30
