G04 #@! TF.GenerationSoftware,KiCad,Pcbnew,6.0.2+dfsg-1*
G04 #@! TF.CreationDate,2024-06-30T21:45:31-06:00*
G04 #@! TF.ProjectId,ckt-signal-array,636b742d-7369-4676-9e61-6c2d61727261,rev?*
G04 #@! TF.SameCoordinates,Original*
G04 #@! TF.FileFunction,Copper,L2,Bot*
G04 #@! TF.FilePolarity,Positive*
%FSLAX46Y46*%
G04 Gerber Fmt 4.6, Leading zero omitted, Abs format (unit mm)*
G04 Created by KiCad (PCBNEW 6.0.2+dfsg-1) date 2024-06-30 21:45:31*
%MOMM*%
%LPD*%
G01*
G04 APERTURE LIST*
G04 #@! TA.AperFunction,ComponentPad*
%ADD10R,2.200000X2.200000*%
G04 #@! TD*
G04 #@! TA.AperFunction,ComponentPad*
%ADD11C,2.200000*%
G04 #@! TD*
G04 #@! TA.AperFunction,ComponentPad*
%ADD12C,6.400000*%
G04 #@! TD*
G04 #@! TA.AperFunction,SMDPad,CuDef*
%ADD13C,1.000000*%
G04 #@! TD*
G04 #@! TA.AperFunction,ViaPad*
%ADD14C,0.609600*%
G04 #@! TD*
G04 #@! TA.AperFunction,Conductor*
%ADD15C,0.508000*%
G04 #@! TD*
G04 APERTURE END LIST*
D10*
X172058500Y-68265000D03*
D11*
X172058500Y-65725000D03*
X172058500Y-63185000D03*
X172058500Y-60645000D03*
D12*
X139419500Y-171130000D03*
X139419500Y-79690000D03*
D10*
X172058500Y-159705000D03*
D11*
X172058500Y-157165000D03*
X172058500Y-154625000D03*
X172058500Y-152085000D03*
D12*
X157580500Y-94930000D03*
D10*
X124941500Y-167315000D03*
D11*
X124941500Y-169855000D03*
X124941500Y-172395000D03*
X124941500Y-174935000D03*
D10*
X172058500Y-98745000D03*
D11*
X172058500Y-96205000D03*
X172058500Y-93665000D03*
X172058500Y-91125000D03*
D12*
X139419500Y-110170000D03*
D10*
X124941500Y-45395000D03*
D11*
X124941500Y-47935000D03*
X124941500Y-50475000D03*
X124941500Y-53015000D03*
D12*
X139419500Y-140650000D03*
D10*
X172058500Y-37785000D03*
D11*
X172058500Y-35245000D03*
X172058500Y-32705000D03*
X172058500Y-30165000D03*
D10*
X124941500Y-136835000D03*
D11*
X124941500Y-139375000D03*
X124941500Y-141915000D03*
X124941500Y-144455000D03*
D10*
X124941500Y-106355000D03*
D11*
X124941500Y-108895000D03*
X124941500Y-111435000D03*
X124941500Y-113975000D03*
D12*
X157580500Y-155890000D03*
D10*
X124941500Y-75875000D03*
D11*
X124941500Y-78415000D03*
X124941500Y-80955000D03*
X124941500Y-83495000D03*
D12*
X157580500Y-64450000D03*
D10*
X172058500Y-129225000D03*
D11*
X172058500Y-126685000D03*
X172058500Y-124145000D03*
X172058500Y-121605000D03*
D12*
X157580500Y-125410000D03*
X157580500Y-33970000D03*
X139419500Y-49210000D03*
D13*
X118337500Y-182560000D03*
X118337500Y-22540000D03*
X178662500Y-22540000D03*
D14*
X125576500Y-33081000D03*
X171423500Y-50099000D03*
X125576500Y-63561000D03*
X171423500Y-80579000D03*
X125576500Y-94041000D03*
X171423500Y-111059000D03*
X125576500Y-124521000D03*
X171423500Y-141539000D03*
X125576500Y-155001000D03*
X171423500Y-172019000D03*
D15*
X163046500Y-30165000D02*
X172058500Y-30165000D01*
X154278500Y-29144000D02*
X162025500Y-29144000D01*
X126084500Y-33589000D02*
X149833500Y-33589000D01*
X162025500Y-29144000D02*
X163046500Y-30165000D01*
X149833500Y-33589000D02*
X154278500Y-29144000D01*
X125576500Y-33081000D02*
X126084500Y-33589000D01*
X133953500Y-53015000D02*
X124941500Y-53015000D01*
X142721500Y-54036000D02*
X134974500Y-54036000D01*
X170915500Y-49591000D02*
X147166500Y-49591000D01*
X134974500Y-54036000D02*
X133953500Y-53015000D01*
X147166500Y-49591000D02*
X142721500Y-54036000D01*
X171423500Y-50099000D02*
X170915500Y-49591000D01*
X163046500Y-60645000D02*
X172058500Y-60645000D01*
X154278500Y-59624000D02*
X162025500Y-59624000D01*
X126084500Y-64069000D02*
X149833500Y-64069000D01*
X162025500Y-59624000D02*
X163046500Y-60645000D01*
X149833500Y-64069000D02*
X154278500Y-59624000D01*
X125576500Y-63561000D02*
X126084500Y-64069000D01*
X133953500Y-83495000D02*
X124941500Y-83495000D01*
X142721500Y-84516000D02*
X134974500Y-84516000D01*
X170915500Y-80071000D02*
X147166500Y-80071000D01*
X134974500Y-84516000D02*
X133953500Y-83495000D01*
X147166500Y-80071000D02*
X142721500Y-84516000D01*
X171423500Y-80579000D02*
X170915500Y-80071000D01*
X163046500Y-91125000D02*
X172058500Y-91125000D01*
X154278500Y-90104000D02*
X162025500Y-90104000D01*
X126084500Y-94549000D02*
X149833500Y-94549000D01*
X162025500Y-90104000D02*
X163046500Y-91125000D01*
X149833500Y-94549000D02*
X154278500Y-90104000D01*
X125576500Y-94041000D02*
X126084500Y-94549000D01*
X133953500Y-113975000D02*
X124941500Y-113975000D01*
X142721500Y-114996000D02*
X134974500Y-114996000D01*
X170915500Y-110551000D02*
X147166500Y-110551000D01*
X134974500Y-114996000D02*
X133953500Y-113975000D01*
X147166500Y-110551000D02*
X142721500Y-114996000D01*
X171423500Y-111059000D02*
X170915500Y-110551000D01*
X163046500Y-121605000D02*
X172058500Y-121605000D01*
X154278500Y-120584000D02*
X162025500Y-120584000D01*
X126084500Y-125029000D02*
X149833500Y-125029000D01*
X162025500Y-120584000D02*
X163046500Y-121605000D01*
X149833500Y-125029000D02*
X154278500Y-120584000D01*
X125576500Y-124521000D02*
X126084500Y-125029000D01*
X133953500Y-144455000D02*
X124941500Y-144455000D01*
X142721500Y-145476000D02*
X134974500Y-145476000D01*
X170915500Y-141031000D02*
X147166500Y-141031000D01*
X134974500Y-145476000D02*
X133953500Y-144455000D01*
X147166500Y-141031000D02*
X142721500Y-145476000D01*
X171423500Y-141539000D02*
X170915500Y-141031000D01*
X163046500Y-152085000D02*
X172058500Y-152085000D01*
X154278500Y-151064000D02*
X162025500Y-151064000D01*
X126084500Y-155509000D02*
X149833500Y-155509000D01*
X162025500Y-151064000D02*
X163046500Y-152085000D01*
X149833500Y-155509000D02*
X154278500Y-151064000D01*
X125576500Y-155001000D02*
X126084500Y-155509000D01*
X133953500Y-174935000D02*
X124941500Y-174935000D01*
X142721500Y-175956000D02*
X134974500Y-175956000D01*
X170915500Y-171511000D02*
X147166500Y-171511000D01*
X134974500Y-175956000D02*
X133953500Y-174935000D01*
X147166500Y-171511000D02*
X142721500Y-175956000D01*
X171423500Y-172019000D02*
X170915500Y-171511000D01*
M02*
