G04 #@! TF.GenerationSoftware,KiCad,Pcbnew,6.0.2+dfsg-1*
G04 #@! TF.CreationDate,2024-06-30T21:45:31-06:00*
G04 #@! TF.ProjectId,ckt-signal-array,636b742d-7369-4676-9e61-6c2d61727261,rev?*
G04 #@! TF.SameCoordinates,Original*
G04 #@! TF.FileFunction,Soldermask,Top*
G04 #@! TF.FilePolarity,Negative*
%FSLAX46Y46*%
G04 Gerber Fmt 4.6, Leading zero omitted, Abs format (unit mm)*
G04 Created by KiCad (PCBNEW 6.0.2+dfsg-1) date 2024-06-30 21:45:31*
%MOMM*%
%LPD*%
G01*
G04 APERTURE LIST*
%ADD10C,0.500000*%
%ADD11C,2.352400*%
%ADD12C,6.552400*%
%ADD13C,2.000000*%
G04 APERTURE END LIST*
D10*
X178634959Y-170697463D03*
X118337500Y-80113333D03*
G36*
G01*
X132411700Y-166870000D02*
X132411700Y-167770000D01*
G75*
G02*
X132085500Y-168096200I-326200J0D01*
G01*
X131560500Y-168096200D01*
G75*
G02*
X131234300Y-167770000I0J326200D01*
G01*
X131234300Y-166870000D01*
G75*
G02*
X131560500Y-166543800I326200J0D01*
G01*
X132085500Y-166543800D01*
G75*
G02*
X132411700Y-166870000I0J-326200D01*
G01*
G37*
G36*
G01*
X130586700Y-166870000D02*
X130586700Y-167770000D01*
G75*
G02*
X130260500Y-168096200I-326200J0D01*
G01*
X129735500Y-168096200D01*
G75*
G02*
X129409300Y-167770000I0J326200D01*
G01*
X129409300Y-166870000D01*
G75*
G02*
X129735500Y-166543800I326200J0D01*
G01*
X130260500Y-166543800D01*
G75*
G02*
X130586700Y-166870000I0J-326200D01*
G01*
G37*
X118337500Y-172400000D03*
X118581804Y-93660000D03*
X118337500Y-111440000D03*
X118581804Y-65720000D03*
G36*
G01*
X122222750Y-65951200D02*
X121310250Y-65951200D01*
G75*
G02*
X120990300Y-65631250I0J319950D01*
G01*
X120990300Y-65143750D01*
G75*
G02*
X121310250Y-64823800I319950J0D01*
G01*
X122222750Y-64823800D01*
G75*
G02*
X122542700Y-65143750I0J-319950D01*
G01*
X122542700Y-65631250D01*
G75*
G02*
X122222750Y-65951200I-319950J0D01*
G01*
G37*
G36*
G01*
X122222750Y-64076200D02*
X121310250Y-64076200D01*
G75*
G02*
X120990300Y-63756250I0J319950D01*
G01*
X120990300Y-63268750D01*
G75*
G02*
X121310250Y-62948800I319950J0D01*
G01*
X122222750Y-62948800D01*
G75*
G02*
X122542700Y-63268750I0J-319950D01*
G01*
X122542700Y-63756250D01*
G75*
G02*
X122222750Y-64076200I-319950J0D01*
G01*
G37*
X178662500Y-156313333D03*
X118581804Y-35240000D03*
G36*
G01*
X127302750Y-65951200D02*
X126390250Y-65951200D01*
G75*
G02*
X126070300Y-65631250I0J319950D01*
G01*
X126070300Y-65143750D01*
G75*
G02*
X126390250Y-64823800I319950J0D01*
G01*
X127302750Y-64823800D01*
G75*
G02*
X127622700Y-65143750I0J-319950D01*
G01*
X127622700Y-65631250D01*
G75*
G02*
X127302750Y-65951200I-319950J0D01*
G01*
G37*
G36*
G01*
X127302750Y-64076200D02*
X126390250Y-64076200D01*
G75*
G02*
X126070300Y-63756250I0J319950D01*
G01*
X126070300Y-63268750D01*
G75*
G02*
X126390250Y-62948800I319950J0D01*
G01*
X127302750Y-62948800D01*
G75*
G02*
X127622700Y-63268750I0J-319950D01*
G01*
X127622700Y-63756250D01*
G75*
G02*
X127302750Y-64076200I-319950J0D01*
G01*
G37*
G36*
G01*
X174777250Y-78188800D02*
X175689750Y-78188800D01*
G75*
G02*
X176009700Y-78508750I0J-319950D01*
G01*
X176009700Y-78996250D01*
G75*
G02*
X175689750Y-79316200I-319950J0D01*
G01*
X174777250Y-79316200D01*
G75*
G02*
X174457300Y-78996250I0J319950D01*
G01*
X174457300Y-78508750D01*
G75*
G02*
X174777250Y-78188800I319950J0D01*
G01*
G37*
G36*
G01*
X174777250Y-80063800D02*
X175689750Y-80063800D01*
G75*
G02*
X176009700Y-80383750I0J-319950D01*
G01*
X176009700Y-80871250D01*
G75*
G02*
X175689750Y-81191200I-319950J0D01*
G01*
X174777250Y-81191200D01*
G75*
G02*
X174457300Y-80871250I0J319950D01*
G01*
X174457300Y-80383750D01*
G75*
G02*
X174777250Y-80063800I319950J0D01*
G01*
G37*
X178634959Y-109737463D03*
G36*
G01*
X173158500Y-69441200D02*
X170958500Y-69441200D01*
G75*
G02*
X170882300Y-69365000I0J76200D01*
G01*
X170882300Y-67165000D01*
G75*
G02*
X170958500Y-67088800I76200J0D01*
G01*
X173158500Y-67088800D01*
G75*
G02*
X173234700Y-67165000I0J-76200D01*
G01*
X173234700Y-69365000D01*
G75*
G02*
X173158500Y-69441200I-76200J0D01*
G01*
G37*
D11*
X172058500Y-65725000D03*
X172058500Y-63185000D03*
X172058500Y-60645000D03*
G36*
G01*
X164588300Y-94110000D02*
X164588300Y-93210000D01*
G75*
G02*
X164914500Y-92883800I326200J0D01*
G01*
X165439500Y-92883800D01*
G75*
G02*
X165765700Y-93210000I0J-326200D01*
G01*
X165765700Y-94110000D01*
G75*
G02*
X165439500Y-94436200I-326200J0D01*
G01*
X164914500Y-94436200D01*
G75*
G02*
X164588300Y-94110000I0J326200D01*
G01*
G37*
G36*
G01*
X166413300Y-94110000D02*
X166413300Y-93210000D01*
G75*
G02*
X166739500Y-92883800I326200J0D01*
G01*
X167264500Y-92883800D01*
G75*
G02*
X167590700Y-93210000I0J-326200D01*
G01*
X167590700Y-94110000D01*
G75*
G02*
X167264500Y-94436200I-326200J0D01*
G01*
X166739500Y-94436200D01*
G75*
G02*
X166413300Y-94110000I0J326200D01*
G01*
G37*
D10*
X118337500Y-141073333D03*
G36*
G01*
X164588300Y-99190000D02*
X164588300Y-98290000D01*
G75*
G02*
X164914500Y-97963800I326200J0D01*
G01*
X165439500Y-97963800D01*
G75*
G02*
X165765700Y-98290000I0J-326200D01*
G01*
X165765700Y-99190000D01*
G75*
G02*
X165439500Y-99516200I-326200J0D01*
G01*
X164914500Y-99516200D01*
G75*
G02*
X164588300Y-99190000I0J326200D01*
G01*
G37*
G36*
G01*
X166413300Y-99190000D02*
X166413300Y-98290000D01*
G75*
G02*
X166739500Y-97963800I326200J0D01*
G01*
X167264500Y-97963800D01*
G75*
G02*
X167590700Y-98290000I0J-326200D01*
G01*
X167590700Y-99190000D01*
G75*
G02*
X167264500Y-99516200I-326200J0D01*
G01*
X166739500Y-99516200D01*
G75*
G02*
X166413300Y-99190000I0J326200D01*
G01*
G37*
D12*
X139419500Y-171130000D03*
D10*
X178418196Y-80960000D03*
X178662500Y-93660000D03*
X118581804Y-32700000D03*
X118337500Y-47940000D03*
X178662500Y-124986666D03*
X178662500Y-32700000D03*
G36*
G01*
X132411700Y-50030000D02*
X132411700Y-50930000D01*
G75*
G02*
X132085500Y-51256200I-326200J0D01*
G01*
X131560500Y-51256200D01*
G75*
G02*
X131234300Y-50930000I0J326200D01*
G01*
X131234300Y-50030000D01*
G75*
G02*
X131560500Y-49703800I326200J0D01*
G01*
X132085500Y-49703800D01*
G75*
G02*
X132411700Y-50030000I0J-326200D01*
G01*
G37*
G36*
G01*
X130586700Y-50030000D02*
X130586700Y-50930000D01*
G75*
G02*
X130260500Y-51256200I-326200J0D01*
G01*
X129735500Y-51256200D01*
G75*
G02*
X129409300Y-50930000I0J326200D01*
G01*
X129409300Y-50030000D01*
G75*
G02*
X129735500Y-49703800I326200J0D01*
G01*
X130260500Y-49703800D01*
G75*
G02*
X130586700Y-50030000I0J-326200D01*
G01*
G37*
X178662500Y-96200000D03*
G36*
G01*
X127302750Y-35471200D02*
X126390250Y-35471200D01*
G75*
G02*
X126070300Y-35151250I0J319950D01*
G01*
X126070300Y-34663750D01*
G75*
G02*
X126390250Y-34343800I319950J0D01*
G01*
X127302750Y-34343800D01*
G75*
G02*
X127622700Y-34663750I0J-319950D01*
G01*
X127622700Y-35151250D01*
G75*
G02*
X127302750Y-35471200I-319950J0D01*
G01*
G37*
G36*
G01*
X127302750Y-33596200D02*
X126390250Y-33596200D01*
G75*
G02*
X126070300Y-33276250I0J319950D01*
G01*
X126070300Y-32788750D01*
G75*
G02*
X126390250Y-32468800I319950J0D01*
G01*
X127302750Y-32468800D01*
G75*
G02*
X127622700Y-32788750I0J-319950D01*
G01*
X127622700Y-33276250D01*
G75*
G02*
X127302750Y-33596200I-319950J0D01*
G01*
G37*
G36*
G01*
X164588300Y-155070000D02*
X164588300Y-154170000D01*
G75*
G02*
X164914500Y-153843800I326200J0D01*
G01*
X165439500Y-153843800D01*
G75*
G02*
X165765700Y-154170000I0J-326200D01*
G01*
X165765700Y-155070000D01*
G75*
G02*
X165439500Y-155396200I-326200J0D01*
G01*
X164914500Y-155396200D01*
G75*
G02*
X164588300Y-155070000I0J326200D01*
G01*
G37*
G36*
G01*
X166413300Y-155070000D02*
X166413300Y-154170000D01*
G75*
G02*
X166739500Y-153843800I326200J0D01*
G01*
X167264500Y-153843800D01*
G75*
G02*
X167590700Y-154170000I0J-326200D01*
G01*
X167590700Y-155070000D01*
G75*
G02*
X167264500Y-155396200I-326200J0D01*
G01*
X166739500Y-155396200D01*
G75*
G02*
X166413300Y-155070000I0J326200D01*
G01*
G37*
G36*
G01*
X164588300Y-96650000D02*
X164588300Y-95750000D01*
G75*
G02*
X164914500Y-95423800I326200J0D01*
G01*
X165439500Y-95423800D01*
G75*
G02*
X165765700Y-95750000I0J-326200D01*
G01*
X165765700Y-96650000D01*
G75*
G02*
X165439500Y-96976200I-326200J0D01*
G01*
X164914500Y-96976200D01*
G75*
G02*
X164588300Y-96650000I0J326200D01*
G01*
G37*
G36*
G01*
X166413300Y-96650000D02*
X166413300Y-95750000D01*
G75*
G02*
X166739500Y-95423800I326200J0D01*
G01*
X167264500Y-95423800D01*
G75*
G02*
X167590700Y-95750000I0J-326200D01*
G01*
X167590700Y-96650000D01*
G75*
G02*
X167264500Y-96976200I-326200J0D01*
G01*
X166739500Y-96976200D01*
G75*
G02*
X166413300Y-96650000I0J326200D01*
G01*
G37*
G36*
G01*
X122222750Y-126911200D02*
X121310250Y-126911200D01*
G75*
G02*
X120990300Y-126591250I0J319950D01*
G01*
X120990300Y-126103750D01*
G75*
G02*
X121310250Y-125783800I319950J0D01*
G01*
X122222750Y-125783800D01*
G75*
G02*
X122542700Y-126103750I0J-319950D01*
G01*
X122542700Y-126591250D01*
G75*
G02*
X122222750Y-126911200I-319950J0D01*
G01*
G37*
G36*
G01*
X122222750Y-125036200D02*
X121310250Y-125036200D01*
G75*
G02*
X120990300Y-124716250I0J319950D01*
G01*
X120990300Y-124228750D01*
G75*
G02*
X121310250Y-123908800I319950J0D01*
G01*
X122222750Y-123908800D01*
G75*
G02*
X122542700Y-124228750I0J-319950D01*
G01*
X122542700Y-124716250D01*
G75*
G02*
X122222750Y-125036200I-319950J0D01*
G01*
G37*
X178662500Y-94506666D03*
G36*
G01*
X172237250Y-169628800D02*
X173149750Y-169628800D01*
G75*
G02*
X173469700Y-169948750I0J-319950D01*
G01*
X173469700Y-170436250D01*
G75*
G02*
X173149750Y-170756200I-319950J0D01*
G01*
X172237250Y-170756200D01*
G75*
G02*
X171917300Y-170436250I0J319950D01*
G01*
X171917300Y-169948750D01*
G75*
G02*
X172237250Y-169628800I319950J0D01*
G01*
G37*
G36*
G01*
X172237250Y-171503800D02*
X173149750Y-171503800D01*
G75*
G02*
X173469700Y-171823750I0J-319950D01*
G01*
X173469700Y-172311250D01*
G75*
G02*
X173149750Y-172631200I-319950J0D01*
G01*
X172237250Y-172631200D01*
G75*
G02*
X171917300Y-172311250I0J319950D01*
G01*
X171917300Y-171823750D01*
G75*
G02*
X172237250Y-171503800I319950J0D01*
G01*
G37*
X118365041Y-156322536D03*
G36*
G01*
X132411700Y-108450000D02*
X132411700Y-109350000D01*
G75*
G02*
X132085500Y-109676200I-326200J0D01*
G01*
X131560500Y-109676200D01*
G75*
G02*
X131234300Y-109350000I0J326200D01*
G01*
X131234300Y-108450000D01*
G75*
G02*
X131560500Y-108123800I326200J0D01*
G01*
X132085500Y-108123800D01*
G75*
G02*
X132411700Y-108450000I0J-326200D01*
G01*
G37*
G36*
G01*
X130586700Y-108450000D02*
X130586700Y-109350000D01*
G75*
G02*
X130260500Y-109676200I-326200J0D01*
G01*
X129735500Y-109676200D01*
G75*
G02*
X129409300Y-109350000I0J326200D01*
G01*
X129409300Y-108450000D01*
G75*
G02*
X129735500Y-108123800I326200J0D01*
G01*
X130260500Y-108123800D01*
G75*
G02*
X130586700Y-108450000I0J-326200D01*
G01*
G37*
G36*
G01*
X124762750Y-35471200D02*
X123850250Y-35471200D01*
G75*
G02*
X123530300Y-35151250I0J319950D01*
G01*
X123530300Y-34663750D01*
G75*
G02*
X123850250Y-34343800I319950J0D01*
G01*
X124762750Y-34343800D01*
G75*
G02*
X125082700Y-34663750I0J-319950D01*
G01*
X125082700Y-35151250D01*
G75*
G02*
X124762750Y-35471200I-319950J0D01*
G01*
G37*
G36*
G01*
X124762750Y-33596200D02*
X123850250Y-33596200D01*
G75*
G02*
X123530300Y-33276250I0J319950D01*
G01*
X123530300Y-32788750D01*
G75*
G02*
X123850250Y-32468800I319950J0D01*
G01*
X124762750Y-32468800D01*
G75*
G02*
X125082700Y-32788750I0J-319950D01*
G01*
X125082700Y-33276250D01*
G75*
G02*
X124762750Y-33596200I-319950J0D01*
G01*
G37*
G36*
G01*
X132411700Y-136390000D02*
X132411700Y-137290000D01*
G75*
G02*
X132085500Y-137616200I-326200J0D01*
G01*
X131560500Y-137616200D01*
G75*
G02*
X131234300Y-137290000I0J326200D01*
G01*
X131234300Y-136390000D01*
G75*
G02*
X131560500Y-136063800I326200J0D01*
G01*
X132085500Y-136063800D01*
G75*
G02*
X132411700Y-136390000I0J-326200D01*
G01*
G37*
G36*
G01*
X130586700Y-136390000D02*
X130586700Y-137290000D01*
G75*
G02*
X130260500Y-137616200I-326200J0D01*
G01*
X129735500Y-137616200D01*
G75*
G02*
X129409300Y-137290000I0J326200D01*
G01*
X129409300Y-136390000D01*
G75*
G02*
X129735500Y-136063800I326200J0D01*
G01*
X130260500Y-136063800D01*
G75*
G02*
X130586700Y-136390000I0J-326200D01*
G01*
G37*
D12*
X139419500Y-79690000D03*
G36*
G01*
X132411700Y-44950000D02*
X132411700Y-45850000D01*
G75*
G02*
X132085500Y-46176200I-326200J0D01*
G01*
X131560500Y-46176200D01*
G75*
G02*
X131234300Y-45850000I0J326200D01*
G01*
X131234300Y-44950000D01*
G75*
G02*
X131560500Y-44623800I326200J0D01*
G01*
X132085500Y-44623800D01*
G75*
G02*
X132411700Y-44950000I0J-326200D01*
G01*
G37*
G36*
G01*
X130586700Y-44950000D02*
X130586700Y-45850000D01*
G75*
G02*
X130260500Y-46176200I-326200J0D01*
G01*
X129735500Y-46176200D01*
G75*
G02*
X129409300Y-45850000I0J326200D01*
G01*
X129409300Y-44950000D01*
G75*
G02*
X129735500Y-44623800I326200J0D01*
G01*
X130260500Y-44623800D01*
G75*
G02*
X130586700Y-44950000I0J-326200D01*
G01*
G37*
G36*
G01*
X173158500Y-160881200D02*
X170958500Y-160881200D01*
G75*
G02*
X170882300Y-160805000I0J76200D01*
G01*
X170882300Y-158605000D01*
G75*
G02*
X170958500Y-158528800I76200J0D01*
G01*
X173158500Y-158528800D01*
G75*
G02*
X173234700Y-158605000I0J-76200D01*
G01*
X173234700Y-160805000D01*
G75*
G02*
X173158500Y-160881200I-76200J0D01*
G01*
G37*
D11*
X172058500Y-157165000D03*
X172058500Y-154625000D03*
X172058500Y-152085000D03*
D10*
X178418196Y-78420000D03*
X118581804Y-124140000D03*
X178634959Y-79257463D03*
X118365041Y-94497463D03*
G36*
G01*
X172237250Y-47708800D02*
X173149750Y-47708800D01*
G75*
G02*
X173469700Y-48028750I0J-319950D01*
G01*
X173469700Y-48516250D01*
G75*
G02*
X173149750Y-48836200I-319950J0D01*
G01*
X172237250Y-48836200D01*
G75*
G02*
X171917300Y-48516250I0J319950D01*
G01*
X171917300Y-48028750D01*
G75*
G02*
X172237250Y-47708800I319950J0D01*
G01*
G37*
G36*
G01*
X172237250Y-49583800D02*
X173149750Y-49583800D01*
G75*
G02*
X173469700Y-49903750I0J-319950D01*
G01*
X173469700Y-50391250D01*
G75*
G02*
X173149750Y-50711200I-319950J0D01*
G01*
X172237250Y-50711200D01*
G75*
G02*
X171917300Y-50391250I0J319950D01*
G01*
X171917300Y-49903750D01*
G75*
G02*
X172237250Y-49583800I319950J0D01*
G01*
G37*
G36*
G01*
X122222750Y-157391200D02*
X121310250Y-157391200D01*
G75*
G02*
X120990300Y-157071250I0J319950D01*
G01*
X120990300Y-156583750D01*
G75*
G02*
X121310250Y-156263800I319950J0D01*
G01*
X122222750Y-156263800D01*
G75*
G02*
X122542700Y-156583750I0J-319950D01*
G01*
X122542700Y-157071250D01*
G75*
G02*
X122222750Y-157391200I-319950J0D01*
G01*
G37*
G36*
G01*
X122222750Y-155516200D02*
X121310250Y-155516200D01*
G75*
G02*
X120990300Y-155196250I0J319950D01*
G01*
X120990300Y-154708750D01*
G75*
G02*
X121310250Y-154388800I319950J0D01*
G01*
X122222750Y-154388800D01*
G75*
G02*
X122542700Y-154708750I0J-319950D01*
G01*
X122542700Y-155196250D01*
G75*
G02*
X122222750Y-155516200I-319950J0D01*
G01*
G37*
G36*
G01*
X132411700Y-169410000D02*
X132411700Y-170310000D01*
G75*
G02*
X132085500Y-170636200I-326200J0D01*
G01*
X131560500Y-170636200D01*
G75*
G02*
X131234300Y-170310000I0J326200D01*
G01*
X131234300Y-169410000D01*
G75*
G02*
X131560500Y-169083800I326200J0D01*
G01*
X132085500Y-169083800D01*
G75*
G02*
X132411700Y-169410000I0J-326200D01*
G01*
G37*
G36*
G01*
X130586700Y-169410000D02*
X130586700Y-170310000D01*
G75*
G02*
X130260500Y-170636200I-326200J0D01*
G01*
X129735500Y-170636200D01*
G75*
G02*
X129409300Y-170310000I0J326200D01*
G01*
X129409300Y-169410000D01*
G75*
G02*
X129735500Y-169083800I326200J0D01*
G01*
X130260500Y-169083800D01*
G75*
G02*
X130586700Y-169410000I0J-326200D01*
G01*
G37*
X118581804Y-157160000D03*
X178634959Y-49642536D03*
X118365041Y-124977463D03*
G36*
G01*
X169697250Y-139148800D02*
X170609750Y-139148800D01*
G75*
G02*
X170929700Y-139468750I0J-319950D01*
G01*
X170929700Y-139956250D01*
G75*
G02*
X170609750Y-140276200I-319950J0D01*
G01*
X169697250Y-140276200D01*
G75*
G02*
X169377300Y-139956250I0J319950D01*
G01*
X169377300Y-139468750D01*
G75*
G02*
X169697250Y-139148800I319950J0D01*
G01*
G37*
G36*
G01*
X169697250Y-141023800D02*
X170609750Y-141023800D01*
G75*
G02*
X170929700Y-141343750I0J-319950D01*
G01*
X170929700Y-141831250D01*
G75*
G02*
X170609750Y-142151200I-319950J0D01*
G01*
X169697250Y-142151200D01*
G75*
G02*
X169377300Y-141831250I0J319950D01*
G01*
X169377300Y-141343750D01*
G75*
G02*
X169697250Y-141023800I319950J0D01*
G01*
G37*
G36*
G01*
X164588300Y-66170000D02*
X164588300Y-65270000D01*
G75*
G02*
X164914500Y-64943800I326200J0D01*
G01*
X165439500Y-64943800D01*
G75*
G02*
X165765700Y-65270000I0J-326200D01*
G01*
X165765700Y-66170000D01*
G75*
G02*
X165439500Y-66496200I-326200J0D01*
G01*
X164914500Y-66496200D01*
G75*
G02*
X164588300Y-66170000I0J326200D01*
G01*
G37*
G36*
G01*
X166413300Y-66170000D02*
X166413300Y-65270000D01*
G75*
G02*
X166739500Y-64943800I326200J0D01*
G01*
X167264500Y-64943800D01*
G75*
G02*
X167590700Y-65270000I0J-326200D01*
G01*
X167590700Y-66170000D01*
G75*
G02*
X167264500Y-66496200I-326200J0D01*
G01*
X166739500Y-66496200D01*
G75*
G02*
X166413300Y-66170000I0J326200D01*
G01*
G37*
G36*
G01*
X172237250Y-139148800D02*
X173149750Y-139148800D01*
G75*
G02*
X173469700Y-139468750I0J-319950D01*
G01*
X173469700Y-139956250D01*
G75*
G02*
X173149750Y-140276200I-319950J0D01*
G01*
X172237250Y-140276200D01*
G75*
G02*
X171917300Y-139956250I0J319950D01*
G01*
X171917300Y-139468750D01*
G75*
G02*
X172237250Y-139148800I319950J0D01*
G01*
G37*
G36*
G01*
X172237250Y-141023800D02*
X173149750Y-141023800D01*
G75*
G02*
X173469700Y-141343750I0J-319950D01*
G01*
X173469700Y-141831250D01*
G75*
G02*
X173149750Y-142151200I-319950J0D01*
G01*
X172237250Y-142151200D01*
G75*
G02*
X171917300Y-141831250I0J319950D01*
G01*
X171917300Y-141343750D01*
G75*
G02*
X172237250Y-141023800I319950J0D01*
G01*
G37*
G36*
G01*
X174777250Y-108668800D02*
X175689750Y-108668800D01*
G75*
G02*
X176009700Y-108988750I0J-319950D01*
G01*
X176009700Y-109476250D01*
G75*
G02*
X175689750Y-109796200I-319950J0D01*
G01*
X174777250Y-109796200D01*
G75*
G02*
X174457300Y-109476250I0J319950D01*
G01*
X174457300Y-108988750D01*
G75*
G02*
X174777250Y-108668800I319950J0D01*
G01*
G37*
G36*
G01*
X174777250Y-110543800D02*
X175689750Y-110543800D01*
G75*
G02*
X176009700Y-110863750I0J-319950D01*
G01*
X176009700Y-111351250D01*
G75*
G02*
X175689750Y-111671200I-319950J0D01*
G01*
X174777250Y-111671200D01*
G75*
G02*
X174457300Y-111351250I0J319950D01*
G01*
X174457300Y-110863750D01*
G75*
G02*
X174777250Y-110543800I319950J0D01*
G01*
G37*
D12*
X157580500Y-94930000D03*
D10*
X118337500Y-49633333D03*
G36*
G01*
X132411700Y-80510000D02*
X132411700Y-81410000D01*
G75*
G02*
X132085500Y-81736200I-326200J0D01*
G01*
X131560500Y-81736200D01*
G75*
G02*
X131234300Y-81410000I0J326200D01*
G01*
X131234300Y-80510000D01*
G75*
G02*
X131560500Y-80183800I326200J0D01*
G01*
X132085500Y-80183800D01*
G75*
G02*
X132411700Y-80510000I0J-326200D01*
G01*
G37*
G36*
G01*
X130586700Y-80510000D02*
X130586700Y-81410000D01*
G75*
G02*
X130260500Y-81736200I-326200J0D01*
G01*
X129735500Y-81736200D01*
G75*
G02*
X129409300Y-81410000I0J326200D01*
G01*
X129409300Y-80510000D01*
G75*
G02*
X129735500Y-80183800I326200J0D01*
G01*
X130260500Y-80183800D01*
G75*
G02*
X130586700Y-80510000I0J-326200D01*
G01*
G37*
X118581804Y-154620000D03*
X118337500Y-80960000D03*
G36*
G01*
X132411700Y-77970000D02*
X132411700Y-78870000D01*
G75*
G02*
X132085500Y-79196200I-326200J0D01*
G01*
X131560500Y-79196200D01*
G75*
G02*
X131234300Y-78870000I0J326200D01*
G01*
X131234300Y-77970000D01*
G75*
G02*
X131560500Y-77643800I326200J0D01*
G01*
X132085500Y-77643800D01*
G75*
G02*
X132411700Y-77970000I0J-326200D01*
G01*
G37*
G36*
G01*
X130586700Y-77970000D02*
X130586700Y-78870000D01*
G75*
G02*
X130260500Y-79196200I-326200J0D01*
G01*
X129735500Y-79196200D01*
G75*
G02*
X129409300Y-78870000I0J326200D01*
G01*
X129409300Y-77970000D01*
G75*
G02*
X129735500Y-77643800I326200J0D01*
G01*
X130260500Y-77643800D01*
G75*
G02*
X130586700Y-77970000I0J-326200D01*
G01*
G37*
G36*
G01*
X132411700Y-47490000D02*
X132411700Y-48390000D01*
G75*
G02*
X132085500Y-48716200I-326200J0D01*
G01*
X131560500Y-48716200D01*
G75*
G02*
X131234300Y-48390000I0J326200D01*
G01*
X131234300Y-47490000D01*
G75*
G02*
X131560500Y-47163800I326200J0D01*
G01*
X132085500Y-47163800D01*
G75*
G02*
X132411700Y-47490000I0J-326200D01*
G01*
G37*
G36*
G01*
X130586700Y-47490000D02*
X130586700Y-48390000D01*
G75*
G02*
X130260500Y-48716200I-326200J0D01*
G01*
X129735500Y-48716200D01*
G75*
G02*
X129409300Y-48390000I0J326200D01*
G01*
X129409300Y-47490000D01*
G75*
G02*
X129735500Y-47163800I326200J0D01*
G01*
X130260500Y-47163800D01*
G75*
G02*
X130586700Y-47490000I0J-326200D01*
G01*
G37*
G36*
G01*
X164588300Y-68710000D02*
X164588300Y-67810000D01*
G75*
G02*
X164914500Y-67483800I326200J0D01*
G01*
X165439500Y-67483800D01*
G75*
G02*
X165765700Y-67810000I0J-326200D01*
G01*
X165765700Y-68710000D01*
G75*
G02*
X165439500Y-69036200I-326200J0D01*
G01*
X164914500Y-69036200D01*
G75*
G02*
X164588300Y-68710000I0J326200D01*
G01*
G37*
G36*
G01*
X166413300Y-68710000D02*
X166413300Y-67810000D01*
G75*
G02*
X166739500Y-67483800I326200J0D01*
G01*
X167264500Y-67483800D01*
G75*
G02*
X167590700Y-67810000I0J-326200D01*
G01*
X167590700Y-68710000D01*
G75*
G02*
X167264500Y-69036200I-326200J0D01*
G01*
X166739500Y-69036200D01*
G75*
G02*
X166413300Y-68710000I0J326200D01*
G01*
G37*
X118365041Y-64017463D03*
G36*
G01*
X164588300Y-160150000D02*
X164588300Y-159250000D01*
G75*
G02*
X164914500Y-158923800I326200J0D01*
G01*
X165439500Y-158923800D01*
G75*
G02*
X165765700Y-159250000I0J-326200D01*
G01*
X165765700Y-160150000D01*
G75*
G02*
X165439500Y-160476200I-326200J0D01*
G01*
X164914500Y-160476200D01*
G75*
G02*
X164588300Y-160150000I0J326200D01*
G01*
G37*
G36*
G01*
X166413300Y-160150000D02*
X166413300Y-159250000D01*
G75*
G02*
X166739500Y-158923800I326200J0D01*
G01*
X167264500Y-158923800D01*
G75*
G02*
X167590700Y-159250000I0J-326200D01*
G01*
X167590700Y-160150000D01*
G75*
G02*
X167264500Y-160476200I-326200J0D01*
G01*
X166739500Y-160476200D01*
G75*
G02*
X166413300Y-160150000I0J326200D01*
G01*
G37*
X178662500Y-154620000D03*
X178662500Y-124140000D03*
G36*
G01*
X123841500Y-166138800D02*
X126041500Y-166138800D01*
G75*
G02*
X126117700Y-166215000I0J-76200D01*
G01*
X126117700Y-168415000D01*
G75*
G02*
X126041500Y-168491200I-76200J0D01*
G01*
X123841500Y-168491200D01*
G75*
G02*
X123765300Y-168415000I0J76200D01*
G01*
X123765300Y-166215000D01*
G75*
G02*
X123841500Y-166138800I76200J0D01*
G01*
G37*
D11*
X124941500Y-169855000D03*
X124941500Y-172395000D03*
X124941500Y-174935000D03*
G36*
G01*
X164588300Y-63630000D02*
X164588300Y-62730000D01*
G75*
G02*
X164914500Y-62403800I326200J0D01*
G01*
X165439500Y-62403800D01*
G75*
G02*
X165765700Y-62730000I0J-326200D01*
G01*
X165765700Y-63630000D01*
G75*
G02*
X165439500Y-63956200I-326200J0D01*
G01*
X164914500Y-63956200D01*
G75*
G02*
X164588300Y-63630000I0J326200D01*
G01*
G37*
G36*
G01*
X166413300Y-63630000D02*
X166413300Y-62730000D01*
G75*
G02*
X166739500Y-62403800I326200J0D01*
G01*
X167264500Y-62403800D01*
G75*
G02*
X167590700Y-62730000I0J-326200D01*
G01*
X167590700Y-63630000D01*
G75*
G02*
X167264500Y-63956200I-326200J0D01*
G01*
X166739500Y-63956200D01*
G75*
G02*
X166413300Y-63630000I0J326200D01*
G01*
G37*
D10*
X118365041Y-33537464D03*
X118337500Y-169860000D03*
X118337500Y-50480000D03*
G36*
G01*
X173158500Y-99921200D02*
X170958500Y-99921200D01*
G75*
G02*
X170882300Y-99845000I0J76200D01*
G01*
X170882300Y-97645000D01*
G75*
G02*
X170958500Y-97568800I76200J0D01*
G01*
X173158500Y-97568800D01*
G75*
G02*
X173234700Y-97645000I0J-76200D01*
G01*
X173234700Y-99845000D01*
G75*
G02*
X173158500Y-99921200I-76200J0D01*
G01*
G37*
D11*
X172058500Y-96205000D03*
X172058500Y-93665000D03*
X172058500Y-91125000D03*
G36*
G01*
X164588300Y-35690000D02*
X164588300Y-34790000D01*
G75*
G02*
X164914500Y-34463800I326200J0D01*
G01*
X165439500Y-34463800D01*
G75*
G02*
X165765700Y-34790000I0J-326200D01*
G01*
X165765700Y-35690000D01*
G75*
G02*
X165439500Y-36016200I-326200J0D01*
G01*
X164914500Y-36016200D01*
G75*
G02*
X164588300Y-35690000I0J326200D01*
G01*
G37*
G36*
G01*
X166413300Y-35690000D02*
X166413300Y-34790000D01*
G75*
G02*
X166739500Y-34463800I326200J0D01*
G01*
X167264500Y-34463800D01*
G75*
G02*
X167590700Y-34790000I0J-326200D01*
G01*
X167590700Y-35690000D01*
G75*
G02*
X167264500Y-36016200I-326200J0D01*
G01*
X166739500Y-36016200D01*
G75*
G02*
X166413300Y-35690000I0J326200D01*
G01*
G37*
G36*
G01*
X124762750Y-65951200D02*
X123850250Y-65951200D01*
G75*
G02*
X123530300Y-65631250I0J319950D01*
G01*
X123530300Y-65143750D01*
G75*
G02*
X123850250Y-64823800I319950J0D01*
G01*
X124762750Y-64823800D01*
G75*
G02*
X125082700Y-65143750I0J-319950D01*
G01*
X125082700Y-65631250D01*
G75*
G02*
X124762750Y-65951200I-319950J0D01*
G01*
G37*
G36*
G01*
X124762750Y-64076200D02*
X123850250Y-64076200D01*
G75*
G02*
X123530300Y-63756250I0J319950D01*
G01*
X123530300Y-63268750D01*
G75*
G02*
X123850250Y-62948800I319950J0D01*
G01*
X124762750Y-62948800D01*
G75*
G02*
X125082700Y-63268750I0J-319950D01*
G01*
X125082700Y-63756250D01*
G75*
G02*
X124762750Y-64076200I-319950J0D01*
G01*
G37*
G36*
G01*
X122222750Y-35471200D02*
X121310250Y-35471200D01*
G75*
G02*
X120990300Y-35151250I0J319950D01*
G01*
X120990300Y-34663750D01*
G75*
G02*
X121310250Y-34343800I319950J0D01*
G01*
X122222750Y-34343800D01*
G75*
G02*
X122542700Y-34663750I0J-319950D01*
G01*
X122542700Y-35151250D01*
G75*
G02*
X122222750Y-35471200I-319950J0D01*
G01*
G37*
G36*
G01*
X122222750Y-33596200D02*
X121310250Y-33596200D01*
G75*
G02*
X120990300Y-33276250I0J319950D01*
G01*
X120990300Y-32788750D01*
G75*
G02*
X121310250Y-32468800I319950J0D01*
G01*
X122222750Y-32468800D01*
G75*
G02*
X122542700Y-32788750I0J-319950D01*
G01*
X122542700Y-33276250D01*
G75*
G02*
X122222750Y-33596200I-319950J0D01*
G01*
G37*
D10*
X178662500Y-33546667D03*
G36*
G01*
X164588300Y-129670000D02*
X164588300Y-128770000D01*
G75*
G02*
X164914500Y-128443800I326200J0D01*
G01*
X165439500Y-128443800D01*
G75*
G02*
X165765700Y-128770000I0J-326200D01*
G01*
X165765700Y-129670000D01*
G75*
G02*
X165439500Y-129996200I-326200J0D01*
G01*
X164914500Y-129996200D01*
G75*
G02*
X164588300Y-129670000I0J326200D01*
G01*
G37*
G36*
G01*
X166413300Y-129670000D02*
X166413300Y-128770000D01*
G75*
G02*
X166739500Y-128443800I326200J0D01*
G01*
X167264500Y-128443800D01*
G75*
G02*
X167590700Y-128770000I0J-326200D01*
G01*
X167590700Y-129670000D01*
G75*
G02*
X167264500Y-129996200I-326200J0D01*
G01*
X166739500Y-129996200D01*
G75*
G02*
X166413300Y-129670000I0J326200D01*
G01*
G37*
G36*
G01*
X169697250Y-47708800D02*
X170609750Y-47708800D01*
G75*
G02*
X170929700Y-48028750I0J-319950D01*
G01*
X170929700Y-48516250D01*
G75*
G02*
X170609750Y-48836200I-319950J0D01*
G01*
X169697250Y-48836200D01*
G75*
G02*
X169377300Y-48516250I0J319950D01*
G01*
X169377300Y-48028750D01*
G75*
G02*
X169697250Y-47708800I319950J0D01*
G01*
G37*
G36*
G01*
X169697250Y-49583800D02*
X170609750Y-49583800D01*
G75*
G02*
X170929700Y-49903750I0J-319950D01*
G01*
X170929700Y-50391250D01*
G75*
G02*
X170609750Y-50711200I-319950J0D01*
G01*
X169697250Y-50711200D01*
G75*
G02*
X169377300Y-50391250I0J319950D01*
G01*
X169377300Y-49903750D01*
G75*
G02*
X169697250Y-49583800I319950J0D01*
G01*
G37*
G36*
G01*
X132411700Y-138930000D02*
X132411700Y-139830000D01*
G75*
G02*
X132085500Y-140156200I-326200J0D01*
G01*
X131560500Y-140156200D01*
G75*
G02*
X131234300Y-139830000I0J326200D01*
G01*
X131234300Y-138930000D01*
G75*
G02*
X131560500Y-138603800I326200J0D01*
G01*
X132085500Y-138603800D01*
G75*
G02*
X132411700Y-138930000I0J-326200D01*
G01*
G37*
G36*
G01*
X130586700Y-138930000D02*
X130586700Y-139830000D01*
G75*
G02*
X130260500Y-140156200I-326200J0D01*
G01*
X129735500Y-140156200D01*
G75*
G02*
X129409300Y-139830000I0J326200D01*
G01*
X129409300Y-138930000D01*
G75*
G02*
X129735500Y-138603800I326200J0D01*
G01*
X130260500Y-138603800D01*
G75*
G02*
X130586700Y-138930000I0J-326200D01*
G01*
G37*
X178662500Y-157160000D03*
X178662500Y-125833333D03*
X118337500Y-140226666D03*
X118337500Y-78420000D03*
G36*
G01*
X164588300Y-38230000D02*
X164588300Y-37330000D01*
G75*
G02*
X164914500Y-37003800I326200J0D01*
G01*
X165439500Y-37003800D01*
G75*
G02*
X165765700Y-37330000I0J-326200D01*
G01*
X165765700Y-38230000D01*
G75*
G02*
X165439500Y-38556200I-326200J0D01*
G01*
X164914500Y-38556200D01*
G75*
G02*
X164588300Y-38230000I0J326200D01*
G01*
G37*
G36*
G01*
X166413300Y-38230000D02*
X166413300Y-37330000D01*
G75*
G02*
X166739500Y-37003800I326200J0D01*
G01*
X167264500Y-37003800D01*
G75*
G02*
X167590700Y-37330000I0J-326200D01*
G01*
X167590700Y-38230000D01*
G75*
G02*
X167264500Y-38556200I-326200J0D01*
G01*
X166739500Y-38556200D01*
G75*
G02*
X166413300Y-38230000I0J326200D01*
G01*
G37*
G36*
G01*
X132411700Y-141470000D02*
X132411700Y-142370000D01*
G75*
G02*
X132085500Y-142696200I-326200J0D01*
G01*
X131560500Y-142696200D01*
G75*
G02*
X131234300Y-142370000I0J326200D01*
G01*
X131234300Y-141470000D01*
G75*
G02*
X131560500Y-141143800I326200J0D01*
G01*
X132085500Y-141143800D01*
G75*
G02*
X132411700Y-141470000I0J-326200D01*
G01*
G37*
G36*
G01*
X130586700Y-141470000D02*
X130586700Y-142370000D01*
G75*
G02*
X130260500Y-142696200I-326200J0D01*
G01*
X129735500Y-142696200D01*
G75*
G02*
X129409300Y-142370000I0J326200D01*
G01*
X129409300Y-141470000D01*
G75*
G02*
X129735500Y-141143800I326200J0D01*
G01*
X130260500Y-141143800D01*
G75*
G02*
X130586700Y-141470000I0J-326200D01*
G01*
G37*
D12*
X139419500Y-110170000D03*
D10*
X178418196Y-141920000D03*
X118365041Y-155457463D03*
X178634959Y-141082536D03*
G36*
G01*
X123841500Y-44218800D02*
X126041500Y-44218800D01*
G75*
G02*
X126117700Y-44295000I0J-76200D01*
G01*
X126117700Y-46495000D01*
G75*
G02*
X126041500Y-46571200I-76200J0D01*
G01*
X123841500Y-46571200D01*
G75*
G02*
X123765300Y-46495000I0J76200D01*
G01*
X123765300Y-44295000D01*
G75*
G02*
X123841500Y-44218800I76200J0D01*
G01*
G37*
D11*
X124941500Y-47935000D03*
X124941500Y-50475000D03*
X124941500Y-53015000D03*
D10*
X178662500Y-34393333D03*
D12*
X139419500Y-140650000D03*
G36*
G01*
X173158500Y-38961200D02*
X170958500Y-38961200D01*
G75*
G02*
X170882300Y-38885000I0J76200D01*
G01*
X170882300Y-36685000D01*
G75*
G02*
X170958500Y-36608800I76200J0D01*
G01*
X173158500Y-36608800D01*
G75*
G02*
X173234700Y-36685000I0J-76200D01*
G01*
X173234700Y-38885000D01*
G75*
G02*
X173158500Y-38961200I-76200J0D01*
G01*
G37*
D11*
X172058500Y-35245000D03*
X172058500Y-32705000D03*
X172058500Y-30165000D03*
G36*
G01*
X123841500Y-135658800D02*
X126041500Y-135658800D01*
G75*
G02*
X126117700Y-135735000I0J-76200D01*
G01*
X126117700Y-137935000D01*
G75*
G02*
X126041500Y-138011200I-76200J0D01*
G01*
X123841500Y-138011200D01*
G75*
G02*
X123765300Y-137935000I0J76200D01*
G01*
X123765300Y-135735000D01*
G75*
G02*
X123841500Y-135658800I76200J0D01*
G01*
G37*
X124941500Y-139375000D03*
X124941500Y-141915000D03*
X124941500Y-144455000D03*
D10*
X178662500Y-65720000D03*
X178662500Y-63180000D03*
X178418196Y-50480000D03*
X118365041Y-125842536D03*
X178418196Y-47940000D03*
X178662500Y-95353333D03*
X178662500Y-126680000D03*
G36*
G01*
X169697250Y-108668800D02*
X170609750Y-108668800D01*
G75*
G02*
X170929700Y-108988750I0J-319950D01*
G01*
X170929700Y-109476250D01*
G75*
G02*
X170609750Y-109796200I-319950J0D01*
G01*
X169697250Y-109796200D01*
G75*
G02*
X169377300Y-109476250I0J319950D01*
G01*
X169377300Y-108988750D01*
G75*
G02*
X169697250Y-108668800I319950J0D01*
G01*
G37*
G36*
G01*
X169697250Y-110543800D02*
X170609750Y-110543800D01*
G75*
G02*
X170929700Y-110863750I0J-319950D01*
G01*
X170929700Y-111351250D01*
G75*
G02*
X170609750Y-111671200I-319950J0D01*
G01*
X169697250Y-111671200D01*
G75*
G02*
X169377300Y-111351250I0J319950D01*
G01*
X169377300Y-110863750D01*
G75*
G02*
X169697250Y-110543800I319950J0D01*
G01*
G37*
X178418196Y-169860000D03*
X118365041Y-34402536D03*
G36*
G01*
X127302750Y-157391200D02*
X126390250Y-157391200D01*
G75*
G02*
X126070300Y-157071250I0J319950D01*
G01*
X126070300Y-156583750D01*
G75*
G02*
X126390250Y-156263800I319950J0D01*
G01*
X127302750Y-156263800D01*
G75*
G02*
X127622700Y-156583750I0J-319950D01*
G01*
X127622700Y-157071250D01*
G75*
G02*
X127302750Y-157391200I-319950J0D01*
G01*
G37*
G36*
G01*
X127302750Y-155516200D02*
X126390250Y-155516200D01*
G75*
G02*
X126070300Y-155196250I0J319950D01*
G01*
X126070300Y-154708750D01*
G75*
G02*
X126390250Y-154388800I319950J0D01*
G01*
X127302750Y-154388800D01*
G75*
G02*
X127622700Y-154708750I0J-319950D01*
G01*
X127622700Y-155196250D01*
G75*
G02*
X127302750Y-155516200I-319950J0D01*
G01*
G37*
X178418196Y-139380000D03*
G36*
G01*
X123841500Y-105178800D02*
X126041500Y-105178800D01*
G75*
G02*
X126117700Y-105255000I0J-76200D01*
G01*
X126117700Y-107455000D01*
G75*
G02*
X126041500Y-107531200I-76200J0D01*
G01*
X123841500Y-107531200D01*
G75*
G02*
X123765300Y-107455000I0J76200D01*
G01*
X123765300Y-105255000D01*
G75*
G02*
X123841500Y-105178800I76200J0D01*
G01*
G37*
D11*
X124941500Y-108895000D03*
X124941500Y-111435000D03*
X124941500Y-113975000D03*
D10*
X178634959Y-140217463D03*
X118337500Y-170706666D03*
X178662500Y-64026666D03*
X118337500Y-108900000D03*
G36*
G01*
X124762750Y-157391200D02*
X123850250Y-157391200D01*
G75*
G02*
X123530300Y-157071250I0J319950D01*
G01*
X123530300Y-156583750D01*
G75*
G02*
X123850250Y-156263800I319950J0D01*
G01*
X124762750Y-156263800D01*
G75*
G02*
X125082700Y-156583750I0J-319950D01*
G01*
X125082700Y-157071250D01*
G75*
G02*
X124762750Y-157391200I-319950J0D01*
G01*
G37*
G36*
G01*
X124762750Y-155516200D02*
X123850250Y-155516200D01*
G75*
G02*
X123530300Y-155196250I0J319950D01*
G01*
X123530300Y-154708750D01*
G75*
G02*
X123850250Y-154388800I319950J0D01*
G01*
X124762750Y-154388800D01*
G75*
G02*
X125082700Y-154708750I0J-319950D01*
G01*
X125082700Y-155196250D01*
G75*
G02*
X124762750Y-155516200I-319950J0D01*
G01*
G37*
X118337500Y-110593333D03*
X178418196Y-172400000D03*
G36*
G01*
X169697250Y-78188800D02*
X170609750Y-78188800D01*
G75*
G02*
X170929700Y-78508750I0J-319950D01*
G01*
X170929700Y-78996250D01*
G75*
G02*
X170609750Y-79316200I-319950J0D01*
G01*
X169697250Y-79316200D01*
G75*
G02*
X169377300Y-78996250I0J319950D01*
G01*
X169377300Y-78508750D01*
G75*
G02*
X169697250Y-78188800I319950J0D01*
G01*
G37*
G36*
G01*
X169697250Y-80063800D02*
X170609750Y-80063800D01*
G75*
G02*
X170929700Y-80383750I0J-319950D01*
G01*
X170929700Y-80871250D01*
G75*
G02*
X170609750Y-81191200I-319950J0D01*
G01*
X169697250Y-81191200D01*
G75*
G02*
X169377300Y-80871250I0J319950D01*
G01*
X169377300Y-80383750D01*
G75*
G02*
X169697250Y-80063800I319950J0D01*
G01*
G37*
G36*
G01*
X172237250Y-78188800D02*
X173149750Y-78188800D01*
G75*
G02*
X173469700Y-78508750I0J-319950D01*
G01*
X173469700Y-78996250D01*
G75*
G02*
X173149750Y-79316200I-319950J0D01*
G01*
X172237250Y-79316200D01*
G75*
G02*
X171917300Y-78996250I0J319950D01*
G01*
X171917300Y-78508750D01*
G75*
G02*
X172237250Y-78188800I319950J0D01*
G01*
G37*
G36*
G01*
X172237250Y-80063800D02*
X173149750Y-80063800D01*
G75*
G02*
X173469700Y-80383750I0J-319950D01*
G01*
X173469700Y-80871250D01*
G75*
G02*
X173149750Y-81191200I-319950J0D01*
G01*
X172237250Y-81191200D01*
G75*
G02*
X171917300Y-80871250I0J319950D01*
G01*
X171917300Y-80383750D01*
G75*
G02*
X172237250Y-80063800I319950J0D01*
G01*
G37*
G36*
G01*
X174777250Y-169628800D02*
X175689750Y-169628800D01*
G75*
G02*
X176009700Y-169948750I0J-319950D01*
G01*
X176009700Y-170436250D01*
G75*
G02*
X175689750Y-170756200I-319950J0D01*
G01*
X174777250Y-170756200D01*
G75*
G02*
X174457300Y-170436250I0J319950D01*
G01*
X174457300Y-169948750D01*
G75*
G02*
X174777250Y-169628800I319950J0D01*
G01*
G37*
G36*
G01*
X174777250Y-171503800D02*
X175689750Y-171503800D01*
G75*
G02*
X176009700Y-171823750I0J-319950D01*
G01*
X176009700Y-172311250D01*
G75*
G02*
X175689750Y-172631200I-319950J0D01*
G01*
X174777250Y-172631200D01*
G75*
G02*
X174457300Y-172311250I0J319950D01*
G01*
X174457300Y-171823750D01*
G75*
G02*
X174777250Y-171503800I319950J0D01*
G01*
G37*
X178418196Y-111440000D03*
X118337500Y-79266666D03*
D12*
X157580500Y-155890000D03*
D10*
X118337500Y-139380000D03*
X178662500Y-64873333D03*
G36*
G01*
X123841500Y-74698800D02*
X126041500Y-74698800D01*
G75*
G02*
X126117700Y-74775000I0J-76200D01*
G01*
X126117700Y-76975000D01*
G75*
G02*
X126041500Y-77051200I-76200J0D01*
G01*
X123841500Y-77051200D01*
G75*
G02*
X123765300Y-76975000I0J76200D01*
G01*
X123765300Y-74775000D01*
G75*
G02*
X123841500Y-74698800I76200J0D01*
G01*
G37*
D11*
X124941500Y-78415000D03*
X124941500Y-80955000D03*
X124941500Y-83495000D03*
D12*
X157580500Y-64450000D03*
D10*
X178634959Y-110602536D03*
G36*
G01*
X173158500Y-130401200D02*
X170958500Y-130401200D01*
G75*
G02*
X170882300Y-130325000I0J76200D01*
G01*
X170882300Y-128125000D01*
G75*
G02*
X170958500Y-128048800I76200J0D01*
G01*
X173158500Y-128048800D01*
G75*
G02*
X173234700Y-128125000I0J-76200D01*
G01*
X173234700Y-130325000D01*
G75*
G02*
X173158500Y-130401200I-76200J0D01*
G01*
G37*
D11*
X172058500Y-126685000D03*
X172058500Y-124145000D03*
X172058500Y-121605000D03*
G36*
G01*
X174777250Y-47708800D02*
X175689750Y-47708800D01*
G75*
G02*
X176009700Y-48028750I0J-319950D01*
G01*
X176009700Y-48516250D01*
G75*
G02*
X175689750Y-48836200I-319950J0D01*
G01*
X174777250Y-48836200D01*
G75*
G02*
X174457300Y-48516250I0J319950D01*
G01*
X174457300Y-48028750D01*
G75*
G02*
X174777250Y-47708800I319950J0D01*
G01*
G37*
G36*
G01*
X174777250Y-49583800D02*
X175689750Y-49583800D01*
G75*
G02*
X176009700Y-49903750I0J-319950D01*
G01*
X176009700Y-50391250D01*
G75*
G02*
X175689750Y-50711200I-319950J0D01*
G01*
X174777250Y-50711200D01*
G75*
G02*
X174457300Y-50391250I0J319950D01*
G01*
X174457300Y-49903750D01*
G75*
G02*
X174777250Y-49583800I319950J0D01*
G01*
G37*
D10*
X118337500Y-171553333D03*
X118365041Y-64882536D03*
G36*
G01*
X124762750Y-96431200D02*
X123850250Y-96431200D01*
G75*
G02*
X123530300Y-96111250I0J319950D01*
G01*
X123530300Y-95623750D01*
G75*
G02*
X123850250Y-95303800I319950J0D01*
G01*
X124762750Y-95303800D01*
G75*
G02*
X125082700Y-95623750I0J-319950D01*
G01*
X125082700Y-96111250D01*
G75*
G02*
X124762750Y-96431200I-319950J0D01*
G01*
G37*
G36*
G01*
X124762750Y-94556200D02*
X123850250Y-94556200D01*
G75*
G02*
X123530300Y-94236250I0J319950D01*
G01*
X123530300Y-93748750D01*
G75*
G02*
X123850250Y-93428800I319950J0D01*
G01*
X124762750Y-93428800D01*
G75*
G02*
X125082700Y-93748750I0J-319950D01*
G01*
X125082700Y-94236250D01*
G75*
G02*
X124762750Y-94556200I-319950J0D01*
G01*
G37*
G36*
G01*
X169697250Y-169628800D02*
X170609750Y-169628800D01*
G75*
G02*
X170929700Y-169948750I0J-319950D01*
G01*
X170929700Y-170436250D01*
G75*
G02*
X170609750Y-170756200I-319950J0D01*
G01*
X169697250Y-170756200D01*
G75*
G02*
X169377300Y-170436250I0J319950D01*
G01*
X169377300Y-169948750D01*
G75*
G02*
X169697250Y-169628800I319950J0D01*
G01*
G37*
G36*
G01*
X169697250Y-171503800D02*
X170609750Y-171503800D01*
G75*
G02*
X170929700Y-171823750I0J-319950D01*
G01*
X170929700Y-172311250D01*
G75*
G02*
X170609750Y-172631200I-319950J0D01*
G01*
X169697250Y-172631200D01*
G75*
G02*
X169377300Y-172311250I0J319950D01*
G01*
X169377300Y-171823750D01*
G75*
G02*
X169697250Y-171503800I319950J0D01*
G01*
G37*
D12*
X157580500Y-125410000D03*
D10*
X178634959Y-80122536D03*
G36*
G01*
X164588300Y-33150000D02*
X164588300Y-32250000D01*
G75*
G02*
X164914500Y-31923800I326200J0D01*
G01*
X165439500Y-31923800D01*
G75*
G02*
X165765700Y-32250000I0J-326200D01*
G01*
X165765700Y-33150000D01*
G75*
G02*
X165439500Y-33476200I-326200J0D01*
G01*
X164914500Y-33476200D01*
G75*
G02*
X164588300Y-33150000I0J326200D01*
G01*
G37*
G36*
G01*
X166413300Y-33150000D02*
X166413300Y-32250000D01*
G75*
G02*
X166739500Y-31923800I326200J0D01*
G01*
X167264500Y-31923800D01*
G75*
G02*
X167590700Y-32250000I0J-326200D01*
G01*
X167590700Y-33150000D01*
G75*
G02*
X167264500Y-33476200I-326200J0D01*
G01*
X166739500Y-33476200D01*
G75*
G02*
X166413300Y-33150000I0J326200D01*
G01*
G37*
X178418196Y-108900000D03*
G36*
G01*
X164588300Y-127130000D02*
X164588300Y-126230000D01*
G75*
G02*
X164914500Y-125903800I326200J0D01*
G01*
X165439500Y-125903800D01*
G75*
G02*
X165765700Y-126230000I0J-326200D01*
G01*
X165765700Y-127130000D01*
G75*
G02*
X165439500Y-127456200I-326200J0D01*
G01*
X164914500Y-127456200D01*
G75*
G02*
X164588300Y-127130000I0J326200D01*
G01*
G37*
G36*
G01*
X166413300Y-127130000D02*
X166413300Y-126230000D01*
G75*
G02*
X166739500Y-125903800I326200J0D01*
G01*
X167264500Y-125903800D01*
G75*
G02*
X167590700Y-126230000I0J-326200D01*
G01*
X167590700Y-127130000D01*
G75*
G02*
X167264500Y-127456200I-326200J0D01*
G01*
X166739500Y-127456200D01*
G75*
G02*
X166413300Y-127130000I0J326200D01*
G01*
G37*
X118337500Y-141920000D03*
X178662500Y-35240000D03*
D13*
X118337500Y-22540000D03*
D10*
X118581804Y-96200000D03*
X118581804Y-126680000D03*
D13*
X118337500Y-182560000D03*
D10*
X118337500Y-109746666D03*
G36*
G01*
X127302750Y-96431200D02*
X126390250Y-96431200D01*
G75*
G02*
X126070300Y-96111250I0J319950D01*
G01*
X126070300Y-95623750D01*
G75*
G02*
X126390250Y-95303800I319950J0D01*
G01*
X127302750Y-95303800D01*
G75*
G02*
X127622700Y-95623750I0J-319950D01*
G01*
X127622700Y-96111250D01*
G75*
G02*
X127302750Y-96431200I-319950J0D01*
G01*
G37*
G36*
G01*
X127302750Y-94556200D02*
X126390250Y-94556200D01*
G75*
G02*
X126070300Y-94236250I0J319950D01*
G01*
X126070300Y-93748750D01*
G75*
G02*
X126390250Y-93428800I319950J0D01*
G01*
X127302750Y-93428800D01*
G75*
G02*
X127622700Y-93748750I0J-319950D01*
G01*
X127622700Y-94236250D01*
G75*
G02*
X127302750Y-94556200I-319950J0D01*
G01*
G37*
G36*
G01*
X122222750Y-96431200D02*
X121310250Y-96431200D01*
G75*
G02*
X120990300Y-96111250I0J319950D01*
G01*
X120990300Y-95623750D01*
G75*
G02*
X121310250Y-95303800I319950J0D01*
G01*
X122222750Y-95303800D01*
G75*
G02*
X122542700Y-95623750I0J-319950D01*
G01*
X122542700Y-96111250D01*
G75*
G02*
X122222750Y-96431200I-319950J0D01*
G01*
G37*
G36*
G01*
X122222750Y-94556200D02*
X121310250Y-94556200D01*
G75*
G02*
X120990300Y-94236250I0J319950D01*
G01*
X120990300Y-93748750D01*
G75*
G02*
X121310250Y-93428800I319950J0D01*
G01*
X122222750Y-93428800D01*
G75*
G02*
X122542700Y-93748750I0J-319950D01*
G01*
X122542700Y-94236250D01*
G75*
G02*
X122222750Y-94556200I-319950J0D01*
G01*
G37*
X178634959Y-48777463D03*
D12*
X157580500Y-33970000D03*
D13*
X178662500Y-22540000D03*
D10*
X178634959Y-171562536D03*
G36*
G01*
X132411700Y-105910000D02*
X132411700Y-106810000D01*
G75*
G02*
X132085500Y-107136200I-326200J0D01*
G01*
X131560500Y-107136200D01*
G75*
G02*
X131234300Y-106810000I0J326200D01*
G01*
X131234300Y-105910000D01*
G75*
G02*
X131560500Y-105583800I326200J0D01*
G01*
X132085500Y-105583800D01*
G75*
G02*
X132411700Y-105910000I0J-326200D01*
G01*
G37*
G36*
G01*
X130586700Y-105910000D02*
X130586700Y-106810000D01*
G75*
G02*
X130260500Y-107136200I-326200J0D01*
G01*
X129735500Y-107136200D01*
G75*
G02*
X129409300Y-106810000I0J326200D01*
G01*
X129409300Y-105910000D01*
G75*
G02*
X129735500Y-105583800I326200J0D01*
G01*
X130260500Y-105583800D01*
G75*
G02*
X130586700Y-105910000I0J-326200D01*
G01*
G37*
G36*
G01*
X164588300Y-157610000D02*
X164588300Y-156710000D01*
G75*
G02*
X164914500Y-156383800I326200J0D01*
G01*
X165439500Y-156383800D01*
G75*
G02*
X165765700Y-156710000I0J-326200D01*
G01*
X165765700Y-157610000D01*
G75*
G02*
X165439500Y-157936200I-326200J0D01*
G01*
X164914500Y-157936200D01*
G75*
G02*
X164588300Y-157610000I0J326200D01*
G01*
G37*
G36*
G01*
X166413300Y-157610000D02*
X166413300Y-156710000D01*
G75*
G02*
X166739500Y-156383800I326200J0D01*
G01*
X167264500Y-156383800D01*
G75*
G02*
X167590700Y-156710000I0J-326200D01*
G01*
X167590700Y-157610000D01*
G75*
G02*
X167264500Y-157936200I-326200J0D01*
G01*
X166739500Y-157936200D01*
G75*
G02*
X166413300Y-157610000I0J326200D01*
G01*
G37*
X118581804Y-63180000D03*
G36*
G01*
X172237250Y-108668800D02*
X173149750Y-108668800D01*
G75*
G02*
X173469700Y-108988750I0J-319950D01*
G01*
X173469700Y-109476250D01*
G75*
G02*
X173149750Y-109796200I-319950J0D01*
G01*
X172237250Y-109796200D01*
G75*
G02*
X171917300Y-109476250I0J319950D01*
G01*
X171917300Y-108988750D01*
G75*
G02*
X172237250Y-108668800I319950J0D01*
G01*
G37*
G36*
G01*
X172237250Y-110543800D02*
X173149750Y-110543800D01*
G75*
G02*
X173469700Y-110863750I0J-319950D01*
G01*
X173469700Y-111351250D01*
G75*
G02*
X173149750Y-111671200I-319950J0D01*
G01*
X172237250Y-111671200D01*
G75*
G02*
X171917300Y-111351250I0J319950D01*
G01*
X171917300Y-110863750D01*
G75*
G02*
X172237250Y-110543800I319950J0D01*
G01*
G37*
X178662500Y-155466666D03*
G36*
G01*
X132411700Y-75430000D02*
X132411700Y-76330000D01*
G75*
G02*
X132085500Y-76656200I-326200J0D01*
G01*
X131560500Y-76656200D01*
G75*
G02*
X131234300Y-76330000I0J326200D01*
G01*
X131234300Y-75430000D01*
G75*
G02*
X131560500Y-75103800I326200J0D01*
G01*
X132085500Y-75103800D01*
G75*
G02*
X132411700Y-75430000I0J-326200D01*
G01*
G37*
G36*
G01*
X130586700Y-75430000D02*
X130586700Y-76330000D01*
G75*
G02*
X130260500Y-76656200I-326200J0D01*
G01*
X129735500Y-76656200D01*
G75*
G02*
X129409300Y-76330000I0J326200D01*
G01*
X129409300Y-75430000D01*
G75*
G02*
X129735500Y-75103800I326200J0D01*
G01*
X130260500Y-75103800D01*
G75*
G02*
X130586700Y-75430000I0J-326200D01*
G01*
G37*
X118337500Y-48786666D03*
G36*
G01*
X132411700Y-171950000D02*
X132411700Y-172850000D01*
G75*
G02*
X132085500Y-173176200I-326200J0D01*
G01*
X131560500Y-173176200D01*
G75*
G02*
X131234300Y-172850000I0J326200D01*
G01*
X131234300Y-171950000D01*
G75*
G02*
X131560500Y-171623800I326200J0D01*
G01*
X132085500Y-171623800D01*
G75*
G02*
X132411700Y-171950000I0J-326200D01*
G01*
G37*
G36*
G01*
X130586700Y-171950000D02*
X130586700Y-172850000D01*
G75*
G02*
X130260500Y-173176200I-326200J0D01*
G01*
X129735500Y-173176200D01*
G75*
G02*
X129409300Y-172850000I0J326200D01*
G01*
X129409300Y-171950000D01*
G75*
G02*
X129735500Y-171623800I326200J0D01*
G01*
X130260500Y-171623800D01*
G75*
G02*
X130586700Y-171950000I0J-326200D01*
G01*
G37*
G36*
G01*
X174777250Y-139148800D02*
X175689750Y-139148800D01*
G75*
G02*
X176009700Y-139468750I0J-319950D01*
G01*
X176009700Y-139956250D01*
G75*
G02*
X175689750Y-140276200I-319950J0D01*
G01*
X174777250Y-140276200D01*
G75*
G02*
X174457300Y-139956250I0J319950D01*
G01*
X174457300Y-139468750D01*
G75*
G02*
X174777250Y-139148800I319950J0D01*
G01*
G37*
G36*
G01*
X174777250Y-141023800D02*
X175689750Y-141023800D01*
G75*
G02*
X176009700Y-141343750I0J-319950D01*
G01*
X176009700Y-141831250D01*
G75*
G02*
X175689750Y-142151200I-319950J0D01*
G01*
X174777250Y-142151200D01*
G75*
G02*
X174457300Y-141831250I0J319950D01*
G01*
X174457300Y-141343750D01*
G75*
G02*
X174777250Y-141023800I319950J0D01*
G01*
G37*
G36*
G01*
X132411700Y-110990000D02*
X132411700Y-111890000D01*
G75*
G02*
X132085500Y-112216200I-326200J0D01*
G01*
X131560500Y-112216200D01*
G75*
G02*
X131234300Y-111890000I0J326200D01*
G01*
X131234300Y-110990000D01*
G75*
G02*
X131560500Y-110663800I326200J0D01*
G01*
X132085500Y-110663800D01*
G75*
G02*
X132411700Y-110990000I0J-326200D01*
G01*
G37*
G36*
G01*
X130586700Y-110990000D02*
X130586700Y-111890000D01*
G75*
G02*
X130260500Y-112216200I-326200J0D01*
G01*
X129735500Y-112216200D01*
G75*
G02*
X129409300Y-111890000I0J326200D01*
G01*
X129409300Y-110990000D01*
G75*
G02*
X129735500Y-110663800I326200J0D01*
G01*
X130260500Y-110663800D01*
G75*
G02*
X130586700Y-110990000I0J-326200D01*
G01*
G37*
D12*
X139419500Y-49210000D03*
G36*
G01*
X164588300Y-124590000D02*
X164588300Y-123690000D01*
G75*
G02*
X164914500Y-123363800I326200J0D01*
G01*
X165439500Y-123363800D01*
G75*
G02*
X165765700Y-123690000I0J-326200D01*
G01*
X165765700Y-124590000D01*
G75*
G02*
X165439500Y-124916200I-326200J0D01*
G01*
X164914500Y-124916200D01*
G75*
G02*
X164588300Y-124590000I0J326200D01*
G01*
G37*
G36*
G01*
X166413300Y-124590000D02*
X166413300Y-123690000D01*
G75*
G02*
X166739500Y-123363800I326200J0D01*
G01*
X167264500Y-123363800D01*
G75*
G02*
X167590700Y-123690000I0J-326200D01*
G01*
X167590700Y-124590000D01*
G75*
G02*
X167264500Y-124916200I-326200J0D01*
G01*
X166739500Y-124916200D01*
G75*
G02*
X166413300Y-124590000I0J326200D01*
G01*
G37*
G36*
G01*
X124762750Y-126911200D02*
X123850250Y-126911200D01*
G75*
G02*
X123530300Y-126591250I0J319950D01*
G01*
X123530300Y-126103750D01*
G75*
G02*
X123850250Y-125783800I319950J0D01*
G01*
X124762750Y-125783800D01*
G75*
G02*
X125082700Y-126103750I0J-319950D01*
G01*
X125082700Y-126591250D01*
G75*
G02*
X124762750Y-126911200I-319950J0D01*
G01*
G37*
G36*
G01*
X124762750Y-125036200D02*
X123850250Y-125036200D01*
G75*
G02*
X123530300Y-124716250I0J319950D01*
G01*
X123530300Y-124228750D01*
G75*
G02*
X123850250Y-123908800I319950J0D01*
G01*
X124762750Y-123908800D01*
G75*
G02*
X125082700Y-124228750I0J-319950D01*
G01*
X125082700Y-124716250D01*
G75*
G02*
X124762750Y-125036200I-319950J0D01*
G01*
G37*
D10*
X118365041Y-95362536D03*
G36*
G01*
X127302750Y-126911200D02*
X126390250Y-126911200D01*
G75*
G02*
X126070300Y-126591250I0J319950D01*
G01*
X126070300Y-126103750D01*
G75*
G02*
X126390250Y-125783800I319950J0D01*
G01*
X127302750Y-125783800D01*
G75*
G02*
X127622700Y-126103750I0J-319950D01*
G01*
X127622700Y-126591250D01*
G75*
G02*
X127302750Y-126911200I-319950J0D01*
G01*
G37*
G36*
G01*
X127302750Y-125036200D02*
X126390250Y-125036200D01*
G75*
G02*
X126070300Y-124716250I0J319950D01*
G01*
X126070300Y-124228750D01*
G75*
G02*
X126390250Y-123908800I319950J0D01*
G01*
X127302750Y-123908800D01*
G75*
G02*
X127622700Y-124228750I0J-319950D01*
G01*
X127622700Y-124716250D01*
G75*
G02*
X127302750Y-125036200I-319950J0D01*
G01*
G37*
M02*
