G04 #@! TF.GenerationSoftware,KiCad,Pcbnew,6.0.2+dfsg-1*
G04 #@! TF.CreationDate,2024-06-30T21:45:31-06:00*
G04 #@! TF.ProjectId,ckt-signal-array,636b742d-7369-4676-9e61-6c2d61727261,rev?*
G04 #@! TF.SameCoordinates,Original*
G04 #@! TF.FileFunction,Legend,Top*
G04 #@! TF.FilePolarity,Positive*
%FSLAX46Y46*%
G04 Gerber Fmt 4.6, Leading zero omitted, Abs format (unit mm)*
G04 Created by KiCad (PCBNEW 6.0.2+dfsg-1) date 2024-06-30 21:45:31*
%MOMM*%
%LPD*%
G01*
G04 APERTURE LIST*
%ADD10C,0.150000*%
%ADD11C,0.120000*%
G04 APERTURE END LIST*
D10*
X177247357Y-30740571D02*
X177247357Y-29579428D01*
X177827928Y-30160000D02*
X176666785Y-30160000D01*
X119752642Y-52439428D02*
X119752642Y-53600571D01*
X119172071Y-53020000D02*
X120333214Y-53020000D01*
X177247357Y-61220571D02*
X177247357Y-60059428D01*
X177827928Y-60640000D02*
X176666785Y-60640000D01*
X177247357Y-91700571D02*
X177247357Y-90539428D01*
X177827928Y-91120000D02*
X176666785Y-91120000D01*
X119752642Y-82919428D02*
X119752642Y-84080571D01*
X119172071Y-83500000D02*
X120333214Y-83500000D01*
X119752642Y-113399428D02*
X119752642Y-114560571D01*
X119172071Y-113980000D02*
X120333214Y-113980000D01*
X177247357Y-122180571D02*
X177247357Y-121019428D01*
X177827928Y-121600000D02*
X176666785Y-121600000D01*
X119752642Y-143879428D02*
X119752642Y-145040571D01*
X119172071Y-144460000D02*
X120333214Y-144460000D01*
X177247357Y-152660571D02*
X177247357Y-151499428D01*
X177827928Y-152080000D02*
X176666785Y-152080000D01*
X119752642Y-174359428D02*
X119752642Y-175520571D01*
X119172071Y-174940000D02*
X120333214Y-174940000D01*
X177827928Y-128748285D02*
X177102214Y-129256285D01*
X177827928Y-129619142D02*
X176303928Y-129619142D01*
X176303928Y-129038571D01*
X176376500Y-128893428D01*
X176449071Y-128820857D01*
X176594214Y-128748285D01*
X176811928Y-128748285D01*
X176957071Y-128820857D01*
X177029642Y-128893428D01*
X177102214Y-129038571D01*
X177102214Y-129619142D01*
X177827928Y-159228285D02*
X177102214Y-159736285D01*
X177827928Y-160099142D02*
X176303928Y-160099142D01*
X176303928Y-159518571D01*
X176376500Y-159373428D01*
X176449071Y-159300857D01*
X176594214Y-159228285D01*
X176811928Y-159228285D01*
X176957071Y-159300857D01*
X177029642Y-159373428D01*
X177102214Y-159518571D01*
X177102214Y-160099142D01*
X119172071Y-167791714D02*
X119897785Y-167283714D01*
X119172071Y-166920857D02*
X120696071Y-166920857D01*
X120696071Y-167501428D01*
X120623500Y-167646571D01*
X120550928Y-167719142D01*
X120405785Y-167791714D01*
X120188071Y-167791714D01*
X120042928Y-167719142D01*
X119970357Y-167646571D01*
X119897785Y-167501428D01*
X119897785Y-166920857D01*
X177827928Y-37308285D02*
X177102214Y-37816285D01*
X177827928Y-38179142D02*
X176303928Y-38179142D01*
X176303928Y-37598571D01*
X176376500Y-37453428D01*
X176449071Y-37380857D01*
X176594214Y-37308285D01*
X176811928Y-37308285D01*
X176957071Y-37380857D01*
X177029642Y-37453428D01*
X177102214Y-37598571D01*
X177102214Y-38179142D01*
X119172071Y-45871714D02*
X119897785Y-45363714D01*
X119172071Y-45000857D02*
X120696071Y-45000857D01*
X120696071Y-45581428D01*
X120623500Y-45726571D01*
X120550928Y-45799142D01*
X120405785Y-45871714D01*
X120188071Y-45871714D01*
X120042928Y-45799142D01*
X119970357Y-45726571D01*
X119897785Y-45581428D01*
X119897785Y-45000857D01*
X119172071Y-76351714D02*
X119897785Y-75843714D01*
X119172071Y-75480857D02*
X120696071Y-75480857D01*
X120696071Y-76061428D01*
X120623500Y-76206571D01*
X120550928Y-76279142D01*
X120405785Y-76351714D01*
X120188071Y-76351714D01*
X120042928Y-76279142D01*
X119970357Y-76206571D01*
X119897785Y-76061428D01*
X119897785Y-75480857D01*
X177827928Y-67788285D02*
X177102214Y-68296285D01*
X177827928Y-68659142D02*
X176303928Y-68659142D01*
X176303928Y-68078571D01*
X176376500Y-67933428D01*
X176449071Y-67860857D01*
X176594214Y-67788285D01*
X176811928Y-67788285D01*
X176957071Y-67860857D01*
X177029642Y-67933428D01*
X177102214Y-68078571D01*
X177102214Y-68659142D01*
X119172071Y-106831714D02*
X119897785Y-106323714D01*
X119172071Y-105960857D02*
X120696071Y-105960857D01*
X120696071Y-106541428D01*
X120623500Y-106686571D01*
X120550928Y-106759142D01*
X120405785Y-106831714D01*
X120188071Y-106831714D01*
X120042928Y-106759142D01*
X119970357Y-106686571D01*
X119897785Y-106541428D01*
X119897785Y-105960857D01*
X177827928Y-98268285D02*
X177102214Y-98776285D01*
X177827928Y-99139142D02*
X176303928Y-99139142D01*
X176303928Y-98558571D01*
X176376500Y-98413428D01*
X176449071Y-98340857D01*
X176594214Y-98268285D01*
X176811928Y-98268285D01*
X176957071Y-98340857D01*
X177029642Y-98413428D01*
X177102214Y-98558571D01*
X177102214Y-99139142D01*
X119172071Y-137311714D02*
X119897785Y-136803714D01*
X119172071Y-136440857D02*
X120696071Y-136440857D01*
X120696071Y-137021428D01*
X120623500Y-137166571D01*
X120550928Y-137239142D01*
X120405785Y-137311714D01*
X120188071Y-137311714D01*
X120042928Y-137239142D01*
X119970357Y-137166571D01*
X119897785Y-137021428D01*
X119897785Y-136440857D01*
X176376500Y-32300857D02*
X176303928Y-32446000D01*
X176303928Y-32663714D01*
X176376500Y-32881428D01*
X176521642Y-33026571D01*
X176666785Y-33099142D01*
X176957071Y-33171714D01*
X177174785Y-33171714D01*
X177465071Y-33099142D01*
X177610214Y-33026571D01*
X177755357Y-32881428D01*
X177827928Y-32663714D01*
X177827928Y-32518571D01*
X177755357Y-32300857D01*
X177682785Y-32228285D01*
X177174785Y-32228285D01*
X177174785Y-32518571D01*
X120623500Y-50879142D02*
X120696071Y-50734000D01*
X120696071Y-50516285D01*
X120623500Y-50298571D01*
X120478357Y-50153428D01*
X120333214Y-50080857D01*
X120042928Y-50008285D01*
X119825214Y-50008285D01*
X119534928Y-50080857D01*
X119389785Y-50153428D01*
X119244642Y-50298571D01*
X119172071Y-50516285D01*
X119172071Y-50661428D01*
X119244642Y-50879142D01*
X119317214Y-50951714D01*
X119825214Y-50951714D01*
X119825214Y-50661428D01*
X176376500Y-62780857D02*
X176303928Y-62926000D01*
X176303928Y-63143714D01*
X176376500Y-63361428D01*
X176521642Y-63506571D01*
X176666785Y-63579142D01*
X176957071Y-63651714D01*
X177174785Y-63651714D01*
X177465071Y-63579142D01*
X177610214Y-63506571D01*
X177755357Y-63361428D01*
X177827928Y-63143714D01*
X177827928Y-62998571D01*
X177755357Y-62780857D01*
X177682785Y-62708285D01*
X177174785Y-62708285D01*
X177174785Y-62998571D01*
X120623500Y-81359142D02*
X120696071Y-81214000D01*
X120696071Y-80996285D01*
X120623500Y-80778571D01*
X120478357Y-80633428D01*
X120333214Y-80560857D01*
X120042928Y-80488285D01*
X119825214Y-80488285D01*
X119534928Y-80560857D01*
X119389785Y-80633428D01*
X119244642Y-80778571D01*
X119172071Y-80996285D01*
X119172071Y-81141428D01*
X119244642Y-81359142D01*
X119317214Y-81431714D01*
X119825214Y-81431714D01*
X119825214Y-81141428D01*
X176376500Y-93260857D02*
X176303928Y-93406000D01*
X176303928Y-93623714D01*
X176376500Y-93841428D01*
X176521642Y-93986571D01*
X176666785Y-94059142D01*
X176957071Y-94131714D01*
X177174785Y-94131714D01*
X177465071Y-94059142D01*
X177610214Y-93986571D01*
X177755357Y-93841428D01*
X177827928Y-93623714D01*
X177827928Y-93478571D01*
X177755357Y-93260857D01*
X177682785Y-93188285D01*
X177174785Y-93188285D01*
X177174785Y-93478571D01*
X120623500Y-111839142D02*
X120696071Y-111694000D01*
X120696071Y-111476285D01*
X120623500Y-111258571D01*
X120478357Y-111113428D01*
X120333214Y-111040857D01*
X120042928Y-110968285D01*
X119825214Y-110968285D01*
X119534928Y-111040857D01*
X119389785Y-111113428D01*
X119244642Y-111258571D01*
X119172071Y-111476285D01*
X119172071Y-111621428D01*
X119244642Y-111839142D01*
X119317214Y-111911714D01*
X119825214Y-111911714D01*
X119825214Y-111621428D01*
X176376500Y-123740857D02*
X176303928Y-123886000D01*
X176303928Y-124103714D01*
X176376500Y-124321428D01*
X176521642Y-124466571D01*
X176666785Y-124539142D01*
X176957071Y-124611714D01*
X177174785Y-124611714D01*
X177465071Y-124539142D01*
X177610214Y-124466571D01*
X177755357Y-124321428D01*
X177827928Y-124103714D01*
X177827928Y-123958571D01*
X177755357Y-123740857D01*
X177682785Y-123668285D01*
X177174785Y-123668285D01*
X177174785Y-123958571D01*
X176376500Y-154220857D02*
X176303928Y-154366000D01*
X176303928Y-154583714D01*
X176376500Y-154801428D01*
X176521642Y-154946571D01*
X176666785Y-155019142D01*
X176957071Y-155091714D01*
X177174785Y-155091714D01*
X177465071Y-155019142D01*
X177610214Y-154946571D01*
X177755357Y-154801428D01*
X177827928Y-154583714D01*
X177827928Y-154438571D01*
X177755357Y-154220857D01*
X177682785Y-154148285D01*
X177174785Y-154148285D01*
X177174785Y-154438571D01*
X120623500Y-142319142D02*
X120696071Y-142174000D01*
X120696071Y-141956285D01*
X120623500Y-141738571D01*
X120478357Y-141593428D01*
X120333214Y-141520857D01*
X120042928Y-141448285D01*
X119825214Y-141448285D01*
X119534928Y-141520857D01*
X119389785Y-141593428D01*
X119244642Y-141738571D01*
X119172071Y-141956285D01*
X119172071Y-142101428D01*
X119244642Y-142319142D01*
X119317214Y-142391714D01*
X119825214Y-142391714D01*
X119825214Y-142101428D01*
X120623500Y-172799142D02*
X120696071Y-172654000D01*
X120696071Y-172436285D01*
X120623500Y-172218571D01*
X120478357Y-172073428D01*
X120333214Y-172000857D01*
X120042928Y-171928285D01*
X119825214Y-171928285D01*
X119534928Y-172000857D01*
X119389785Y-172073428D01*
X119244642Y-172218571D01*
X119172071Y-172436285D01*
X119172071Y-172581428D01*
X119244642Y-172799142D01*
X119317214Y-172871714D01*
X119825214Y-172871714D01*
X119825214Y-172581428D01*
X177102214Y-35240000D02*
X177827928Y-35240000D01*
X176303928Y-35748000D02*
X177102214Y-35240000D01*
X176303928Y-34732000D01*
X119897785Y-47940000D02*
X119172071Y-47940000D01*
X120696071Y-47432000D02*
X119897785Y-47940000D01*
X120696071Y-48448000D01*
X177102214Y-65720000D02*
X177827928Y-65720000D01*
X176303928Y-66228000D02*
X177102214Y-65720000D01*
X176303928Y-65212000D01*
X119897785Y-78420000D02*
X119172071Y-78420000D01*
X120696071Y-77912000D02*
X119897785Y-78420000D01*
X120696071Y-78928000D01*
X177102214Y-96200000D02*
X177827928Y-96200000D01*
X176303928Y-96708000D02*
X177102214Y-96200000D01*
X176303928Y-95692000D01*
X119897785Y-108900000D02*
X119172071Y-108900000D01*
X120696071Y-108392000D02*
X119897785Y-108900000D01*
X120696071Y-109408000D01*
X177102214Y-126680000D02*
X177827928Y-126680000D01*
X176303928Y-127188000D02*
X177102214Y-126680000D01*
X176303928Y-126172000D01*
X177102214Y-157160000D02*
X177827928Y-157160000D01*
X176303928Y-157668000D02*
X177102214Y-157160000D01*
X176303928Y-156652000D01*
X119897785Y-139380000D02*
X119172071Y-139380000D01*
X120696071Y-138872000D02*
X119897785Y-139380000D01*
X120696071Y-139888000D01*
X119897785Y-169860000D02*
X119172071Y-169860000D01*
X120696071Y-169352000D02*
X119897785Y-169860000D01*
X120696071Y-170368000D01*
X133410833Y-167899380D02*
X133077500Y-167423190D01*
X132839404Y-167899380D02*
X132839404Y-166899380D01*
X133220357Y-166899380D01*
X133315595Y-166947000D01*
X133363214Y-166994619D01*
X133410833Y-167089857D01*
X133410833Y-167232714D01*
X133363214Y-167327952D01*
X133315595Y-167375571D01*
X133220357Y-167423190D01*
X132839404Y-167423190D01*
X134363214Y-167899380D02*
X133791785Y-167899380D01*
X134077500Y-167899380D02*
X134077500Y-166899380D01*
X133982261Y-167042238D01*
X133887023Y-167137476D01*
X133791785Y-167185095D01*
X166938880Y-59830333D02*
X167653166Y-59830333D01*
X167796023Y-59877952D01*
X167891261Y-59973190D01*
X167938880Y-60116047D01*
X167938880Y-60211285D01*
X167938880Y-58830333D02*
X167938880Y-59401761D01*
X167938880Y-59116047D02*
X166938880Y-59116047D01*
X167081738Y-59211285D01*
X167176976Y-59306523D01*
X167224595Y-59401761D01*
X163589166Y-93080619D02*
X163922500Y-93556809D01*
X164160595Y-93080619D02*
X164160595Y-94080619D01*
X163779642Y-94080619D01*
X163684404Y-94033000D01*
X163636785Y-93985380D01*
X163589166Y-93890142D01*
X163589166Y-93747285D01*
X163636785Y-93652047D01*
X163684404Y-93604428D01*
X163779642Y-93556809D01*
X164160595Y-93556809D01*
X163255833Y-94080619D02*
X162636785Y-94080619D01*
X162970119Y-93699666D01*
X162827261Y-93699666D01*
X162732023Y-93652047D01*
X162684404Y-93604428D01*
X162636785Y-93509190D01*
X162636785Y-93271095D01*
X162684404Y-93175857D01*
X162732023Y-93128238D01*
X162827261Y-93080619D01*
X163112976Y-93080619D01*
X163208214Y-93128238D01*
X163255833Y-93175857D01*
X163589166Y-98160619D02*
X163922500Y-98636809D01*
X164160595Y-98160619D02*
X164160595Y-99160619D01*
X163779642Y-99160619D01*
X163684404Y-99113000D01*
X163636785Y-99065380D01*
X163589166Y-98970142D01*
X163589166Y-98827285D01*
X163636785Y-98732047D01*
X163684404Y-98684428D01*
X163779642Y-98636809D01*
X164160595Y-98636809D01*
X162636785Y-98160619D02*
X163208214Y-98160619D01*
X162922500Y-98160619D02*
X162922500Y-99160619D01*
X163017738Y-99017761D01*
X163112976Y-98922523D01*
X163208214Y-98874904D01*
X133410833Y-51059380D02*
X133077500Y-50583190D01*
X132839404Y-51059380D02*
X132839404Y-50059380D01*
X133220357Y-50059380D01*
X133315595Y-50107000D01*
X133363214Y-50154619D01*
X133410833Y-50249857D01*
X133410833Y-50392714D01*
X133363214Y-50487952D01*
X133315595Y-50535571D01*
X133220357Y-50583190D01*
X132839404Y-50583190D01*
X133744166Y-50059380D02*
X134363214Y-50059380D01*
X134029880Y-50440333D01*
X134172738Y-50440333D01*
X134267976Y-50487952D01*
X134315595Y-50535571D01*
X134363214Y-50630809D01*
X134363214Y-50868904D01*
X134315595Y-50964142D01*
X134267976Y-51011761D01*
X134172738Y-51059380D01*
X133887023Y-51059380D01*
X133791785Y-51011761D01*
X133744166Y-50964142D01*
X163589166Y-154040619D02*
X163922500Y-154516809D01*
X164160595Y-154040619D02*
X164160595Y-155040619D01*
X163779642Y-155040619D01*
X163684404Y-154993000D01*
X163636785Y-154945380D01*
X163589166Y-154850142D01*
X163589166Y-154707285D01*
X163636785Y-154612047D01*
X163684404Y-154564428D01*
X163779642Y-154516809D01*
X164160595Y-154516809D01*
X163255833Y-155040619D02*
X162636785Y-155040619D01*
X162970119Y-154659666D01*
X162827261Y-154659666D01*
X162732023Y-154612047D01*
X162684404Y-154564428D01*
X162636785Y-154469190D01*
X162636785Y-154231095D01*
X162684404Y-154135857D01*
X162732023Y-154088238D01*
X162827261Y-154040619D01*
X163112976Y-154040619D01*
X163208214Y-154088238D01*
X163255833Y-154135857D01*
X163589166Y-95747619D02*
X163922500Y-96223809D01*
X164160595Y-95747619D02*
X164160595Y-96747619D01*
X163779642Y-96747619D01*
X163684404Y-96700000D01*
X163636785Y-96652380D01*
X163589166Y-96557142D01*
X163589166Y-96414285D01*
X163636785Y-96319047D01*
X163684404Y-96271428D01*
X163779642Y-96223809D01*
X164160595Y-96223809D01*
X163208214Y-96652380D02*
X163160595Y-96700000D01*
X163065357Y-96747619D01*
X162827261Y-96747619D01*
X162732023Y-96700000D01*
X162684404Y-96652380D01*
X162636785Y-96557142D01*
X162636785Y-96461904D01*
X162684404Y-96319047D01*
X163255833Y-95747619D01*
X162636785Y-95747619D01*
X133410833Y-109352380D02*
X133077500Y-108876190D01*
X132839404Y-109352380D02*
X132839404Y-108352380D01*
X133220357Y-108352380D01*
X133315595Y-108400000D01*
X133363214Y-108447619D01*
X133410833Y-108542857D01*
X133410833Y-108685714D01*
X133363214Y-108780952D01*
X133315595Y-108828571D01*
X133220357Y-108876190D01*
X132839404Y-108876190D01*
X133791785Y-108447619D02*
X133839404Y-108400000D01*
X133934642Y-108352380D01*
X134172738Y-108352380D01*
X134267976Y-108400000D01*
X134315595Y-108447619D01*
X134363214Y-108542857D01*
X134363214Y-108638095D01*
X134315595Y-108780952D01*
X133744166Y-109352380D01*
X134363214Y-109352380D01*
X133410833Y-137419380D02*
X133077500Y-136943190D01*
X132839404Y-137419380D02*
X132839404Y-136419380D01*
X133220357Y-136419380D01*
X133315595Y-136467000D01*
X133363214Y-136514619D01*
X133410833Y-136609857D01*
X133410833Y-136752714D01*
X133363214Y-136847952D01*
X133315595Y-136895571D01*
X133220357Y-136943190D01*
X132839404Y-136943190D01*
X134363214Y-137419380D02*
X133791785Y-137419380D01*
X134077500Y-137419380D02*
X134077500Y-136419380D01*
X133982261Y-136562238D01*
X133887023Y-136657476D01*
X133791785Y-136705095D01*
X133410833Y-45979380D02*
X133077500Y-45503190D01*
X132839404Y-45979380D02*
X132839404Y-44979380D01*
X133220357Y-44979380D01*
X133315595Y-45027000D01*
X133363214Y-45074619D01*
X133410833Y-45169857D01*
X133410833Y-45312714D01*
X133363214Y-45407952D01*
X133315595Y-45455571D01*
X133220357Y-45503190D01*
X132839404Y-45503190D01*
X134363214Y-45979380D02*
X133791785Y-45979380D01*
X134077500Y-45979380D02*
X134077500Y-44979380D01*
X133982261Y-45122238D01*
X133887023Y-45217476D01*
X133791785Y-45265095D01*
X166938880Y-151270333D02*
X167653166Y-151270333D01*
X167796023Y-151317952D01*
X167891261Y-151413190D01*
X167938880Y-151556047D01*
X167938880Y-151651285D01*
X167938880Y-150270333D02*
X167938880Y-150841761D01*
X167938880Y-150556047D02*
X166938880Y-150556047D01*
X167081738Y-150651285D01*
X167176976Y-150746523D01*
X167224595Y-150841761D01*
X133410833Y-170312380D02*
X133077500Y-169836190D01*
X132839404Y-170312380D02*
X132839404Y-169312380D01*
X133220357Y-169312380D01*
X133315595Y-169360000D01*
X133363214Y-169407619D01*
X133410833Y-169502857D01*
X133410833Y-169645714D01*
X133363214Y-169740952D01*
X133315595Y-169788571D01*
X133220357Y-169836190D01*
X132839404Y-169836190D01*
X133791785Y-169407619D02*
X133839404Y-169360000D01*
X133934642Y-169312380D01*
X134172738Y-169312380D01*
X134267976Y-169360000D01*
X134315595Y-169407619D01*
X134363214Y-169502857D01*
X134363214Y-169598095D01*
X134315595Y-169740952D01*
X133744166Y-170312380D01*
X134363214Y-170312380D01*
X163589166Y-65267619D02*
X163922500Y-65743809D01*
X164160595Y-65267619D02*
X164160595Y-66267619D01*
X163779642Y-66267619D01*
X163684404Y-66220000D01*
X163636785Y-66172380D01*
X163589166Y-66077142D01*
X163589166Y-65934285D01*
X163636785Y-65839047D01*
X163684404Y-65791428D01*
X163779642Y-65743809D01*
X164160595Y-65743809D01*
X163208214Y-66172380D02*
X163160595Y-66220000D01*
X163065357Y-66267619D01*
X162827261Y-66267619D01*
X162732023Y-66220000D01*
X162684404Y-66172380D01*
X162636785Y-66077142D01*
X162636785Y-65981904D01*
X162684404Y-65839047D01*
X163255833Y-65267619D01*
X162636785Y-65267619D01*
X133410833Y-81539380D02*
X133077500Y-81063190D01*
X132839404Y-81539380D02*
X132839404Y-80539380D01*
X133220357Y-80539380D01*
X133315595Y-80587000D01*
X133363214Y-80634619D01*
X133410833Y-80729857D01*
X133410833Y-80872714D01*
X133363214Y-80967952D01*
X133315595Y-81015571D01*
X133220357Y-81063190D01*
X132839404Y-81063190D01*
X133744166Y-80539380D02*
X134363214Y-80539380D01*
X134029880Y-80920333D01*
X134172738Y-80920333D01*
X134267976Y-80967952D01*
X134315595Y-81015571D01*
X134363214Y-81110809D01*
X134363214Y-81348904D01*
X134315595Y-81444142D01*
X134267976Y-81491761D01*
X134172738Y-81539380D01*
X133887023Y-81539380D01*
X133791785Y-81491761D01*
X133744166Y-81444142D01*
X133410833Y-78872380D02*
X133077500Y-78396190D01*
X132839404Y-78872380D02*
X132839404Y-77872380D01*
X133220357Y-77872380D01*
X133315595Y-77920000D01*
X133363214Y-77967619D01*
X133410833Y-78062857D01*
X133410833Y-78205714D01*
X133363214Y-78300952D01*
X133315595Y-78348571D01*
X133220357Y-78396190D01*
X132839404Y-78396190D01*
X133791785Y-77967619D02*
X133839404Y-77920000D01*
X133934642Y-77872380D01*
X134172738Y-77872380D01*
X134267976Y-77920000D01*
X134315595Y-77967619D01*
X134363214Y-78062857D01*
X134363214Y-78158095D01*
X134315595Y-78300952D01*
X133744166Y-78872380D01*
X134363214Y-78872380D01*
X133410833Y-48392380D02*
X133077500Y-47916190D01*
X132839404Y-48392380D02*
X132839404Y-47392380D01*
X133220357Y-47392380D01*
X133315595Y-47440000D01*
X133363214Y-47487619D01*
X133410833Y-47582857D01*
X133410833Y-47725714D01*
X133363214Y-47820952D01*
X133315595Y-47868571D01*
X133220357Y-47916190D01*
X132839404Y-47916190D01*
X133791785Y-47487619D02*
X133839404Y-47440000D01*
X133934642Y-47392380D01*
X134172738Y-47392380D01*
X134267976Y-47440000D01*
X134315595Y-47487619D01*
X134363214Y-47582857D01*
X134363214Y-47678095D01*
X134315595Y-47820952D01*
X133744166Y-48392380D01*
X134363214Y-48392380D01*
X163589166Y-67680619D02*
X163922500Y-68156809D01*
X164160595Y-67680619D02*
X164160595Y-68680619D01*
X163779642Y-68680619D01*
X163684404Y-68633000D01*
X163636785Y-68585380D01*
X163589166Y-68490142D01*
X163589166Y-68347285D01*
X163636785Y-68252047D01*
X163684404Y-68204428D01*
X163779642Y-68156809D01*
X164160595Y-68156809D01*
X162636785Y-67680619D02*
X163208214Y-67680619D01*
X162922500Y-67680619D02*
X162922500Y-68680619D01*
X163017738Y-68537761D01*
X163112976Y-68442523D01*
X163208214Y-68394904D01*
X163589166Y-159120619D02*
X163922500Y-159596809D01*
X164160595Y-159120619D02*
X164160595Y-160120619D01*
X163779642Y-160120619D01*
X163684404Y-160073000D01*
X163636785Y-160025380D01*
X163589166Y-159930142D01*
X163589166Y-159787285D01*
X163636785Y-159692047D01*
X163684404Y-159644428D01*
X163779642Y-159596809D01*
X164160595Y-159596809D01*
X162636785Y-159120619D02*
X163208214Y-159120619D01*
X162922500Y-159120619D02*
X162922500Y-160120619D01*
X163017738Y-159977761D01*
X163112976Y-159882523D01*
X163208214Y-159834904D01*
X130061119Y-175749666D02*
X129346833Y-175749666D01*
X129203976Y-175702047D01*
X129108738Y-175606809D01*
X129061119Y-175463952D01*
X129061119Y-175368714D01*
X129061119Y-176749666D02*
X129061119Y-176178238D01*
X129061119Y-176463952D02*
X130061119Y-176463952D01*
X129918261Y-176368714D01*
X129823023Y-176273476D01*
X129775404Y-176178238D01*
X163589166Y-62600619D02*
X163922500Y-63076809D01*
X164160595Y-62600619D02*
X164160595Y-63600619D01*
X163779642Y-63600619D01*
X163684404Y-63553000D01*
X163636785Y-63505380D01*
X163589166Y-63410142D01*
X163589166Y-63267285D01*
X163636785Y-63172047D01*
X163684404Y-63124428D01*
X163779642Y-63076809D01*
X164160595Y-63076809D01*
X163255833Y-63600619D02*
X162636785Y-63600619D01*
X162970119Y-63219666D01*
X162827261Y-63219666D01*
X162732023Y-63172047D01*
X162684404Y-63124428D01*
X162636785Y-63029190D01*
X162636785Y-62791095D01*
X162684404Y-62695857D01*
X162732023Y-62648238D01*
X162827261Y-62600619D01*
X163112976Y-62600619D01*
X163208214Y-62648238D01*
X163255833Y-62695857D01*
X166938880Y-90310333D02*
X167653166Y-90310333D01*
X167796023Y-90357952D01*
X167891261Y-90453190D01*
X167938880Y-90596047D01*
X167938880Y-90691285D01*
X167938880Y-89310333D02*
X167938880Y-89881761D01*
X167938880Y-89596047D02*
X166938880Y-89596047D01*
X167081738Y-89691285D01*
X167176976Y-89786523D01*
X167224595Y-89881761D01*
X163589166Y-34787619D02*
X163922500Y-35263809D01*
X164160595Y-34787619D02*
X164160595Y-35787619D01*
X163779642Y-35787619D01*
X163684404Y-35740000D01*
X163636785Y-35692380D01*
X163589166Y-35597142D01*
X163589166Y-35454285D01*
X163636785Y-35359047D01*
X163684404Y-35311428D01*
X163779642Y-35263809D01*
X164160595Y-35263809D01*
X163208214Y-35692380D02*
X163160595Y-35740000D01*
X163065357Y-35787619D01*
X162827261Y-35787619D01*
X162732023Y-35740000D01*
X162684404Y-35692380D01*
X162636785Y-35597142D01*
X162636785Y-35501904D01*
X162684404Y-35359047D01*
X163255833Y-34787619D01*
X162636785Y-34787619D01*
X163589166Y-128640619D02*
X163922500Y-129116809D01*
X164160595Y-128640619D02*
X164160595Y-129640619D01*
X163779642Y-129640619D01*
X163684404Y-129593000D01*
X163636785Y-129545380D01*
X163589166Y-129450142D01*
X163589166Y-129307285D01*
X163636785Y-129212047D01*
X163684404Y-129164428D01*
X163779642Y-129116809D01*
X164160595Y-129116809D01*
X162636785Y-128640619D02*
X163208214Y-128640619D01*
X162922500Y-128640619D02*
X162922500Y-129640619D01*
X163017738Y-129497761D01*
X163112976Y-129402523D01*
X163208214Y-129354904D01*
X133410833Y-139832380D02*
X133077500Y-139356190D01*
X132839404Y-139832380D02*
X132839404Y-138832380D01*
X133220357Y-138832380D01*
X133315595Y-138880000D01*
X133363214Y-138927619D01*
X133410833Y-139022857D01*
X133410833Y-139165714D01*
X133363214Y-139260952D01*
X133315595Y-139308571D01*
X133220357Y-139356190D01*
X132839404Y-139356190D01*
X133791785Y-138927619D02*
X133839404Y-138880000D01*
X133934642Y-138832380D01*
X134172738Y-138832380D01*
X134267976Y-138880000D01*
X134315595Y-138927619D01*
X134363214Y-139022857D01*
X134363214Y-139118095D01*
X134315595Y-139260952D01*
X133744166Y-139832380D01*
X134363214Y-139832380D01*
X163589166Y-37200619D02*
X163922500Y-37676809D01*
X164160595Y-37200619D02*
X164160595Y-38200619D01*
X163779642Y-38200619D01*
X163684404Y-38153000D01*
X163636785Y-38105380D01*
X163589166Y-38010142D01*
X163589166Y-37867285D01*
X163636785Y-37772047D01*
X163684404Y-37724428D01*
X163779642Y-37676809D01*
X164160595Y-37676809D01*
X162636785Y-37200619D02*
X163208214Y-37200619D01*
X162922500Y-37200619D02*
X162922500Y-38200619D01*
X163017738Y-38057761D01*
X163112976Y-37962523D01*
X163208214Y-37914904D01*
X133410833Y-142499380D02*
X133077500Y-142023190D01*
X132839404Y-142499380D02*
X132839404Y-141499380D01*
X133220357Y-141499380D01*
X133315595Y-141547000D01*
X133363214Y-141594619D01*
X133410833Y-141689857D01*
X133410833Y-141832714D01*
X133363214Y-141927952D01*
X133315595Y-141975571D01*
X133220357Y-142023190D01*
X132839404Y-142023190D01*
X133744166Y-141499380D02*
X134363214Y-141499380D01*
X134029880Y-141880333D01*
X134172738Y-141880333D01*
X134267976Y-141927952D01*
X134315595Y-141975571D01*
X134363214Y-142070809D01*
X134363214Y-142308904D01*
X134315595Y-142404142D01*
X134267976Y-142451761D01*
X134172738Y-142499380D01*
X133887023Y-142499380D01*
X133791785Y-142451761D01*
X133744166Y-142404142D01*
X130061119Y-53829666D02*
X129346833Y-53829666D01*
X129203976Y-53782047D01*
X129108738Y-53686809D01*
X129061119Y-53543952D01*
X129061119Y-53448714D01*
X129061119Y-54829666D02*
X129061119Y-54258238D01*
X129061119Y-54543952D02*
X130061119Y-54543952D01*
X129918261Y-54448714D01*
X129823023Y-54353476D01*
X129775404Y-54258238D01*
X166938880Y-29350333D02*
X167653166Y-29350333D01*
X167796023Y-29397952D01*
X167891261Y-29493190D01*
X167938880Y-29636047D01*
X167938880Y-29731285D01*
X167938880Y-28350333D02*
X167938880Y-28921761D01*
X167938880Y-28636047D02*
X166938880Y-28636047D01*
X167081738Y-28731285D01*
X167176976Y-28826523D01*
X167224595Y-28921761D01*
X130061119Y-145269666D02*
X129346833Y-145269666D01*
X129203976Y-145222047D01*
X129108738Y-145126809D01*
X129061119Y-144983952D01*
X129061119Y-144888714D01*
X129061119Y-146269666D02*
X129061119Y-145698238D01*
X129061119Y-145983952D02*
X130061119Y-145983952D01*
X129918261Y-145888714D01*
X129823023Y-145793476D01*
X129775404Y-145698238D01*
X130061119Y-114789666D02*
X129346833Y-114789666D01*
X129203976Y-114742047D01*
X129108738Y-114646809D01*
X129061119Y-114503952D01*
X129061119Y-114408714D01*
X129061119Y-115789666D02*
X129061119Y-115218238D01*
X129061119Y-115503952D02*
X130061119Y-115503952D01*
X129918261Y-115408714D01*
X129823023Y-115313476D01*
X129775404Y-115218238D01*
X130061119Y-84309666D02*
X129346833Y-84309666D01*
X129203976Y-84262047D01*
X129108738Y-84166809D01*
X129061119Y-84023952D01*
X129061119Y-83928714D01*
X129061119Y-85309666D02*
X129061119Y-84738238D01*
X129061119Y-85023952D02*
X130061119Y-85023952D01*
X129918261Y-84928714D01*
X129823023Y-84833476D01*
X129775404Y-84738238D01*
X166938880Y-120790333D02*
X167653166Y-120790333D01*
X167796023Y-120837952D01*
X167891261Y-120933190D01*
X167938880Y-121076047D01*
X167938880Y-121171285D01*
X167938880Y-119790333D02*
X167938880Y-120361761D01*
X167938880Y-120076047D02*
X166938880Y-120076047D01*
X167081738Y-120171285D01*
X167176976Y-120266523D01*
X167224595Y-120361761D01*
X163589166Y-32120619D02*
X163922500Y-32596809D01*
X164160595Y-32120619D02*
X164160595Y-33120619D01*
X163779642Y-33120619D01*
X163684404Y-33073000D01*
X163636785Y-33025380D01*
X163589166Y-32930142D01*
X163589166Y-32787285D01*
X163636785Y-32692047D01*
X163684404Y-32644428D01*
X163779642Y-32596809D01*
X164160595Y-32596809D01*
X163255833Y-33120619D02*
X162636785Y-33120619D01*
X162970119Y-32739666D01*
X162827261Y-32739666D01*
X162732023Y-32692047D01*
X162684404Y-32644428D01*
X162636785Y-32549190D01*
X162636785Y-32311095D01*
X162684404Y-32215857D01*
X162732023Y-32168238D01*
X162827261Y-32120619D01*
X163112976Y-32120619D01*
X163208214Y-32168238D01*
X163255833Y-32215857D01*
X163589166Y-126227619D02*
X163922500Y-126703809D01*
X164160595Y-126227619D02*
X164160595Y-127227619D01*
X163779642Y-127227619D01*
X163684404Y-127180000D01*
X163636785Y-127132380D01*
X163589166Y-127037142D01*
X163589166Y-126894285D01*
X163636785Y-126799047D01*
X163684404Y-126751428D01*
X163779642Y-126703809D01*
X164160595Y-126703809D01*
X163208214Y-127132380D02*
X163160595Y-127180000D01*
X163065357Y-127227619D01*
X162827261Y-127227619D01*
X162732023Y-127180000D01*
X162684404Y-127132380D01*
X162636785Y-127037142D01*
X162636785Y-126941904D01*
X162684404Y-126799047D01*
X163255833Y-126227619D01*
X162636785Y-126227619D01*
X133410833Y-106939380D02*
X133077500Y-106463190D01*
X132839404Y-106939380D02*
X132839404Y-105939380D01*
X133220357Y-105939380D01*
X133315595Y-105987000D01*
X133363214Y-106034619D01*
X133410833Y-106129857D01*
X133410833Y-106272714D01*
X133363214Y-106367952D01*
X133315595Y-106415571D01*
X133220357Y-106463190D01*
X132839404Y-106463190D01*
X134363214Y-106939380D02*
X133791785Y-106939380D01*
X134077500Y-106939380D02*
X134077500Y-105939380D01*
X133982261Y-106082238D01*
X133887023Y-106177476D01*
X133791785Y-106225095D01*
X163589166Y-156707619D02*
X163922500Y-157183809D01*
X164160595Y-156707619D02*
X164160595Y-157707619D01*
X163779642Y-157707619D01*
X163684404Y-157660000D01*
X163636785Y-157612380D01*
X163589166Y-157517142D01*
X163589166Y-157374285D01*
X163636785Y-157279047D01*
X163684404Y-157231428D01*
X163779642Y-157183809D01*
X164160595Y-157183809D01*
X163208214Y-157612380D02*
X163160595Y-157660000D01*
X163065357Y-157707619D01*
X162827261Y-157707619D01*
X162732023Y-157660000D01*
X162684404Y-157612380D01*
X162636785Y-157517142D01*
X162636785Y-157421904D01*
X162684404Y-157279047D01*
X163255833Y-156707619D01*
X162636785Y-156707619D01*
X133410833Y-76459380D02*
X133077500Y-75983190D01*
X132839404Y-76459380D02*
X132839404Y-75459380D01*
X133220357Y-75459380D01*
X133315595Y-75507000D01*
X133363214Y-75554619D01*
X133410833Y-75649857D01*
X133410833Y-75792714D01*
X133363214Y-75887952D01*
X133315595Y-75935571D01*
X133220357Y-75983190D01*
X132839404Y-75983190D01*
X134363214Y-76459380D02*
X133791785Y-76459380D01*
X134077500Y-76459380D02*
X134077500Y-75459380D01*
X133982261Y-75602238D01*
X133887023Y-75697476D01*
X133791785Y-75745095D01*
X133410833Y-172979380D02*
X133077500Y-172503190D01*
X132839404Y-172979380D02*
X132839404Y-171979380D01*
X133220357Y-171979380D01*
X133315595Y-172027000D01*
X133363214Y-172074619D01*
X133410833Y-172169857D01*
X133410833Y-172312714D01*
X133363214Y-172407952D01*
X133315595Y-172455571D01*
X133220357Y-172503190D01*
X132839404Y-172503190D01*
X133744166Y-171979380D02*
X134363214Y-171979380D01*
X134029880Y-172360333D01*
X134172738Y-172360333D01*
X134267976Y-172407952D01*
X134315595Y-172455571D01*
X134363214Y-172550809D01*
X134363214Y-172788904D01*
X134315595Y-172884142D01*
X134267976Y-172931761D01*
X134172738Y-172979380D01*
X133887023Y-172979380D01*
X133791785Y-172931761D01*
X133744166Y-172884142D01*
X133410833Y-112019380D02*
X133077500Y-111543190D01*
X132839404Y-112019380D02*
X132839404Y-111019380D01*
X133220357Y-111019380D01*
X133315595Y-111067000D01*
X133363214Y-111114619D01*
X133410833Y-111209857D01*
X133410833Y-111352714D01*
X133363214Y-111447952D01*
X133315595Y-111495571D01*
X133220357Y-111543190D01*
X132839404Y-111543190D01*
X133744166Y-111019380D02*
X134363214Y-111019380D01*
X134029880Y-111400333D01*
X134172738Y-111400333D01*
X134267976Y-111447952D01*
X134315595Y-111495571D01*
X134363214Y-111590809D01*
X134363214Y-111828904D01*
X134315595Y-111924142D01*
X134267976Y-111971761D01*
X134172738Y-112019380D01*
X133887023Y-112019380D01*
X133791785Y-111971761D01*
X133744166Y-111924142D01*
X163589166Y-123560619D02*
X163922500Y-124036809D01*
X164160595Y-123560619D02*
X164160595Y-124560619D01*
X163779642Y-124560619D01*
X163684404Y-124513000D01*
X163636785Y-124465380D01*
X163589166Y-124370142D01*
X163589166Y-124227285D01*
X163636785Y-124132047D01*
X163684404Y-124084428D01*
X163779642Y-124036809D01*
X164160595Y-124036809D01*
X163255833Y-124560619D02*
X162636785Y-124560619D01*
X162970119Y-124179666D01*
X162827261Y-124179666D01*
X162732023Y-124132047D01*
X162684404Y-124084428D01*
X162636785Y-123989190D01*
X162636785Y-123751095D01*
X162684404Y-123655857D01*
X162732023Y-123608238D01*
X162827261Y-123560619D01*
X163112976Y-123560619D01*
X163208214Y-123608238D01*
X163255833Y-123655857D01*
D11*
X131137564Y-168055000D02*
X130683436Y-168055000D01*
X131137564Y-166585000D02*
X130683436Y-166585000D01*
X120806500Y-63450000D02*
X120806500Y-66135000D01*
X120806500Y-66135000D02*
X122726500Y-66135000D01*
X122726500Y-66135000D02*
X122726500Y-63450000D01*
X125886500Y-63450000D02*
X125886500Y-66135000D01*
X127806500Y-66135000D02*
X127806500Y-63450000D01*
X125886500Y-66135000D02*
X127806500Y-66135000D01*
X176193500Y-80690000D02*
X176193500Y-78005000D01*
X174273500Y-78005000D02*
X174273500Y-80690000D01*
X176193500Y-78005000D02*
X174273500Y-78005000D01*
X168898500Y-69825000D02*
X175218500Y-69825000D01*
X175218500Y-69825000D02*
X175218500Y-59085000D01*
X174718500Y-70065000D02*
X175458500Y-70065000D01*
X175458500Y-70065000D02*
X175458500Y-69565000D01*
X174658500Y-69825000D02*
X174658500Y-59085000D01*
X168898500Y-59085000D02*
X175218500Y-59085000D01*
X169358500Y-69825000D02*
X169358500Y-59085000D01*
X168898500Y-69825000D02*
X168898500Y-59085000D01*
X165862436Y-94395000D02*
X166316564Y-94395000D01*
X165862436Y-92925000D02*
X166316564Y-92925000D01*
X165862436Y-98005000D02*
X166316564Y-98005000D01*
X165862436Y-99475000D02*
X166316564Y-99475000D01*
X131137564Y-49745000D02*
X130683436Y-49745000D01*
X131137564Y-51215000D02*
X130683436Y-51215000D01*
X127806500Y-35655000D02*
X127806500Y-32970000D01*
X125886500Y-35655000D02*
X127806500Y-35655000D01*
X125886500Y-32970000D02*
X125886500Y-35655000D01*
X165862436Y-153885000D02*
X166316564Y-153885000D01*
X165862436Y-155355000D02*
X166316564Y-155355000D01*
X165862436Y-96935000D02*
X166316564Y-96935000D01*
X165862436Y-95465000D02*
X166316564Y-95465000D01*
X120806500Y-124410000D02*
X120806500Y-127095000D01*
X122726500Y-127095000D02*
X122726500Y-124410000D01*
X120806500Y-127095000D02*
X122726500Y-127095000D01*
X173653500Y-169445000D02*
X171733500Y-169445000D01*
X173653500Y-172130000D02*
X173653500Y-169445000D01*
X171733500Y-169445000D02*
X171733500Y-172130000D01*
X131137564Y-108165000D02*
X130683436Y-108165000D01*
X131137564Y-109635000D02*
X130683436Y-109635000D01*
X125266500Y-35655000D02*
X125266500Y-32970000D01*
X123346500Y-32970000D02*
X123346500Y-35655000D01*
X123346500Y-35655000D02*
X125266500Y-35655000D01*
X131137564Y-137575000D02*
X130683436Y-137575000D01*
X131137564Y-136105000D02*
X130683436Y-136105000D01*
X131137564Y-44665000D02*
X130683436Y-44665000D01*
X131137564Y-46135000D02*
X130683436Y-46135000D01*
X168898500Y-150525000D02*
X175218500Y-150525000D01*
X169358500Y-161265000D02*
X169358500Y-150525000D01*
X168898500Y-161265000D02*
X168898500Y-150525000D01*
X168898500Y-161265000D02*
X175218500Y-161265000D01*
X175458500Y-161505000D02*
X175458500Y-161005000D01*
X174718500Y-161505000D02*
X175458500Y-161505000D01*
X175218500Y-161265000D02*
X175218500Y-150525000D01*
X174658500Y-161265000D02*
X174658500Y-150525000D01*
X173653500Y-50210000D02*
X173653500Y-47525000D01*
X171733500Y-47525000D02*
X171733500Y-50210000D01*
X173653500Y-47525000D02*
X171733500Y-47525000D01*
X122726500Y-157575000D02*
X122726500Y-154890000D01*
X120806500Y-154890000D02*
X120806500Y-157575000D01*
X120806500Y-157575000D02*
X122726500Y-157575000D01*
X131137564Y-170595000D02*
X130683436Y-170595000D01*
X131137564Y-169125000D02*
X130683436Y-169125000D01*
X171113500Y-138965000D02*
X169193500Y-138965000D01*
X171113500Y-141650000D02*
X171113500Y-138965000D01*
X169193500Y-138965000D02*
X169193500Y-141650000D01*
X165862436Y-66455000D02*
X166316564Y-66455000D01*
X165862436Y-64985000D02*
X166316564Y-64985000D01*
X173653500Y-138965000D02*
X171733500Y-138965000D01*
X171733500Y-138965000D02*
X171733500Y-141650000D01*
X173653500Y-141650000D02*
X173653500Y-138965000D01*
X174273500Y-108485000D02*
X174273500Y-111170000D01*
X176193500Y-111170000D02*
X176193500Y-108485000D01*
X176193500Y-108485000D02*
X174273500Y-108485000D01*
X131137564Y-80225000D02*
X130683436Y-80225000D01*
X131137564Y-81695000D02*
X130683436Y-81695000D01*
X131137564Y-79155000D02*
X130683436Y-79155000D01*
X131137564Y-77685000D02*
X130683436Y-77685000D01*
X131137564Y-47205000D02*
X130683436Y-47205000D01*
X131137564Y-48675000D02*
X130683436Y-48675000D01*
X165862436Y-67525000D02*
X166316564Y-67525000D01*
X165862436Y-68995000D02*
X166316564Y-68995000D01*
X165862436Y-158965000D02*
X166316564Y-158965000D01*
X165862436Y-160435000D02*
X166316564Y-160435000D01*
X122341500Y-165755000D02*
X122341500Y-176495000D01*
X128101500Y-176495000D02*
X121781500Y-176495000D01*
X121541500Y-165515000D02*
X121541500Y-166015000D01*
X128101500Y-165755000D02*
X128101500Y-176495000D01*
X121781500Y-165755000D02*
X121781500Y-176495000D01*
X122281500Y-165515000D02*
X121541500Y-165515000D01*
X128101500Y-165755000D02*
X121781500Y-165755000D01*
X127641500Y-165755000D02*
X127641500Y-176495000D01*
X165862436Y-62445000D02*
X166316564Y-62445000D01*
X165862436Y-63915000D02*
X166316564Y-63915000D01*
X168898500Y-89565000D02*
X175218500Y-89565000D01*
X174718500Y-100545000D02*
X175458500Y-100545000D01*
X168898500Y-100305000D02*
X168898500Y-89565000D01*
X169358500Y-100305000D02*
X169358500Y-89565000D01*
X175458500Y-100545000D02*
X175458500Y-100045000D01*
X174658500Y-100305000D02*
X174658500Y-89565000D01*
X175218500Y-100305000D02*
X175218500Y-89565000D01*
X168898500Y-100305000D02*
X175218500Y-100305000D01*
X165862436Y-35975000D02*
X166316564Y-35975000D01*
X165862436Y-34505000D02*
X166316564Y-34505000D01*
X123346500Y-63450000D02*
X123346500Y-66135000D01*
X123346500Y-66135000D02*
X125266500Y-66135000D01*
X125266500Y-66135000D02*
X125266500Y-63450000D01*
X120806500Y-32970000D02*
X120806500Y-35655000D01*
X122726500Y-35655000D02*
X122726500Y-32970000D01*
X120806500Y-35655000D02*
X122726500Y-35655000D01*
X165862436Y-128485000D02*
X166316564Y-128485000D01*
X165862436Y-129955000D02*
X166316564Y-129955000D01*
X171113500Y-47525000D02*
X169193500Y-47525000D01*
X169193500Y-47525000D02*
X169193500Y-50210000D01*
X171113500Y-50210000D02*
X171113500Y-47525000D01*
X131137564Y-140115000D02*
X130683436Y-140115000D01*
X131137564Y-138645000D02*
X130683436Y-138645000D01*
X165862436Y-38515000D02*
X166316564Y-38515000D01*
X165862436Y-37045000D02*
X166316564Y-37045000D01*
X131137564Y-142655000D02*
X130683436Y-142655000D01*
X131137564Y-141185000D02*
X130683436Y-141185000D01*
X127641500Y-43835000D02*
X127641500Y-54575000D01*
X121541500Y-43595000D02*
X121541500Y-44095000D01*
X128101500Y-43835000D02*
X128101500Y-54575000D01*
X121781500Y-43835000D02*
X121781500Y-54575000D01*
X122341500Y-43835000D02*
X122341500Y-54575000D01*
X128101500Y-43835000D02*
X121781500Y-43835000D01*
X128101500Y-54575000D02*
X121781500Y-54575000D01*
X122281500Y-43595000D02*
X121541500Y-43595000D01*
X168898500Y-39345000D02*
X168898500Y-28605000D01*
X168898500Y-39345000D02*
X175218500Y-39345000D01*
X169358500Y-39345000D02*
X169358500Y-28605000D01*
X175458500Y-39585000D02*
X175458500Y-39085000D01*
X174658500Y-39345000D02*
X174658500Y-28605000D01*
X174718500Y-39585000D02*
X175458500Y-39585000D01*
X168898500Y-28605000D02*
X175218500Y-28605000D01*
X175218500Y-39345000D02*
X175218500Y-28605000D01*
X122281500Y-135035000D02*
X121541500Y-135035000D01*
X128101500Y-146015000D02*
X121781500Y-146015000D01*
X121781500Y-135275000D02*
X121781500Y-146015000D01*
X128101500Y-135275000D02*
X121781500Y-135275000D01*
X122341500Y-135275000D02*
X122341500Y-146015000D01*
X128101500Y-135275000D02*
X128101500Y-146015000D01*
X127641500Y-135275000D02*
X127641500Y-146015000D01*
X121541500Y-135035000D02*
X121541500Y-135535000D01*
X171113500Y-111170000D02*
X171113500Y-108485000D01*
X171113500Y-108485000D02*
X169193500Y-108485000D01*
X169193500Y-108485000D02*
X169193500Y-111170000D01*
X125886500Y-154890000D02*
X125886500Y-157575000D01*
X127806500Y-157575000D02*
X127806500Y-154890000D01*
X125886500Y-157575000D02*
X127806500Y-157575000D01*
X127641500Y-104795000D02*
X127641500Y-115535000D01*
X122341500Y-104795000D02*
X122341500Y-115535000D01*
X122281500Y-104555000D02*
X121541500Y-104555000D01*
X121781500Y-104795000D02*
X121781500Y-115535000D01*
X128101500Y-104795000D02*
X128101500Y-115535000D01*
X128101500Y-115535000D02*
X121781500Y-115535000D01*
X128101500Y-104795000D02*
X121781500Y-104795000D01*
X121541500Y-104555000D02*
X121541500Y-105055000D01*
X123346500Y-157575000D02*
X125266500Y-157575000D01*
X123346500Y-154890000D02*
X123346500Y-157575000D01*
X125266500Y-157575000D02*
X125266500Y-154890000D01*
X171113500Y-80690000D02*
X171113500Y-78005000D01*
X169193500Y-78005000D02*
X169193500Y-80690000D01*
X171113500Y-78005000D02*
X169193500Y-78005000D01*
X173653500Y-78005000D02*
X171733500Y-78005000D01*
X171733500Y-78005000D02*
X171733500Y-80690000D01*
X173653500Y-80690000D02*
X173653500Y-78005000D01*
X174273500Y-169445000D02*
X174273500Y-172130000D01*
X176193500Y-169445000D02*
X174273500Y-169445000D01*
X176193500Y-172130000D02*
X176193500Y-169445000D01*
X121541500Y-74075000D02*
X121541500Y-74575000D01*
X128101500Y-85055000D02*
X121781500Y-85055000D01*
X128101500Y-74315000D02*
X121781500Y-74315000D01*
X128101500Y-74315000D02*
X128101500Y-85055000D01*
X122281500Y-74075000D02*
X121541500Y-74075000D01*
X121781500Y-74315000D02*
X121781500Y-85055000D01*
X122341500Y-74315000D02*
X122341500Y-85055000D01*
X127641500Y-74315000D02*
X127641500Y-85055000D01*
X169358500Y-130785000D02*
X169358500Y-120045000D01*
X174658500Y-130785000D02*
X174658500Y-120045000D01*
X168898500Y-130785000D02*
X175218500Y-130785000D01*
X175458500Y-131025000D02*
X175458500Y-130525000D01*
X168898500Y-130785000D02*
X168898500Y-120045000D01*
X175218500Y-130785000D02*
X175218500Y-120045000D01*
X174718500Y-131025000D02*
X175458500Y-131025000D01*
X168898500Y-120045000D02*
X175218500Y-120045000D01*
X174273500Y-47525000D02*
X174273500Y-50210000D01*
X176193500Y-47525000D02*
X174273500Y-47525000D01*
X176193500Y-50210000D02*
X176193500Y-47525000D01*
X123346500Y-93930000D02*
X123346500Y-96615000D01*
X125266500Y-96615000D02*
X125266500Y-93930000D01*
X123346500Y-96615000D02*
X125266500Y-96615000D01*
X171113500Y-172130000D02*
X171113500Y-169445000D01*
X169193500Y-169445000D02*
X169193500Y-172130000D01*
X171113500Y-169445000D02*
X169193500Y-169445000D01*
X165862436Y-33435000D02*
X166316564Y-33435000D01*
X165862436Y-31965000D02*
X166316564Y-31965000D01*
X165862436Y-125945000D02*
X166316564Y-125945000D01*
X165862436Y-127415000D02*
X166316564Y-127415000D01*
X125886500Y-96615000D02*
X127806500Y-96615000D01*
X125886500Y-93930000D02*
X125886500Y-96615000D01*
X127806500Y-96615000D02*
X127806500Y-93930000D01*
X120806500Y-96615000D02*
X122726500Y-96615000D01*
X122726500Y-96615000D02*
X122726500Y-93930000D01*
X120806500Y-93930000D02*
X120806500Y-96615000D01*
X131137564Y-107095000D02*
X130683436Y-107095000D01*
X131137564Y-105625000D02*
X130683436Y-105625000D01*
X165862436Y-156425000D02*
X166316564Y-156425000D01*
X165862436Y-157895000D02*
X166316564Y-157895000D01*
X173653500Y-111170000D02*
X173653500Y-108485000D01*
X171733500Y-108485000D02*
X171733500Y-111170000D01*
X173653500Y-108485000D02*
X171733500Y-108485000D01*
X131137564Y-76615000D02*
X130683436Y-76615000D01*
X131137564Y-75145000D02*
X130683436Y-75145000D01*
X131137564Y-171665000D02*
X130683436Y-171665000D01*
X131137564Y-173135000D02*
X130683436Y-173135000D01*
X176193500Y-141650000D02*
X176193500Y-138965000D01*
X176193500Y-138965000D02*
X174273500Y-138965000D01*
X174273500Y-138965000D02*
X174273500Y-141650000D01*
X131137564Y-110705000D02*
X130683436Y-110705000D01*
X131137564Y-112175000D02*
X130683436Y-112175000D01*
X165862436Y-124875000D02*
X166316564Y-124875000D01*
X165862436Y-123405000D02*
X166316564Y-123405000D01*
X125266500Y-127095000D02*
X125266500Y-124410000D01*
X123346500Y-124410000D02*
X123346500Y-127095000D01*
X123346500Y-127095000D02*
X125266500Y-127095000D01*
X125886500Y-124410000D02*
X125886500Y-127095000D01*
X127806500Y-127095000D02*
X127806500Y-124410000D01*
X125886500Y-127095000D02*
X127806500Y-127095000D01*
M02*
