G04 #@! TF.GenerationSoftware,KiCad,Pcbnew,6.0.2+dfsg-1*
G04 #@! TF.CreationDate,2024-06-30T21:45:31-06:00*
G04 #@! TF.ProjectId,ckt-signal-array,636b742d-7369-4676-9e61-6c2d61727261,rev?*
G04 #@! TF.SameCoordinates,Original*
G04 #@! TF.FileFunction,Legend,Bot*
G04 #@! TF.FilePolarity,Positive*
%FSLAX46Y46*%
G04 Gerber Fmt 4.6, Leading zero omitted, Abs format (unit mm)*
G04 Created by KiCad (PCBNEW 6.0.2+dfsg-1) date 2024-06-30 21:45:31*
%MOMM*%
%LPD*%
G01*
G04 APERTURE LIST*
%ADD10C,0.150000*%
G04 APERTURE END LIST*
D10*
X130850357Y-83451904D02*
X130802738Y-83499523D01*
X130755119Y-83642380D01*
X130755119Y-83737619D01*
X130802738Y-83880476D01*
X130897976Y-83975714D01*
X130993214Y-84023333D01*
X131183690Y-84070952D01*
X131326547Y-84070952D01*
X131517023Y-84023333D01*
X131612261Y-83975714D01*
X131707500Y-83880476D01*
X131755119Y-83737619D01*
X131755119Y-83642380D01*
X131707500Y-83499523D01*
X131659880Y-83451904D01*
X130755119Y-83023333D02*
X131755119Y-83023333D01*
X130755119Y-82451904D02*
X131326547Y-82880476D01*
X131755119Y-82451904D02*
X131183690Y-83023333D01*
X131755119Y-82166190D02*
X131755119Y-81594761D01*
X130755119Y-81880476D02*
X131755119Y-81880476D01*
X131136071Y-81261428D02*
X131136071Y-80499523D01*
X130802738Y-80070952D02*
X130755119Y-79928095D01*
X130755119Y-79690000D01*
X130802738Y-79594761D01*
X130850357Y-79547142D01*
X130945595Y-79499523D01*
X131040833Y-79499523D01*
X131136071Y-79547142D01*
X131183690Y-79594761D01*
X131231309Y-79690000D01*
X131278928Y-79880476D01*
X131326547Y-79975714D01*
X131374166Y-80023333D01*
X131469404Y-80070952D01*
X131564642Y-80070952D01*
X131659880Y-80023333D01*
X131707500Y-79975714D01*
X131755119Y-79880476D01*
X131755119Y-79642380D01*
X131707500Y-79499523D01*
X130755119Y-79070952D02*
X131755119Y-79070952D01*
X131707500Y-78070952D02*
X131755119Y-78166190D01*
X131755119Y-78309047D01*
X131707500Y-78451904D01*
X131612261Y-78547142D01*
X131517023Y-78594761D01*
X131326547Y-78642380D01*
X131183690Y-78642380D01*
X130993214Y-78594761D01*
X130897976Y-78547142D01*
X130802738Y-78451904D01*
X130755119Y-78309047D01*
X130755119Y-78213809D01*
X130802738Y-78070952D01*
X130850357Y-78023333D01*
X131183690Y-78023333D01*
X131183690Y-78213809D01*
X130755119Y-77594761D02*
X131755119Y-77594761D01*
X130755119Y-77023333D01*
X131755119Y-77023333D01*
X131040833Y-76594761D02*
X131040833Y-76118571D01*
X130755119Y-76690000D02*
X131755119Y-76356666D01*
X130755119Y-76023333D01*
X130755119Y-75213809D02*
X130755119Y-75690000D01*
X131755119Y-75690000D01*
X129811785Y-81118571D02*
X129145119Y-80880476D01*
X129811785Y-80642380D01*
X130145119Y-80356666D02*
X130145119Y-79737619D01*
X129764166Y-80070952D01*
X129764166Y-79928095D01*
X129716547Y-79832857D01*
X129668928Y-79785238D01*
X129573690Y-79737619D01*
X129335595Y-79737619D01*
X129240357Y-79785238D01*
X129192738Y-79832857D01*
X129145119Y-79928095D01*
X129145119Y-80213809D01*
X129192738Y-80309047D01*
X129240357Y-80356666D01*
X129240357Y-79309047D02*
X129192738Y-79261428D01*
X129145119Y-79309047D01*
X129192738Y-79356666D01*
X129240357Y-79309047D01*
X129145119Y-79309047D01*
X130145119Y-78642380D02*
X130145119Y-78547142D01*
X130097500Y-78451904D01*
X130049880Y-78404285D01*
X129954642Y-78356666D01*
X129764166Y-78309047D01*
X129526071Y-78309047D01*
X129335595Y-78356666D01*
X129240357Y-78404285D01*
X129192738Y-78451904D01*
X129145119Y-78547142D01*
X129145119Y-78642380D01*
X129192738Y-78737619D01*
X129240357Y-78785238D01*
X129335595Y-78832857D01*
X129526071Y-78880476D01*
X129764166Y-78880476D01*
X129954642Y-78832857D01*
X130049880Y-78785238D01*
X130097500Y-78737619D01*
X130145119Y-78642380D01*
X166149642Y-60688095D02*
X166197261Y-60640476D01*
X166244880Y-60497619D01*
X166244880Y-60402380D01*
X166197261Y-60259523D01*
X166102023Y-60164285D01*
X166006785Y-60116666D01*
X165816309Y-60069047D01*
X165673452Y-60069047D01*
X165482976Y-60116666D01*
X165387738Y-60164285D01*
X165292500Y-60259523D01*
X165244880Y-60402380D01*
X165244880Y-60497619D01*
X165292500Y-60640476D01*
X165340119Y-60688095D01*
X166244880Y-61116666D02*
X165244880Y-61116666D01*
X166244880Y-61688095D02*
X165673452Y-61259523D01*
X165244880Y-61688095D02*
X165816309Y-61116666D01*
X165244880Y-61973809D02*
X165244880Y-62545238D01*
X166244880Y-62259523D02*
X165244880Y-62259523D01*
X165863928Y-62878571D02*
X165863928Y-63640476D01*
X166197261Y-64069047D02*
X166244880Y-64211904D01*
X166244880Y-64450000D01*
X166197261Y-64545238D01*
X166149642Y-64592857D01*
X166054404Y-64640476D01*
X165959166Y-64640476D01*
X165863928Y-64592857D01*
X165816309Y-64545238D01*
X165768690Y-64450000D01*
X165721071Y-64259523D01*
X165673452Y-64164285D01*
X165625833Y-64116666D01*
X165530595Y-64069047D01*
X165435357Y-64069047D01*
X165340119Y-64116666D01*
X165292500Y-64164285D01*
X165244880Y-64259523D01*
X165244880Y-64497619D01*
X165292500Y-64640476D01*
X166244880Y-65069047D02*
X165244880Y-65069047D01*
X165292500Y-66069047D02*
X165244880Y-65973809D01*
X165244880Y-65830952D01*
X165292500Y-65688095D01*
X165387738Y-65592857D01*
X165482976Y-65545238D01*
X165673452Y-65497619D01*
X165816309Y-65497619D01*
X166006785Y-65545238D01*
X166102023Y-65592857D01*
X166197261Y-65688095D01*
X166244880Y-65830952D01*
X166244880Y-65926190D01*
X166197261Y-66069047D01*
X166149642Y-66116666D01*
X165816309Y-66116666D01*
X165816309Y-65926190D01*
X166244880Y-66545238D02*
X165244880Y-66545238D01*
X166244880Y-67116666D01*
X165244880Y-67116666D01*
X165959166Y-67545238D02*
X165959166Y-68021428D01*
X166244880Y-67450000D02*
X165244880Y-67783333D01*
X166244880Y-68116666D01*
X166244880Y-68926190D02*
X166244880Y-68450000D01*
X165244880Y-68450000D01*
X167188214Y-63021428D02*
X167854880Y-63259523D01*
X167188214Y-63497619D01*
X166854880Y-63783333D02*
X166854880Y-64402380D01*
X167235833Y-64069047D01*
X167235833Y-64211904D01*
X167283452Y-64307142D01*
X167331071Y-64354761D01*
X167426309Y-64402380D01*
X167664404Y-64402380D01*
X167759642Y-64354761D01*
X167807261Y-64307142D01*
X167854880Y-64211904D01*
X167854880Y-63926190D01*
X167807261Y-63830952D01*
X167759642Y-63783333D01*
X167759642Y-64830952D02*
X167807261Y-64878571D01*
X167854880Y-64830952D01*
X167807261Y-64783333D01*
X167759642Y-64830952D01*
X167854880Y-64830952D01*
X166854880Y-65497619D02*
X166854880Y-65592857D01*
X166902500Y-65688095D01*
X166950119Y-65735714D01*
X167045357Y-65783333D01*
X167235833Y-65830952D01*
X167473928Y-65830952D01*
X167664404Y-65783333D01*
X167759642Y-65735714D01*
X167807261Y-65688095D01*
X167854880Y-65592857D01*
X167854880Y-65497619D01*
X167807261Y-65402380D01*
X167759642Y-65354761D01*
X167664404Y-65307142D01*
X167473928Y-65259523D01*
X167235833Y-65259523D01*
X167045357Y-65307142D01*
X166950119Y-65354761D01*
X166902500Y-65402380D01*
X166854880Y-65497619D01*
X130850357Y-52971904D02*
X130802738Y-53019523D01*
X130755119Y-53162380D01*
X130755119Y-53257619D01*
X130802738Y-53400476D01*
X130897976Y-53495714D01*
X130993214Y-53543333D01*
X131183690Y-53590952D01*
X131326547Y-53590952D01*
X131517023Y-53543333D01*
X131612261Y-53495714D01*
X131707500Y-53400476D01*
X131755119Y-53257619D01*
X131755119Y-53162380D01*
X131707500Y-53019523D01*
X131659880Y-52971904D01*
X130755119Y-52543333D02*
X131755119Y-52543333D01*
X130755119Y-51971904D02*
X131326547Y-52400476D01*
X131755119Y-51971904D02*
X131183690Y-52543333D01*
X131755119Y-51686190D02*
X131755119Y-51114761D01*
X130755119Y-51400476D02*
X131755119Y-51400476D01*
X131136071Y-50781428D02*
X131136071Y-50019523D01*
X130802738Y-49590952D02*
X130755119Y-49448095D01*
X130755119Y-49210000D01*
X130802738Y-49114761D01*
X130850357Y-49067142D01*
X130945595Y-49019523D01*
X131040833Y-49019523D01*
X131136071Y-49067142D01*
X131183690Y-49114761D01*
X131231309Y-49210000D01*
X131278928Y-49400476D01*
X131326547Y-49495714D01*
X131374166Y-49543333D01*
X131469404Y-49590952D01*
X131564642Y-49590952D01*
X131659880Y-49543333D01*
X131707500Y-49495714D01*
X131755119Y-49400476D01*
X131755119Y-49162380D01*
X131707500Y-49019523D01*
X130755119Y-48590952D02*
X131755119Y-48590952D01*
X131707500Y-47590952D02*
X131755119Y-47686190D01*
X131755119Y-47829047D01*
X131707500Y-47971904D01*
X131612261Y-48067142D01*
X131517023Y-48114761D01*
X131326547Y-48162380D01*
X131183690Y-48162380D01*
X130993214Y-48114761D01*
X130897976Y-48067142D01*
X130802738Y-47971904D01*
X130755119Y-47829047D01*
X130755119Y-47733809D01*
X130802738Y-47590952D01*
X130850357Y-47543333D01*
X131183690Y-47543333D01*
X131183690Y-47733809D01*
X130755119Y-47114761D02*
X131755119Y-47114761D01*
X130755119Y-46543333D01*
X131755119Y-46543333D01*
X131040833Y-46114761D02*
X131040833Y-45638571D01*
X130755119Y-46210000D02*
X131755119Y-45876666D01*
X130755119Y-45543333D01*
X130755119Y-44733809D02*
X130755119Y-45210000D01*
X131755119Y-45210000D01*
X129811785Y-50638571D02*
X129145119Y-50400476D01*
X129811785Y-50162380D01*
X130145119Y-49876666D02*
X130145119Y-49257619D01*
X129764166Y-49590952D01*
X129764166Y-49448095D01*
X129716547Y-49352857D01*
X129668928Y-49305238D01*
X129573690Y-49257619D01*
X129335595Y-49257619D01*
X129240357Y-49305238D01*
X129192738Y-49352857D01*
X129145119Y-49448095D01*
X129145119Y-49733809D01*
X129192738Y-49829047D01*
X129240357Y-49876666D01*
X129240357Y-48829047D02*
X129192738Y-48781428D01*
X129145119Y-48829047D01*
X129192738Y-48876666D01*
X129240357Y-48829047D01*
X129145119Y-48829047D01*
X130145119Y-48162380D02*
X130145119Y-48067142D01*
X130097500Y-47971904D01*
X130049880Y-47924285D01*
X129954642Y-47876666D01*
X129764166Y-47829047D01*
X129526071Y-47829047D01*
X129335595Y-47876666D01*
X129240357Y-47924285D01*
X129192738Y-47971904D01*
X129145119Y-48067142D01*
X129145119Y-48162380D01*
X129192738Y-48257619D01*
X129240357Y-48305238D01*
X129335595Y-48352857D01*
X129526071Y-48400476D01*
X129764166Y-48400476D01*
X129954642Y-48352857D01*
X130049880Y-48305238D01*
X130097500Y-48257619D01*
X130145119Y-48162380D01*
X166149642Y-30208095D02*
X166197261Y-30160476D01*
X166244880Y-30017619D01*
X166244880Y-29922380D01*
X166197261Y-29779523D01*
X166102023Y-29684285D01*
X166006785Y-29636666D01*
X165816309Y-29589047D01*
X165673452Y-29589047D01*
X165482976Y-29636666D01*
X165387738Y-29684285D01*
X165292500Y-29779523D01*
X165244880Y-29922380D01*
X165244880Y-30017619D01*
X165292500Y-30160476D01*
X165340119Y-30208095D01*
X166244880Y-30636666D02*
X165244880Y-30636666D01*
X166244880Y-31208095D02*
X165673452Y-30779523D01*
X165244880Y-31208095D02*
X165816309Y-30636666D01*
X165244880Y-31493809D02*
X165244880Y-32065238D01*
X166244880Y-31779523D02*
X165244880Y-31779523D01*
X165863928Y-32398571D02*
X165863928Y-33160476D01*
X166197261Y-33589047D02*
X166244880Y-33731904D01*
X166244880Y-33970000D01*
X166197261Y-34065238D01*
X166149642Y-34112857D01*
X166054404Y-34160476D01*
X165959166Y-34160476D01*
X165863928Y-34112857D01*
X165816309Y-34065238D01*
X165768690Y-33970000D01*
X165721071Y-33779523D01*
X165673452Y-33684285D01*
X165625833Y-33636666D01*
X165530595Y-33589047D01*
X165435357Y-33589047D01*
X165340119Y-33636666D01*
X165292500Y-33684285D01*
X165244880Y-33779523D01*
X165244880Y-34017619D01*
X165292500Y-34160476D01*
X166244880Y-34589047D02*
X165244880Y-34589047D01*
X165292500Y-35589047D02*
X165244880Y-35493809D01*
X165244880Y-35350952D01*
X165292500Y-35208095D01*
X165387738Y-35112857D01*
X165482976Y-35065238D01*
X165673452Y-35017619D01*
X165816309Y-35017619D01*
X166006785Y-35065238D01*
X166102023Y-35112857D01*
X166197261Y-35208095D01*
X166244880Y-35350952D01*
X166244880Y-35446190D01*
X166197261Y-35589047D01*
X166149642Y-35636666D01*
X165816309Y-35636666D01*
X165816309Y-35446190D01*
X166244880Y-36065238D02*
X165244880Y-36065238D01*
X166244880Y-36636666D01*
X165244880Y-36636666D01*
X165959166Y-37065238D02*
X165959166Y-37541428D01*
X166244880Y-36970000D02*
X165244880Y-37303333D01*
X166244880Y-37636666D01*
X166244880Y-38446190D02*
X166244880Y-37970000D01*
X165244880Y-37970000D01*
X167188214Y-32541428D02*
X167854880Y-32779523D01*
X167188214Y-33017619D01*
X166854880Y-33303333D02*
X166854880Y-33922380D01*
X167235833Y-33589047D01*
X167235833Y-33731904D01*
X167283452Y-33827142D01*
X167331071Y-33874761D01*
X167426309Y-33922380D01*
X167664404Y-33922380D01*
X167759642Y-33874761D01*
X167807261Y-33827142D01*
X167854880Y-33731904D01*
X167854880Y-33446190D01*
X167807261Y-33350952D01*
X167759642Y-33303333D01*
X167759642Y-34350952D02*
X167807261Y-34398571D01*
X167854880Y-34350952D01*
X167807261Y-34303333D01*
X167759642Y-34350952D01*
X167854880Y-34350952D01*
X166854880Y-35017619D02*
X166854880Y-35112857D01*
X166902500Y-35208095D01*
X166950119Y-35255714D01*
X167045357Y-35303333D01*
X167235833Y-35350952D01*
X167473928Y-35350952D01*
X167664404Y-35303333D01*
X167759642Y-35255714D01*
X167807261Y-35208095D01*
X167854880Y-35112857D01*
X167854880Y-35017619D01*
X167807261Y-34922380D01*
X167759642Y-34874761D01*
X167664404Y-34827142D01*
X167473928Y-34779523D01*
X167235833Y-34779523D01*
X167045357Y-34827142D01*
X166950119Y-34874761D01*
X166902500Y-34922380D01*
X166854880Y-35017619D01*
X166149642Y-91168095D02*
X166197261Y-91120476D01*
X166244880Y-90977619D01*
X166244880Y-90882380D01*
X166197261Y-90739523D01*
X166102023Y-90644285D01*
X166006785Y-90596666D01*
X165816309Y-90549047D01*
X165673452Y-90549047D01*
X165482976Y-90596666D01*
X165387738Y-90644285D01*
X165292500Y-90739523D01*
X165244880Y-90882380D01*
X165244880Y-90977619D01*
X165292500Y-91120476D01*
X165340119Y-91168095D01*
X166244880Y-91596666D02*
X165244880Y-91596666D01*
X166244880Y-92168095D02*
X165673452Y-91739523D01*
X165244880Y-92168095D02*
X165816309Y-91596666D01*
X165244880Y-92453809D02*
X165244880Y-93025238D01*
X166244880Y-92739523D02*
X165244880Y-92739523D01*
X165863928Y-93358571D02*
X165863928Y-94120476D01*
X166197261Y-94549047D02*
X166244880Y-94691904D01*
X166244880Y-94930000D01*
X166197261Y-95025238D01*
X166149642Y-95072857D01*
X166054404Y-95120476D01*
X165959166Y-95120476D01*
X165863928Y-95072857D01*
X165816309Y-95025238D01*
X165768690Y-94930000D01*
X165721071Y-94739523D01*
X165673452Y-94644285D01*
X165625833Y-94596666D01*
X165530595Y-94549047D01*
X165435357Y-94549047D01*
X165340119Y-94596666D01*
X165292500Y-94644285D01*
X165244880Y-94739523D01*
X165244880Y-94977619D01*
X165292500Y-95120476D01*
X166244880Y-95549047D02*
X165244880Y-95549047D01*
X165292500Y-96549047D02*
X165244880Y-96453809D01*
X165244880Y-96310952D01*
X165292500Y-96168095D01*
X165387738Y-96072857D01*
X165482976Y-96025238D01*
X165673452Y-95977619D01*
X165816309Y-95977619D01*
X166006785Y-96025238D01*
X166102023Y-96072857D01*
X166197261Y-96168095D01*
X166244880Y-96310952D01*
X166244880Y-96406190D01*
X166197261Y-96549047D01*
X166149642Y-96596666D01*
X165816309Y-96596666D01*
X165816309Y-96406190D01*
X166244880Y-97025238D02*
X165244880Y-97025238D01*
X166244880Y-97596666D01*
X165244880Y-97596666D01*
X165959166Y-98025238D02*
X165959166Y-98501428D01*
X166244880Y-97930000D02*
X165244880Y-98263333D01*
X166244880Y-98596666D01*
X166244880Y-99406190D02*
X166244880Y-98930000D01*
X165244880Y-98930000D01*
X167188214Y-93501428D02*
X167854880Y-93739523D01*
X167188214Y-93977619D01*
X166854880Y-94263333D02*
X166854880Y-94882380D01*
X167235833Y-94549047D01*
X167235833Y-94691904D01*
X167283452Y-94787142D01*
X167331071Y-94834761D01*
X167426309Y-94882380D01*
X167664404Y-94882380D01*
X167759642Y-94834761D01*
X167807261Y-94787142D01*
X167854880Y-94691904D01*
X167854880Y-94406190D01*
X167807261Y-94310952D01*
X167759642Y-94263333D01*
X167759642Y-95310952D02*
X167807261Y-95358571D01*
X167854880Y-95310952D01*
X167807261Y-95263333D01*
X167759642Y-95310952D01*
X167854880Y-95310952D01*
X166854880Y-95977619D02*
X166854880Y-96072857D01*
X166902500Y-96168095D01*
X166950119Y-96215714D01*
X167045357Y-96263333D01*
X167235833Y-96310952D01*
X167473928Y-96310952D01*
X167664404Y-96263333D01*
X167759642Y-96215714D01*
X167807261Y-96168095D01*
X167854880Y-96072857D01*
X167854880Y-95977619D01*
X167807261Y-95882380D01*
X167759642Y-95834761D01*
X167664404Y-95787142D01*
X167473928Y-95739523D01*
X167235833Y-95739523D01*
X167045357Y-95787142D01*
X166950119Y-95834761D01*
X166902500Y-95882380D01*
X166854880Y-95977619D01*
X130850357Y-113931904D02*
X130802738Y-113979523D01*
X130755119Y-114122380D01*
X130755119Y-114217619D01*
X130802738Y-114360476D01*
X130897976Y-114455714D01*
X130993214Y-114503333D01*
X131183690Y-114550952D01*
X131326547Y-114550952D01*
X131517023Y-114503333D01*
X131612261Y-114455714D01*
X131707500Y-114360476D01*
X131755119Y-114217619D01*
X131755119Y-114122380D01*
X131707500Y-113979523D01*
X131659880Y-113931904D01*
X130755119Y-113503333D02*
X131755119Y-113503333D01*
X130755119Y-112931904D02*
X131326547Y-113360476D01*
X131755119Y-112931904D02*
X131183690Y-113503333D01*
X131755119Y-112646190D02*
X131755119Y-112074761D01*
X130755119Y-112360476D02*
X131755119Y-112360476D01*
X131136071Y-111741428D02*
X131136071Y-110979523D01*
X130802738Y-110550952D02*
X130755119Y-110408095D01*
X130755119Y-110170000D01*
X130802738Y-110074761D01*
X130850357Y-110027142D01*
X130945595Y-109979523D01*
X131040833Y-109979523D01*
X131136071Y-110027142D01*
X131183690Y-110074761D01*
X131231309Y-110170000D01*
X131278928Y-110360476D01*
X131326547Y-110455714D01*
X131374166Y-110503333D01*
X131469404Y-110550952D01*
X131564642Y-110550952D01*
X131659880Y-110503333D01*
X131707500Y-110455714D01*
X131755119Y-110360476D01*
X131755119Y-110122380D01*
X131707500Y-109979523D01*
X130755119Y-109550952D02*
X131755119Y-109550952D01*
X131707500Y-108550952D02*
X131755119Y-108646190D01*
X131755119Y-108789047D01*
X131707500Y-108931904D01*
X131612261Y-109027142D01*
X131517023Y-109074761D01*
X131326547Y-109122380D01*
X131183690Y-109122380D01*
X130993214Y-109074761D01*
X130897976Y-109027142D01*
X130802738Y-108931904D01*
X130755119Y-108789047D01*
X130755119Y-108693809D01*
X130802738Y-108550952D01*
X130850357Y-108503333D01*
X131183690Y-108503333D01*
X131183690Y-108693809D01*
X130755119Y-108074761D02*
X131755119Y-108074761D01*
X130755119Y-107503333D01*
X131755119Y-107503333D01*
X131040833Y-107074761D02*
X131040833Y-106598571D01*
X130755119Y-107170000D02*
X131755119Y-106836666D01*
X130755119Y-106503333D01*
X130755119Y-105693809D02*
X130755119Y-106170000D01*
X131755119Y-106170000D01*
X129811785Y-111598571D02*
X129145119Y-111360476D01*
X129811785Y-111122380D01*
X130145119Y-110836666D02*
X130145119Y-110217619D01*
X129764166Y-110550952D01*
X129764166Y-110408095D01*
X129716547Y-110312857D01*
X129668928Y-110265238D01*
X129573690Y-110217619D01*
X129335595Y-110217619D01*
X129240357Y-110265238D01*
X129192738Y-110312857D01*
X129145119Y-110408095D01*
X129145119Y-110693809D01*
X129192738Y-110789047D01*
X129240357Y-110836666D01*
X129240357Y-109789047D02*
X129192738Y-109741428D01*
X129145119Y-109789047D01*
X129192738Y-109836666D01*
X129240357Y-109789047D01*
X129145119Y-109789047D01*
X130145119Y-109122380D02*
X130145119Y-109027142D01*
X130097500Y-108931904D01*
X130049880Y-108884285D01*
X129954642Y-108836666D01*
X129764166Y-108789047D01*
X129526071Y-108789047D01*
X129335595Y-108836666D01*
X129240357Y-108884285D01*
X129192738Y-108931904D01*
X129145119Y-109027142D01*
X129145119Y-109122380D01*
X129192738Y-109217619D01*
X129240357Y-109265238D01*
X129335595Y-109312857D01*
X129526071Y-109360476D01*
X129764166Y-109360476D01*
X129954642Y-109312857D01*
X130049880Y-109265238D01*
X130097500Y-109217619D01*
X130145119Y-109122380D01*
X166149642Y-121648095D02*
X166197261Y-121600476D01*
X166244880Y-121457619D01*
X166244880Y-121362380D01*
X166197261Y-121219523D01*
X166102023Y-121124285D01*
X166006785Y-121076666D01*
X165816309Y-121029047D01*
X165673452Y-121029047D01*
X165482976Y-121076666D01*
X165387738Y-121124285D01*
X165292500Y-121219523D01*
X165244880Y-121362380D01*
X165244880Y-121457619D01*
X165292500Y-121600476D01*
X165340119Y-121648095D01*
X166244880Y-122076666D02*
X165244880Y-122076666D01*
X166244880Y-122648095D02*
X165673452Y-122219523D01*
X165244880Y-122648095D02*
X165816309Y-122076666D01*
X165244880Y-122933809D02*
X165244880Y-123505238D01*
X166244880Y-123219523D02*
X165244880Y-123219523D01*
X165863928Y-123838571D02*
X165863928Y-124600476D01*
X166197261Y-125029047D02*
X166244880Y-125171904D01*
X166244880Y-125410000D01*
X166197261Y-125505238D01*
X166149642Y-125552857D01*
X166054404Y-125600476D01*
X165959166Y-125600476D01*
X165863928Y-125552857D01*
X165816309Y-125505238D01*
X165768690Y-125410000D01*
X165721071Y-125219523D01*
X165673452Y-125124285D01*
X165625833Y-125076666D01*
X165530595Y-125029047D01*
X165435357Y-125029047D01*
X165340119Y-125076666D01*
X165292500Y-125124285D01*
X165244880Y-125219523D01*
X165244880Y-125457619D01*
X165292500Y-125600476D01*
X166244880Y-126029047D02*
X165244880Y-126029047D01*
X165292500Y-127029047D02*
X165244880Y-126933809D01*
X165244880Y-126790952D01*
X165292500Y-126648095D01*
X165387738Y-126552857D01*
X165482976Y-126505238D01*
X165673452Y-126457619D01*
X165816309Y-126457619D01*
X166006785Y-126505238D01*
X166102023Y-126552857D01*
X166197261Y-126648095D01*
X166244880Y-126790952D01*
X166244880Y-126886190D01*
X166197261Y-127029047D01*
X166149642Y-127076666D01*
X165816309Y-127076666D01*
X165816309Y-126886190D01*
X166244880Y-127505238D02*
X165244880Y-127505238D01*
X166244880Y-128076666D01*
X165244880Y-128076666D01*
X165959166Y-128505238D02*
X165959166Y-128981428D01*
X166244880Y-128410000D02*
X165244880Y-128743333D01*
X166244880Y-129076666D01*
X166244880Y-129886190D02*
X166244880Y-129410000D01*
X165244880Y-129410000D01*
X167188214Y-123981428D02*
X167854880Y-124219523D01*
X167188214Y-124457619D01*
X166854880Y-124743333D02*
X166854880Y-125362380D01*
X167235833Y-125029047D01*
X167235833Y-125171904D01*
X167283452Y-125267142D01*
X167331071Y-125314761D01*
X167426309Y-125362380D01*
X167664404Y-125362380D01*
X167759642Y-125314761D01*
X167807261Y-125267142D01*
X167854880Y-125171904D01*
X167854880Y-124886190D01*
X167807261Y-124790952D01*
X167759642Y-124743333D01*
X167759642Y-125790952D02*
X167807261Y-125838571D01*
X167854880Y-125790952D01*
X167807261Y-125743333D01*
X167759642Y-125790952D01*
X167854880Y-125790952D01*
X166854880Y-126457619D02*
X166854880Y-126552857D01*
X166902500Y-126648095D01*
X166950119Y-126695714D01*
X167045357Y-126743333D01*
X167235833Y-126790952D01*
X167473928Y-126790952D01*
X167664404Y-126743333D01*
X167759642Y-126695714D01*
X167807261Y-126648095D01*
X167854880Y-126552857D01*
X167854880Y-126457619D01*
X167807261Y-126362380D01*
X167759642Y-126314761D01*
X167664404Y-126267142D01*
X167473928Y-126219523D01*
X167235833Y-126219523D01*
X167045357Y-126267142D01*
X166950119Y-126314761D01*
X166902500Y-126362380D01*
X166854880Y-126457619D01*
X130850357Y-144411904D02*
X130802738Y-144459523D01*
X130755119Y-144602380D01*
X130755119Y-144697619D01*
X130802738Y-144840476D01*
X130897976Y-144935714D01*
X130993214Y-144983333D01*
X131183690Y-145030952D01*
X131326547Y-145030952D01*
X131517023Y-144983333D01*
X131612261Y-144935714D01*
X131707500Y-144840476D01*
X131755119Y-144697619D01*
X131755119Y-144602380D01*
X131707500Y-144459523D01*
X131659880Y-144411904D01*
X130755119Y-143983333D02*
X131755119Y-143983333D01*
X130755119Y-143411904D02*
X131326547Y-143840476D01*
X131755119Y-143411904D02*
X131183690Y-143983333D01*
X131755119Y-143126190D02*
X131755119Y-142554761D01*
X130755119Y-142840476D02*
X131755119Y-142840476D01*
X131136071Y-142221428D02*
X131136071Y-141459523D01*
X130802738Y-141030952D02*
X130755119Y-140888095D01*
X130755119Y-140650000D01*
X130802738Y-140554761D01*
X130850357Y-140507142D01*
X130945595Y-140459523D01*
X131040833Y-140459523D01*
X131136071Y-140507142D01*
X131183690Y-140554761D01*
X131231309Y-140650000D01*
X131278928Y-140840476D01*
X131326547Y-140935714D01*
X131374166Y-140983333D01*
X131469404Y-141030952D01*
X131564642Y-141030952D01*
X131659880Y-140983333D01*
X131707500Y-140935714D01*
X131755119Y-140840476D01*
X131755119Y-140602380D01*
X131707500Y-140459523D01*
X130755119Y-140030952D02*
X131755119Y-140030952D01*
X131707500Y-139030952D02*
X131755119Y-139126190D01*
X131755119Y-139269047D01*
X131707500Y-139411904D01*
X131612261Y-139507142D01*
X131517023Y-139554761D01*
X131326547Y-139602380D01*
X131183690Y-139602380D01*
X130993214Y-139554761D01*
X130897976Y-139507142D01*
X130802738Y-139411904D01*
X130755119Y-139269047D01*
X130755119Y-139173809D01*
X130802738Y-139030952D01*
X130850357Y-138983333D01*
X131183690Y-138983333D01*
X131183690Y-139173809D01*
X130755119Y-138554761D02*
X131755119Y-138554761D01*
X130755119Y-137983333D01*
X131755119Y-137983333D01*
X131040833Y-137554761D02*
X131040833Y-137078571D01*
X130755119Y-137650000D02*
X131755119Y-137316666D01*
X130755119Y-136983333D01*
X130755119Y-136173809D02*
X130755119Y-136650000D01*
X131755119Y-136650000D01*
X129811785Y-142078571D02*
X129145119Y-141840476D01*
X129811785Y-141602380D01*
X130145119Y-141316666D02*
X130145119Y-140697619D01*
X129764166Y-141030952D01*
X129764166Y-140888095D01*
X129716547Y-140792857D01*
X129668928Y-140745238D01*
X129573690Y-140697619D01*
X129335595Y-140697619D01*
X129240357Y-140745238D01*
X129192738Y-140792857D01*
X129145119Y-140888095D01*
X129145119Y-141173809D01*
X129192738Y-141269047D01*
X129240357Y-141316666D01*
X129240357Y-140269047D02*
X129192738Y-140221428D01*
X129145119Y-140269047D01*
X129192738Y-140316666D01*
X129240357Y-140269047D01*
X129145119Y-140269047D01*
X130145119Y-139602380D02*
X130145119Y-139507142D01*
X130097500Y-139411904D01*
X130049880Y-139364285D01*
X129954642Y-139316666D01*
X129764166Y-139269047D01*
X129526071Y-139269047D01*
X129335595Y-139316666D01*
X129240357Y-139364285D01*
X129192738Y-139411904D01*
X129145119Y-139507142D01*
X129145119Y-139602380D01*
X129192738Y-139697619D01*
X129240357Y-139745238D01*
X129335595Y-139792857D01*
X129526071Y-139840476D01*
X129764166Y-139840476D01*
X129954642Y-139792857D01*
X130049880Y-139745238D01*
X130097500Y-139697619D01*
X130145119Y-139602380D01*
X166149642Y-152128095D02*
X166197261Y-152080476D01*
X166244880Y-151937619D01*
X166244880Y-151842380D01*
X166197261Y-151699523D01*
X166102023Y-151604285D01*
X166006785Y-151556666D01*
X165816309Y-151509047D01*
X165673452Y-151509047D01*
X165482976Y-151556666D01*
X165387738Y-151604285D01*
X165292500Y-151699523D01*
X165244880Y-151842380D01*
X165244880Y-151937619D01*
X165292500Y-152080476D01*
X165340119Y-152128095D01*
X166244880Y-152556666D02*
X165244880Y-152556666D01*
X166244880Y-153128095D02*
X165673452Y-152699523D01*
X165244880Y-153128095D02*
X165816309Y-152556666D01*
X165244880Y-153413809D02*
X165244880Y-153985238D01*
X166244880Y-153699523D02*
X165244880Y-153699523D01*
X165863928Y-154318571D02*
X165863928Y-155080476D01*
X166197261Y-155509047D02*
X166244880Y-155651904D01*
X166244880Y-155890000D01*
X166197261Y-155985238D01*
X166149642Y-156032857D01*
X166054404Y-156080476D01*
X165959166Y-156080476D01*
X165863928Y-156032857D01*
X165816309Y-155985238D01*
X165768690Y-155890000D01*
X165721071Y-155699523D01*
X165673452Y-155604285D01*
X165625833Y-155556666D01*
X165530595Y-155509047D01*
X165435357Y-155509047D01*
X165340119Y-155556666D01*
X165292500Y-155604285D01*
X165244880Y-155699523D01*
X165244880Y-155937619D01*
X165292500Y-156080476D01*
X166244880Y-156509047D02*
X165244880Y-156509047D01*
X165292500Y-157509047D02*
X165244880Y-157413809D01*
X165244880Y-157270952D01*
X165292500Y-157128095D01*
X165387738Y-157032857D01*
X165482976Y-156985238D01*
X165673452Y-156937619D01*
X165816309Y-156937619D01*
X166006785Y-156985238D01*
X166102023Y-157032857D01*
X166197261Y-157128095D01*
X166244880Y-157270952D01*
X166244880Y-157366190D01*
X166197261Y-157509047D01*
X166149642Y-157556666D01*
X165816309Y-157556666D01*
X165816309Y-157366190D01*
X166244880Y-157985238D02*
X165244880Y-157985238D01*
X166244880Y-158556666D01*
X165244880Y-158556666D01*
X165959166Y-158985238D02*
X165959166Y-159461428D01*
X166244880Y-158890000D02*
X165244880Y-159223333D01*
X166244880Y-159556666D01*
X166244880Y-160366190D02*
X166244880Y-159890000D01*
X165244880Y-159890000D01*
X167188214Y-154461428D02*
X167854880Y-154699523D01*
X167188214Y-154937619D01*
X166854880Y-155223333D02*
X166854880Y-155842380D01*
X167235833Y-155509047D01*
X167235833Y-155651904D01*
X167283452Y-155747142D01*
X167331071Y-155794761D01*
X167426309Y-155842380D01*
X167664404Y-155842380D01*
X167759642Y-155794761D01*
X167807261Y-155747142D01*
X167854880Y-155651904D01*
X167854880Y-155366190D01*
X167807261Y-155270952D01*
X167759642Y-155223333D01*
X167759642Y-156270952D02*
X167807261Y-156318571D01*
X167854880Y-156270952D01*
X167807261Y-156223333D01*
X167759642Y-156270952D01*
X167854880Y-156270952D01*
X166854880Y-156937619D02*
X166854880Y-157032857D01*
X166902500Y-157128095D01*
X166950119Y-157175714D01*
X167045357Y-157223333D01*
X167235833Y-157270952D01*
X167473928Y-157270952D01*
X167664404Y-157223333D01*
X167759642Y-157175714D01*
X167807261Y-157128095D01*
X167854880Y-157032857D01*
X167854880Y-156937619D01*
X167807261Y-156842380D01*
X167759642Y-156794761D01*
X167664404Y-156747142D01*
X167473928Y-156699523D01*
X167235833Y-156699523D01*
X167045357Y-156747142D01*
X166950119Y-156794761D01*
X166902500Y-156842380D01*
X166854880Y-156937619D01*
X130850357Y-174891904D02*
X130802738Y-174939523D01*
X130755119Y-175082380D01*
X130755119Y-175177619D01*
X130802738Y-175320476D01*
X130897976Y-175415714D01*
X130993214Y-175463333D01*
X131183690Y-175510952D01*
X131326547Y-175510952D01*
X131517023Y-175463333D01*
X131612261Y-175415714D01*
X131707500Y-175320476D01*
X131755119Y-175177619D01*
X131755119Y-175082380D01*
X131707500Y-174939523D01*
X131659880Y-174891904D01*
X130755119Y-174463333D02*
X131755119Y-174463333D01*
X130755119Y-173891904D02*
X131326547Y-174320476D01*
X131755119Y-173891904D02*
X131183690Y-174463333D01*
X131755119Y-173606190D02*
X131755119Y-173034761D01*
X130755119Y-173320476D02*
X131755119Y-173320476D01*
X131136071Y-172701428D02*
X131136071Y-171939523D01*
X130802738Y-171510952D02*
X130755119Y-171368095D01*
X130755119Y-171130000D01*
X130802738Y-171034761D01*
X130850357Y-170987142D01*
X130945595Y-170939523D01*
X131040833Y-170939523D01*
X131136071Y-170987142D01*
X131183690Y-171034761D01*
X131231309Y-171130000D01*
X131278928Y-171320476D01*
X131326547Y-171415714D01*
X131374166Y-171463333D01*
X131469404Y-171510952D01*
X131564642Y-171510952D01*
X131659880Y-171463333D01*
X131707500Y-171415714D01*
X131755119Y-171320476D01*
X131755119Y-171082380D01*
X131707500Y-170939523D01*
X130755119Y-170510952D02*
X131755119Y-170510952D01*
X131707500Y-169510952D02*
X131755119Y-169606190D01*
X131755119Y-169749047D01*
X131707500Y-169891904D01*
X131612261Y-169987142D01*
X131517023Y-170034761D01*
X131326547Y-170082380D01*
X131183690Y-170082380D01*
X130993214Y-170034761D01*
X130897976Y-169987142D01*
X130802738Y-169891904D01*
X130755119Y-169749047D01*
X130755119Y-169653809D01*
X130802738Y-169510952D01*
X130850357Y-169463333D01*
X131183690Y-169463333D01*
X131183690Y-169653809D01*
X130755119Y-169034761D02*
X131755119Y-169034761D01*
X130755119Y-168463333D01*
X131755119Y-168463333D01*
X131040833Y-168034761D02*
X131040833Y-167558571D01*
X130755119Y-168130000D02*
X131755119Y-167796666D01*
X130755119Y-167463333D01*
X130755119Y-166653809D02*
X130755119Y-167130000D01*
X131755119Y-167130000D01*
X129811785Y-172558571D02*
X129145119Y-172320476D01*
X129811785Y-172082380D01*
X130145119Y-171796666D02*
X130145119Y-171177619D01*
X129764166Y-171510952D01*
X129764166Y-171368095D01*
X129716547Y-171272857D01*
X129668928Y-171225238D01*
X129573690Y-171177619D01*
X129335595Y-171177619D01*
X129240357Y-171225238D01*
X129192738Y-171272857D01*
X129145119Y-171368095D01*
X129145119Y-171653809D01*
X129192738Y-171749047D01*
X129240357Y-171796666D01*
X129240357Y-170749047D02*
X129192738Y-170701428D01*
X129145119Y-170749047D01*
X129192738Y-170796666D01*
X129240357Y-170749047D01*
X129145119Y-170749047D01*
X130145119Y-170082380D02*
X130145119Y-169987142D01*
X130097500Y-169891904D01*
X130049880Y-169844285D01*
X129954642Y-169796666D01*
X129764166Y-169749047D01*
X129526071Y-169749047D01*
X129335595Y-169796666D01*
X129240357Y-169844285D01*
X129192738Y-169891904D01*
X129145119Y-169987142D01*
X129145119Y-170082380D01*
X129192738Y-170177619D01*
X129240357Y-170225238D01*
X129335595Y-170272857D01*
X129526071Y-170320476D01*
X129764166Y-170320476D01*
X129954642Y-170272857D01*
X130049880Y-170225238D01*
X130097500Y-170177619D01*
X130145119Y-170082380D01*
X162815880Y-29660476D02*
X161815880Y-29660476D01*
X162815880Y-30279523D02*
X162768261Y-30184285D01*
X162720642Y-30136666D01*
X162625404Y-30089047D01*
X162339690Y-30089047D01*
X162244452Y-30136666D01*
X162196833Y-30184285D01*
X162149214Y-30279523D01*
X162149214Y-30422380D01*
X162196833Y-30517619D01*
X162244452Y-30565238D01*
X162339690Y-30612857D01*
X162625404Y-30612857D01*
X162720642Y-30565238D01*
X162768261Y-30517619D01*
X162815880Y-30422380D01*
X162815880Y-30279523D01*
X162149214Y-30946190D02*
X162815880Y-31136666D01*
X162339690Y-31327142D01*
X162815880Y-31517619D01*
X162149214Y-31708095D01*
X162815880Y-32517619D02*
X162292071Y-32517619D01*
X162196833Y-32470000D01*
X162149214Y-32374761D01*
X162149214Y-32184285D01*
X162196833Y-32089047D01*
X162768261Y-32517619D02*
X162815880Y-32422380D01*
X162815880Y-32184285D01*
X162768261Y-32089047D01*
X162673023Y-32041428D01*
X162577785Y-32041428D01*
X162482547Y-32089047D01*
X162434928Y-32184285D01*
X162434928Y-32422380D01*
X162387309Y-32517619D01*
X162768261Y-33708095D02*
X162815880Y-33850952D01*
X162815880Y-34089047D01*
X162768261Y-34184285D01*
X162720642Y-34231904D01*
X162625404Y-34279523D01*
X162530166Y-34279523D01*
X162434928Y-34231904D01*
X162387309Y-34184285D01*
X162339690Y-34089047D01*
X162292071Y-33898571D01*
X162244452Y-33803333D01*
X162196833Y-33755714D01*
X162101595Y-33708095D01*
X162006357Y-33708095D01*
X161911119Y-33755714D01*
X161863500Y-33803333D01*
X161815880Y-33898571D01*
X161815880Y-34136666D01*
X161863500Y-34279523D01*
X162768261Y-35136666D02*
X162815880Y-35041428D01*
X162815880Y-34850952D01*
X162768261Y-34755714D01*
X162720642Y-34708095D01*
X162625404Y-34660476D01*
X162339690Y-34660476D01*
X162244452Y-34708095D01*
X162196833Y-34755714D01*
X162149214Y-34850952D01*
X162149214Y-35041428D01*
X162196833Y-35136666D01*
X162815880Y-35993809D02*
X162292071Y-35993809D01*
X162196833Y-35946190D01*
X162149214Y-35850952D01*
X162149214Y-35660476D01*
X162196833Y-35565238D01*
X162768261Y-35993809D02*
X162815880Y-35898571D01*
X162815880Y-35660476D01*
X162768261Y-35565238D01*
X162673023Y-35517619D01*
X162577785Y-35517619D01*
X162482547Y-35565238D01*
X162434928Y-35660476D01*
X162434928Y-35898571D01*
X162387309Y-35993809D01*
X162815880Y-36612857D02*
X162768261Y-36517619D01*
X162673023Y-36470000D01*
X161815880Y-36470000D01*
X162768261Y-37374761D02*
X162815880Y-37279523D01*
X162815880Y-37089047D01*
X162768261Y-36993809D01*
X162673023Y-36946190D01*
X162292071Y-36946190D01*
X162196833Y-36993809D01*
X162149214Y-37089047D01*
X162149214Y-37279523D01*
X162196833Y-37374761D01*
X162292071Y-37422380D01*
X162387309Y-37422380D01*
X162482547Y-36946190D01*
X162815880Y-38279523D02*
X161815880Y-38279523D01*
X162768261Y-38279523D02*
X162815880Y-38184285D01*
X162815880Y-37993809D01*
X162768261Y-37898571D01*
X162720642Y-37850952D01*
X162625404Y-37803333D01*
X162339690Y-37803333D01*
X162244452Y-37850952D01*
X162196833Y-37898571D01*
X162149214Y-37993809D01*
X162149214Y-38184285D01*
X162196833Y-38279523D01*
X163902071Y-29850952D02*
X163902071Y-30184285D01*
X164425880Y-30327142D02*
X164425880Y-29850952D01*
X163425880Y-29850952D01*
X163425880Y-30327142D01*
X163759214Y-30755714D02*
X164425880Y-30755714D01*
X163854452Y-30755714D02*
X163806833Y-30803333D01*
X163759214Y-30898571D01*
X163759214Y-31041428D01*
X163806833Y-31136666D01*
X163902071Y-31184285D01*
X164425880Y-31184285D01*
X163759214Y-32089047D02*
X164568738Y-32089047D01*
X164663976Y-32041428D01*
X164711595Y-31993809D01*
X164759214Y-31898571D01*
X164759214Y-31755714D01*
X164711595Y-31660476D01*
X164378261Y-32089047D02*
X164425880Y-31993809D01*
X164425880Y-31803333D01*
X164378261Y-31708095D01*
X164330642Y-31660476D01*
X164235404Y-31612857D01*
X163949690Y-31612857D01*
X163854452Y-31660476D01*
X163806833Y-31708095D01*
X163759214Y-31803333D01*
X163759214Y-31993809D01*
X163806833Y-32089047D01*
X164425880Y-32565238D02*
X163759214Y-32565238D01*
X163425880Y-32565238D02*
X163473500Y-32517619D01*
X163521119Y-32565238D01*
X163473500Y-32612857D01*
X163425880Y-32565238D01*
X163521119Y-32565238D01*
X163759214Y-33041428D02*
X164425880Y-33041428D01*
X163854452Y-33041428D02*
X163806833Y-33089047D01*
X163759214Y-33184285D01*
X163759214Y-33327142D01*
X163806833Y-33422380D01*
X163902071Y-33470000D01*
X164425880Y-33470000D01*
X164378261Y-34327142D02*
X164425880Y-34231904D01*
X164425880Y-34041428D01*
X164378261Y-33946190D01*
X164283023Y-33898571D01*
X163902071Y-33898571D01*
X163806833Y-33946190D01*
X163759214Y-34041428D01*
X163759214Y-34231904D01*
X163806833Y-34327142D01*
X163902071Y-34374761D01*
X163997309Y-34374761D01*
X164092547Y-33898571D01*
X164378261Y-35184285D02*
X164425880Y-35089047D01*
X164425880Y-34898571D01*
X164378261Y-34803333D01*
X164283023Y-34755714D01*
X163902071Y-34755714D01*
X163806833Y-34803333D01*
X163759214Y-34898571D01*
X163759214Y-35089047D01*
X163806833Y-35184285D01*
X163902071Y-35231904D01*
X163997309Y-35231904D01*
X164092547Y-34755714D01*
X164425880Y-35660476D02*
X163759214Y-35660476D01*
X163949690Y-35660476D02*
X163854452Y-35708095D01*
X163806833Y-35755714D01*
X163759214Y-35850952D01*
X163759214Y-35946190D01*
X164425880Y-36279523D02*
X163759214Y-36279523D01*
X163425880Y-36279523D02*
X163473500Y-36231904D01*
X163521119Y-36279523D01*
X163473500Y-36327142D01*
X163425880Y-36279523D01*
X163521119Y-36279523D01*
X163759214Y-36755714D02*
X164425880Y-36755714D01*
X163854452Y-36755714D02*
X163806833Y-36803333D01*
X163759214Y-36898571D01*
X163759214Y-37041428D01*
X163806833Y-37136666D01*
X163902071Y-37184285D01*
X164425880Y-37184285D01*
X163759214Y-38089047D02*
X164568738Y-38089047D01*
X164663976Y-38041428D01*
X164711595Y-37993809D01*
X164759214Y-37898571D01*
X164759214Y-37755714D01*
X164711595Y-37660476D01*
X164378261Y-38089047D02*
X164425880Y-37993809D01*
X164425880Y-37803333D01*
X164378261Y-37708095D01*
X164330642Y-37660476D01*
X164235404Y-37612857D01*
X163949690Y-37612857D01*
X163854452Y-37660476D01*
X163806833Y-37708095D01*
X163759214Y-37803333D01*
X163759214Y-37993809D01*
X163806833Y-38089047D01*
X134184119Y-53519523D02*
X135184119Y-53519523D01*
X134184119Y-52900476D02*
X134231738Y-52995714D01*
X134279357Y-53043333D01*
X134374595Y-53090952D01*
X134660309Y-53090952D01*
X134755547Y-53043333D01*
X134803166Y-52995714D01*
X134850785Y-52900476D01*
X134850785Y-52757619D01*
X134803166Y-52662380D01*
X134755547Y-52614761D01*
X134660309Y-52567142D01*
X134374595Y-52567142D01*
X134279357Y-52614761D01*
X134231738Y-52662380D01*
X134184119Y-52757619D01*
X134184119Y-52900476D01*
X134850785Y-52233809D02*
X134184119Y-52043333D01*
X134660309Y-51852857D01*
X134184119Y-51662380D01*
X134850785Y-51471904D01*
X134184119Y-50662380D02*
X134707928Y-50662380D01*
X134803166Y-50710000D01*
X134850785Y-50805238D01*
X134850785Y-50995714D01*
X134803166Y-51090952D01*
X134231738Y-50662380D02*
X134184119Y-50757619D01*
X134184119Y-50995714D01*
X134231738Y-51090952D01*
X134326976Y-51138571D01*
X134422214Y-51138571D01*
X134517452Y-51090952D01*
X134565071Y-50995714D01*
X134565071Y-50757619D01*
X134612690Y-50662380D01*
X134231738Y-49471904D02*
X134184119Y-49329047D01*
X134184119Y-49090952D01*
X134231738Y-48995714D01*
X134279357Y-48948095D01*
X134374595Y-48900476D01*
X134469833Y-48900476D01*
X134565071Y-48948095D01*
X134612690Y-48995714D01*
X134660309Y-49090952D01*
X134707928Y-49281428D01*
X134755547Y-49376666D01*
X134803166Y-49424285D01*
X134898404Y-49471904D01*
X134993642Y-49471904D01*
X135088880Y-49424285D01*
X135136500Y-49376666D01*
X135184119Y-49281428D01*
X135184119Y-49043333D01*
X135136500Y-48900476D01*
X134231738Y-48043333D02*
X134184119Y-48138571D01*
X134184119Y-48329047D01*
X134231738Y-48424285D01*
X134279357Y-48471904D01*
X134374595Y-48519523D01*
X134660309Y-48519523D01*
X134755547Y-48471904D01*
X134803166Y-48424285D01*
X134850785Y-48329047D01*
X134850785Y-48138571D01*
X134803166Y-48043333D01*
X134184119Y-47186190D02*
X134707928Y-47186190D01*
X134803166Y-47233809D01*
X134850785Y-47329047D01*
X134850785Y-47519523D01*
X134803166Y-47614761D01*
X134231738Y-47186190D02*
X134184119Y-47281428D01*
X134184119Y-47519523D01*
X134231738Y-47614761D01*
X134326976Y-47662380D01*
X134422214Y-47662380D01*
X134517452Y-47614761D01*
X134565071Y-47519523D01*
X134565071Y-47281428D01*
X134612690Y-47186190D01*
X134184119Y-46567142D02*
X134231738Y-46662380D01*
X134326976Y-46710000D01*
X135184119Y-46710000D01*
X134231738Y-45805238D02*
X134184119Y-45900476D01*
X134184119Y-46090952D01*
X134231738Y-46186190D01*
X134326976Y-46233809D01*
X134707928Y-46233809D01*
X134803166Y-46186190D01*
X134850785Y-46090952D01*
X134850785Y-45900476D01*
X134803166Y-45805238D01*
X134707928Y-45757619D01*
X134612690Y-45757619D01*
X134517452Y-46233809D01*
X134184119Y-44900476D02*
X135184119Y-44900476D01*
X134231738Y-44900476D02*
X134184119Y-44995714D01*
X134184119Y-45186190D01*
X134231738Y-45281428D01*
X134279357Y-45329047D01*
X134374595Y-45376666D01*
X134660309Y-45376666D01*
X134755547Y-45329047D01*
X134803166Y-45281428D01*
X134850785Y-45186190D01*
X134850785Y-44995714D01*
X134803166Y-44900476D01*
X133097928Y-53329047D02*
X133097928Y-52995714D01*
X132574119Y-52852857D02*
X132574119Y-53329047D01*
X133574119Y-53329047D01*
X133574119Y-52852857D01*
X133240785Y-52424285D02*
X132574119Y-52424285D01*
X133145547Y-52424285D02*
X133193166Y-52376666D01*
X133240785Y-52281428D01*
X133240785Y-52138571D01*
X133193166Y-52043333D01*
X133097928Y-51995714D01*
X132574119Y-51995714D01*
X133240785Y-51090952D02*
X132431261Y-51090952D01*
X132336023Y-51138571D01*
X132288404Y-51186190D01*
X132240785Y-51281428D01*
X132240785Y-51424285D01*
X132288404Y-51519523D01*
X132621738Y-51090952D02*
X132574119Y-51186190D01*
X132574119Y-51376666D01*
X132621738Y-51471904D01*
X132669357Y-51519523D01*
X132764595Y-51567142D01*
X133050309Y-51567142D01*
X133145547Y-51519523D01*
X133193166Y-51471904D01*
X133240785Y-51376666D01*
X133240785Y-51186190D01*
X133193166Y-51090952D01*
X132574119Y-50614761D02*
X133240785Y-50614761D01*
X133574119Y-50614761D02*
X133526500Y-50662380D01*
X133478880Y-50614761D01*
X133526500Y-50567142D01*
X133574119Y-50614761D01*
X133478880Y-50614761D01*
X133240785Y-50138571D02*
X132574119Y-50138571D01*
X133145547Y-50138571D02*
X133193166Y-50090952D01*
X133240785Y-49995714D01*
X133240785Y-49852857D01*
X133193166Y-49757619D01*
X133097928Y-49710000D01*
X132574119Y-49710000D01*
X132621738Y-48852857D02*
X132574119Y-48948095D01*
X132574119Y-49138571D01*
X132621738Y-49233809D01*
X132716976Y-49281428D01*
X133097928Y-49281428D01*
X133193166Y-49233809D01*
X133240785Y-49138571D01*
X133240785Y-48948095D01*
X133193166Y-48852857D01*
X133097928Y-48805238D01*
X133002690Y-48805238D01*
X132907452Y-49281428D01*
X132621738Y-47995714D02*
X132574119Y-48090952D01*
X132574119Y-48281428D01*
X132621738Y-48376666D01*
X132716976Y-48424285D01*
X133097928Y-48424285D01*
X133193166Y-48376666D01*
X133240785Y-48281428D01*
X133240785Y-48090952D01*
X133193166Y-47995714D01*
X133097928Y-47948095D01*
X133002690Y-47948095D01*
X132907452Y-48424285D01*
X132574119Y-47519523D02*
X133240785Y-47519523D01*
X133050309Y-47519523D02*
X133145547Y-47471904D01*
X133193166Y-47424285D01*
X133240785Y-47329047D01*
X133240785Y-47233809D01*
X132574119Y-46900476D02*
X133240785Y-46900476D01*
X133574119Y-46900476D02*
X133526500Y-46948095D01*
X133478880Y-46900476D01*
X133526500Y-46852857D01*
X133574119Y-46900476D01*
X133478880Y-46900476D01*
X133240785Y-46424285D02*
X132574119Y-46424285D01*
X133145547Y-46424285D02*
X133193166Y-46376666D01*
X133240785Y-46281428D01*
X133240785Y-46138571D01*
X133193166Y-46043333D01*
X133097928Y-45995714D01*
X132574119Y-45995714D01*
X133240785Y-45090952D02*
X132431261Y-45090952D01*
X132336023Y-45138571D01*
X132288404Y-45186190D01*
X132240785Y-45281428D01*
X132240785Y-45424285D01*
X132288404Y-45519523D01*
X132621738Y-45090952D02*
X132574119Y-45186190D01*
X132574119Y-45376666D01*
X132621738Y-45471904D01*
X132669357Y-45519523D01*
X132764595Y-45567142D01*
X133050309Y-45567142D01*
X133145547Y-45519523D01*
X133193166Y-45471904D01*
X133240785Y-45376666D01*
X133240785Y-45186190D01*
X133193166Y-45090952D01*
X162815880Y-60140476D02*
X161815880Y-60140476D01*
X162815880Y-60759523D02*
X162768261Y-60664285D01*
X162720642Y-60616666D01*
X162625404Y-60569047D01*
X162339690Y-60569047D01*
X162244452Y-60616666D01*
X162196833Y-60664285D01*
X162149214Y-60759523D01*
X162149214Y-60902380D01*
X162196833Y-60997619D01*
X162244452Y-61045238D01*
X162339690Y-61092857D01*
X162625404Y-61092857D01*
X162720642Y-61045238D01*
X162768261Y-60997619D01*
X162815880Y-60902380D01*
X162815880Y-60759523D01*
X162149214Y-61426190D02*
X162815880Y-61616666D01*
X162339690Y-61807142D01*
X162815880Y-61997619D01*
X162149214Y-62188095D01*
X162815880Y-62997619D02*
X162292071Y-62997619D01*
X162196833Y-62950000D01*
X162149214Y-62854761D01*
X162149214Y-62664285D01*
X162196833Y-62569047D01*
X162768261Y-62997619D02*
X162815880Y-62902380D01*
X162815880Y-62664285D01*
X162768261Y-62569047D01*
X162673023Y-62521428D01*
X162577785Y-62521428D01*
X162482547Y-62569047D01*
X162434928Y-62664285D01*
X162434928Y-62902380D01*
X162387309Y-62997619D01*
X162768261Y-64188095D02*
X162815880Y-64330952D01*
X162815880Y-64569047D01*
X162768261Y-64664285D01*
X162720642Y-64711904D01*
X162625404Y-64759523D01*
X162530166Y-64759523D01*
X162434928Y-64711904D01*
X162387309Y-64664285D01*
X162339690Y-64569047D01*
X162292071Y-64378571D01*
X162244452Y-64283333D01*
X162196833Y-64235714D01*
X162101595Y-64188095D01*
X162006357Y-64188095D01*
X161911119Y-64235714D01*
X161863500Y-64283333D01*
X161815880Y-64378571D01*
X161815880Y-64616666D01*
X161863500Y-64759523D01*
X162768261Y-65616666D02*
X162815880Y-65521428D01*
X162815880Y-65330952D01*
X162768261Y-65235714D01*
X162720642Y-65188095D01*
X162625404Y-65140476D01*
X162339690Y-65140476D01*
X162244452Y-65188095D01*
X162196833Y-65235714D01*
X162149214Y-65330952D01*
X162149214Y-65521428D01*
X162196833Y-65616666D01*
X162815880Y-66473809D02*
X162292071Y-66473809D01*
X162196833Y-66426190D01*
X162149214Y-66330952D01*
X162149214Y-66140476D01*
X162196833Y-66045238D01*
X162768261Y-66473809D02*
X162815880Y-66378571D01*
X162815880Y-66140476D01*
X162768261Y-66045238D01*
X162673023Y-65997619D01*
X162577785Y-65997619D01*
X162482547Y-66045238D01*
X162434928Y-66140476D01*
X162434928Y-66378571D01*
X162387309Y-66473809D01*
X162815880Y-67092857D02*
X162768261Y-66997619D01*
X162673023Y-66950000D01*
X161815880Y-66950000D01*
X162768261Y-67854761D02*
X162815880Y-67759523D01*
X162815880Y-67569047D01*
X162768261Y-67473809D01*
X162673023Y-67426190D01*
X162292071Y-67426190D01*
X162196833Y-67473809D01*
X162149214Y-67569047D01*
X162149214Y-67759523D01*
X162196833Y-67854761D01*
X162292071Y-67902380D01*
X162387309Y-67902380D01*
X162482547Y-67426190D01*
X162815880Y-68759523D02*
X161815880Y-68759523D01*
X162768261Y-68759523D02*
X162815880Y-68664285D01*
X162815880Y-68473809D01*
X162768261Y-68378571D01*
X162720642Y-68330952D01*
X162625404Y-68283333D01*
X162339690Y-68283333D01*
X162244452Y-68330952D01*
X162196833Y-68378571D01*
X162149214Y-68473809D01*
X162149214Y-68664285D01*
X162196833Y-68759523D01*
X163902071Y-60330952D02*
X163902071Y-60664285D01*
X164425880Y-60807142D02*
X164425880Y-60330952D01*
X163425880Y-60330952D01*
X163425880Y-60807142D01*
X163759214Y-61235714D02*
X164425880Y-61235714D01*
X163854452Y-61235714D02*
X163806833Y-61283333D01*
X163759214Y-61378571D01*
X163759214Y-61521428D01*
X163806833Y-61616666D01*
X163902071Y-61664285D01*
X164425880Y-61664285D01*
X163759214Y-62569047D02*
X164568738Y-62569047D01*
X164663976Y-62521428D01*
X164711595Y-62473809D01*
X164759214Y-62378571D01*
X164759214Y-62235714D01*
X164711595Y-62140476D01*
X164378261Y-62569047D02*
X164425880Y-62473809D01*
X164425880Y-62283333D01*
X164378261Y-62188095D01*
X164330642Y-62140476D01*
X164235404Y-62092857D01*
X163949690Y-62092857D01*
X163854452Y-62140476D01*
X163806833Y-62188095D01*
X163759214Y-62283333D01*
X163759214Y-62473809D01*
X163806833Y-62569047D01*
X164425880Y-63045238D02*
X163759214Y-63045238D01*
X163425880Y-63045238D02*
X163473500Y-62997619D01*
X163521119Y-63045238D01*
X163473500Y-63092857D01*
X163425880Y-63045238D01*
X163521119Y-63045238D01*
X163759214Y-63521428D02*
X164425880Y-63521428D01*
X163854452Y-63521428D02*
X163806833Y-63569047D01*
X163759214Y-63664285D01*
X163759214Y-63807142D01*
X163806833Y-63902380D01*
X163902071Y-63950000D01*
X164425880Y-63950000D01*
X164378261Y-64807142D02*
X164425880Y-64711904D01*
X164425880Y-64521428D01*
X164378261Y-64426190D01*
X164283023Y-64378571D01*
X163902071Y-64378571D01*
X163806833Y-64426190D01*
X163759214Y-64521428D01*
X163759214Y-64711904D01*
X163806833Y-64807142D01*
X163902071Y-64854761D01*
X163997309Y-64854761D01*
X164092547Y-64378571D01*
X164378261Y-65664285D02*
X164425880Y-65569047D01*
X164425880Y-65378571D01*
X164378261Y-65283333D01*
X164283023Y-65235714D01*
X163902071Y-65235714D01*
X163806833Y-65283333D01*
X163759214Y-65378571D01*
X163759214Y-65569047D01*
X163806833Y-65664285D01*
X163902071Y-65711904D01*
X163997309Y-65711904D01*
X164092547Y-65235714D01*
X164425880Y-66140476D02*
X163759214Y-66140476D01*
X163949690Y-66140476D02*
X163854452Y-66188095D01*
X163806833Y-66235714D01*
X163759214Y-66330952D01*
X163759214Y-66426190D01*
X164425880Y-66759523D02*
X163759214Y-66759523D01*
X163425880Y-66759523D02*
X163473500Y-66711904D01*
X163521119Y-66759523D01*
X163473500Y-66807142D01*
X163425880Y-66759523D01*
X163521119Y-66759523D01*
X163759214Y-67235714D02*
X164425880Y-67235714D01*
X163854452Y-67235714D02*
X163806833Y-67283333D01*
X163759214Y-67378571D01*
X163759214Y-67521428D01*
X163806833Y-67616666D01*
X163902071Y-67664285D01*
X164425880Y-67664285D01*
X163759214Y-68569047D02*
X164568738Y-68569047D01*
X164663976Y-68521428D01*
X164711595Y-68473809D01*
X164759214Y-68378571D01*
X164759214Y-68235714D01*
X164711595Y-68140476D01*
X164378261Y-68569047D02*
X164425880Y-68473809D01*
X164425880Y-68283333D01*
X164378261Y-68188095D01*
X164330642Y-68140476D01*
X164235404Y-68092857D01*
X163949690Y-68092857D01*
X163854452Y-68140476D01*
X163806833Y-68188095D01*
X163759214Y-68283333D01*
X163759214Y-68473809D01*
X163806833Y-68569047D01*
X134184119Y-83999523D02*
X135184119Y-83999523D01*
X134184119Y-83380476D02*
X134231738Y-83475714D01*
X134279357Y-83523333D01*
X134374595Y-83570952D01*
X134660309Y-83570952D01*
X134755547Y-83523333D01*
X134803166Y-83475714D01*
X134850785Y-83380476D01*
X134850785Y-83237619D01*
X134803166Y-83142380D01*
X134755547Y-83094761D01*
X134660309Y-83047142D01*
X134374595Y-83047142D01*
X134279357Y-83094761D01*
X134231738Y-83142380D01*
X134184119Y-83237619D01*
X134184119Y-83380476D01*
X134850785Y-82713809D02*
X134184119Y-82523333D01*
X134660309Y-82332857D01*
X134184119Y-82142380D01*
X134850785Y-81951904D01*
X134184119Y-81142380D02*
X134707928Y-81142380D01*
X134803166Y-81190000D01*
X134850785Y-81285238D01*
X134850785Y-81475714D01*
X134803166Y-81570952D01*
X134231738Y-81142380D02*
X134184119Y-81237619D01*
X134184119Y-81475714D01*
X134231738Y-81570952D01*
X134326976Y-81618571D01*
X134422214Y-81618571D01*
X134517452Y-81570952D01*
X134565071Y-81475714D01*
X134565071Y-81237619D01*
X134612690Y-81142380D01*
X134231738Y-79951904D02*
X134184119Y-79809047D01*
X134184119Y-79570952D01*
X134231738Y-79475714D01*
X134279357Y-79428095D01*
X134374595Y-79380476D01*
X134469833Y-79380476D01*
X134565071Y-79428095D01*
X134612690Y-79475714D01*
X134660309Y-79570952D01*
X134707928Y-79761428D01*
X134755547Y-79856666D01*
X134803166Y-79904285D01*
X134898404Y-79951904D01*
X134993642Y-79951904D01*
X135088880Y-79904285D01*
X135136500Y-79856666D01*
X135184119Y-79761428D01*
X135184119Y-79523333D01*
X135136500Y-79380476D01*
X134231738Y-78523333D02*
X134184119Y-78618571D01*
X134184119Y-78809047D01*
X134231738Y-78904285D01*
X134279357Y-78951904D01*
X134374595Y-78999523D01*
X134660309Y-78999523D01*
X134755547Y-78951904D01*
X134803166Y-78904285D01*
X134850785Y-78809047D01*
X134850785Y-78618571D01*
X134803166Y-78523333D01*
X134184119Y-77666190D02*
X134707928Y-77666190D01*
X134803166Y-77713809D01*
X134850785Y-77809047D01*
X134850785Y-77999523D01*
X134803166Y-78094761D01*
X134231738Y-77666190D02*
X134184119Y-77761428D01*
X134184119Y-77999523D01*
X134231738Y-78094761D01*
X134326976Y-78142380D01*
X134422214Y-78142380D01*
X134517452Y-78094761D01*
X134565071Y-77999523D01*
X134565071Y-77761428D01*
X134612690Y-77666190D01*
X134184119Y-77047142D02*
X134231738Y-77142380D01*
X134326976Y-77190000D01*
X135184119Y-77190000D01*
X134231738Y-76285238D02*
X134184119Y-76380476D01*
X134184119Y-76570952D01*
X134231738Y-76666190D01*
X134326976Y-76713809D01*
X134707928Y-76713809D01*
X134803166Y-76666190D01*
X134850785Y-76570952D01*
X134850785Y-76380476D01*
X134803166Y-76285238D01*
X134707928Y-76237619D01*
X134612690Y-76237619D01*
X134517452Y-76713809D01*
X134184119Y-75380476D02*
X135184119Y-75380476D01*
X134231738Y-75380476D02*
X134184119Y-75475714D01*
X134184119Y-75666190D01*
X134231738Y-75761428D01*
X134279357Y-75809047D01*
X134374595Y-75856666D01*
X134660309Y-75856666D01*
X134755547Y-75809047D01*
X134803166Y-75761428D01*
X134850785Y-75666190D01*
X134850785Y-75475714D01*
X134803166Y-75380476D01*
X133097928Y-83809047D02*
X133097928Y-83475714D01*
X132574119Y-83332857D02*
X132574119Y-83809047D01*
X133574119Y-83809047D01*
X133574119Y-83332857D01*
X133240785Y-82904285D02*
X132574119Y-82904285D01*
X133145547Y-82904285D02*
X133193166Y-82856666D01*
X133240785Y-82761428D01*
X133240785Y-82618571D01*
X133193166Y-82523333D01*
X133097928Y-82475714D01*
X132574119Y-82475714D01*
X133240785Y-81570952D02*
X132431261Y-81570952D01*
X132336023Y-81618571D01*
X132288404Y-81666190D01*
X132240785Y-81761428D01*
X132240785Y-81904285D01*
X132288404Y-81999523D01*
X132621738Y-81570952D02*
X132574119Y-81666190D01*
X132574119Y-81856666D01*
X132621738Y-81951904D01*
X132669357Y-81999523D01*
X132764595Y-82047142D01*
X133050309Y-82047142D01*
X133145547Y-81999523D01*
X133193166Y-81951904D01*
X133240785Y-81856666D01*
X133240785Y-81666190D01*
X133193166Y-81570952D01*
X132574119Y-81094761D02*
X133240785Y-81094761D01*
X133574119Y-81094761D02*
X133526500Y-81142380D01*
X133478880Y-81094761D01*
X133526500Y-81047142D01*
X133574119Y-81094761D01*
X133478880Y-81094761D01*
X133240785Y-80618571D02*
X132574119Y-80618571D01*
X133145547Y-80618571D02*
X133193166Y-80570952D01*
X133240785Y-80475714D01*
X133240785Y-80332857D01*
X133193166Y-80237619D01*
X133097928Y-80190000D01*
X132574119Y-80190000D01*
X132621738Y-79332857D02*
X132574119Y-79428095D01*
X132574119Y-79618571D01*
X132621738Y-79713809D01*
X132716976Y-79761428D01*
X133097928Y-79761428D01*
X133193166Y-79713809D01*
X133240785Y-79618571D01*
X133240785Y-79428095D01*
X133193166Y-79332857D01*
X133097928Y-79285238D01*
X133002690Y-79285238D01*
X132907452Y-79761428D01*
X132621738Y-78475714D02*
X132574119Y-78570952D01*
X132574119Y-78761428D01*
X132621738Y-78856666D01*
X132716976Y-78904285D01*
X133097928Y-78904285D01*
X133193166Y-78856666D01*
X133240785Y-78761428D01*
X133240785Y-78570952D01*
X133193166Y-78475714D01*
X133097928Y-78428095D01*
X133002690Y-78428095D01*
X132907452Y-78904285D01*
X132574119Y-77999523D02*
X133240785Y-77999523D01*
X133050309Y-77999523D02*
X133145547Y-77951904D01*
X133193166Y-77904285D01*
X133240785Y-77809047D01*
X133240785Y-77713809D01*
X132574119Y-77380476D02*
X133240785Y-77380476D01*
X133574119Y-77380476D02*
X133526500Y-77428095D01*
X133478880Y-77380476D01*
X133526500Y-77332857D01*
X133574119Y-77380476D01*
X133478880Y-77380476D01*
X133240785Y-76904285D02*
X132574119Y-76904285D01*
X133145547Y-76904285D02*
X133193166Y-76856666D01*
X133240785Y-76761428D01*
X133240785Y-76618571D01*
X133193166Y-76523333D01*
X133097928Y-76475714D01*
X132574119Y-76475714D01*
X133240785Y-75570952D02*
X132431261Y-75570952D01*
X132336023Y-75618571D01*
X132288404Y-75666190D01*
X132240785Y-75761428D01*
X132240785Y-75904285D01*
X132288404Y-75999523D01*
X132621738Y-75570952D02*
X132574119Y-75666190D01*
X132574119Y-75856666D01*
X132621738Y-75951904D01*
X132669357Y-75999523D01*
X132764595Y-76047142D01*
X133050309Y-76047142D01*
X133145547Y-75999523D01*
X133193166Y-75951904D01*
X133240785Y-75856666D01*
X133240785Y-75666190D01*
X133193166Y-75570952D01*
X162815880Y-90620476D02*
X161815880Y-90620476D01*
X162815880Y-91239523D02*
X162768261Y-91144285D01*
X162720642Y-91096666D01*
X162625404Y-91049047D01*
X162339690Y-91049047D01*
X162244452Y-91096666D01*
X162196833Y-91144285D01*
X162149214Y-91239523D01*
X162149214Y-91382380D01*
X162196833Y-91477619D01*
X162244452Y-91525238D01*
X162339690Y-91572857D01*
X162625404Y-91572857D01*
X162720642Y-91525238D01*
X162768261Y-91477619D01*
X162815880Y-91382380D01*
X162815880Y-91239523D01*
X162149214Y-91906190D02*
X162815880Y-92096666D01*
X162339690Y-92287142D01*
X162815880Y-92477619D01*
X162149214Y-92668095D01*
X162815880Y-93477619D02*
X162292071Y-93477619D01*
X162196833Y-93430000D01*
X162149214Y-93334761D01*
X162149214Y-93144285D01*
X162196833Y-93049047D01*
X162768261Y-93477619D02*
X162815880Y-93382380D01*
X162815880Y-93144285D01*
X162768261Y-93049047D01*
X162673023Y-93001428D01*
X162577785Y-93001428D01*
X162482547Y-93049047D01*
X162434928Y-93144285D01*
X162434928Y-93382380D01*
X162387309Y-93477619D01*
X162768261Y-94668095D02*
X162815880Y-94810952D01*
X162815880Y-95049047D01*
X162768261Y-95144285D01*
X162720642Y-95191904D01*
X162625404Y-95239523D01*
X162530166Y-95239523D01*
X162434928Y-95191904D01*
X162387309Y-95144285D01*
X162339690Y-95049047D01*
X162292071Y-94858571D01*
X162244452Y-94763333D01*
X162196833Y-94715714D01*
X162101595Y-94668095D01*
X162006357Y-94668095D01*
X161911119Y-94715714D01*
X161863500Y-94763333D01*
X161815880Y-94858571D01*
X161815880Y-95096666D01*
X161863500Y-95239523D01*
X162768261Y-96096666D02*
X162815880Y-96001428D01*
X162815880Y-95810952D01*
X162768261Y-95715714D01*
X162720642Y-95668095D01*
X162625404Y-95620476D01*
X162339690Y-95620476D01*
X162244452Y-95668095D01*
X162196833Y-95715714D01*
X162149214Y-95810952D01*
X162149214Y-96001428D01*
X162196833Y-96096666D01*
X162815880Y-96953809D02*
X162292071Y-96953809D01*
X162196833Y-96906190D01*
X162149214Y-96810952D01*
X162149214Y-96620476D01*
X162196833Y-96525238D01*
X162768261Y-96953809D02*
X162815880Y-96858571D01*
X162815880Y-96620476D01*
X162768261Y-96525238D01*
X162673023Y-96477619D01*
X162577785Y-96477619D01*
X162482547Y-96525238D01*
X162434928Y-96620476D01*
X162434928Y-96858571D01*
X162387309Y-96953809D01*
X162815880Y-97572857D02*
X162768261Y-97477619D01*
X162673023Y-97430000D01*
X161815880Y-97430000D01*
X162768261Y-98334761D02*
X162815880Y-98239523D01*
X162815880Y-98049047D01*
X162768261Y-97953809D01*
X162673023Y-97906190D01*
X162292071Y-97906190D01*
X162196833Y-97953809D01*
X162149214Y-98049047D01*
X162149214Y-98239523D01*
X162196833Y-98334761D01*
X162292071Y-98382380D01*
X162387309Y-98382380D01*
X162482547Y-97906190D01*
X162815880Y-99239523D02*
X161815880Y-99239523D01*
X162768261Y-99239523D02*
X162815880Y-99144285D01*
X162815880Y-98953809D01*
X162768261Y-98858571D01*
X162720642Y-98810952D01*
X162625404Y-98763333D01*
X162339690Y-98763333D01*
X162244452Y-98810952D01*
X162196833Y-98858571D01*
X162149214Y-98953809D01*
X162149214Y-99144285D01*
X162196833Y-99239523D01*
X163902071Y-90810952D02*
X163902071Y-91144285D01*
X164425880Y-91287142D02*
X164425880Y-90810952D01*
X163425880Y-90810952D01*
X163425880Y-91287142D01*
X163759214Y-91715714D02*
X164425880Y-91715714D01*
X163854452Y-91715714D02*
X163806833Y-91763333D01*
X163759214Y-91858571D01*
X163759214Y-92001428D01*
X163806833Y-92096666D01*
X163902071Y-92144285D01*
X164425880Y-92144285D01*
X163759214Y-93049047D02*
X164568738Y-93049047D01*
X164663976Y-93001428D01*
X164711595Y-92953809D01*
X164759214Y-92858571D01*
X164759214Y-92715714D01*
X164711595Y-92620476D01*
X164378261Y-93049047D02*
X164425880Y-92953809D01*
X164425880Y-92763333D01*
X164378261Y-92668095D01*
X164330642Y-92620476D01*
X164235404Y-92572857D01*
X163949690Y-92572857D01*
X163854452Y-92620476D01*
X163806833Y-92668095D01*
X163759214Y-92763333D01*
X163759214Y-92953809D01*
X163806833Y-93049047D01*
X164425880Y-93525238D02*
X163759214Y-93525238D01*
X163425880Y-93525238D02*
X163473500Y-93477619D01*
X163521119Y-93525238D01*
X163473500Y-93572857D01*
X163425880Y-93525238D01*
X163521119Y-93525238D01*
X163759214Y-94001428D02*
X164425880Y-94001428D01*
X163854452Y-94001428D02*
X163806833Y-94049047D01*
X163759214Y-94144285D01*
X163759214Y-94287142D01*
X163806833Y-94382380D01*
X163902071Y-94430000D01*
X164425880Y-94430000D01*
X164378261Y-95287142D02*
X164425880Y-95191904D01*
X164425880Y-95001428D01*
X164378261Y-94906190D01*
X164283023Y-94858571D01*
X163902071Y-94858571D01*
X163806833Y-94906190D01*
X163759214Y-95001428D01*
X163759214Y-95191904D01*
X163806833Y-95287142D01*
X163902071Y-95334761D01*
X163997309Y-95334761D01*
X164092547Y-94858571D01*
X164378261Y-96144285D02*
X164425880Y-96049047D01*
X164425880Y-95858571D01*
X164378261Y-95763333D01*
X164283023Y-95715714D01*
X163902071Y-95715714D01*
X163806833Y-95763333D01*
X163759214Y-95858571D01*
X163759214Y-96049047D01*
X163806833Y-96144285D01*
X163902071Y-96191904D01*
X163997309Y-96191904D01*
X164092547Y-95715714D01*
X164425880Y-96620476D02*
X163759214Y-96620476D01*
X163949690Y-96620476D02*
X163854452Y-96668095D01*
X163806833Y-96715714D01*
X163759214Y-96810952D01*
X163759214Y-96906190D01*
X164425880Y-97239523D02*
X163759214Y-97239523D01*
X163425880Y-97239523D02*
X163473500Y-97191904D01*
X163521119Y-97239523D01*
X163473500Y-97287142D01*
X163425880Y-97239523D01*
X163521119Y-97239523D01*
X163759214Y-97715714D02*
X164425880Y-97715714D01*
X163854452Y-97715714D02*
X163806833Y-97763333D01*
X163759214Y-97858571D01*
X163759214Y-98001428D01*
X163806833Y-98096666D01*
X163902071Y-98144285D01*
X164425880Y-98144285D01*
X163759214Y-99049047D02*
X164568738Y-99049047D01*
X164663976Y-99001428D01*
X164711595Y-98953809D01*
X164759214Y-98858571D01*
X164759214Y-98715714D01*
X164711595Y-98620476D01*
X164378261Y-99049047D02*
X164425880Y-98953809D01*
X164425880Y-98763333D01*
X164378261Y-98668095D01*
X164330642Y-98620476D01*
X164235404Y-98572857D01*
X163949690Y-98572857D01*
X163854452Y-98620476D01*
X163806833Y-98668095D01*
X163759214Y-98763333D01*
X163759214Y-98953809D01*
X163806833Y-99049047D01*
X134184119Y-114479523D02*
X135184119Y-114479523D01*
X134184119Y-113860476D02*
X134231738Y-113955714D01*
X134279357Y-114003333D01*
X134374595Y-114050952D01*
X134660309Y-114050952D01*
X134755547Y-114003333D01*
X134803166Y-113955714D01*
X134850785Y-113860476D01*
X134850785Y-113717619D01*
X134803166Y-113622380D01*
X134755547Y-113574761D01*
X134660309Y-113527142D01*
X134374595Y-113527142D01*
X134279357Y-113574761D01*
X134231738Y-113622380D01*
X134184119Y-113717619D01*
X134184119Y-113860476D01*
X134850785Y-113193809D02*
X134184119Y-113003333D01*
X134660309Y-112812857D01*
X134184119Y-112622380D01*
X134850785Y-112431904D01*
X134184119Y-111622380D02*
X134707928Y-111622380D01*
X134803166Y-111670000D01*
X134850785Y-111765238D01*
X134850785Y-111955714D01*
X134803166Y-112050952D01*
X134231738Y-111622380D02*
X134184119Y-111717619D01*
X134184119Y-111955714D01*
X134231738Y-112050952D01*
X134326976Y-112098571D01*
X134422214Y-112098571D01*
X134517452Y-112050952D01*
X134565071Y-111955714D01*
X134565071Y-111717619D01*
X134612690Y-111622380D01*
X134231738Y-110431904D02*
X134184119Y-110289047D01*
X134184119Y-110050952D01*
X134231738Y-109955714D01*
X134279357Y-109908095D01*
X134374595Y-109860476D01*
X134469833Y-109860476D01*
X134565071Y-109908095D01*
X134612690Y-109955714D01*
X134660309Y-110050952D01*
X134707928Y-110241428D01*
X134755547Y-110336666D01*
X134803166Y-110384285D01*
X134898404Y-110431904D01*
X134993642Y-110431904D01*
X135088880Y-110384285D01*
X135136500Y-110336666D01*
X135184119Y-110241428D01*
X135184119Y-110003333D01*
X135136500Y-109860476D01*
X134231738Y-109003333D02*
X134184119Y-109098571D01*
X134184119Y-109289047D01*
X134231738Y-109384285D01*
X134279357Y-109431904D01*
X134374595Y-109479523D01*
X134660309Y-109479523D01*
X134755547Y-109431904D01*
X134803166Y-109384285D01*
X134850785Y-109289047D01*
X134850785Y-109098571D01*
X134803166Y-109003333D01*
X134184119Y-108146190D02*
X134707928Y-108146190D01*
X134803166Y-108193809D01*
X134850785Y-108289047D01*
X134850785Y-108479523D01*
X134803166Y-108574761D01*
X134231738Y-108146190D02*
X134184119Y-108241428D01*
X134184119Y-108479523D01*
X134231738Y-108574761D01*
X134326976Y-108622380D01*
X134422214Y-108622380D01*
X134517452Y-108574761D01*
X134565071Y-108479523D01*
X134565071Y-108241428D01*
X134612690Y-108146190D01*
X134184119Y-107527142D02*
X134231738Y-107622380D01*
X134326976Y-107670000D01*
X135184119Y-107670000D01*
X134231738Y-106765238D02*
X134184119Y-106860476D01*
X134184119Y-107050952D01*
X134231738Y-107146190D01*
X134326976Y-107193809D01*
X134707928Y-107193809D01*
X134803166Y-107146190D01*
X134850785Y-107050952D01*
X134850785Y-106860476D01*
X134803166Y-106765238D01*
X134707928Y-106717619D01*
X134612690Y-106717619D01*
X134517452Y-107193809D01*
X134184119Y-105860476D02*
X135184119Y-105860476D01*
X134231738Y-105860476D02*
X134184119Y-105955714D01*
X134184119Y-106146190D01*
X134231738Y-106241428D01*
X134279357Y-106289047D01*
X134374595Y-106336666D01*
X134660309Y-106336666D01*
X134755547Y-106289047D01*
X134803166Y-106241428D01*
X134850785Y-106146190D01*
X134850785Y-105955714D01*
X134803166Y-105860476D01*
X133097928Y-114289047D02*
X133097928Y-113955714D01*
X132574119Y-113812857D02*
X132574119Y-114289047D01*
X133574119Y-114289047D01*
X133574119Y-113812857D01*
X133240785Y-113384285D02*
X132574119Y-113384285D01*
X133145547Y-113384285D02*
X133193166Y-113336666D01*
X133240785Y-113241428D01*
X133240785Y-113098571D01*
X133193166Y-113003333D01*
X133097928Y-112955714D01*
X132574119Y-112955714D01*
X133240785Y-112050952D02*
X132431261Y-112050952D01*
X132336023Y-112098571D01*
X132288404Y-112146190D01*
X132240785Y-112241428D01*
X132240785Y-112384285D01*
X132288404Y-112479523D01*
X132621738Y-112050952D02*
X132574119Y-112146190D01*
X132574119Y-112336666D01*
X132621738Y-112431904D01*
X132669357Y-112479523D01*
X132764595Y-112527142D01*
X133050309Y-112527142D01*
X133145547Y-112479523D01*
X133193166Y-112431904D01*
X133240785Y-112336666D01*
X133240785Y-112146190D01*
X133193166Y-112050952D01*
X132574119Y-111574761D02*
X133240785Y-111574761D01*
X133574119Y-111574761D02*
X133526500Y-111622380D01*
X133478880Y-111574761D01*
X133526500Y-111527142D01*
X133574119Y-111574761D01*
X133478880Y-111574761D01*
X133240785Y-111098571D02*
X132574119Y-111098571D01*
X133145547Y-111098571D02*
X133193166Y-111050952D01*
X133240785Y-110955714D01*
X133240785Y-110812857D01*
X133193166Y-110717619D01*
X133097928Y-110670000D01*
X132574119Y-110670000D01*
X132621738Y-109812857D02*
X132574119Y-109908095D01*
X132574119Y-110098571D01*
X132621738Y-110193809D01*
X132716976Y-110241428D01*
X133097928Y-110241428D01*
X133193166Y-110193809D01*
X133240785Y-110098571D01*
X133240785Y-109908095D01*
X133193166Y-109812857D01*
X133097928Y-109765238D01*
X133002690Y-109765238D01*
X132907452Y-110241428D01*
X132621738Y-108955714D02*
X132574119Y-109050952D01*
X132574119Y-109241428D01*
X132621738Y-109336666D01*
X132716976Y-109384285D01*
X133097928Y-109384285D01*
X133193166Y-109336666D01*
X133240785Y-109241428D01*
X133240785Y-109050952D01*
X133193166Y-108955714D01*
X133097928Y-108908095D01*
X133002690Y-108908095D01*
X132907452Y-109384285D01*
X132574119Y-108479523D02*
X133240785Y-108479523D01*
X133050309Y-108479523D02*
X133145547Y-108431904D01*
X133193166Y-108384285D01*
X133240785Y-108289047D01*
X133240785Y-108193809D01*
X132574119Y-107860476D02*
X133240785Y-107860476D01*
X133574119Y-107860476D02*
X133526500Y-107908095D01*
X133478880Y-107860476D01*
X133526500Y-107812857D01*
X133574119Y-107860476D01*
X133478880Y-107860476D01*
X133240785Y-107384285D02*
X132574119Y-107384285D01*
X133145547Y-107384285D02*
X133193166Y-107336666D01*
X133240785Y-107241428D01*
X133240785Y-107098571D01*
X133193166Y-107003333D01*
X133097928Y-106955714D01*
X132574119Y-106955714D01*
X133240785Y-106050952D02*
X132431261Y-106050952D01*
X132336023Y-106098571D01*
X132288404Y-106146190D01*
X132240785Y-106241428D01*
X132240785Y-106384285D01*
X132288404Y-106479523D01*
X132621738Y-106050952D02*
X132574119Y-106146190D01*
X132574119Y-106336666D01*
X132621738Y-106431904D01*
X132669357Y-106479523D01*
X132764595Y-106527142D01*
X133050309Y-106527142D01*
X133145547Y-106479523D01*
X133193166Y-106431904D01*
X133240785Y-106336666D01*
X133240785Y-106146190D01*
X133193166Y-106050952D01*
X162815880Y-121100476D02*
X161815880Y-121100476D01*
X162815880Y-121719523D02*
X162768261Y-121624285D01*
X162720642Y-121576666D01*
X162625404Y-121529047D01*
X162339690Y-121529047D01*
X162244452Y-121576666D01*
X162196833Y-121624285D01*
X162149214Y-121719523D01*
X162149214Y-121862380D01*
X162196833Y-121957619D01*
X162244452Y-122005238D01*
X162339690Y-122052857D01*
X162625404Y-122052857D01*
X162720642Y-122005238D01*
X162768261Y-121957619D01*
X162815880Y-121862380D01*
X162815880Y-121719523D01*
X162149214Y-122386190D02*
X162815880Y-122576666D01*
X162339690Y-122767142D01*
X162815880Y-122957619D01*
X162149214Y-123148095D01*
X162815880Y-123957619D02*
X162292071Y-123957619D01*
X162196833Y-123910000D01*
X162149214Y-123814761D01*
X162149214Y-123624285D01*
X162196833Y-123529047D01*
X162768261Y-123957619D02*
X162815880Y-123862380D01*
X162815880Y-123624285D01*
X162768261Y-123529047D01*
X162673023Y-123481428D01*
X162577785Y-123481428D01*
X162482547Y-123529047D01*
X162434928Y-123624285D01*
X162434928Y-123862380D01*
X162387309Y-123957619D01*
X162768261Y-125148095D02*
X162815880Y-125290952D01*
X162815880Y-125529047D01*
X162768261Y-125624285D01*
X162720642Y-125671904D01*
X162625404Y-125719523D01*
X162530166Y-125719523D01*
X162434928Y-125671904D01*
X162387309Y-125624285D01*
X162339690Y-125529047D01*
X162292071Y-125338571D01*
X162244452Y-125243333D01*
X162196833Y-125195714D01*
X162101595Y-125148095D01*
X162006357Y-125148095D01*
X161911119Y-125195714D01*
X161863500Y-125243333D01*
X161815880Y-125338571D01*
X161815880Y-125576666D01*
X161863500Y-125719523D01*
X162768261Y-126576666D02*
X162815880Y-126481428D01*
X162815880Y-126290952D01*
X162768261Y-126195714D01*
X162720642Y-126148095D01*
X162625404Y-126100476D01*
X162339690Y-126100476D01*
X162244452Y-126148095D01*
X162196833Y-126195714D01*
X162149214Y-126290952D01*
X162149214Y-126481428D01*
X162196833Y-126576666D01*
X162815880Y-127433809D02*
X162292071Y-127433809D01*
X162196833Y-127386190D01*
X162149214Y-127290952D01*
X162149214Y-127100476D01*
X162196833Y-127005238D01*
X162768261Y-127433809D02*
X162815880Y-127338571D01*
X162815880Y-127100476D01*
X162768261Y-127005238D01*
X162673023Y-126957619D01*
X162577785Y-126957619D01*
X162482547Y-127005238D01*
X162434928Y-127100476D01*
X162434928Y-127338571D01*
X162387309Y-127433809D01*
X162815880Y-128052857D02*
X162768261Y-127957619D01*
X162673023Y-127910000D01*
X161815880Y-127910000D01*
X162768261Y-128814761D02*
X162815880Y-128719523D01*
X162815880Y-128529047D01*
X162768261Y-128433809D01*
X162673023Y-128386190D01*
X162292071Y-128386190D01*
X162196833Y-128433809D01*
X162149214Y-128529047D01*
X162149214Y-128719523D01*
X162196833Y-128814761D01*
X162292071Y-128862380D01*
X162387309Y-128862380D01*
X162482547Y-128386190D01*
X162815880Y-129719523D02*
X161815880Y-129719523D01*
X162768261Y-129719523D02*
X162815880Y-129624285D01*
X162815880Y-129433809D01*
X162768261Y-129338571D01*
X162720642Y-129290952D01*
X162625404Y-129243333D01*
X162339690Y-129243333D01*
X162244452Y-129290952D01*
X162196833Y-129338571D01*
X162149214Y-129433809D01*
X162149214Y-129624285D01*
X162196833Y-129719523D01*
X163902071Y-121290952D02*
X163902071Y-121624285D01*
X164425880Y-121767142D02*
X164425880Y-121290952D01*
X163425880Y-121290952D01*
X163425880Y-121767142D01*
X163759214Y-122195714D02*
X164425880Y-122195714D01*
X163854452Y-122195714D02*
X163806833Y-122243333D01*
X163759214Y-122338571D01*
X163759214Y-122481428D01*
X163806833Y-122576666D01*
X163902071Y-122624285D01*
X164425880Y-122624285D01*
X163759214Y-123529047D02*
X164568738Y-123529047D01*
X164663976Y-123481428D01*
X164711595Y-123433809D01*
X164759214Y-123338571D01*
X164759214Y-123195714D01*
X164711595Y-123100476D01*
X164378261Y-123529047D02*
X164425880Y-123433809D01*
X164425880Y-123243333D01*
X164378261Y-123148095D01*
X164330642Y-123100476D01*
X164235404Y-123052857D01*
X163949690Y-123052857D01*
X163854452Y-123100476D01*
X163806833Y-123148095D01*
X163759214Y-123243333D01*
X163759214Y-123433809D01*
X163806833Y-123529047D01*
X164425880Y-124005238D02*
X163759214Y-124005238D01*
X163425880Y-124005238D02*
X163473500Y-123957619D01*
X163521119Y-124005238D01*
X163473500Y-124052857D01*
X163425880Y-124005238D01*
X163521119Y-124005238D01*
X163759214Y-124481428D02*
X164425880Y-124481428D01*
X163854452Y-124481428D02*
X163806833Y-124529047D01*
X163759214Y-124624285D01*
X163759214Y-124767142D01*
X163806833Y-124862380D01*
X163902071Y-124910000D01*
X164425880Y-124910000D01*
X164378261Y-125767142D02*
X164425880Y-125671904D01*
X164425880Y-125481428D01*
X164378261Y-125386190D01*
X164283023Y-125338571D01*
X163902071Y-125338571D01*
X163806833Y-125386190D01*
X163759214Y-125481428D01*
X163759214Y-125671904D01*
X163806833Y-125767142D01*
X163902071Y-125814761D01*
X163997309Y-125814761D01*
X164092547Y-125338571D01*
X164378261Y-126624285D02*
X164425880Y-126529047D01*
X164425880Y-126338571D01*
X164378261Y-126243333D01*
X164283023Y-126195714D01*
X163902071Y-126195714D01*
X163806833Y-126243333D01*
X163759214Y-126338571D01*
X163759214Y-126529047D01*
X163806833Y-126624285D01*
X163902071Y-126671904D01*
X163997309Y-126671904D01*
X164092547Y-126195714D01*
X164425880Y-127100476D02*
X163759214Y-127100476D01*
X163949690Y-127100476D02*
X163854452Y-127148095D01*
X163806833Y-127195714D01*
X163759214Y-127290952D01*
X163759214Y-127386190D01*
X164425880Y-127719523D02*
X163759214Y-127719523D01*
X163425880Y-127719523D02*
X163473500Y-127671904D01*
X163521119Y-127719523D01*
X163473500Y-127767142D01*
X163425880Y-127719523D01*
X163521119Y-127719523D01*
X163759214Y-128195714D02*
X164425880Y-128195714D01*
X163854452Y-128195714D02*
X163806833Y-128243333D01*
X163759214Y-128338571D01*
X163759214Y-128481428D01*
X163806833Y-128576666D01*
X163902071Y-128624285D01*
X164425880Y-128624285D01*
X163759214Y-129529047D02*
X164568738Y-129529047D01*
X164663976Y-129481428D01*
X164711595Y-129433809D01*
X164759214Y-129338571D01*
X164759214Y-129195714D01*
X164711595Y-129100476D01*
X164378261Y-129529047D02*
X164425880Y-129433809D01*
X164425880Y-129243333D01*
X164378261Y-129148095D01*
X164330642Y-129100476D01*
X164235404Y-129052857D01*
X163949690Y-129052857D01*
X163854452Y-129100476D01*
X163806833Y-129148095D01*
X163759214Y-129243333D01*
X163759214Y-129433809D01*
X163806833Y-129529047D01*
X134184119Y-144959523D02*
X135184119Y-144959523D01*
X134184119Y-144340476D02*
X134231738Y-144435714D01*
X134279357Y-144483333D01*
X134374595Y-144530952D01*
X134660309Y-144530952D01*
X134755547Y-144483333D01*
X134803166Y-144435714D01*
X134850785Y-144340476D01*
X134850785Y-144197619D01*
X134803166Y-144102380D01*
X134755547Y-144054761D01*
X134660309Y-144007142D01*
X134374595Y-144007142D01*
X134279357Y-144054761D01*
X134231738Y-144102380D01*
X134184119Y-144197619D01*
X134184119Y-144340476D01*
X134850785Y-143673809D02*
X134184119Y-143483333D01*
X134660309Y-143292857D01*
X134184119Y-143102380D01*
X134850785Y-142911904D01*
X134184119Y-142102380D02*
X134707928Y-142102380D01*
X134803166Y-142150000D01*
X134850785Y-142245238D01*
X134850785Y-142435714D01*
X134803166Y-142530952D01*
X134231738Y-142102380D02*
X134184119Y-142197619D01*
X134184119Y-142435714D01*
X134231738Y-142530952D01*
X134326976Y-142578571D01*
X134422214Y-142578571D01*
X134517452Y-142530952D01*
X134565071Y-142435714D01*
X134565071Y-142197619D01*
X134612690Y-142102380D01*
X134231738Y-140911904D02*
X134184119Y-140769047D01*
X134184119Y-140530952D01*
X134231738Y-140435714D01*
X134279357Y-140388095D01*
X134374595Y-140340476D01*
X134469833Y-140340476D01*
X134565071Y-140388095D01*
X134612690Y-140435714D01*
X134660309Y-140530952D01*
X134707928Y-140721428D01*
X134755547Y-140816666D01*
X134803166Y-140864285D01*
X134898404Y-140911904D01*
X134993642Y-140911904D01*
X135088880Y-140864285D01*
X135136500Y-140816666D01*
X135184119Y-140721428D01*
X135184119Y-140483333D01*
X135136500Y-140340476D01*
X134231738Y-139483333D02*
X134184119Y-139578571D01*
X134184119Y-139769047D01*
X134231738Y-139864285D01*
X134279357Y-139911904D01*
X134374595Y-139959523D01*
X134660309Y-139959523D01*
X134755547Y-139911904D01*
X134803166Y-139864285D01*
X134850785Y-139769047D01*
X134850785Y-139578571D01*
X134803166Y-139483333D01*
X134184119Y-138626190D02*
X134707928Y-138626190D01*
X134803166Y-138673809D01*
X134850785Y-138769047D01*
X134850785Y-138959523D01*
X134803166Y-139054761D01*
X134231738Y-138626190D02*
X134184119Y-138721428D01*
X134184119Y-138959523D01*
X134231738Y-139054761D01*
X134326976Y-139102380D01*
X134422214Y-139102380D01*
X134517452Y-139054761D01*
X134565071Y-138959523D01*
X134565071Y-138721428D01*
X134612690Y-138626190D01*
X134184119Y-138007142D02*
X134231738Y-138102380D01*
X134326976Y-138150000D01*
X135184119Y-138150000D01*
X134231738Y-137245238D02*
X134184119Y-137340476D01*
X134184119Y-137530952D01*
X134231738Y-137626190D01*
X134326976Y-137673809D01*
X134707928Y-137673809D01*
X134803166Y-137626190D01*
X134850785Y-137530952D01*
X134850785Y-137340476D01*
X134803166Y-137245238D01*
X134707928Y-137197619D01*
X134612690Y-137197619D01*
X134517452Y-137673809D01*
X134184119Y-136340476D02*
X135184119Y-136340476D01*
X134231738Y-136340476D02*
X134184119Y-136435714D01*
X134184119Y-136626190D01*
X134231738Y-136721428D01*
X134279357Y-136769047D01*
X134374595Y-136816666D01*
X134660309Y-136816666D01*
X134755547Y-136769047D01*
X134803166Y-136721428D01*
X134850785Y-136626190D01*
X134850785Y-136435714D01*
X134803166Y-136340476D01*
X133097928Y-144769047D02*
X133097928Y-144435714D01*
X132574119Y-144292857D02*
X132574119Y-144769047D01*
X133574119Y-144769047D01*
X133574119Y-144292857D01*
X133240785Y-143864285D02*
X132574119Y-143864285D01*
X133145547Y-143864285D02*
X133193166Y-143816666D01*
X133240785Y-143721428D01*
X133240785Y-143578571D01*
X133193166Y-143483333D01*
X133097928Y-143435714D01*
X132574119Y-143435714D01*
X133240785Y-142530952D02*
X132431261Y-142530952D01*
X132336023Y-142578571D01*
X132288404Y-142626190D01*
X132240785Y-142721428D01*
X132240785Y-142864285D01*
X132288404Y-142959523D01*
X132621738Y-142530952D02*
X132574119Y-142626190D01*
X132574119Y-142816666D01*
X132621738Y-142911904D01*
X132669357Y-142959523D01*
X132764595Y-143007142D01*
X133050309Y-143007142D01*
X133145547Y-142959523D01*
X133193166Y-142911904D01*
X133240785Y-142816666D01*
X133240785Y-142626190D01*
X133193166Y-142530952D01*
X132574119Y-142054761D02*
X133240785Y-142054761D01*
X133574119Y-142054761D02*
X133526500Y-142102380D01*
X133478880Y-142054761D01*
X133526500Y-142007142D01*
X133574119Y-142054761D01*
X133478880Y-142054761D01*
X133240785Y-141578571D02*
X132574119Y-141578571D01*
X133145547Y-141578571D02*
X133193166Y-141530952D01*
X133240785Y-141435714D01*
X133240785Y-141292857D01*
X133193166Y-141197619D01*
X133097928Y-141150000D01*
X132574119Y-141150000D01*
X132621738Y-140292857D02*
X132574119Y-140388095D01*
X132574119Y-140578571D01*
X132621738Y-140673809D01*
X132716976Y-140721428D01*
X133097928Y-140721428D01*
X133193166Y-140673809D01*
X133240785Y-140578571D01*
X133240785Y-140388095D01*
X133193166Y-140292857D01*
X133097928Y-140245238D01*
X133002690Y-140245238D01*
X132907452Y-140721428D01*
X132621738Y-139435714D02*
X132574119Y-139530952D01*
X132574119Y-139721428D01*
X132621738Y-139816666D01*
X132716976Y-139864285D01*
X133097928Y-139864285D01*
X133193166Y-139816666D01*
X133240785Y-139721428D01*
X133240785Y-139530952D01*
X133193166Y-139435714D01*
X133097928Y-139388095D01*
X133002690Y-139388095D01*
X132907452Y-139864285D01*
X132574119Y-138959523D02*
X133240785Y-138959523D01*
X133050309Y-138959523D02*
X133145547Y-138911904D01*
X133193166Y-138864285D01*
X133240785Y-138769047D01*
X133240785Y-138673809D01*
X132574119Y-138340476D02*
X133240785Y-138340476D01*
X133574119Y-138340476D02*
X133526500Y-138388095D01*
X133478880Y-138340476D01*
X133526500Y-138292857D01*
X133574119Y-138340476D01*
X133478880Y-138340476D01*
X133240785Y-137864285D02*
X132574119Y-137864285D01*
X133145547Y-137864285D02*
X133193166Y-137816666D01*
X133240785Y-137721428D01*
X133240785Y-137578571D01*
X133193166Y-137483333D01*
X133097928Y-137435714D01*
X132574119Y-137435714D01*
X133240785Y-136530952D02*
X132431261Y-136530952D01*
X132336023Y-136578571D01*
X132288404Y-136626190D01*
X132240785Y-136721428D01*
X132240785Y-136864285D01*
X132288404Y-136959523D01*
X132621738Y-136530952D02*
X132574119Y-136626190D01*
X132574119Y-136816666D01*
X132621738Y-136911904D01*
X132669357Y-136959523D01*
X132764595Y-137007142D01*
X133050309Y-137007142D01*
X133145547Y-136959523D01*
X133193166Y-136911904D01*
X133240785Y-136816666D01*
X133240785Y-136626190D01*
X133193166Y-136530952D01*
X162815880Y-151580476D02*
X161815880Y-151580476D01*
X162815880Y-152199523D02*
X162768261Y-152104285D01*
X162720642Y-152056666D01*
X162625404Y-152009047D01*
X162339690Y-152009047D01*
X162244452Y-152056666D01*
X162196833Y-152104285D01*
X162149214Y-152199523D01*
X162149214Y-152342380D01*
X162196833Y-152437619D01*
X162244452Y-152485238D01*
X162339690Y-152532857D01*
X162625404Y-152532857D01*
X162720642Y-152485238D01*
X162768261Y-152437619D01*
X162815880Y-152342380D01*
X162815880Y-152199523D01*
X162149214Y-152866190D02*
X162815880Y-153056666D01*
X162339690Y-153247142D01*
X162815880Y-153437619D01*
X162149214Y-153628095D01*
X162815880Y-154437619D02*
X162292071Y-154437619D01*
X162196833Y-154390000D01*
X162149214Y-154294761D01*
X162149214Y-154104285D01*
X162196833Y-154009047D01*
X162768261Y-154437619D02*
X162815880Y-154342380D01*
X162815880Y-154104285D01*
X162768261Y-154009047D01*
X162673023Y-153961428D01*
X162577785Y-153961428D01*
X162482547Y-154009047D01*
X162434928Y-154104285D01*
X162434928Y-154342380D01*
X162387309Y-154437619D01*
X162768261Y-155628095D02*
X162815880Y-155770952D01*
X162815880Y-156009047D01*
X162768261Y-156104285D01*
X162720642Y-156151904D01*
X162625404Y-156199523D01*
X162530166Y-156199523D01*
X162434928Y-156151904D01*
X162387309Y-156104285D01*
X162339690Y-156009047D01*
X162292071Y-155818571D01*
X162244452Y-155723333D01*
X162196833Y-155675714D01*
X162101595Y-155628095D01*
X162006357Y-155628095D01*
X161911119Y-155675714D01*
X161863500Y-155723333D01*
X161815880Y-155818571D01*
X161815880Y-156056666D01*
X161863500Y-156199523D01*
X162768261Y-157056666D02*
X162815880Y-156961428D01*
X162815880Y-156770952D01*
X162768261Y-156675714D01*
X162720642Y-156628095D01*
X162625404Y-156580476D01*
X162339690Y-156580476D01*
X162244452Y-156628095D01*
X162196833Y-156675714D01*
X162149214Y-156770952D01*
X162149214Y-156961428D01*
X162196833Y-157056666D01*
X162815880Y-157913809D02*
X162292071Y-157913809D01*
X162196833Y-157866190D01*
X162149214Y-157770952D01*
X162149214Y-157580476D01*
X162196833Y-157485238D01*
X162768261Y-157913809D02*
X162815880Y-157818571D01*
X162815880Y-157580476D01*
X162768261Y-157485238D01*
X162673023Y-157437619D01*
X162577785Y-157437619D01*
X162482547Y-157485238D01*
X162434928Y-157580476D01*
X162434928Y-157818571D01*
X162387309Y-157913809D01*
X162815880Y-158532857D02*
X162768261Y-158437619D01*
X162673023Y-158390000D01*
X161815880Y-158390000D01*
X162768261Y-159294761D02*
X162815880Y-159199523D01*
X162815880Y-159009047D01*
X162768261Y-158913809D01*
X162673023Y-158866190D01*
X162292071Y-158866190D01*
X162196833Y-158913809D01*
X162149214Y-159009047D01*
X162149214Y-159199523D01*
X162196833Y-159294761D01*
X162292071Y-159342380D01*
X162387309Y-159342380D01*
X162482547Y-158866190D01*
X162815880Y-160199523D02*
X161815880Y-160199523D01*
X162768261Y-160199523D02*
X162815880Y-160104285D01*
X162815880Y-159913809D01*
X162768261Y-159818571D01*
X162720642Y-159770952D01*
X162625404Y-159723333D01*
X162339690Y-159723333D01*
X162244452Y-159770952D01*
X162196833Y-159818571D01*
X162149214Y-159913809D01*
X162149214Y-160104285D01*
X162196833Y-160199523D01*
X163902071Y-151770952D02*
X163902071Y-152104285D01*
X164425880Y-152247142D02*
X164425880Y-151770952D01*
X163425880Y-151770952D01*
X163425880Y-152247142D01*
X163759214Y-152675714D02*
X164425880Y-152675714D01*
X163854452Y-152675714D02*
X163806833Y-152723333D01*
X163759214Y-152818571D01*
X163759214Y-152961428D01*
X163806833Y-153056666D01*
X163902071Y-153104285D01*
X164425880Y-153104285D01*
X163759214Y-154009047D02*
X164568738Y-154009047D01*
X164663976Y-153961428D01*
X164711595Y-153913809D01*
X164759214Y-153818571D01*
X164759214Y-153675714D01*
X164711595Y-153580476D01*
X164378261Y-154009047D02*
X164425880Y-153913809D01*
X164425880Y-153723333D01*
X164378261Y-153628095D01*
X164330642Y-153580476D01*
X164235404Y-153532857D01*
X163949690Y-153532857D01*
X163854452Y-153580476D01*
X163806833Y-153628095D01*
X163759214Y-153723333D01*
X163759214Y-153913809D01*
X163806833Y-154009047D01*
X164425880Y-154485238D02*
X163759214Y-154485238D01*
X163425880Y-154485238D02*
X163473500Y-154437619D01*
X163521119Y-154485238D01*
X163473500Y-154532857D01*
X163425880Y-154485238D01*
X163521119Y-154485238D01*
X163759214Y-154961428D02*
X164425880Y-154961428D01*
X163854452Y-154961428D02*
X163806833Y-155009047D01*
X163759214Y-155104285D01*
X163759214Y-155247142D01*
X163806833Y-155342380D01*
X163902071Y-155390000D01*
X164425880Y-155390000D01*
X164378261Y-156247142D02*
X164425880Y-156151904D01*
X164425880Y-155961428D01*
X164378261Y-155866190D01*
X164283023Y-155818571D01*
X163902071Y-155818571D01*
X163806833Y-155866190D01*
X163759214Y-155961428D01*
X163759214Y-156151904D01*
X163806833Y-156247142D01*
X163902071Y-156294761D01*
X163997309Y-156294761D01*
X164092547Y-155818571D01*
X164378261Y-157104285D02*
X164425880Y-157009047D01*
X164425880Y-156818571D01*
X164378261Y-156723333D01*
X164283023Y-156675714D01*
X163902071Y-156675714D01*
X163806833Y-156723333D01*
X163759214Y-156818571D01*
X163759214Y-157009047D01*
X163806833Y-157104285D01*
X163902071Y-157151904D01*
X163997309Y-157151904D01*
X164092547Y-156675714D01*
X164425880Y-157580476D02*
X163759214Y-157580476D01*
X163949690Y-157580476D02*
X163854452Y-157628095D01*
X163806833Y-157675714D01*
X163759214Y-157770952D01*
X163759214Y-157866190D01*
X164425880Y-158199523D02*
X163759214Y-158199523D01*
X163425880Y-158199523D02*
X163473500Y-158151904D01*
X163521119Y-158199523D01*
X163473500Y-158247142D01*
X163425880Y-158199523D01*
X163521119Y-158199523D01*
X163759214Y-158675714D02*
X164425880Y-158675714D01*
X163854452Y-158675714D02*
X163806833Y-158723333D01*
X163759214Y-158818571D01*
X163759214Y-158961428D01*
X163806833Y-159056666D01*
X163902071Y-159104285D01*
X164425880Y-159104285D01*
X163759214Y-160009047D02*
X164568738Y-160009047D01*
X164663976Y-159961428D01*
X164711595Y-159913809D01*
X164759214Y-159818571D01*
X164759214Y-159675714D01*
X164711595Y-159580476D01*
X164378261Y-160009047D02*
X164425880Y-159913809D01*
X164425880Y-159723333D01*
X164378261Y-159628095D01*
X164330642Y-159580476D01*
X164235404Y-159532857D01*
X163949690Y-159532857D01*
X163854452Y-159580476D01*
X163806833Y-159628095D01*
X163759214Y-159723333D01*
X163759214Y-159913809D01*
X163806833Y-160009047D01*
X134184119Y-175439523D02*
X135184119Y-175439523D01*
X134184119Y-174820476D02*
X134231738Y-174915714D01*
X134279357Y-174963333D01*
X134374595Y-175010952D01*
X134660309Y-175010952D01*
X134755547Y-174963333D01*
X134803166Y-174915714D01*
X134850785Y-174820476D01*
X134850785Y-174677619D01*
X134803166Y-174582380D01*
X134755547Y-174534761D01*
X134660309Y-174487142D01*
X134374595Y-174487142D01*
X134279357Y-174534761D01*
X134231738Y-174582380D01*
X134184119Y-174677619D01*
X134184119Y-174820476D01*
X134850785Y-174153809D02*
X134184119Y-173963333D01*
X134660309Y-173772857D01*
X134184119Y-173582380D01*
X134850785Y-173391904D01*
X134184119Y-172582380D02*
X134707928Y-172582380D01*
X134803166Y-172630000D01*
X134850785Y-172725238D01*
X134850785Y-172915714D01*
X134803166Y-173010952D01*
X134231738Y-172582380D02*
X134184119Y-172677619D01*
X134184119Y-172915714D01*
X134231738Y-173010952D01*
X134326976Y-173058571D01*
X134422214Y-173058571D01*
X134517452Y-173010952D01*
X134565071Y-172915714D01*
X134565071Y-172677619D01*
X134612690Y-172582380D01*
X134231738Y-171391904D02*
X134184119Y-171249047D01*
X134184119Y-171010952D01*
X134231738Y-170915714D01*
X134279357Y-170868095D01*
X134374595Y-170820476D01*
X134469833Y-170820476D01*
X134565071Y-170868095D01*
X134612690Y-170915714D01*
X134660309Y-171010952D01*
X134707928Y-171201428D01*
X134755547Y-171296666D01*
X134803166Y-171344285D01*
X134898404Y-171391904D01*
X134993642Y-171391904D01*
X135088880Y-171344285D01*
X135136500Y-171296666D01*
X135184119Y-171201428D01*
X135184119Y-170963333D01*
X135136500Y-170820476D01*
X134231738Y-169963333D02*
X134184119Y-170058571D01*
X134184119Y-170249047D01*
X134231738Y-170344285D01*
X134279357Y-170391904D01*
X134374595Y-170439523D01*
X134660309Y-170439523D01*
X134755547Y-170391904D01*
X134803166Y-170344285D01*
X134850785Y-170249047D01*
X134850785Y-170058571D01*
X134803166Y-169963333D01*
X134184119Y-169106190D02*
X134707928Y-169106190D01*
X134803166Y-169153809D01*
X134850785Y-169249047D01*
X134850785Y-169439523D01*
X134803166Y-169534761D01*
X134231738Y-169106190D02*
X134184119Y-169201428D01*
X134184119Y-169439523D01*
X134231738Y-169534761D01*
X134326976Y-169582380D01*
X134422214Y-169582380D01*
X134517452Y-169534761D01*
X134565071Y-169439523D01*
X134565071Y-169201428D01*
X134612690Y-169106190D01*
X134184119Y-168487142D02*
X134231738Y-168582380D01*
X134326976Y-168630000D01*
X135184119Y-168630000D01*
X134231738Y-167725238D02*
X134184119Y-167820476D01*
X134184119Y-168010952D01*
X134231738Y-168106190D01*
X134326976Y-168153809D01*
X134707928Y-168153809D01*
X134803166Y-168106190D01*
X134850785Y-168010952D01*
X134850785Y-167820476D01*
X134803166Y-167725238D01*
X134707928Y-167677619D01*
X134612690Y-167677619D01*
X134517452Y-168153809D01*
X134184119Y-166820476D02*
X135184119Y-166820476D01*
X134231738Y-166820476D02*
X134184119Y-166915714D01*
X134184119Y-167106190D01*
X134231738Y-167201428D01*
X134279357Y-167249047D01*
X134374595Y-167296666D01*
X134660309Y-167296666D01*
X134755547Y-167249047D01*
X134803166Y-167201428D01*
X134850785Y-167106190D01*
X134850785Y-166915714D01*
X134803166Y-166820476D01*
X133097928Y-175249047D02*
X133097928Y-174915714D01*
X132574119Y-174772857D02*
X132574119Y-175249047D01*
X133574119Y-175249047D01*
X133574119Y-174772857D01*
X133240785Y-174344285D02*
X132574119Y-174344285D01*
X133145547Y-174344285D02*
X133193166Y-174296666D01*
X133240785Y-174201428D01*
X133240785Y-174058571D01*
X133193166Y-173963333D01*
X133097928Y-173915714D01*
X132574119Y-173915714D01*
X133240785Y-173010952D02*
X132431261Y-173010952D01*
X132336023Y-173058571D01*
X132288404Y-173106190D01*
X132240785Y-173201428D01*
X132240785Y-173344285D01*
X132288404Y-173439523D01*
X132621738Y-173010952D02*
X132574119Y-173106190D01*
X132574119Y-173296666D01*
X132621738Y-173391904D01*
X132669357Y-173439523D01*
X132764595Y-173487142D01*
X133050309Y-173487142D01*
X133145547Y-173439523D01*
X133193166Y-173391904D01*
X133240785Y-173296666D01*
X133240785Y-173106190D01*
X133193166Y-173010952D01*
X132574119Y-172534761D02*
X133240785Y-172534761D01*
X133574119Y-172534761D02*
X133526500Y-172582380D01*
X133478880Y-172534761D01*
X133526500Y-172487142D01*
X133574119Y-172534761D01*
X133478880Y-172534761D01*
X133240785Y-172058571D02*
X132574119Y-172058571D01*
X133145547Y-172058571D02*
X133193166Y-172010952D01*
X133240785Y-171915714D01*
X133240785Y-171772857D01*
X133193166Y-171677619D01*
X133097928Y-171630000D01*
X132574119Y-171630000D01*
X132621738Y-170772857D02*
X132574119Y-170868095D01*
X132574119Y-171058571D01*
X132621738Y-171153809D01*
X132716976Y-171201428D01*
X133097928Y-171201428D01*
X133193166Y-171153809D01*
X133240785Y-171058571D01*
X133240785Y-170868095D01*
X133193166Y-170772857D01*
X133097928Y-170725238D01*
X133002690Y-170725238D01*
X132907452Y-171201428D01*
X132621738Y-169915714D02*
X132574119Y-170010952D01*
X132574119Y-170201428D01*
X132621738Y-170296666D01*
X132716976Y-170344285D01*
X133097928Y-170344285D01*
X133193166Y-170296666D01*
X133240785Y-170201428D01*
X133240785Y-170010952D01*
X133193166Y-169915714D01*
X133097928Y-169868095D01*
X133002690Y-169868095D01*
X132907452Y-170344285D01*
X132574119Y-169439523D02*
X133240785Y-169439523D01*
X133050309Y-169439523D02*
X133145547Y-169391904D01*
X133193166Y-169344285D01*
X133240785Y-169249047D01*
X133240785Y-169153809D01*
X132574119Y-168820476D02*
X133240785Y-168820476D01*
X133574119Y-168820476D02*
X133526500Y-168868095D01*
X133478880Y-168820476D01*
X133526500Y-168772857D01*
X133574119Y-168820476D01*
X133478880Y-168820476D01*
X133240785Y-168344285D02*
X132574119Y-168344285D01*
X133145547Y-168344285D02*
X133193166Y-168296666D01*
X133240785Y-168201428D01*
X133240785Y-168058571D01*
X133193166Y-167963333D01*
X133097928Y-167915714D01*
X132574119Y-167915714D01*
X133240785Y-167010952D02*
X132431261Y-167010952D01*
X132336023Y-167058571D01*
X132288404Y-167106190D01*
X132240785Y-167201428D01*
X132240785Y-167344285D01*
X132288404Y-167439523D01*
X132621738Y-167010952D02*
X132574119Y-167106190D01*
X132574119Y-167296666D01*
X132621738Y-167391904D01*
X132669357Y-167439523D01*
X132764595Y-167487142D01*
X133050309Y-167487142D01*
X133145547Y-167439523D01*
X133193166Y-167391904D01*
X133240785Y-167296666D01*
X133240785Y-167106190D01*
X133193166Y-167010952D01*
X177463880Y-29303333D02*
X176797214Y-29303333D01*
X176463880Y-29303333D02*
X176511500Y-29255714D01*
X176559119Y-29303333D01*
X176511500Y-29350952D01*
X176463880Y-29303333D01*
X176559119Y-29303333D01*
X177463880Y-30208095D02*
X176940071Y-30208095D01*
X176844833Y-30160476D01*
X176797214Y-30065238D01*
X176797214Y-29874761D01*
X176844833Y-29779523D01*
X177416261Y-30208095D02*
X177463880Y-30112857D01*
X177463880Y-29874761D01*
X177416261Y-29779523D01*
X177321023Y-29731904D01*
X177225785Y-29731904D01*
X177130547Y-29779523D01*
X177082928Y-29874761D01*
X177082928Y-30112857D01*
X177035309Y-30208095D01*
X177416261Y-30636666D02*
X177463880Y-30731904D01*
X177463880Y-30922380D01*
X177416261Y-31017619D01*
X177321023Y-31065238D01*
X177273404Y-31065238D01*
X177178166Y-31017619D01*
X177130547Y-30922380D01*
X177130547Y-30779523D01*
X177082928Y-30684285D01*
X176987690Y-30636666D01*
X176940071Y-30636666D01*
X176844833Y-30684285D01*
X176797214Y-30779523D01*
X176797214Y-30922380D01*
X176844833Y-31017619D01*
X177416261Y-31922380D02*
X177463880Y-31827142D01*
X177463880Y-31636666D01*
X177416261Y-31541428D01*
X177368642Y-31493809D01*
X177273404Y-31446190D01*
X176987690Y-31446190D01*
X176892452Y-31493809D01*
X176844833Y-31541428D01*
X176797214Y-31636666D01*
X176797214Y-31827142D01*
X176844833Y-31922380D01*
X177463880Y-32779523D02*
X176940071Y-32779523D01*
X176844833Y-32731904D01*
X176797214Y-32636666D01*
X176797214Y-32446190D01*
X176844833Y-32350952D01*
X177416261Y-32779523D02*
X177463880Y-32684285D01*
X177463880Y-32446190D01*
X177416261Y-32350952D01*
X177321023Y-32303333D01*
X177225785Y-32303333D01*
X177130547Y-32350952D01*
X177082928Y-32446190D01*
X177082928Y-32684285D01*
X177035309Y-32779523D01*
X177463880Y-33398571D02*
X177416261Y-33303333D01*
X177321023Y-33255714D01*
X176463880Y-33255714D01*
X177416261Y-34160476D02*
X177463880Y-34065238D01*
X177463880Y-33874761D01*
X177416261Y-33779523D01*
X177321023Y-33731904D01*
X176940071Y-33731904D01*
X176844833Y-33779523D01*
X176797214Y-33874761D01*
X176797214Y-34065238D01*
X176844833Y-34160476D01*
X176940071Y-34208095D01*
X177035309Y-34208095D01*
X177130547Y-33731904D01*
X177463880Y-35065238D02*
X176463880Y-35065238D01*
X177416261Y-35065238D02*
X177463880Y-34970000D01*
X177463880Y-34779523D01*
X177416261Y-34684285D01*
X177368642Y-34636666D01*
X177273404Y-34589047D01*
X176987690Y-34589047D01*
X176892452Y-34636666D01*
X176844833Y-34684285D01*
X176797214Y-34779523D01*
X176797214Y-34970000D01*
X176844833Y-35065238D01*
X177368642Y-35541428D02*
X177416261Y-35589047D01*
X177463880Y-35541428D01*
X177416261Y-35493809D01*
X177368642Y-35541428D01*
X177463880Y-35541428D01*
X177416261Y-36446190D02*
X177463880Y-36350952D01*
X177463880Y-36160476D01*
X177416261Y-36065238D01*
X177368642Y-36017619D01*
X177273404Y-35970000D01*
X176987690Y-35970000D01*
X176892452Y-36017619D01*
X176844833Y-36065238D01*
X176797214Y-36160476D01*
X176797214Y-36350952D01*
X176844833Y-36446190D01*
X177463880Y-37017619D02*
X177416261Y-36922380D01*
X177368642Y-36874761D01*
X177273404Y-36827142D01*
X176987690Y-36827142D01*
X176892452Y-36874761D01*
X176844833Y-36922380D01*
X176797214Y-37017619D01*
X176797214Y-37160476D01*
X176844833Y-37255714D01*
X176892452Y-37303333D01*
X176987690Y-37350952D01*
X177273404Y-37350952D01*
X177368642Y-37303333D01*
X177416261Y-37255714D01*
X177463880Y-37160476D01*
X177463880Y-37017619D01*
X177463880Y-37779523D02*
X176797214Y-37779523D01*
X176892452Y-37779523D02*
X176844833Y-37827142D01*
X176797214Y-37922380D01*
X176797214Y-38065238D01*
X176844833Y-38160476D01*
X176940071Y-38208095D01*
X177463880Y-38208095D01*
X176940071Y-38208095D02*
X176844833Y-38255714D01*
X176797214Y-38350952D01*
X176797214Y-38493809D01*
X176844833Y-38589047D01*
X176940071Y-38636666D01*
X177463880Y-38636666D01*
X119536119Y-53876666D02*
X120202785Y-53876666D01*
X120536119Y-53876666D02*
X120488500Y-53924285D01*
X120440880Y-53876666D01*
X120488500Y-53829047D01*
X120536119Y-53876666D01*
X120440880Y-53876666D01*
X119536119Y-52971904D02*
X120059928Y-52971904D01*
X120155166Y-53019523D01*
X120202785Y-53114761D01*
X120202785Y-53305238D01*
X120155166Y-53400476D01*
X119583738Y-52971904D02*
X119536119Y-53067142D01*
X119536119Y-53305238D01*
X119583738Y-53400476D01*
X119678976Y-53448095D01*
X119774214Y-53448095D01*
X119869452Y-53400476D01*
X119917071Y-53305238D01*
X119917071Y-53067142D01*
X119964690Y-52971904D01*
X119583738Y-52543333D02*
X119536119Y-52448095D01*
X119536119Y-52257619D01*
X119583738Y-52162380D01*
X119678976Y-52114761D01*
X119726595Y-52114761D01*
X119821833Y-52162380D01*
X119869452Y-52257619D01*
X119869452Y-52400476D01*
X119917071Y-52495714D01*
X120012309Y-52543333D01*
X120059928Y-52543333D01*
X120155166Y-52495714D01*
X120202785Y-52400476D01*
X120202785Y-52257619D01*
X120155166Y-52162380D01*
X119583738Y-51257619D02*
X119536119Y-51352857D01*
X119536119Y-51543333D01*
X119583738Y-51638571D01*
X119631357Y-51686190D01*
X119726595Y-51733809D01*
X120012309Y-51733809D01*
X120107547Y-51686190D01*
X120155166Y-51638571D01*
X120202785Y-51543333D01*
X120202785Y-51352857D01*
X120155166Y-51257619D01*
X119536119Y-50400476D02*
X120059928Y-50400476D01*
X120155166Y-50448095D01*
X120202785Y-50543333D01*
X120202785Y-50733809D01*
X120155166Y-50829047D01*
X119583738Y-50400476D02*
X119536119Y-50495714D01*
X119536119Y-50733809D01*
X119583738Y-50829047D01*
X119678976Y-50876666D01*
X119774214Y-50876666D01*
X119869452Y-50829047D01*
X119917071Y-50733809D01*
X119917071Y-50495714D01*
X119964690Y-50400476D01*
X119536119Y-49781428D02*
X119583738Y-49876666D01*
X119678976Y-49924285D01*
X120536119Y-49924285D01*
X119583738Y-49019523D02*
X119536119Y-49114761D01*
X119536119Y-49305238D01*
X119583738Y-49400476D01*
X119678976Y-49448095D01*
X120059928Y-49448095D01*
X120155166Y-49400476D01*
X120202785Y-49305238D01*
X120202785Y-49114761D01*
X120155166Y-49019523D01*
X120059928Y-48971904D01*
X119964690Y-48971904D01*
X119869452Y-49448095D01*
X119536119Y-48114761D02*
X120536119Y-48114761D01*
X119583738Y-48114761D02*
X119536119Y-48210000D01*
X119536119Y-48400476D01*
X119583738Y-48495714D01*
X119631357Y-48543333D01*
X119726595Y-48590952D01*
X120012309Y-48590952D01*
X120107547Y-48543333D01*
X120155166Y-48495714D01*
X120202785Y-48400476D01*
X120202785Y-48210000D01*
X120155166Y-48114761D01*
X119631357Y-47638571D02*
X119583738Y-47590952D01*
X119536119Y-47638571D01*
X119583738Y-47686190D01*
X119631357Y-47638571D01*
X119536119Y-47638571D01*
X119583738Y-46733809D02*
X119536119Y-46829047D01*
X119536119Y-47019523D01*
X119583738Y-47114761D01*
X119631357Y-47162380D01*
X119726595Y-47210000D01*
X120012309Y-47210000D01*
X120107547Y-47162380D01*
X120155166Y-47114761D01*
X120202785Y-47019523D01*
X120202785Y-46829047D01*
X120155166Y-46733809D01*
X119536119Y-46162380D02*
X119583738Y-46257619D01*
X119631357Y-46305238D01*
X119726595Y-46352857D01*
X120012309Y-46352857D01*
X120107547Y-46305238D01*
X120155166Y-46257619D01*
X120202785Y-46162380D01*
X120202785Y-46019523D01*
X120155166Y-45924285D01*
X120107547Y-45876666D01*
X120012309Y-45829047D01*
X119726595Y-45829047D01*
X119631357Y-45876666D01*
X119583738Y-45924285D01*
X119536119Y-46019523D01*
X119536119Y-46162380D01*
X119536119Y-45400476D02*
X120202785Y-45400476D01*
X120107547Y-45400476D02*
X120155166Y-45352857D01*
X120202785Y-45257619D01*
X120202785Y-45114761D01*
X120155166Y-45019523D01*
X120059928Y-44971904D01*
X119536119Y-44971904D01*
X120059928Y-44971904D02*
X120155166Y-44924285D01*
X120202785Y-44829047D01*
X120202785Y-44686190D01*
X120155166Y-44590952D01*
X120059928Y-44543333D01*
X119536119Y-44543333D01*
X177463880Y-59783333D02*
X176797214Y-59783333D01*
X176463880Y-59783333D02*
X176511500Y-59735714D01*
X176559119Y-59783333D01*
X176511500Y-59830952D01*
X176463880Y-59783333D01*
X176559119Y-59783333D01*
X177463880Y-60688095D02*
X176940071Y-60688095D01*
X176844833Y-60640476D01*
X176797214Y-60545238D01*
X176797214Y-60354761D01*
X176844833Y-60259523D01*
X177416261Y-60688095D02*
X177463880Y-60592857D01*
X177463880Y-60354761D01*
X177416261Y-60259523D01*
X177321023Y-60211904D01*
X177225785Y-60211904D01*
X177130547Y-60259523D01*
X177082928Y-60354761D01*
X177082928Y-60592857D01*
X177035309Y-60688095D01*
X177416261Y-61116666D02*
X177463880Y-61211904D01*
X177463880Y-61402380D01*
X177416261Y-61497619D01*
X177321023Y-61545238D01*
X177273404Y-61545238D01*
X177178166Y-61497619D01*
X177130547Y-61402380D01*
X177130547Y-61259523D01*
X177082928Y-61164285D01*
X176987690Y-61116666D01*
X176940071Y-61116666D01*
X176844833Y-61164285D01*
X176797214Y-61259523D01*
X176797214Y-61402380D01*
X176844833Y-61497619D01*
X177416261Y-62402380D02*
X177463880Y-62307142D01*
X177463880Y-62116666D01*
X177416261Y-62021428D01*
X177368642Y-61973809D01*
X177273404Y-61926190D01*
X176987690Y-61926190D01*
X176892452Y-61973809D01*
X176844833Y-62021428D01*
X176797214Y-62116666D01*
X176797214Y-62307142D01*
X176844833Y-62402380D01*
X177463880Y-63259523D02*
X176940071Y-63259523D01*
X176844833Y-63211904D01*
X176797214Y-63116666D01*
X176797214Y-62926190D01*
X176844833Y-62830952D01*
X177416261Y-63259523D02*
X177463880Y-63164285D01*
X177463880Y-62926190D01*
X177416261Y-62830952D01*
X177321023Y-62783333D01*
X177225785Y-62783333D01*
X177130547Y-62830952D01*
X177082928Y-62926190D01*
X177082928Y-63164285D01*
X177035309Y-63259523D01*
X177463880Y-63878571D02*
X177416261Y-63783333D01*
X177321023Y-63735714D01*
X176463880Y-63735714D01*
X177416261Y-64640476D02*
X177463880Y-64545238D01*
X177463880Y-64354761D01*
X177416261Y-64259523D01*
X177321023Y-64211904D01*
X176940071Y-64211904D01*
X176844833Y-64259523D01*
X176797214Y-64354761D01*
X176797214Y-64545238D01*
X176844833Y-64640476D01*
X176940071Y-64688095D01*
X177035309Y-64688095D01*
X177130547Y-64211904D01*
X177463880Y-65545238D02*
X176463880Y-65545238D01*
X177416261Y-65545238D02*
X177463880Y-65450000D01*
X177463880Y-65259523D01*
X177416261Y-65164285D01*
X177368642Y-65116666D01*
X177273404Y-65069047D01*
X176987690Y-65069047D01*
X176892452Y-65116666D01*
X176844833Y-65164285D01*
X176797214Y-65259523D01*
X176797214Y-65450000D01*
X176844833Y-65545238D01*
X177368642Y-66021428D02*
X177416261Y-66069047D01*
X177463880Y-66021428D01*
X177416261Y-65973809D01*
X177368642Y-66021428D01*
X177463880Y-66021428D01*
X177416261Y-66926190D02*
X177463880Y-66830952D01*
X177463880Y-66640476D01*
X177416261Y-66545238D01*
X177368642Y-66497619D01*
X177273404Y-66450000D01*
X176987690Y-66450000D01*
X176892452Y-66497619D01*
X176844833Y-66545238D01*
X176797214Y-66640476D01*
X176797214Y-66830952D01*
X176844833Y-66926190D01*
X177463880Y-67497619D02*
X177416261Y-67402380D01*
X177368642Y-67354761D01*
X177273404Y-67307142D01*
X176987690Y-67307142D01*
X176892452Y-67354761D01*
X176844833Y-67402380D01*
X176797214Y-67497619D01*
X176797214Y-67640476D01*
X176844833Y-67735714D01*
X176892452Y-67783333D01*
X176987690Y-67830952D01*
X177273404Y-67830952D01*
X177368642Y-67783333D01*
X177416261Y-67735714D01*
X177463880Y-67640476D01*
X177463880Y-67497619D01*
X177463880Y-68259523D02*
X176797214Y-68259523D01*
X176892452Y-68259523D02*
X176844833Y-68307142D01*
X176797214Y-68402380D01*
X176797214Y-68545238D01*
X176844833Y-68640476D01*
X176940071Y-68688095D01*
X177463880Y-68688095D01*
X176940071Y-68688095D02*
X176844833Y-68735714D01*
X176797214Y-68830952D01*
X176797214Y-68973809D01*
X176844833Y-69069047D01*
X176940071Y-69116666D01*
X177463880Y-69116666D01*
X119536119Y-84356666D02*
X120202785Y-84356666D01*
X120536119Y-84356666D02*
X120488500Y-84404285D01*
X120440880Y-84356666D01*
X120488500Y-84309047D01*
X120536119Y-84356666D01*
X120440880Y-84356666D01*
X119536119Y-83451904D02*
X120059928Y-83451904D01*
X120155166Y-83499523D01*
X120202785Y-83594761D01*
X120202785Y-83785238D01*
X120155166Y-83880476D01*
X119583738Y-83451904D02*
X119536119Y-83547142D01*
X119536119Y-83785238D01*
X119583738Y-83880476D01*
X119678976Y-83928095D01*
X119774214Y-83928095D01*
X119869452Y-83880476D01*
X119917071Y-83785238D01*
X119917071Y-83547142D01*
X119964690Y-83451904D01*
X119583738Y-83023333D02*
X119536119Y-82928095D01*
X119536119Y-82737619D01*
X119583738Y-82642380D01*
X119678976Y-82594761D01*
X119726595Y-82594761D01*
X119821833Y-82642380D01*
X119869452Y-82737619D01*
X119869452Y-82880476D01*
X119917071Y-82975714D01*
X120012309Y-83023333D01*
X120059928Y-83023333D01*
X120155166Y-82975714D01*
X120202785Y-82880476D01*
X120202785Y-82737619D01*
X120155166Y-82642380D01*
X119583738Y-81737619D02*
X119536119Y-81832857D01*
X119536119Y-82023333D01*
X119583738Y-82118571D01*
X119631357Y-82166190D01*
X119726595Y-82213809D01*
X120012309Y-82213809D01*
X120107547Y-82166190D01*
X120155166Y-82118571D01*
X120202785Y-82023333D01*
X120202785Y-81832857D01*
X120155166Y-81737619D01*
X119536119Y-80880476D02*
X120059928Y-80880476D01*
X120155166Y-80928095D01*
X120202785Y-81023333D01*
X120202785Y-81213809D01*
X120155166Y-81309047D01*
X119583738Y-80880476D02*
X119536119Y-80975714D01*
X119536119Y-81213809D01*
X119583738Y-81309047D01*
X119678976Y-81356666D01*
X119774214Y-81356666D01*
X119869452Y-81309047D01*
X119917071Y-81213809D01*
X119917071Y-80975714D01*
X119964690Y-80880476D01*
X119536119Y-80261428D02*
X119583738Y-80356666D01*
X119678976Y-80404285D01*
X120536119Y-80404285D01*
X119583738Y-79499523D02*
X119536119Y-79594761D01*
X119536119Y-79785238D01*
X119583738Y-79880476D01*
X119678976Y-79928095D01*
X120059928Y-79928095D01*
X120155166Y-79880476D01*
X120202785Y-79785238D01*
X120202785Y-79594761D01*
X120155166Y-79499523D01*
X120059928Y-79451904D01*
X119964690Y-79451904D01*
X119869452Y-79928095D01*
X119536119Y-78594761D02*
X120536119Y-78594761D01*
X119583738Y-78594761D02*
X119536119Y-78690000D01*
X119536119Y-78880476D01*
X119583738Y-78975714D01*
X119631357Y-79023333D01*
X119726595Y-79070952D01*
X120012309Y-79070952D01*
X120107547Y-79023333D01*
X120155166Y-78975714D01*
X120202785Y-78880476D01*
X120202785Y-78690000D01*
X120155166Y-78594761D01*
X119631357Y-78118571D02*
X119583738Y-78070952D01*
X119536119Y-78118571D01*
X119583738Y-78166190D01*
X119631357Y-78118571D01*
X119536119Y-78118571D01*
X119583738Y-77213809D02*
X119536119Y-77309047D01*
X119536119Y-77499523D01*
X119583738Y-77594761D01*
X119631357Y-77642380D01*
X119726595Y-77690000D01*
X120012309Y-77690000D01*
X120107547Y-77642380D01*
X120155166Y-77594761D01*
X120202785Y-77499523D01*
X120202785Y-77309047D01*
X120155166Y-77213809D01*
X119536119Y-76642380D02*
X119583738Y-76737619D01*
X119631357Y-76785238D01*
X119726595Y-76832857D01*
X120012309Y-76832857D01*
X120107547Y-76785238D01*
X120155166Y-76737619D01*
X120202785Y-76642380D01*
X120202785Y-76499523D01*
X120155166Y-76404285D01*
X120107547Y-76356666D01*
X120012309Y-76309047D01*
X119726595Y-76309047D01*
X119631357Y-76356666D01*
X119583738Y-76404285D01*
X119536119Y-76499523D01*
X119536119Y-76642380D01*
X119536119Y-75880476D02*
X120202785Y-75880476D01*
X120107547Y-75880476D02*
X120155166Y-75832857D01*
X120202785Y-75737619D01*
X120202785Y-75594761D01*
X120155166Y-75499523D01*
X120059928Y-75451904D01*
X119536119Y-75451904D01*
X120059928Y-75451904D02*
X120155166Y-75404285D01*
X120202785Y-75309047D01*
X120202785Y-75166190D01*
X120155166Y-75070952D01*
X120059928Y-75023333D01*
X119536119Y-75023333D01*
X177463880Y-90263333D02*
X176797214Y-90263333D01*
X176463880Y-90263333D02*
X176511500Y-90215714D01*
X176559119Y-90263333D01*
X176511500Y-90310952D01*
X176463880Y-90263333D01*
X176559119Y-90263333D01*
X177463880Y-91168095D02*
X176940071Y-91168095D01*
X176844833Y-91120476D01*
X176797214Y-91025238D01*
X176797214Y-90834761D01*
X176844833Y-90739523D01*
X177416261Y-91168095D02*
X177463880Y-91072857D01*
X177463880Y-90834761D01*
X177416261Y-90739523D01*
X177321023Y-90691904D01*
X177225785Y-90691904D01*
X177130547Y-90739523D01*
X177082928Y-90834761D01*
X177082928Y-91072857D01*
X177035309Y-91168095D01*
X177416261Y-91596666D02*
X177463880Y-91691904D01*
X177463880Y-91882380D01*
X177416261Y-91977619D01*
X177321023Y-92025238D01*
X177273404Y-92025238D01*
X177178166Y-91977619D01*
X177130547Y-91882380D01*
X177130547Y-91739523D01*
X177082928Y-91644285D01*
X176987690Y-91596666D01*
X176940071Y-91596666D01*
X176844833Y-91644285D01*
X176797214Y-91739523D01*
X176797214Y-91882380D01*
X176844833Y-91977619D01*
X177416261Y-92882380D02*
X177463880Y-92787142D01*
X177463880Y-92596666D01*
X177416261Y-92501428D01*
X177368642Y-92453809D01*
X177273404Y-92406190D01*
X176987690Y-92406190D01*
X176892452Y-92453809D01*
X176844833Y-92501428D01*
X176797214Y-92596666D01*
X176797214Y-92787142D01*
X176844833Y-92882380D01*
X177463880Y-93739523D02*
X176940071Y-93739523D01*
X176844833Y-93691904D01*
X176797214Y-93596666D01*
X176797214Y-93406190D01*
X176844833Y-93310952D01*
X177416261Y-93739523D02*
X177463880Y-93644285D01*
X177463880Y-93406190D01*
X177416261Y-93310952D01*
X177321023Y-93263333D01*
X177225785Y-93263333D01*
X177130547Y-93310952D01*
X177082928Y-93406190D01*
X177082928Y-93644285D01*
X177035309Y-93739523D01*
X177463880Y-94358571D02*
X177416261Y-94263333D01*
X177321023Y-94215714D01*
X176463880Y-94215714D01*
X177416261Y-95120476D02*
X177463880Y-95025238D01*
X177463880Y-94834761D01*
X177416261Y-94739523D01*
X177321023Y-94691904D01*
X176940071Y-94691904D01*
X176844833Y-94739523D01*
X176797214Y-94834761D01*
X176797214Y-95025238D01*
X176844833Y-95120476D01*
X176940071Y-95168095D01*
X177035309Y-95168095D01*
X177130547Y-94691904D01*
X177463880Y-96025238D02*
X176463880Y-96025238D01*
X177416261Y-96025238D02*
X177463880Y-95930000D01*
X177463880Y-95739523D01*
X177416261Y-95644285D01*
X177368642Y-95596666D01*
X177273404Y-95549047D01*
X176987690Y-95549047D01*
X176892452Y-95596666D01*
X176844833Y-95644285D01*
X176797214Y-95739523D01*
X176797214Y-95930000D01*
X176844833Y-96025238D01*
X177368642Y-96501428D02*
X177416261Y-96549047D01*
X177463880Y-96501428D01*
X177416261Y-96453809D01*
X177368642Y-96501428D01*
X177463880Y-96501428D01*
X177416261Y-97406190D02*
X177463880Y-97310952D01*
X177463880Y-97120476D01*
X177416261Y-97025238D01*
X177368642Y-96977619D01*
X177273404Y-96930000D01*
X176987690Y-96930000D01*
X176892452Y-96977619D01*
X176844833Y-97025238D01*
X176797214Y-97120476D01*
X176797214Y-97310952D01*
X176844833Y-97406190D01*
X177463880Y-97977619D02*
X177416261Y-97882380D01*
X177368642Y-97834761D01*
X177273404Y-97787142D01*
X176987690Y-97787142D01*
X176892452Y-97834761D01*
X176844833Y-97882380D01*
X176797214Y-97977619D01*
X176797214Y-98120476D01*
X176844833Y-98215714D01*
X176892452Y-98263333D01*
X176987690Y-98310952D01*
X177273404Y-98310952D01*
X177368642Y-98263333D01*
X177416261Y-98215714D01*
X177463880Y-98120476D01*
X177463880Y-97977619D01*
X177463880Y-98739523D02*
X176797214Y-98739523D01*
X176892452Y-98739523D02*
X176844833Y-98787142D01*
X176797214Y-98882380D01*
X176797214Y-99025238D01*
X176844833Y-99120476D01*
X176940071Y-99168095D01*
X177463880Y-99168095D01*
X176940071Y-99168095D02*
X176844833Y-99215714D01*
X176797214Y-99310952D01*
X176797214Y-99453809D01*
X176844833Y-99549047D01*
X176940071Y-99596666D01*
X177463880Y-99596666D01*
X119536119Y-114836666D02*
X120202785Y-114836666D01*
X120536119Y-114836666D02*
X120488500Y-114884285D01*
X120440880Y-114836666D01*
X120488500Y-114789047D01*
X120536119Y-114836666D01*
X120440880Y-114836666D01*
X119536119Y-113931904D02*
X120059928Y-113931904D01*
X120155166Y-113979523D01*
X120202785Y-114074761D01*
X120202785Y-114265238D01*
X120155166Y-114360476D01*
X119583738Y-113931904D02*
X119536119Y-114027142D01*
X119536119Y-114265238D01*
X119583738Y-114360476D01*
X119678976Y-114408095D01*
X119774214Y-114408095D01*
X119869452Y-114360476D01*
X119917071Y-114265238D01*
X119917071Y-114027142D01*
X119964690Y-113931904D01*
X119583738Y-113503333D02*
X119536119Y-113408095D01*
X119536119Y-113217619D01*
X119583738Y-113122380D01*
X119678976Y-113074761D01*
X119726595Y-113074761D01*
X119821833Y-113122380D01*
X119869452Y-113217619D01*
X119869452Y-113360476D01*
X119917071Y-113455714D01*
X120012309Y-113503333D01*
X120059928Y-113503333D01*
X120155166Y-113455714D01*
X120202785Y-113360476D01*
X120202785Y-113217619D01*
X120155166Y-113122380D01*
X119583738Y-112217619D02*
X119536119Y-112312857D01*
X119536119Y-112503333D01*
X119583738Y-112598571D01*
X119631357Y-112646190D01*
X119726595Y-112693809D01*
X120012309Y-112693809D01*
X120107547Y-112646190D01*
X120155166Y-112598571D01*
X120202785Y-112503333D01*
X120202785Y-112312857D01*
X120155166Y-112217619D01*
X119536119Y-111360476D02*
X120059928Y-111360476D01*
X120155166Y-111408095D01*
X120202785Y-111503333D01*
X120202785Y-111693809D01*
X120155166Y-111789047D01*
X119583738Y-111360476D02*
X119536119Y-111455714D01*
X119536119Y-111693809D01*
X119583738Y-111789047D01*
X119678976Y-111836666D01*
X119774214Y-111836666D01*
X119869452Y-111789047D01*
X119917071Y-111693809D01*
X119917071Y-111455714D01*
X119964690Y-111360476D01*
X119536119Y-110741428D02*
X119583738Y-110836666D01*
X119678976Y-110884285D01*
X120536119Y-110884285D01*
X119583738Y-109979523D02*
X119536119Y-110074761D01*
X119536119Y-110265238D01*
X119583738Y-110360476D01*
X119678976Y-110408095D01*
X120059928Y-110408095D01*
X120155166Y-110360476D01*
X120202785Y-110265238D01*
X120202785Y-110074761D01*
X120155166Y-109979523D01*
X120059928Y-109931904D01*
X119964690Y-109931904D01*
X119869452Y-110408095D01*
X119536119Y-109074761D02*
X120536119Y-109074761D01*
X119583738Y-109074761D02*
X119536119Y-109170000D01*
X119536119Y-109360476D01*
X119583738Y-109455714D01*
X119631357Y-109503333D01*
X119726595Y-109550952D01*
X120012309Y-109550952D01*
X120107547Y-109503333D01*
X120155166Y-109455714D01*
X120202785Y-109360476D01*
X120202785Y-109170000D01*
X120155166Y-109074761D01*
X119631357Y-108598571D02*
X119583738Y-108550952D01*
X119536119Y-108598571D01*
X119583738Y-108646190D01*
X119631357Y-108598571D01*
X119536119Y-108598571D01*
X119583738Y-107693809D02*
X119536119Y-107789047D01*
X119536119Y-107979523D01*
X119583738Y-108074761D01*
X119631357Y-108122380D01*
X119726595Y-108170000D01*
X120012309Y-108170000D01*
X120107547Y-108122380D01*
X120155166Y-108074761D01*
X120202785Y-107979523D01*
X120202785Y-107789047D01*
X120155166Y-107693809D01*
X119536119Y-107122380D02*
X119583738Y-107217619D01*
X119631357Y-107265238D01*
X119726595Y-107312857D01*
X120012309Y-107312857D01*
X120107547Y-107265238D01*
X120155166Y-107217619D01*
X120202785Y-107122380D01*
X120202785Y-106979523D01*
X120155166Y-106884285D01*
X120107547Y-106836666D01*
X120012309Y-106789047D01*
X119726595Y-106789047D01*
X119631357Y-106836666D01*
X119583738Y-106884285D01*
X119536119Y-106979523D01*
X119536119Y-107122380D01*
X119536119Y-106360476D02*
X120202785Y-106360476D01*
X120107547Y-106360476D02*
X120155166Y-106312857D01*
X120202785Y-106217619D01*
X120202785Y-106074761D01*
X120155166Y-105979523D01*
X120059928Y-105931904D01*
X119536119Y-105931904D01*
X120059928Y-105931904D02*
X120155166Y-105884285D01*
X120202785Y-105789047D01*
X120202785Y-105646190D01*
X120155166Y-105550952D01*
X120059928Y-105503333D01*
X119536119Y-105503333D01*
X177463880Y-120743333D02*
X176797214Y-120743333D01*
X176463880Y-120743333D02*
X176511500Y-120695714D01*
X176559119Y-120743333D01*
X176511500Y-120790952D01*
X176463880Y-120743333D01*
X176559119Y-120743333D01*
X177463880Y-121648095D02*
X176940071Y-121648095D01*
X176844833Y-121600476D01*
X176797214Y-121505238D01*
X176797214Y-121314761D01*
X176844833Y-121219523D01*
X177416261Y-121648095D02*
X177463880Y-121552857D01*
X177463880Y-121314761D01*
X177416261Y-121219523D01*
X177321023Y-121171904D01*
X177225785Y-121171904D01*
X177130547Y-121219523D01*
X177082928Y-121314761D01*
X177082928Y-121552857D01*
X177035309Y-121648095D01*
X177416261Y-122076666D02*
X177463880Y-122171904D01*
X177463880Y-122362380D01*
X177416261Y-122457619D01*
X177321023Y-122505238D01*
X177273404Y-122505238D01*
X177178166Y-122457619D01*
X177130547Y-122362380D01*
X177130547Y-122219523D01*
X177082928Y-122124285D01*
X176987690Y-122076666D01*
X176940071Y-122076666D01*
X176844833Y-122124285D01*
X176797214Y-122219523D01*
X176797214Y-122362380D01*
X176844833Y-122457619D01*
X177416261Y-123362380D02*
X177463880Y-123267142D01*
X177463880Y-123076666D01*
X177416261Y-122981428D01*
X177368642Y-122933809D01*
X177273404Y-122886190D01*
X176987690Y-122886190D01*
X176892452Y-122933809D01*
X176844833Y-122981428D01*
X176797214Y-123076666D01*
X176797214Y-123267142D01*
X176844833Y-123362380D01*
X177463880Y-124219523D02*
X176940071Y-124219523D01*
X176844833Y-124171904D01*
X176797214Y-124076666D01*
X176797214Y-123886190D01*
X176844833Y-123790952D01*
X177416261Y-124219523D02*
X177463880Y-124124285D01*
X177463880Y-123886190D01*
X177416261Y-123790952D01*
X177321023Y-123743333D01*
X177225785Y-123743333D01*
X177130547Y-123790952D01*
X177082928Y-123886190D01*
X177082928Y-124124285D01*
X177035309Y-124219523D01*
X177463880Y-124838571D02*
X177416261Y-124743333D01*
X177321023Y-124695714D01*
X176463880Y-124695714D01*
X177416261Y-125600476D02*
X177463880Y-125505238D01*
X177463880Y-125314761D01*
X177416261Y-125219523D01*
X177321023Y-125171904D01*
X176940071Y-125171904D01*
X176844833Y-125219523D01*
X176797214Y-125314761D01*
X176797214Y-125505238D01*
X176844833Y-125600476D01*
X176940071Y-125648095D01*
X177035309Y-125648095D01*
X177130547Y-125171904D01*
X177463880Y-126505238D02*
X176463880Y-126505238D01*
X177416261Y-126505238D02*
X177463880Y-126410000D01*
X177463880Y-126219523D01*
X177416261Y-126124285D01*
X177368642Y-126076666D01*
X177273404Y-126029047D01*
X176987690Y-126029047D01*
X176892452Y-126076666D01*
X176844833Y-126124285D01*
X176797214Y-126219523D01*
X176797214Y-126410000D01*
X176844833Y-126505238D01*
X177368642Y-126981428D02*
X177416261Y-127029047D01*
X177463880Y-126981428D01*
X177416261Y-126933809D01*
X177368642Y-126981428D01*
X177463880Y-126981428D01*
X177416261Y-127886190D02*
X177463880Y-127790952D01*
X177463880Y-127600476D01*
X177416261Y-127505238D01*
X177368642Y-127457619D01*
X177273404Y-127410000D01*
X176987690Y-127410000D01*
X176892452Y-127457619D01*
X176844833Y-127505238D01*
X176797214Y-127600476D01*
X176797214Y-127790952D01*
X176844833Y-127886190D01*
X177463880Y-128457619D02*
X177416261Y-128362380D01*
X177368642Y-128314761D01*
X177273404Y-128267142D01*
X176987690Y-128267142D01*
X176892452Y-128314761D01*
X176844833Y-128362380D01*
X176797214Y-128457619D01*
X176797214Y-128600476D01*
X176844833Y-128695714D01*
X176892452Y-128743333D01*
X176987690Y-128790952D01*
X177273404Y-128790952D01*
X177368642Y-128743333D01*
X177416261Y-128695714D01*
X177463880Y-128600476D01*
X177463880Y-128457619D01*
X177463880Y-129219523D02*
X176797214Y-129219523D01*
X176892452Y-129219523D02*
X176844833Y-129267142D01*
X176797214Y-129362380D01*
X176797214Y-129505238D01*
X176844833Y-129600476D01*
X176940071Y-129648095D01*
X177463880Y-129648095D01*
X176940071Y-129648095D02*
X176844833Y-129695714D01*
X176797214Y-129790952D01*
X176797214Y-129933809D01*
X176844833Y-130029047D01*
X176940071Y-130076666D01*
X177463880Y-130076666D01*
X119536119Y-145316666D02*
X120202785Y-145316666D01*
X120536119Y-145316666D02*
X120488500Y-145364285D01*
X120440880Y-145316666D01*
X120488500Y-145269047D01*
X120536119Y-145316666D01*
X120440880Y-145316666D01*
X119536119Y-144411904D02*
X120059928Y-144411904D01*
X120155166Y-144459523D01*
X120202785Y-144554761D01*
X120202785Y-144745238D01*
X120155166Y-144840476D01*
X119583738Y-144411904D02*
X119536119Y-144507142D01*
X119536119Y-144745238D01*
X119583738Y-144840476D01*
X119678976Y-144888095D01*
X119774214Y-144888095D01*
X119869452Y-144840476D01*
X119917071Y-144745238D01*
X119917071Y-144507142D01*
X119964690Y-144411904D01*
X119583738Y-143983333D02*
X119536119Y-143888095D01*
X119536119Y-143697619D01*
X119583738Y-143602380D01*
X119678976Y-143554761D01*
X119726595Y-143554761D01*
X119821833Y-143602380D01*
X119869452Y-143697619D01*
X119869452Y-143840476D01*
X119917071Y-143935714D01*
X120012309Y-143983333D01*
X120059928Y-143983333D01*
X120155166Y-143935714D01*
X120202785Y-143840476D01*
X120202785Y-143697619D01*
X120155166Y-143602380D01*
X119583738Y-142697619D02*
X119536119Y-142792857D01*
X119536119Y-142983333D01*
X119583738Y-143078571D01*
X119631357Y-143126190D01*
X119726595Y-143173809D01*
X120012309Y-143173809D01*
X120107547Y-143126190D01*
X120155166Y-143078571D01*
X120202785Y-142983333D01*
X120202785Y-142792857D01*
X120155166Y-142697619D01*
X119536119Y-141840476D02*
X120059928Y-141840476D01*
X120155166Y-141888095D01*
X120202785Y-141983333D01*
X120202785Y-142173809D01*
X120155166Y-142269047D01*
X119583738Y-141840476D02*
X119536119Y-141935714D01*
X119536119Y-142173809D01*
X119583738Y-142269047D01*
X119678976Y-142316666D01*
X119774214Y-142316666D01*
X119869452Y-142269047D01*
X119917071Y-142173809D01*
X119917071Y-141935714D01*
X119964690Y-141840476D01*
X119536119Y-141221428D02*
X119583738Y-141316666D01*
X119678976Y-141364285D01*
X120536119Y-141364285D01*
X119583738Y-140459523D02*
X119536119Y-140554761D01*
X119536119Y-140745238D01*
X119583738Y-140840476D01*
X119678976Y-140888095D01*
X120059928Y-140888095D01*
X120155166Y-140840476D01*
X120202785Y-140745238D01*
X120202785Y-140554761D01*
X120155166Y-140459523D01*
X120059928Y-140411904D01*
X119964690Y-140411904D01*
X119869452Y-140888095D01*
X119536119Y-139554761D02*
X120536119Y-139554761D01*
X119583738Y-139554761D02*
X119536119Y-139650000D01*
X119536119Y-139840476D01*
X119583738Y-139935714D01*
X119631357Y-139983333D01*
X119726595Y-140030952D01*
X120012309Y-140030952D01*
X120107547Y-139983333D01*
X120155166Y-139935714D01*
X120202785Y-139840476D01*
X120202785Y-139650000D01*
X120155166Y-139554761D01*
X119631357Y-139078571D02*
X119583738Y-139030952D01*
X119536119Y-139078571D01*
X119583738Y-139126190D01*
X119631357Y-139078571D01*
X119536119Y-139078571D01*
X119583738Y-138173809D02*
X119536119Y-138269047D01*
X119536119Y-138459523D01*
X119583738Y-138554761D01*
X119631357Y-138602380D01*
X119726595Y-138650000D01*
X120012309Y-138650000D01*
X120107547Y-138602380D01*
X120155166Y-138554761D01*
X120202785Y-138459523D01*
X120202785Y-138269047D01*
X120155166Y-138173809D01*
X119536119Y-137602380D02*
X119583738Y-137697619D01*
X119631357Y-137745238D01*
X119726595Y-137792857D01*
X120012309Y-137792857D01*
X120107547Y-137745238D01*
X120155166Y-137697619D01*
X120202785Y-137602380D01*
X120202785Y-137459523D01*
X120155166Y-137364285D01*
X120107547Y-137316666D01*
X120012309Y-137269047D01*
X119726595Y-137269047D01*
X119631357Y-137316666D01*
X119583738Y-137364285D01*
X119536119Y-137459523D01*
X119536119Y-137602380D01*
X119536119Y-136840476D02*
X120202785Y-136840476D01*
X120107547Y-136840476D02*
X120155166Y-136792857D01*
X120202785Y-136697619D01*
X120202785Y-136554761D01*
X120155166Y-136459523D01*
X120059928Y-136411904D01*
X119536119Y-136411904D01*
X120059928Y-136411904D02*
X120155166Y-136364285D01*
X120202785Y-136269047D01*
X120202785Y-136126190D01*
X120155166Y-136030952D01*
X120059928Y-135983333D01*
X119536119Y-135983333D01*
X177463880Y-151223333D02*
X176797214Y-151223333D01*
X176463880Y-151223333D02*
X176511500Y-151175714D01*
X176559119Y-151223333D01*
X176511500Y-151270952D01*
X176463880Y-151223333D01*
X176559119Y-151223333D01*
X177463880Y-152128095D02*
X176940071Y-152128095D01*
X176844833Y-152080476D01*
X176797214Y-151985238D01*
X176797214Y-151794761D01*
X176844833Y-151699523D01*
X177416261Y-152128095D02*
X177463880Y-152032857D01*
X177463880Y-151794761D01*
X177416261Y-151699523D01*
X177321023Y-151651904D01*
X177225785Y-151651904D01*
X177130547Y-151699523D01*
X177082928Y-151794761D01*
X177082928Y-152032857D01*
X177035309Y-152128095D01*
X177416261Y-152556666D02*
X177463880Y-152651904D01*
X177463880Y-152842380D01*
X177416261Y-152937619D01*
X177321023Y-152985238D01*
X177273404Y-152985238D01*
X177178166Y-152937619D01*
X177130547Y-152842380D01*
X177130547Y-152699523D01*
X177082928Y-152604285D01*
X176987690Y-152556666D01*
X176940071Y-152556666D01*
X176844833Y-152604285D01*
X176797214Y-152699523D01*
X176797214Y-152842380D01*
X176844833Y-152937619D01*
X177416261Y-153842380D02*
X177463880Y-153747142D01*
X177463880Y-153556666D01*
X177416261Y-153461428D01*
X177368642Y-153413809D01*
X177273404Y-153366190D01*
X176987690Y-153366190D01*
X176892452Y-153413809D01*
X176844833Y-153461428D01*
X176797214Y-153556666D01*
X176797214Y-153747142D01*
X176844833Y-153842380D01*
X177463880Y-154699523D02*
X176940071Y-154699523D01*
X176844833Y-154651904D01*
X176797214Y-154556666D01*
X176797214Y-154366190D01*
X176844833Y-154270952D01*
X177416261Y-154699523D02*
X177463880Y-154604285D01*
X177463880Y-154366190D01*
X177416261Y-154270952D01*
X177321023Y-154223333D01*
X177225785Y-154223333D01*
X177130547Y-154270952D01*
X177082928Y-154366190D01*
X177082928Y-154604285D01*
X177035309Y-154699523D01*
X177463880Y-155318571D02*
X177416261Y-155223333D01*
X177321023Y-155175714D01*
X176463880Y-155175714D01*
X177416261Y-156080476D02*
X177463880Y-155985238D01*
X177463880Y-155794761D01*
X177416261Y-155699523D01*
X177321023Y-155651904D01*
X176940071Y-155651904D01*
X176844833Y-155699523D01*
X176797214Y-155794761D01*
X176797214Y-155985238D01*
X176844833Y-156080476D01*
X176940071Y-156128095D01*
X177035309Y-156128095D01*
X177130547Y-155651904D01*
X177463880Y-156985238D02*
X176463880Y-156985238D01*
X177416261Y-156985238D02*
X177463880Y-156890000D01*
X177463880Y-156699523D01*
X177416261Y-156604285D01*
X177368642Y-156556666D01*
X177273404Y-156509047D01*
X176987690Y-156509047D01*
X176892452Y-156556666D01*
X176844833Y-156604285D01*
X176797214Y-156699523D01*
X176797214Y-156890000D01*
X176844833Y-156985238D01*
X177368642Y-157461428D02*
X177416261Y-157509047D01*
X177463880Y-157461428D01*
X177416261Y-157413809D01*
X177368642Y-157461428D01*
X177463880Y-157461428D01*
X177416261Y-158366190D02*
X177463880Y-158270952D01*
X177463880Y-158080476D01*
X177416261Y-157985238D01*
X177368642Y-157937619D01*
X177273404Y-157890000D01*
X176987690Y-157890000D01*
X176892452Y-157937619D01*
X176844833Y-157985238D01*
X176797214Y-158080476D01*
X176797214Y-158270952D01*
X176844833Y-158366190D01*
X177463880Y-158937619D02*
X177416261Y-158842380D01*
X177368642Y-158794761D01*
X177273404Y-158747142D01*
X176987690Y-158747142D01*
X176892452Y-158794761D01*
X176844833Y-158842380D01*
X176797214Y-158937619D01*
X176797214Y-159080476D01*
X176844833Y-159175714D01*
X176892452Y-159223333D01*
X176987690Y-159270952D01*
X177273404Y-159270952D01*
X177368642Y-159223333D01*
X177416261Y-159175714D01*
X177463880Y-159080476D01*
X177463880Y-158937619D01*
X177463880Y-159699523D02*
X176797214Y-159699523D01*
X176892452Y-159699523D02*
X176844833Y-159747142D01*
X176797214Y-159842380D01*
X176797214Y-159985238D01*
X176844833Y-160080476D01*
X176940071Y-160128095D01*
X177463880Y-160128095D01*
X176940071Y-160128095D02*
X176844833Y-160175714D01*
X176797214Y-160270952D01*
X176797214Y-160413809D01*
X176844833Y-160509047D01*
X176940071Y-160556666D01*
X177463880Y-160556666D01*
X119536119Y-175796666D02*
X120202785Y-175796666D01*
X120536119Y-175796666D02*
X120488500Y-175844285D01*
X120440880Y-175796666D01*
X120488500Y-175749047D01*
X120536119Y-175796666D01*
X120440880Y-175796666D01*
X119536119Y-174891904D02*
X120059928Y-174891904D01*
X120155166Y-174939523D01*
X120202785Y-175034761D01*
X120202785Y-175225238D01*
X120155166Y-175320476D01*
X119583738Y-174891904D02*
X119536119Y-174987142D01*
X119536119Y-175225238D01*
X119583738Y-175320476D01*
X119678976Y-175368095D01*
X119774214Y-175368095D01*
X119869452Y-175320476D01*
X119917071Y-175225238D01*
X119917071Y-174987142D01*
X119964690Y-174891904D01*
X119583738Y-174463333D02*
X119536119Y-174368095D01*
X119536119Y-174177619D01*
X119583738Y-174082380D01*
X119678976Y-174034761D01*
X119726595Y-174034761D01*
X119821833Y-174082380D01*
X119869452Y-174177619D01*
X119869452Y-174320476D01*
X119917071Y-174415714D01*
X120012309Y-174463333D01*
X120059928Y-174463333D01*
X120155166Y-174415714D01*
X120202785Y-174320476D01*
X120202785Y-174177619D01*
X120155166Y-174082380D01*
X119583738Y-173177619D02*
X119536119Y-173272857D01*
X119536119Y-173463333D01*
X119583738Y-173558571D01*
X119631357Y-173606190D01*
X119726595Y-173653809D01*
X120012309Y-173653809D01*
X120107547Y-173606190D01*
X120155166Y-173558571D01*
X120202785Y-173463333D01*
X120202785Y-173272857D01*
X120155166Y-173177619D01*
X119536119Y-172320476D02*
X120059928Y-172320476D01*
X120155166Y-172368095D01*
X120202785Y-172463333D01*
X120202785Y-172653809D01*
X120155166Y-172749047D01*
X119583738Y-172320476D02*
X119536119Y-172415714D01*
X119536119Y-172653809D01*
X119583738Y-172749047D01*
X119678976Y-172796666D01*
X119774214Y-172796666D01*
X119869452Y-172749047D01*
X119917071Y-172653809D01*
X119917071Y-172415714D01*
X119964690Y-172320476D01*
X119536119Y-171701428D02*
X119583738Y-171796666D01*
X119678976Y-171844285D01*
X120536119Y-171844285D01*
X119583738Y-170939523D02*
X119536119Y-171034761D01*
X119536119Y-171225238D01*
X119583738Y-171320476D01*
X119678976Y-171368095D01*
X120059928Y-171368095D01*
X120155166Y-171320476D01*
X120202785Y-171225238D01*
X120202785Y-171034761D01*
X120155166Y-170939523D01*
X120059928Y-170891904D01*
X119964690Y-170891904D01*
X119869452Y-171368095D01*
X119536119Y-170034761D02*
X120536119Y-170034761D01*
X119583738Y-170034761D02*
X119536119Y-170130000D01*
X119536119Y-170320476D01*
X119583738Y-170415714D01*
X119631357Y-170463333D01*
X119726595Y-170510952D01*
X120012309Y-170510952D01*
X120107547Y-170463333D01*
X120155166Y-170415714D01*
X120202785Y-170320476D01*
X120202785Y-170130000D01*
X120155166Y-170034761D01*
X119631357Y-169558571D02*
X119583738Y-169510952D01*
X119536119Y-169558571D01*
X119583738Y-169606190D01*
X119631357Y-169558571D01*
X119536119Y-169558571D01*
X119583738Y-168653809D02*
X119536119Y-168749047D01*
X119536119Y-168939523D01*
X119583738Y-169034761D01*
X119631357Y-169082380D01*
X119726595Y-169130000D01*
X120012309Y-169130000D01*
X120107547Y-169082380D01*
X120155166Y-169034761D01*
X120202785Y-168939523D01*
X120202785Y-168749047D01*
X120155166Y-168653809D01*
X119536119Y-168082380D02*
X119583738Y-168177619D01*
X119631357Y-168225238D01*
X119726595Y-168272857D01*
X120012309Y-168272857D01*
X120107547Y-168225238D01*
X120155166Y-168177619D01*
X120202785Y-168082380D01*
X120202785Y-167939523D01*
X120155166Y-167844285D01*
X120107547Y-167796666D01*
X120012309Y-167749047D01*
X119726595Y-167749047D01*
X119631357Y-167796666D01*
X119583738Y-167844285D01*
X119536119Y-167939523D01*
X119536119Y-168082380D01*
X119536119Y-167320476D02*
X120202785Y-167320476D01*
X120107547Y-167320476D02*
X120155166Y-167272857D01*
X120202785Y-167177619D01*
X120202785Y-167034761D01*
X120155166Y-166939523D01*
X120059928Y-166891904D01*
X119536119Y-166891904D01*
X120059928Y-166891904D02*
X120155166Y-166844285D01*
X120202785Y-166749047D01*
X120202785Y-166606190D01*
X120155166Y-166510952D01*
X120059928Y-166463333D01*
X119536119Y-166463333D01*
M02*
