G04 #@! TF.GenerationSoftware,KiCad,Pcbnew,6.0.2+dfsg-1*
G04 #@! TF.CreationDate,2024-06-30T21:45:31-06:00*
G04 #@! TF.ProjectId,ckt-signal-array,636b742d-7369-4676-9e61-6c2d61727261,rev?*
G04 #@! TF.SameCoordinates,Original*
G04 #@! TF.FileFunction,Soldermask,Bot*
G04 #@! TF.FilePolarity,Negative*
%FSLAX46Y46*%
G04 Gerber Fmt 4.6, Leading zero omitted, Abs format (unit mm)*
G04 Created by KiCad (PCBNEW 6.0.2+dfsg-1) date 2024-06-30 21:45:31*
%MOMM*%
%LPD*%
G01*
G04 APERTURE LIST*
%ADD10C,0.500000*%
%ADD11C,2.352400*%
%ADD12C,6.552400*%
%ADD13C,2.000000*%
G04 APERTURE END LIST*
D10*
X178634959Y-170697463D03*
X118337500Y-80113333D03*
X118337500Y-172400000D03*
X118581804Y-93660000D03*
X118337500Y-111440000D03*
X118581804Y-65720000D03*
X178662500Y-156313333D03*
X118581804Y-35240000D03*
X178634959Y-109737463D03*
G36*
G01*
X173158500Y-69441200D02*
X170958500Y-69441200D01*
G75*
G02*
X170882300Y-69365000I0J76200D01*
G01*
X170882300Y-67165000D01*
G75*
G02*
X170958500Y-67088800I76200J0D01*
G01*
X173158500Y-67088800D01*
G75*
G02*
X173234700Y-67165000I0J-76200D01*
G01*
X173234700Y-69365000D01*
G75*
G02*
X173158500Y-69441200I-76200J0D01*
G01*
G37*
D11*
X172058500Y-65725000D03*
X172058500Y-63185000D03*
X172058500Y-60645000D03*
D10*
X118337500Y-141073333D03*
D12*
X139419500Y-171130000D03*
D10*
X178418196Y-80960000D03*
X178662500Y-93660000D03*
X118581804Y-32700000D03*
X118337500Y-47940000D03*
X178662500Y-124986666D03*
X178662500Y-32700000D03*
X178662500Y-96200000D03*
X178662500Y-94506666D03*
X118365041Y-156322536D03*
D12*
X139419500Y-79690000D03*
G36*
G01*
X173158500Y-160881200D02*
X170958500Y-160881200D01*
G75*
G02*
X170882300Y-160805000I0J76200D01*
G01*
X170882300Y-158605000D01*
G75*
G02*
X170958500Y-158528800I76200J0D01*
G01*
X173158500Y-158528800D01*
G75*
G02*
X173234700Y-158605000I0J-76200D01*
G01*
X173234700Y-160805000D01*
G75*
G02*
X173158500Y-160881200I-76200J0D01*
G01*
G37*
D11*
X172058500Y-157165000D03*
X172058500Y-154625000D03*
X172058500Y-152085000D03*
D10*
X178418196Y-78420000D03*
X118581804Y-124140000D03*
X178634959Y-79257463D03*
X118365041Y-94497463D03*
X118581804Y-157160000D03*
X178634959Y-49642536D03*
X118365041Y-124977463D03*
D12*
X157580500Y-94930000D03*
D10*
X118337500Y-49633333D03*
X118581804Y-154620000D03*
X118337500Y-80960000D03*
X118365041Y-64017463D03*
X178662500Y-154620000D03*
X178662500Y-124140000D03*
G36*
G01*
X123841500Y-166138800D02*
X126041500Y-166138800D01*
G75*
G02*
X126117700Y-166215000I0J-76200D01*
G01*
X126117700Y-168415000D01*
G75*
G02*
X126041500Y-168491200I-76200J0D01*
G01*
X123841500Y-168491200D01*
G75*
G02*
X123765300Y-168415000I0J76200D01*
G01*
X123765300Y-166215000D01*
G75*
G02*
X123841500Y-166138800I76200J0D01*
G01*
G37*
D11*
X124941500Y-169855000D03*
X124941500Y-172395000D03*
X124941500Y-174935000D03*
D10*
X118365041Y-33537464D03*
X118337500Y-169860000D03*
X118337500Y-50480000D03*
G36*
G01*
X173158500Y-99921200D02*
X170958500Y-99921200D01*
G75*
G02*
X170882300Y-99845000I0J76200D01*
G01*
X170882300Y-97645000D01*
G75*
G02*
X170958500Y-97568800I76200J0D01*
G01*
X173158500Y-97568800D01*
G75*
G02*
X173234700Y-97645000I0J-76200D01*
G01*
X173234700Y-99845000D01*
G75*
G02*
X173158500Y-99921200I-76200J0D01*
G01*
G37*
D11*
X172058500Y-96205000D03*
X172058500Y-93665000D03*
X172058500Y-91125000D03*
D10*
X178662500Y-33546667D03*
X178662500Y-157160000D03*
X178662500Y-125833333D03*
X118337500Y-140226666D03*
X118337500Y-78420000D03*
D12*
X139419500Y-110170000D03*
D10*
X178418196Y-141920000D03*
X118365041Y-155457463D03*
X178634959Y-141082536D03*
G36*
G01*
X123841500Y-44218800D02*
X126041500Y-44218800D01*
G75*
G02*
X126117700Y-44295000I0J-76200D01*
G01*
X126117700Y-46495000D01*
G75*
G02*
X126041500Y-46571200I-76200J0D01*
G01*
X123841500Y-46571200D01*
G75*
G02*
X123765300Y-46495000I0J76200D01*
G01*
X123765300Y-44295000D01*
G75*
G02*
X123841500Y-44218800I76200J0D01*
G01*
G37*
D11*
X124941500Y-47935000D03*
X124941500Y-50475000D03*
X124941500Y-53015000D03*
D10*
X178662500Y-34393333D03*
D12*
X139419500Y-140650000D03*
G36*
G01*
X173158500Y-38961200D02*
X170958500Y-38961200D01*
G75*
G02*
X170882300Y-38885000I0J76200D01*
G01*
X170882300Y-36685000D01*
G75*
G02*
X170958500Y-36608800I76200J0D01*
G01*
X173158500Y-36608800D01*
G75*
G02*
X173234700Y-36685000I0J-76200D01*
G01*
X173234700Y-38885000D01*
G75*
G02*
X173158500Y-38961200I-76200J0D01*
G01*
G37*
D11*
X172058500Y-35245000D03*
X172058500Y-32705000D03*
X172058500Y-30165000D03*
G36*
G01*
X123841500Y-135658800D02*
X126041500Y-135658800D01*
G75*
G02*
X126117700Y-135735000I0J-76200D01*
G01*
X126117700Y-137935000D01*
G75*
G02*
X126041500Y-138011200I-76200J0D01*
G01*
X123841500Y-138011200D01*
G75*
G02*
X123765300Y-137935000I0J76200D01*
G01*
X123765300Y-135735000D01*
G75*
G02*
X123841500Y-135658800I76200J0D01*
G01*
G37*
X124941500Y-139375000D03*
X124941500Y-141915000D03*
X124941500Y-144455000D03*
D10*
X178662500Y-65720000D03*
X178662500Y-63180000D03*
X178418196Y-50480000D03*
X118365041Y-125842536D03*
X178418196Y-47940000D03*
X178662500Y-95353333D03*
X178662500Y-126680000D03*
X178418196Y-169860000D03*
X118365041Y-34402536D03*
X178418196Y-139380000D03*
G36*
G01*
X123841500Y-105178800D02*
X126041500Y-105178800D01*
G75*
G02*
X126117700Y-105255000I0J-76200D01*
G01*
X126117700Y-107455000D01*
G75*
G02*
X126041500Y-107531200I-76200J0D01*
G01*
X123841500Y-107531200D01*
G75*
G02*
X123765300Y-107455000I0J76200D01*
G01*
X123765300Y-105255000D01*
G75*
G02*
X123841500Y-105178800I76200J0D01*
G01*
G37*
D11*
X124941500Y-108895000D03*
X124941500Y-111435000D03*
X124941500Y-113975000D03*
D10*
X178634959Y-140217463D03*
X118337500Y-170706666D03*
X178662500Y-64026666D03*
X118337500Y-108900000D03*
X118337500Y-110593333D03*
X178418196Y-172400000D03*
X178418196Y-111440000D03*
X118337500Y-79266666D03*
D12*
X157580500Y-155890000D03*
D10*
X118337500Y-139380000D03*
X178662500Y-64873333D03*
G36*
G01*
X123841500Y-74698800D02*
X126041500Y-74698800D01*
G75*
G02*
X126117700Y-74775000I0J-76200D01*
G01*
X126117700Y-76975000D01*
G75*
G02*
X126041500Y-77051200I-76200J0D01*
G01*
X123841500Y-77051200D01*
G75*
G02*
X123765300Y-76975000I0J76200D01*
G01*
X123765300Y-74775000D01*
G75*
G02*
X123841500Y-74698800I76200J0D01*
G01*
G37*
D11*
X124941500Y-78415000D03*
X124941500Y-80955000D03*
X124941500Y-83495000D03*
D12*
X157580500Y-64450000D03*
D10*
X178634959Y-110602536D03*
G36*
G01*
X173158500Y-130401200D02*
X170958500Y-130401200D01*
G75*
G02*
X170882300Y-130325000I0J76200D01*
G01*
X170882300Y-128125000D01*
G75*
G02*
X170958500Y-128048800I76200J0D01*
G01*
X173158500Y-128048800D01*
G75*
G02*
X173234700Y-128125000I0J-76200D01*
G01*
X173234700Y-130325000D01*
G75*
G02*
X173158500Y-130401200I-76200J0D01*
G01*
G37*
D11*
X172058500Y-126685000D03*
X172058500Y-124145000D03*
X172058500Y-121605000D03*
D10*
X118337500Y-171553333D03*
X118365041Y-64882536D03*
D12*
X157580500Y-125410000D03*
D10*
X178634959Y-80122536D03*
X178418196Y-108900000D03*
X118337500Y-141920000D03*
X178662500Y-35240000D03*
X118581804Y-96200000D03*
X118581804Y-126680000D03*
X118337500Y-109746666D03*
X178634959Y-48777463D03*
D12*
X157580500Y-33970000D03*
D10*
X178634959Y-171562536D03*
X118581804Y-63180000D03*
X178662500Y-155466666D03*
X118337500Y-48786666D03*
D12*
X139419500Y-49210000D03*
D10*
X118365041Y-95362536D03*
D13*
X118337500Y-182560000D03*
X118337500Y-22540000D03*
X178662500Y-22540000D03*
M02*
