G04 #@! TF.GenerationSoftware,KiCad,Pcbnew,6.0.2+dfsg-1*
G04 #@! TF.CreationDate,2024-06-30T21:45:31-06:00*
G04 #@! TF.ProjectId,ckt-signal-array,636b742d-7369-4676-9e61-6c2d61727261,rev?*
G04 #@! TF.SameCoordinates,Original*
G04 #@! TF.FileFunction,Paste,Top*
G04 #@! TF.FilePolarity,Positive*
%FSLAX46Y46*%
G04 Gerber Fmt 4.6, Leading zero omitted, Abs format (unit mm)*
G04 Created by KiCad (PCBNEW 6.0.2+dfsg-1) date 2024-06-30 21:45:31*
%MOMM*%
%LPD*%
G01*
G04 APERTURE LIST*
G04 APERTURE END LIST*
G36*
G01*
X132335500Y-166870000D02*
X132335500Y-167770000D01*
G75*
G02*
X132085500Y-168020000I-250000J0D01*
G01*
X131560500Y-168020000D01*
G75*
G02*
X131310500Y-167770000I0J250000D01*
G01*
X131310500Y-166870000D01*
G75*
G02*
X131560500Y-166620000I250000J0D01*
G01*
X132085500Y-166620000D01*
G75*
G02*
X132335500Y-166870000I0J-250000D01*
G01*
G37*
G36*
G01*
X130510500Y-166870000D02*
X130510500Y-167770000D01*
G75*
G02*
X130260500Y-168020000I-250000J0D01*
G01*
X129735500Y-168020000D01*
G75*
G02*
X129485500Y-167770000I0J250000D01*
G01*
X129485500Y-166870000D01*
G75*
G02*
X129735500Y-166620000I250000J0D01*
G01*
X130260500Y-166620000D01*
G75*
G02*
X130510500Y-166870000I0J-250000D01*
G01*
G37*
G36*
G01*
X122222750Y-65875000D02*
X121310250Y-65875000D01*
G75*
G02*
X121066500Y-65631250I0J243750D01*
G01*
X121066500Y-65143750D01*
G75*
G02*
X121310250Y-64900000I243750J0D01*
G01*
X122222750Y-64900000D01*
G75*
G02*
X122466500Y-65143750I0J-243750D01*
G01*
X122466500Y-65631250D01*
G75*
G02*
X122222750Y-65875000I-243750J0D01*
G01*
G37*
G36*
G01*
X122222750Y-64000000D02*
X121310250Y-64000000D01*
G75*
G02*
X121066500Y-63756250I0J243750D01*
G01*
X121066500Y-63268750D01*
G75*
G02*
X121310250Y-63025000I243750J0D01*
G01*
X122222750Y-63025000D01*
G75*
G02*
X122466500Y-63268750I0J-243750D01*
G01*
X122466500Y-63756250D01*
G75*
G02*
X122222750Y-64000000I-243750J0D01*
G01*
G37*
G36*
G01*
X127302750Y-65875000D02*
X126390250Y-65875000D01*
G75*
G02*
X126146500Y-65631250I0J243750D01*
G01*
X126146500Y-65143750D01*
G75*
G02*
X126390250Y-64900000I243750J0D01*
G01*
X127302750Y-64900000D01*
G75*
G02*
X127546500Y-65143750I0J-243750D01*
G01*
X127546500Y-65631250D01*
G75*
G02*
X127302750Y-65875000I-243750J0D01*
G01*
G37*
G36*
G01*
X127302750Y-64000000D02*
X126390250Y-64000000D01*
G75*
G02*
X126146500Y-63756250I0J243750D01*
G01*
X126146500Y-63268750D01*
G75*
G02*
X126390250Y-63025000I243750J0D01*
G01*
X127302750Y-63025000D01*
G75*
G02*
X127546500Y-63268750I0J-243750D01*
G01*
X127546500Y-63756250D01*
G75*
G02*
X127302750Y-64000000I-243750J0D01*
G01*
G37*
G36*
G01*
X174777250Y-78265000D02*
X175689750Y-78265000D01*
G75*
G02*
X175933500Y-78508750I0J-243750D01*
G01*
X175933500Y-78996250D01*
G75*
G02*
X175689750Y-79240000I-243750J0D01*
G01*
X174777250Y-79240000D01*
G75*
G02*
X174533500Y-78996250I0J243750D01*
G01*
X174533500Y-78508750D01*
G75*
G02*
X174777250Y-78265000I243750J0D01*
G01*
G37*
G36*
G01*
X174777250Y-80140000D02*
X175689750Y-80140000D01*
G75*
G02*
X175933500Y-80383750I0J-243750D01*
G01*
X175933500Y-80871250D01*
G75*
G02*
X175689750Y-81115000I-243750J0D01*
G01*
X174777250Y-81115000D01*
G75*
G02*
X174533500Y-80871250I0J243750D01*
G01*
X174533500Y-80383750D01*
G75*
G02*
X174777250Y-80140000I243750J0D01*
G01*
G37*
G36*
G01*
X164664500Y-94110000D02*
X164664500Y-93210000D01*
G75*
G02*
X164914500Y-92960000I250000J0D01*
G01*
X165439500Y-92960000D01*
G75*
G02*
X165689500Y-93210000I0J-250000D01*
G01*
X165689500Y-94110000D01*
G75*
G02*
X165439500Y-94360000I-250000J0D01*
G01*
X164914500Y-94360000D01*
G75*
G02*
X164664500Y-94110000I0J250000D01*
G01*
G37*
G36*
G01*
X166489500Y-94110000D02*
X166489500Y-93210000D01*
G75*
G02*
X166739500Y-92960000I250000J0D01*
G01*
X167264500Y-92960000D01*
G75*
G02*
X167514500Y-93210000I0J-250000D01*
G01*
X167514500Y-94110000D01*
G75*
G02*
X167264500Y-94360000I-250000J0D01*
G01*
X166739500Y-94360000D01*
G75*
G02*
X166489500Y-94110000I0J250000D01*
G01*
G37*
G36*
G01*
X164664500Y-99190000D02*
X164664500Y-98290000D01*
G75*
G02*
X164914500Y-98040000I250000J0D01*
G01*
X165439500Y-98040000D01*
G75*
G02*
X165689500Y-98290000I0J-250000D01*
G01*
X165689500Y-99190000D01*
G75*
G02*
X165439500Y-99440000I-250000J0D01*
G01*
X164914500Y-99440000D01*
G75*
G02*
X164664500Y-99190000I0J250000D01*
G01*
G37*
G36*
G01*
X166489500Y-99190000D02*
X166489500Y-98290000D01*
G75*
G02*
X166739500Y-98040000I250000J0D01*
G01*
X167264500Y-98040000D01*
G75*
G02*
X167514500Y-98290000I0J-250000D01*
G01*
X167514500Y-99190000D01*
G75*
G02*
X167264500Y-99440000I-250000J0D01*
G01*
X166739500Y-99440000D01*
G75*
G02*
X166489500Y-99190000I0J250000D01*
G01*
G37*
G36*
G01*
X132335500Y-50030000D02*
X132335500Y-50930000D01*
G75*
G02*
X132085500Y-51180000I-250000J0D01*
G01*
X131560500Y-51180000D01*
G75*
G02*
X131310500Y-50930000I0J250000D01*
G01*
X131310500Y-50030000D01*
G75*
G02*
X131560500Y-49780000I250000J0D01*
G01*
X132085500Y-49780000D01*
G75*
G02*
X132335500Y-50030000I0J-250000D01*
G01*
G37*
G36*
G01*
X130510500Y-50030000D02*
X130510500Y-50930000D01*
G75*
G02*
X130260500Y-51180000I-250000J0D01*
G01*
X129735500Y-51180000D01*
G75*
G02*
X129485500Y-50930000I0J250000D01*
G01*
X129485500Y-50030000D01*
G75*
G02*
X129735500Y-49780000I250000J0D01*
G01*
X130260500Y-49780000D01*
G75*
G02*
X130510500Y-50030000I0J-250000D01*
G01*
G37*
G36*
G01*
X127302750Y-35395000D02*
X126390250Y-35395000D01*
G75*
G02*
X126146500Y-35151250I0J243750D01*
G01*
X126146500Y-34663750D01*
G75*
G02*
X126390250Y-34420000I243750J0D01*
G01*
X127302750Y-34420000D01*
G75*
G02*
X127546500Y-34663750I0J-243750D01*
G01*
X127546500Y-35151250D01*
G75*
G02*
X127302750Y-35395000I-243750J0D01*
G01*
G37*
G36*
G01*
X127302750Y-33520000D02*
X126390250Y-33520000D01*
G75*
G02*
X126146500Y-33276250I0J243750D01*
G01*
X126146500Y-32788750D01*
G75*
G02*
X126390250Y-32545000I243750J0D01*
G01*
X127302750Y-32545000D01*
G75*
G02*
X127546500Y-32788750I0J-243750D01*
G01*
X127546500Y-33276250D01*
G75*
G02*
X127302750Y-33520000I-243750J0D01*
G01*
G37*
G36*
G01*
X164664500Y-155070000D02*
X164664500Y-154170000D01*
G75*
G02*
X164914500Y-153920000I250000J0D01*
G01*
X165439500Y-153920000D01*
G75*
G02*
X165689500Y-154170000I0J-250000D01*
G01*
X165689500Y-155070000D01*
G75*
G02*
X165439500Y-155320000I-250000J0D01*
G01*
X164914500Y-155320000D01*
G75*
G02*
X164664500Y-155070000I0J250000D01*
G01*
G37*
G36*
G01*
X166489500Y-155070000D02*
X166489500Y-154170000D01*
G75*
G02*
X166739500Y-153920000I250000J0D01*
G01*
X167264500Y-153920000D01*
G75*
G02*
X167514500Y-154170000I0J-250000D01*
G01*
X167514500Y-155070000D01*
G75*
G02*
X167264500Y-155320000I-250000J0D01*
G01*
X166739500Y-155320000D01*
G75*
G02*
X166489500Y-155070000I0J250000D01*
G01*
G37*
G36*
G01*
X164664500Y-96650000D02*
X164664500Y-95750000D01*
G75*
G02*
X164914500Y-95500000I250000J0D01*
G01*
X165439500Y-95500000D01*
G75*
G02*
X165689500Y-95750000I0J-250000D01*
G01*
X165689500Y-96650000D01*
G75*
G02*
X165439500Y-96900000I-250000J0D01*
G01*
X164914500Y-96900000D01*
G75*
G02*
X164664500Y-96650000I0J250000D01*
G01*
G37*
G36*
G01*
X166489500Y-96650000D02*
X166489500Y-95750000D01*
G75*
G02*
X166739500Y-95500000I250000J0D01*
G01*
X167264500Y-95500000D01*
G75*
G02*
X167514500Y-95750000I0J-250000D01*
G01*
X167514500Y-96650000D01*
G75*
G02*
X167264500Y-96900000I-250000J0D01*
G01*
X166739500Y-96900000D01*
G75*
G02*
X166489500Y-96650000I0J250000D01*
G01*
G37*
G36*
G01*
X122222750Y-126835000D02*
X121310250Y-126835000D01*
G75*
G02*
X121066500Y-126591250I0J243750D01*
G01*
X121066500Y-126103750D01*
G75*
G02*
X121310250Y-125860000I243750J0D01*
G01*
X122222750Y-125860000D01*
G75*
G02*
X122466500Y-126103750I0J-243750D01*
G01*
X122466500Y-126591250D01*
G75*
G02*
X122222750Y-126835000I-243750J0D01*
G01*
G37*
G36*
G01*
X122222750Y-124960000D02*
X121310250Y-124960000D01*
G75*
G02*
X121066500Y-124716250I0J243750D01*
G01*
X121066500Y-124228750D01*
G75*
G02*
X121310250Y-123985000I243750J0D01*
G01*
X122222750Y-123985000D01*
G75*
G02*
X122466500Y-124228750I0J-243750D01*
G01*
X122466500Y-124716250D01*
G75*
G02*
X122222750Y-124960000I-243750J0D01*
G01*
G37*
G36*
G01*
X172237250Y-169705000D02*
X173149750Y-169705000D01*
G75*
G02*
X173393500Y-169948750I0J-243750D01*
G01*
X173393500Y-170436250D01*
G75*
G02*
X173149750Y-170680000I-243750J0D01*
G01*
X172237250Y-170680000D01*
G75*
G02*
X171993500Y-170436250I0J243750D01*
G01*
X171993500Y-169948750D01*
G75*
G02*
X172237250Y-169705000I243750J0D01*
G01*
G37*
G36*
G01*
X172237250Y-171580000D02*
X173149750Y-171580000D01*
G75*
G02*
X173393500Y-171823750I0J-243750D01*
G01*
X173393500Y-172311250D01*
G75*
G02*
X173149750Y-172555000I-243750J0D01*
G01*
X172237250Y-172555000D01*
G75*
G02*
X171993500Y-172311250I0J243750D01*
G01*
X171993500Y-171823750D01*
G75*
G02*
X172237250Y-171580000I243750J0D01*
G01*
G37*
G36*
G01*
X132335500Y-108450000D02*
X132335500Y-109350000D01*
G75*
G02*
X132085500Y-109600000I-250000J0D01*
G01*
X131560500Y-109600000D01*
G75*
G02*
X131310500Y-109350000I0J250000D01*
G01*
X131310500Y-108450000D01*
G75*
G02*
X131560500Y-108200000I250000J0D01*
G01*
X132085500Y-108200000D01*
G75*
G02*
X132335500Y-108450000I0J-250000D01*
G01*
G37*
G36*
G01*
X130510500Y-108450000D02*
X130510500Y-109350000D01*
G75*
G02*
X130260500Y-109600000I-250000J0D01*
G01*
X129735500Y-109600000D01*
G75*
G02*
X129485500Y-109350000I0J250000D01*
G01*
X129485500Y-108450000D01*
G75*
G02*
X129735500Y-108200000I250000J0D01*
G01*
X130260500Y-108200000D01*
G75*
G02*
X130510500Y-108450000I0J-250000D01*
G01*
G37*
G36*
G01*
X124762750Y-35395000D02*
X123850250Y-35395000D01*
G75*
G02*
X123606500Y-35151250I0J243750D01*
G01*
X123606500Y-34663750D01*
G75*
G02*
X123850250Y-34420000I243750J0D01*
G01*
X124762750Y-34420000D01*
G75*
G02*
X125006500Y-34663750I0J-243750D01*
G01*
X125006500Y-35151250D01*
G75*
G02*
X124762750Y-35395000I-243750J0D01*
G01*
G37*
G36*
G01*
X124762750Y-33520000D02*
X123850250Y-33520000D01*
G75*
G02*
X123606500Y-33276250I0J243750D01*
G01*
X123606500Y-32788750D01*
G75*
G02*
X123850250Y-32545000I243750J0D01*
G01*
X124762750Y-32545000D01*
G75*
G02*
X125006500Y-32788750I0J-243750D01*
G01*
X125006500Y-33276250D01*
G75*
G02*
X124762750Y-33520000I-243750J0D01*
G01*
G37*
G36*
G01*
X132335500Y-136390000D02*
X132335500Y-137290000D01*
G75*
G02*
X132085500Y-137540000I-250000J0D01*
G01*
X131560500Y-137540000D01*
G75*
G02*
X131310500Y-137290000I0J250000D01*
G01*
X131310500Y-136390000D01*
G75*
G02*
X131560500Y-136140000I250000J0D01*
G01*
X132085500Y-136140000D01*
G75*
G02*
X132335500Y-136390000I0J-250000D01*
G01*
G37*
G36*
G01*
X130510500Y-136390000D02*
X130510500Y-137290000D01*
G75*
G02*
X130260500Y-137540000I-250000J0D01*
G01*
X129735500Y-137540000D01*
G75*
G02*
X129485500Y-137290000I0J250000D01*
G01*
X129485500Y-136390000D01*
G75*
G02*
X129735500Y-136140000I250000J0D01*
G01*
X130260500Y-136140000D01*
G75*
G02*
X130510500Y-136390000I0J-250000D01*
G01*
G37*
G36*
G01*
X132335500Y-44950000D02*
X132335500Y-45850000D01*
G75*
G02*
X132085500Y-46100000I-250000J0D01*
G01*
X131560500Y-46100000D01*
G75*
G02*
X131310500Y-45850000I0J250000D01*
G01*
X131310500Y-44950000D01*
G75*
G02*
X131560500Y-44700000I250000J0D01*
G01*
X132085500Y-44700000D01*
G75*
G02*
X132335500Y-44950000I0J-250000D01*
G01*
G37*
G36*
G01*
X130510500Y-44950000D02*
X130510500Y-45850000D01*
G75*
G02*
X130260500Y-46100000I-250000J0D01*
G01*
X129735500Y-46100000D01*
G75*
G02*
X129485500Y-45850000I0J250000D01*
G01*
X129485500Y-44950000D01*
G75*
G02*
X129735500Y-44700000I250000J0D01*
G01*
X130260500Y-44700000D01*
G75*
G02*
X130510500Y-44950000I0J-250000D01*
G01*
G37*
G36*
G01*
X172237250Y-47785000D02*
X173149750Y-47785000D01*
G75*
G02*
X173393500Y-48028750I0J-243750D01*
G01*
X173393500Y-48516250D01*
G75*
G02*
X173149750Y-48760000I-243750J0D01*
G01*
X172237250Y-48760000D01*
G75*
G02*
X171993500Y-48516250I0J243750D01*
G01*
X171993500Y-48028750D01*
G75*
G02*
X172237250Y-47785000I243750J0D01*
G01*
G37*
G36*
G01*
X172237250Y-49660000D02*
X173149750Y-49660000D01*
G75*
G02*
X173393500Y-49903750I0J-243750D01*
G01*
X173393500Y-50391250D01*
G75*
G02*
X173149750Y-50635000I-243750J0D01*
G01*
X172237250Y-50635000D01*
G75*
G02*
X171993500Y-50391250I0J243750D01*
G01*
X171993500Y-49903750D01*
G75*
G02*
X172237250Y-49660000I243750J0D01*
G01*
G37*
G36*
G01*
X122222750Y-157315000D02*
X121310250Y-157315000D01*
G75*
G02*
X121066500Y-157071250I0J243750D01*
G01*
X121066500Y-156583750D01*
G75*
G02*
X121310250Y-156340000I243750J0D01*
G01*
X122222750Y-156340000D01*
G75*
G02*
X122466500Y-156583750I0J-243750D01*
G01*
X122466500Y-157071250D01*
G75*
G02*
X122222750Y-157315000I-243750J0D01*
G01*
G37*
G36*
G01*
X122222750Y-155440000D02*
X121310250Y-155440000D01*
G75*
G02*
X121066500Y-155196250I0J243750D01*
G01*
X121066500Y-154708750D01*
G75*
G02*
X121310250Y-154465000I243750J0D01*
G01*
X122222750Y-154465000D01*
G75*
G02*
X122466500Y-154708750I0J-243750D01*
G01*
X122466500Y-155196250D01*
G75*
G02*
X122222750Y-155440000I-243750J0D01*
G01*
G37*
G36*
G01*
X132335500Y-169410000D02*
X132335500Y-170310000D01*
G75*
G02*
X132085500Y-170560000I-250000J0D01*
G01*
X131560500Y-170560000D01*
G75*
G02*
X131310500Y-170310000I0J250000D01*
G01*
X131310500Y-169410000D01*
G75*
G02*
X131560500Y-169160000I250000J0D01*
G01*
X132085500Y-169160000D01*
G75*
G02*
X132335500Y-169410000I0J-250000D01*
G01*
G37*
G36*
G01*
X130510500Y-169410000D02*
X130510500Y-170310000D01*
G75*
G02*
X130260500Y-170560000I-250000J0D01*
G01*
X129735500Y-170560000D01*
G75*
G02*
X129485500Y-170310000I0J250000D01*
G01*
X129485500Y-169410000D01*
G75*
G02*
X129735500Y-169160000I250000J0D01*
G01*
X130260500Y-169160000D01*
G75*
G02*
X130510500Y-169410000I0J-250000D01*
G01*
G37*
G36*
G01*
X169697250Y-139225000D02*
X170609750Y-139225000D01*
G75*
G02*
X170853500Y-139468750I0J-243750D01*
G01*
X170853500Y-139956250D01*
G75*
G02*
X170609750Y-140200000I-243750J0D01*
G01*
X169697250Y-140200000D01*
G75*
G02*
X169453500Y-139956250I0J243750D01*
G01*
X169453500Y-139468750D01*
G75*
G02*
X169697250Y-139225000I243750J0D01*
G01*
G37*
G36*
G01*
X169697250Y-141100000D02*
X170609750Y-141100000D01*
G75*
G02*
X170853500Y-141343750I0J-243750D01*
G01*
X170853500Y-141831250D01*
G75*
G02*
X170609750Y-142075000I-243750J0D01*
G01*
X169697250Y-142075000D01*
G75*
G02*
X169453500Y-141831250I0J243750D01*
G01*
X169453500Y-141343750D01*
G75*
G02*
X169697250Y-141100000I243750J0D01*
G01*
G37*
G36*
G01*
X164664500Y-66170000D02*
X164664500Y-65270000D01*
G75*
G02*
X164914500Y-65020000I250000J0D01*
G01*
X165439500Y-65020000D01*
G75*
G02*
X165689500Y-65270000I0J-250000D01*
G01*
X165689500Y-66170000D01*
G75*
G02*
X165439500Y-66420000I-250000J0D01*
G01*
X164914500Y-66420000D01*
G75*
G02*
X164664500Y-66170000I0J250000D01*
G01*
G37*
G36*
G01*
X166489500Y-66170000D02*
X166489500Y-65270000D01*
G75*
G02*
X166739500Y-65020000I250000J0D01*
G01*
X167264500Y-65020000D01*
G75*
G02*
X167514500Y-65270000I0J-250000D01*
G01*
X167514500Y-66170000D01*
G75*
G02*
X167264500Y-66420000I-250000J0D01*
G01*
X166739500Y-66420000D01*
G75*
G02*
X166489500Y-66170000I0J250000D01*
G01*
G37*
G36*
G01*
X172237250Y-139225000D02*
X173149750Y-139225000D01*
G75*
G02*
X173393500Y-139468750I0J-243750D01*
G01*
X173393500Y-139956250D01*
G75*
G02*
X173149750Y-140200000I-243750J0D01*
G01*
X172237250Y-140200000D01*
G75*
G02*
X171993500Y-139956250I0J243750D01*
G01*
X171993500Y-139468750D01*
G75*
G02*
X172237250Y-139225000I243750J0D01*
G01*
G37*
G36*
G01*
X172237250Y-141100000D02*
X173149750Y-141100000D01*
G75*
G02*
X173393500Y-141343750I0J-243750D01*
G01*
X173393500Y-141831250D01*
G75*
G02*
X173149750Y-142075000I-243750J0D01*
G01*
X172237250Y-142075000D01*
G75*
G02*
X171993500Y-141831250I0J243750D01*
G01*
X171993500Y-141343750D01*
G75*
G02*
X172237250Y-141100000I243750J0D01*
G01*
G37*
G36*
G01*
X174777250Y-108745000D02*
X175689750Y-108745000D01*
G75*
G02*
X175933500Y-108988750I0J-243750D01*
G01*
X175933500Y-109476250D01*
G75*
G02*
X175689750Y-109720000I-243750J0D01*
G01*
X174777250Y-109720000D01*
G75*
G02*
X174533500Y-109476250I0J243750D01*
G01*
X174533500Y-108988750D01*
G75*
G02*
X174777250Y-108745000I243750J0D01*
G01*
G37*
G36*
G01*
X174777250Y-110620000D02*
X175689750Y-110620000D01*
G75*
G02*
X175933500Y-110863750I0J-243750D01*
G01*
X175933500Y-111351250D01*
G75*
G02*
X175689750Y-111595000I-243750J0D01*
G01*
X174777250Y-111595000D01*
G75*
G02*
X174533500Y-111351250I0J243750D01*
G01*
X174533500Y-110863750D01*
G75*
G02*
X174777250Y-110620000I243750J0D01*
G01*
G37*
G36*
G01*
X132335500Y-80510000D02*
X132335500Y-81410000D01*
G75*
G02*
X132085500Y-81660000I-250000J0D01*
G01*
X131560500Y-81660000D01*
G75*
G02*
X131310500Y-81410000I0J250000D01*
G01*
X131310500Y-80510000D01*
G75*
G02*
X131560500Y-80260000I250000J0D01*
G01*
X132085500Y-80260000D01*
G75*
G02*
X132335500Y-80510000I0J-250000D01*
G01*
G37*
G36*
G01*
X130510500Y-80510000D02*
X130510500Y-81410000D01*
G75*
G02*
X130260500Y-81660000I-250000J0D01*
G01*
X129735500Y-81660000D01*
G75*
G02*
X129485500Y-81410000I0J250000D01*
G01*
X129485500Y-80510000D01*
G75*
G02*
X129735500Y-80260000I250000J0D01*
G01*
X130260500Y-80260000D01*
G75*
G02*
X130510500Y-80510000I0J-250000D01*
G01*
G37*
G36*
G01*
X132335500Y-77970000D02*
X132335500Y-78870000D01*
G75*
G02*
X132085500Y-79120000I-250000J0D01*
G01*
X131560500Y-79120000D01*
G75*
G02*
X131310500Y-78870000I0J250000D01*
G01*
X131310500Y-77970000D01*
G75*
G02*
X131560500Y-77720000I250000J0D01*
G01*
X132085500Y-77720000D01*
G75*
G02*
X132335500Y-77970000I0J-250000D01*
G01*
G37*
G36*
G01*
X130510500Y-77970000D02*
X130510500Y-78870000D01*
G75*
G02*
X130260500Y-79120000I-250000J0D01*
G01*
X129735500Y-79120000D01*
G75*
G02*
X129485500Y-78870000I0J250000D01*
G01*
X129485500Y-77970000D01*
G75*
G02*
X129735500Y-77720000I250000J0D01*
G01*
X130260500Y-77720000D01*
G75*
G02*
X130510500Y-77970000I0J-250000D01*
G01*
G37*
G36*
G01*
X132335500Y-47490000D02*
X132335500Y-48390000D01*
G75*
G02*
X132085500Y-48640000I-250000J0D01*
G01*
X131560500Y-48640000D01*
G75*
G02*
X131310500Y-48390000I0J250000D01*
G01*
X131310500Y-47490000D01*
G75*
G02*
X131560500Y-47240000I250000J0D01*
G01*
X132085500Y-47240000D01*
G75*
G02*
X132335500Y-47490000I0J-250000D01*
G01*
G37*
G36*
G01*
X130510500Y-47490000D02*
X130510500Y-48390000D01*
G75*
G02*
X130260500Y-48640000I-250000J0D01*
G01*
X129735500Y-48640000D01*
G75*
G02*
X129485500Y-48390000I0J250000D01*
G01*
X129485500Y-47490000D01*
G75*
G02*
X129735500Y-47240000I250000J0D01*
G01*
X130260500Y-47240000D01*
G75*
G02*
X130510500Y-47490000I0J-250000D01*
G01*
G37*
G36*
G01*
X164664500Y-68710000D02*
X164664500Y-67810000D01*
G75*
G02*
X164914500Y-67560000I250000J0D01*
G01*
X165439500Y-67560000D01*
G75*
G02*
X165689500Y-67810000I0J-250000D01*
G01*
X165689500Y-68710000D01*
G75*
G02*
X165439500Y-68960000I-250000J0D01*
G01*
X164914500Y-68960000D01*
G75*
G02*
X164664500Y-68710000I0J250000D01*
G01*
G37*
G36*
G01*
X166489500Y-68710000D02*
X166489500Y-67810000D01*
G75*
G02*
X166739500Y-67560000I250000J0D01*
G01*
X167264500Y-67560000D01*
G75*
G02*
X167514500Y-67810000I0J-250000D01*
G01*
X167514500Y-68710000D01*
G75*
G02*
X167264500Y-68960000I-250000J0D01*
G01*
X166739500Y-68960000D01*
G75*
G02*
X166489500Y-68710000I0J250000D01*
G01*
G37*
G36*
G01*
X164664500Y-160150000D02*
X164664500Y-159250000D01*
G75*
G02*
X164914500Y-159000000I250000J0D01*
G01*
X165439500Y-159000000D01*
G75*
G02*
X165689500Y-159250000I0J-250000D01*
G01*
X165689500Y-160150000D01*
G75*
G02*
X165439500Y-160400000I-250000J0D01*
G01*
X164914500Y-160400000D01*
G75*
G02*
X164664500Y-160150000I0J250000D01*
G01*
G37*
G36*
G01*
X166489500Y-160150000D02*
X166489500Y-159250000D01*
G75*
G02*
X166739500Y-159000000I250000J0D01*
G01*
X167264500Y-159000000D01*
G75*
G02*
X167514500Y-159250000I0J-250000D01*
G01*
X167514500Y-160150000D01*
G75*
G02*
X167264500Y-160400000I-250000J0D01*
G01*
X166739500Y-160400000D01*
G75*
G02*
X166489500Y-160150000I0J250000D01*
G01*
G37*
G36*
G01*
X164664500Y-63630000D02*
X164664500Y-62730000D01*
G75*
G02*
X164914500Y-62480000I250000J0D01*
G01*
X165439500Y-62480000D01*
G75*
G02*
X165689500Y-62730000I0J-250000D01*
G01*
X165689500Y-63630000D01*
G75*
G02*
X165439500Y-63880000I-250000J0D01*
G01*
X164914500Y-63880000D01*
G75*
G02*
X164664500Y-63630000I0J250000D01*
G01*
G37*
G36*
G01*
X166489500Y-63630000D02*
X166489500Y-62730000D01*
G75*
G02*
X166739500Y-62480000I250000J0D01*
G01*
X167264500Y-62480000D01*
G75*
G02*
X167514500Y-62730000I0J-250000D01*
G01*
X167514500Y-63630000D01*
G75*
G02*
X167264500Y-63880000I-250000J0D01*
G01*
X166739500Y-63880000D01*
G75*
G02*
X166489500Y-63630000I0J250000D01*
G01*
G37*
G36*
G01*
X164664500Y-35690000D02*
X164664500Y-34790000D01*
G75*
G02*
X164914500Y-34540000I250000J0D01*
G01*
X165439500Y-34540000D01*
G75*
G02*
X165689500Y-34790000I0J-250000D01*
G01*
X165689500Y-35690000D01*
G75*
G02*
X165439500Y-35940000I-250000J0D01*
G01*
X164914500Y-35940000D01*
G75*
G02*
X164664500Y-35690000I0J250000D01*
G01*
G37*
G36*
G01*
X166489500Y-35690000D02*
X166489500Y-34790000D01*
G75*
G02*
X166739500Y-34540000I250000J0D01*
G01*
X167264500Y-34540000D01*
G75*
G02*
X167514500Y-34790000I0J-250000D01*
G01*
X167514500Y-35690000D01*
G75*
G02*
X167264500Y-35940000I-250000J0D01*
G01*
X166739500Y-35940000D01*
G75*
G02*
X166489500Y-35690000I0J250000D01*
G01*
G37*
G36*
G01*
X124762750Y-65875000D02*
X123850250Y-65875000D01*
G75*
G02*
X123606500Y-65631250I0J243750D01*
G01*
X123606500Y-65143750D01*
G75*
G02*
X123850250Y-64900000I243750J0D01*
G01*
X124762750Y-64900000D01*
G75*
G02*
X125006500Y-65143750I0J-243750D01*
G01*
X125006500Y-65631250D01*
G75*
G02*
X124762750Y-65875000I-243750J0D01*
G01*
G37*
G36*
G01*
X124762750Y-64000000D02*
X123850250Y-64000000D01*
G75*
G02*
X123606500Y-63756250I0J243750D01*
G01*
X123606500Y-63268750D01*
G75*
G02*
X123850250Y-63025000I243750J0D01*
G01*
X124762750Y-63025000D01*
G75*
G02*
X125006500Y-63268750I0J-243750D01*
G01*
X125006500Y-63756250D01*
G75*
G02*
X124762750Y-64000000I-243750J0D01*
G01*
G37*
G36*
G01*
X122222750Y-35395000D02*
X121310250Y-35395000D01*
G75*
G02*
X121066500Y-35151250I0J243750D01*
G01*
X121066500Y-34663750D01*
G75*
G02*
X121310250Y-34420000I243750J0D01*
G01*
X122222750Y-34420000D01*
G75*
G02*
X122466500Y-34663750I0J-243750D01*
G01*
X122466500Y-35151250D01*
G75*
G02*
X122222750Y-35395000I-243750J0D01*
G01*
G37*
G36*
G01*
X122222750Y-33520000D02*
X121310250Y-33520000D01*
G75*
G02*
X121066500Y-33276250I0J243750D01*
G01*
X121066500Y-32788750D01*
G75*
G02*
X121310250Y-32545000I243750J0D01*
G01*
X122222750Y-32545000D01*
G75*
G02*
X122466500Y-32788750I0J-243750D01*
G01*
X122466500Y-33276250D01*
G75*
G02*
X122222750Y-33520000I-243750J0D01*
G01*
G37*
G36*
G01*
X164664500Y-129670000D02*
X164664500Y-128770000D01*
G75*
G02*
X164914500Y-128520000I250000J0D01*
G01*
X165439500Y-128520000D01*
G75*
G02*
X165689500Y-128770000I0J-250000D01*
G01*
X165689500Y-129670000D01*
G75*
G02*
X165439500Y-129920000I-250000J0D01*
G01*
X164914500Y-129920000D01*
G75*
G02*
X164664500Y-129670000I0J250000D01*
G01*
G37*
G36*
G01*
X166489500Y-129670000D02*
X166489500Y-128770000D01*
G75*
G02*
X166739500Y-128520000I250000J0D01*
G01*
X167264500Y-128520000D01*
G75*
G02*
X167514500Y-128770000I0J-250000D01*
G01*
X167514500Y-129670000D01*
G75*
G02*
X167264500Y-129920000I-250000J0D01*
G01*
X166739500Y-129920000D01*
G75*
G02*
X166489500Y-129670000I0J250000D01*
G01*
G37*
G36*
G01*
X169697250Y-47785000D02*
X170609750Y-47785000D01*
G75*
G02*
X170853500Y-48028750I0J-243750D01*
G01*
X170853500Y-48516250D01*
G75*
G02*
X170609750Y-48760000I-243750J0D01*
G01*
X169697250Y-48760000D01*
G75*
G02*
X169453500Y-48516250I0J243750D01*
G01*
X169453500Y-48028750D01*
G75*
G02*
X169697250Y-47785000I243750J0D01*
G01*
G37*
G36*
G01*
X169697250Y-49660000D02*
X170609750Y-49660000D01*
G75*
G02*
X170853500Y-49903750I0J-243750D01*
G01*
X170853500Y-50391250D01*
G75*
G02*
X170609750Y-50635000I-243750J0D01*
G01*
X169697250Y-50635000D01*
G75*
G02*
X169453500Y-50391250I0J243750D01*
G01*
X169453500Y-49903750D01*
G75*
G02*
X169697250Y-49660000I243750J0D01*
G01*
G37*
G36*
G01*
X132335500Y-138930000D02*
X132335500Y-139830000D01*
G75*
G02*
X132085500Y-140080000I-250000J0D01*
G01*
X131560500Y-140080000D01*
G75*
G02*
X131310500Y-139830000I0J250000D01*
G01*
X131310500Y-138930000D01*
G75*
G02*
X131560500Y-138680000I250000J0D01*
G01*
X132085500Y-138680000D01*
G75*
G02*
X132335500Y-138930000I0J-250000D01*
G01*
G37*
G36*
G01*
X130510500Y-138930000D02*
X130510500Y-139830000D01*
G75*
G02*
X130260500Y-140080000I-250000J0D01*
G01*
X129735500Y-140080000D01*
G75*
G02*
X129485500Y-139830000I0J250000D01*
G01*
X129485500Y-138930000D01*
G75*
G02*
X129735500Y-138680000I250000J0D01*
G01*
X130260500Y-138680000D01*
G75*
G02*
X130510500Y-138930000I0J-250000D01*
G01*
G37*
G36*
G01*
X164664500Y-38230000D02*
X164664500Y-37330000D01*
G75*
G02*
X164914500Y-37080000I250000J0D01*
G01*
X165439500Y-37080000D01*
G75*
G02*
X165689500Y-37330000I0J-250000D01*
G01*
X165689500Y-38230000D01*
G75*
G02*
X165439500Y-38480000I-250000J0D01*
G01*
X164914500Y-38480000D01*
G75*
G02*
X164664500Y-38230000I0J250000D01*
G01*
G37*
G36*
G01*
X166489500Y-38230000D02*
X166489500Y-37330000D01*
G75*
G02*
X166739500Y-37080000I250000J0D01*
G01*
X167264500Y-37080000D01*
G75*
G02*
X167514500Y-37330000I0J-250000D01*
G01*
X167514500Y-38230000D01*
G75*
G02*
X167264500Y-38480000I-250000J0D01*
G01*
X166739500Y-38480000D01*
G75*
G02*
X166489500Y-38230000I0J250000D01*
G01*
G37*
G36*
G01*
X132335500Y-141470000D02*
X132335500Y-142370000D01*
G75*
G02*
X132085500Y-142620000I-250000J0D01*
G01*
X131560500Y-142620000D01*
G75*
G02*
X131310500Y-142370000I0J250000D01*
G01*
X131310500Y-141470000D01*
G75*
G02*
X131560500Y-141220000I250000J0D01*
G01*
X132085500Y-141220000D01*
G75*
G02*
X132335500Y-141470000I0J-250000D01*
G01*
G37*
G36*
G01*
X130510500Y-141470000D02*
X130510500Y-142370000D01*
G75*
G02*
X130260500Y-142620000I-250000J0D01*
G01*
X129735500Y-142620000D01*
G75*
G02*
X129485500Y-142370000I0J250000D01*
G01*
X129485500Y-141470000D01*
G75*
G02*
X129735500Y-141220000I250000J0D01*
G01*
X130260500Y-141220000D01*
G75*
G02*
X130510500Y-141470000I0J-250000D01*
G01*
G37*
G36*
G01*
X169697250Y-108745000D02*
X170609750Y-108745000D01*
G75*
G02*
X170853500Y-108988750I0J-243750D01*
G01*
X170853500Y-109476250D01*
G75*
G02*
X170609750Y-109720000I-243750J0D01*
G01*
X169697250Y-109720000D01*
G75*
G02*
X169453500Y-109476250I0J243750D01*
G01*
X169453500Y-108988750D01*
G75*
G02*
X169697250Y-108745000I243750J0D01*
G01*
G37*
G36*
G01*
X169697250Y-110620000D02*
X170609750Y-110620000D01*
G75*
G02*
X170853500Y-110863750I0J-243750D01*
G01*
X170853500Y-111351250D01*
G75*
G02*
X170609750Y-111595000I-243750J0D01*
G01*
X169697250Y-111595000D01*
G75*
G02*
X169453500Y-111351250I0J243750D01*
G01*
X169453500Y-110863750D01*
G75*
G02*
X169697250Y-110620000I243750J0D01*
G01*
G37*
G36*
G01*
X127302750Y-157315000D02*
X126390250Y-157315000D01*
G75*
G02*
X126146500Y-157071250I0J243750D01*
G01*
X126146500Y-156583750D01*
G75*
G02*
X126390250Y-156340000I243750J0D01*
G01*
X127302750Y-156340000D01*
G75*
G02*
X127546500Y-156583750I0J-243750D01*
G01*
X127546500Y-157071250D01*
G75*
G02*
X127302750Y-157315000I-243750J0D01*
G01*
G37*
G36*
G01*
X127302750Y-155440000D02*
X126390250Y-155440000D01*
G75*
G02*
X126146500Y-155196250I0J243750D01*
G01*
X126146500Y-154708750D01*
G75*
G02*
X126390250Y-154465000I243750J0D01*
G01*
X127302750Y-154465000D01*
G75*
G02*
X127546500Y-154708750I0J-243750D01*
G01*
X127546500Y-155196250D01*
G75*
G02*
X127302750Y-155440000I-243750J0D01*
G01*
G37*
G36*
G01*
X124762750Y-157315000D02*
X123850250Y-157315000D01*
G75*
G02*
X123606500Y-157071250I0J243750D01*
G01*
X123606500Y-156583750D01*
G75*
G02*
X123850250Y-156340000I243750J0D01*
G01*
X124762750Y-156340000D01*
G75*
G02*
X125006500Y-156583750I0J-243750D01*
G01*
X125006500Y-157071250D01*
G75*
G02*
X124762750Y-157315000I-243750J0D01*
G01*
G37*
G36*
G01*
X124762750Y-155440000D02*
X123850250Y-155440000D01*
G75*
G02*
X123606500Y-155196250I0J243750D01*
G01*
X123606500Y-154708750D01*
G75*
G02*
X123850250Y-154465000I243750J0D01*
G01*
X124762750Y-154465000D01*
G75*
G02*
X125006500Y-154708750I0J-243750D01*
G01*
X125006500Y-155196250D01*
G75*
G02*
X124762750Y-155440000I-243750J0D01*
G01*
G37*
G36*
G01*
X169697250Y-78265000D02*
X170609750Y-78265000D01*
G75*
G02*
X170853500Y-78508750I0J-243750D01*
G01*
X170853500Y-78996250D01*
G75*
G02*
X170609750Y-79240000I-243750J0D01*
G01*
X169697250Y-79240000D01*
G75*
G02*
X169453500Y-78996250I0J243750D01*
G01*
X169453500Y-78508750D01*
G75*
G02*
X169697250Y-78265000I243750J0D01*
G01*
G37*
G36*
G01*
X169697250Y-80140000D02*
X170609750Y-80140000D01*
G75*
G02*
X170853500Y-80383750I0J-243750D01*
G01*
X170853500Y-80871250D01*
G75*
G02*
X170609750Y-81115000I-243750J0D01*
G01*
X169697250Y-81115000D01*
G75*
G02*
X169453500Y-80871250I0J243750D01*
G01*
X169453500Y-80383750D01*
G75*
G02*
X169697250Y-80140000I243750J0D01*
G01*
G37*
G36*
G01*
X172237250Y-78265000D02*
X173149750Y-78265000D01*
G75*
G02*
X173393500Y-78508750I0J-243750D01*
G01*
X173393500Y-78996250D01*
G75*
G02*
X173149750Y-79240000I-243750J0D01*
G01*
X172237250Y-79240000D01*
G75*
G02*
X171993500Y-78996250I0J243750D01*
G01*
X171993500Y-78508750D01*
G75*
G02*
X172237250Y-78265000I243750J0D01*
G01*
G37*
G36*
G01*
X172237250Y-80140000D02*
X173149750Y-80140000D01*
G75*
G02*
X173393500Y-80383750I0J-243750D01*
G01*
X173393500Y-80871250D01*
G75*
G02*
X173149750Y-81115000I-243750J0D01*
G01*
X172237250Y-81115000D01*
G75*
G02*
X171993500Y-80871250I0J243750D01*
G01*
X171993500Y-80383750D01*
G75*
G02*
X172237250Y-80140000I243750J0D01*
G01*
G37*
G36*
G01*
X174777250Y-169705000D02*
X175689750Y-169705000D01*
G75*
G02*
X175933500Y-169948750I0J-243750D01*
G01*
X175933500Y-170436250D01*
G75*
G02*
X175689750Y-170680000I-243750J0D01*
G01*
X174777250Y-170680000D01*
G75*
G02*
X174533500Y-170436250I0J243750D01*
G01*
X174533500Y-169948750D01*
G75*
G02*
X174777250Y-169705000I243750J0D01*
G01*
G37*
G36*
G01*
X174777250Y-171580000D02*
X175689750Y-171580000D01*
G75*
G02*
X175933500Y-171823750I0J-243750D01*
G01*
X175933500Y-172311250D01*
G75*
G02*
X175689750Y-172555000I-243750J0D01*
G01*
X174777250Y-172555000D01*
G75*
G02*
X174533500Y-172311250I0J243750D01*
G01*
X174533500Y-171823750D01*
G75*
G02*
X174777250Y-171580000I243750J0D01*
G01*
G37*
G36*
G01*
X174777250Y-47785000D02*
X175689750Y-47785000D01*
G75*
G02*
X175933500Y-48028750I0J-243750D01*
G01*
X175933500Y-48516250D01*
G75*
G02*
X175689750Y-48760000I-243750J0D01*
G01*
X174777250Y-48760000D01*
G75*
G02*
X174533500Y-48516250I0J243750D01*
G01*
X174533500Y-48028750D01*
G75*
G02*
X174777250Y-47785000I243750J0D01*
G01*
G37*
G36*
G01*
X174777250Y-49660000D02*
X175689750Y-49660000D01*
G75*
G02*
X175933500Y-49903750I0J-243750D01*
G01*
X175933500Y-50391250D01*
G75*
G02*
X175689750Y-50635000I-243750J0D01*
G01*
X174777250Y-50635000D01*
G75*
G02*
X174533500Y-50391250I0J243750D01*
G01*
X174533500Y-49903750D01*
G75*
G02*
X174777250Y-49660000I243750J0D01*
G01*
G37*
G36*
G01*
X124762750Y-96355000D02*
X123850250Y-96355000D01*
G75*
G02*
X123606500Y-96111250I0J243750D01*
G01*
X123606500Y-95623750D01*
G75*
G02*
X123850250Y-95380000I243750J0D01*
G01*
X124762750Y-95380000D01*
G75*
G02*
X125006500Y-95623750I0J-243750D01*
G01*
X125006500Y-96111250D01*
G75*
G02*
X124762750Y-96355000I-243750J0D01*
G01*
G37*
G36*
G01*
X124762750Y-94480000D02*
X123850250Y-94480000D01*
G75*
G02*
X123606500Y-94236250I0J243750D01*
G01*
X123606500Y-93748750D01*
G75*
G02*
X123850250Y-93505000I243750J0D01*
G01*
X124762750Y-93505000D01*
G75*
G02*
X125006500Y-93748750I0J-243750D01*
G01*
X125006500Y-94236250D01*
G75*
G02*
X124762750Y-94480000I-243750J0D01*
G01*
G37*
G36*
G01*
X169697250Y-169705000D02*
X170609750Y-169705000D01*
G75*
G02*
X170853500Y-169948750I0J-243750D01*
G01*
X170853500Y-170436250D01*
G75*
G02*
X170609750Y-170680000I-243750J0D01*
G01*
X169697250Y-170680000D01*
G75*
G02*
X169453500Y-170436250I0J243750D01*
G01*
X169453500Y-169948750D01*
G75*
G02*
X169697250Y-169705000I243750J0D01*
G01*
G37*
G36*
G01*
X169697250Y-171580000D02*
X170609750Y-171580000D01*
G75*
G02*
X170853500Y-171823750I0J-243750D01*
G01*
X170853500Y-172311250D01*
G75*
G02*
X170609750Y-172555000I-243750J0D01*
G01*
X169697250Y-172555000D01*
G75*
G02*
X169453500Y-172311250I0J243750D01*
G01*
X169453500Y-171823750D01*
G75*
G02*
X169697250Y-171580000I243750J0D01*
G01*
G37*
G36*
G01*
X164664500Y-33150000D02*
X164664500Y-32250000D01*
G75*
G02*
X164914500Y-32000000I250000J0D01*
G01*
X165439500Y-32000000D01*
G75*
G02*
X165689500Y-32250000I0J-250000D01*
G01*
X165689500Y-33150000D01*
G75*
G02*
X165439500Y-33400000I-250000J0D01*
G01*
X164914500Y-33400000D01*
G75*
G02*
X164664500Y-33150000I0J250000D01*
G01*
G37*
G36*
G01*
X166489500Y-33150000D02*
X166489500Y-32250000D01*
G75*
G02*
X166739500Y-32000000I250000J0D01*
G01*
X167264500Y-32000000D01*
G75*
G02*
X167514500Y-32250000I0J-250000D01*
G01*
X167514500Y-33150000D01*
G75*
G02*
X167264500Y-33400000I-250000J0D01*
G01*
X166739500Y-33400000D01*
G75*
G02*
X166489500Y-33150000I0J250000D01*
G01*
G37*
G36*
G01*
X164664500Y-127130000D02*
X164664500Y-126230000D01*
G75*
G02*
X164914500Y-125980000I250000J0D01*
G01*
X165439500Y-125980000D01*
G75*
G02*
X165689500Y-126230000I0J-250000D01*
G01*
X165689500Y-127130000D01*
G75*
G02*
X165439500Y-127380000I-250000J0D01*
G01*
X164914500Y-127380000D01*
G75*
G02*
X164664500Y-127130000I0J250000D01*
G01*
G37*
G36*
G01*
X166489500Y-127130000D02*
X166489500Y-126230000D01*
G75*
G02*
X166739500Y-125980000I250000J0D01*
G01*
X167264500Y-125980000D01*
G75*
G02*
X167514500Y-126230000I0J-250000D01*
G01*
X167514500Y-127130000D01*
G75*
G02*
X167264500Y-127380000I-250000J0D01*
G01*
X166739500Y-127380000D01*
G75*
G02*
X166489500Y-127130000I0J250000D01*
G01*
G37*
G36*
G01*
X127302750Y-96355000D02*
X126390250Y-96355000D01*
G75*
G02*
X126146500Y-96111250I0J243750D01*
G01*
X126146500Y-95623750D01*
G75*
G02*
X126390250Y-95380000I243750J0D01*
G01*
X127302750Y-95380000D01*
G75*
G02*
X127546500Y-95623750I0J-243750D01*
G01*
X127546500Y-96111250D01*
G75*
G02*
X127302750Y-96355000I-243750J0D01*
G01*
G37*
G36*
G01*
X127302750Y-94480000D02*
X126390250Y-94480000D01*
G75*
G02*
X126146500Y-94236250I0J243750D01*
G01*
X126146500Y-93748750D01*
G75*
G02*
X126390250Y-93505000I243750J0D01*
G01*
X127302750Y-93505000D01*
G75*
G02*
X127546500Y-93748750I0J-243750D01*
G01*
X127546500Y-94236250D01*
G75*
G02*
X127302750Y-94480000I-243750J0D01*
G01*
G37*
G36*
G01*
X122222750Y-96355000D02*
X121310250Y-96355000D01*
G75*
G02*
X121066500Y-96111250I0J243750D01*
G01*
X121066500Y-95623750D01*
G75*
G02*
X121310250Y-95380000I243750J0D01*
G01*
X122222750Y-95380000D01*
G75*
G02*
X122466500Y-95623750I0J-243750D01*
G01*
X122466500Y-96111250D01*
G75*
G02*
X122222750Y-96355000I-243750J0D01*
G01*
G37*
G36*
G01*
X122222750Y-94480000D02*
X121310250Y-94480000D01*
G75*
G02*
X121066500Y-94236250I0J243750D01*
G01*
X121066500Y-93748750D01*
G75*
G02*
X121310250Y-93505000I243750J0D01*
G01*
X122222750Y-93505000D01*
G75*
G02*
X122466500Y-93748750I0J-243750D01*
G01*
X122466500Y-94236250D01*
G75*
G02*
X122222750Y-94480000I-243750J0D01*
G01*
G37*
G36*
G01*
X132335500Y-105910000D02*
X132335500Y-106810000D01*
G75*
G02*
X132085500Y-107060000I-250000J0D01*
G01*
X131560500Y-107060000D01*
G75*
G02*
X131310500Y-106810000I0J250000D01*
G01*
X131310500Y-105910000D01*
G75*
G02*
X131560500Y-105660000I250000J0D01*
G01*
X132085500Y-105660000D01*
G75*
G02*
X132335500Y-105910000I0J-250000D01*
G01*
G37*
G36*
G01*
X130510500Y-105910000D02*
X130510500Y-106810000D01*
G75*
G02*
X130260500Y-107060000I-250000J0D01*
G01*
X129735500Y-107060000D01*
G75*
G02*
X129485500Y-106810000I0J250000D01*
G01*
X129485500Y-105910000D01*
G75*
G02*
X129735500Y-105660000I250000J0D01*
G01*
X130260500Y-105660000D01*
G75*
G02*
X130510500Y-105910000I0J-250000D01*
G01*
G37*
G36*
G01*
X164664500Y-157610000D02*
X164664500Y-156710000D01*
G75*
G02*
X164914500Y-156460000I250000J0D01*
G01*
X165439500Y-156460000D01*
G75*
G02*
X165689500Y-156710000I0J-250000D01*
G01*
X165689500Y-157610000D01*
G75*
G02*
X165439500Y-157860000I-250000J0D01*
G01*
X164914500Y-157860000D01*
G75*
G02*
X164664500Y-157610000I0J250000D01*
G01*
G37*
G36*
G01*
X166489500Y-157610000D02*
X166489500Y-156710000D01*
G75*
G02*
X166739500Y-156460000I250000J0D01*
G01*
X167264500Y-156460000D01*
G75*
G02*
X167514500Y-156710000I0J-250000D01*
G01*
X167514500Y-157610000D01*
G75*
G02*
X167264500Y-157860000I-250000J0D01*
G01*
X166739500Y-157860000D01*
G75*
G02*
X166489500Y-157610000I0J250000D01*
G01*
G37*
G36*
G01*
X172237250Y-108745000D02*
X173149750Y-108745000D01*
G75*
G02*
X173393500Y-108988750I0J-243750D01*
G01*
X173393500Y-109476250D01*
G75*
G02*
X173149750Y-109720000I-243750J0D01*
G01*
X172237250Y-109720000D01*
G75*
G02*
X171993500Y-109476250I0J243750D01*
G01*
X171993500Y-108988750D01*
G75*
G02*
X172237250Y-108745000I243750J0D01*
G01*
G37*
G36*
G01*
X172237250Y-110620000D02*
X173149750Y-110620000D01*
G75*
G02*
X173393500Y-110863750I0J-243750D01*
G01*
X173393500Y-111351250D01*
G75*
G02*
X173149750Y-111595000I-243750J0D01*
G01*
X172237250Y-111595000D01*
G75*
G02*
X171993500Y-111351250I0J243750D01*
G01*
X171993500Y-110863750D01*
G75*
G02*
X172237250Y-110620000I243750J0D01*
G01*
G37*
G36*
G01*
X132335500Y-75430000D02*
X132335500Y-76330000D01*
G75*
G02*
X132085500Y-76580000I-250000J0D01*
G01*
X131560500Y-76580000D01*
G75*
G02*
X131310500Y-76330000I0J250000D01*
G01*
X131310500Y-75430000D01*
G75*
G02*
X131560500Y-75180000I250000J0D01*
G01*
X132085500Y-75180000D01*
G75*
G02*
X132335500Y-75430000I0J-250000D01*
G01*
G37*
G36*
G01*
X130510500Y-75430000D02*
X130510500Y-76330000D01*
G75*
G02*
X130260500Y-76580000I-250000J0D01*
G01*
X129735500Y-76580000D01*
G75*
G02*
X129485500Y-76330000I0J250000D01*
G01*
X129485500Y-75430000D01*
G75*
G02*
X129735500Y-75180000I250000J0D01*
G01*
X130260500Y-75180000D01*
G75*
G02*
X130510500Y-75430000I0J-250000D01*
G01*
G37*
G36*
G01*
X132335500Y-171950000D02*
X132335500Y-172850000D01*
G75*
G02*
X132085500Y-173100000I-250000J0D01*
G01*
X131560500Y-173100000D01*
G75*
G02*
X131310500Y-172850000I0J250000D01*
G01*
X131310500Y-171950000D01*
G75*
G02*
X131560500Y-171700000I250000J0D01*
G01*
X132085500Y-171700000D01*
G75*
G02*
X132335500Y-171950000I0J-250000D01*
G01*
G37*
G36*
G01*
X130510500Y-171950000D02*
X130510500Y-172850000D01*
G75*
G02*
X130260500Y-173100000I-250000J0D01*
G01*
X129735500Y-173100000D01*
G75*
G02*
X129485500Y-172850000I0J250000D01*
G01*
X129485500Y-171950000D01*
G75*
G02*
X129735500Y-171700000I250000J0D01*
G01*
X130260500Y-171700000D01*
G75*
G02*
X130510500Y-171950000I0J-250000D01*
G01*
G37*
G36*
G01*
X174777250Y-139225000D02*
X175689750Y-139225000D01*
G75*
G02*
X175933500Y-139468750I0J-243750D01*
G01*
X175933500Y-139956250D01*
G75*
G02*
X175689750Y-140200000I-243750J0D01*
G01*
X174777250Y-140200000D01*
G75*
G02*
X174533500Y-139956250I0J243750D01*
G01*
X174533500Y-139468750D01*
G75*
G02*
X174777250Y-139225000I243750J0D01*
G01*
G37*
G36*
G01*
X174777250Y-141100000D02*
X175689750Y-141100000D01*
G75*
G02*
X175933500Y-141343750I0J-243750D01*
G01*
X175933500Y-141831250D01*
G75*
G02*
X175689750Y-142075000I-243750J0D01*
G01*
X174777250Y-142075000D01*
G75*
G02*
X174533500Y-141831250I0J243750D01*
G01*
X174533500Y-141343750D01*
G75*
G02*
X174777250Y-141100000I243750J0D01*
G01*
G37*
G36*
G01*
X132335500Y-110990000D02*
X132335500Y-111890000D01*
G75*
G02*
X132085500Y-112140000I-250000J0D01*
G01*
X131560500Y-112140000D01*
G75*
G02*
X131310500Y-111890000I0J250000D01*
G01*
X131310500Y-110990000D01*
G75*
G02*
X131560500Y-110740000I250000J0D01*
G01*
X132085500Y-110740000D01*
G75*
G02*
X132335500Y-110990000I0J-250000D01*
G01*
G37*
G36*
G01*
X130510500Y-110990000D02*
X130510500Y-111890000D01*
G75*
G02*
X130260500Y-112140000I-250000J0D01*
G01*
X129735500Y-112140000D01*
G75*
G02*
X129485500Y-111890000I0J250000D01*
G01*
X129485500Y-110990000D01*
G75*
G02*
X129735500Y-110740000I250000J0D01*
G01*
X130260500Y-110740000D01*
G75*
G02*
X130510500Y-110990000I0J-250000D01*
G01*
G37*
G36*
G01*
X164664500Y-124590000D02*
X164664500Y-123690000D01*
G75*
G02*
X164914500Y-123440000I250000J0D01*
G01*
X165439500Y-123440000D01*
G75*
G02*
X165689500Y-123690000I0J-250000D01*
G01*
X165689500Y-124590000D01*
G75*
G02*
X165439500Y-124840000I-250000J0D01*
G01*
X164914500Y-124840000D01*
G75*
G02*
X164664500Y-124590000I0J250000D01*
G01*
G37*
G36*
G01*
X166489500Y-124590000D02*
X166489500Y-123690000D01*
G75*
G02*
X166739500Y-123440000I250000J0D01*
G01*
X167264500Y-123440000D01*
G75*
G02*
X167514500Y-123690000I0J-250000D01*
G01*
X167514500Y-124590000D01*
G75*
G02*
X167264500Y-124840000I-250000J0D01*
G01*
X166739500Y-124840000D01*
G75*
G02*
X166489500Y-124590000I0J250000D01*
G01*
G37*
G36*
G01*
X124762750Y-126835000D02*
X123850250Y-126835000D01*
G75*
G02*
X123606500Y-126591250I0J243750D01*
G01*
X123606500Y-126103750D01*
G75*
G02*
X123850250Y-125860000I243750J0D01*
G01*
X124762750Y-125860000D01*
G75*
G02*
X125006500Y-126103750I0J-243750D01*
G01*
X125006500Y-126591250D01*
G75*
G02*
X124762750Y-126835000I-243750J0D01*
G01*
G37*
G36*
G01*
X124762750Y-124960000D02*
X123850250Y-124960000D01*
G75*
G02*
X123606500Y-124716250I0J243750D01*
G01*
X123606500Y-124228750D01*
G75*
G02*
X123850250Y-123985000I243750J0D01*
G01*
X124762750Y-123985000D01*
G75*
G02*
X125006500Y-124228750I0J-243750D01*
G01*
X125006500Y-124716250D01*
G75*
G02*
X124762750Y-124960000I-243750J0D01*
G01*
G37*
G36*
G01*
X127302750Y-126835000D02*
X126390250Y-126835000D01*
G75*
G02*
X126146500Y-126591250I0J243750D01*
G01*
X126146500Y-126103750D01*
G75*
G02*
X126390250Y-125860000I243750J0D01*
G01*
X127302750Y-125860000D01*
G75*
G02*
X127546500Y-126103750I0J-243750D01*
G01*
X127546500Y-126591250D01*
G75*
G02*
X127302750Y-126835000I-243750J0D01*
G01*
G37*
G36*
G01*
X127302750Y-124960000D02*
X126390250Y-124960000D01*
G75*
G02*
X126146500Y-124716250I0J243750D01*
G01*
X126146500Y-124228750D01*
G75*
G02*
X126390250Y-123985000I243750J0D01*
G01*
X127302750Y-123985000D01*
G75*
G02*
X127546500Y-124228750I0J-243750D01*
G01*
X127546500Y-124716250D01*
G75*
G02*
X127302750Y-124960000I-243750J0D01*
G01*
G37*
M02*
