G04 start of page 12 for group -3984 idx -3984 *
G04 Title: (unknown), fab *
G04 Creator: pcb 20110918 *
G04 CreationDate: Thu 08 Oct 2015 02:44:04 AM GMT UTC *
G04 For: railfan *
G04 Format: Gerber/RS-274X *
G04 PCB-Dimensions: 40000 200000 *
G04 PCB-Coordinate-Origin: lower left *
%MOIN*%
%FSLAX25Y25*%
%LNFAB*%
%ADD39C,0.0100*%
%ADD38C,0.0075*%
%ADD37C,0.0060*%
%ADD36C,0.0001*%
%ADD35R,0.0080X0.0080*%
G54D35*X14000Y180000D02*Y178400D01*
G54D36*G36*
X13454Y180147D02*X15533Y181346D01*
X15933Y180653D01*
X13853Y179454D01*
X13454Y180147D01*
G37*
G36*
X14147Y179454D02*X12067Y180653D01*
X12467Y181346D01*
X14546Y180147D01*
X14147Y179454D01*
G37*
G54D35*X14000Y166000D02*Y164400D01*
G54D36*G36*
X13454Y166147D02*X15533Y167346D01*
X15933Y166653D01*
X13853Y165454D01*
X13454Y166147D01*
G37*
G36*
X14147Y165454D02*X12067Y166653D01*
X12467Y167346D01*
X14546Y166147D01*
X14147Y165454D01*
G37*
G54D35*X14000Y152000D02*Y150400D01*
G54D36*G36*
X13454Y152147D02*X15533Y153346D01*
X15933Y152653D01*
X13853Y151454D01*
X13454Y152147D01*
G37*
G36*
X14147Y151454D02*X12067Y152653D01*
X12467Y153346D01*
X14546Y152147D01*
X14147Y151454D01*
G37*
G54D35*X20000Y152000D02*Y150400D01*
G54D36*G36*
X19454Y152147D02*X21533Y153346D01*
X21933Y152653D01*
X19853Y151454D01*
X19454Y152147D01*
G37*
G36*
X20147Y151454D02*X18067Y152653D01*
X18467Y153346D01*
X20546Y152147D01*
X20147Y151454D01*
G37*
G54D35*X16500Y105000D02*Y103400D01*
G54D36*G36*
X15954Y105147D02*X18033Y106346D01*
X18433Y105653D01*
X16353Y104454D01*
X15954Y105147D01*
G37*
G36*
X16647Y104454D02*X14567Y105653D01*
X14967Y106346D01*
X17046Y105147D01*
X16647Y104454D01*
G37*
G54D35*X16500Y91000D02*Y89400D01*
G54D36*G36*
X15954Y91147D02*X18033Y92346D01*
X18433Y91653D01*
X16353Y90454D01*
X15954Y91147D01*
G37*
G36*
X16647Y90454D02*X14567Y91653D01*
X14967Y92346D01*
X17046Y91147D01*
X16647Y90454D01*
G37*
G54D35*X21000Y89500D02*Y87900D01*
G54D36*G36*
X20454Y89647D02*X22533Y90846D01*
X22933Y90153D01*
X20853Y88954D01*
X20454Y89647D01*
G37*
G36*
X21147Y88954D02*X19067Y90153D01*
X19467Y90846D01*
X21546Y89647D01*
X21147Y88954D01*
G37*
G54D35*X10000Y17000D02*Y15400D01*
G54D36*G36*
X9454Y17147D02*X11533Y18346D01*
X11933Y17653D01*
X9853Y16454D01*
X9454Y17147D01*
G37*
G36*
X10147Y16454D02*X8067Y17653D01*
X8467Y18346D01*
X10546Y17147D01*
X10147Y16454D01*
G37*
G54D35*X18500Y77500D02*Y75900D01*
G54D36*G36*
X17954Y77647D02*X20033Y78846D01*
X20433Y78153D01*
X18353Y76954D01*
X17954Y77647D01*
G37*
G36*
X18647Y76954D02*X16567Y78153D01*
X16967Y78846D01*
X19046Y77647D01*
X18647Y76954D01*
G37*
G54D35*X15000Y256250D02*Y254650D01*
G54D36*G36*
X14454Y256397D02*X16533Y257596D01*
X16933Y256903D01*
X14853Y255704D01*
X14454Y256397D01*
G37*
G36*
X15147Y255704D02*X13067Y256903D01*
X13467Y257596D01*
X15546Y256397D01*
X15147Y255704D01*
G37*
G54D37*X135000Y258500D02*X136500Y255500D01*
X138000Y258500D01*
X136500Y255500D02*Y252500D01*
X139800Y255800D02*X142050D01*
X139800Y252500D02*X142800D01*
X139800Y258500D02*Y252500D01*
Y258500D02*X142800D01*
X147600D02*X148350Y257750D01*
X145350Y258500D02*X147600D01*
X144600Y257750D02*X145350Y258500D01*
X144600Y257750D02*Y256250D01*
X145350Y255500D01*
X147600D01*
X148350Y254750D01*
Y253250D01*
X147600Y252500D02*X148350Y253250D01*
X145350Y252500D02*X147600D01*
X144600Y253250D02*X145350Y252500D01*
X98750D02*X101000Y255500D01*
Y257750D02*Y255500D01*
X100250Y258500D02*X101000Y257750D01*
X98750Y258500D02*X100250D01*
X98000Y257750D02*X98750Y258500D01*
X98000Y257750D02*Y256250D01*
X98750Y255500D01*
X101000D01*
X45000Y253250D02*X45750Y252500D01*
X45000Y257750D02*Y253250D01*
Y257750D02*X45750Y258500D01*
X47250D01*
X48000Y257750D01*
Y253250D01*
X47250Y252500D02*X48000Y253250D01*
X45750Y252500D02*X47250D01*
X45000Y254000D02*X48000Y257000D01*
X49800Y252500D02*X50550D01*
X52350Y253250D02*X53100Y252500D01*
X52350Y257750D02*Y253250D01*
Y257750D02*X53100Y258500D01*
X54600D01*
X55350Y257750D01*
Y253250D01*
X54600Y252500D02*X55350Y253250D01*
X53100Y252500D02*X54600D01*
X52350Y254000D02*X55350Y257000D01*
X57150Y257750D02*X57900Y258500D01*
X60150D01*
X60900Y257750D01*
Y256250D01*
X57150Y252500D02*X60900Y256250D01*
X57150Y252500D02*X60900D01*
X62700Y253250D02*X63450Y252500D01*
X62700Y257750D02*Y253250D01*
Y257750D02*X63450Y258500D01*
X64950D01*
X65700Y257750D01*
Y253250D01*
X64950Y252500D02*X65700Y253250D01*
X63450Y252500D02*X64950D01*
X62700Y254000D02*X65700Y257000D01*
X3000Y273500D02*X3750Y272750D01*
X750Y273500D02*X3000D01*
X0Y272750D02*X750Y273500D01*
X0Y272750D02*Y271250D01*
X750Y270500D01*
X3000D01*
X3750Y269750D01*
Y268250D01*
X3000Y267500D02*X3750Y268250D01*
X750Y267500D02*X3000D01*
X0Y268250D02*X750Y267500D01*
X5550Y270500D02*Y268250D01*
X6300Y267500D01*
X8550Y270500D02*Y266000D01*
X7800Y265250D02*X8550Y266000D01*
X6300Y265250D02*X7800D01*
X5550Y266000D02*X6300Y265250D01*
Y267500D02*X7800D01*
X8550Y268250D01*
X11100Y269750D02*Y267500D01*
Y269750D02*X11850Y270500D01*
X12600D01*
X13350Y269750D01*
Y267500D01*
Y269750D02*X14100Y270500D01*
X14850D01*
X15600Y269750D01*
Y267500D01*
X10350Y270500D02*X11100Y269750D01*
X17400Y273500D02*Y267500D01*
Y268250D02*X18150Y267500D01*
X19650D01*
X20400Y268250D01*
Y269750D02*Y268250D01*
X19650Y270500D02*X20400Y269750D01*
X18150Y270500D02*X19650D01*
X17400Y269750D02*X18150Y270500D01*
X22200Y269750D02*Y268250D01*
Y269750D02*X22950Y270500D01*
X24450D01*
X25200Y269750D01*
Y268250D01*
X24450Y267500D02*X25200Y268250D01*
X22950Y267500D02*X24450D01*
X22200Y268250D02*X22950Y267500D01*
X27000Y273500D02*Y268250D01*
X27750Y267500D01*
X0Y264250D02*X29250D01*
X41750Y273500D02*Y267500D01*
X43700Y273500D02*X44750Y272450D01*
Y268550D01*
X43700Y267500D02*X44750Y268550D01*
X41000Y267500D02*X43700D01*
X41000Y273500D02*X43700D01*
G54D38*X46550Y272000D02*Y271850D01*
G54D37*Y269750D02*Y267500D01*
X50300Y270500D02*X51050Y269750D01*
X48800Y270500D02*X50300D01*
X48050Y269750D02*X48800Y270500D01*
X48050Y269750D02*Y268250D01*
X48800Y267500D01*
X51050Y270500D02*Y268250D01*
X51800Y267500D01*
X48800D02*X50300D01*
X51050Y268250D01*
X54350Y269750D02*Y267500D01*
Y269750D02*X55100Y270500D01*
X55850D01*
X56600Y269750D01*
Y267500D01*
Y269750D02*X57350Y270500D01*
X58100D01*
X58850Y269750D01*
Y267500D01*
X53600Y270500D02*X54350Y269750D01*
X60650Y267500D02*X61400D01*
X65900Y268250D02*X66650Y267500D01*
X65900Y272750D02*X66650Y273500D01*
X65900Y272750D02*Y268250D01*
X68450Y273500D02*X69950D01*
X69200D02*Y267500D01*
X68450D02*X69950D01*
X72500Y269750D02*Y267500D01*
Y269750D02*X73250Y270500D01*
X74000D01*
X74750Y269750D01*
Y267500D01*
X71750Y270500D02*X72500Y269750D01*
X77300Y270500D02*X79550D01*
X76550Y269750D02*X77300Y270500D01*
X76550Y269750D02*Y268250D01*
X77300Y267500D01*
X79550D01*
X81350Y273500D02*Y267500D01*
Y269750D02*X82100Y270500D01*
X83600D01*
X84350Y269750D01*
Y267500D01*
X86150Y273500D02*X86900Y272750D01*
Y268250D01*
X86150Y267500D02*X86900Y268250D01*
X41000Y264250D02*X88700D01*
X96050Y267500D02*X98000D01*
X95000Y268550D02*X96050Y267500D01*
X95000Y272450D02*Y268550D01*
Y272450D02*X96050Y273500D01*
X98000D01*
X99800Y269750D02*Y268250D01*
Y269750D02*X100550Y270500D01*
X102050D01*
X102800Y269750D01*
Y268250D01*
X102050Y267500D02*X102800Y268250D01*
X100550Y267500D02*X102050D01*
X99800Y268250D02*X100550Y267500D01*
X104600Y270500D02*Y268250D01*
X105350Y267500D01*
X106850D01*
X107600Y268250D01*
Y270500D02*Y268250D01*
X110150Y269750D02*Y267500D01*
Y269750D02*X110900Y270500D01*
X111650D01*
X112400Y269750D01*
Y267500D01*
X109400Y270500D02*X110150Y269750D01*
X114950Y273500D02*Y268250D01*
X115700Y267500D01*
X114200Y271250D02*X115700D01*
X95000Y264250D02*X117200D01*
X130750Y273500D02*Y267500D01*
X130000Y273500D02*X133000D01*
X133750Y272750D01*
Y271250D01*
X133000Y270500D02*X133750Y271250D01*
X130750Y270500D02*X133000D01*
X135550Y273500D02*Y268250D01*
X136300Y267500D01*
X140050Y270500D02*X140800Y269750D01*
X138550Y270500D02*X140050D01*
X137800Y269750D02*X138550Y270500D01*
X137800Y269750D02*Y268250D01*
X138550Y267500D01*
X140800Y270500D02*Y268250D01*
X141550Y267500D01*
X138550D02*X140050D01*
X140800Y268250D01*
X144100Y273500D02*Y268250D01*
X144850Y267500D01*
X143350Y271250D02*X144850D01*
X147100Y267500D02*X149350D01*
X146350Y268250D02*X147100Y267500D01*
X146350Y269750D02*Y268250D01*
Y269750D02*X147100Y270500D01*
X148600D01*
X149350Y269750D01*
X146350Y269000D02*X149350D01*
Y269750D02*Y269000D01*
X154150Y273500D02*Y267500D01*
X153400D02*X154150Y268250D01*
X151900Y267500D02*X153400D01*
X151150Y268250D02*X151900Y267500D01*
X151150Y269750D02*Y268250D01*
Y269750D02*X151900Y270500D01*
X153400D01*
X154150Y269750D01*
X157450Y270500D02*Y269750D01*
Y268250D02*Y267500D01*
X155950Y272750D02*Y272000D01*
Y272750D02*X156700Y273500D01*
X158200D01*
X158950Y272750D01*
Y272000D01*
X157450Y270500D02*X158950Y272000D01*
X130000Y264250D02*X160750D01*
X0Y288500D02*X3000D01*
X1500D02*Y282500D01*
X4800Y288500D02*Y282500D01*
Y284750D02*X5550Y285500D01*
X7050D01*
X7800Y284750D01*
Y282500D01*
X10350D02*X12600D01*
X9600Y283250D02*X10350Y282500D01*
X9600Y284750D02*Y283250D01*
Y284750D02*X10350Y285500D01*
X11850D01*
X12600Y284750D01*
X9600Y284000D02*X12600D01*
Y284750D02*Y284000D01*
X15150Y284750D02*Y282500D01*
Y284750D02*X15900Y285500D01*
X17400D01*
X14400D02*X15150Y284750D01*
X19950Y282500D02*X22200D01*
X19200Y283250D02*X19950Y282500D01*
X19200Y284750D02*Y283250D01*
Y284750D02*X19950Y285500D01*
X21450D01*
X22200Y284750D01*
X19200Y284000D02*X22200D01*
Y284750D02*Y284000D01*
X28950Y285500D02*X29700Y284750D01*
X27450Y285500D02*X28950D01*
X26700Y284750D02*X27450Y285500D01*
X26700Y284750D02*Y283250D01*
X27450Y282500D01*
X29700Y285500D02*Y283250D01*
X30450Y282500D01*
X27450D02*X28950D01*
X29700Y283250D01*
X33000Y284750D02*Y282500D01*
Y284750D02*X33750Y285500D01*
X35250D01*
X32250D02*X33000Y284750D01*
X37800Y282500D02*X40050D01*
X37050Y283250D02*X37800Y282500D01*
X37050Y284750D02*Y283250D01*
Y284750D02*X37800Y285500D01*
X39300D01*
X40050Y284750D01*
X37050Y284000D02*X40050D01*
Y284750D02*Y284000D01*
X44550Y287300D02*X45750Y288500D01*
Y282500D01*
X44550D02*X46800D01*
X54300Y288500D02*Y282500D01*
X53550D02*X54300Y283250D01*
X52050Y282500D02*X53550D01*
X51300Y283250D02*X52050Y282500D01*
X51300Y284750D02*Y283250D01*
Y284750D02*X52050Y285500D01*
X53550D01*
X54300Y284750D01*
G54D38*X56100Y287000D02*Y286850D01*
G54D37*Y284750D02*Y282500D01*
X58350Y287750D02*Y282500D01*
Y287750D02*X59100Y288500D01*
X59850D01*
X57600Y285500D02*X59100D01*
X62100Y287750D02*Y282500D01*
Y287750D02*X62850Y288500D01*
X63600D01*
X61350Y285500D02*X62850D01*
X65850Y282500D02*X68100D01*
X65100Y283250D02*X65850Y282500D01*
X65100Y284750D02*Y283250D01*
Y284750D02*X65850Y285500D01*
X67350D01*
X68100Y284750D01*
X65100Y284000D02*X68100D01*
Y284750D02*Y284000D01*
X70650Y284750D02*Y282500D01*
Y284750D02*X71400Y285500D01*
X72900D01*
X69900D02*X70650Y284750D01*
X75450Y282500D02*X77700D01*
X74700Y283250D02*X75450Y282500D01*
X74700Y284750D02*Y283250D01*
Y284750D02*X75450Y285500D01*
X76950D01*
X77700Y284750D01*
X74700Y284000D02*X77700D01*
Y284750D02*Y284000D01*
X80250Y284750D02*Y282500D01*
Y284750D02*X81000Y285500D01*
X81750D01*
X82500Y284750D01*
Y282500D01*
X79500Y285500D02*X80250Y284750D01*
X85050Y288500D02*Y283250D01*
X85800Y282500D01*
X84300Y286250D02*X85800D01*
X93000Y288500D02*Y282500D01*
X92250D02*X93000Y283250D01*
X90750Y282500D02*X92250D01*
X90000Y283250D02*X90750Y282500D01*
X90000Y284750D02*Y283250D01*
Y284750D02*X90750Y285500D01*
X92250D01*
X93000Y284750D01*
X95550D02*Y282500D01*
Y284750D02*X96300Y285500D01*
X97800D01*
X94800D02*X95550Y284750D01*
G54D38*X99600Y287000D02*Y286850D01*
G54D37*Y284750D02*Y282500D01*
X101100Y288500D02*Y283250D01*
X101850Y282500D01*
X103350Y288500D02*Y283250D01*
X104100Y282500D01*
X109050D02*X111300D01*
X112050Y283250D01*
X111300Y284000D02*X112050Y283250D01*
X109050Y284000D02*X111300D01*
X108300Y284750D02*X109050Y284000D01*
X108300Y284750D02*X109050Y285500D01*
X111300D01*
X112050Y284750D01*
X108300Y283250D02*X109050Y282500D01*
G54D38*X113850Y287000D02*Y286850D01*
G54D37*Y284750D02*Y282500D01*
X115350Y285500D02*X118350D01*
X115350Y282500D02*X118350Y285500D01*
X115350Y282500D02*X118350D01*
X120900D02*X123150D01*
X120150Y283250D02*X120900Y282500D01*
X120150Y284750D02*Y283250D01*
Y284750D02*X120900Y285500D01*
X122400D01*
X123150Y284750D01*
X120150Y284000D02*X123150D01*
Y284750D02*Y284000D01*
X125700Y282500D02*X127950D01*
X128700Y283250D01*
X127950Y284000D02*X128700Y283250D01*
X125700Y284000D02*X127950D01*
X124950Y284750D02*X125700Y284000D01*
X124950Y284750D02*X125700Y285500D01*
X127950D01*
X128700Y284750D01*
X124950Y283250D02*X125700Y282500D01*
X133200Y285500D02*Y283250D01*
X133950Y282500D01*
X135450D01*
X136200Y283250D01*
Y285500D02*Y283250D01*
X138750Y282500D02*X141000D01*
X141750Y283250D01*
X141000Y284000D02*X141750Y283250D01*
X138750Y284000D02*X141000D01*
X138000Y284750D02*X138750Y284000D01*
X138000Y284750D02*X138750Y285500D01*
X141000D01*
X141750Y284750D01*
X138000Y283250D02*X138750Y282500D01*
X144300D02*X146550D01*
X143550Y283250D02*X144300Y282500D01*
X143550Y284750D02*Y283250D01*
Y284750D02*X144300Y285500D01*
X145800D01*
X146550Y284750D01*
X143550Y284000D02*X146550D01*
Y284750D02*Y284000D01*
X151350Y288500D02*Y282500D01*
X150600D02*X151350Y283250D01*
X149100Y282500D02*X150600D01*
X148350Y283250D02*X149100Y282500D01*
X148350Y284750D02*Y283250D01*
Y284750D02*X149100Y285500D01*
X150600D01*
X151350Y284750D01*
G54D38*X155850Y287000D02*Y286850D01*
G54D37*Y284750D02*Y282500D01*
X158100Y284750D02*Y282500D01*
Y284750D02*X158850Y285500D01*
X159600D01*
X160350Y284750D01*
Y282500D01*
X157350Y285500D02*X158100Y284750D01*
X165600Y288500D02*Y283250D01*
X166350Y282500D01*
X164850Y286250D02*X166350D01*
X167850Y288500D02*Y282500D01*
Y284750D02*X168600Y285500D01*
X170100D01*
X170850Y284750D01*
Y282500D01*
G54D38*X172650Y287000D02*Y286850D01*
G54D37*Y284750D02*Y282500D01*
X174900D02*X177150D01*
X177900Y283250D01*
X177150Y284000D02*X177900Y283250D01*
X174900Y284000D02*X177150D01*
X174150Y284750D02*X174900Y284000D01*
X174150Y284750D02*X174900Y285500D01*
X177150D01*
X177900Y284750D01*
X174150Y283250D02*X174900Y282500D01*
X182400Y288500D02*Y283250D01*
X183150Y282500D01*
X186900Y285500D02*X187650Y284750D01*
X185400Y285500D02*X186900D01*
X184650Y284750D02*X185400Y285500D01*
X184650Y284750D02*Y283250D01*
X185400Y282500D01*
X187650Y285500D02*Y283250D01*
X188400Y282500D01*
X185400D02*X186900D01*
X187650Y283250D01*
X190200Y285500D02*Y283250D01*
X190950Y282500D01*
X193200Y285500D02*Y281000D01*
X192450Y280250D02*X193200Y281000D01*
X190950Y280250D02*X192450D01*
X190200Y281000D02*X190950Y280250D01*
Y282500D02*X192450D01*
X193200Y283250D01*
X195000Y284750D02*Y283250D01*
Y284750D02*X195750Y285500D01*
X197250D01*
X198000Y284750D01*
Y283250D01*
X197250Y282500D02*X198000Y283250D01*
X195750Y282500D02*X197250D01*
X195000Y283250D02*X195750Y282500D01*
X199800Y285500D02*Y283250D01*
X200550Y282500D01*
X202050D01*
X202800Y283250D01*
Y285500D02*Y283250D01*
X205350Y288500D02*Y283250D01*
X206100Y282500D01*
X204600Y286250D02*X206100D01*
X207600Y281000D02*X209100Y282500D01*
X214350D02*X216600Y285500D01*
Y287750D02*Y285500D01*
X215850Y288500D02*X216600Y287750D01*
X214350Y288500D02*X215850D01*
X213600Y287750D02*X214350Y288500D01*
X213600Y287750D02*Y286250D01*
X214350Y285500D01*
X216600D01*
X221100Y288500D02*Y282500D01*
Y284750D02*X221850Y285500D01*
X223350D01*
X224100Y284750D01*
Y282500D01*
X225900Y284750D02*Y283250D01*
Y284750D02*X226650Y285500D01*
X228150D01*
X228900Y284750D01*
Y283250D01*
X228150Y282500D02*X228900Y283250D01*
X226650Y282500D02*X228150D01*
X225900Y283250D02*X226650Y282500D01*
X230700Y288500D02*Y283250D01*
X231450Y282500D01*
X233700D02*X235950D01*
X232950Y283250D02*X233700Y282500D01*
X232950Y284750D02*Y283250D01*
Y284750D02*X233700Y285500D01*
X235200D01*
X235950Y284750D01*
X232950Y284000D02*X235950D01*
Y284750D02*Y284000D01*
X238500Y282500D02*X240750D01*
X241500Y283250D01*
X240750Y284000D02*X241500Y283250D01*
X238500Y284000D02*X240750D01*
X237750Y284750D02*X238500Y284000D01*
X237750Y284750D02*X238500Y285500D01*
X240750D01*
X241500Y284750D01*
X237750Y283250D02*X238500Y282500D01*
X246750Y288500D02*Y283250D01*
X247500Y282500D01*
X246000Y286250D02*X247500D01*
X249000Y284750D02*Y283250D01*
Y284750D02*X249750Y285500D01*
X251250D01*
X252000Y284750D01*
Y283250D01*
X251250Y282500D02*X252000Y283250D01*
X249750Y282500D02*X251250D01*
X249000Y283250D02*X249750Y282500D01*
X254550Y288500D02*Y283250D01*
X255300Y282500D01*
X253800Y286250D02*X255300D01*
X259050Y285500D02*X259800Y284750D01*
X257550Y285500D02*X259050D01*
X256800Y284750D02*X257550Y285500D01*
X256800Y284750D02*Y283250D01*
X257550Y282500D01*
X259800Y285500D02*Y283250D01*
X260550Y282500D01*
X257550D02*X259050D01*
X259800Y283250D01*
X262350Y288500D02*Y283250D01*
X263100Y282500D01*
G54D39*X7500Y187500D02*Y157500D01*
X32500D02*Y187500D01*
X7500Y112500D02*Y82500D01*
X32500D02*Y112500D01*
X14000Y71500D02*Y22500D01*
X26000Y71500D02*Y22500D01*
X14000D02*X0D01*
Y0D01*
X40000D01*
Y22500D01*
X26000D01*
X14000Y146500D02*Y123500D01*
X26000D02*Y146500D01*
X20000Y200000D02*G75*G02X32500Y187500I0J-12500D01*G01*
X20000Y200000D02*G75*G03X7500Y187500I0J-12500D01*G01*
Y157500D02*G75*G03X13940Y146567I12500J0D01*G01*
X32500Y157500D02*G75*G02X26060Y146567I-12500J0D01*G01*
X7500Y82500D02*G75*G03X13940Y71567I12500J0D01*G01*
X32500Y82500D02*G75*G02X26060Y71567I-12500J0D01*G01*
X32500Y112500D02*G75*G03X26060Y123433I-12500J0D01*G01*
X7500Y112500D02*G75*G02X13940Y123433I12500J0D01*G01*
G54D37*X0Y-9500D02*X3000D01*
X3750Y-8750D01*
Y-6950D02*Y-8750D01*
X3000Y-6200D02*X3750Y-6950D01*
X750Y-6200D02*X3000D01*
X750Y-3500D02*Y-9500D01*
X0Y-3500D02*X3000D01*
X3750Y-4250D01*
Y-5450D01*
X3000Y-6200D02*X3750Y-5450D01*
X5550Y-7250D02*Y-8750D01*
Y-7250D02*X6300Y-6500D01*
X7800D01*
X8550Y-7250D01*
Y-8750D01*
X7800Y-9500D02*X8550Y-8750D01*
X6300Y-9500D02*X7800D01*
X5550Y-8750D02*X6300Y-9500D01*
X12600Y-6500D02*X13350Y-7250D01*
X11100Y-6500D02*X12600D01*
X10350Y-7250D02*X11100Y-6500D01*
X10350Y-7250D02*Y-8750D01*
X11100Y-9500D01*
X13350Y-6500D02*Y-8750D01*
X14100Y-9500D01*
X11100D02*X12600D01*
X13350Y-8750D01*
X16650Y-7250D02*Y-9500D01*
Y-7250D02*X17400Y-6500D01*
X18900D01*
X15900D02*X16650Y-7250D01*
X23700Y-3500D02*Y-9500D01*
X22950D02*X23700Y-8750D01*
X21450Y-9500D02*X22950D01*
X20700Y-8750D02*X21450Y-9500D01*
X20700Y-7250D02*Y-8750D01*
Y-7250D02*X21450Y-6500D01*
X22950D01*
X23700Y-7250D01*
X28200D02*Y-8750D01*
Y-7250D02*X28950Y-6500D01*
X30450D01*
X31200Y-7250D01*
Y-8750D01*
X30450Y-9500D02*X31200Y-8750D01*
X28950Y-9500D02*X30450D01*
X28200Y-8750D02*X28950Y-9500D01*
X33000Y-6500D02*Y-8750D01*
X33750Y-9500D01*
X35250D01*
X36000Y-8750D01*
Y-6500D02*Y-8750D01*
X38550Y-3500D02*Y-8750D01*
X39300Y-9500D01*
X37800Y-5750D02*X39300D01*
X40800Y-3500D02*Y-8750D01*
X41550Y-9500D01*
G54D38*X43050Y-5000D02*Y-5150D01*
G54D37*Y-7250D02*Y-9500D01*
X45300Y-7250D02*Y-9500D01*
Y-7250D02*X46050Y-6500D01*
X46800D01*
X47550Y-7250D01*
Y-9500D01*
X44550Y-6500D02*X45300Y-7250D01*
X50100Y-9500D02*X52350D01*
X49350Y-8750D02*X50100Y-9500D01*
X49350Y-7250D02*Y-8750D01*
Y-7250D02*X50100Y-6500D01*
X51600D01*
X52350Y-7250D01*
X49350Y-8000D02*X52350D01*
Y-7250D02*Y-8000D01*
G54D38*X56850Y-5000D02*Y-5150D01*
G54D37*Y-7250D02*Y-9500D01*
X59100D02*X61350D01*
X62100Y-8750D01*
X61350Y-8000D02*X62100Y-8750D01*
X59100Y-8000D02*X61350D01*
X58350Y-7250D02*X59100Y-8000D01*
X58350Y-7250D02*X59100Y-6500D01*
X61350D01*
X62100Y-7250D01*
X58350Y-8750D02*X59100Y-9500D01*
X67350Y-3500D02*Y-8750D01*
X68100Y-9500D01*
X66600Y-5750D02*X68100D01*
X69600Y-3500D02*Y-9500D01*
Y-7250D02*X70350Y-6500D01*
X71850D01*
X72600Y-7250D01*
Y-9500D01*
X75150D02*X77400D01*
X74400Y-8750D02*X75150Y-9500D01*
X74400Y-7250D02*Y-8750D01*
Y-7250D02*X75150Y-6500D01*
X76650D01*
X77400Y-7250D01*
X74400Y-8000D02*X77400D01*
Y-7250D02*Y-8000D01*
X82650Y-6500D02*X84900D01*
X81900Y-7250D02*X82650Y-6500D01*
X81900Y-7250D02*Y-8750D01*
X82650Y-9500D01*
X84900D01*
X87450D02*X89700D01*
X86700Y-8750D02*X87450Y-9500D01*
X86700Y-7250D02*Y-8750D01*
Y-7250D02*X87450Y-6500D01*
X88950D01*
X89700Y-7250D01*
X86700Y-8000D02*X89700D01*
Y-7250D02*Y-8000D01*
X92250Y-7250D02*Y-9500D01*
Y-7250D02*X93000Y-6500D01*
X93750D01*
X94500Y-7250D01*
Y-9500D01*
X91500Y-6500D02*X92250Y-7250D01*
X97050Y-3500D02*Y-8750D01*
X97800Y-9500D01*
X96300Y-5750D02*X97800D01*
X100050Y-9500D02*X102300D01*
X99300Y-8750D02*X100050Y-9500D01*
X99300Y-7250D02*Y-8750D01*
Y-7250D02*X100050Y-6500D01*
X101550D01*
X102300Y-7250D01*
X99300Y-8000D02*X102300D01*
Y-7250D02*Y-8000D01*
X104850Y-7250D02*Y-9500D01*
Y-7250D02*X105600Y-6500D01*
X107100D01*
X104100D02*X104850Y-7250D01*
X108900Y-3500D02*Y-8750D01*
X109650Y-9500D01*
G54D38*X111150Y-5000D02*Y-5150D01*
G54D37*Y-7250D02*Y-9500D01*
X113400Y-7250D02*Y-9500D01*
Y-7250D02*X114150Y-6500D01*
X114900D01*
X115650Y-7250D01*
Y-9500D01*
X112650Y-6500D02*X113400Y-7250D01*
X118200Y-9500D02*X120450D01*
X117450Y-8750D02*X118200Y-9500D01*
X117450Y-7250D02*Y-8750D01*
Y-7250D02*X118200Y-6500D01*
X119700D01*
X120450Y-7250D01*
X117450Y-8000D02*X120450D01*
Y-7250D02*Y-8000D01*
X124950Y-7250D02*Y-8750D01*
Y-7250D02*X125700Y-6500D01*
X127200D01*
X127950Y-7250D01*
Y-8750D01*
X127200Y-9500D02*X127950Y-8750D01*
X125700Y-9500D02*X127200D01*
X124950Y-8750D02*X125700Y-9500D01*
X130500Y-4250D02*Y-9500D01*
Y-4250D02*X131250Y-3500D01*
X132000D01*
X129750Y-6500D02*X131250D01*
X136950Y-3500D02*Y-8750D01*
X137700Y-9500D01*
X136200Y-5750D02*X137700D01*
X139200Y-3500D02*Y-9500D01*
Y-7250D02*X139950Y-6500D01*
X141450D01*
X142200Y-7250D01*
Y-9500D01*
G54D38*X144000Y-5000D02*Y-5150D01*
G54D37*Y-7250D02*Y-9500D01*
X146250D02*X148500D01*
X149250Y-8750D01*
X148500Y-8000D02*X149250Y-8750D01*
X146250Y-8000D02*X148500D01*
X145500Y-7250D02*X146250Y-8000D01*
X145500Y-7250D02*X146250Y-6500D01*
X148500D01*
X149250Y-7250D01*
X145500Y-8750D02*X146250Y-9500D01*
X154500Y-7250D02*Y-11750D01*
X153750Y-6500D02*X154500Y-7250D01*
X155250Y-6500D01*
X156750D01*
X157500Y-7250D01*
Y-8750D01*
X156750Y-9500D02*X157500Y-8750D01*
X155250Y-9500D02*X156750D01*
X154500Y-8750D02*X155250Y-9500D01*
X161550Y-6500D02*X162300Y-7250D01*
X160050Y-6500D02*X161550D01*
X159300Y-7250D02*X160050Y-6500D01*
X159300Y-7250D02*Y-8750D01*
X160050Y-9500D01*
X162300Y-6500D02*Y-8750D01*
X163050Y-9500D01*
X160050D02*X161550D01*
X162300Y-8750D01*
X165600Y-3500D02*Y-8750D01*
X166350Y-9500D01*
X164850Y-5750D02*X166350D01*
X167850Y-3500D02*Y-9500D01*
Y-7250D02*X168600Y-6500D01*
X170100D01*
X170850Y-7250D01*
Y-9500D01*
X200750Y228500D02*Y222500D01*
X202700Y228500D02*X203750Y227450D01*
Y223550D01*
X202700Y222500D02*X203750Y223550D01*
X200000Y222500D02*X202700D01*
X200000Y228500D02*X202700D01*
X207800Y225500D02*X208550Y224750D01*
X206300Y225500D02*X207800D01*
X205550Y224750D02*X206300Y225500D01*
X205550Y224750D02*Y223250D01*
X206300Y222500D01*
X208550Y225500D02*Y223250D01*
X209300Y222500D01*
X206300D02*X207800D01*
X208550Y223250D01*
X211850Y228500D02*Y223250D01*
X212600Y222500D01*
X211100Y226250D02*X212600D01*
X214850Y222500D02*X217100D01*
X214100Y223250D02*X214850Y222500D01*
X214100Y224750D02*Y223250D01*
Y224750D02*X214850Y225500D01*
X216350D01*
X217100Y224750D01*
X214100Y224000D02*X217100D01*
Y224750D02*Y224000D01*
X218900Y226250D02*X219650D01*
X218900Y224750D02*X219650D01*
X224150Y228500D02*X227150D01*
X225650D02*Y222500D01*
X228950Y228500D02*Y222500D01*
Y224750D02*X229700Y225500D01*
X231200D01*
X231950Y224750D01*
Y222500D01*
X233750Y225500D02*Y223250D01*
X234500Y222500D01*
X236000D01*
X236750Y223250D01*
Y225500D02*Y223250D01*
X241250D02*X242000Y222500D01*
X241250Y227750D02*Y223250D01*
Y227750D02*X242000Y228500D01*
X243500D01*
X244250Y227750D01*
Y223250D01*
X243500Y222500D02*X244250Y223250D01*
X242000Y222500D02*X243500D01*
X241250Y224000D02*X244250Y227000D01*
X246050Y223250D02*X246800Y222500D01*
X246050Y224450D02*Y223250D01*
Y224450D02*X247100Y225500D01*
X248000D01*
X249050Y224450D01*
Y223250D01*
X248300Y222500D02*X249050Y223250D01*
X246800Y222500D02*X248300D01*
X246050Y226550D02*X247100Y225500D01*
X246050Y227750D02*Y226550D01*
Y227750D02*X246800Y228500D01*
X248300D01*
X249050Y227750D01*
Y226550D01*
X248000Y225500D02*X249050Y226550D01*
X253550Y227750D02*Y223250D01*
Y227750D02*X254300Y228500D01*
X255800D01*
X256550Y227750D01*
Y223250D01*
X255800Y222500D02*X256550Y223250D01*
X254300Y222500D02*X255800D01*
X253550Y223250D02*X254300Y222500D01*
X259100Y225500D02*X261350D01*
X258350Y224750D02*X259100Y225500D01*
X258350Y224750D02*Y223250D01*
X259100Y222500D01*
X261350D01*
X263900Y228500D02*Y223250D01*
X264650Y222500D01*
X263150Y226250D02*X264650D01*
X268850Y227750D02*X269600Y228500D01*
X271850D01*
X272600Y227750D01*
Y226250D01*
X268850Y222500D02*X272600Y226250D01*
X268850Y222500D02*X272600D01*
X274400Y223250D02*X275150Y222500D01*
X274400Y227750D02*Y223250D01*
Y227750D02*X275150Y228500D01*
X276650D01*
X277400Y227750D01*
Y223250D01*
X276650Y222500D02*X277400Y223250D01*
X275150Y222500D02*X276650D01*
X274400Y224000D02*X277400Y227000D01*
X279200Y227300D02*X280400Y228500D01*
Y222500D01*
X279200D02*X281450D01*
X283250Y228500D02*X286250D01*
X283250D02*Y225500D01*
X284000Y226250D01*
X285500D01*
X286250Y225500D01*
Y223250D01*
X285500Y222500D02*X286250Y223250D01*
X284000Y222500D02*X285500D01*
X283250Y223250D02*X284000Y222500D01*
X290750Y223250D02*X291500Y222500D01*
X290750Y227750D02*Y223250D01*
Y227750D02*X291500Y228500D01*
X293000D01*
X293750Y227750D01*
Y223250D01*
X293000Y222500D02*X293750Y223250D01*
X291500Y222500D02*X293000D01*
X290750Y224000D02*X293750Y227000D01*
X295550Y227750D02*X296300Y228500D01*
X298550D01*
X299300Y227750D01*
Y226250D01*
X295550Y222500D02*X299300Y226250D01*
X295550Y222500D02*X299300D01*
X301100Y226250D02*X301850D01*
X301100Y224750D02*X301850D01*
X303650D02*X306650Y228500D01*
X303650Y224750D02*X307400D01*
X306650Y228500D02*Y222500D01*
X309200Y224750D02*X312200Y228500D01*
X309200Y224750D02*X312950D01*
X312200Y228500D02*Y222500D01*
X314750Y226250D02*X315500D01*
X314750Y224750D02*X315500D01*
X317300Y223250D02*X318050Y222500D01*
X317300Y227750D02*Y223250D01*
Y227750D02*X318050Y228500D01*
X319550D01*
X320300Y227750D01*
Y223250D01*
X319550Y222500D02*X320300Y223250D01*
X318050Y222500D02*X319550D01*
X317300Y224000D02*X320300Y227000D01*
X322100Y224750D02*X325100Y228500D01*
X322100Y224750D02*X325850D01*
X325100Y228500D02*Y222500D01*
X330350Y227000D02*Y222500D01*
Y227000D02*X331400Y228500D01*
X333050D01*
X334100Y227000D01*
Y222500D01*
X330350Y225500D02*X334100D01*
X335900Y228500D02*Y222500D01*
Y228500D02*X338150Y225500D01*
X340400Y228500D01*
Y222500D01*
X347900Y228500D02*X348650Y227750D01*
X345650Y228500D02*X347900D01*
X344900Y227750D02*X345650Y228500D01*
X344900Y227750D02*Y223250D01*
X345650Y222500D01*
X347900D01*
X348650Y223250D01*
Y224750D02*Y223250D01*
X347900Y225500D02*X348650Y224750D01*
X346400Y225500D02*X347900D01*
X350450Y228500D02*Y222500D01*
Y228500D02*X352700Y225500D01*
X354950Y228500D01*
Y222500D01*
X356750Y228500D02*X359750D01*
X358250D02*Y222500D01*
X364250Y228500D02*Y223250D01*
X365000Y222500D01*
X366500D01*
X367250Y223250D01*
Y228500D02*Y223250D01*
X369050Y228500D02*X372050D01*
X370550D02*Y222500D01*
X374900D02*X376850D01*
X373850Y223550D02*X374900Y222500D01*
X373850Y227450D02*Y223550D01*
Y227450D02*X374900Y228500D01*
X376850D01*
X200000Y242000D02*Y237500D01*
Y242000D02*X201050Y243500D01*
X202700D01*
X203750Y242000D01*
Y237500D01*
X200000Y240500D02*X203750D01*
X205550D02*Y238250D01*
X206300Y237500D01*
X207800D01*
X208550Y238250D01*
Y240500D02*Y238250D01*
X211100Y243500D02*Y238250D01*
X211850Y237500D01*
X210350Y241250D02*X211850D01*
X213350Y243500D02*Y237500D01*
Y239750D02*X214100Y240500D01*
X215600D01*
X216350Y239750D01*
Y237500D01*
X218150Y239750D02*Y238250D01*
Y239750D02*X218900Y240500D01*
X220400D01*
X221150Y239750D01*
Y238250D01*
X220400Y237500D02*X221150Y238250D01*
X218900Y237500D02*X220400D01*
X218150Y238250D02*X218900Y237500D01*
X223700Y239750D02*Y237500D01*
Y239750D02*X224450Y240500D01*
X225950D01*
X222950D02*X223700Y239750D01*
X227750Y241250D02*X228500D01*
X227750Y239750D02*X228500D01*
X233000Y243500D02*Y237500D01*
Y243500D02*X235250Y240500D01*
X237500Y243500D01*
Y237500D01*
G54D38*X239300Y242000D02*Y241850D01*
G54D37*Y239750D02*Y237500D01*
X241550Y240500D02*X243800D01*
X240800Y239750D02*X241550Y240500D01*
X240800Y239750D02*Y238250D01*
X241550Y237500D01*
X243800D01*
X245600Y243500D02*Y237500D01*
Y239750D02*X246350Y240500D01*
X247850D01*
X248600Y239750D01*
Y237500D01*
X252650Y240500D02*X253400Y239750D01*
X251150Y240500D02*X252650D01*
X250400Y239750D02*X251150Y240500D01*
X250400Y239750D02*Y238250D01*
X251150Y237500D01*
X253400Y240500D02*Y238250D01*
X254150Y237500D01*
X251150D02*X252650D01*
X253400Y238250D01*
X256700Y237500D02*X258950D01*
X255950Y238250D02*X256700Y237500D01*
X255950Y239750D02*Y238250D01*
Y239750D02*X256700Y240500D01*
X258200D01*
X258950Y239750D01*
X255950Y239000D02*X258950D01*
Y239750D02*Y239000D01*
X260750Y243500D02*Y238250D01*
X261500Y237500D01*
X266450Y243500D02*Y237500D01*
X265700Y243500D02*X268700D01*
X269450Y242750D01*
Y241250D01*
X268700Y240500D02*X269450Y241250D01*
X266450Y240500D02*X268700D01*
X272000Y237500D02*X274250D01*
X271250Y238250D02*X272000Y237500D01*
X271250Y239750D02*Y238250D01*
Y239750D02*X272000Y240500D01*
X273500D01*
X274250Y239750D01*
X271250Y239000D02*X274250D01*
Y239750D02*Y239000D01*
X276800Y243500D02*Y238250D01*
X277550Y237500D01*
X276050Y241250D02*X277550D01*
X279800Y237500D02*X282050D01*
X279050Y238250D02*X279800Y237500D01*
X279050Y239750D02*Y238250D01*
Y239750D02*X279800Y240500D01*
X281300D01*
X282050Y239750D01*
X279050Y239000D02*X282050D01*
Y239750D02*Y239000D01*
X284600Y239750D02*Y237500D01*
Y239750D02*X285350Y240500D01*
X286850D01*
X283850D02*X284600Y239750D01*
X289400Y237500D02*X291650D01*
X292400Y238250D01*
X291650Y239000D02*X292400Y238250D01*
X289400Y239000D02*X291650D01*
X288650Y239750D02*X289400Y239000D01*
X288650Y239750D02*X289400Y240500D01*
X291650D01*
X292400Y239750D01*
X288650Y238250D02*X289400Y237500D01*
X294950D02*X297200D01*
X294200Y238250D02*X294950Y237500D01*
X294200Y239750D02*Y238250D01*
Y239750D02*X294950Y240500D01*
X296450D01*
X297200Y239750D01*
X294200Y239000D02*X297200D01*
Y239750D02*Y239000D01*
X299750Y239750D02*Y237500D01*
Y239750D02*X300500Y240500D01*
X301250D01*
X302000Y239750D01*
Y237500D01*
X299000Y240500D02*X299750Y239750D01*
X200000Y258500D02*X203000D01*
X201500D02*Y252500D01*
G54D38*X204800Y257000D02*Y256850D01*
G54D37*Y254750D02*Y252500D01*
X207050Y258500D02*Y253250D01*
X207800Y252500D01*
X206300Y256250D02*X207800D01*
X209300Y258500D02*Y253250D01*
X210050Y252500D01*
X212300D02*X214550D01*
X211550Y253250D02*X212300Y252500D01*
X211550Y254750D02*Y253250D01*
Y254750D02*X212300Y255500D01*
X213800D01*
X214550Y254750D01*
X211550Y254000D02*X214550D01*
Y254750D02*Y254000D01*
X216350Y256250D02*X217100D01*
X216350Y254750D02*X217100D01*
X221600Y253250D02*X222350Y252500D01*
X221600Y257750D02*X222350Y258500D01*
X221600Y257750D02*Y253250D01*
X224150Y255500D02*Y253250D01*
X224900Y252500D01*
X226400D01*
X227150Y253250D01*
Y255500D02*Y253250D01*
X229700Y254750D02*Y252500D01*
Y254750D02*X230450Y255500D01*
X231200D01*
X231950Y254750D01*
Y252500D01*
X228950Y255500D02*X229700Y254750D01*
X233750Y258500D02*Y252500D01*
Y254750D02*X236000Y252500D01*
X233750Y254750D02*X235250Y256250D01*
X238550Y254750D02*Y252500D01*
Y254750D02*X239300Y255500D01*
X240050D01*
X240800Y254750D01*
Y252500D01*
X237800Y255500D02*X238550Y254750D01*
X242600D02*Y253250D01*
Y254750D02*X243350Y255500D01*
X244850D01*
X245600Y254750D01*
Y253250D01*
X244850Y252500D02*X245600Y253250D01*
X243350Y252500D02*X244850D01*
X242600Y253250D02*X243350Y252500D01*
X247400Y255500D02*Y253250D01*
X248150Y252500D01*
X248900D01*
X249650Y253250D01*
Y255500D02*Y253250D01*
X250400Y252500D01*
X251150D01*
X251900Y253250D01*
Y255500D02*Y253250D01*
X254450Y254750D02*Y252500D01*
Y254750D02*X255200Y255500D01*
X255950D01*
X256700Y254750D01*
Y252500D01*
X253700Y255500D02*X254450Y254750D01*
X258500Y258500D02*X259250Y257750D01*
Y253250D01*
X258500Y252500D02*X259250Y253250D01*
X263750Y255500D02*X266750D01*
X271250Y258500D02*Y252500D01*
Y258500D02*X274250D01*
X271250Y255800D02*X273500D01*
X278300Y255500D02*X279050Y254750D01*
X276800Y255500D02*X278300D01*
X276050Y254750D02*X276800Y255500D01*
X276050Y254750D02*Y253250D01*
X276800Y252500D01*
X279050Y255500D02*Y253250D01*
X279800Y252500D01*
X276800D02*X278300D01*
X279050Y253250D01*
X281600Y258500D02*Y252500D01*
Y253250D02*X282350Y252500D01*
X283850D01*
X284600Y253250D01*
Y254750D02*Y253250D01*
X283850Y255500D02*X284600Y254750D01*
X282350Y255500D02*X283850D01*
X281600Y254750D02*X282350Y255500D01*
X287150Y254750D02*Y252500D01*
Y254750D02*X287900Y255500D01*
X289400D01*
X286400D02*X287150Y254750D01*
G54D38*X291200Y257000D02*Y256850D01*
G54D37*Y254750D02*Y252500D01*
X293450Y255500D02*X295700D01*
X292700Y254750D02*X293450Y255500D01*
X292700Y254750D02*Y253250D01*
X293450Y252500D01*
X295700D01*
X299750Y255500D02*X300500Y254750D01*
X298250Y255500D02*X299750D01*
X297500Y254750D02*X298250Y255500D01*
X297500Y254750D02*Y253250D01*
X298250Y252500D01*
X300500Y255500D02*Y253250D01*
X301250Y252500D01*
X298250D02*X299750D01*
X300500Y253250D01*
X303800Y258500D02*Y253250D01*
X304550Y252500D01*
X303050Y256250D02*X304550D01*
G54D38*X306050Y257000D02*Y256850D01*
G54D37*Y254750D02*Y252500D01*
X307550Y254750D02*Y253250D01*
Y254750D02*X308300Y255500D01*
X309800D01*
X310550Y254750D01*
Y253250D01*
X309800Y252500D02*X310550Y253250D01*
X308300Y252500D02*X309800D01*
X307550Y253250D02*X308300Y252500D01*
X313100Y254750D02*Y252500D01*
Y254750D02*X313850Y255500D01*
X314600D01*
X315350Y254750D01*
Y252500D01*
X312350Y255500D02*X313100Y254750D01*
X320600Y258500D02*Y252500D01*
X322550Y258500D02*X323600Y257450D01*
Y253550D01*
X322550Y252500D02*X323600Y253550D01*
X319850Y252500D02*X322550D01*
X319850Y258500D02*X322550D01*
X326150Y254750D02*Y252500D01*
Y254750D02*X326900Y255500D01*
X328400D01*
X325400D02*X326150Y254750D01*
X332450Y255500D02*X333200Y254750D01*
X330950Y255500D02*X332450D01*
X330200Y254750D02*X330950Y255500D01*
X330200Y254750D02*Y253250D01*
X330950Y252500D01*
X333200Y255500D02*Y253250D01*
X333950Y252500D01*
X330950D02*X332450D01*
X333200Y253250D01*
X335750Y255500D02*Y253250D01*
X336500Y252500D01*
X337250D01*
X338000Y253250D01*
Y255500D02*Y253250D01*
X338750Y252500D01*
X339500D01*
X340250Y253250D01*
Y255500D02*Y253250D01*
G54D38*X342050Y257000D02*Y256850D01*
G54D37*Y254750D02*Y252500D01*
X344300Y254750D02*Y252500D01*
Y254750D02*X345050Y255500D01*
X345800D01*
X346550Y254750D01*
Y252500D01*
X343550Y255500D02*X344300Y254750D01*
X350600Y255500D02*X351350Y254750D01*
X349100Y255500D02*X350600D01*
X348350Y254750D02*X349100Y255500D01*
X348350Y254750D02*Y253250D01*
X349100Y252500D01*
X350600D01*
X351350Y253250D01*
X348350Y251000D02*X349100Y250250D01*
X350600D01*
X351350Y251000D01*
Y255500D02*Y251000D01*
M02*
