G04 start of page 2 for group 0 idx 0 *
G04 Title: (unknown), component *
G04 Creator: pcb 20110918 *
G04 CreationDate: Thu 08 Oct 2015 02:44:04 AM GMT UTC *
G04 For: railfan *
G04 Format: Gerber/RS-274X *
G04 PCB-Dimensions: 40000 200000 *
G04 PCB-Coordinate-Origin: lower left *
%MOIN*%
%FSLAX25Y25*%
%LNTOP*%
%ADD16C,0.0360*%
%ADD15R,0.0512X0.0512*%
%ADD14R,0.0500X0.0500*%
%ADD13C,0.0150*%
%ADD12C,0.0100*%
%ADD11C,0.0200*%
G54D11*X25905Y77405D02*Y118595D01*
Y77500D02*X23000Y74595D01*
G54D12*X21000Y89500D02*Y85500D01*
X19000Y83500D01*
X14095Y111500D02*Y107405D01*
X16500Y105000D01*
X14095Y97500D02*Y93405D01*
X16500Y91000D01*
X10000Y116500D02*Y78500D01*
X16500Y72000D01*
X19000Y83500D02*X14000D01*
G54D13*Y152000D02*Y158500D01*
G54D11*X26000Y152500D02*X23000Y149500D01*
Y121500D01*
G54D12*X20000Y152000D02*X16500Y148500D01*
Y123000D01*
G54D11*X25905Y186500D02*Y152405D01*
G54D13*X14000Y180000D02*Y186500D01*
Y184500D01*
Y166000D02*Y172500D01*
G54D11*X23000Y121500D02*X25905Y118595D01*
G54D12*X16500Y123000D02*X10000Y116500D01*
G54D11*X23000Y74595D02*Y21500D01*
G54D12*X16500Y72000D02*Y21500D01*
X18500Y77500D02*Y18500D01*
X16500Y21500D02*X15500Y20500D01*
X6500D01*
X10000Y17000D02*X14500D01*
X15000Y16500D01*
Y12500D01*
X6500Y20500D02*X5000Y19000D01*
Y12500D01*
X20000Y17000D02*X24500D01*
X18500Y18500D02*X20000Y17000D01*
G54D11*X23000Y21500D02*X25000Y19500D01*
X33500D01*
X35000Y18000D01*
Y8500D01*
G54D12*X24500Y17000D02*X25000Y16500D01*
Y12500D01*
G54D14*X5000Y13500D02*Y3500D01*
X15000Y13500D02*Y3500D01*
X25000Y13500D02*Y3500D01*
X35000Y13500D02*Y3500D01*
G54D15*X25905Y187681D02*Y185319D01*
X14095Y187681D02*Y185319D01*
Y159681D02*Y157319D01*
Y173681D02*Y171319D01*
Y112681D02*Y110319D01*
Y98681D02*Y96319D01*
X25905Y159681D02*Y157319D01*
Y173681D02*Y171319D01*
Y112681D02*Y110319D01*
Y98681D02*Y96319D01*
X14095Y84681D02*Y82319D01*
X25905Y84681D02*Y82319D01*
G54D16*X16500Y105000D03*
Y91000D03*
X21000Y89500D03*
X14000Y180000D03*
Y166000D03*
Y152000D03*
X20000D03*
X10000Y17000D03*
X18500Y77500D03*
G54D11*M02*
