G04 start of page 9 for group -4078 idx -4078 *
G04 Title: (unknown), bottomsilk *
G04 Creator: pcb 20110918 *
G04 CreationDate: Thu 08 Oct 2015 02:44:04 AM GMT UTC *
G04 For: railfan *
G04 Format: Gerber/RS-274X *
G04 PCB-Dimensions: 40000 200000 *
G04 PCB-Coordinate-Origin: lower left *
%MOIN*%
%FSLAX25Y25*%
%LNBOTTOMSILK*%
%ADD30C,0.0100*%
G54D30*X26000Y119500D02*X25000Y117500D01*
X24000Y119500D02*X25000Y117500D01*
X22800Y121000D02*X22300Y121500D01*
X20800D02*X22300D01*
X20800D02*X20300Y121000D01*
Y120000D02*Y121000D01*
X22800Y117500D02*X20300Y120000D01*
Y117500D02*X22800D01*
X18600D02*X19100D01*
X17400Y118000D02*X16900Y117500D01*
X17400Y118000D02*Y121000D01*
X16900Y121500D01*
X15900D02*X16900D01*
X15900D02*X15400Y121000D01*
Y118000D02*Y121000D01*
X15900Y117500D02*X15400Y118000D01*
X15900Y117500D02*X16900D01*
X17400Y118500D02*X15400Y120500D01*
X19607Y183745D02*X20393D01*
X19607Y189255D02*X20393D01*
X19607Y169745D02*X20393D01*
X19607Y175255D02*X20393D01*
X19607Y155745D02*X20393D01*
X19607Y161255D02*X20393D01*
X19607Y108745D02*X20393D01*
X19607Y114255D02*X20393D01*
X19607Y80745D02*X20393D01*
X19607Y86255D02*X20393D01*
X19607Y94745D02*X20393D01*
X19607Y100255D02*X20393D01*
M02*
