G04 start of page 2 for group 0 idx 0 *
G04 Title: (unknown), component *
G04 Creator: pcb 20110918 *
G04 CreationDate: Thu 08 Oct 2015 02:49:05 AM GMT UTC *
G04 For: railfan *
G04 Format: Gerber/RS-274X *
G04 PCB-Dimensions: 30000 125000 *
G04 PCB-Coordinate-Origin: lower left *
%MOIN*%
%FSLAX25Y25*%
%LNTOP*%
%ADD16C,0.0360*%
%ADD15R,0.0500X0.0500*%
%ADD14R,0.0512X0.0512*%
%ADD13C,0.0100*%
%ADD12C,0.0150*%
%ADD11C,0.0200*%
G54D11*X18000Y74595D02*Y15500D01*
G54D12*X9000Y91000D02*Y97500D01*
Y111500D02*Y109500D01*
Y105000D02*Y111500D01*
G54D11*X18000Y15500D02*X20000Y13500D01*
G54D12*X9000Y77000D02*Y83500D01*
G54D11*X20905Y111500D02*Y77405D01*
Y77500D02*X18000Y74595D01*
G54D13*X15000Y77000D02*X13000Y75000D01*
Y16500D01*
X10000Y13500D01*
G54D14*X9095Y84681D02*Y82319D01*
X20905Y84681D02*Y82319D01*
G54D15*X10000Y13500D02*Y3500D01*
X20000Y13500D02*Y3500D01*
G54D14*X9095Y112681D02*Y110319D01*
X20905Y112681D02*Y110319D01*
X9095Y98681D02*Y96319D01*
X20905Y98681D02*Y96319D01*
G54D16*X9000Y77000D03*
Y91000D03*
Y105000D03*
X15000Y77000D03*
G54D11*M02*
