G04 start of page 3 for group 1 idx 1 *
G04 Title: (unknown), solder *
G04 Creator: pcb 20110918 *
G04 CreationDate: Thu 08 Oct 2015 02:49:05 AM GMT UTC *
G04 For: railfan *
G04 Format: Gerber/RS-274X *
G04 PCB-Dimensions: 30000 125000 *
G04 PCB-Coordinate-Origin: lower left *
%MOIN*%
%FSLAX25Y25*%
%LNBOTTOM*%
%ADD22C,0.0200*%
%ADD21C,0.0360*%
%ADD20R,0.0500X0.0500*%
%ADD19R,0.0512X0.0512*%
%ADD18C,0.0150*%
%ADD17C,0.0100*%
G54D17*X18543Y111500D02*X22000D01*
X17500Y72000D02*Y16000D01*
X19500Y14000D01*
G54D18*X11457Y79457D02*Y83500D01*
X9000Y77000D02*X11457Y79457D01*
G54D17*X22500Y93543D02*Y80000D01*
X15000Y77000D02*X17500Y79500D01*
Y83000D01*
X24500Y79000D02*X17500Y72000D01*
X22500Y80000D02*X12500Y70000D01*
Y16000D01*
X10500Y14000D01*
G54D18*X11457Y93457D02*Y97500D01*
X9000Y91000D02*X11457Y93457D01*
G54D17*X18543Y97500D02*X22500Y93543D01*
G54D18*X11457Y107457D02*Y111500D01*
X9000Y105000D02*X11457Y107457D01*
G54D17*X22000Y111500D02*X24500Y109000D01*
Y79000D01*
G54D19*X11457Y83893D02*Y83107D01*
X18543Y83893D02*Y83107D01*
X11457Y97893D02*Y97107D01*
X18543Y97893D02*Y97107D01*
G54D20*X10000Y13500D02*Y3500D01*
X20000Y13500D02*Y3500D01*
G54D19*X11457Y111893D02*Y111107D01*
X18543Y111893D02*Y111107D01*
G54D21*X9000Y77000D03*
Y91000D03*
Y105000D03*
X15000Y77000D03*
G54D22*M02*
