G04 start of page 12 for group -3984 idx -3984 *
G04 Title: (unknown), fab *
G04 Creator: pcb 20110918 *
G04 CreationDate: Thu 08 Oct 2015 02:49:05 AM GMT UTC *
G04 For: railfan *
G04 Format: Gerber/RS-274X *
G04 PCB-Dimensions: 30000 125000 *
G04 PCB-Coordinate-Origin: lower left *
%MOIN*%
%FSLAX25Y25*%
%LNFAB*%
%ADD39C,0.0100*%
%ADD38C,0.0075*%
%ADD37C,0.0060*%
%ADD36C,0.0001*%
%ADD35R,0.0080X0.0080*%
G54D35*X9000Y77000D02*Y75400D01*
G54D36*G36*
X8454Y77147D02*X10533Y78346D01*
X10933Y77653D01*
X8853Y76454D01*
X8454Y77147D01*
G37*
G36*
X9147Y76454D02*X7067Y77653D01*
X7467Y78346D01*
X9546Y77147D01*
X9147Y76454D01*
G37*
G54D35*X9000Y91000D02*Y89400D01*
G54D36*G36*
X8454Y91147D02*X10533Y92346D01*
X10933Y91653D01*
X8853Y90454D01*
X8454Y91147D01*
G37*
G36*
X9147Y90454D02*X7067Y91653D01*
X7467Y92346D01*
X9546Y91147D01*
X9147Y90454D01*
G37*
G54D35*X9000Y105000D02*Y103400D01*
G54D36*G36*
X8454Y105147D02*X10533Y106346D01*
X10933Y105653D01*
X8853Y104454D01*
X8454Y105147D01*
G37*
G36*
X9147Y104454D02*X7067Y105653D01*
X7467Y106346D01*
X9546Y105147D01*
X9147Y104454D01*
G37*
G54D35*X15000Y77000D02*Y75400D01*
G54D36*G36*
X14454Y77147D02*X16533Y78346D01*
X16933Y77653D01*
X14853Y76454D01*
X14454Y77147D01*
G37*
G36*
X15147Y76454D02*X13067Y77653D01*
X13467Y78346D01*
X15546Y77147D01*
X15147Y76454D01*
G37*
G54D35*X15000Y181250D02*Y179650D01*
G54D36*G36*
X14454Y181397D02*X16533Y182596D01*
X16933Y181903D01*
X14853Y180704D01*
X14454Y181397D01*
G37*
G36*
X15147Y180704D02*X13067Y181903D01*
X13467Y182596D01*
X15546Y181397D01*
X15147Y180704D01*
G37*
G54D37*X135000Y183500D02*X136500Y180500D01*
X138000Y183500D01*
X136500Y180500D02*Y177500D01*
X139800Y180800D02*X142050D01*
X139800Y177500D02*X142800D01*
X139800Y183500D02*Y177500D01*
Y183500D02*X142800D01*
X147600D02*X148350Y182750D01*
X145350Y183500D02*X147600D01*
X144600Y182750D02*X145350Y183500D01*
X144600Y182750D02*Y181250D01*
X145350Y180500D01*
X147600D01*
X148350Y179750D01*
Y178250D01*
X147600Y177500D02*X148350Y178250D01*
X145350Y177500D02*X147600D01*
X144600Y178250D02*X145350Y177500D01*
X98000Y179750D02*X101000Y183500D01*
X98000Y179750D02*X101750D01*
X101000Y183500D02*Y177500D01*
X45000Y178250D02*X45750Y177500D01*
X45000Y182750D02*Y178250D01*
Y182750D02*X45750Y183500D01*
X47250D01*
X48000Y182750D01*
Y178250D01*
X47250Y177500D02*X48000Y178250D01*
X45750Y177500D02*X47250D01*
X45000Y179000D02*X48000Y182000D01*
X49800Y177500D02*X50550D01*
X52350Y178250D02*X53100Y177500D01*
X52350Y182750D02*Y178250D01*
Y182750D02*X53100Y183500D01*
X54600D01*
X55350Y182750D01*
Y178250D01*
X54600Y177500D02*X55350Y178250D01*
X53100Y177500D02*X54600D01*
X52350Y179000D02*X55350Y182000D01*
X57150Y182750D02*X57900Y183500D01*
X60150D01*
X60900Y182750D01*
Y181250D01*
X57150Y177500D02*X60900Y181250D01*
X57150Y177500D02*X60900D01*
X62700Y178250D02*X63450Y177500D01*
X62700Y182750D02*Y178250D01*
Y182750D02*X63450Y183500D01*
X64950D01*
X65700Y182750D01*
Y178250D01*
X64950Y177500D02*X65700Y178250D01*
X63450Y177500D02*X64950D01*
X62700Y179000D02*X65700Y182000D01*
X3000Y198500D02*X3750Y197750D01*
X750Y198500D02*X3000D01*
X0Y197750D02*X750Y198500D01*
X0Y197750D02*Y196250D01*
X750Y195500D01*
X3000D01*
X3750Y194750D01*
Y193250D01*
X3000Y192500D02*X3750Y193250D01*
X750Y192500D02*X3000D01*
X0Y193250D02*X750Y192500D01*
X5550Y195500D02*Y193250D01*
X6300Y192500D01*
X8550Y195500D02*Y191000D01*
X7800Y190250D02*X8550Y191000D01*
X6300Y190250D02*X7800D01*
X5550Y191000D02*X6300Y190250D01*
Y192500D02*X7800D01*
X8550Y193250D01*
X11100Y194750D02*Y192500D01*
Y194750D02*X11850Y195500D01*
X12600D01*
X13350Y194750D01*
Y192500D01*
Y194750D02*X14100Y195500D01*
X14850D01*
X15600Y194750D01*
Y192500D01*
X10350Y195500D02*X11100Y194750D01*
X17400Y198500D02*Y192500D01*
Y193250D02*X18150Y192500D01*
X19650D01*
X20400Y193250D01*
Y194750D02*Y193250D01*
X19650Y195500D02*X20400Y194750D01*
X18150Y195500D02*X19650D01*
X17400Y194750D02*X18150Y195500D01*
X22200Y194750D02*Y193250D01*
Y194750D02*X22950Y195500D01*
X24450D01*
X25200Y194750D01*
Y193250D01*
X24450Y192500D02*X25200Y193250D01*
X22950Y192500D02*X24450D01*
X22200Y193250D02*X22950Y192500D01*
X27000Y198500D02*Y193250D01*
X27750Y192500D01*
X0Y189250D02*X29250D01*
X41750Y198500D02*Y192500D01*
X43700Y198500D02*X44750Y197450D01*
Y193550D01*
X43700Y192500D02*X44750Y193550D01*
X41000Y192500D02*X43700D01*
X41000Y198500D02*X43700D01*
G54D38*X46550Y197000D02*Y196850D01*
G54D37*Y194750D02*Y192500D01*
X50300Y195500D02*X51050Y194750D01*
X48800Y195500D02*X50300D01*
X48050Y194750D02*X48800Y195500D01*
X48050Y194750D02*Y193250D01*
X48800Y192500D01*
X51050Y195500D02*Y193250D01*
X51800Y192500D01*
X48800D02*X50300D01*
X51050Y193250D01*
X54350Y194750D02*Y192500D01*
Y194750D02*X55100Y195500D01*
X55850D01*
X56600Y194750D01*
Y192500D01*
Y194750D02*X57350Y195500D01*
X58100D01*
X58850Y194750D01*
Y192500D01*
X53600Y195500D02*X54350Y194750D01*
X60650Y192500D02*X61400D01*
X65900Y193250D02*X66650Y192500D01*
X65900Y197750D02*X66650Y198500D01*
X65900Y197750D02*Y193250D01*
X68450Y198500D02*X69950D01*
X69200D02*Y192500D01*
X68450D02*X69950D01*
X72500Y194750D02*Y192500D01*
Y194750D02*X73250Y195500D01*
X74000D01*
X74750Y194750D01*
Y192500D01*
X71750Y195500D02*X72500Y194750D01*
X77300Y195500D02*X79550D01*
X76550Y194750D02*X77300Y195500D01*
X76550Y194750D02*Y193250D01*
X77300Y192500D01*
X79550D01*
X81350Y198500D02*Y192500D01*
Y194750D02*X82100Y195500D01*
X83600D01*
X84350Y194750D01*
Y192500D01*
X86150Y198500D02*X86900Y197750D01*
Y193250D01*
X86150Y192500D02*X86900Y193250D01*
X41000Y189250D02*X88700D01*
X96050Y192500D02*X98000D01*
X95000Y193550D02*X96050Y192500D01*
X95000Y197450D02*Y193550D01*
Y197450D02*X96050Y198500D01*
X98000D01*
X99800Y194750D02*Y193250D01*
Y194750D02*X100550Y195500D01*
X102050D01*
X102800Y194750D01*
Y193250D01*
X102050Y192500D02*X102800Y193250D01*
X100550Y192500D02*X102050D01*
X99800Y193250D02*X100550Y192500D01*
X104600Y195500D02*Y193250D01*
X105350Y192500D01*
X106850D01*
X107600Y193250D01*
Y195500D02*Y193250D01*
X110150Y194750D02*Y192500D01*
Y194750D02*X110900Y195500D01*
X111650D01*
X112400Y194750D01*
Y192500D01*
X109400Y195500D02*X110150Y194750D01*
X114950Y198500D02*Y193250D01*
X115700Y192500D01*
X114200Y196250D02*X115700D01*
X95000Y189250D02*X117200D01*
X130750Y198500D02*Y192500D01*
X130000Y198500D02*X133000D01*
X133750Y197750D01*
Y196250D01*
X133000Y195500D02*X133750Y196250D01*
X130750Y195500D02*X133000D01*
X135550Y198500D02*Y193250D01*
X136300Y192500D01*
X140050Y195500D02*X140800Y194750D01*
X138550Y195500D02*X140050D01*
X137800Y194750D02*X138550Y195500D01*
X137800Y194750D02*Y193250D01*
X138550Y192500D01*
X140800Y195500D02*Y193250D01*
X141550Y192500D01*
X138550D02*X140050D01*
X140800Y193250D01*
X144100Y198500D02*Y193250D01*
X144850Y192500D01*
X143350Y196250D02*X144850D01*
X147100Y192500D02*X149350D01*
X146350Y193250D02*X147100Y192500D01*
X146350Y194750D02*Y193250D01*
Y194750D02*X147100Y195500D01*
X148600D01*
X149350Y194750D01*
X146350Y194000D02*X149350D01*
Y194750D02*Y194000D01*
X154150Y198500D02*Y192500D01*
X153400D02*X154150Y193250D01*
X151900Y192500D02*X153400D01*
X151150Y193250D02*X151900Y192500D01*
X151150Y194750D02*Y193250D01*
Y194750D02*X151900Y195500D01*
X153400D01*
X154150Y194750D01*
X157450Y195500D02*Y194750D01*
Y193250D02*Y192500D01*
X155950Y197750D02*Y197000D01*
Y197750D02*X156700Y198500D01*
X158200D01*
X158950Y197750D01*
Y197000D01*
X157450Y195500D02*X158950Y197000D01*
X130000Y189250D02*X160750D01*
X0Y213500D02*X3000D01*
X1500D02*Y207500D01*
X4800Y213500D02*Y207500D01*
Y209750D02*X5550Y210500D01*
X7050D01*
X7800Y209750D01*
Y207500D01*
X10350D02*X12600D01*
X9600Y208250D02*X10350Y207500D01*
X9600Y209750D02*Y208250D01*
Y209750D02*X10350Y210500D01*
X11850D01*
X12600Y209750D01*
X9600Y209000D02*X12600D01*
Y209750D02*Y209000D01*
X15150Y209750D02*Y207500D01*
Y209750D02*X15900Y210500D01*
X17400D01*
X14400D02*X15150Y209750D01*
X19950Y207500D02*X22200D01*
X19200Y208250D02*X19950Y207500D01*
X19200Y209750D02*Y208250D01*
Y209750D02*X19950Y210500D01*
X21450D01*
X22200Y209750D01*
X19200Y209000D02*X22200D01*
Y209750D02*Y209000D01*
X28950Y210500D02*X29700Y209750D01*
X27450Y210500D02*X28950D01*
X26700Y209750D02*X27450Y210500D01*
X26700Y209750D02*Y208250D01*
X27450Y207500D01*
X29700Y210500D02*Y208250D01*
X30450Y207500D01*
X27450D02*X28950D01*
X29700Y208250D01*
X33000Y209750D02*Y207500D01*
Y209750D02*X33750Y210500D01*
X35250D01*
X32250D02*X33000Y209750D01*
X37800Y207500D02*X40050D01*
X37050Y208250D02*X37800Y207500D01*
X37050Y209750D02*Y208250D01*
Y209750D02*X37800Y210500D01*
X39300D01*
X40050Y209750D01*
X37050Y209000D02*X40050D01*
Y209750D02*Y209000D01*
X44550Y212300D02*X45750Y213500D01*
Y207500D01*
X44550D02*X46800D01*
X54300Y213500D02*Y207500D01*
X53550D02*X54300Y208250D01*
X52050Y207500D02*X53550D01*
X51300Y208250D02*X52050Y207500D01*
X51300Y209750D02*Y208250D01*
Y209750D02*X52050Y210500D01*
X53550D01*
X54300Y209750D01*
G54D38*X56100Y212000D02*Y211850D01*
G54D37*Y209750D02*Y207500D01*
X58350Y212750D02*Y207500D01*
Y212750D02*X59100Y213500D01*
X59850D01*
X57600Y210500D02*X59100D01*
X62100Y212750D02*Y207500D01*
Y212750D02*X62850Y213500D01*
X63600D01*
X61350Y210500D02*X62850D01*
X65850Y207500D02*X68100D01*
X65100Y208250D02*X65850Y207500D01*
X65100Y209750D02*Y208250D01*
Y209750D02*X65850Y210500D01*
X67350D01*
X68100Y209750D01*
X65100Y209000D02*X68100D01*
Y209750D02*Y209000D01*
X70650Y209750D02*Y207500D01*
Y209750D02*X71400Y210500D01*
X72900D01*
X69900D02*X70650Y209750D01*
X75450Y207500D02*X77700D01*
X74700Y208250D02*X75450Y207500D01*
X74700Y209750D02*Y208250D01*
Y209750D02*X75450Y210500D01*
X76950D01*
X77700Y209750D01*
X74700Y209000D02*X77700D01*
Y209750D02*Y209000D01*
X80250Y209750D02*Y207500D01*
Y209750D02*X81000Y210500D01*
X81750D01*
X82500Y209750D01*
Y207500D01*
X79500Y210500D02*X80250Y209750D01*
X85050Y213500D02*Y208250D01*
X85800Y207500D01*
X84300Y211250D02*X85800D01*
X93000Y213500D02*Y207500D01*
X92250D02*X93000Y208250D01*
X90750Y207500D02*X92250D01*
X90000Y208250D02*X90750Y207500D01*
X90000Y209750D02*Y208250D01*
Y209750D02*X90750Y210500D01*
X92250D01*
X93000Y209750D01*
X95550D02*Y207500D01*
Y209750D02*X96300Y210500D01*
X97800D01*
X94800D02*X95550Y209750D01*
G54D38*X99600Y212000D02*Y211850D01*
G54D37*Y209750D02*Y207500D01*
X101100Y213500D02*Y208250D01*
X101850Y207500D01*
X103350Y213500D02*Y208250D01*
X104100Y207500D01*
X109050D02*X111300D01*
X112050Y208250D01*
X111300Y209000D02*X112050Y208250D01*
X109050Y209000D02*X111300D01*
X108300Y209750D02*X109050Y209000D01*
X108300Y209750D02*X109050Y210500D01*
X111300D01*
X112050Y209750D01*
X108300Y208250D02*X109050Y207500D01*
G54D38*X113850Y212000D02*Y211850D01*
G54D37*Y209750D02*Y207500D01*
X115350Y210500D02*X118350D01*
X115350Y207500D02*X118350Y210500D01*
X115350Y207500D02*X118350D01*
X120900D02*X123150D01*
X120150Y208250D02*X120900Y207500D01*
X120150Y209750D02*Y208250D01*
Y209750D02*X120900Y210500D01*
X122400D01*
X123150Y209750D01*
X120150Y209000D02*X123150D01*
Y209750D02*Y209000D01*
X125700Y207500D02*X127950D01*
X128700Y208250D01*
X127950Y209000D02*X128700Y208250D01*
X125700Y209000D02*X127950D01*
X124950Y209750D02*X125700Y209000D01*
X124950Y209750D02*X125700Y210500D01*
X127950D01*
X128700Y209750D01*
X124950Y208250D02*X125700Y207500D01*
X133200Y210500D02*Y208250D01*
X133950Y207500D01*
X135450D01*
X136200Y208250D01*
Y210500D02*Y208250D01*
X138750Y207500D02*X141000D01*
X141750Y208250D01*
X141000Y209000D02*X141750Y208250D01*
X138750Y209000D02*X141000D01*
X138000Y209750D02*X138750Y209000D01*
X138000Y209750D02*X138750Y210500D01*
X141000D01*
X141750Y209750D01*
X138000Y208250D02*X138750Y207500D01*
X144300D02*X146550D01*
X143550Y208250D02*X144300Y207500D01*
X143550Y209750D02*Y208250D01*
Y209750D02*X144300Y210500D01*
X145800D01*
X146550Y209750D01*
X143550Y209000D02*X146550D01*
Y209750D02*Y209000D01*
X151350Y213500D02*Y207500D01*
X150600D02*X151350Y208250D01*
X149100Y207500D02*X150600D01*
X148350Y208250D02*X149100Y207500D01*
X148350Y209750D02*Y208250D01*
Y209750D02*X149100Y210500D01*
X150600D01*
X151350Y209750D01*
G54D38*X155850Y212000D02*Y211850D01*
G54D37*Y209750D02*Y207500D01*
X158100Y209750D02*Y207500D01*
Y209750D02*X158850Y210500D01*
X159600D01*
X160350Y209750D01*
Y207500D01*
X157350Y210500D02*X158100Y209750D01*
X165600Y213500D02*Y208250D01*
X166350Y207500D01*
X164850Y211250D02*X166350D01*
X167850Y213500D02*Y207500D01*
Y209750D02*X168600Y210500D01*
X170100D01*
X170850Y209750D01*
Y207500D01*
G54D38*X172650Y212000D02*Y211850D01*
G54D37*Y209750D02*Y207500D01*
X174900D02*X177150D01*
X177900Y208250D01*
X177150Y209000D02*X177900Y208250D01*
X174900Y209000D02*X177150D01*
X174150Y209750D02*X174900Y209000D01*
X174150Y209750D02*X174900Y210500D01*
X177150D01*
X177900Y209750D01*
X174150Y208250D02*X174900Y207500D01*
X182400Y213500D02*Y208250D01*
X183150Y207500D01*
X186900Y210500D02*X187650Y209750D01*
X185400Y210500D02*X186900D01*
X184650Y209750D02*X185400Y210500D01*
X184650Y209750D02*Y208250D01*
X185400Y207500D01*
X187650Y210500D02*Y208250D01*
X188400Y207500D01*
X185400D02*X186900D01*
X187650Y208250D01*
X190200Y210500D02*Y208250D01*
X190950Y207500D01*
X193200Y210500D02*Y206000D01*
X192450Y205250D02*X193200Y206000D01*
X190950Y205250D02*X192450D01*
X190200Y206000D02*X190950Y205250D01*
Y207500D02*X192450D01*
X193200Y208250D01*
X195000Y209750D02*Y208250D01*
Y209750D02*X195750Y210500D01*
X197250D01*
X198000Y209750D01*
Y208250D01*
X197250Y207500D02*X198000Y208250D01*
X195750Y207500D02*X197250D01*
X195000Y208250D02*X195750Y207500D01*
X199800Y210500D02*Y208250D01*
X200550Y207500D01*
X202050D01*
X202800Y208250D01*
Y210500D02*Y208250D01*
X205350Y213500D02*Y208250D01*
X206100Y207500D01*
X204600Y211250D02*X206100D01*
X207600Y206000D02*X209100Y207500D01*
X213600Y209750D02*X216600Y213500D01*
X213600Y209750D02*X217350D01*
X216600Y213500D02*Y207500D01*
X221850Y213500D02*Y207500D01*
Y209750D02*X222600Y210500D01*
X224100D01*
X224850Y209750D01*
Y207500D01*
X226650Y209750D02*Y208250D01*
Y209750D02*X227400Y210500D01*
X228900D01*
X229650Y209750D01*
Y208250D01*
X228900Y207500D02*X229650Y208250D01*
X227400Y207500D02*X228900D01*
X226650Y208250D02*X227400Y207500D01*
X231450Y213500D02*Y208250D01*
X232200Y207500D01*
X234450D02*X236700D01*
X233700Y208250D02*X234450Y207500D01*
X233700Y209750D02*Y208250D01*
Y209750D02*X234450Y210500D01*
X235950D01*
X236700Y209750D01*
X233700Y209000D02*X236700D01*
Y209750D02*Y209000D01*
X239250Y207500D02*X241500D01*
X242250Y208250D01*
X241500Y209000D02*X242250Y208250D01*
X239250Y209000D02*X241500D01*
X238500Y209750D02*X239250Y209000D01*
X238500Y209750D02*X239250Y210500D01*
X241500D01*
X242250Y209750D01*
X238500Y208250D02*X239250Y207500D01*
X247500Y213500D02*Y208250D01*
X248250Y207500D01*
X246750Y211250D02*X248250D01*
X249750Y209750D02*Y208250D01*
Y209750D02*X250500Y210500D01*
X252000D01*
X252750Y209750D01*
Y208250D01*
X252000Y207500D02*X252750Y208250D01*
X250500Y207500D02*X252000D01*
X249750Y208250D02*X250500Y207500D01*
X255300Y213500D02*Y208250D01*
X256050Y207500D01*
X254550Y211250D02*X256050D01*
X259800Y210500D02*X260550Y209750D01*
X258300Y210500D02*X259800D01*
X257550Y209750D02*X258300Y210500D01*
X257550Y209750D02*Y208250D01*
X258300Y207500D01*
X260550Y210500D02*Y208250D01*
X261300Y207500D01*
X258300D02*X259800D01*
X260550Y208250D01*
X263100Y213500D02*Y208250D01*
X263850Y207500D01*
G54D39*X2500Y0D02*X27500D01*
Y22500D01*
X2500Y0D02*Y22500D01*
X21000Y71500D02*Y22500D01*
X9000Y71500D02*Y22500D01*
X27500D02*X21000D01*
X2500D02*X9000D01*
X27500Y82500D02*Y112500D01*
X2500D02*Y82500D01*
X15000Y125000D02*G75*G02X27500Y112500I0J-12500D01*G01*
X15000Y125000D02*G75*G03X2500Y112500I0J-12500D01*G01*
X27500Y82500D02*G75*G02X21060Y71567I-12500J0D01*G01*
X2500Y82500D02*G75*G03X8940Y71567I12500J0D01*G01*
G54D37*X0Y-9500D02*X3000D01*
X3750Y-8750D01*
Y-6950D02*Y-8750D01*
X3000Y-6200D02*X3750Y-6950D01*
X750Y-6200D02*X3000D01*
X750Y-3500D02*Y-9500D01*
X0Y-3500D02*X3000D01*
X3750Y-4250D01*
Y-5450D01*
X3000Y-6200D02*X3750Y-5450D01*
X5550Y-7250D02*Y-8750D01*
Y-7250D02*X6300Y-6500D01*
X7800D01*
X8550Y-7250D01*
Y-8750D01*
X7800Y-9500D02*X8550Y-8750D01*
X6300Y-9500D02*X7800D01*
X5550Y-8750D02*X6300Y-9500D01*
X12600Y-6500D02*X13350Y-7250D01*
X11100Y-6500D02*X12600D01*
X10350Y-7250D02*X11100Y-6500D01*
X10350Y-7250D02*Y-8750D01*
X11100Y-9500D01*
X13350Y-6500D02*Y-8750D01*
X14100Y-9500D01*
X11100D02*X12600D01*
X13350Y-8750D01*
X16650Y-7250D02*Y-9500D01*
Y-7250D02*X17400Y-6500D01*
X18900D01*
X15900D02*X16650Y-7250D01*
X23700Y-3500D02*Y-9500D01*
X22950D02*X23700Y-8750D01*
X21450Y-9500D02*X22950D01*
X20700Y-8750D02*X21450Y-9500D01*
X20700Y-7250D02*Y-8750D01*
Y-7250D02*X21450Y-6500D01*
X22950D01*
X23700Y-7250D01*
X28200D02*Y-8750D01*
Y-7250D02*X28950Y-6500D01*
X30450D01*
X31200Y-7250D01*
Y-8750D01*
X30450Y-9500D02*X31200Y-8750D01*
X28950Y-9500D02*X30450D01*
X28200Y-8750D02*X28950Y-9500D01*
X33000Y-6500D02*Y-8750D01*
X33750Y-9500D01*
X35250D01*
X36000Y-8750D01*
Y-6500D02*Y-8750D01*
X38550Y-3500D02*Y-8750D01*
X39300Y-9500D01*
X37800Y-5750D02*X39300D01*
X40800Y-3500D02*Y-8750D01*
X41550Y-9500D01*
G54D38*X43050Y-5000D02*Y-5150D01*
G54D37*Y-7250D02*Y-9500D01*
X45300Y-7250D02*Y-9500D01*
Y-7250D02*X46050Y-6500D01*
X46800D01*
X47550Y-7250D01*
Y-9500D01*
X44550Y-6500D02*X45300Y-7250D01*
X50100Y-9500D02*X52350D01*
X49350Y-8750D02*X50100Y-9500D01*
X49350Y-7250D02*Y-8750D01*
Y-7250D02*X50100Y-6500D01*
X51600D01*
X52350Y-7250D01*
X49350Y-8000D02*X52350D01*
Y-7250D02*Y-8000D01*
G54D38*X56850Y-5000D02*Y-5150D01*
G54D37*Y-7250D02*Y-9500D01*
X59100D02*X61350D01*
X62100Y-8750D01*
X61350Y-8000D02*X62100Y-8750D01*
X59100Y-8000D02*X61350D01*
X58350Y-7250D02*X59100Y-8000D01*
X58350Y-7250D02*X59100Y-6500D01*
X61350D01*
X62100Y-7250D01*
X58350Y-8750D02*X59100Y-9500D01*
X67350Y-3500D02*Y-8750D01*
X68100Y-9500D01*
X66600Y-5750D02*X68100D01*
X69600Y-3500D02*Y-9500D01*
Y-7250D02*X70350Y-6500D01*
X71850D01*
X72600Y-7250D01*
Y-9500D01*
X75150D02*X77400D01*
X74400Y-8750D02*X75150Y-9500D01*
X74400Y-7250D02*Y-8750D01*
Y-7250D02*X75150Y-6500D01*
X76650D01*
X77400Y-7250D01*
X74400Y-8000D02*X77400D01*
Y-7250D02*Y-8000D01*
X82650Y-6500D02*X84900D01*
X81900Y-7250D02*X82650Y-6500D01*
X81900Y-7250D02*Y-8750D01*
X82650Y-9500D01*
X84900D01*
X87450D02*X89700D01*
X86700Y-8750D02*X87450Y-9500D01*
X86700Y-7250D02*Y-8750D01*
Y-7250D02*X87450Y-6500D01*
X88950D01*
X89700Y-7250D01*
X86700Y-8000D02*X89700D01*
Y-7250D02*Y-8000D01*
X92250Y-7250D02*Y-9500D01*
Y-7250D02*X93000Y-6500D01*
X93750D01*
X94500Y-7250D01*
Y-9500D01*
X91500Y-6500D02*X92250Y-7250D01*
X97050Y-3500D02*Y-8750D01*
X97800Y-9500D01*
X96300Y-5750D02*X97800D01*
X100050Y-9500D02*X102300D01*
X99300Y-8750D02*X100050Y-9500D01*
X99300Y-7250D02*Y-8750D01*
Y-7250D02*X100050Y-6500D01*
X101550D01*
X102300Y-7250D01*
X99300Y-8000D02*X102300D01*
Y-7250D02*Y-8000D01*
X104850Y-7250D02*Y-9500D01*
Y-7250D02*X105600Y-6500D01*
X107100D01*
X104100D02*X104850Y-7250D01*
X108900Y-3500D02*Y-8750D01*
X109650Y-9500D01*
G54D38*X111150Y-5000D02*Y-5150D01*
G54D37*Y-7250D02*Y-9500D01*
X113400Y-7250D02*Y-9500D01*
Y-7250D02*X114150Y-6500D01*
X114900D01*
X115650Y-7250D01*
Y-9500D01*
X112650Y-6500D02*X113400Y-7250D01*
X118200Y-9500D02*X120450D01*
X117450Y-8750D02*X118200Y-9500D01*
X117450Y-7250D02*Y-8750D01*
Y-7250D02*X118200Y-6500D01*
X119700D01*
X120450Y-7250D01*
X117450Y-8000D02*X120450D01*
Y-7250D02*Y-8000D01*
X124950Y-7250D02*Y-8750D01*
Y-7250D02*X125700Y-6500D01*
X127200D01*
X127950Y-7250D01*
Y-8750D01*
X127200Y-9500D02*X127950Y-8750D01*
X125700Y-9500D02*X127200D01*
X124950Y-8750D02*X125700Y-9500D01*
X130500Y-4250D02*Y-9500D01*
Y-4250D02*X131250Y-3500D01*
X132000D01*
X129750Y-6500D02*X131250D01*
X136950Y-3500D02*Y-8750D01*
X137700Y-9500D01*
X136200Y-5750D02*X137700D01*
X139200Y-3500D02*Y-9500D01*
Y-7250D02*X139950Y-6500D01*
X141450D01*
X142200Y-7250D01*
Y-9500D01*
G54D38*X144000Y-5000D02*Y-5150D01*
G54D37*Y-7250D02*Y-9500D01*
X146250D02*X148500D01*
X149250Y-8750D01*
X148500Y-8000D02*X149250Y-8750D01*
X146250Y-8000D02*X148500D01*
X145500Y-7250D02*X146250Y-8000D01*
X145500Y-7250D02*X146250Y-6500D01*
X148500D01*
X149250Y-7250D01*
X145500Y-8750D02*X146250Y-9500D01*
X154500Y-7250D02*Y-11750D01*
X153750Y-6500D02*X154500Y-7250D01*
X155250Y-6500D01*
X156750D01*
X157500Y-7250D01*
Y-8750D01*
X156750Y-9500D02*X157500Y-8750D01*
X155250Y-9500D02*X156750D01*
X154500Y-8750D02*X155250Y-9500D01*
X161550Y-6500D02*X162300Y-7250D01*
X160050Y-6500D02*X161550D01*
X159300Y-7250D02*X160050Y-6500D01*
X159300Y-7250D02*Y-8750D01*
X160050Y-9500D01*
X162300Y-6500D02*Y-8750D01*
X163050Y-9500D01*
X160050D02*X161550D01*
X162300Y-8750D01*
X165600Y-3500D02*Y-8750D01*
X166350Y-9500D01*
X164850Y-5750D02*X166350D01*
X167850Y-3500D02*Y-9500D01*
Y-7250D02*X168600Y-6500D01*
X170100D01*
X170850Y-7250D01*
Y-9500D01*
X200750Y153500D02*Y147500D01*
X202700Y153500D02*X203750Y152450D01*
Y148550D01*
X202700Y147500D02*X203750Y148550D01*
X200000Y147500D02*X202700D01*
X200000Y153500D02*X202700D01*
X207800Y150500D02*X208550Y149750D01*
X206300Y150500D02*X207800D01*
X205550Y149750D02*X206300Y150500D01*
X205550Y149750D02*Y148250D01*
X206300Y147500D01*
X208550Y150500D02*Y148250D01*
X209300Y147500D01*
X206300D02*X207800D01*
X208550Y148250D01*
X211850Y153500D02*Y148250D01*
X212600Y147500D01*
X211100Y151250D02*X212600D01*
X214850Y147500D02*X217100D01*
X214100Y148250D02*X214850Y147500D01*
X214100Y149750D02*Y148250D01*
Y149750D02*X214850Y150500D01*
X216350D01*
X217100Y149750D01*
X214100Y149000D02*X217100D01*
Y149750D02*Y149000D01*
X218900Y151250D02*X219650D01*
X218900Y149750D02*X219650D01*
X224150Y153500D02*X227150D01*
X225650D02*Y147500D01*
X228950Y153500D02*Y147500D01*
Y149750D02*X229700Y150500D01*
X231200D01*
X231950Y149750D01*
Y147500D01*
X233750Y150500D02*Y148250D01*
X234500Y147500D01*
X236000D01*
X236750Y148250D01*
Y150500D02*Y148250D01*
X241250D02*X242000Y147500D01*
X241250Y152750D02*Y148250D01*
Y152750D02*X242000Y153500D01*
X243500D01*
X244250Y152750D01*
Y148250D01*
X243500Y147500D02*X244250Y148250D01*
X242000Y147500D02*X243500D01*
X241250Y149000D02*X244250Y152000D01*
X246050Y148250D02*X246800Y147500D01*
X246050Y149450D02*Y148250D01*
Y149450D02*X247100Y150500D01*
X248000D01*
X249050Y149450D01*
Y148250D01*
X248300Y147500D02*X249050Y148250D01*
X246800Y147500D02*X248300D01*
X246050Y151550D02*X247100Y150500D01*
X246050Y152750D02*Y151550D01*
Y152750D02*X246800Y153500D01*
X248300D01*
X249050Y152750D01*
Y151550D01*
X248000Y150500D02*X249050Y151550D01*
X253550Y152750D02*Y148250D01*
Y152750D02*X254300Y153500D01*
X255800D01*
X256550Y152750D01*
Y148250D01*
X255800Y147500D02*X256550Y148250D01*
X254300Y147500D02*X255800D01*
X253550Y148250D02*X254300Y147500D01*
X259100Y150500D02*X261350D01*
X258350Y149750D02*X259100Y150500D01*
X258350Y149750D02*Y148250D01*
X259100Y147500D01*
X261350D01*
X263900Y153500D02*Y148250D01*
X264650Y147500D01*
X263150Y151250D02*X264650D01*
X268850Y152750D02*X269600Y153500D01*
X271850D01*
X272600Y152750D01*
Y151250D01*
X268850Y147500D02*X272600Y151250D01*
X268850Y147500D02*X272600D01*
X274400Y148250D02*X275150Y147500D01*
X274400Y152750D02*Y148250D01*
Y152750D02*X275150Y153500D01*
X276650D01*
X277400Y152750D01*
Y148250D01*
X276650Y147500D02*X277400Y148250D01*
X275150Y147500D02*X276650D01*
X274400Y149000D02*X277400Y152000D01*
X279200Y152300D02*X280400Y153500D01*
Y147500D01*
X279200D02*X281450D01*
X283250Y153500D02*X286250D01*
X283250D02*Y150500D01*
X284000Y151250D01*
X285500D01*
X286250Y150500D01*
Y148250D01*
X285500Y147500D02*X286250Y148250D01*
X284000Y147500D02*X285500D01*
X283250Y148250D02*X284000Y147500D01*
X290750Y148250D02*X291500Y147500D01*
X290750Y152750D02*Y148250D01*
Y152750D02*X291500Y153500D01*
X293000D01*
X293750Y152750D01*
Y148250D01*
X293000Y147500D02*X293750Y148250D01*
X291500Y147500D02*X293000D01*
X290750Y149000D02*X293750Y152000D01*
X295550Y152750D02*X296300Y153500D01*
X298550D01*
X299300Y152750D01*
Y151250D01*
X295550Y147500D02*X299300Y151250D01*
X295550Y147500D02*X299300D01*
X301100Y151250D02*X301850D01*
X301100Y149750D02*X301850D01*
X303650D02*X306650Y153500D01*
X303650Y149750D02*X307400D01*
X306650Y153500D02*Y147500D01*
X309950D02*X312200Y150500D01*
Y152750D02*Y150500D01*
X311450Y153500D02*X312200Y152750D01*
X309950Y153500D02*X311450D01*
X309200Y152750D02*X309950Y153500D01*
X309200Y152750D02*Y151250D01*
X309950Y150500D01*
X312200D01*
X314000Y151250D02*X314750D01*
X314000Y149750D02*X314750D01*
X316550Y148250D02*X317300Y147500D01*
X316550Y152750D02*Y148250D01*
Y152750D02*X317300Y153500D01*
X318800D01*
X319550Y152750D01*
Y148250D01*
X318800Y147500D02*X319550Y148250D01*
X317300Y147500D02*X318800D01*
X316550Y149000D02*X319550Y152000D01*
X321350Y153500D02*X324350D01*
X321350D02*Y150500D01*
X322100Y151250D01*
X323600D01*
X324350Y150500D01*
Y148250D01*
X323600Y147500D02*X324350Y148250D01*
X322100Y147500D02*X323600D01*
X321350Y148250D02*X322100Y147500D01*
X328850Y152000D02*Y147500D01*
Y152000D02*X329900Y153500D01*
X331550D01*
X332600Y152000D01*
Y147500D01*
X328850Y150500D02*X332600D01*
X334400Y153500D02*Y147500D01*
Y153500D02*X336650Y150500D01*
X338900Y153500D01*
Y147500D01*
X346400Y153500D02*X347150Y152750D01*
X344150Y153500D02*X346400D01*
X343400Y152750D02*X344150Y153500D01*
X343400Y152750D02*Y148250D01*
X344150Y147500D01*
X346400D01*
X347150Y148250D01*
Y149750D02*Y148250D01*
X346400Y150500D02*X347150Y149750D01*
X344900Y150500D02*X346400D01*
X348950Y153500D02*Y147500D01*
Y153500D02*X351200Y150500D01*
X353450Y153500D01*
Y147500D01*
X355250Y153500D02*X358250D01*
X356750D02*Y147500D01*
X362750Y153500D02*Y148250D01*
X363500Y147500D01*
X365000D01*
X365750Y148250D01*
Y153500D02*Y148250D01*
X367550Y153500D02*X370550D01*
X369050D02*Y147500D01*
X373400D02*X375350D01*
X372350Y148550D02*X373400Y147500D01*
X372350Y152450D02*Y148550D01*
Y152450D02*X373400Y153500D01*
X375350D01*
X200000Y167000D02*Y162500D01*
Y167000D02*X201050Y168500D01*
X202700D01*
X203750Y167000D01*
Y162500D01*
X200000Y165500D02*X203750D01*
X205550D02*Y163250D01*
X206300Y162500D01*
X207800D01*
X208550Y163250D01*
Y165500D02*Y163250D01*
X211100Y168500D02*Y163250D01*
X211850Y162500D01*
X210350Y166250D02*X211850D01*
X213350Y168500D02*Y162500D01*
Y164750D02*X214100Y165500D01*
X215600D01*
X216350Y164750D01*
Y162500D01*
X218150Y164750D02*Y163250D01*
Y164750D02*X218900Y165500D01*
X220400D01*
X221150Y164750D01*
Y163250D01*
X220400Y162500D02*X221150Y163250D01*
X218900Y162500D02*X220400D01*
X218150Y163250D02*X218900Y162500D01*
X223700Y164750D02*Y162500D01*
Y164750D02*X224450Y165500D01*
X225950D01*
X222950D02*X223700Y164750D01*
X227750Y166250D02*X228500D01*
X227750Y164750D02*X228500D01*
X233000Y168500D02*Y162500D01*
Y168500D02*X235250Y165500D01*
X237500Y168500D01*
Y162500D01*
G54D38*X239300Y167000D02*Y166850D01*
G54D37*Y164750D02*Y162500D01*
X241550Y165500D02*X243800D01*
X240800Y164750D02*X241550Y165500D01*
X240800Y164750D02*Y163250D01*
X241550Y162500D01*
X243800D01*
X245600Y168500D02*Y162500D01*
Y164750D02*X246350Y165500D01*
X247850D01*
X248600Y164750D01*
Y162500D01*
X252650Y165500D02*X253400Y164750D01*
X251150Y165500D02*X252650D01*
X250400Y164750D02*X251150Y165500D01*
X250400Y164750D02*Y163250D01*
X251150Y162500D01*
X253400Y165500D02*Y163250D01*
X254150Y162500D01*
X251150D02*X252650D01*
X253400Y163250D01*
X256700Y162500D02*X258950D01*
X255950Y163250D02*X256700Y162500D01*
X255950Y164750D02*Y163250D01*
Y164750D02*X256700Y165500D01*
X258200D01*
X258950Y164750D01*
X255950Y164000D02*X258950D01*
Y164750D02*Y164000D01*
X260750Y168500D02*Y163250D01*
X261500Y162500D01*
X266450Y168500D02*Y162500D01*
X265700Y168500D02*X268700D01*
X269450Y167750D01*
Y166250D01*
X268700Y165500D02*X269450Y166250D01*
X266450Y165500D02*X268700D01*
X272000Y162500D02*X274250D01*
X271250Y163250D02*X272000Y162500D01*
X271250Y164750D02*Y163250D01*
Y164750D02*X272000Y165500D01*
X273500D01*
X274250Y164750D01*
X271250Y164000D02*X274250D01*
Y164750D02*Y164000D01*
X276800Y168500D02*Y163250D01*
X277550Y162500D01*
X276050Y166250D02*X277550D01*
X279800Y162500D02*X282050D01*
X279050Y163250D02*X279800Y162500D01*
X279050Y164750D02*Y163250D01*
Y164750D02*X279800Y165500D01*
X281300D01*
X282050Y164750D01*
X279050Y164000D02*X282050D01*
Y164750D02*Y164000D01*
X284600Y164750D02*Y162500D01*
Y164750D02*X285350Y165500D01*
X286850D01*
X283850D02*X284600Y164750D01*
X289400Y162500D02*X291650D01*
X292400Y163250D01*
X291650Y164000D02*X292400Y163250D01*
X289400Y164000D02*X291650D01*
X288650Y164750D02*X289400Y164000D01*
X288650Y164750D02*X289400Y165500D01*
X291650D01*
X292400Y164750D01*
X288650Y163250D02*X289400Y162500D01*
X294950D02*X297200D01*
X294200Y163250D02*X294950Y162500D01*
X294200Y164750D02*Y163250D01*
Y164750D02*X294950Y165500D01*
X296450D01*
X297200Y164750D01*
X294200Y164000D02*X297200D01*
Y164750D02*Y164000D01*
X299750Y164750D02*Y162500D01*
Y164750D02*X300500Y165500D01*
X301250D01*
X302000Y164750D01*
Y162500D01*
X299000Y165500D02*X299750Y164750D01*
X200000Y183500D02*X203000D01*
X201500D02*Y177500D01*
G54D38*X204800Y182000D02*Y181850D01*
G54D37*Y179750D02*Y177500D01*
X207050Y183500D02*Y178250D01*
X207800Y177500D01*
X206300Y181250D02*X207800D01*
X209300Y183500D02*Y178250D01*
X210050Y177500D01*
X212300D02*X214550D01*
X211550Y178250D02*X212300Y177500D01*
X211550Y179750D02*Y178250D01*
Y179750D02*X212300Y180500D01*
X213800D01*
X214550Y179750D01*
X211550Y179000D02*X214550D01*
Y179750D02*Y179000D01*
X216350Y181250D02*X217100D01*
X216350Y179750D02*X217100D01*
X221600Y178250D02*X222350Y177500D01*
X221600Y182750D02*X222350Y183500D01*
X221600Y182750D02*Y178250D01*
X224150Y180500D02*Y178250D01*
X224900Y177500D01*
X226400D01*
X227150Y178250D01*
Y180500D02*Y178250D01*
X229700Y179750D02*Y177500D01*
Y179750D02*X230450Y180500D01*
X231200D01*
X231950Y179750D01*
Y177500D01*
X228950Y180500D02*X229700Y179750D01*
X233750Y183500D02*Y177500D01*
Y179750D02*X236000Y177500D01*
X233750Y179750D02*X235250Y181250D01*
X238550Y179750D02*Y177500D01*
Y179750D02*X239300Y180500D01*
X240050D01*
X240800Y179750D01*
Y177500D01*
X237800Y180500D02*X238550Y179750D01*
X242600D02*Y178250D01*
Y179750D02*X243350Y180500D01*
X244850D01*
X245600Y179750D01*
Y178250D01*
X244850Y177500D02*X245600Y178250D01*
X243350Y177500D02*X244850D01*
X242600Y178250D02*X243350Y177500D01*
X247400Y180500D02*Y178250D01*
X248150Y177500D01*
X248900D01*
X249650Y178250D01*
Y180500D02*Y178250D01*
X250400Y177500D01*
X251150D01*
X251900Y178250D01*
Y180500D02*Y178250D01*
X254450Y179750D02*Y177500D01*
Y179750D02*X255200Y180500D01*
X255950D01*
X256700Y179750D01*
Y177500D01*
X253700Y180500D02*X254450Y179750D01*
X258500Y183500D02*X259250Y182750D01*
Y178250D01*
X258500Y177500D02*X259250Y178250D01*
X263750Y180500D02*X266750D01*
X271250Y183500D02*Y177500D01*
Y183500D02*X274250D01*
X271250Y180800D02*X273500D01*
X278300Y180500D02*X279050Y179750D01*
X276800Y180500D02*X278300D01*
X276050Y179750D02*X276800Y180500D01*
X276050Y179750D02*Y178250D01*
X276800Y177500D01*
X279050Y180500D02*Y178250D01*
X279800Y177500D01*
X276800D02*X278300D01*
X279050Y178250D01*
X281600Y183500D02*Y177500D01*
Y178250D02*X282350Y177500D01*
X283850D01*
X284600Y178250D01*
Y179750D02*Y178250D01*
X283850Y180500D02*X284600Y179750D01*
X282350Y180500D02*X283850D01*
X281600Y179750D02*X282350Y180500D01*
X287150Y179750D02*Y177500D01*
Y179750D02*X287900Y180500D01*
X289400D01*
X286400D02*X287150Y179750D01*
G54D38*X291200Y182000D02*Y181850D01*
G54D37*Y179750D02*Y177500D01*
X293450Y180500D02*X295700D01*
X292700Y179750D02*X293450Y180500D01*
X292700Y179750D02*Y178250D01*
X293450Y177500D01*
X295700D01*
X299750Y180500D02*X300500Y179750D01*
X298250Y180500D02*X299750D01*
X297500Y179750D02*X298250Y180500D01*
X297500Y179750D02*Y178250D01*
X298250Y177500D01*
X300500Y180500D02*Y178250D01*
X301250Y177500D01*
X298250D02*X299750D01*
X300500Y178250D01*
X303800Y183500D02*Y178250D01*
X304550Y177500D01*
X303050Y181250D02*X304550D01*
G54D38*X306050Y182000D02*Y181850D01*
G54D37*Y179750D02*Y177500D01*
X307550Y179750D02*Y178250D01*
Y179750D02*X308300Y180500D01*
X309800D01*
X310550Y179750D01*
Y178250D01*
X309800Y177500D02*X310550Y178250D01*
X308300Y177500D02*X309800D01*
X307550Y178250D02*X308300Y177500D01*
X313100Y179750D02*Y177500D01*
Y179750D02*X313850Y180500D01*
X314600D01*
X315350Y179750D01*
Y177500D01*
X312350Y180500D02*X313100Y179750D01*
X320600Y183500D02*Y177500D01*
X322550Y183500D02*X323600Y182450D01*
Y178550D01*
X322550Y177500D02*X323600Y178550D01*
X319850Y177500D02*X322550D01*
X319850Y183500D02*X322550D01*
X326150Y179750D02*Y177500D01*
Y179750D02*X326900Y180500D01*
X328400D01*
X325400D02*X326150Y179750D01*
X332450Y180500D02*X333200Y179750D01*
X330950Y180500D02*X332450D01*
X330200Y179750D02*X330950Y180500D01*
X330200Y179750D02*Y178250D01*
X330950Y177500D01*
X333200Y180500D02*Y178250D01*
X333950Y177500D01*
X330950D02*X332450D01*
X333200Y178250D01*
X335750Y180500D02*Y178250D01*
X336500Y177500D01*
X337250D01*
X338000Y178250D01*
Y180500D02*Y178250D01*
X338750Y177500D01*
X339500D01*
X340250Y178250D01*
Y180500D02*Y178250D01*
G54D38*X342050Y182000D02*Y181850D01*
G54D37*Y179750D02*Y177500D01*
X344300Y179750D02*Y177500D01*
Y179750D02*X345050Y180500D01*
X345800D01*
X346550Y179750D01*
Y177500D01*
X343550Y180500D02*X344300Y179750D01*
X350600Y180500D02*X351350Y179750D01*
X349100Y180500D02*X350600D01*
X348350Y179750D02*X349100Y180500D01*
X348350Y179750D02*Y178250D01*
X349100Y177500D01*
X350600D01*
X351350Y178250D01*
X348350Y176000D02*X349100Y175250D01*
X350600D01*
X351350Y176000D01*
Y180500D02*Y176000D01*
M02*
