G04 start of page 8 for group -4062 idx -4062 *
G04 Title: (unknown), soldermask *
G04 Creator: pcb 4.0.2 *
G04 CreationDate: Wed Oct 14 23:14:01 2020 UTC *
G04 For: ndholmes *
G04 Format: Gerber/RS-274X *
G04 PCB-Dimensions (mil): 610.00 2710.00 *
G04 PCB-Coordinate-Origin: lower left *
%MOIN*%
%FSLAX25Y25*%
%LNBOTTOMMASK*%
%ADD30C,0.0460*%
%ADD29C,0.0001*%
G54D29*G36*
X9900Y130300D02*Y125700D01*
X14500D01*
Y130300D01*
X9900D01*
G37*
G36*
Y90300D02*Y85700D01*
X14500D01*
Y90300D01*
X9900D01*
G37*
G54D30*X12200Y93000D03*
Y98000D03*
Y103000D03*
Y133000D03*
Y138000D03*
Y143000D03*
G54D29*G36*
X9900Y50300D02*Y45700D01*
X14500D01*
Y50300D01*
X9900D01*
G37*
G54D30*X12200Y53000D03*
G54D29*G36*
X9900Y10300D02*Y5700D01*
X14500D01*
Y10300D01*
X9900D01*
G37*
G54D30*X12200Y13000D03*
Y18000D03*
Y23000D03*
Y58000D03*
Y63000D03*
G54D29*G36*
X9900Y170300D02*Y165700D01*
X14500D01*
Y170300D01*
X9900D01*
G37*
G54D30*X12200Y173000D03*
Y178000D03*
G54D29*G36*
X9900Y250300D02*Y245700D01*
X14500D01*
Y250300D01*
X9900D01*
G37*
G54D30*X12200Y253000D03*
Y258000D03*
Y263000D03*
Y183000D03*
G54D29*G36*
X9900Y210300D02*Y205700D01*
X14500D01*
Y210300D01*
X9900D01*
G37*
G54D30*X12200Y213000D03*
Y218000D03*
Y223000D03*
M02*
