G04 start of page 11 for group -4015 idx -4015 *
G04 Title: (unknown), toppaste *
G04 Creator: pcb 4.0.2 *
G04 CreationDate: Wed Oct 14 23:14:01 2020 UTC *
G04 For: ndholmes *
G04 Format: Gerber/RS-274X *
G04 PCB-Dimensions (mil): 610.00 2710.00 *
G04 PCB-Coordinate-Origin: lower left *
%MOIN*%
%FSLAX25Y25*%
%LNTOPPASTE*%
%ADD35C,0.0001*%
G54D35*G36*
X24516Y249452D02*X19398D01*
Y243548D01*
X24516D01*
Y249452D01*
G37*
G36*
X31602D02*X26484D01*
Y243548D01*
X31602D01*
Y249452D01*
G37*
G36*
X24516Y258452D02*X19398D01*
Y252548D01*
X24516D01*
Y258452D01*
G37*
G36*
X31602D02*X26484D01*
Y252548D01*
X31602D01*
Y258452D01*
G37*
G36*
X24516Y267452D02*X19398D01*
Y261548D01*
X24516D01*
Y267452D01*
G37*
G36*
X31602D02*X26484D01*
Y261548D01*
X31602D01*
Y267452D01*
G37*
G36*
X37449Y250775D02*Y248413D01*
X43551D01*
Y250775D01*
X37449D01*
G37*
G36*
Y254712D02*Y252350D01*
X43551D01*
Y254712D01*
X37449D01*
G37*
G36*
Y258650D02*Y256288D01*
X43551D01*
Y258650D01*
X37449D01*
G37*
G36*
Y262587D02*Y260225D01*
X43551D01*
Y262587D01*
X37449D01*
G37*
G36*
X52213Y246838D02*Y242114D01*
X59299D01*
Y246838D01*
X52213D01*
G37*
G36*
Y268886D02*Y264162D01*
X59299D01*
Y268886D01*
X52213D01*
G37*
G36*
X24516Y169452D02*X19398D01*
Y163548D01*
X24516D01*
Y169452D01*
G37*
G36*
X31602D02*X26484D01*
Y163548D01*
X31602D01*
Y169452D01*
G37*
G36*
X24516Y178452D02*X19398D01*
Y172548D01*
X24516D01*
Y178452D01*
G37*
G36*
X31602D02*X26484D01*
Y172548D01*
X31602D01*
Y178452D01*
G37*
G36*
X24516Y187452D02*X19398D01*
Y181548D01*
X24516D01*
Y187452D01*
G37*
G36*
X31602D02*X26484D01*
Y181548D01*
X31602D01*
Y187452D01*
G37*
G36*
X37449Y170775D02*Y168413D01*
X43551D01*
Y170775D01*
X37449D01*
G37*
G36*
Y174712D02*Y172350D01*
X43551D01*
Y174712D01*
X37449D01*
G37*
G36*
Y178650D02*Y176288D01*
X43551D01*
Y178650D01*
X37449D01*
G37*
G36*
Y182587D02*Y180225D01*
X43551D01*
Y182587D01*
X37449D01*
G37*
G36*
X52213Y166838D02*Y162114D01*
X59299D01*
Y166838D01*
X52213D01*
G37*
G36*
Y188886D02*Y184162D01*
X59299D01*
Y188886D01*
X52213D01*
G37*
G36*
X24516Y129452D02*X19398D01*
Y123548D01*
X24516D01*
Y129452D01*
G37*
G36*
X31602D02*X26484D01*
Y123548D01*
X31602D01*
Y129452D01*
G37*
G36*
X24516Y138452D02*X19398D01*
Y132548D01*
X24516D01*
Y138452D01*
G37*
G36*
X31602D02*X26484D01*
Y132548D01*
X31602D01*
Y138452D01*
G37*
G36*
X24516Y147452D02*X19398D01*
Y141548D01*
X24516D01*
Y147452D01*
G37*
G36*
X31602D02*X26484D01*
Y141548D01*
X31602D01*
Y147452D01*
G37*
G36*
X37449Y130775D02*Y128413D01*
X43551D01*
Y130775D01*
X37449D01*
G37*
G36*
Y134712D02*Y132350D01*
X43551D01*
Y134712D01*
X37449D01*
G37*
G36*
Y138650D02*Y136288D01*
X43551D01*
Y138650D01*
X37449D01*
G37*
G36*
Y142587D02*Y140225D01*
X43551D01*
Y142587D01*
X37449D01*
G37*
G36*
X52213Y126838D02*Y122114D01*
X59299D01*
Y126838D01*
X52213D01*
G37*
G36*
Y148886D02*Y144162D01*
X59299D01*
Y148886D01*
X52213D01*
G37*
G36*
X24516Y89452D02*X19398D01*
Y83548D01*
X24516D01*
Y89452D01*
G37*
G36*
X31602D02*X26484D01*
Y83548D01*
X31602D01*
Y89452D01*
G37*
G36*
X24516Y98452D02*X19398D01*
Y92548D01*
X24516D01*
Y98452D01*
G37*
G36*
X31602D02*X26484D01*
Y92548D01*
X31602D01*
Y98452D01*
G37*
G36*
X24516Y107452D02*X19398D01*
Y101548D01*
X24516D01*
Y107452D01*
G37*
G36*
X31602D02*X26484D01*
Y101548D01*
X31602D01*
Y107452D01*
G37*
G36*
X37449Y90775D02*Y88413D01*
X43551D01*
Y90775D01*
X37449D01*
G37*
G36*
Y94712D02*Y92350D01*
X43551D01*
Y94712D01*
X37449D01*
G37*
G36*
Y98650D02*Y96288D01*
X43551D01*
Y98650D01*
X37449D01*
G37*
G36*
Y102587D02*Y100225D01*
X43551D01*
Y102587D01*
X37449D01*
G37*
G36*
X52213Y86838D02*Y82114D01*
X59299D01*
Y86838D01*
X52213D01*
G37*
G36*
Y108886D02*Y104162D01*
X59299D01*
Y108886D01*
X52213D01*
G37*
G36*
X24516Y49452D02*X19398D01*
Y43548D01*
X24516D01*
Y49452D01*
G37*
G36*
X31602D02*X26484D01*
Y43548D01*
X31602D01*
Y49452D01*
G37*
G36*
X24516Y58452D02*X19398D01*
Y52548D01*
X24516D01*
Y58452D01*
G37*
G36*
X31602D02*X26484D01*
Y52548D01*
X31602D01*
Y58452D01*
G37*
G36*
X24516Y67452D02*X19398D01*
Y61548D01*
X24516D01*
Y67452D01*
G37*
G36*
X31602D02*X26484D01*
Y61548D01*
X31602D01*
Y67452D01*
G37*
G36*
X37449Y50775D02*Y48413D01*
X43551D01*
Y50775D01*
X37449D01*
G37*
G36*
Y54712D02*Y52350D01*
X43551D01*
Y54712D01*
X37449D01*
G37*
G36*
Y58650D02*Y56288D01*
X43551D01*
Y58650D01*
X37449D01*
G37*
G36*
Y62587D02*Y60225D01*
X43551D01*
Y62587D01*
X37449D01*
G37*
G36*
X52213Y46838D02*Y42114D01*
X59299D01*
Y46838D01*
X52213D01*
G37*
G36*
Y68886D02*Y64162D01*
X59299D01*
Y68886D01*
X52213D01*
G37*
G36*
X24516Y9452D02*X19398D01*
Y3548D01*
X24516D01*
Y9452D01*
G37*
G36*
X31602D02*X26484D01*
Y3548D01*
X31602D01*
Y9452D01*
G37*
G36*
X24516Y18452D02*X19398D01*
Y12548D01*
X24516D01*
Y18452D01*
G37*
G36*
X31602D02*X26484D01*
Y12548D01*
X31602D01*
Y18452D01*
G37*
G36*
X24516Y27452D02*X19398D01*
Y21548D01*
X24516D01*
Y27452D01*
G37*
G36*
X31602D02*X26484D01*
Y21548D01*
X31602D01*
Y27452D01*
G37*
G36*
X37449Y10775D02*Y8413D01*
X43551D01*
Y10775D01*
X37449D01*
G37*
G36*
Y14712D02*Y12350D01*
X43551D01*
Y14712D01*
X37449D01*
G37*
G36*
Y18650D02*Y16288D01*
X43551D01*
Y18650D01*
X37449D01*
G37*
G36*
Y22587D02*Y20225D01*
X43551D01*
Y22587D01*
X37449D01*
G37*
G36*
X52213Y6838D02*Y2114D01*
X59299D01*
Y6838D01*
X52213D01*
G37*
G36*
Y28886D02*Y24162D01*
X59299D01*
Y28886D01*
X52213D01*
G37*
G36*
X24516Y209452D02*X19398D01*
Y203548D01*
X24516D01*
Y209452D01*
G37*
G36*
X31602D02*X26484D01*
Y203548D01*
X31602D01*
Y209452D01*
G37*
G36*
X24516Y218452D02*X19398D01*
Y212548D01*
X24516D01*
Y218452D01*
G37*
G36*
X31602D02*X26484D01*
Y212548D01*
X31602D01*
Y218452D01*
G37*
G36*
X24516Y227452D02*X19398D01*
Y221548D01*
X24516D01*
Y227452D01*
G37*
G36*
X31602D02*X26484D01*
Y221548D01*
X31602D01*
Y227452D01*
G37*
G36*
X37449Y210775D02*Y208413D01*
X43551D01*
Y210775D01*
X37449D01*
G37*
G36*
Y214712D02*Y212350D01*
X43551D01*
Y214712D01*
X37449D01*
G37*
G36*
Y218650D02*Y216288D01*
X43551D01*
Y218650D01*
X37449D01*
G37*
G36*
Y222587D02*Y220225D01*
X43551D01*
Y222587D01*
X37449D01*
G37*
G36*
X52213Y206838D02*Y202114D01*
X59299D01*
Y206838D01*
X52213D01*
G37*
G36*
Y228886D02*Y224162D01*
X59299D01*
Y228886D01*
X52213D01*
G37*
M02*
