G04 start of page 7 for group -4063 idx -4063 *
G04 Title: (unknown), componentmask *
G04 Creator: pcb 4.0.2 *
G04 CreationDate: Wed Oct 14 23:14:01 2020 UTC *
G04 For: ndholmes *
G04 Format: Gerber/RS-274X *
G04 PCB-Dimensions (mil): 610.00 2710.00 *
G04 PCB-Coordinate-Origin: lower left *
%MOIN*%
%FSLAX25Y25*%
%LNTOPMASK*%
%ADD28C,0.0460*%
%ADD27C,0.0001*%
G54D27*G36*
X9900Y130300D02*Y125700D01*
X14500D01*
Y130300D01*
X9900D01*
G37*
G36*
Y90300D02*Y85700D01*
X14500D01*
Y90300D01*
X9900D01*
G37*
G54D28*X12200Y93000D03*
Y98000D03*
Y103000D03*
Y133000D03*
Y138000D03*
Y143000D03*
G54D27*G36*
X9900Y50300D02*Y45700D01*
X14500D01*
Y50300D01*
X9900D01*
G37*
G54D28*X12200Y53000D03*
G54D27*G36*
X9900Y10300D02*Y5700D01*
X14500D01*
Y10300D01*
X9900D01*
G37*
G54D28*X12200Y13000D03*
Y18000D03*
Y23000D03*
Y58000D03*
Y63000D03*
G54D27*G36*
X9900Y170300D02*Y165700D01*
X14500D01*
Y170300D01*
X9900D01*
G37*
G54D28*X12200Y173000D03*
Y178000D03*
G54D27*G36*
X9900Y250300D02*Y245700D01*
X14500D01*
Y250300D01*
X9900D01*
G37*
G54D28*X12200Y253000D03*
Y258000D03*
Y263000D03*
Y183000D03*
G54D27*G36*
X9900Y210300D02*Y205700D01*
X14500D01*
Y210300D01*
X9900D01*
G37*
G54D28*X12200Y213000D03*
Y218000D03*
Y223000D03*
G54D27*G36*
X24816Y169752D02*X19098D01*
Y163248D01*
X24816D01*
Y169752D01*
G37*
G36*
X31902D02*X26184D01*
Y163248D01*
X31902D01*
Y169752D01*
G37*
G36*
X24816Y178752D02*X19098D01*
Y172248D01*
X24816D01*
Y178752D01*
G37*
G36*
X31902D02*X26184D01*
Y172248D01*
X31902D01*
Y178752D01*
G37*
G36*
X24816Y187752D02*X19098D01*
Y181248D01*
X24816D01*
Y187752D01*
G37*
G36*
X31902D02*X26184D01*
Y181248D01*
X31902D01*
Y187752D01*
G37*
G36*
X37149Y171075D02*Y168113D01*
X43851D01*
Y171075D01*
X37149D01*
G37*
G36*
Y175012D02*Y172050D01*
X43851D01*
Y175012D01*
X37149D01*
G37*
G36*
Y178950D02*Y175988D01*
X43851D01*
Y178950D01*
X37149D01*
G37*
G36*
Y182887D02*Y179925D01*
X43851D01*
Y182887D01*
X37149D01*
G37*
G36*
X31902Y258752D02*X26184D01*
Y252248D01*
X31902D01*
Y258752D01*
G37*
G36*
X24816Y267752D02*X19098D01*
Y261248D01*
X24816D01*
Y267752D01*
G37*
G36*
X31902D02*X26184D01*
Y261248D01*
X31902D01*
Y267752D01*
G37*
G36*
X24816Y249752D02*X19098D01*
Y243248D01*
X24816D01*
Y249752D01*
G37*
G36*
X31902D02*X26184D01*
Y243248D01*
X31902D01*
Y249752D01*
G37*
G36*
X24816Y258752D02*X19098D01*
Y252248D01*
X24816D01*
Y258752D01*
G37*
G36*
X37149Y251075D02*Y248113D01*
X43851D01*
Y251075D01*
X37149D01*
G37*
G36*
Y255012D02*Y252050D01*
X43851D01*
Y255012D01*
X37149D01*
G37*
G36*
Y258950D02*Y255988D01*
X43851D01*
Y258950D01*
X37149D01*
G37*
G36*
Y262887D02*Y259925D01*
X43851D01*
Y262887D01*
X37149D01*
G37*
G36*
X51913Y247138D02*Y241814D01*
X59599D01*
Y247138D01*
X51913D01*
G37*
G36*
Y269186D02*Y263862D01*
X59599D01*
Y269186D01*
X51913D01*
G37*
G36*
Y167138D02*Y161814D01*
X59599D01*
Y167138D01*
X51913D01*
G37*
G36*
X24816Y129752D02*X19098D01*
Y123248D01*
X24816D01*
Y129752D01*
G37*
G36*
X31902D02*X26184D01*
Y123248D01*
X31902D01*
Y129752D01*
G37*
G36*
X24816Y138752D02*X19098D01*
Y132248D01*
X24816D01*
Y138752D01*
G37*
G36*
X31902D02*X26184D01*
Y132248D01*
X31902D01*
Y138752D01*
G37*
G36*
X24816Y147752D02*X19098D01*
Y141248D01*
X24816D01*
Y147752D01*
G37*
G36*
X31902D02*X26184D01*
Y141248D01*
X31902D01*
Y147752D01*
G37*
G36*
X37149Y131075D02*Y128113D01*
X43851D01*
Y131075D01*
X37149D01*
G37*
G36*
Y135012D02*Y132050D01*
X43851D01*
Y135012D01*
X37149D01*
G37*
G36*
Y138950D02*Y135988D01*
X43851D01*
Y138950D01*
X37149D01*
G37*
G36*
Y142887D02*Y139925D01*
X43851D01*
Y142887D01*
X37149D01*
G37*
G36*
X51913Y149186D02*Y143862D01*
X59599D01*
Y149186D01*
X51913D01*
G37*
G36*
Y189186D02*Y183862D01*
X59599D01*
Y189186D01*
X51913D01*
G37*
G36*
X24816Y209752D02*X19098D01*
Y203248D01*
X24816D01*
Y209752D01*
G37*
G36*
Y218752D02*X19098D01*
Y212248D01*
X24816D01*
Y218752D01*
G37*
G36*
Y227752D02*X19098D01*
Y221248D01*
X24816D01*
Y227752D01*
G37*
G36*
X31902Y209752D02*X26184D01*
Y203248D01*
X31902D01*
Y209752D01*
G37*
G36*
Y218752D02*X26184D01*
Y212248D01*
X31902D01*
Y218752D01*
G37*
G36*
Y227752D02*X26184D01*
Y221248D01*
X31902D01*
Y227752D01*
G37*
G36*
X37149Y211075D02*Y208113D01*
X43851D01*
Y211075D01*
X37149D01*
G37*
G36*
Y215012D02*Y212050D01*
X43851D01*
Y215012D01*
X37149D01*
G37*
G36*
Y218950D02*Y215988D01*
X43851D01*
Y218950D01*
X37149D01*
G37*
G36*
Y222887D02*Y219925D01*
X43851D01*
Y222887D01*
X37149D01*
G37*
G36*
X51913Y207138D02*Y201814D01*
X59599D01*
Y207138D01*
X51913D01*
G37*
G36*
Y229186D02*Y223862D01*
X59599D01*
Y229186D01*
X51913D01*
G37*
G36*
Y127138D02*Y121814D01*
X59599D01*
Y127138D01*
X51913D01*
G37*
G36*
Y109186D02*Y103862D01*
X59599D01*
Y109186D01*
X51913D01*
G37*
G36*
X37149Y91075D02*Y88113D01*
X43851D01*
Y91075D01*
X37149D01*
G37*
G36*
X51913Y87138D02*Y81814D01*
X59599D01*
Y87138D01*
X51913D01*
G37*
G36*
X37149Y95012D02*Y92050D01*
X43851D01*
Y95012D01*
X37149D01*
G37*
G36*
Y98950D02*Y95988D01*
X43851D01*
Y98950D01*
X37149D01*
G37*
G36*
Y102887D02*Y99925D01*
X43851D01*
Y102887D01*
X37149D01*
G37*
G36*
X51913Y47138D02*Y41814D01*
X59599D01*
Y47138D01*
X51913D01*
G37*
G36*
Y29186D02*Y23862D01*
X59599D01*
Y29186D01*
X51913D01*
G37*
G36*
Y69186D02*Y63862D01*
X59599D01*
Y69186D01*
X51913D01*
G37*
G36*
Y7138D02*Y1814D01*
X59599D01*
Y7138D01*
X51913D01*
G37*
G36*
X24816Y89752D02*X19098D01*
Y83248D01*
X24816D01*
Y89752D01*
G37*
G36*
X31902D02*X26184D01*
Y83248D01*
X31902D01*
Y89752D01*
G37*
G36*
X24816Y98752D02*X19098D01*
Y92248D01*
X24816D01*
Y98752D01*
G37*
G36*
X31902D02*X26184D01*
Y92248D01*
X31902D01*
Y98752D01*
G37*
G36*
X24816Y107752D02*X19098D01*
Y101248D01*
X24816D01*
Y107752D01*
G37*
G36*
Y49752D02*X19098D01*
Y43248D01*
X24816D01*
Y49752D01*
G37*
G36*
Y58752D02*X19098D01*
Y52248D01*
X24816D01*
Y58752D01*
G37*
G36*
Y67752D02*X19098D01*
Y61248D01*
X24816D01*
Y67752D01*
G37*
G36*
X31902Y107752D02*X26184D01*
Y101248D01*
X31902D01*
Y107752D01*
G37*
G36*
Y49752D02*X26184D01*
Y43248D01*
X31902D01*
Y49752D01*
G37*
G36*
Y58752D02*X26184D01*
Y52248D01*
X31902D01*
Y58752D01*
G37*
G36*
Y67752D02*X26184D01*
Y61248D01*
X31902D01*
Y67752D01*
G37*
G36*
X37149Y51075D02*Y48113D01*
X43851D01*
Y51075D01*
X37149D01*
G37*
G36*
Y55012D02*Y52050D01*
X43851D01*
Y55012D01*
X37149D01*
G37*
G36*
Y58950D02*Y55988D01*
X43851D01*
Y58950D01*
X37149D01*
G37*
G36*
Y62887D02*Y59925D01*
X43851D01*
Y62887D01*
X37149D01*
G37*
G36*
X24816Y9752D02*X19098D01*
Y3248D01*
X24816D01*
Y9752D01*
G37*
G36*
Y18752D02*X19098D01*
Y12248D01*
X24816D01*
Y18752D01*
G37*
G36*
Y27752D02*X19098D01*
Y21248D01*
X24816D01*
Y27752D01*
G37*
G36*
X31902Y9752D02*X26184D01*
Y3248D01*
X31902D01*
Y9752D01*
G37*
G36*
Y18752D02*X26184D01*
Y12248D01*
X31902D01*
Y18752D01*
G37*
G36*
Y27752D02*X26184D01*
Y21248D01*
X31902D01*
Y27752D01*
G37*
G36*
X37149Y11075D02*Y8113D01*
X43851D01*
Y11075D01*
X37149D01*
G37*
G36*
Y15012D02*Y12050D01*
X43851D01*
Y15012D01*
X37149D01*
G37*
G36*
Y18950D02*Y15988D01*
X43851D01*
Y18950D01*
X37149D01*
G37*
G36*
Y22887D02*Y19925D01*
X43851D01*
Y22887D01*
X37149D01*
G37*
M02*
