G04 start of page 10 for group -4078 idx -4078 *
G04 Title: (unknown), bottomsilk *
G04 Creator: pcb 4.0.2 *
G04 CreationDate: Wed Oct 14 23:14:01 2020 UTC *
G04 For: ndholmes *
G04 Format: Gerber/RS-274X *
G04 PCB-Dimensions (mil): 610.00 2710.00 *
G04 PCB-Coordinate-Origin: lower left *
%MOIN*%
%FSLAX25Y25*%
%LNBOTTOMSILK*%
%ADD34C,0.0080*%
%ADD33C,0.0100*%
G54D33*X1000Y150000D02*X60000D01*
Y121000D01*
Y110000D02*Y81000D01*
Y70000D02*Y41000D01*
Y30000D02*Y1000D01*
Y121000D02*X1000D01*
Y110000D02*X60000D01*
X1000Y121000D02*Y150000D01*
X60000Y81000D02*X1000D01*
Y110000D01*
Y70000D02*X60000D01*
Y41000D02*X1000D01*
Y70000D01*
Y30000D02*X60000D01*
Y1000D02*X1000D01*
Y30000D01*
Y190000D02*X60000D01*
Y161000D01*
X1000D01*
Y190000D01*
Y270000D02*X60000D01*
Y241000D01*
X1000D01*
Y270000D01*
Y230000D02*X60000D01*
Y201000D01*
X1000D01*
Y230000D01*
G54D34*X23200Y253500D02*X24500D01*
X22500Y252800D02*X23200Y253500D01*
X22500Y250200D02*Y252800D01*
Y250200D02*X23200Y249500D01*
X24500D01*
X25700D02*Y253500D01*
Y251500D02*X27700Y249500D01*
X25700Y251500D02*X27700Y253500D01*
X28900Y249500D02*X30900D01*
X29900D02*Y253500D01*
X32100Y251500D02*X34100D01*
X37300Y249500D02*X37800Y250000D01*
X35800Y249500D02*X37300D01*
X35300Y250000D02*X35800Y249500D01*
X35300Y250000D02*Y251000D01*
X35800Y251500D01*
X37300D01*
X37800Y252000D01*
Y253000D01*
X37300Y253500D02*X37800Y253000D01*
X35800Y253500D02*X37300D01*
X35300Y253000D02*X35800Y253500D01*
X39000Y249500D02*X40000D01*
X39500D02*Y253500D01*
X39000D02*X40000D01*
X43200Y249500D02*X43700Y250000D01*
X41700Y249500D02*X43200D01*
X41200Y250000D02*X41700Y249500D01*
X41200Y250000D02*Y253000D01*
X41700Y253500D01*
X43200D01*
X43700Y253000D01*
Y252000D02*Y253000D01*
X43200Y251500D02*X43700Y252000D01*
X42200Y251500D02*X43200D01*
X45600Y253500D02*X46900D01*
X44900Y252800D02*X45600Y253500D01*
X44900Y250200D02*Y252800D01*
Y250200D02*X45600Y249500D01*
X46900D01*
X48100Y250000D02*Y253000D01*
Y250000D02*X48600Y249500D01*
X49600D01*
X50100Y250000D01*
Y253000D01*
X49600Y253500D02*X50100Y253000D01*
X48600Y253500D02*X49600D01*
X48100Y253000D02*X48600Y253500D01*
X51300Y249500D02*Y253500D01*
Y249500D02*X53800Y253500D01*
Y249500D02*Y253500D01*
X34000Y257000D02*X35000Y259000D01*
X36000Y257000D02*X35000Y259000D01*
X37200Y255800D02*X38000Y255000D01*
Y259000D01*
X37200D02*X38700D01*
X39900D02*X40400D01*
X41600Y258500D02*X42100Y259000D01*
X41600Y255500D02*Y258500D01*
Y255500D02*X42100Y255000D01*
X43100D01*
X43600Y255500D01*
Y258500D01*
X43100Y259000D02*X43600Y258500D01*
X42100Y259000D02*X43100D01*
X41600Y258000D02*X43600Y256000D01*
X23200Y173500D02*X24500D01*
X22500Y172800D02*X23200Y173500D01*
X22500Y170200D02*Y172800D01*
Y170200D02*X23200Y169500D01*
X24500D01*
X25700D02*Y173500D01*
Y171500D02*X27700Y169500D01*
X25700Y171500D02*X27700Y173500D01*
X28900Y169500D02*X30900D01*
X29900D02*Y173500D01*
X32100Y171500D02*X34100D01*
X37300Y169500D02*X37800Y170000D01*
X35800Y169500D02*X37300D01*
X35300Y170000D02*X35800Y169500D01*
X35300Y170000D02*Y171000D01*
X35800Y171500D01*
X37300D01*
X37800Y172000D01*
Y173000D01*
X37300Y173500D02*X37800Y173000D01*
X35800Y173500D02*X37300D01*
X35300Y173000D02*X35800Y173500D01*
X39000Y169500D02*X40000D01*
X39500D02*Y173500D01*
X39000D02*X40000D01*
X43200Y169500D02*X43700Y170000D01*
X41700Y169500D02*X43200D01*
X41200Y170000D02*X41700Y169500D01*
X41200Y170000D02*Y173000D01*
X41700Y173500D01*
X43200D01*
X43700Y173000D01*
Y172000D02*Y173000D01*
X43200Y171500D02*X43700Y172000D01*
X42200Y171500D02*X43200D01*
X45600Y173500D02*X46900D01*
X44900Y172800D02*X45600Y173500D01*
X44900Y170200D02*Y172800D01*
Y170200D02*X45600Y169500D01*
X46900D01*
X48100Y170000D02*Y173000D01*
Y170000D02*X48600Y169500D01*
X49600D01*
X50100Y170000D01*
Y173000D01*
X49600Y173500D02*X50100Y173000D01*
X48600Y173500D02*X49600D01*
X48100Y173000D02*X48600Y173500D01*
X51300Y169500D02*Y173500D01*
Y169500D02*X53800Y173500D01*
Y169500D02*Y173500D01*
X34000Y177000D02*X35000Y179000D01*
X36000Y177000D02*X35000Y179000D01*
X37200Y175800D02*X38000Y175000D01*
Y179000D01*
X37200D02*X38700D01*
X39900D02*X40400D01*
X41600Y178500D02*X42100Y179000D01*
X41600Y175500D02*Y178500D01*
Y175500D02*X42100Y175000D01*
X43100D01*
X43600Y175500D01*
Y178500D01*
X43100Y179000D02*X43600Y178500D01*
X42100Y179000D02*X43100D01*
X41600Y178000D02*X43600Y176000D01*
X23200Y213500D02*X24500D01*
X22500Y212800D02*X23200Y213500D01*
X22500Y210200D02*Y212800D01*
Y210200D02*X23200Y209500D01*
X24500D01*
X25700D02*Y213500D01*
Y211500D02*X27700Y209500D01*
X25700Y211500D02*X27700Y213500D01*
X28900Y209500D02*X30900D01*
X29900D02*Y213500D01*
X32100Y211500D02*X34100D01*
X37300Y209500D02*X37800Y210000D01*
X35800Y209500D02*X37300D01*
X35300Y210000D02*X35800Y209500D01*
X35300Y210000D02*Y211000D01*
X35800Y211500D01*
X37300D01*
X37800Y212000D01*
Y213000D01*
X37300Y213500D02*X37800Y213000D01*
X35800Y213500D02*X37300D01*
X35300Y213000D02*X35800Y213500D01*
X39000Y209500D02*X40000D01*
X39500D02*Y213500D01*
X39000D02*X40000D01*
X43200Y209500D02*X43700Y210000D01*
X41700Y209500D02*X43200D01*
X41200Y210000D02*X41700Y209500D01*
X41200Y210000D02*Y213000D01*
X41700Y213500D01*
X43200D01*
X43700Y213000D01*
Y212000D02*Y213000D01*
X43200Y211500D02*X43700Y212000D01*
X42200Y211500D02*X43200D01*
X45600Y213500D02*X46900D01*
X44900Y212800D02*X45600Y213500D01*
X44900Y210200D02*Y212800D01*
Y210200D02*X45600Y209500D01*
X46900D01*
X48100Y210000D02*Y213000D01*
Y210000D02*X48600Y209500D01*
X49600D01*
X50100Y210000D01*
Y213000D01*
X49600Y213500D02*X50100Y213000D01*
X48600Y213500D02*X49600D01*
X48100Y213000D02*X48600Y213500D01*
X51300Y209500D02*Y213500D01*
Y209500D02*X53800Y213500D01*
Y209500D02*Y213500D01*
X34000Y217000D02*X35000Y219000D01*
X36000Y217000D02*X35000Y219000D01*
X37200Y215800D02*X38000Y215000D01*
Y219000D01*
X37200D02*X38700D01*
X39900D02*X40400D01*
X41600Y218500D02*X42100Y219000D01*
X41600Y215500D02*Y218500D01*
Y215500D02*X42100Y215000D01*
X43100D01*
X43600Y215500D01*
Y218500D01*
X43100Y219000D02*X43600Y218500D01*
X42100Y219000D02*X43100D01*
X41600Y218000D02*X43600Y216000D01*
X23200Y133500D02*X24500D01*
X22500Y132800D02*X23200Y133500D01*
X22500Y130200D02*Y132800D01*
Y130200D02*X23200Y129500D01*
X24500D01*
X25700D02*Y133500D01*
Y131500D02*X27700Y129500D01*
X25700Y131500D02*X27700Y133500D01*
X28900Y129500D02*X30900D01*
X29900D02*Y133500D01*
X32100Y131500D02*X34100D01*
X37300Y129500D02*X37800Y130000D01*
X35800Y129500D02*X37300D01*
X35300Y130000D02*X35800Y129500D01*
X35300Y130000D02*Y131000D01*
X35800Y131500D01*
X37300D01*
X37800Y132000D01*
Y133000D01*
X37300Y133500D02*X37800Y133000D01*
X35800Y133500D02*X37300D01*
X35300Y133000D02*X35800Y133500D01*
X39000Y129500D02*X40000D01*
X39500D02*Y133500D01*
X39000D02*X40000D01*
X43200Y129500D02*X43700Y130000D01*
X41700Y129500D02*X43200D01*
X41200Y130000D02*X41700Y129500D01*
X41200Y130000D02*Y133000D01*
X41700Y133500D01*
X43200D01*
X43700Y133000D01*
Y132000D02*Y133000D01*
X43200Y131500D02*X43700Y132000D01*
X42200Y131500D02*X43200D01*
X45600Y133500D02*X46900D01*
X44900Y132800D02*X45600Y133500D01*
X44900Y130200D02*Y132800D01*
Y130200D02*X45600Y129500D01*
X46900D01*
X48100Y130000D02*Y133000D01*
Y130000D02*X48600Y129500D01*
X49600D01*
X50100Y130000D01*
Y133000D01*
X49600Y133500D02*X50100Y133000D01*
X48600Y133500D02*X49600D01*
X48100Y133000D02*X48600Y133500D01*
X51300Y129500D02*Y133500D01*
Y129500D02*X53800Y133500D01*
Y129500D02*Y133500D01*
X34000Y137000D02*X35000Y139000D01*
X36000Y137000D02*X35000Y139000D01*
X37200Y135800D02*X38000Y135000D01*
Y139000D01*
X37200D02*X38700D01*
X39900D02*X40400D01*
X41600Y138500D02*X42100Y139000D01*
X41600Y135500D02*Y138500D01*
Y135500D02*X42100Y135000D01*
X43100D01*
X43600Y135500D01*
Y138500D01*
X43100Y139000D02*X43600Y138500D01*
X42100Y139000D02*X43100D01*
X41600Y138000D02*X43600Y136000D01*
X23200Y93500D02*X24500D01*
X22500Y92800D02*X23200Y93500D01*
X22500Y90200D02*Y92800D01*
Y90200D02*X23200Y89500D01*
X24500D01*
X25700D02*Y93500D01*
Y91500D02*X27700Y89500D01*
X25700Y91500D02*X27700Y93500D01*
X28900Y89500D02*X30900D01*
X29900D02*Y93500D01*
X32100Y91500D02*X34100D01*
X37300Y89500D02*X37800Y90000D01*
X35800Y89500D02*X37300D01*
X35300Y90000D02*X35800Y89500D01*
X35300Y90000D02*Y91000D01*
X35800Y91500D01*
X37300D01*
X37800Y92000D01*
Y93000D01*
X37300Y93500D02*X37800Y93000D01*
X35800Y93500D02*X37300D01*
X35300Y93000D02*X35800Y93500D01*
X39000Y89500D02*X40000D01*
X39500D02*Y93500D01*
X39000D02*X40000D01*
X43200Y89500D02*X43700Y90000D01*
X41700Y89500D02*X43200D01*
X41200Y90000D02*X41700Y89500D01*
X41200Y90000D02*Y93000D01*
X41700Y93500D01*
X43200D01*
X43700Y93000D01*
Y92000D02*Y93000D01*
X43200Y91500D02*X43700Y92000D01*
X42200Y91500D02*X43200D01*
X45600Y93500D02*X46900D01*
X44900Y92800D02*X45600Y93500D01*
X44900Y90200D02*Y92800D01*
Y90200D02*X45600Y89500D01*
X46900D01*
X48100Y90000D02*Y93000D01*
Y90000D02*X48600Y89500D01*
X49600D01*
X50100Y90000D01*
Y93000D01*
X49600Y93500D02*X50100Y93000D01*
X48600Y93500D02*X49600D01*
X48100Y93000D02*X48600Y93500D01*
X51300Y89500D02*Y93500D01*
Y89500D02*X53800Y93500D01*
Y89500D02*Y93500D01*
X34000Y97000D02*X35000Y99000D01*
X36000Y97000D02*X35000Y99000D01*
X37200Y95800D02*X38000Y95000D01*
Y99000D01*
X37200D02*X38700D01*
X39900D02*X40400D01*
X41600Y98500D02*X42100Y99000D01*
X41600Y95500D02*Y98500D01*
Y95500D02*X42100Y95000D01*
X43100D01*
X43600Y95500D01*
Y98500D01*
X43100Y99000D02*X43600Y98500D01*
X42100Y99000D02*X43100D01*
X41600Y98000D02*X43600Y96000D01*
X23200Y53500D02*X24500D01*
X22500Y52800D02*X23200Y53500D01*
X22500Y50200D02*Y52800D01*
Y50200D02*X23200Y49500D01*
X24500D01*
X25700D02*Y53500D01*
Y51500D02*X27700Y49500D01*
X25700Y51500D02*X27700Y53500D01*
X28900Y49500D02*X30900D01*
X29900D02*Y53500D01*
X32100Y51500D02*X34100D01*
X37300Y49500D02*X37800Y50000D01*
X35800Y49500D02*X37300D01*
X35300Y50000D02*X35800Y49500D01*
X35300Y50000D02*Y51000D01*
X35800Y51500D01*
X37300D01*
X37800Y52000D01*
Y53000D01*
X37300Y53500D02*X37800Y53000D01*
X35800Y53500D02*X37300D01*
X35300Y53000D02*X35800Y53500D01*
X39000Y49500D02*X40000D01*
X39500D02*Y53500D01*
X39000D02*X40000D01*
X43200Y49500D02*X43700Y50000D01*
X41700Y49500D02*X43200D01*
X41200Y50000D02*X41700Y49500D01*
X41200Y50000D02*Y53000D01*
X41700Y53500D01*
X43200D01*
X43700Y53000D01*
Y52000D02*Y53000D01*
X43200Y51500D02*X43700Y52000D01*
X42200Y51500D02*X43200D01*
X45600Y53500D02*X46900D01*
X44900Y52800D02*X45600Y53500D01*
X44900Y50200D02*Y52800D01*
Y50200D02*X45600Y49500D01*
X46900D01*
X48100Y50000D02*Y53000D01*
Y50000D02*X48600Y49500D01*
X49600D01*
X50100Y50000D01*
Y53000D01*
X49600Y53500D02*X50100Y53000D01*
X48600Y53500D02*X49600D01*
X48100Y53000D02*X48600Y53500D01*
X51300Y49500D02*Y53500D01*
Y49500D02*X53800Y53500D01*
Y49500D02*Y53500D01*
X34000Y57000D02*X35000Y59000D01*
X36000Y57000D02*X35000Y59000D01*
X37200Y55800D02*X38000Y55000D01*
Y59000D01*
X37200D02*X38700D01*
X39900D02*X40400D01*
X41600Y58500D02*X42100Y59000D01*
X41600Y55500D02*Y58500D01*
Y55500D02*X42100Y55000D01*
X43100D01*
X43600Y55500D01*
Y58500D01*
X43100Y59000D02*X43600Y58500D01*
X42100Y59000D02*X43100D01*
X41600Y58000D02*X43600Y56000D01*
X23200Y13500D02*X24500D01*
X22500Y12800D02*X23200Y13500D01*
X22500Y10200D02*Y12800D01*
Y10200D02*X23200Y9500D01*
X24500D01*
X25700D02*Y13500D01*
Y11500D02*X27700Y9500D01*
X25700Y11500D02*X27700Y13500D01*
X28900Y9500D02*X30900D01*
X29900D02*Y13500D01*
X32100Y11500D02*X34100D01*
X37300Y9500D02*X37800Y10000D01*
X35800Y9500D02*X37300D01*
X35300Y10000D02*X35800Y9500D01*
X35300Y10000D02*Y11000D01*
X35800Y11500D01*
X37300D01*
X37800Y12000D01*
Y13000D01*
X37300Y13500D02*X37800Y13000D01*
X35800Y13500D02*X37300D01*
X35300Y13000D02*X35800Y13500D01*
X39000Y9500D02*X40000D01*
X39500D02*Y13500D01*
X39000D02*X40000D01*
X43200Y9500D02*X43700Y10000D01*
X41700Y9500D02*X43200D01*
X41200Y10000D02*X41700Y9500D01*
X41200Y10000D02*Y13000D01*
X41700Y13500D01*
X43200D01*
X43700Y13000D01*
Y12000D02*Y13000D01*
X43200Y11500D02*X43700Y12000D01*
X42200Y11500D02*X43200D01*
X45600Y13500D02*X46900D01*
X44900Y12800D02*X45600Y13500D01*
X44900Y10200D02*Y12800D01*
Y10200D02*X45600Y9500D01*
X46900D01*
X48100Y10000D02*Y13000D01*
Y10000D02*X48600Y9500D01*
X49600D01*
X50100Y10000D01*
Y13000D01*
X49600Y13500D02*X50100Y13000D01*
X48600Y13500D02*X49600D01*
X48100Y13000D02*X48600Y13500D01*
X51300Y9500D02*Y13500D01*
Y9500D02*X53800Y13500D01*
Y9500D02*Y13500D01*
X34000Y17000D02*X35000Y19000D01*
X36000Y17000D02*X35000Y19000D01*
X37200Y15800D02*X38000Y15000D01*
Y19000D01*
X37200D02*X38700D01*
X39900D02*X40400D01*
X41600Y18500D02*X42100Y19000D01*
X41600Y15500D02*Y18500D01*
Y15500D02*X42100Y15000D01*
X43100D01*
X43600Y15500D01*
Y18500D01*
X43100Y19000D02*X43600Y18500D01*
X42100Y19000D02*X43100D01*
X41600Y18000D02*X43600Y16000D01*
M02*
