M48
INCH
T26C0.031
%
T26
X002550Y023950
X002550Y023150
X002550Y015950
X002550Y015150
X002550Y011950
X002550Y011150
X002550Y007950
X002550Y007150
X002550Y003950
X002550Y003150
X002600Y019950
X002600Y019150
X003050Y023950
X003050Y023150
X003050Y015950
X003050Y015150
X003050Y011950
X003050Y011150
X003050Y007950
X003050Y007150
X003050Y003950
X003050Y003150
X003100Y019950
X003100Y019150
X003550Y023950
X003550Y023150
X003550Y015950
X003550Y015150
X003550Y011950
X003550Y011150
X003550Y007950
X003550Y007150
X003550Y003950
X003550Y003150
X003600Y019950
X003600Y019150
M30
