G04 start of page 3 for group 1 idx 1 *
G04 Title: (unknown), bottom *
G04 Creator: pcb 4.0.2 *
G04 CreationDate: Wed Oct 14 23:14:01 2020 UTC *
G04 For: ndholmes *
G04 Format: Gerber/RS-274X *
G04 PCB-Dimensions (mil): 610.00 2710.00 *
G04 PCB-Coordinate-Origin: lower left *
%MOIN*%
%FSLAX25Y25*%
%LNBOTTOM*%
%ADD22C,0.0240*%
%ADD21C,0.0200*%
%ADD20C,0.0310*%
%ADD19C,0.0400*%
%ADD18C,0.0250*%
%ADD17C,0.0001*%
G54D17*G36*
X12195Y109000D02*X59000D01*
Y82000D01*
X12195D01*
Y85004D01*
X14357Y85009D01*
X14510Y85046D01*
X14655Y85106D01*
X14790Y85188D01*
X14909Y85291D01*
X15012Y85410D01*
X15094Y85545D01*
X15154Y85690D01*
X15191Y85843D01*
X15200Y86000D01*
X15191Y90157D01*
X15154Y90310D01*
X15094Y90455D01*
X15012Y90590D01*
X14909Y90709D01*
X14790Y90812D01*
X14655Y90894D01*
X14510Y90954D01*
X14417Y90976D01*
X14635Y91231D01*
X14881Y91634D01*
X15062Y92070D01*
X15172Y92529D01*
X15200Y93000D01*
X15172Y93471D01*
X15062Y93930D01*
X14881Y94366D01*
X14635Y94769D01*
X14328Y95128D01*
X13969Y95435D01*
X13862Y95500D01*
X13969Y95565D01*
X14328Y95872D01*
X14635Y96231D01*
X14881Y96634D01*
X15062Y97070D01*
X15172Y97529D01*
X15200Y98000D01*
X15172Y98471D01*
X15062Y98930D01*
X14881Y99366D01*
X14635Y99769D01*
X14328Y100128D01*
X13969Y100435D01*
X13862Y100500D01*
X13969Y100565D01*
X14328Y100872D01*
X14635Y101231D01*
X14881Y101634D01*
X15062Y102070D01*
X15172Y102529D01*
X15200Y103000D01*
X15172Y103471D01*
X15062Y103930D01*
X14881Y104366D01*
X14635Y104769D01*
X14328Y105128D01*
X13969Y105435D01*
X13566Y105681D01*
X13130Y105862D01*
X12671Y105972D01*
X12200Y106009D01*
X12195Y106009D01*
Y109000D01*
G37*
G36*
X2000D02*X12195D01*
Y106009D01*
X11729Y105972D01*
X11270Y105862D01*
X10834Y105681D01*
X10431Y105435D01*
X10072Y105128D01*
X9765Y104769D01*
X9519Y104366D01*
X9338Y103930D01*
X9228Y103471D01*
X9191Y103000D01*
X9228Y102529D01*
X9338Y102070D01*
X9519Y101634D01*
X9765Y101231D01*
X10072Y100872D01*
X10431Y100565D01*
X10538Y100500D01*
X10431Y100435D01*
X10072Y100128D01*
X9765Y99769D01*
X9519Y99366D01*
X9338Y98930D01*
X9228Y98471D01*
X9191Y98000D01*
X9228Y97529D01*
X9338Y97070D01*
X9519Y96634D01*
X9765Y96231D01*
X10072Y95872D01*
X10431Y95565D01*
X10538Y95500D01*
X10431Y95435D01*
X10072Y95128D01*
X9765Y94769D01*
X9519Y94366D01*
X9338Y93930D01*
X9228Y93471D01*
X9191Y93000D01*
X9228Y92529D01*
X9338Y92070D01*
X9519Y91634D01*
X9765Y91231D01*
X9983Y90976D01*
X9890Y90954D01*
X9745Y90894D01*
X9610Y90812D01*
X9491Y90709D01*
X9388Y90590D01*
X9306Y90455D01*
X9246Y90310D01*
X9209Y90157D01*
X9200Y90000D01*
X9209Y85843D01*
X9246Y85690D01*
X9306Y85545D01*
X9388Y85410D01*
X9491Y85291D01*
X9610Y85188D01*
X9745Y85106D01*
X9890Y85046D01*
X10043Y85009D01*
X10200Y85000D01*
X12195Y85004D01*
Y82000D01*
X2000D01*
Y109000D01*
G37*
G36*
X12195Y69000D02*X59000D01*
Y42000D01*
X12195D01*
Y45004D01*
X14357Y45009D01*
X14510Y45046D01*
X14655Y45106D01*
X14790Y45188D01*
X14909Y45291D01*
X15012Y45410D01*
X15094Y45545D01*
X15154Y45690D01*
X15191Y45843D01*
X15200Y46000D01*
X15191Y50157D01*
X15154Y50310D01*
X15094Y50455D01*
X15012Y50590D01*
X14909Y50709D01*
X14790Y50812D01*
X14655Y50894D01*
X14510Y50954D01*
X14417Y50976D01*
X14635Y51231D01*
X14881Y51634D01*
X15062Y52070D01*
X15172Y52529D01*
X15200Y53000D01*
X15172Y53471D01*
X15062Y53930D01*
X14881Y54366D01*
X14635Y54769D01*
X14328Y55128D01*
X13969Y55435D01*
X13862Y55500D01*
X13969Y55565D01*
X14328Y55872D01*
X14635Y56231D01*
X14881Y56634D01*
X15062Y57070D01*
X15172Y57529D01*
X15200Y58000D01*
X15172Y58471D01*
X15062Y58930D01*
X14881Y59366D01*
X14635Y59769D01*
X14328Y60128D01*
X13969Y60435D01*
X13862Y60500D01*
X13969Y60565D01*
X14328Y60872D01*
X14635Y61231D01*
X14881Y61634D01*
X15062Y62070D01*
X15172Y62529D01*
X15200Y63000D01*
X15172Y63471D01*
X15062Y63930D01*
X14881Y64366D01*
X14635Y64769D01*
X14328Y65128D01*
X13969Y65435D01*
X13566Y65681D01*
X13130Y65862D01*
X12671Y65972D01*
X12200Y66009D01*
X12195Y66009D01*
Y69000D01*
G37*
G36*
X2000D02*X12195D01*
Y66009D01*
X11729Y65972D01*
X11270Y65862D01*
X10834Y65681D01*
X10431Y65435D01*
X10072Y65128D01*
X9765Y64769D01*
X9519Y64366D01*
X9338Y63930D01*
X9228Y63471D01*
X9191Y63000D01*
X9228Y62529D01*
X9338Y62070D01*
X9519Y61634D01*
X9765Y61231D01*
X10072Y60872D01*
X10431Y60565D01*
X10538Y60500D01*
X10431Y60435D01*
X10072Y60128D01*
X9765Y59769D01*
X9519Y59366D01*
X9338Y58930D01*
X9228Y58471D01*
X9191Y58000D01*
X9228Y57529D01*
X9338Y57070D01*
X9519Y56634D01*
X9765Y56231D01*
X10072Y55872D01*
X10431Y55565D01*
X10538Y55500D01*
X10431Y55435D01*
X10072Y55128D01*
X9765Y54769D01*
X9519Y54366D01*
X9338Y53930D01*
X9228Y53471D01*
X9191Y53000D01*
X9228Y52529D01*
X9338Y52070D01*
X9519Y51634D01*
X9765Y51231D01*
X9983Y50976D01*
X9890Y50954D01*
X9745Y50894D01*
X9610Y50812D01*
X9491Y50709D01*
X9388Y50590D01*
X9306Y50455D01*
X9246Y50310D01*
X9209Y50157D01*
X9200Y50000D01*
X9209Y45843D01*
X9246Y45690D01*
X9306Y45545D01*
X9388Y45410D01*
X9491Y45291D01*
X9610Y45188D01*
X9745Y45106D01*
X9890Y45046D01*
X10043Y45009D01*
X10200Y45000D01*
X12195Y45004D01*
Y42000D01*
X2000D01*
Y69000D01*
G37*
G36*
X12195Y29000D02*X59000D01*
Y2000D01*
X12195D01*
Y5004D01*
X14357Y5009D01*
X14510Y5046D01*
X14655Y5106D01*
X14790Y5188D01*
X14909Y5291D01*
X15012Y5410D01*
X15094Y5545D01*
X15154Y5690D01*
X15191Y5843D01*
X15200Y6000D01*
X15191Y10157D01*
X15154Y10310D01*
X15094Y10455D01*
X15012Y10590D01*
X14909Y10709D01*
X14790Y10812D01*
X14655Y10894D01*
X14510Y10954D01*
X14417Y10976D01*
X14635Y11231D01*
X14881Y11634D01*
X15062Y12070D01*
X15172Y12529D01*
X15200Y13000D01*
X15172Y13471D01*
X15062Y13930D01*
X14881Y14366D01*
X14635Y14769D01*
X14328Y15128D01*
X13969Y15435D01*
X13862Y15500D01*
X13969Y15565D01*
X14328Y15872D01*
X14635Y16231D01*
X14881Y16634D01*
X15062Y17070D01*
X15172Y17529D01*
X15200Y18000D01*
X15172Y18471D01*
X15062Y18930D01*
X14881Y19366D01*
X14635Y19769D01*
X14328Y20128D01*
X13969Y20435D01*
X13862Y20500D01*
X13969Y20565D01*
X14328Y20872D01*
X14635Y21231D01*
X14881Y21634D01*
X15062Y22070D01*
X15172Y22529D01*
X15200Y23000D01*
X15172Y23471D01*
X15062Y23930D01*
X14881Y24366D01*
X14635Y24769D01*
X14328Y25128D01*
X13969Y25435D01*
X13566Y25681D01*
X13130Y25862D01*
X12671Y25972D01*
X12200Y26009D01*
X12195Y26009D01*
Y29000D01*
G37*
G36*
X2000D02*X12195D01*
Y26009D01*
X11729Y25972D01*
X11270Y25862D01*
X10834Y25681D01*
X10431Y25435D01*
X10072Y25128D01*
X9765Y24769D01*
X9519Y24366D01*
X9338Y23930D01*
X9228Y23471D01*
X9191Y23000D01*
X9228Y22529D01*
X9338Y22070D01*
X9519Y21634D01*
X9765Y21231D01*
X10072Y20872D01*
X10431Y20565D01*
X10538Y20500D01*
X10431Y20435D01*
X10072Y20128D01*
X9765Y19769D01*
X9519Y19366D01*
X9338Y18930D01*
X9228Y18471D01*
X9191Y18000D01*
X9228Y17529D01*
X9338Y17070D01*
X9519Y16634D01*
X9765Y16231D01*
X10072Y15872D01*
X10431Y15565D01*
X10538Y15500D01*
X10431Y15435D01*
X10072Y15128D01*
X9765Y14769D01*
X9519Y14366D01*
X9338Y13930D01*
X9228Y13471D01*
X9191Y13000D01*
X9228Y12529D01*
X9338Y12070D01*
X9519Y11634D01*
X9765Y11231D01*
X9983Y10976D01*
X9890Y10954D01*
X9745Y10894D01*
X9610Y10812D01*
X9491Y10709D01*
X9388Y10590D01*
X9306Y10455D01*
X9246Y10310D01*
X9209Y10157D01*
X9200Y10000D01*
X9209Y5843D01*
X9246Y5690D01*
X9306Y5545D01*
X9388Y5410D01*
X9491Y5291D01*
X9610Y5188D01*
X9745Y5106D01*
X9890Y5046D01*
X10043Y5009D01*
X10200Y5000D01*
X12195Y5004D01*
Y2000D01*
X2000D01*
Y29000D01*
G37*
G36*
X12195Y269000D02*X59000D01*
Y242000D01*
X12195D01*
Y245004D01*
X14357Y245009D01*
X14510Y245046D01*
X14655Y245106D01*
X14790Y245188D01*
X14909Y245291D01*
X15012Y245410D01*
X15094Y245545D01*
X15154Y245690D01*
X15191Y245843D01*
X15200Y246000D01*
X15191Y250157D01*
X15154Y250310D01*
X15094Y250455D01*
X15012Y250590D01*
X14909Y250709D01*
X14790Y250812D01*
X14655Y250894D01*
X14510Y250954D01*
X14417Y250976D01*
X14635Y251231D01*
X14881Y251634D01*
X15062Y252070D01*
X15172Y252529D01*
X15200Y253000D01*
X15172Y253471D01*
X15062Y253930D01*
X14881Y254366D01*
X14635Y254769D01*
X14328Y255128D01*
X13969Y255435D01*
X13862Y255500D01*
X13969Y255565D01*
X14328Y255872D01*
X14635Y256231D01*
X14881Y256634D01*
X15062Y257070D01*
X15172Y257529D01*
X15200Y258000D01*
X15172Y258471D01*
X15062Y258930D01*
X14881Y259366D01*
X14635Y259769D01*
X14328Y260128D01*
X13969Y260435D01*
X13862Y260500D01*
X13969Y260565D01*
X14328Y260872D01*
X14635Y261231D01*
X14881Y261634D01*
X15062Y262070D01*
X15172Y262529D01*
X15200Y263000D01*
X15172Y263471D01*
X15062Y263930D01*
X14881Y264366D01*
X14635Y264769D01*
X14328Y265128D01*
X13969Y265435D01*
X13566Y265681D01*
X13130Y265862D01*
X12671Y265972D01*
X12200Y266009D01*
X12195Y266009D01*
Y269000D01*
G37*
G36*
X2000D02*X12195D01*
Y266009D01*
X11729Y265972D01*
X11270Y265862D01*
X10834Y265681D01*
X10431Y265435D01*
X10072Y265128D01*
X9765Y264769D01*
X9519Y264366D01*
X9338Y263930D01*
X9228Y263471D01*
X9191Y263000D01*
X9228Y262529D01*
X9338Y262070D01*
X9519Y261634D01*
X9765Y261231D01*
X10072Y260872D01*
X10431Y260565D01*
X10538Y260500D01*
X10431Y260435D01*
X10072Y260128D01*
X9765Y259769D01*
X9519Y259366D01*
X9338Y258930D01*
X9228Y258471D01*
X9191Y258000D01*
X9228Y257529D01*
X9338Y257070D01*
X9519Y256634D01*
X9765Y256231D01*
X10072Y255872D01*
X10431Y255565D01*
X10538Y255500D01*
X10431Y255435D01*
X10072Y255128D01*
X9765Y254769D01*
X9519Y254366D01*
X9338Y253930D01*
X9228Y253471D01*
X9191Y253000D01*
X9228Y252529D01*
X9338Y252070D01*
X9519Y251634D01*
X9765Y251231D01*
X9983Y250976D01*
X9890Y250954D01*
X9745Y250894D01*
X9610Y250812D01*
X9491Y250709D01*
X9388Y250590D01*
X9306Y250455D01*
X9246Y250310D01*
X9209Y250157D01*
X9200Y250000D01*
X9209Y245843D01*
X9246Y245690D01*
X9306Y245545D01*
X9388Y245410D01*
X9491Y245291D01*
X9610Y245188D01*
X9745Y245106D01*
X9890Y245046D01*
X10043Y245009D01*
X10200Y245000D01*
X12195Y245004D01*
Y242000D01*
X2000D01*
Y269000D01*
G37*
G36*
X12195Y189000D02*X59000D01*
Y162000D01*
X12195D01*
Y165004D01*
X14357Y165009D01*
X14510Y165046D01*
X14655Y165106D01*
X14790Y165188D01*
X14909Y165291D01*
X15012Y165410D01*
X15094Y165545D01*
X15154Y165690D01*
X15191Y165843D01*
X15200Y166000D01*
X15191Y170157D01*
X15154Y170310D01*
X15094Y170455D01*
X15012Y170590D01*
X14909Y170709D01*
X14790Y170812D01*
X14655Y170894D01*
X14510Y170954D01*
X14417Y170976D01*
X14635Y171231D01*
X14881Y171634D01*
X15062Y172070D01*
X15172Y172529D01*
X15200Y173000D01*
X15172Y173471D01*
X15062Y173930D01*
X14881Y174366D01*
X14635Y174769D01*
X14328Y175128D01*
X13969Y175435D01*
X13862Y175500D01*
X13969Y175565D01*
X14328Y175872D01*
X14635Y176231D01*
X14881Y176634D01*
X15062Y177070D01*
X15172Y177529D01*
X15200Y178000D01*
X15172Y178471D01*
X15062Y178930D01*
X14881Y179366D01*
X14635Y179769D01*
X14328Y180128D01*
X13969Y180435D01*
X13862Y180500D01*
X13969Y180565D01*
X14328Y180872D01*
X14635Y181231D01*
X14881Y181634D01*
X15062Y182070D01*
X15172Y182529D01*
X15200Y183000D01*
X15172Y183471D01*
X15062Y183930D01*
X14881Y184366D01*
X14635Y184769D01*
X14328Y185128D01*
X13969Y185435D01*
X13566Y185681D01*
X13130Y185862D01*
X12671Y185972D01*
X12200Y186009D01*
X12195Y186009D01*
Y189000D01*
G37*
G36*
X2000D02*X12195D01*
Y186009D01*
X11729Y185972D01*
X11270Y185862D01*
X10834Y185681D01*
X10431Y185435D01*
X10072Y185128D01*
X9765Y184769D01*
X9519Y184366D01*
X9338Y183930D01*
X9228Y183471D01*
X9191Y183000D01*
X9228Y182529D01*
X9338Y182070D01*
X9519Y181634D01*
X9765Y181231D01*
X10072Y180872D01*
X10431Y180565D01*
X10538Y180500D01*
X10431Y180435D01*
X10072Y180128D01*
X9765Y179769D01*
X9519Y179366D01*
X9338Y178930D01*
X9228Y178471D01*
X9191Y178000D01*
X9228Y177529D01*
X9338Y177070D01*
X9519Y176634D01*
X9765Y176231D01*
X10072Y175872D01*
X10431Y175565D01*
X10538Y175500D01*
X10431Y175435D01*
X10072Y175128D01*
X9765Y174769D01*
X9519Y174366D01*
X9338Y173930D01*
X9228Y173471D01*
X9191Y173000D01*
X9228Y172529D01*
X9338Y172070D01*
X9519Y171634D01*
X9765Y171231D01*
X9983Y170976D01*
X9890Y170954D01*
X9745Y170894D01*
X9610Y170812D01*
X9491Y170709D01*
X9388Y170590D01*
X9306Y170455D01*
X9246Y170310D01*
X9209Y170157D01*
X9200Y170000D01*
X9209Y165843D01*
X9246Y165690D01*
X9306Y165545D01*
X9388Y165410D01*
X9491Y165291D01*
X9610Y165188D01*
X9745Y165106D01*
X9890Y165046D01*
X10043Y165009D01*
X10200Y165000D01*
X12195Y165004D01*
Y162000D01*
X2000D01*
Y189000D01*
G37*
G36*
X12195Y149000D02*X59000D01*
Y122000D01*
X12195D01*
Y125004D01*
X14357Y125009D01*
X14510Y125046D01*
X14655Y125106D01*
X14790Y125188D01*
X14909Y125291D01*
X15012Y125410D01*
X15094Y125545D01*
X15154Y125690D01*
X15191Y125843D01*
X15200Y126000D01*
X15191Y130157D01*
X15154Y130310D01*
X15094Y130455D01*
X15012Y130590D01*
X14909Y130709D01*
X14790Y130812D01*
X14655Y130894D01*
X14510Y130954D01*
X14417Y130976D01*
X14635Y131231D01*
X14881Y131634D01*
X15062Y132070D01*
X15172Y132529D01*
X15200Y133000D01*
X15172Y133471D01*
X15062Y133930D01*
X14881Y134366D01*
X14635Y134769D01*
X14328Y135128D01*
X13969Y135435D01*
X13862Y135500D01*
X13969Y135565D01*
X14328Y135872D01*
X14635Y136231D01*
X14881Y136634D01*
X15062Y137070D01*
X15172Y137529D01*
X15200Y138000D01*
X15172Y138471D01*
X15062Y138930D01*
X14881Y139366D01*
X14635Y139769D01*
X14328Y140128D01*
X13969Y140435D01*
X13862Y140500D01*
X13969Y140565D01*
X14328Y140872D01*
X14635Y141231D01*
X14881Y141634D01*
X15062Y142070D01*
X15172Y142529D01*
X15200Y143000D01*
X15172Y143471D01*
X15062Y143930D01*
X14881Y144366D01*
X14635Y144769D01*
X14328Y145128D01*
X13969Y145435D01*
X13566Y145681D01*
X13130Y145862D01*
X12671Y145972D01*
X12200Y146009D01*
X12195Y146009D01*
Y149000D01*
G37*
G36*
X2000D02*X12195D01*
Y146009D01*
X11729Y145972D01*
X11270Y145862D01*
X10834Y145681D01*
X10431Y145435D01*
X10072Y145128D01*
X9765Y144769D01*
X9519Y144366D01*
X9338Y143930D01*
X9228Y143471D01*
X9191Y143000D01*
X9228Y142529D01*
X9338Y142070D01*
X9519Y141634D01*
X9765Y141231D01*
X10072Y140872D01*
X10431Y140565D01*
X10538Y140500D01*
X10431Y140435D01*
X10072Y140128D01*
X9765Y139769D01*
X9519Y139366D01*
X9338Y138930D01*
X9228Y138471D01*
X9191Y138000D01*
X9228Y137529D01*
X9338Y137070D01*
X9519Y136634D01*
X9765Y136231D01*
X10072Y135872D01*
X10431Y135565D01*
X10538Y135500D01*
X10431Y135435D01*
X10072Y135128D01*
X9765Y134769D01*
X9519Y134366D01*
X9338Y133930D01*
X9228Y133471D01*
X9191Y133000D01*
X9228Y132529D01*
X9338Y132070D01*
X9519Y131634D01*
X9765Y131231D01*
X9983Y130976D01*
X9890Y130954D01*
X9745Y130894D01*
X9610Y130812D01*
X9491Y130709D01*
X9388Y130590D01*
X9306Y130455D01*
X9246Y130310D01*
X9209Y130157D01*
X9200Y130000D01*
X9209Y125843D01*
X9246Y125690D01*
X9306Y125545D01*
X9388Y125410D01*
X9491Y125291D01*
X9610Y125188D01*
X9745Y125106D01*
X9890Y125046D01*
X10043Y125009D01*
X10200Y125000D01*
X12195Y125004D01*
Y122000D01*
X2000D01*
Y149000D01*
G37*
G36*
X12195Y229000D02*X59000D01*
Y202000D01*
X12195D01*
Y205004D01*
X14357Y205009D01*
X14510Y205046D01*
X14655Y205106D01*
X14790Y205188D01*
X14909Y205291D01*
X15012Y205410D01*
X15094Y205545D01*
X15154Y205690D01*
X15191Y205843D01*
X15200Y206000D01*
X15191Y210157D01*
X15154Y210310D01*
X15094Y210455D01*
X15012Y210590D01*
X14909Y210709D01*
X14790Y210812D01*
X14655Y210894D01*
X14510Y210954D01*
X14417Y210976D01*
X14635Y211231D01*
X14881Y211634D01*
X15062Y212070D01*
X15172Y212529D01*
X15200Y213000D01*
X15172Y213471D01*
X15062Y213930D01*
X14881Y214366D01*
X14635Y214769D01*
X14328Y215128D01*
X13969Y215435D01*
X13862Y215500D01*
X13969Y215565D01*
X14328Y215872D01*
X14635Y216231D01*
X14881Y216634D01*
X15062Y217070D01*
X15172Y217529D01*
X15200Y218000D01*
X15172Y218471D01*
X15062Y218930D01*
X14881Y219366D01*
X14635Y219769D01*
X14328Y220128D01*
X13969Y220435D01*
X13862Y220500D01*
X13969Y220565D01*
X14328Y220872D01*
X14635Y221231D01*
X14881Y221634D01*
X15062Y222070D01*
X15172Y222529D01*
X15200Y223000D01*
X15172Y223471D01*
X15062Y223930D01*
X14881Y224366D01*
X14635Y224769D01*
X14328Y225128D01*
X13969Y225435D01*
X13566Y225681D01*
X13130Y225862D01*
X12671Y225972D01*
X12200Y226009D01*
X12195Y226009D01*
Y229000D01*
G37*
G36*
X2000D02*X12195D01*
Y226009D01*
X11729Y225972D01*
X11270Y225862D01*
X10834Y225681D01*
X10431Y225435D01*
X10072Y225128D01*
X9765Y224769D01*
X9519Y224366D01*
X9338Y223930D01*
X9228Y223471D01*
X9191Y223000D01*
X9228Y222529D01*
X9338Y222070D01*
X9519Y221634D01*
X9765Y221231D01*
X10072Y220872D01*
X10431Y220565D01*
X10538Y220500D01*
X10431Y220435D01*
X10072Y220128D01*
X9765Y219769D01*
X9519Y219366D01*
X9338Y218930D01*
X9228Y218471D01*
X9191Y218000D01*
X9228Y217529D01*
X9338Y217070D01*
X9519Y216634D01*
X9765Y216231D01*
X10072Y215872D01*
X10431Y215565D01*
X10538Y215500D01*
X10431Y215435D01*
X10072Y215128D01*
X9765Y214769D01*
X9519Y214366D01*
X9338Y213930D01*
X9228Y213471D01*
X9191Y213000D01*
X9228Y212529D01*
X9338Y212070D01*
X9519Y211634D01*
X9765Y211231D01*
X9983Y210976D01*
X9890Y210954D01*
X9745Y210894D01*
X9610Y210812D01*
X9491Y210709D01*
X9388Y210590D01*
X9306Y210455D01*
X9246Y210310D01*
X9209Y210157D01*
X9200Y210000D01*
X9209Y205843D01*
X9246Y205690D01*
X9306Y205545D01*
X9388Y205410D01*
X9491Y205291D01*
X9610Y205188D01*
X9745Y205106D01*
X9890Y205046D01*
X10043Y205009D01*
X10200Y205000D01*
X12195Y205004D01*
Y202000D01*
X2000D01*
Y229000D01*
G37*
G54D18*X6100Y252800D02*X16500D01*
X6100Y172800D02*X16500D01*
X6100Y132800D02*X16500D01*
X6100Y212800D02*X16500D01*
X6100Y92800D02*X16500D01*
X6100Y52800D02*X16500D01*
X6100Y12800D02*X16500D01*
G54D17*G36*
X10200Y130000D02*Y126000D01*
X14200D01*
Y130000D01*
X10200D01*
G37*
G36*
Y90000D02*Y86000D01*
X14200D01*
Y90000D01*
X10200D01*
G37*
G54D19*X12200Y93000D03*
Y98000D03*
Y103000D03*
Y133000D03*
Y138000D03*
Y143000D03*
G54D17*G36*
X10200Y50000D02*Y46000D01*
X14200D01*
Y50000D01*
X10200D01*
G37*
G54D19*X12200Y53000D03*
G54D17*G36*
X10200Y10000D02*Y6000D01*
X14200D01*
Y10000D01*
X10200D01*
G37*
G54D19*X12200Y13000D03*
Y18000D03*
Y23000D03*
Y58000D03*
Y63000D03*
G54D17*G36*
X10200Y170000D02*Y166000D01*
X14200D01*
Y170000D01*
X10200D01*
G37*
G54D19*X12200Y173000D03*
Y178000D03*
G54D17*G36*
X10200Y250000D02*Y246000D01*
X14200D01*
Y250000D01*
X10200D01*
G37*
G54D19*X12200Y253000D03*
Y258000D03*
Y263000D03*
Y183000D03*
G54D17*G36*
X10200Y210000D02*Y206000D01*
X14200D01*
Y210000D01*
X10200D01*
G37*
G54D19*X12200Y213000D03*
Y218000D03*
Y223000D03*
X40500Y165000D03*
X46000D03*
X40500Y125000D03*
X46000D03*
X40500Y245000D03*
X46000D03*
X40500Y205000D03*
X46000D03*
X40500Y85000D03*
X46000D03*
X40500Y45000D03*
X46000D03*
X40500Y5000D03*
X46000D03*
G54D20*G54D21*G54D20*G54D21*G54D20*G54D21*G54D20*G54D21*G54D20*G54D21*G54D20*G54D21*G54D22*M02*
