G04 start of page 13 for group -3984 idx -3984 *
G04 Title: (unknown), fab *
G04 Creator: pcb 4.0.2 *
G04 CreationDate: Wed Oct 14 23:14:01 2020 UTC *
G04 For: ndholmes *
G04 Format: Gerber/RS-274X *
G04 PCB-Dimensions (mil): 610.00 2710.00 *
G04 PCB-Coordinate-Origin: lower left *
%MOIN*%
%FSLAX25Y25*%
%LNFAB*%
%ADD39C,0.0100*%
%ADD38C,0.0075*%
%ADD37C,0.0060*%
%ADD36C,0.0001*%
G54D36*G36*
X29300Y233266D02*X32266Y230300D01*
X31700Y229734D01*
X28734Y232700D01*
X29300Y233266D01*
G37*
G36*
X28734Y230300D02*X31700Y233266D01*
X32266Y232700D01*
X29300Y229734D01*
X28734Y230300D01*
G37*
G36*
X24300Y233266D02*X27266Y230300D01*
X26700Y229734D01*
X23734Y232700D01*
X24300Y233266D01*
G37*
G36*
X23734Y230300D02*X26700Y233266D01*
X27266Y232700D01*
X24300Y229734D01*
X23734Y230300D01*
G37*
G36*
X34300Y233266D02*X37266Y230300D01*
X36700Y229734D01*
X33734Y232700D01*
X34300Y233266D01*
G37*
G36*
X33734Y230300D02*X36700Y233266D01*
X37266Y232700D01*
X34300Y229734D01*
X33734Y230300D01*
G37*
G36*
X24300Y241266D02*X27266Y238300D01*
X26700Y237734D01*
X23734Y240700D01*
X24300Y241266D01*
G37*
G36*
X23734Y238300D02*X26700Y241266D01*
X27266Y240700D01*
X24300Y237734D01*
X23734Y238300D01*
G37*
G36*
X29300Y241266D02*X32266Y238300D01*
X31700Y237734D01*
X28734Y240700D01*
X29300Y241266D01*
G37*
G36*
X28734Y238300D02*X31700Y241266D01*
X32266Y240700D01*
X29300Y237734D01*
X28734Y238300D01*
G37*
G36*
X34300Y241266D02*X37266Y238300D01*
X36700Y237734D01*
X33734Y240700D01*
X34300Y241266D01*
G37*
G36*
X33734Y238300D02*X36700Y241266D01*
X37266Y240700D01*
X34300Y237734D01*
X33734Y238300D01*
G37*
G36*
X29800Y193266D02*X32766Y190300D01*
X32200Y189734D01*
X29234Y192700D01*
X29800Y193266D01*
G37*
G36*
X29234Y190300D02*X32200Y193266D01*
X32766Y192700D01*
X29800Y189734D01*
X29234Y190300D01*
G37*
G36*
X24800Y193266D02*X27766Y190300D01*
X27200Y189734D01*
X24234Y192700D01*
X24800Y193266D01*
G37*
G36*
X24234Y190300D02*X27200Y193266D01*
X27766Y192700D01*
X24800Y189734D01*
X24234Y190300D01*
G37*
G36*
X34800Y193266D02*X37766Y190300D01*
X37200Y189734D01*
X34234Y192700D01*
X34800Y193266D01*
G37*
G36*
X34234Y190300D02*X37200Y193266D01*
X37766Y192700D01*
X34800Y189734D01*
X34234Y190300D01*
G37*
G36*
X24800Y201266D02*X27766Y198300D01*
X27200Y197734D01*
X24234Y200700D01*
X24800Y201266D01*
G37*
G36*
X24234Y198300D02*X27200Y201266D01*
X27766Y200700D01*
X24800Y197734D01*
X24234Y198300D01*
G37*
G36*
X29800Y201266D02*X32766Y198300D01*
X32200Y197734D01*
X29234Y200700D01*
X29800Y201266D01*
G37*
G36*
X29234Y198300D02*X32200Y201266D01*
X32766Y200700D01*
X29800Y197734D01*
X29234Y198300D01*
G37*
G36*
X34800Y201266D02*X37766Y198300D01*
X37200Y197734D01*
X34234Y200700D01*
X34800Y201266D01*
G37*
G36*
X34234Y198300D02*X37200Y201266D01*
X37766Y200700D01*
X34800Y197734D01*
X34234Y198300D01*
G37*
G36*
X29300Y153266D02*X32266Y150300D01*
X31700Y149734D01*
X28734Y152700D01*
X29300Y153266D01*
G37*
G36*
X28734Y150300D02*X31700Y153266D01*
X32266Y152700D01*
X29300Y149734D01*
X28734Y150300D01*
G37*
G36*
X24300Y153266D02*X27266Y150300D01*
X26700Y149734D01*
X23734Y152700D01*
X24300Y153266D01*
G37*
G36*
X23734Y150300D02*X26700Y153266D01*
X27266Y152700D01*
X24300Y149734D01*
X23734Y150300D01*
G37*
G36*
X34300Y153266D02*X37266Y150300D01*
X36700Y149734D01*
X33734Y152700D01*
X34300Y153266D01*
G37*
G36*
X33734Y150300D02*X36700Y153266D01*
X37266Y152700D01*
X34300Y149734D01*
X33734Y150300D01*
G37*
G36*
X24300Y161266D02*X27266Y158300D01*
X26700Y157734D01*
X23734Y160700D01*
X24300Y161266D01*
G37*
G36*
X23734Y158300D02*X26700Y161266D01*
X27266Y160700D01*
X24300Y157734D01*
X23734Y158300D01*
G37*
G36*
X29300Y161266D02*X32266Y158300D01*
X31700Y157734D01*
X28734Y160700D01*
X29300Y161266D01*
G37*
G36*
X28734Y158300D02*X31700Y161266D01*
X32266Y160700D01*
X29300Y157734D01*
X28734Y158300D01*
G37*
G36*
X34300Y161266D02*X37266Y158300D01*
X36700Y157734D01*
X33734Y160700D01*
X34300Y161266D01*
G37*
G36*
X33734Y158300D02*X36700Y161266D01*
X37266Y160700D01*
X34300Y157734D01*
X33734Y158300D01*
G37*
G36*
X29300Y113266D02*X32266Y110300D01*
X31700Y109734D01*
X28734Y112700D01*
X29300Y113266D01*
G37*
G36*
X28734Y110300D02*X31700Y113266D01*
X32266Y112700D01*
X29300Y109734D01*
X28734Y110300D01*
G37*
G36*
X24300Y113266D02*X27266Y110300D01*
X26700Y109734D01*
X23734Y112700D01*
X24300Y113266D01*
G37*
G36*
X23734Y110300D02*X26700Y113266D01*
X27266Y112700D01*
X24300Y109734D01*
X23734Y110300D01*
G37*
G36*
X34300Y113266D02*X37266Y110300D01*
X36700Y109734D01*
X33734Y112700D01*
X34300Y113266D01*
G37*
G36*
X33734Y110300D02*X36700Y113266D01*
X37266Y112700D01*
X34300Y109734D01*
X33734Y110300D01*
G37*
G36*
X24300Y121266D02*X27266Y118300D01*
X26700Y117734D01*
X23734Y120700D01*
X24300Y121266D01*
G37*
G36*
X23734Y118300D02*X26700Y121266D01*
X27266Y120700D01*
X24300Y117734D01*
X23734Y118300D01*
G37*
G36*
X29300Y121266D02*X32266Y118300D01*
X31700Y117734D01*
X28734Y120700D01*
X29300Y121266D01*
G37*
G36*
X28734Y118300D02*X31700Y121266D01*
X32266Y120700D01*
X29300Y117734D01*
X28734Y118300D01*
G37*
G36*
X34300Y121266D02*X37266Y118300D01*
X36700Y117734D01*
X33734Y120700D01*
X34300Y121266D01*
G37*
G36*
X33734Y118300D02*X36700Y121266D01*
X37266Y120700D01*
X34300Y117734D01*
X33734Y118300D01*
G37*
G36*
X29300Y73266D02*X32266Y70300D01*
X31700Y69734D01*
X28734Y72700D01*
X29300Y73266D01*
G37*
G36*
X28734Y70300D02*X31700Y73266D01*
X32266Y72700D01*
X29300Y69734D01*
X28734Y70300D01*
G37*
G36*
X24300Y73266D02*X27266Y70300D01*
X26700Y69734D01*
X23734Y72700D01*
X24300Y73266D01*
G37*
G36*
X23734Y70300D02*X26700Y73266D01*
X27266Y72700D01*
X24300Y69734D01*
X23734Y70300D01*
G37*
G36*
X34300Y73266D02*X37266Y70300D01*
X36700Y69734D01*
X33734Y72700D01*
X34300Y73266D01*
G37*
G36*
X33734Y70300D02*X36700Y73266D01*
X37266Y72700D01*
X34300Y69734D01*
X33734Y70300D01*
G37*
G36*
X24300Y81266D02*X27266Y78300D01*
X26700Y77734D01*
X23734Y80700D01*
X24300Y81266D01*
G37*
G36*
X23734Y78300D02*X26700Y81266D01*
X27266Y80700D01*
X24300Y77734D01*
X23734Y78300D01*
G37*
G36*
X29300Y81266D02*X32266Y78300D01*
X31700Y77734D01*
X28734Y80700D01*
X29300Y81266D01*
G37*
G36*
X28734Y78300D02*X31700Y81266D01*
X32266Y80700D01*
X29300Y77734D01*
X28734Y78300D01*
G37*
G36*
X34300Y81266D02*X37266Y78300D01*
X36700Y77734D01*
X33734Y80700D01*
X34300Y81266D01*
G37*
G36*
X33734Y78300D02*X36700Y81266D01*
X37266Y80700D01*
X34300Y77734D01*
X33734Y78300D01*
G37*
G36*
X29300Y33266D02*X32266Y30300D01*
X31700Y29734D01*
X28734Y32700D01*
X29300Y33266D01*
G37*
G36*
X28734Y30300D02*X31700Y33266D01*
X32266Y32700D01*
X29300Y29734D01*
X28734Y30300D01*
G37*
G36*
X24300Y33266D02*X27266Y30300D01*
X26700Y29734D01*
X23734Y32700D01*
X24300Y33266D01*
G37*
G36*
X23734Y30300D02*X26700Y33266D01*
X27266Y32700D01*
X24300Y29734D01*
X23734Y30300D01*
G37*
G36*
X34300Y33266D02*X37266Y30300D01*
X36700Y29734D01*
X33734Y32700D01*
X34300Y33266D01*
G37*
G36*
X33734Y30300D02*X36700Y33266D01*
X37266Y32700D01*
X34300Y29734D01*
X33734Y30300D01*
G37*
G36*
X24300Y41266D02*X27266Y38300D01*
X26700Y37734D01*
X23734Y40700D01*
X24300Y41266D01*
G37*
G36*
X23734Y38300D02*X26700Y41266D01*
X27266Y40700D01*
X24300Y37734D01*
X23734Y38300D01*
G37*
G36*
X29300Y41266D02*X32266Y38300D01*
X31700Y37734D01*
X28734Y40700D01*
X29300Y41266D01*
G37*
G36*
X28734Y38300D02*X31700Y41266D01*
X32266Y40700D01*
X29300Y37734D01*
X28734Y38300D01*
G37*
G36*
X34300Y41266D02*X37266Y38300D01*
X36700Y37734D01*
X33734Y40700D01*
X34300Y41266D01*
G37*
G36*
X33734Y38300D02*X36700Y41266D01*
X37266Y40700D01*
X34300Y37734D01*
X33734Y38300D01*
G37*
G36*
X13800Y299016D02*X16766Y296050D01*
X16200Y295484D01*
X13234Y298450D01*
X13800Y299016D01*
G37*
G36*
X13234Y296050D02*X16200Y299016D01*
X16766Y298450D01*
X13800Y295484D01*
X13234Y296050D01*
G37*
G54D37*X140000Y299500D02*Y293500D01*
Y299500D02*X143750Y293500D01*
Y299500D02*Y293500D01*
X145550Y298750D02*Y294250D01*
Y298750D02*X146300Y299500D01*
X147800D01*
X148550Y298750D01*
Y294250D01*
X147800Y293500D02*X148550Y294250D01*
X146300Y293500D02*X147800D01*
X145550Y294250D02*X146300Y293500D01*
X98000Y298750D02*X98750Y299500D01*
X100250D01*
X101000Y298750D01*
X100250Y293500D02*X101000Y294250D01*
X98750Y293500D02*X100250D01*
X98000Y294250D02*X98750Y293500D01*
Y296800D02*X100250D01*
X101000Y298750D02*Y297550D01*
Y296050D02*Y294250D01*
Y296050D02*X100250Y296800D01*
X101000Y297550D02*X100250Y296800D01*
X105050Y299500D02*X105800Y298750D01*
X103550Y299500D02*X105050D01*
X102800Y298750D02*X103550Y299500D01*
X102800Y298750D02*Y294250D01*
X103550Y293500D01*
X105050Y296800D02*X105800Y296050D01*
X102800Y296800D02*X105050D01*
X103550Y293500D02*X105050D01*
X105800Y294250D01*
Y296050D02*Y294250D01*
X45000D02*X45750Y293500D01*
X45000Y298750D02*Y294250D01*
Y298750D02*X45750Y299500D01*
X47250D01*
X48000Y298750D01*
Y294250D01*
X47250Y293500D02*X48000Y294250D01*
X45750Y293500D02*X47250D01*
X45000Y295000D02*X48000Y298000D01*
X49800Y293500D02*X50550D01*
X52350Y294250D02*X53100Y293500D01*
X52350Y298750D02*Y294250D01*
Y298750D02*X53100Y299500D01*
X54600D01*
X55350Y298750D01*
Y294250D01*
X54600Y293500D02*X55350Y294250D01*
X53100Y293500D02*X54600D01*
X52350Y295000D02*X55350Y298000D01*
X57150Y298750D02*X57900Y299500D01*
X59400D01*
X60150Y298750D01*
X59400Y293500D02*X60150Y294250D01*
X57900Y293500D02*X59400D01*
X57150Y294250D02*X57900Y293500D01*
Y296800D02*X59400D01*
X60150Y298750D02*Y297550D01*
Y296050D02*Y294250D01*
Y296050D02*X59400Y296800D01*
X60150Y297550D02*X59400Y296800D01*
X61950Y298300D02*X63150Y299500D01*
Y293500D01*
X61950D02*X64200D01*
X12200Y249600D02*Y246400D01*
X10600Y248000D02*X13800D01*
X12200Y254600D02*Y251400D01*
X10600Y253000D02*X13800D01*
X12200Y259600D02*Y256400D01*
X10600Y258000D02*X13800D01*
X12200Y264600D02*Y261400D01*
X10600Y263000D02*X13800D01*
X12200Y169600D02*Y166400D01*
X10600Y168000D02*X13800D01*
X12200Y174600D02*Y171400D01*
X10600Y173000D02*X13800D01*
X12200Y179600D02*Y176400D01*
X10600Y178000D02*X13800D01*
X12200Y184600D02*Y181400D01*
X10600Y183000D02*X13800D01*
X12200Y129600D02*Y126400D01*
X10600Y128000D02*X13800D01*
X12200Y134600D02*Y131400D01*
X10600Y133000D02*X13800D01*
X12200Y139600D02*Y136400D01*
X10600Y138000D02*X13800D01*
X12200Y144600D02*Y141400D01*
X10600Y143000D02*X13800D01*
X12200Y89600D02*Y86400D01*
X10600Y88000D02*X13800D01*
X12200Y94600D02*Y91400D01*
X10600Y93000D02*X13800D01*
X12200Y99600D02*Y96400D01*
X10600Y98000D02*X13800D01*
X12200Y104600D02*Y101400D01*
X10600Y103000D02*X13800D01*
X12200Y49600D02*Y46400D01*
X10600Y48000D02*X13800D01*
X12200Y54600D02*Y51400D01*
X10600Y53000D02*X13800D01*
X12200Y59600D02*Y56400D01*
X10600Y58000D02*X13800D01*
X12200Y64600D02*Y61400D01*
X10600Y63000D02*X13800D01*
X12200Y9600D02*Y6400D01*
X10600Y8000D02*X13800D01*
X12200Y14600D02*Y11400D01*
X10600Y13000D02*X13800D01*
X12200Y19600D02*Y16400D01*
X10600Y18000D02*X13800D01*
X12200Y24600D02*Y21400D01*
X10600Y23000D02*X13800D01*
X12200Y209600D02*Y206400D01*
X10600Y208000D02*X13800D01*
X12200Y214600D02*Y211400D01*
X10600Y213000D02*X13800D01*
X12200Y219600D02*Y216400D01*
X10600Y218000D02*X13800D01*
X12200Y224600D02*Y221400D01*
X10600Y223000D02*X13800D01*
X15000Y313850D02*Y310650D01*
X13400Y312250D02*X16600D01*
X135000Y314500D02*X136500Y311500D01*
X138000Y314500D01*
X136500Y311500D02*Y308500D01*
X139800Y311800D02*X142050D01*
X139800Y308500D02*X142800D01*
X139800Y314500D02*Y308500D01*
Y314500D02*X142800D01*
X147600D02*X148350Y313750D01*
X145350Y314500D02*X147600D01*
X144600Y313750D02*X145350Y314500D01*
X144600Y313750D02*Y312250D01*
X145350Y311500D01*
X147600D01*
X148350Y310750D01*
Y309250D01*
X147600Y308500D02*X148350Y309250D01*
X145350Y308500D02*X147600D01*
X144600Y309250D02*X145350Y308500D01*
X98000Y313750D02*X98750Y314500D01*
X101000D01*
X101750Y313750D01*
Y312250D01*
X98000Y308500D02*X101750Y312250D01*
X98000Y308500D02*X101750D01*
X103550Y309250D02*X104300Y308500D01*
X103550Y310450D02*Y309250D01*
Y310450D02*X104600Y311500D01*
X105500D01*
X106550Y310450D01*
Y309250D01*
X105800Y308500D02*X106550Y309250D01*
X104300Y308500D02*X105800D01*
X103550Y312550D02*X104600Y311500D01*
X103550Y313750D02*Y312550D01*
Y313750D02*X104300Y314500D01*
X105800D01*
X106550Y313750D01*
Y312550D01*
X105500Y311500D02*X106550Y312550D01*
X45000Y309250D02*X45750Y308500D01*
X45000Y313750D02*Y309250D01*
Y313750D02*X45750Y314500D01*
X47250D01*
X48000Y313750D01*
Y309250D01*
X47250Y308500D02*X48000Y309250D01*
X45750Y308500D02*X47250D01*
X45000Y310000D02*X48000Y313000D01*
X49800Y308500D02*X50550D01*
X52350Y309250D02*X53100Y308500D01*
X52350Y313750D02*Y309250D01*
Y313750D02*X53100Y314500D01*
X54600D01*
X55350Y313750D01*
Y309250D01*
X54600Y308500D02*X55350Y309250D01*
X53100Y308500D02*X54600D01*
X52350Y310000D02*X55350Y313000D01*
X57150Y313750D02*X57900Y314500D01*
X60150D01*
X60900Y313750D01*
Y312250D01*
X57150Y308500D02*X60900Y312250D01*
X57150Y308500D02*X60900D01*
X62700Y310750D02*X65700Y314500D01*
X62700Y310750D02*X66450D01*
X65700Y314500D02*Y308500D01*
X40500Y245000D02*Y243400D01*
Y245000D02*X41887Y245800D01*
X40500Y245000D02*X39113Y245800D01*
X46000Y245000D02*Y243400D01*
Y245000D02*X47387Y245800D01*
X46000Y245000D02*X44613Y245800D01*
X40500Y165000D02*Y163400D01*
Y165000D02*X41887Y165800D01*
X40500Y165000D02*X39113Y165800D01*
X46000Y165000D02*Y163400D01*
Y165000D02*X47387Y165800D01*
X46000Y165000D02*X44613Y165800D01*
X40500Y125000D02*Y123400D01*
Y125000D02*X41887Y125800D01*
X40500Y125000D02*X39113Y125800D01*
X46000Y125000D02*Y123400D01*
Y125000D02*X47387Y125800D01*
X46000Y125000D02*X44613Y125800D01*
X40500Y85000D02*Y83400D01*
Y85000D02*X41887Y85800D01*
X40500Y85000D02*X39113Y85800D01*
X46000Y85000D02*Y83400D01*
Y85000D02*X47387Y85800D01*
X46000Y85000D02*X44613Y85800D01*
X40500Y45000D02*Y43400D01*
Y45000D02*X41887Y45800D01*
X40500Y45000D02*X39113Y45800D01*
X46000Y45000D02*Y43400D01*
Y45000D02*X47387Y45800D01*
X46000Y45000D02*X44613Y45800D01*
X40500Y5000D02*Y3400D01*
Y5000D02*X41887Y5800D01*
X40500Y5000D02*X39113Y5800D01*
X46000Y5000D02*Y3400D01*
Y5000D02*X47387Y5800D01*
X46000Y5000D02*X44613Y5800D01*
X40500Y205000D02*Y203400D01*
Y205000D02*X41887Y205800D01*
X40500Y205000D02*X39113Y205800D01*
X46000Y205000D02*Y203400D01*
Y205000D02*X47387Y205800D01*
X46000Y205000D02*X44613Y205800D01*
X15000Y327250D02*Y325650D01*
Y327250D02*X16387Y328050D01*
X15000Y327250D02*X13613Y328050D01*
X135000Y329500D02*X136500Y326500D01*
X138000Y329500D01*
X136500Y326500D02*Y323500D01*
X139800Y326800D02*X142050D01*
X139800Y323500D02*X142800D01*
X139800Y329500D02*Y323500D01*
Y329500D02*X142800D01*
X147600D02*X148350Y328750D01*
X145350Y329500D02*X147600D01*
X144600Y328750D02*X145350Y329500D01*
X144600Y328750D02*Y327250D01*
X145350Y326500D01*
X147600D01*
X148350Y325750D01*
Y324250D01*
X147600Y323500D02*X148350Y324250D01*
X145350Y323500D02*X147600D01*
X144600Y324250D02*X145350Y323500D01*
X98000Y328300D02*X99200Y329500D01*
Y323500D01*
X98000D02*X100250D01*
X102050Y325750D02*X105050Y329500D01*
X102050Y325750D02*X105800D01*
X105050Y329500D02*Y323500D01*
X45000Y324250D02*X45750Y323500D01*
X45000Y328750D02*Y324250D01*
Y328750D02*X45750Y329500D01*
X47250D01*
X48000Y328750D01*
Y324250D01*
X47250Y323500D02*X48000Y324250D01*
X45750Y323500D02*X47250D01*
X45000Y325000D02*X48000Y328000D01*
X49800Y323500D02*X50550D01*
X52350Y324250D02*X53100Y323500D01*
X52350Y328750D02*Y324250D01*
Y328750D02*X53100Y329500D01*
X54600D01*
X55350Y328750D01*
Y324250D01*
X54600Y323500D02*X55350Y324250D01*
X53100Y323500D02*X54600D01*
X52350Y325000D02*X55350Y328000D01*
X57150Y328750D02*X57900Y329500D01*
X60150D01*
X60900Y328750D01*
Y327250D01*
X57150Y323500D02*X60900Y327250D01*
X57150Y323500D02*X60900D01*
X62700Y324250D02*X63450Y323500D01*
X62700Y328750D02*Y324250D01*
Y328750D02*X63450Y329500D01*
X64950D01*
X65700Y328750D01*
Y324250D01*
X64950Y323500D02*X65700Y324250D01*
X63450Y323500D02*X64950D01*
X62700Y325000D02*X65700Y328000D01*
X3000Y344500D02*X3750Y343750D01*
X750Y344500D02*X3000D01*
X0Y343750D02*X750Y344500D01*
X0Y343750D02*Y342250D01*
X750Y341500D01*
X3000D01*
X3750Y340750D01*
Y339250D01*
X3000Y338500D02*X3750Y339250D01*
X750Y338500D02*X3000D01*
X0Y339250D02*X750Y338500D01*
X5550Y341500D02*Y339250D01*
X6300Y338500D01*
X8550Y341500D02*Y337000D01*
X7800Y336250D02*X8550Y337000D01*
X6300Y336250D02*X7800D01*
X5550Y337000D02*X6300Y336250D01*
Y338500D02*X7800D01*
X8550Y339250D01*
X11100Y340750D02*Y338500D01*
Y340750D02*X11850Y341500D01*
X12600D01*
X13350Y340750D01*
Y338500D01*
Y340750D02*X14100Y341500D01*
X14850D01*
X15600Y340750D01*
Y338500D01*
X10350Y341500D02*X11100Y340750D01*
X17400Y344500D02*Y338500D01*
Y339250D02*X18150Y338500D01*
X19650D01*
X20400Y339250D01*
Y340750D02*Y339250D01*
X19650Y341500D02*X20400Y340750D01*
X18150Y341500D02*X19650D01*
X17400Y340750D02*X18150Y341500D01*
X22200Y340750D02*Y339250D01*
Y340750D02*X22950Y341500D01*
X24450D01*
X25200Y340750D01*
Y339250D01*
X24450Y338500D02*X25200Y339250D01*
X22950Y338500D02*X24450D01*
X22200Y339250D02*X22950Y338500D01*
X27000Y344500D02*Y339250D01*
X27750Y338500D01*
X0Y335250D02*X29250D01*
X41750Y344500D02*Y338500D01*
X43700Y344500D02*X44750Y343450D01*
Y339550D01*
X43700Y338500D02*X44750Y339550D01*
X41000Y338500D02*X43700D01*
X41000Y344500D02*X43700D01*
G54D38*X46550Y343000D02*Y342850D01*
G54D37*Y340750D02*Y338500D01*
X50300Y341500D02*X51050Y340750D01*
X48800Y341500D02*X50300D01*
X48050Y340750D02*X48800Y341500D01*
X48050Y340750D02*Y339250D01*
X48800Y338500D01*
X51050Y341500D02*Y339250D01*
X51800Y338500D01*
X48800D02*X50300D01*
X51050Y339250D01*
X54350Y340750D02*Y338500D01*
Y340750D02*X55100Y341500D01*
X55850D01*
X56600Y340750D01*
Y338500D01*
Y340750D02*X57350Y341500D01*
X58100D01*
X58850Y340750D01*
Y338500D01*
X53600Y341500D02*X54350Y340750D01*
X60650Y338500D02*X61400D01*
X65900Y339250D02*X66650Y338500D01*
X65900Y343750D02*X66650Y344500D01*
X65900Y343750D02*Y339250D01*
X68450Y344500D02*X69950D01*
X69200D02*Y338500D01*
X68450D02*X69950D01*
X72500Y340750D02*Y338500D01*
Y340750D02*X73250Y341500D01*
X74000D01*
X74750Y340750D01*
Y338500D01*
X71750Y341500D02*X72500Y340750D01*
X77300Y341500D02*X79550D01*
X76550Y340750D02*X77300Y341500D01*
X76550Y340750D02*Y339250D01*
X77300Y338500D01*
X79550D01*
X81350Y344500D02*Y338500D01*
Y340750D02*X82100Y341500D01*
X83600D01*
X84350Y340750D01*
Y338500D01*
X86150Y344500D02*X86900Y343750D01*
Y339250D01*
X86150Y338500D02*X86900Y339250D01*
X41000Y335250D02*X88700D01*
X96050Y338500D02*X98000D01*
X95000Y339550D02*X96050Y338500D01*
X95000Y343450D02*Y339550D01*
Y343450D02*X96050Y344500D01*
X98000D01*
X99800Y340750D02*Y339250D01*
Y340750D02*X100550Y341500D01*
X102050D01*
X102800Y340750D01*
Y339250D01*
X102050Y338500D02*X102800Y339250D01*
X100550Y338500D02*X102050D01*
X99800Y339250D02*X100550Y338500D01*
X104600Y341500D02*Y339250D01*
X105350Y338500D01*
X106850D01*
X107600Y339250D01*
Y341500D02*Y339250D01*
X110150Y340750D02*Y338500D01*
Y340750D02*X110900Y341500D01*
X111650D01*
X112400Y340750D01*
Y338500D01*
X109400Y341500D02*X110150Y340750D01*
X114950Y344500D02*Y339250D01*
X115700Y338500D01*
X114200Y342250D02*X115700D01*
X95000Y335250D02*X117200D01*
X130750Y344500D02*Y338500D01*
X130000Y344500D02*X133000D01*
X133750Y343750D01*
Y342250D01*
X133000Y341500D02*X133750Y342250D01*
X130750Y341500D02*X133000D01*
X135550Y344500D02*Y339250D01*
X136300Y338500D01*
X140050Y341500D02*X140800Y340750D01*
X138550Y341500D02*X140050D01*
X137800Y340750D02*X138550Y341500D01*
X137800Y340750D02*Y339250D01*
X138550Y338500D01*
X140800Y341500D02*Y339250D01*
X141550Y338500D01*
X138550D02*X140050D01*
X140800Y339250D01*
X144100Y344500D02*Y339250D01*
X144850Y338500D01*
X143350Y342250D02*X144850D01*
X147100Y338500D02*X149350D01*
X146350Y339250D02*X147100Y338500D01*
X146350Y340750D02*Y339250D01*
Y340750D02*X147100Y341500D01*
X148600D01*
X149350Y340750D01*
X146350Y340000D02*X149350D01*
Y340750D02*Y340000D01*
X154150Y344500D02*Y338500D01*
X153400D02*X154150Y339250D01*
X151900Y338500D02*X153400D01*
X151150Y339250D02*X151900Y338500D01*
X151150Y340750D02*Y339250D01*
Y340750D02*X151900Y341500D01*
X153400D01*
X154150Y340750D01*
X157450Y341500D02*Y340750D01*
Y339250D02*Y338500D01*
X155950Y343750D02*Y343000D01*
Y343750D02*X156700Y344500D01*
X158200D01*
X158950Y343750D01*
Y343000D01*
X157450Y341500D02*X158950Y343000D01*
X130000Y335250D02*X160750D01*
X0Y359500D02*X3000D01*
X1500D02*Y353500D01*
X4800Y359500D02*Y353500D01*
Y355750D02*X5550Y356500D01*
X7050D01*
X7800Y355750D01*
Y353500D01*
X10350D02*X12600D01*
X9600Y354250D02*X10350Y353500D01*
X9600Y355750D02*Y354250D01*
Y355750D02*X10350Y356500D01*
X11850D01*
X12600Y355750D01*
X9600Y355000D02*X12600D01*
Y355750D02*Y355000D01*
X15150Y355750D02*Y353500D01*
Y355750D02*X15900Y356500D01*
X17400D01*
X14400D02*X15150Y355750D01*
X19950Y353500D02*X22200D01*
X19200Y354250D02*X19950Y353500D01*
X19200Y355750D02*Y354250D01*
Y355750D02*X19950Y356500D01*
X21450D01*
X22200Y355750D01*
X19200Y355000D02*X22200D01*
Y355750D02*Y355000D01*
X28950Y356500D02*X29700Y355750D01*
X27450Y356500D02*X28950D01*
X26700Y355750D02*X27450Y356500D01*
X26700Y355750D02*Y354250D01*
X27450Y353500D01*
X29700Y356500D02*Y354250D01*
X30450Y353500D01*
X27450D02*X28950D01*
X29700Y354250D01*
X33000Y355750D02*Y353500D01*
Y355750D02*X33750Y356500D01*
X35250D01*
X32250D02*X33000Y355750D01*
X37800Y353500D02*X40050D01*
X37050Y354250D02*X37800Y353500D01*
X37050Y355750D02*Y354250D01*
Y355750D02*X37800Y356500D01*
X39300D01*
X40050Y355750D01*
X37050Y355000D02*X40050D01*
Y355750D02*Y355000D01*
X44550Y358750D02*X45300Y359500D01*
X46800D01*
X47550Y358750D01*
X46800Y353500D02*X47550Y354250D01*
X45300Y353500D02*X46800D01*
X44550Y354250D02*X45300Y353500D01*
Y356800D02*X46800D01*
X47550Y358750D02*Y357550D01*
Y356050D02*Y354250D01*
Y356050D02*X46800Y356800D01*
X47550Y357550D02*X46800Y356800D01*
X55050Y359500D02*Y353500D01*
X54300D02*X55050Y354250D01*
X52800Y353500D02*X54300D01*
X52050Y354250D02*X52800Y353500D01*
X52050Y355750D02*Y354250D01*
Y355750D02*X52800Y356500D01*
X54300D01*
X55050Y355750D01*
G54D38*X56850Y358000D02*Y357850D01*
G54D37*Y355750D02*Y353500D01*
X59100Y358750D02*Y353500D01*
Y358750D02*X59850Y359500D01*
X60600D01*
X58350Y356500D02*X59850D01*
X62850Y358750D02*Y353500D01*
Y358750D02*X63600Y359500D01*
X64350D01*
X62100Y356500D02*X63600D01*
X66600Y353500D02*X68850D01*
X65850Y354250D02*X66600Y353500D01*
X65850Y355750D02*Y354250D01*
Y355750D02*X66600Y356500D01*
X68100D01*
X68850Y355750D01*
X65850Y355000D02*X68850D01*
Y355750D02*Y355000D01*
X71400Y355750D02*Y353500D01*
Y355750D02*X72150Y356500D01*
X73650D01*
X70650D02*X71400Y355750D01*
X76200Y353500D02*X78450D01*
X75450Y354250D02*X76200Y353500D01*
X75450Y355750D02*Y354250D01*
Y355750D02*X76200Y356500D01*
X77700D01*
X78450Y355750D01*
X75450Y355000D02*X78450D01*
Y355750D02*Y355000D01*
X81000Y355750D02*Y353500D01*
Y355750D02*X81750Y356500D01*
X82500D01*
X83250Y355750D01*
Y353500D01*
X80250Y356500D02*X81000Y355750D01*
X85800Y359500D02*Y354250D01*
X86550Y353500D01*
X85050Y357250D02*X86550D01*
X93750Y359500D02*Y353500D01*
X93000D02*X93750Y354250D01*
X91500Y353500D02*X93000D01*
X90750Y354250D02*X91500Y353500D01*
X90750Y355750D02*Y354250D01*
Y355750D02*X91500Y356500D01*
X93000D01*
X93750Y355750D01*
X96300D02*Y353500D01*
Y355750D02*X97050Y356500D01*
X98550D01*
X95550D02*X96300Y355750D01*
G54D38*X100350Y358000D02*Y357850D01*
G54D37*Y355750D02*Y353500D01*
X101850Y359500D02*Y354250D01*
X102600Y353500D01*
X104100Y359500D02*Y354250D01*
X104850Y353500D01*
X109800D02*X112050D01*
X112800Y354250D01*
X112050Y355000D02*X112800Y354250D01*
X109800Y355000D02*X112050D01*
X109050Y355750D02*X109800Y355000D01*
X109050Y355750D02*X109800Y356500D01*
X112050D01*
X112800Y355750D01*
X109050Y354250D02*X109800Y353500D01*
G54D38*X114600Y358000D02*Y357850D01*
G54D37*Y355750D02*Y353500D01*
X116100Y356500D02*X119100D01*
X116100Y353500D02*X119100Y356500D01*
X116100Y353500D02*X119100D01*
X121650D02*X123900D01*
X120900Y354250D02*X121650Y353500D01*
X120900Y355750D02*Y354250D01*
Y355750D02*X121650Y356500D01*
X123150D01*
X123900Y355750D01*
X120900Y355000D02*X123900D01*
Y355750D02*Y355000D01*
X126450Y353500D02*X128700D01*
X129450Y354250D01*
X128700Y355000D02*X129450Y354250D01*
X126450Y355000D02*X128700D01*
X125700Y355750D02*X126450Y355000D01*
X125700Y355750D02*X126450Y356500D01*
X128700D01*
X129450Y355750D01*
X125700Y354250D02*X126450Y353500D01*
X133950Y356500D02*Y354250D01*
X134700Y353500D01*
X136200D01*
X136950Y354250D01*
Y356500D02*Y354250D01*
X139500Y353500D02*X141750D01*
X142500Y354250D01*
X141750Y355000D02*X142500Y354250D01*
X139500Y355000D02*X141750D01*
X138750Y355750D02*X139500Y355000D01*
X138750Y355750D02*X139500Y356500D01*
X141750D01*
X142500Y355750D01*
X138750Y354250D02*X139500Y353500D01*
X145050D02*X147300D01*
X144300Y354250D02*X145050Y353500D01*
X144300Y355750D02*Y354250D01*
Y355750D02*X145050Y356500D01*
X146550D01*
X147300Y355750D01*
X144300Y355000D02*X147300D01*
Y355750D02*Y355000D01*
X152100Y359500D02*Y353500D01*
X151350D02*X152100Y354250D01*
X149850Y353500D02*X151350D01*
X149100Y354250D02*X149850Y353500D01*
X149100Y355750D02*Y354250D01*
Y355750D02*X149850Y356500D01*
X151350D01*
X152100Y355750D01*
G54D38*X156600Y358000D02*Y357850D01*
G54D37*Y355750D02*Y353500D01*
X158850Y355750D02*Y353500D01*
Y355750D02*X159600Y356500D01*
X160350D01*
X161100Y355750D01*
Y353500D01*
X158100Y356500D02*X158850Y355750D01*
X166350Y359500D02*Y354250D01*
X167100Y353500D01*
X165600Y357250D02*X167100D01*
X168600Y359500D02*Y353500D01*
Y355750D02*X169350Y356500D01*
X170850D01*
X171600Y355750D01*
Y353500D01*
G54D38*X173400Y358000D02*Y357850D01*
G54D37*Y355750D02*Y353500D01*
X175650D02*X177900D01*
X178650Y354250D01*
X177900Y355000D02*X178650Y354250D01*
X175650Y355000D02*X177900D01*
X174900Y355750D02*X175650Y355000D01*
X174900Y355750D02*X175650Y356500D01*
X177900D01*
X178650Y355750D01*
X174900Y354250D02*X175650Y353500D01*
X183150Y359500D02*Y354250D01*
X183900Y353500D01*
X187650Y356500D02*X188400Y355750D01*
X186150Y356500D02*X187650D01*
X185400Y355750D02*X186150Y356500D01*
X185400Y355750D02*Y354250D01*
X186150Y353500D01*
X188400Y356500D02*Y354250D01*
X189150Y353500D01*
X186150D02*X187650D01*
X188400Y354250D01*
X190950Y356500D02*Y354250D01*
X191700Y353500D01*
X193950Y356500D02*Y352000D01*
X193200Y351250D02*X193950Y352000D01*
X191700Y351250D02*X193200D01*
X190950Y352000D02*X191700Y351250D01*
Y353500D02*X193200D01*
X193950Y354250D01*
X195750Y355750D02*Y354250D01*
Y355750D02*X196500Y356500D01*
X198000D01*
X198750Y355750D01*
Y354250D01*
X198000Y353500D02*X198750Y354250D01*
X196500Y353500D02*X198000D01*
X195750Y354250D02*X196500Y353500D01*
X200550Y356500D02*Y354250D01*
X201300Y353500D01*
X202800D01*
X203550Y354250D01*
Y356500D02*Y354250D01*
X206100Y359500D02*Y354250D01*
X206850Y353500D01*
X205350Y357250D02*X206850D01*
X208350Y352000D02*X209850Y353500D01*
X215100D02*X218100Y359500D01*
X214350D02*X218100D01*
X219900Y354250D02*X220650Y353500D01*
X219900Y355450D02*Y354250D01*
Y355450D02*X220950Y356500D01*
X221850D01*
X222900Y355450D01*
Y354250D01*
X222150Y353500D02*X222900Y354250D01*
X220650Y353500D02*X222150D01*
X219900Y357550D02*X220950Y356500D01*
X219900Y358750D02*Y357550D01*
Y358750D02*X220650Y359500D01*
X222150D01*
X222900Y358750D01*
Y357550D01*
X221850Y356500D02*X222900Y357550D01*
X227400Y359500D02*Y353500D01*
Y355750D02*X228150Y356500D01*
X229650D01*
X230400Y355750D01*
Y353500D01*
X232200Y355750D02*Y354250D01*
Y355750D02*X232950Y356500D01*
X234450D01*
X235200Y355750D01*
Y354250D01*
X234450Y353500D02*X235200Y354250D01*
X232950Y353500D02*X234450D01*
X232200Y354250D02*X232950Y353500D01*
X237000Y359500D02*Y354250D01*
X237750Y353500D01*
X240000D02*X242250D01*
X239250Y354250D02*X240000Y353500D01*
X239250Y355750D02*Y354250D01*
Y355750D02*X240000Y356500D01*
X241500D01*
X242250Y355750D01*
X239250Y355000D02*X242250D01*
Y355750D02*Y355000D01*
X244800Y353500D02*X247050D01*
X247800Y354250D01*
X247050Y355000D02*X247800Y354250D01*
X244800Y355000D02*X247050D01*
X244050Y355750D02*X244800Y355000D01*
X244050Y355750D02*X244800Y356500D01*
X247050D01*
X247800Y355750D01*
X244050Y354250D02*X244800Y353500D01*
X253050Y359500D02*Y354250D01*
X253800Y353500D01*
X252300Y357250D02*X253800D01*
X255300Y355750D02*Y354250D01*
Y355750D02*X256050Y356500D01*
X257550D01*
X258300Y355750D01*
Y354250D01*
X257550Y353500D02*X258300Y354250D01*
X256050Y353500D02*X257550D01*
X255300Y354250D02*X256050Y353500D01*
X260850Y359500D02*Y354250D01*
X261600Y353500D01*
X260100Y357250D02*X261600D01*
X265350Y356500D02*X266100Y355750D01*
X263850Y356500D02*X265350D01*
X263100Y355750D02*X263850Y356500D01*
X263100Y355750D02*Y354250D01*
X263850Y353500D01*
X266100Y356500D02*Y354250D01*
X266850Y353500D01*
X263850D02*X265350D01*
X266100Y354250D01*
X268650Y359500D02*Y354250D01*
X269400Y353500D01*
G54D39*X500Y270500D02*X60500D01*
Y240500D01*
X40500D01*
X500Y270500D02*Y240500D01*
X20500D01*
X60500Y190500D02*Y160500D01*
X40500D01*
X500Y190500D02*Y160500D01*
X20500D01*
Y150500D02*X500D01*
Y120500D01*
X20500D01*
X40500D02*X60500D01*
Y150500D01*
X40500D01*
X60500Y190500D02*X41000D01*
X500D02*X21000D01*
X20500Y110500D02*X500D01*
Y80500D01*
X20500D01*
X40500D02*X60500D01*
Y110500D01*
X40000D02*X60500D01*
Y70500D02*Y40500D01*
X40500D01*
X500Y70500D02*Y40500D01*
X20500D01*
Y30500D02*X500D01*
Y500D01*
X40500D02*X60500D01*
Y30500D01*
X40500D01*
X60500Y70500D02*X41000D01*
X500D02*X21000D01*
X500Y500D02*X43000D01*
X20500Y230500D02*X500D01*
Y200500D01*
X20500D01*
X40500D02*X60500D01*
Y230500D01*
X40000D02*X60500D01*
X35500Y235500D02*G75*G03X40500Y230500I5000J0D01*G01*
X35500Y235500D02*G75*G02X40500Y240500I5000J0D01*G01*
X25500Y235500D02*G75*G02X20500Y230500I-5000J0D01*G01*
X25500Y235500D02*G75*G03X20500Y240500I-5000J0D01*G01*
X36000Y195500D02*G75*G03X41000Y190500I5000J0D01*G01*
X36000Y195500D02*G75*G02X41000Y200500I5000J0D01*G01*
X26000Y195500D02*G75*G02X21000Y190500I-5000J0D01*G01*
X26000Y195500D02*G75*G03X21000Y200500I-5000J0D01*G01*
X35500Y155500D02*G75*G03X40500Y150500I5000J0D01*G01*
X35500Y155500D02*G75*G02X40500Y160500I5000J0D01*G01*
X25500Y155500D02*G75*G02X20500Y150500I-5000J0D01*G01*
X25500Y155500D02*G75*G03X20500Y160500I-5000J0D01*G01*
X35500Y115500D02*G75*G03X40500Y110500I5000J0D01*G01*
X35500Y115500D02*G75*G02X40500Y120500I5000J0D01*G01*
X25500Y115500D02*G75*G02X20500Y110500I-5000J0D01*G01*
X25500Y115500D02*G75*G03X20500Y120500I-5000J0D01*G01*
X35500Y75500D02*G75*G03X40500Y70500I5000J0D01*G01*
X35500Y75500D02*G75*G02X40500Y80500I5000J0D01*G01*
X25500Y75500D02*G75*G02X20500Y70500I-5000J0D01*G01*
X25500Y75500D02*G75*G03X20500Y80500I-5000J0D01*G01*
X35500Y35500D02*G75*G03X40500Y30500I5000J0D01*G01*
X35500Y35500D02*G75*G02X40500Y40500I5000J0D01*G01*
X25500Y35500D02*G75*G02X20500Y30500I-5000J0D01*G01*
X25500Y35500D02*G75*G03X20500Y40500I-5000J0D01*G01*
G54D37*X0Y-9500D02*X3000D01*
X3750Y-8750D01*
Y-6950D02*Y-8750D01*
X3000Y-6200D02*X3750Y-6950D01*
X750Y-6200D02*X3000D01*
X750Y-3500D02*Y-9500D01*
X0Y-3500D02*X3000D01*
X3750Y-4250D01*
Y-5450D01*
X3000Y-6200D02*X3750Y-5450D01*
X5550Y-7250D02*Y-8750D01*
Y-7250D02*X6300Y-6500D01*
X7800D01*
X8550Y-7250D01*
Y-8750D01*
X7800Y-9500D02*X8550Y-8750D01*
X6300Y-9500D02*X7800D01*
X5550Y-8750D02*X6300Y-9500D01*
X12600Y-6500D02*X13350Y-7250D01*
X11100Y-6500D02*X12600D01*
X10350Y-7250D02*X11100Y-6500D01*
X10350Y-7250D02*Y-8750D01*
X11100Y-9500D01*
X13350Y-6500D02*Y-8750D01*
X14100Y-9500D01*
X11100D02*X12600D01*
X13350Y-8750D01*
X16650Y-7250D02*Y-9500D01*
Y-7250D02*X17400Y-6500D01*
X18900D01*
X15900D02*X16650Y-7250D01*
X23700Y-3500D02*Y-9500D01*
X22950D02*X23700Y-8750D01*
X21450Y-9500D02*X22950D01*
X20700Y-8750D02*X21450Y-9500D01*
X20700Y-7250D02*Y-8750D01*
Y-7250D02*X21450Y-6500D01*
X22950D01*
X23700Y-7250D01*
X28200D02*Y-8750D01*
Y-7250D02*X28950Y-6500D01*
X30450D01*
X31200Y-7250D01*
Y-8750D01*
X30450Y-9500D02*X31200Y-8750D01*
X28950Y-9500D02*X30450D01*
X28200Y-8750D02*X28950Y-9500D01*
X33000Y-6500D02*Y-8750D01*
X33750Y-9500D01*
X35250D01*
X36000Y-8750D01*
Y-6500D02*Y-8750D01*
X38550Y-3500D02*Y-8750D01*
X39300Y-9500D01*
X37800Y-5750D02*X39300D01*
X40800Y-3500D02*Y-8750D01*
X41550Y-9500D01*
G54D38*X43050Y-5000D02*Y-5150D01*
G54D37*Y-7250D02*Y-9500D01*
X45300Y-7250D02*Y-9500D01*
Y-7250D02*X46050Y-6500D01*
X46800D01*
X47550Y-7250D01*
Y-9500D01*
X44550Y-6500D02*X45300Y-7250D01*
X50100Y-9500D02*X52350D01*
X49350Y-8750D02*X50100Y-9500D01*
X49350Y-7250D02*Y-8750D01*
Y-7250D02*X50100Y-6500D01*
X51600D01*
X52350Y-7250D01*
X49350Y-8000D02*X52350D01*
Y-7250D02*Y-8000D01*
G54D38*X56850Y-5000D02*Y-5150D01*
G54D37*Y-7250D02*Y-9500D01*
X59100D02*X61350D01*
X62100Y-8750D01*
X61350Y-8000D02*X62100Y-8750D01*
X59100Y-8000D02*X61350D01*
X58350Y-7250D02*X59100Y-8000D01*
X58350Y-7250D02*X59100Y-6500D01*
X61350D01*
X62100Y-7250D01*
X58350Y-8750D02*X59100Y-9500D01*
X67350Y-3500D02*Y-8750D01*
X68100Y-9500D01*
X66600Y-5750D02*X68100D01*
X69600Y-3500D02*Y-9500D01*
Y-7250D02*X70350Y-6500D01*
X71850D01*
X72600Y-7250D01*
Y-9500D01*
X75150D02*X77400D01*
X74400Y-8750D02*X75150Y-9500D01*
X74400Y-7250D02*Y-8750D01*
Y-7250D02*X75150Y-6500D01*
X76650D01*
X77400Y-7250D01*
X74400Y-8000D02*X77400D01*
Y-7250D02*Y-8000D01*
X82650Y-6500D02*X84900D01*
X81900Y-7250D02*X82650Y-6500D01*
X81900Y-7250D02*Y-8750D01*
X82650Y-9500D01*
X84900D01*
X87450D02*X89700D01*
X86700Y-8750D02*X87450Y-9500D01*
X86700Y-7250D02*Y-8750D01*
Y-7250D02*X87450Y-6500D01*
X88950D01*
X89700Y-7250D01*
X86700Y-8000D02*X89700D01*
Y-7250D02*Y-8000D01*
X92250Y-7250D02*Y-9500D01*
Y-7250D02*X93000Y-6500D01*
X93750D01*
X94500Y-7250D01*
Y-9500D01*
X91500Y-6500D02*X92250Y-7250D01*
X97050Y-3500D02*Y-8750D01*
X97800Y-9500D01*
X96300Y-5750D02*X97800D01*
X100050Y-9500D02*X102300D01*
X99300Y-8750D02*X100050Y-9500D01*
X99300Y-7250D02*Y-8750D01*
Y-7250D02*X100050Y-6500D01*
X101550D01*
X102300Y-7250D01*
X99300Y-8000D02*X102300D01*
Y-7250D02*Y-8000D01*
X104850Y-7250D02*Y-9500D01*
Y-7250D02*X105600Y-6500D01*
X107100D01*
X104100D02*X104850Y-7250D01*
X108900Y-3500D02*Y-8750D01*
X109650Y-9500D01*
G54D38*X111150Y-5000D02*Y-5150D01*
G54D37*Y-7250D02*Y-9500D01*
X113400Y-7250D02*Y-9500D01*
Y-7250D02*X114150Y-6500D01*
X114900D01*
X115650Y-7250D01*
Y-9500D01*
X112650Y-6500D02*X113400Y-7250D01*
X118200Y-9500D02*X120450D01*
X117450Y-8750D02*X118200Y-9500D01*
X117450Y-7250D02*Y-8750D01*
Y-7250D02*X118200Y-6500D01*
X119700D01*
X120450Y-7250D01*
X117450Y-8000D02*X120450D01*
Y-7250D02*Y-8000D01*
X124950Y-7250D02*Y-8750D01*
Y-7250D02*X125700Y-6500D01*
X127200D01*
X127950Y-7250D01*
Y-8750D01*
X127200Y-9500D02*X127950Y-8750D01*
X125700Y-9500D02*X127200D01*
X124950Y-8750D02*X125700Y-9500D01*
X130500Y-4250D02*Y-9500D01*
Y-4250D02*X131250Y-3500D01*
X132000D01*
X129750Y-6500D02*X131250D01*
X136950Y-3500D02*Y-8750D01*
X137700Y-9500D01*
X136200Y-5750D02*X137700D01*
X139200Y-3500D02*Y-9500D01*
Y-7250D02*X139950Y-6500D01*
X141450D01*
X142200Y-7250D01*
Y-9500D01*
G54D38*X144000Y-5000D02*Y-5150D01*
G54D37*Y-7250D02*Y-9500D01*
X146250D02*X148500D01*
X149250Y-8750D01*
X148500Y-8000D02*X149250Y-8750D01*
X146250Y-8000D02*X148500D01*
X145500Y-7250D02*X146250Y-8000D01*
X145500Y-7250D02*X146250Y-6500D01*
X148500D01*
X149250Y-7250D01*
X145500Y-8750D02*X146250Y-9500D01*
X154500Y-7250D02*Y-11750D01*
X153750Y-6500D02*X154500Y-7250D01*
X155250Y-6500D01*
X156750D01*
X157500Y-7250D01*
Y-8750D01*
X156750Y-9500D02*X157500Y-8750D01*
X155250Y-9500D02*X156750D01*
X154500Y-8750D02*X155250Y-9500D01*
X161550Y-6500D02*X162300Y-7250D01*
X160050Y-6500D02*X161550D01*
X159300Y-7250D02*X160050Y-6500D01*
X159300Y-7250D02*Y-8750D01*
X160050Y-9500D01*
X162300Y-6500D02*Y-8750D01*
X163050Y-9500D01*
X160050D02*X161550D01*
X162300Y-8750D01*
X165600Y-3500D02*Y-8750D01*
X166350Y-9500D01*
X164850Y-5750D02*X166350D01*
X167850Y-3500D02*Y-9500D01*
Y-7250D02*X168600Y-6500D01*
X170100D01*
X170850Y-7250D01*
Y-9500D01*
X200750Y299500D02*Y293500D01*
X202700Y299500D02*X203750Y298450D01*
Y294550D01*
X202700Y293500D02*X203750Y294550D01*
X200000Y293500D02*X202700D01*
X200000Y299500D02*X202700D01*
X207800Y296500D02*X208550Y295750D01*
X206300Y296500D02*X207800D01*
X205550Y295750D02*X206300Y296500D01*
X205550Y295750D02*Y294250D01*
X206300Y293500D01*
X208550Y296500D02*Y294250D01*
X209300Y293500D01*
X206300D02*X207800D01*
X208550Y294250D01*
X211850Y299500D02*Y294250D01*
X212600Y293500D01*
X211100Y297250D02*X212600D01*
X214850Y293500D02*X217100D01*
X214100Y294250D02*X214850Y293500D01*
X214100Y295750D02*Y294250D01*
Y295750D02*X214850Y296500D01*
X216350D01*
X217100Y295750D01*
X214100Y295000D02*X217100D01*
Y295750D02*Y295000D01*
X218900Y297250D02*X219650D01*
X218900Y295750D02*X219650D01*
X224150Y299500D02*Y296500D01*
X224900Y293500D01*
X226400Y296500D01*
X227900Y293500D01*
X228650Y296500D01*
Y299500D02*Y296500D01*
X231200Y293500D02*X233450D01*
X230450Y294250D02*X231200Y293500D01*
X230450Y295750D02*Y294250D01*
Y295750D02*X231200Y296500D01*
X232700D01*
X233450Y295750D01*
X230450Y295000D02*X233450D01*
Y295750D02*Y295000D01*
X238250Y299500D02*Y293500D01*
X237500D02*X238250Y294250D01*
X236000Y293500D02*X237500D01*
X235250Y294250D02*X236000Y293500D01*
X235250Y295750D02*Y294250D01*
Y295750D02*X236000Y296500D01*
X237500D01*
X238250Y295750D01*
X242750Y298750D02*Y294250D01*
Y298750D02*X243500Y299500D01*
X245000D01*
X245750Y298750D01*
Y294250D01*
X245000Y293500D02*X245750Y294250D01*
X243500Y293500D02*X245000D01*
X242750Y294250D02*X243500Y293500D01*
X248300Y296500D02*X250550D01*
X247550Y295750D02*X248300Y296500D01*
X247550Y295750D02*Y294250D01*
X248300Y293500D01*
X250550D01*
X253100Y299500D02*Y294250D01*
X253850Y293500D01*
X252350Y297250D02*X253850D01*
X258050Y298300D02*X259250Y299500D01*
Y293500D01*
X258050D02*X260300D01*
X262100Y295750D02*X265100Y299500D01*
X262100Y295750D02*X265850D01*
X265100Y299500D02*Y293500D01*
X270350Y298750D02*X271100Y299500D01*
X273350D01*
X274100Y298750D01*
Y297250D01*
X270350Y293500D02*X274100Y297250D01*
X270350Y293500D02*X274100D01*
X275900Y298750D02*X276650Y299500D01*
X278150D01*
X278900Y298750D01*
X278150Y293500D02*X278900Y294250D01*
X276650Y293500D02*X278150D01*
X275900Y294250D02*X276650Y293500D01*
Y296800D02*X278150D01*
X278900Y298750D02*Y297550D01*
Y296050D02*Y294250D01*
Y296050D02*X278150Y296800D01*
X278900Y297550D02*X278150Y296800D01*
X280700Y297250D02*X281450D01*
X280700Y295750D02*X281450D01*
X283250Y298300D02*X284450Y299500D01*
Y293500D01*
X283250D02*X285500D01*
X287300Y295750D02*X290300Y299500D01*
X287300Y295750D02*X291050D01*
X290300Y299500D02*Y293500D01*
X292850Y297250D02*X293600D01*
X292850Y295750D02*X293600D01*
X295400Y294250D02*X296150Y293500D01*
X295400Y298750D02*Y294250D01*
Y298750D02*X296150Y299500D01*
X297650D01*
X298400Y298750D01*
Y294250D01*
X297650Y293500D02*X298400Y294250D01*
X296150Y293500D02*X297650D01*
X295400Y295000D02*X298400Y298000D01*
X300200Y298300D02*X301400Y299500D01*
Y293500D01*
X300200D02*X302450D01*
X306950Y298750D02*X307700Y299500D01*
X309950D01*
X310700Y298750D01*
Y297250D01*
X306950Y293500D02*X310700Y297250D01*
X306950Y293500D02*X310700D01*
X312500Y294250D02*X313250Y293500D01*
X312500Y298750D02*Y294250D01*
Y298750D02*X313250Y299500D01*
X314750D01*
X315500Y298750D01*
Y294250D01*
X314750Y293500D02*X315500Y294250D01*
X313250Y293500D02*X314750D01*
X312500Y295000D02*X315500Y298000D01*
X317300Y298750D02*X318050Y299500D01*
X320300D01*
X321050Y298750D01*
Y297250D01*
X317300Y293500D02*X321050Y297250D01*
X317300Y293500D02*X321050D01*
X322850Y294250D02*X323600Y293500D01*
X322850Y298750D02*Y294250D01*
Y298750D02*X323600Y299500D01*
X325100D01*
X325850Y298750D01*
Y294250D01*
X325100Y293500D02*X325850Y294250D01*
X323600Y293500D02*X325100D01*
X322850Y295000D02*X325850Y298000D01*
X330350Y299500D02*Y294250D01*
X331100Y293500D01*
X332600D01*
X333350Y294250D01*
Y299500D02*Y294250D01*
X335150Y299500D02*X338150D01*
X336650D02*Y293500D01*
X341000D02*X342950D01*
X339950Y294550D02*X341000Y293500D01*
X339950Y298450D02*Y294550D01*
Y298450D02*X341000Y299500D01*
X342950D01*
X200000Y313000D02*Y308500D01*
Y313000D02*X201050Y314500D01*
X202700D01*
X203750Y313000D01*
Y308500D01*
X200000Y311500D02*X203750D01*
X205550D02*Y309250D01*
X206300Y308500D01*
X207800D01*
X208550Y309250D01*
Y311500D02*Y309250D01*
X211100Y314500D02*Y309250D01*
X211850Y308500D01*
X210350Y312250D02*X211850D01*
X213350Y314500D02*Y308500D01*
Y310750D02*X214100Y311500D01*
X215600D01*
X216350Y310750D01*
Y308500D01*
X218150Y310750D02*Y309250D01*
Y310750D02*X218900Y311500D01*
X220400D01*
X221150Y310750D01*
Y309250D01*
X220400Y308500D02*X221150Y309250D01*
X218900Y308500D02*X220400D01*
X218150Y309250D02*X218900Y308500D01*
X223700Y310750D02*Y308500D01*
Y310750D02*X224450Y311500D01*
X225950D01*
X222950D02*X223700Y310750D01*
X227750Y312250D02*X228500D01*
X227750Y310750D02*X228500D01*
X233000Y314500D02*Y308500D01*
Y314500D02*X236750Y308500D01*
Y314500D02*Y308500D01*
X240800Y311500D02*X241550Y310750D01*
X239300Y311500D02*X240800D01*
X238550Y310750D02*X239300Y311500D01*
X238550Y310750D02*Y309250D01*
X239300Y308500D01*
X241550Y311500D02*Y309250D01*
X242300Y308500D01*
X239300D02*X240800D01*
X241550Y309250D01*
X244850Y314500D02*Y309250D01*
X245600Y308500D01*
X244100Y312250D02*X245600D01*
X247100Y314500D02*Y308500D01*
Y310750D02*X247850Y311500D01*
X249350D01*
X250100Y310750D01*
Y308500D01*
X254150Y311500D02*X254900Y310750D01*
X252650Y311500D02*X254150D01*
X251900Y310750D02*X252650Y311500D01*
X251900Y310750D02*Y309250D01*
X252650Y308500D01*
X254900Y311500D02*Y309250D01*
X255650Y308500D01*
X252650D02*X254150D01*
X254900Y309250D01*
X258200Y310750D02*Y308500D01*
Y310750D02*X258950Y311500D01*
X259700D01*
X260450Y310750D01*
Y308500D01*
X257450Y311500D02*X258200Y310750D01*
X265700Y314500D02*Y308500D01*
X267650Y314500D02*X268700Y313450D01*
Y309550D01*
X267650Y308500D02*X268700Y309550D01*
X264950Y308500D02*X267650D01*
X264950Y314500D02*X267650D01*
X270500Y308500D02*X271250D01*
X275750Y314500D02*Y308500D01*
X279500Y314500D02*Y308500D01*
X275750Y311500D02*X279500D01*
X281300Y310750D02*Y309250D01*
Y310750D02*X282050Y311500D01*
X283550D01*
X284300Y310750D01*
Y309250D01*
X283550Y308500D02*X284300Y309250D01*
X282050Y308500D02*X283550D01*
X281300Y309250D02*X282050Y308500D01*
X286100Y314500D02*Y309250D01*
X286850Y308500D01*
X289100Y310750D02*Y308500D01*
Y310750D02*X289850Y311500D01*
X290600D01*
X291350Y310750D01*
Y308500D01*
Y310750D02*X292100Y311500D01*
X292850D01*
X293600Y310750D01*
Y308500D01*
X288350Y311500D02*X289100Y310750D01*
X296150Y308500D02*X298400D01*
X295400Y309250D02*X296150Y308500D01*
X295400Y310750D02*Y309250D01*
Y310750D02*X296150Y311500D01*
X297650D01*
X298400Y310750D01*
X295400Y310000D02*X298400D01*
Y310750D02*Y310000D01*
X300950Y308500D02*X303200D01*
X303950Y309250D01*
X303200Y310000D02*X303950Y309250D01*
X300950Y310000D02*X303200D01*
X300200Y310750D02*X300950Y310000D01*
X300200Y310750D02*X300950Y311500D01*
X303200D01*
X303950Y310750D01*
X300200Y309250D02*X300950Y308500D01*
X200000Y329500D02*X203000D01*
X201500D02*Y323500D01*
G54D38*X204800Y328000D02*Y327850D01*
G54D37*Y325750D02*Y323500D01*
X207050Y329500D02*Y324250D01*
X207800Y323500D01*
X206300Y327250D02*X207800D01*
X209300Y329500D02*Y324250D01*
X210050Y323500D01*
X212300D02*X214550D01*
X211550Y324250D02*X212300Y323500D01*
X211550Y325750D02*Y324250D01*
Y325750D02*X212300Y326500D01*
X213800D01*
X214550Y325750D01*
X211550Y325000D02*X214550D01*
Y325750D02*Y325000D01*
X216350Y327250D02*X217100D01*
X216350Y325750D02*X217100D01*
X221600Y324250D02*X222350Y323500D01*
X221600Y328750D02*X222350Y329500D01*
X221600Y328750D02*Y324250D01*
X224150Y326500D02*Y324250D01*
X224900Y323500D01*
X226400D01*
X227150Y324250D01*
Y326500D02*Y324250D01*
X229700Y325750D02*Y323500D01*
Y325750D02*X230450Y326500D01*
X231200D01*
X231950Y325750D01*
Y323500D01*
X228950Y326500D02*X229700Y325750D01*
X233750Y329500D02*Y323500D01*
Y325750D02*X236000Y323500D01*
X233750Y325750D02*X235250Y327250D01*
X238550Y325750D02*Y323500D01*
Y325750D02*X239300Y326500D01*
X240050D01*
X240800Y325750D01*
Y323500D01*
X237800Y326500D02*X238550Y325750D01*
X242600D02*Y324250D01*
Y325750D02*X243350Y326500D01*
X244850D01*
X245600Y325750D01*
Y324250D01*
X244850Y323500D02*X245600Y324250D01*
X243350Y323500D02*X244850D01*
X242600Y324250D02*X243350Y323500D01*
X247400Y326500D02*Y324250D01*
X248150Y323500D01*
X248900D01*
X249650Y324250D01*
Y326500D02*Y324250D01*
X250400Y323500D01*
X251150D01*
X251900Y324250D01*
Y326500D02*Y324250D01*
X254450Y325750D02*Y323500D01*
Y325750D02*X255200Y326500D01*
X255950D01*
X256700Y325750D01*
Y323500D01*
X253700Y326500D02*X254450Y325750D01*
X258500Y329500D02*X259250Y328750D01*
Y324250D01*
X258500Y323500D02*X259250Y324250D01*
X263750Y326500D02*X266750D01*
X271250Y329500D02*Y323500D01*
Y329500D02*X274250D01*
X271250Y326800D02*X273500D01*
X278300Y326500D02*X279050Y325750D01*
X276800Y326500D02*X278300D01*
X276050Y325750D02*X276800Y326500D01*
X276050Y325750D02*Y324250D01*
X276800Y323500D01*
X279050Y326500D02*Y324250D01*
X279800Y323500D01*
X276800D02*X278300D01*
X279050Y324250D01*
X281600Y329500D02*Y323500D01*
Y324250D02*X282350Y323500D01*
X283850D01*
X284600Y324250D01*
Y325750D02*Y324250D01*
X283850Y326500D02*X284600Y325750D01*
X282350Y326500D02*X283850D01*
X281600Y325750D02*X282350Y326500D01*
X287150Y325750D02*Y323500D01*
Y325750D02*X287900Y326500D01*
X289400D01*
X286400D02*X287150Y325750D01*
G54D38*X291200Y328000D02*Y327850D01*
G54D37*Y325750D02*Y323500D01*
X293450Y326500D02*X295700D01*
X292700Y325750D02*X293450Y326500D01*
X292700Y325750D02*Y324250D01*
X293450Y323500D01*
X295700D01*
X299750Y326500D02*X300500Y325750D01*
X298250Y326500D02*X299750D01*
X297500Y325750D02*X298250Y326500D01*
X297500Y325750D02*Y324250D01*
X298250Y323500D01*
X300500Y326500D02*Y324250D01*
X301250Y323500D01*
X298250D02*X299750D01*
X300500Y324250D01*
X303800Y329500D02*Y324250D01*
X304550Y323500D01*
X303050Y327250D02*X304550D01*
G54D38*X306050Y328000D02*Y327850D01*
G54D37*Y325750D02*Y323500D01*
X307550Y325750D02*Y324250D01*
Y325750D02*X308300Y326500D01*
X309800D01*
X310550Y325750D01*
Y324250D01*
X309800Y323500D02*X310550Y324250D01*
X308300Y323500D02*X309800D01*
X307550Y324250D02*X308300Y323500D01*
X313100Y325750D02*Y323500D01*
Y325750D02*X313850Y326500D01*
X314600D01*
X315350Y325750D01*
Y323500D01*
X312350Y326500D02*X313100Y325750D01*
X320600Y329500D02*Y323500D01*
X322550Y329500D02*X323600Y328450D01*
Y324550D01*
X322550Y323500D02*X323600Y324550D01*
X319850Y323500D02*X322550D01*
X319850Y329500D02*X322550D01*
X326150Y325750D02*Y323500D01*
Y325750D02*X326900Y326500D01*
X328400D01*
X325400D02*X326150Y325750D01*
X332450Y326500D02*X333200Y325750D01*
X330950Y326500D02*X332450D01*
X330200Y325750D02*X330950Y326500D01*
X330200Y325750D02*Y324250D01*
X330950Y323500D01*
X333200Y326500D02*Y324250D01*
X333950Y323500D01*
X330950D02*X332450D01*
X333200Y324250D01*
X335750Y326500D02*Y324250D01*
X336500Y323500D01*
X337250D01*
X338000Y324250D01*
Y326500D02*Y324250D01*
X338750Y323500D01*
X339500D01*
X340250Y324250D01*
Y326500D02*Y324250D01*
G54D38*X342050Y328000D02*Y327850D01*
G54D37*Y325750D02*Y323500D01*
X344300Y325750D02*Y323500D01*
Y325750D02*X345050Y326500D01*
X345800D01*
X346550Y325750D01*
Y323500D01*
X343550Y326500D02*X344300Y325750D01*
X350600Y326500D02*X351350Y325750D01*
X349100Y326500D02*X350600D01*
X348350Y325750D02*X349100Y326500D01*
X348350Y325750D02*Y324250D01*
X349100Y323500D01*
X350600D01*
X351350Y324250D01*
X348350Y322000D02*X349100Y321250D01*
X350600D01*
X351350Y322000D01*
Y326500D02*Y322000D01*
M02*
