M48
INCH
T25C0.020
T24C0.024
%
T25
X004050Y024500
X004050Y020500
X004050Y016500
X004050Y012500
X004050Y008500
X004050Y004500
X004050Y000500
X004600Y024500
X004600Y020500
X004600Y016500
X004600Y012500
X004600Y008500
X004600Y004500
X004600Y000500
T24
X001220Y026300
X001220Y025800
X001220Y025300
X001220Y024800
X001220Y022300
X001220Y021800
X001220Y021300
X001220Y020800
X001220Y018300
X001220Y017800
X001220Y017300
X001220Y016800
X001220Y014300
X001220Y013800
X001220Y013300
X001220Y012800
X001220Y010300
X001220Y009800
X001220Y009300
X001220Y008800
X001220Y006300
X001220Y005800
X001220Y005300
X001220Y004800
X001220Y002300
X001220Y001800
X001220Y001300
X001220Y000800
M30
